M48
;GenerationSoftware,Autodesk,EAGLE,9.5.2*%
;CreationDate,2020-02-01T20:38:05Z*%
FMAT,2
ICI,OFF
METRIC,TZ,000.000
T5C0.300
T4C0.350
T3C0.900
T2C4.000
T1C4.450
%
G90
M71
T1
X35814Y29503
X43014Y29503
X35814Y38520
X43014Y38520
T2
X66294Y21971
X48514Y21971
X101854Y21971
X84074Y21971
T3
X106994Y13081
X114494Y13081
X89214Y13081
X96714Y13081
X71434Y13081
X78934Y13081
X35874Y13081
X43374Y13081
X61154Y30861
X53654Y30861
X78934Y30861
X71434Y30861
X96714Y30861
X89214Y30861
X114494Y30861
X106994Y30861
X53654Y13081
X61154Y13081
T4
X105664Y8001
X109474Y18161
X114046Y35941
X109320Y39751
X105664Y42291
X112014Y34671
X115824Y35941
X112014Y25781
X91540Y39751
X96266Y35941
X87884Y42291
X94234Y33909
X94234Y25781
X98044Y35941
X73760Y39751
X78232Y35814
X70104Y42291
X76073Y33909
X80264Y35941
X76454Y25781
X16891Y18034
X19177Y4445
X27393Y24130
X60960Y35941
X55980Y39751
X52324Y42291
X58674Y34671
X62484Y35941
X58674Y25781
X70104Y8001
X73914Y18161
X9048Y29591
X11684Y23241
X7874Y44831
X7191Y29210
X16764Y44831
X20320Y33020
X25654Y44831
X24130Y38100
X21623Y31838
X10414Y28019
X21623Y30138
X26924Y11811
X6604Y4191
X7977Y39068
X25269Y39239
X16667Y38100
X36388Y8001
X5080Y38100
X10414Y25781
X23114Y29591
X10414Y41680
X10414Y39751
X18034Y39751
X18920Y41678
X6604Y39751
X28575Y44831
X19685Y44831
X12319Y43180
X19304Y29057
X26924Y29591
X17995Y24003
X17995Y22352
X23312Y33401
X21844Y33401
X5627Y20828
X4064Y23241
X14224Y44831
X19812Y19431
X20193Y15406
X23114Y10541
X24384Y10541
X25654Y10541
X26924Y10541
X28194Y10541
X28194Y9271
X26924Y9271
X25654Y9271
X24384Y9271
X23114Y9271
X23114Y8001
X24384Y8001
X25654Y8001
X26924Y8001
X28194Y8001
X9144Y4191
X10414Y4191
X11684Y4191
X15240Y36830
X41048Y4191
X44704Y1651
X38354Y10033
X34544Y8001
X40894Y18161
X109474Y9271
X115824Y1651
X112168Y4191
X107442Y7620
X91694Y18161
X87884Y8001
X91694Y9906
X98044Y1651
X94388Y4191
X89855Y7747
X74041Y9906
X80264Y1651
X76608Y4191
X72136Y7874
X52324Y8001
X56134Y18161
X56134Y10541
X62484Y1651
X54102Y8001
X58828Y4191
T5
X20731Y11191
X20731Y9891
X18131Y9891
X18131Y11191
X19431Y11191
X19431Y9891
M30