G04 EAGLE Gerber RS-274X export*
G75*
%MOMM*%
%FSLAX34Y34*%
%LPD*%
%INTop Copper*%
%IPPOS*%
%AMOC8*
5,1,8,0,0,1.08239X$1,22.5*%
G01*
%ADD10R,1.000000X1.100000*%
%ADD11R,1.100000X1.000000*%
%ADD12C,0.300000*%
%ADD13R,1.397000X0.348000*%
%ADD14R,0.400000X1.350000*%
%ADD15R,1.175000X1.900000*%
%ADD16R,1.800000X1.900000*%
%ADD17C,1.524000*%
%ADD18P,1.649562X8X202.500000*%
%ADD19R,1.900000X0.400000*%
%ADD20R,1.000000X1.400000*%
%ADD21R,2.667000X2.540000*%
%ADD22R,1.270000X0.762000*%
%ADD23R,1.270000X0.558800*%
%ADD24R,0.558800X1.270000*%
%ADD25R,1.600000X1.800000*%
%ADD26R,1.800000X1.600000*%
%ADD27C,0.304800*%
%ADD28C,0.756400*%
%ADD29C,0.203200*%
%ADD30C,0.254000*%
%ADD31C,0.806400*%
%ADD32C,0.406400*%
%ADD33C,0.856400*%

G36*
X794938Y397526D02*
X794938Y397526D01*
X795057Y397533D01*
X795095Y397546D01*
X795136Y397551D01*
X795246Y397594D01*
X795359Y397631D01*
X795394Y397653D01*
X795431Y397668D01*
X795527Y397737D01*
X795628Y397801D01*
X795656Y397831D01*
X795689Y397854D01*
X795765Y397946D01*
X795846Y398033D01*
X795866Y398068D01*
X795891Y398099D01*
X795942Y398207D01*
X796000Y398311D01*
X796010Y398351D01*
X796027Y398387D01*
X796049Y398504D01*
X796079Y398619D01*
X796083Y398679D01*
X796087Y398699D01*
X796085Y398720D01*
X796089Y398780D01*
X796089Y906020D01*
X796074Y906138D01*
X796067Y906257D01*
X796054Y906295D01*
X796049Y906336D01*
X796006Y906446D01*
X795969Y906559D01*
X795947Y906594D01*
X795932Y906631D01*
X795863Y906727D01*
X795799Y906828D01*
X795769Y906856D01*
X795746Y906889D01*
X795654Y906965D01*
X795567Y907046D01*
X795532Y907066D01*
X795501Y907091D01*
X795393Y907142D01*
X795289Y907200D01*
X795249Y907210D01*
X795213Y907227D01*
X795096Y907249D01*
X794981Y907279D01*
X794921Y907283D01*
X794901Y907287D01*
X794880Y907285D01*
X794820Y907289D01*
X620406Y907289D01*
X620357Y907283D01*
X620307Y907285D01*
X620200Y907263D01*
X620091Y907249D01*
X620044Y907231D01*
X619996Y907221D01*
X619897Y907173D01*
X619795Y907132D01*
X619755Y907103D01*
X619710Y907081D01*
X619626Y907010D01*
X619538Y906946D01*
X619506Y906907D01*
X619468Y906875D01*
X619405Y906785D01*
X619335Y906701D01*
X619314Y906656D01*
X619285Y906615D01*
X619246Y906512D01*
X619199Y906413D01*
X619190Y906364D01*
X619172Y906318D01*
X619160Y906208D01*
X619139Y906101D01*
X619143Y906051D01*
X619137Y906002D01*
X619152Y905893D01*
X619159Y905783D01*
X619175Y905736D01*
X619181Y905687D01*
X619234Y905534D01*
X620831Y901678D01*
X620831Y896642D01*
X618903Y891988D01*
X615342Y888427D01*
X610688Y886499D01*
X605652Y886499D01*
X601935Y888039D01*
X601926Y888041D01*
X601918Y888046D01*
X601773Y888083D01*
X601628Y888123D01*
X601619Y888123D01*
X601610Y888125D01*
X601450Y888135D01*
X591781Y888135D01*
X590564Y889352D01*
X590470Y889426D01*
X590380Y889504D01*
X590344Y889523D01*
X590312Y889547D01*
X590203Y889595D01*
X590097Y889649D01*
X590058Y889658D01*
X590021Y889674D01*
X589903Y889692D01*
X589787Y889718D01*
X589747Y889717D01*
X589707Y889724D01*
X589588Y889712D01*
X589469Y889709D01*
X589430Y889698D01*
X589390Y889694D01*
X589278Y889653D01*
X589164Y889620D01*
X589129Y889600D01*
X589091Y889586D01*
X588992Y889519D01*
X588890Y889459D01*
X588844Y889419D01*
X588828Y889408D01*
X588814Y889392D01*
X588769Y889352D01*
X587552Y888135D01*
X568288Y888135D01*
X567317Y889106D01*
X567223Y889179D01*
X567134Y889258D01*
X567098Y889276D01*
X567066Y889301D01*
X566957Y889349D01*
X566851Y889403D01*
X566812Y889411D01*
X566774Y889427D01*
X566657Y889446D01*
X566541Y889472D01*
X566500Y889471D01*
X566460Y889477D01*
X566342Y889466D01*
X566223Y889463D01*
X566184Y889451D01*
X566144Y889448D01*
X566032Y889407D01*
X565917Y889374D01*
X565882Y889354D01*
X565844Y889340D01*
X565746Y889273D01*
X565643Y889213D01*
X565598Y889173D01*
X565581Y889161D01*
X565568Y889146D01*
X565522Y889106D01*
X564552Y888135D01*
X545288Y888135D01*
X544071Y889352D01*
X543977Y889426D01*
X543888Y889504D01*
X543852Y889523D01*
X543820Y889547D01*
X543711Y889595D01*
X543605Y889649D01*
X543565Y889658D01*
X543528Y889674D01*
X543410Y889692D01*
X543294Y889718D01*
X543254Y889717D01*
X543214Y889724D01*
X543095Y889712D01*
X542977Y889709D01*
X542938Y889698D01*
X542897Y889694D01*
X542785Y889653D01*
X542671Y889620D01*
X542636Y889600D01*
X542598Y889586D01*
X542500Y889519D01*
X542397Y889459D01*
X542352Y889419D01*
X542335Y889408D01*
X542322Y889392D01*
X542276Y889352D01*
X541059Y888135D01*
X531390Y888135D01*
X531381Y888134D01*
X531372Y888135D01*
X531223Y888114D01*
X531075Y888095D01*
X531066Y888092D01*
X531057Y888091D01*
X530905Y888039D01*
X527188Y886499D01*
X522152Y886499D01*
X517498Y888427D01*
X513937Y891988D01*
X512009Y896642D01*
X512009Y901678D01*
X513606Y905534D01*
X513620Y905582D01*
X513641Y905627D01*
X513661Y905735D01*
X513690Y905841D01*
X513691Y905891D01*
X513701Y905940D01*
X513694Y906049D01*
X513695Y906159D01*
X513684Y906207D01*
X513681Y906257D01*
X513647Y906361D01*
X513621Y906468D01*
X513598Y906512D01*
X513583Y906559D01*
X513524Y906652D01*
X513473Y906749D01*
X513439Y906786D01*
X513413Y906828D01*
X513333Y906903D01*
X513259Y906985D01*
X513217Y907012D01*
X513181Y907046D01*
X513085Y907099D01*
X512993Y907159D01*
X512946Y907176D01*
X512902Y907200D01*
X512796Y907227D01*
X512692Y907263D01*
X512643Y907267D01*
X512595Y907279D01*
X512434Y907289D01*
X424180Y907289D01*
X424062Y907274D01*
X423943Y907267D01*
X423905Y907254D01*
X423864Y907249D01*
X423754Y907206D01*
X423641Y907169D01*
X423606Y907147D01*
X423569Y907132D01*
X423473Y907063D01*
X423372Y906999D01*
X423344Y906969D01*
X423311Y906946D01*
X423235Y906854D01*
X423154Y906767D01*
X423134Y906732D01*
X423109Y906701D01*
X423058Y906593D01*
X423000Y906489D01*
X422990Y906449D01*
X422973Y906413D01*
X422951Y906296D01*
X422921Y906181D01*
X422917Y906121D01*
X422913Y906101D01*
X422915Y906080D01*
X422911Y906020D01*
X422911Y801877D01*
X422928Y801739D01*
X422941Y801600D01*
X422948Y801581D01*
X422951Y801561D01*
X423002Y801432D01*
X423049Y801301D01*
X423060Y801284D01*
X423068Y801265D01*
X423149Y801153D01*
X423227Y801038D01*
X423243Y801024D01*
X423254Y801008D01*
X423362Y800919D01*
X423466Y800827D01*
X423484Y800818D01*
X423499Y800805D01*
X423625Y800746D01*
X423749Y800683D01*
X423769Y800678D01*
X423787Y800670D01*
X423924Y800644D01*
X424059Y800613D01*
X424080Y800614D01*
X424099Y800610D01*
X424238Y800619D01*
X424377Y800623D01*
X424397Y800628D01*
X424417Y800630D01*
X424549Y800672D01*
X424683Y800711D01*
X424700Y800721D01*
X424719Y800728D01*
X424806Y800783D01*
X434387Y800783D01*
X436159Y799011D01*
X436159Y789505D01*
X434387Y787733D01*
X433952Y787733D01*
X433834Y787718D01*
X433715Y787711D01*
X433677Y787698D01*
X433636Y787693D01*
X433526Y787650D01*
X433413Y787613D01*
X433378Y787591D01*
X433341Y787576D01*
X433245Y787507D01*
X433144Y787443D01*
X433116Y787413D01*
X433083Y787390D01*
X433007Y787298D01*
X432926Y787211D01*
X432906Y787176D01*
X432881Y787145D01*
X432830Y787037D01*
X432772Y786933D01*
X432762Y786893D01*
X432745Y786857D01*
X432723Y786740D01*
X432693Y786625D01*
X432689Y786565D01*
X432685Y786545D01*
X432687Y786524D01*
X432683Y786464D01*
X432683Y784896D01*
X432695Y784798D01*
X432698Y784699D01*
X432715Y784640D01*
X432723Y784580D01*
X432759Y784488D01*
X432787Y784393D01*
X432817Y784341D01*
X432840Y784285D01*
X432898Y784205D01*
X432948Y784119D01*
X433014Y784044D01*
X433026Y784027D01*
X433036Y784020D01*
X433054Y783998D01*
X434267Y782786D01*
X435075Y780836D01*
X435075Y778724D01*
X434267Y776774D01*
X432800Y775308D01*
X432740Y775229D01*
X432672Y775157D01*
X432643Y775104D01*
X432606Y775056D01*
X432566Y774965D01*
X432518Y774879D01*
X432503Y774820D01*
X432479Y774764D01*
X432464Y774667D01*
X432439Y774571D01*
X432433Y774471D01*
X432429Y774450D01*
X432431Y774438D01*
X432429Y774410D01*
X432429Y772842D01*
X432444Y772724D01*
X432451Y772605D01*
X432464Y772567D01*
X432469Y772526D01*
X432512Y772416D01*
X432549Y772303D01*
X432571Y772268D01*
X432586Y772231D01*
X432655Y772135D01*
X432719Y772034D01*
X432749Y772006D01*
X432772Y771973D01*
X432864Y771897D01*
X432951Y771816D01*
X432986Y771796D01*
X433017Y771771D01*
X433125Y771720D01*
X433229Y771662D01*
X433269Y771652D01*
X433305Y771635D01*
X433422Y771613D01*
X433537Y771583D01*
X433597Y771579D01*
X433617Y771575D01*
X433638Y771577D01*
X433698Y771573D01*
X434133Y771573D01*
X435905Y769801D01*
X435905Y760295D01*
X434133Y758523D01*
X424180Y758523D01*
X424062Y758508D01*
X423943Y758501D01*
X423905Y758488D01*
X423864Y758483D01*
X423754Y758440D01*
X423641Y758403D01*
X423606Y758381D01*
X423569Y758366D01*
X423473Y758297D01*
X423372Y758233D01*
X423344Y758203D01*
X423311Y758180D01*
X423235Y758088D01*
X423154Y758001D01*
X423134Y757966D01*
X423109Y757935D01*
X423058Y757827D01*
X423000Y757723D01*
X422990Y757683D01*
X422973Y757647D01*
X422951Y757530D01*
X422921Y757415D01*
X422917Y757355D01*
X422913Y757335D01*
X422915Y757314D01*
X422911Y757254D01*
X422911Y398780D01*
X422926Y398662D01*
X422933Y398543D01*
X422946Y398505D01*
X422951Y398464D01*
X422994Y398354D01*
X423031Y398241D01*
X423053Y398206D01*
X423068Y398169D01*
X423137Y398073D01*
X423201Y397972D01*
X423231Y397944D01*
X423254Y397911D01*
X423346Y397835D01*
X423433Y397754D01*
X423468Y397734D01*
X423499Y397709D01*
X423607Y397658D01*
X423711Y397600D01*
X423751Y397590D01*
X423787Y397573D01*
X423904Y397551D01*
X424019Y397521D01*
X424079Y397517D01*
X424099Y397513D01*
X424120Y397515D01*
X424180Y397511D01*
X794820Y397511D01*
X794938Y397526D01*
G37*
%LPC*%
G36*
X538694Y604293D02*
X538694Y604293D01*
X536744Y605101D01*
X535251Y606594D01*
X534443Y608544D01*
X534443Y610069D01*
X534431Y610168D01*
X534428Y610267D01*
X534411Y610325D01*
X534403Y610385D01*
X534367Y610477D01*
X534339Y610572D01*
X534309Y610624D01*
X534286Y610681D01*
X534228Y610761D01*
X534178Y610846D01*
X534112Y610921D01*
X534100Y610938D01*
X534090Y610946D01*
X534072Y610967D01*
X532701Y612337D01*
X532701Y617982D01*
X532686Y618100D01*
X532679Y618219D01*
X532666Y618257D01*
X532661Y618298D01*
X532618Y618408D01*
X532581Y618521D01*
X532559Y618556D01*
X532544Y618593D01*
X532475Y618689D01*
X532411Y618790D01*
X532381Y618818D01*
X532358Y618851D01*
X532266Y618927D01*
X532179Y619008D01*
X532144Y619028D01*
X532113Y619053D01*
X532005Y619104D01*
X531901Y619162D01*
X531861Y619172D01*
X531825Y619189D01*
X531708Y619211D01*
X531593Y619241D01*
X531533Y619245D01*
X531513Y619249D01*
X531492Y619247D01*
X531432Y619251D01*
X524093Y619251D01*
X523987Y619268D01*
X523871Y619294D01*
X523830Y619293D01*
X523791Y619299D01*
X523672Y619288D01*
X523553Y619285D01*
X523514Y619273D01*
X523474Y619270D01*
X523423Y619251D01*
X516093Y619251D01*
X515987Y619268D01*
X515871Y619294D01*
X515830Y619293D01*
X515791Y619299D01*
X515672Y619288D01*
X515553Y619285D01*
X515514Y619273D01*
X515474Y619270D01*
X515423Y619251D01*
X508324Y619251D01*
X507431Y620144D01*
X507431Y634108D01*
X508324Y635001D01*
X515432Y635001D01*
X515550Y635016D01*
X515669Y635023D01*
X515707Y635036D01*
X515748Y635041D01*
X515858Y635084D01*
X515971Y635121D01*
X516006Y635143D01*
X516043Y635158D01*
X516139Y635227D01*
X516240Y635291D01*
X516268Y635321D01*
X516301Y635344D01*
X516377Y635436D01*
X516458Y635523D01*
X516478Y635558D01*
X516503Y635589D01*
X516554Y635697D01*
X516612Y635801D01*
X516622Y635841D01*
X516639Y635877D01*
X516661Y635994D01*
X516691Y636109D01*
X516695Y636169D01*
X516699Y636189D01*
X516697Y636210D01*
X516701Y636270D01*
X516701Y663253D01*
X516689Y663352D01*
X516686Y663451D01*
X516669Y663509D01*
X516661Y663569D01*
X516625Y663661D01*
X516598Y663756D01*
X516567Y663808D01*
X516544Y663865D01*
X516486Y663945D01*
X516436Y664030D01*
X516370Y664105D01*
X516358Y664122D01*
X516348Y664130D01*
X516330Y664151D01*
X516173Y664307D01*
X516095Y664368D01*
X516023Y664436D01*
X515970Y664465D01*
X515922Y664502D01*
X515831Y664542D01*
X515744Y664590D01*
X515686Y664605D01*
X515630Y664629D01*
X515532Y664644D01*
X515436Y664669D01*
X515336Y664675D01*
X515316Y664679D01*
X515304Y664677D01*
X515275Y664679D01*
X507456Y664679D01*
X506563Y665572D01*
X506563Y676836D01*
X507456Y677729D01*
X519720Y677729D01*
X520613Y676836D01*
X520613Y669017D01*
X520625Y668918D01*
X520628Y668819D01*
X520645Y668761D01*
X520653Y668701D01*
X520689Y668609D01*
X520717Y668514D01*
X520747Y668462D01*
X520770Y668405D01*
X520828Y668325D01*
X520878Y668240D01*
X520944Y668165D01*
X520956Y668148D01*
X520966Y668140D01*
X520984Y668119D01*
X522799Y666305D01*
X522799Y665693D01*
X522816Y665555D01*
X522829Y665416D01*
X522836Y665397D01*
X522839Y665377D01*
X522890Y665248D01*
X522937Y665117D01*
X522948Y665100D01*
X522956Y665081D01*
X523037Y664969D01*
X523115Y664854D01*
X523131Y664840D01*
X523142Y664824D01*
X523250Y664735D01*
X523354Y664643D01*
X523372Y664634D01*
X523387Y664621D01*
X523513Y664562D01*
X523637Y664499D01*
X523657Y664494D01*
X523675Y664486D01*
X523812Y664460D01*
X523947Y664429D01*
X523968Y664430D01*
X523987Y664426D01*
X524126Y664434D01*
X524265Y664439D01*
X524285Y664444D01*
X524305Y664446D01*
X524437Y664488D01*
X524571Y664527D01*
X524588Y664537D01*
X524607Y664544D01*
X524725Y664618D01*
X524845Y664689D01*
X524866Y664707D01*
X524876Y664714D01*
X524890Y664729D01*
X524965Y664795D01*
X526859Y666688D01*
X528036Y667865D01*
X528096Y667943D01*
X528164Y668015D01*
X528193Y668068D01*
X528230Y668116D01*
X528270Y668207D01*
X528318Y668294D01*
X528333Y668353D01*
X528357Y668408D01*
X528372Y668506D01*
X528397Y668602D01*
X528403Y668702D01*
X528407Y668722D01*
X528405Y668735D01*
X528407Y668763D01*
X528407Y676582D01*
X529300Y677475D01*
X541564Y677475D01*
X542457Y676582D01*
X542457Y665318D01*
X541564Y664425D01*
X533745Y664425D01*
X533646Y664413D01*
X533547Y664410D01*
X533489Y664393D01*
X533429Y664385D01*
X533337Y664349D01*
X533242Y664321D01*
X533190Y664291D01*
X533133Y664268D01*
X533053Y664210D01*
X532968Y664160D01*
X532893Y664094D01*
X532876Y664082D01*
X532868Y664072D01*
X532847Y664054D01*
X531170Y662377D01*
X531110Y662299D01*
X531042Y662227D01*
X531013Y662174D01*
X530976Y662126D01*
X530936Y662035D01*
X530888Y661948D01*
X530873Y661889D01*
X530849Y661834D01*
X530834Y661736D01*
X530809Y661640D01*
X530803Y661540D01*
X530799Y661520D01*
X530801Y661507D01*
X530799Y661479D01*
X530799Y639013D01*
X530816Y638875D01*
X530829Y638736D01*
X530836Y638717D01*
X530839Y638697D01*
X530890Y638568D01*
X530937Y638437D01*
X530948Y638420D01*
X530956Y638401D01*
X531037Y638289D01*
X531115Y638174D01*
X531131Y638160D01*
X531142Y638144D01*
X531250Y638055D01*
X531354Y637963D01*
X531372Y637954D01*
X531387Y637941D01*
X531513Y637882D01*
X531637Y637819D01*
X531657Y637814D01*
X531675Y637806D01*
X531811Y637780D01*
X531947Y637749D01*
X531968Y637750D01*
X531987Y637746D01*
X532126Y637754D01*
X532265Y637759D01*
X532285Y637764D01*
X532305Y637766D01*
X532437Y637808D01*
X532571Y637847D01*
X532588Y637857D01*
X532607Y637864D01*
X532725Y637938D01*
X532845Y638009D01*
X532866Y638027D01*
X532876Y638034D01*
X532890Y638049D01*
X532965Y638115D01*
X555380Y660529D01*
X555440Y660607D01*
X555508Y660679D01*
X555537Y660732D01*
X555574Y660780D01*
X555614Y660871D01*
X555662Y660958D01*
X555677Y661017D01*
X555701Y661072D01*
X555716Y661170D01*
X555741Y661266D01*
X555747Y661366D01*
X555751Y661386D01*
X555749Y661399D01*
X555751Y661427D01*
X555751Y663156D01*
X555736Y663274D01*
X555729Y663393D01*
X555716Y663431D01*
X555711Y663472D01*
X555668Y663582D01*
X555631Y663695D01*
X555609Y663730D01*
X555594Y663767D01*
X555525Y663863D01*
X555461Y663964D01*
X555431Y663992D01*
X555408Y664025D01*
X555316Y664101D01*
X555229Y664182D01*
X555194Y664202D01*
X555163Y664227D01*
X555055Y664278D01*
X554951Y664336D01*
X554911Y664346D01*
X554875Y664363D01*
X554758Y664385D01*
X554643Y664415D01*
X554583Y664419D01*
X554563Y664423D01*
X554542Y664421D01*
X554482Y664425D01*
X552668Y664425D01*
X551775Y665318D01*
X551775Y676582D01*
X552668Y677475D01*
X564932Y677475D01*
X565825Y676582D01*
X565825Y675268D01*
X565840Y675150D01*
X565847Y675031D01*
X565860Y674993D01*
X565865Y674952D01*
X565908Y674842D01*
X565945Y674729D01*
X565967Y674694D01*
X565982Y674657D01*
X566051Y674561D01*
X566115Y674460D01*
X566145Y674432D01*
X566168Y674399D01*
X566260Y674323D01*
X566347Y674242D01*
X566382Y674222D01*
X566413Y674197D01*
X566521Y674146D01*
X566625Y674088D01*
X566665Y674078D01*
X566701Y674061D01*
X566818Y674039D01*
X566933Y674009D01*
X566993Y674005D01*
X567013Y674001D01*
X567034Y674003D01*
X567094Y673999D01*
X576336Y673999D01*
X576454Y674014D01*
X576573Y674021D01*
X576611Y674034D01*
X576652Y674039D01*
X576762Y674082D01*
X576875Y674119D01*
X576910Y674141D01*
X576947Y674156D01*
X577043Y674225D01*
X577144Y674289D01*
X577172Y674319D01*
X577205Y674342D01*
X577281Y674434D01*
X577362Y674521D01*
X577382Y674556D01*
X577407Y674587D01*
X577458Y674695D01*
X577516Y674799D01*
X577526Y674839D01*
X577543Y674875D01*
X577565Y674992D01*
X577595Y675107D01*
X577599Y675167D01*
X577603Y675187D01*
X577601Y675208D01*
X577605Y675268D01*
X577605Y678558D01*
X578498Y679451D01*
X587817Y679451D01*
X587916Y679463D01*
X588015Y679466D01*
X588073Y679483D01*
X588133Y679491D01*
X588225Y679527D01*
X588320Y679555D01*
X588372Y679585D01*
X588429Y679608D01*
X588509Y679666D01*
X588594Y679716D01*
X588669Y679782D01*
X588686Y679794D01*
X588694Y679804D01*
X588715Y679822D01*
X645437Y736545D01*
X645522Y736654D01*
X645611Y736761D01*
X645619Y736780D01*
X645632Y736796D01*
X645687Y736924D01*
X645746Y737049D01*
X645750Y737069D01*
X645758Y737088D01*
X645780Y737226D01*
X645806Y737362D01*
X645805Y737382D01*
X645808Y737402D01*
X645795Y737541D01*
X645786Y737679D01*
X645780Y737698D01*
X645778Y737718D01*
X645731Y737850D01*
X645688Y737981D01*
X645678Y737999D01*
X645671Y738018D01*
X645593Y738133D01*
X645518Y738250D01*
X645503Y738264D01*
X645492Y738281D01*
X645388Y738373D01*
X645287Y738468D01*
X645269Y738478D01*
X645254Y738491D01*
X645130Y738554D01*
X645008Y738622D01*
X644989Y738627D01*
X644970Y738636D01*
X644835Y738666D01*
X644700Y738701D01*
X644672Y738703D01*
X644660Y738706D01*
X644640Y738705D01*
X644539Y738711D01*
X633576Y738711D01*
X632683Y739604D01*
X632683Y741172D01*
X632668Y741290D01*
X632661Y741409D01*
X632648Y741447D01*
X632643Y741488D01*
X632600Y741598D01*
X632563Y741711D01*
X632541Y741746D01*
X632526Y741783D01*
X632457Y741879D01*
X632393Y741980D01*
X632363Y742008D01*
X632340Y742041D01*
X632248Y742117D01*
X632161Y742198D01*
X632126Y742218D01*
X632095Y742243D01*
X631987Y742294D01*
X631883Y742352D01*
X631843Y742362D01*
X631807Y742379D01*
X631690Y742401D01*
X631575Y742431D01*
X631515Y742435D01*
X631495Y742439D01*
X631474Y742437D01*
X631414Y742441D01*
X611489Y742441D01*
X611371Y742426D01*
X611252Y742419D01*
X611214Y742406D01*
X611173Y742401D01*
X611063Y742358D01*
X610950Y742321D01*
X610915Y742299D01*
X610878Y742284D01*
X610782Y742215D01*
X610681Y742151D01*
X610653Y742121D01*
X610620Y742098D01*
X610544Y742006D01*
X610463Y741919D01*
X610443Y741884D01*
X610418Y741853D01*
X610367Y741745D01*
X610309Y741641D01*
X610299Y741601D01*
X610282Y741565D01*
X610260Y741448D01*
X610230Y741333D01*
X610226Y741272D01*
X610222Y741253D01*
X610224Y741232D01*
X610220Y741172D01*
X610220Y736428D01*
X609327Y735535D01*
X594050Y735535D01*
X594046Y735537D01*
X593998Y735574D01*
X593907Y735614D01*
X593820Y735662D01*
X593762Y735677D01*
X593706Y735701D01*
X593608Y735716D01*
X593512Y735741D01*
X593412Y735747D01*
X593392Y735751D01*
X593380Y735749D01*
X593352Y735751D01*
X575489Y735751D01*
X575390Y735739D01*
X575291Y735736D01*
X575233Y735719D01*
X575173Y735711D01*
X575081Y735675D01*
X574986Y735647D01*
X574934Y735617D01*
X574877Y735594D01*
X574797Y735536D01*
X574712Y735486D01*
X574637Y735420D01*
X574620Y735408D01*
X574612Y735398D01*
X574591Y735380D01*
X538852Y699641D01*
X538792Y699563D01*
X538724Y699491D01*
X538695Y699438D01*
X538658Y699390D01*
X538618Y699299D01*
X538570Y699212D01*
X538555Y699153D01*
X538531Y699098D01*
X538516Y699000D01*
X538491Y698904D01*
X538485Y698804D01*
X538481Y698784D01*
X538483Y698771D01*
X538481Y698743D01*
X538481Y695744D01*
X538496Y695626D01*
X538503Y695507D01*
X538516Y695469D01*
X538521Y695428D01*
X538565Y695317D01*
X538601Y695205D01*
X538623Y695170D01*
X538638Y695133D01*
X538707Y695037D01*
X538771Y694936D01*
X538801Y694908D01*
X538824Y694875D01*
X538916Y694799D01*
X539003Y694718D01*
X539038Y694698D01*
X539069Y694673D01*
X539177Y694622D01*
X539281Y694564D01*
X539321Y694554D01*
X539357Y694537D01*
X539474Y694515D01*
X539589Y694485D01*
X539649Y694481D01*
X539669Y694477D01*
X539690Y694479D01*
X539750Y694475D01*
X541564Y694475D01*
X542457Y693582D01*
X542457Y682318D01*
X541564Y681425D01*
X529300Y681425D01*
X528407Y682318D01*
X528407Y693582D01*
X529300Y694475D01*
X531114Y694475D01*
X531232Y694490D01*
X531351Y694497D01*
X531389Y694510D01*
X531430Y694515D01*
X531540Y694558D01*
X531653Y694595D01*
X531688Y694617D01*
X531725Y694632D01*
X531821Y694701D01*
X531922Y694765D01*
X531950Y694795D01*
X531983Y694818D01*
X532059Y694910D01*
X532140Y694997D01*
X532160Y695032D01*
X532185Y695063D01*
X532236Y695171D01*
X532294Y695275D01*
X532304Y695315D01*
X532321Y695351D01*
X532343Y695468D01*
X532373Y695583D01*
X532377Y695643D01*
X532381Y695663D01*
X532379Y695684D01*
X532383Y695744D01*
X532383Y699623D01*
X532366Y699761D01*
X532364Y699783D01*
X532361Y699829D01*
X532359Y699836D01*
X532353Y699900D01*
X532346Y699919D01*
X532343Y699939D01*
X532292Y700068D01*
X532245Y700199D01*
X532234Y700216D01*
X532226Y700235D01*
X532145Y700347D01*
X532067Y700462D01*
X532051Y700476D01*
X532040Y700492D01*
X531932Y700581D01*
X531828Y700673D01*
X531810Y700682D01*
X531795Y700695D01*
X531669Y700754D01*
X531545Y700817D01*
X531525Y700822D01*
X531507Y700830D01*
X531371Y700856D01*
X531235Y700887D01*
X531214Y700886D01*
X531195Y700890D01*
X531056Y700882D01*
X530917Y700877D01*
X530897Y700872D01*
X530877Y700870D01*
X530745Y700828D01*
X530611Y700789D01*
X530594Y700779D01*
X530575Y700772D01*
X530457Y700698D01*
X530337Y700627D01*
X530316Y700609D01*
X530306Y700602D01*
X530292Y700587D01*
X530217Y700521D01*
X520984Y691289D01*
X520924Y691211D01*
X520856Y691139D01*
X520827Y691086D01*
X520790Y691038D01*
X520750Y690947D01*
X520702Y690860D01*
X520687Y690802D01*
X520663Y690746D01*
X520648Y690648D01*
X520623Y690552D01*
X520617Y690452D01*
X520613Y690432D01*
X520615Y690419D01*
X520613Y690391D01*
X520613Y682572D01*
X519720Y681679D01*
X507456Y681679D01*
X506563Y682572D01*
X506563Y693836D01*
X507456Y694729D01*
X515275Y694729D01*
X515374Y694741D01*
X515473Y694744D01*
X515531Y694761D01*
X515591Y694769D01*
X515683Y694805D01*
X515778Y694833D01*
X515830Y694863D01*
X515887Y694886D01*
X515967Y694944D01*
X516052Y694994D01*
X516128Y695060D01*
X516144Y695072D01*
X516152Y695082D01*
X516173Y695100D01*
X586764Y765691D01*
X588921Y767849D01*
X591931Y767849D01*
X592049Y767864D01*
X592168Y767871D01*
X592206Y767884D01*
X592247Y767889D01*
X592357Y767932D01*
X592470Y767969D01*
X592505Y767991D01*
X592542Y768006D01*
X592638Y768075D01*
X592739Y768139D01*
X592767Y768169D01*
X592800Y768192D01*
X592876Y768284D01*
X592957Y768371D01*
X592977Y768406D01*
X593002Y768437D01*
X593053Y768545D01*
X593111Y768649D01*
X593121Y768689D01*
X593138Y768725D01*
X593160Y768842D01*
X593190Y768957D01*
X593194Y769017D01*
X593198Y769037D01*
X593196Y769058D01*
X593200Y769118D01*
X593200Y773466D01*
X593188Y773564D01*
X593185Y773663D01*
X593168Y773721D01*
X593160Y773781D01*
X593124Y773873D01*
X593096Y773969D01*
X593066Y774021D01*
X593043Y774077D01*
X592985Y774157D01*
X592935Y774243D01*
X592869Y774318D01*
X592857Y774334D01*
X592847Y774342D01*
X592829Y774363D01*
X592692Y774500D01*
X592357Y775079D01*
X592184Y775726D01*
X592184Y776531D01*
X601710Y776531D01*
X611236Y776531D01*
X611236Y775726D01*
X611063Y775079D01*
X610728Y774500D01*
X610591Y774363D01*
X610531Y774285D01*
X610463Y774213D01*
X610434Y774160D01*
X610397Y774112D01*
X610357Y774021D01*
X610309Y773934D01*
X610294Y773876D01*
X610270Y773820D01*
X610255Y773722D01*
X610230Y773627D01*
X610224Y773526D01*
X610220Y773506D01*
X610222Y773494D01*
X610220Y773466D01*
X610220Y768923D01*
X610166Y768853D01*
X610087Y768764D01*
X610069Y768728D01*
X610044Y768696D01*
X609997Y768587D01*
X609942Y768481D01*
X609934Y768441D01*
X609918Y768404D01*
X609899Y768287D01*
X609873Y768171D01*
X609874Y768130D01*
X609868Y768090D01*
X609879Y767971D01*
X609882Y767853D01*
X609894Y767814D01*
X609897Y767774D01*
X609938Y767662D01*
X609971Y767547D01*
X609991Y767512D01*
X610005Y767474D01*
X610072Y767376D01*
X610132Y767273D01*
X610172Y767228D01*
X610184Y767211D01*
X610199Y767198D01*
X610220Y767174D01*
X610220Y763126D01*
X610235Y763008D01*
X610242Y762889D01*
X610255Y762851D01*
X610260Y762810D01*
X610303Y762700D01*
X610340Y762587D01*
X610362Y762552D01*
X610377Y762515D01*
X610446Y762419D01*
X610510Y762318D01*
X610540Y762290D01*
X610563Y762257D01*
X610655Y762181D01*
X610742Y762100D01*
X610777Y762080D01*
X610808Y762055D01*
X610916Y762004D01*
X611020Y761946D01*
X611060Y761936D01*
X611096Y761919D01*
X611213Y761897D01*
X611328Y761867D01*
X611388Y761863D01*
X611408Y761859D01*
X611429Y761861D01*
X611489Y761857D01*
X648351Y761857D01*
X648449Y761869D01*
X648548Y761872D01*
X648606Y761889D01*
X648667Y761897D01*
X648759Y761933D01*
X648854Y761961D01*
X648906Y761991D01*
X648962Y762014D01*
X649042Y762072D01*
X649128Y762122D01*
X649203Y762188D01*
X649220Y762200D01*
X649227Y762210D01*
X649249Y762228D01*
X666922Y779901D01*
X666982Y779980D01*
X667050Y780052D01*
X667079Y780105D01*
X667116Y780153D01*
X667156Y780244D01*
X667204Y780330D01*
X667219Y780389D01*
X667243Y780445D01*
X667258Y780543D01*
X667283Y780638D01*
X667289Y780736D01*
X667291Y780744D01*
X667291Y780746D01*
X667293Y780759D01*
X667291Y780771D01*
X667293Y780799D01*
X667293Y782205D01*
X668177Y784339D01*
X669172Y785333D01*
X669232Y785412D01*
X669300Y785484D01*
X669329Y785537D01*
X669366Y785585D01*
X669406Y785676D01*
X669454Y785762D01*
X669469Y785821D01*
X669493Y785877D01*
X669508Y785975D01*
X669533Y786070D01*
X669539Y786170D01*
X669543Y786191D01*
X669541Y786203D01*
X669543Y786231D01*
X669543Y790956D01*
X669528Y791074D01*
X669521Y791193D01*
X669508Y791231D01*
X669503Y791272D01*
X669460Y791382D01*
X669423Y791495D01*
X669401Y791530D01*
X669386Y791567D01*
X669317Y791663D01*
X669253Y791764D01*
X669223Y791792D01*
X669200Y791825D01*
X669108Y791901D01*
X669021Y791982D01*
X668986Y792002D01*
X668955Y792027D01*
X668847Y792078D01*
X668743Y792136D01*
X668703Y792146D01*
X668667Y792163D01*
X668550Y792185D01*
X668435Y792215D01*
X668375Y792219D01*
X668355Y792223D01*
X668334Y792221D01*
X668274Y792225D01*
X659133Y792225D01*
X658240Y793118D01*
X658240Y819782D01*
X659133Y820675D01*
X687067Y820675D01*
X687960Y819782D01*
X687960Y793118D01*
X687067Y792225D01*
X677926Y792225D01*
X677808Y792210D01*
X677689Y792203D01*
X677651Y792190D01*
X677610Y792185D01*
X677500Y792142D01*
X677387Y792105D01*
X677352Y792083D01*
X677315Y792068D01*
X677219Y791999D01*
X677118Y791935D01*
X677090Y791905D01*
X677057Y791882D01*
X676981Y791790D01*
X676900Y791703D01*
X676880Y791668D01*
X676855Y791637D01*
X676804Y791529D01*
X676746Y791425D01*
X676736Y791385D01*
X676719Y791349D01*
X676697Y791232D01*
X676667Y791117D01*
X676663Y791056D01*
X676659Y791037D01*
X676661Y791016D01*
X676657Y790956D01*
X676657Y786231D01*
X676669Y786133D01*
X676672Y786034D01*
X676689Y785976D01*
X676697Y785915D01*
X676733Y785823D01*
X676761Y785728D01*
X676791Y785676D01*
X676814Y785620D01*
X676872Y785540D01*
X676922Y785454D01*
X676988Y785379D01*
X677000Y785362D01*
X677010Y785355D01*
X677028Y785333D01*
X678023Y784339D01*
X678907Y782205D01*
X678907Y779895D01*
X678023Y777761D01*
X676389Y776127D01*
X674255Y775243D01*
X672849Y775243D01*
X672751Y775231D01*
X672652Y775228D01*
X672594Y775211D01*
X672533Y775203D01*
X672441Y775167D01*
X672346Y775139D01*
X672294Y775109D01*
X672238Y775086D01*
X672158Y775028D01*
X672072Y774978D01*
X671997Y774912D01*
X671980Y774900D01*
X671973Y774890D01*
X671951Y774872D01*
X651823Y754743D01*
X611489Y754743D01*
X611371Y754728D01*
X611252Y754721D01*
X611214Y754708D01*
X611173Y754703D01*
X611063Y754660D01*
X610950Y754623D01*
X610915Y754601D01*
X610878Y754586D01*
X610782Y754517D01*
X610681Y754453D01*
X610653Y754423D01*
X610620Y754400D01*
X610544Y754308D01*
X610463Y754221D01*
X610443Y754186D01*
X610418Y754155D01*
X610367Y754047D01*
X610309Y753943D01*
X610299Y753903D01*
X610282Y753867D01*
X610260Y753750D01*
X610230Y753635D01*
X610226Y753575D01*
X610222Y753555D01*
X610224Y753534D01*
X610220Y753474D01*
X610220Y749300D01*
X610235Y749182D01*
X610242Y749063D01*
X610255Y749025D01*
X610260Y748984D01*
X610303Y748874D01*
X610340Y748761D01*
X610362Y748726D01*
X610377Y748689D01*
X610446Y748593D01*
X610510Y748492D01*
X610540Y748464D01*
X610563Y748431D01*
X610655Y748355D01*
X610742Y748274D01*
X610777Y748254D01*
X610808Y748229D01*
X610916Y748178D01*
X611020Y748120D01*
X611060Y748110D01*
X611096Y748093D01*
X611213Y748071D01*
X611328Y748041D01*
X611388Y748037D01*
X611408Y748033D01*
X611429Y748035D01*
X611489Y748031D01*
X631414Y748031D01*
X631532Y748046D01*
X631651Y748053D01*
X631689Y748066D01*
X631730Y748071D01*
X631840Y748114D01*
X631953Y748151D01*
X631988Y748173D01*
X632025Y748188D01*
X632121Y748257D01*
X632222Y748321D01*
X632250Y748351D01*
X632283Y748374D01*
X632359Y748466D01*
X632440Y748553D01*
X632460Y748588D01*
X632485Y748619D01*
X632536Y748727D01*
X632594Y748831D01*
X632604Y748871D01*
X632621Y748907D01*
X632643Y749024D01*
X632673Y749139D01*
X632677Y749199D01*
X632681Y749219D01*
X632679Y749240D01*
X632683Y749300D01*
X632683Y750868D01*
X633576Y751761D01*
X645840Y751761D01*
X646733Y750868D01*
X646733Y740905D01*
X646750Y740767D01*
X646763Y740628D01*
X646770Y740609D01*
X646773Y740589D01*
X646824Y740460D01*
X646871Y740329D01*
X646882Y740312D01*
X646890Y740293D01*
X646971Y740181D01*
X647049Y740066D01*
X647065Y740052D01*
X647076Y740036D01*
X647183Y739947D01*
X647288Y739855D01*
X647306Y739846D01*
X647321Y739833D01*
X647447Y739774D01*
X647571Y739711D01*
X647591Y739706D01*
X647609Y739698D01*
X647745Y739672D01*
X647881Y739641D01*
X647902Y739642D01*
X647921Y739638D01*
X648060Y739646D01*
X648199Y739651D01*
X648219Y739656D01*
X648239Y739658D01*
X648371Y739700D01*
X648505Y739739D01*
X648522Y739749D01*
X648541Y739756D01*
X648659Y739830D01*
X648779Y739901D01*
X648800Y739919D01*
X648810Y739926D01*
X648824Y739941D01*
X648900Y740007D01*
X649312Y740419D01*
X649372Y740497D01*
X649440Y740569D01*
X649469Y740623D01*
X649506Y740670D01*
X649546Y740761D01*
X649594Y740848D01*
X649609Y740907D01*
X649633Y740962D01*
X649648Y741060D01*
X649673Y741156D01*
X649679Y741256D01*
X649683Y741276D01*
X649681Y741289D01*
X649683Y741317D01*
X649683Y750868D01*
X650576Y751761D01*
X662840Y751761D01*
X663733Y750868D01*
X663733Y739604D01*
X662840Y738711D01*
X656753Y738711D01*
X656654Y738699D01*
X656555Y738696D01*
X656497Y738679D01*
X656437Y738671D01*
X656345Y738635D01*
X656250Y738607D01*
X656198Y738577D01*
X656141Y738554D01*
X656061Y738496D01*
X655976Y738446D01*
X655901Y738380D01*
X655884Y738368D01*
X655876Y738358D01*
X655855Y738340D01*
X591026Y673511D01*
X590966Y673433D01*
X590898Y673361D01*
X590869Y673308D01*
X590832Y673260D01*
X590792Y673169D01*
X590744Y673082D01*
X590729Y673023D01*
X590705Y672968D01*
X590690Y672870D01*
X590665Y672774D01*
X590659Y672674D01*
X590655Y672654D01*
X590657Y672641D01*
X590655Y672613D01*
X590655Y663294D01*
X589762Y662401D01*
X578498Y662401D01*
X577605Y663294D01*
X577605Y666632D01*
X577590Y666750D01*
X577583Y666869D01*
X577570Y666907D01*
X577565Y666948D01*
X577522Y667058D01*
X577485Y667171D01*
X577463Y667206D01*
X577448Y667243D01*
X577379Y667339D01*
X577315Y667440D01*
X577285Y667468D01*
X577262Y667501D01*
X577170Y667577D01*
X577083Y667658D01*
X577048Y667678D01*
X577017Y667703D01*
X576909Y667754D01*
X576805Y667812D01*
X576765Y667822D01*
X576729Y667839D01*
X576612Y667861D01*
X576497Y667891D01*
X576437Y667895D01*
X576417Y667899D01*
X576396Y667897D01*
X576336Y667901D01*
X567094Y667901D01*
X566976Y667886D01*
X566857Y667879D01*
X566819Y667866D01*
X566778Y667861D01*
X566668Y667818D01*
X566555Y667781D01*
X566520Y667759D01*
X566483Y667744D01*
X566387Y667675D01*
X566286Y667611D01*
X566258Y667581D01*
X566225Y667558D01*
X566149Y667466D01*
X566068Y667379D01*
X566048Y667344D01*
X566023Y667313D01*
X565972Y667205D01*
X565914Y667101D01*
X565904Y667061D01*
X565887Y667025D01*
X565865Y666908D01*
X565835Y666793D01*
X565831Y666733D01*
X565827Y666713D01*
X565829Y666692D01*
X565825Y666632D01*
X565825Y665318D01*
X564932Y664425D01*
X563118Y664425D01*
X563000Y664410D01*
X562881Y664403D01*
X562843Y664390D01*
X562802Y664385D01*
X562692Y664342D01*
X562579Y664305D01*
X562544Y664283D01*
X562507Y664268D01*
X562411Y664199D01*
X562310Y664135D01*
X562282Y664105D01*
X562249Y664082D01*
X562173Y663990D01*
X562092Y663903D01*
X562072Y663868D01*
X562047Y663837D01*
X561996Y663729D01*
X561938Y663625D01*
X561928Y663585D01*
X561911Y663549D01*
X561889Y663432D01*
X561859Y663317D01*
X561855Y663257D01*
X561851Y663237D01*
X561853Y663216D01*
X561849Y663156D01*
X561849Y658368D01*
X561864Y658250D01*
X561871Y658131D01*
X561884Y658093D01*
X561889Y658052D01*
X561932Y657942D01*
X561969Y657829D01*
X561991Y657794D01*
X562006Y657757D01*
X562075Y657661D01*
X562139Y657560D01*
X562169Y657532D01*
X562192Y657499D01*
X562284Y657423D01*
X562371Y657342D01*
X562406Y657322D01*
X562437Y657297D01*
X562545Y657246D01*
X562649Y657188D01*
X562689Y657178D01*
X562725Y657161D01*
X562842Y657139D01*
X562957Y657109D01*
X563017Y657105D01*
X563037Y657101D01*
X563058Y657103D01*
X563118Y657099D01*
X612011Y657099D01*
X612110Y657111D01*
X612209Y657114D01*
X612267Y657131D01*
X612327Y657139D01*
X612419Y657175D01*
X612514Y657203D01*
X612566Y657233D01*
X612623Y657256D01*
X612703Y657314D01*
X612788Y657364D01*
X612863Y657430D01*
X612880Y657442D01*
X612888Y657452D01*
X612909Y657470D01*
X678404Y722965D01*
X678464Y723043D01*
X678532Y723115D01*
X678561Y723168D01*
X678598Y723216D01*
X678638Y723307D01*
X678686Y723394D01*
X678701Y723453D01*
X678725Y723508D01*
X678740Y723606D01*
X678765Y723702D01*
X678771Y723802D01*
X678775Y723822D01*
X678773Y723835D01*
X678775Y723863D01*
X678775Y731682D01*
X679668Y732575D01*
X687487Y732575D01*
X687586Y732587D01*
X687685Y732590D01*
X687743Y732607D01*
X687803Y732615D01*
X687895Y732651D01*
X687990Y732679D01*
X688042Y732709D01*
X688099Y732732D01*
X688179Y732790D01*
X688264Y732840D01*
X688339Y732906D01*
X688356Y732918D01*
X688364Y732928D01*
X688371Y732935D01*
X688374Y732936D01*
X688375Y732938D01*
X688385Y732946D01*
X695087Y739649D01*
X732540Y739649D01*
X732639Y739661D01*
X732738Y739664D01*
X732796Y739681D01*
X732856Y739689D01*
X732948Y739725D01*
X733043Y739753D01*
X733095Y739783D01*
X733152Y739806D01*
X733232Y739864D01*
X733317Y739914D01*
X733392Y739980D01*
X733409Y739992D01*
X733417Y740002D01*
X733438Y740020D01*
X739162Y745745D01*
X746738Y745745D01*
X752095Y740388D01*
X752095Y732812D01*
X746738Y727455D01*
X739162Y727455D01*
X733438Y733180D01*
X733360Y733240D01*
X733288Y733308D01*
X733235Y733337D01*
X733187Y733374D01*
X733096Y733414D01*
X733009Y733462D01*
X732950Y733477D01*
X732895Y733501D01*
X732797Y733516D01*
X732701Y733541D01*
X732601Y733547D01*
X732581Y733551D01*
X732568Y733549D01*
X732540Y733551D01*
X698139Y733551D01*
X698040Y733539D01*
X697941Y733536D01*
X697883Y733519D01*
X697823Y733511D01*
X697731Y733475D01*
X697636Y733447D01*
X697584Y733417D01*
X697527Y733394D01*
X697447Y733336D01*
X697362Y733286D01*
X697287Y733220D01*
X697270Y733208D01*
X697262Y733198D01*
X697241Y733180D01*
X693196Y729135D01*
X693136Y729057D01*
X693068Y728985D01*
X693039Y728932D01*
X693002Y728884D01*
X692962Y728793D01*
X692914Y728706D01*
X692899Y728647D01*
X692875Y728592D01*
X692860Y728494D01*
X692835Y728398D01*
X692829Y728298D01*
X692825Y728278D01*
X692827Y728265D01*
X692825Y728237D01*
X692825Y720418D01*
X691932Y719525D01*
X684113Y719525D01*
X684014Y719513D01*
X683915Y719510D01*
X683857Y719493D01*
X683797Y719485D01*
X683705Y719449D01*
X683610Y719421D01*
X683558Y719391D01*
X683501Y719368D01*
X683421Y719310D01*
X683336Y719260D01*
X683261Y719194D01*
X683244Y719182D01*
X683236Y719172D01*
X683215Y719154D01*
X681803Y717741D01*
X681718Y717632D01*
X681629Y717525D01*
X681620Y717506D01*
X681608Y717490D01*
X681553Y717363D01*
X681494Y717237D01*
X681490Y717217D01*
X681482Y717198D01*
X681460Y717060D01*
X681434Y716924D01*
X681435Y716904D01*
X681432Y716884D01*
X681445Y716745D01*
X681454Y716607D01*
X681460Y716588D01*
X681462Y716568D01*
X681509Y716436D01*
X681552Y716305D01*
X681562Y716287D01*
X681569Y716268D01*
X681647Y716153D01*
X681722Y716036D01*
X681737Y716022D01*
X681748Y716005D01*
X681852Y715913D01*
X681953Y715818D01*
X681971Y715808D01*
X681986Y715795D01*
X682110Y715731D01*
X682232Y715664D01*
X682251Y715659D01*
X682270Y715650D01*
X682405Y715620D01*
X682540Y715585D01*
X682568Y715583D01*
X682580Y715580D01*
X682600Y715581D01*
X682701Y715575D01*
X691932Y715575D01*
X692825Y714682D01*
X692825Y703418D01*
X691932Y702525D01*
X690118Y702525D01*
X690000Y702510D01*
X689881Y702503D01*
X689843Y702490D01*
X689802Y702485D01*
X689692Y702442D01*
X689579Y702405D01*
X689544Y702383D01*
X689507Y702368D01*
X689411Y702299D01*
X689310Y702235D01*
X689282Y702205D01*
X689249Y702182D01*
X689173Y702090D01*
X689092Y702003D01*
X689072Y701968D01*
X689047Y701937D01*
X688996Y701829D01*
X688938Y701725D01*
X688928Y701685D01*
X688911Y701649D01*
X688889Y701532D01*
X688859Y701417D01*
X688855Y701357D01*
X688851Y701337D01*
X688853Y701316D01*
X688849Y701256D01*
X688849Y697132D01*
X688861Y697034D01*
X688864Y696935D01*
X688881Y696876D01*
X688889Y696816D01*
X688925Y696724D01*
X688953Y696629D01*
X688983Y696577D01*
X689006Y696521D01*
X689064Y696441D01*
X689114Y696355D01*
X689180Y696280D01*
X689192Y696263D01*
X689202Y696256D01*
X689220Y696234D01*
X690299Y695156D01*
X691107Y693206D01*
X691107Y691094D01*
X690299Y689144D01*
X689220Y688066D01*
X689160Y687987D01*
X689092Y687915D01*
X689063Y687862D01*
X689026Y687814D01*
X688986Y687723D01*
X688938Y687637D01*
X688923Y687578D01*
X688899Y687522D01*
X688884Y687425D01*
X688859Y687329D01*
X688853Y687229D01*
X688849Y687208D01*
X688851Y687196D01*
X688849Y687168D01*
X688849Y683044D01*
X688864Y682926D01*
X688871Y682807D01*
X688884Y682769D01*
X688889Y682728D01*
X688932Y682618D01*
X688969Y682505D01*
X688991Y682470D01*
X689006Y682433D01*
X689075Y682337D01*
X689139Y682236D01*
X689169Y682208D01*
X689192Y682175D01*
X689284Y682099D01*
X689371Y682018D01*
X689406Y681998D01*
X689437Y681973D01*
X689545Y681922D01*
X689649Y681864D01*
X689689Y681854D01*
X689725Y681837D01*
X689842Y681815D01*
X689957Y681785D01*
X690017Y681781D01*
X690037Y681777D01*
X690058Y681779D01*
X690118Y681775D01*
X691932Y681775D01*
X692825Y680882D01*
X692825Y669618D01*
X691932Y668725D01*
X679668Y668725D01*
X678775Y669618D01*
X678775Y680882D01*
X679668Y681775D01*
X681482Y681775D01*
X681600Y681790D01*
X681719Y681797D01*
X681757Y681810D01*
X681798Y681815D01*
X681908Y681858D01*
X682021Y681895D01*
X682056Y681917D01*
X682093Y681932D01*
X682189Y682001D01*
X682290Y682065D01*
X682318Y682095D01*
X682351Y682118D01*
X682427Y682210D01*
X682508Y682297D01*
X682528Y682332D01*
X682553Y682363D01*
X682604Y682471D01*
X682662Y682575D01*
X682672Y682615D01*
X682689Y682651D01*
X682711Y682768D01*
X682741Y682883D01*
X682745Y682943D01*
X682749Y682963D01*
X682747Y682984D01*
X682751Y683044D01*
X682751Y687168D01*
X682739Y687266D01*
X682736Y687365D01*
X682719Y687424D01*
X682711Y687484D01*
X682675Y687576D01*
X682647Y687671D01*
X682617Y687723D01*
X682594Y687779D01*
X682536Y687859D01*
X682486Y687945D01*
X682420Y688020D01*
X682408Y688037D01*
X682398Y688044D01*
X682380Y688066D01*
X681301Y689144D01*
X680493Y691094D01*
X680493Y693206D01*
X681301Y695156D01*
X682380Y696234D01*
X682440Y696313D01*
X682508Y696385D01*
X682537Y696438D01*
X682574Y696486D01*
X682614Y696577D01*
X682662Y696663D01*
X682677Y696722D01*
X682701Y696778D01*
X682716Y696875D01*
X682741Y696971D01*
X682747Y697071D01*
X682751Y697092D01*
X682749Y697104D01*
X682751Y697132D01*
X682751Y701256D01*
X682736Y701374D01*
X682729Y701493D01*
X682716Y701531D01*
X682711Y701572D01*
X682668Y701682D01*
X682631Y701795D01*
X682609Y701830D01*
X682594Y701867D01*
X682525Y701963D01*
X682461Y702064D01*
X682431Y702092D01*
X682408Y702125D01*
X682316Y702201D01*
X682229Y702282D01*
X682194Y702302D01*
X682163Y702327D01*
X682055Y702378D01*
X681951Y702436D01*
X681911Y702446D01*
X681875Y702463D01*
X681758Y702485D01*
X681643Y702515D01*
X681583Y702519D01*
X681563Y702523D01*
X681542Y702521D01*
X681482Y702525D01*
X679668Y702525D01*
X678775Y703418D01*
X678775Y711649D01*
X678758Y711787D01*
X678745Y711926D01*
X678738Y711945D01*
X678735Y711965D01*
X678684Y712094D01*
X678637Y712225D01*
X678626Y712242D01*
X678618Y712261D01*
X678537Y712373D01*
X678459Y712488D01*
X678443Y712502D01*
X678432Y712518D01*
X678324Y712607D01*
X678220Y712699D01*
X678202Y712708D01*
X678187Y712721D01*
X678061Y712780D01*
X677937Y712843D01*
X677917Y712848D01*
X677899Y712856D01*
X677763Y712882D01*
X677627Y712913D01*
X677606Y712912D01*
X677587Y712916D01*
X677448Y712908D01*
X677309Y712903D01*
X677289Y712898D01*
X677269Y712896D01*
X677137Y712854D01*
X677003Y712815D01*
X676986Y712805D01*
X676967Y712798D01*
X676849Y712724D01*
X676729Y712653D01*
X676708Y712635D01*
X676698Y712628D01*
X676684Y712613D01*
X676609Y712547D01*
X645989Y681928D01*
X645895Y681807D01*
X645801Y681688D01*
X645799Y681682D01*
X645794Y681676D01*
X645733Y681536D01*
X645672Y681397D01*
X645671Y681391D01*
X645668Y681385D01*
X645667Y681376D01*
X645523Y681335D01*
X645517Y681331D01*
X645511Y681329D01*
X645381Y681251D01*
X645249Y681173D01*
X645242Y681167D01*
X645239Y681165D01*
X645231Y681157D01*
X645128Y681067D01*
X617220Y653159D01*
X615063Y651001D01*
X561466Y651001D01*
X561368Y650989D01*
X561269Y650986D01*
X561211Y650969D01*
X561151Y650961D01*
X561059Y650925D01*
X560964Y650897D01*
X560911Y650867D01*
X560855Y650844D01*
X560775Y650786D01*
X560690Y650736D01*
X560614Y650670D01*
X560598Y650658D01*
X560590Y650648D01*
X560569Y650630D01*
X549328Y639389D01*
X549268Y639311D01*
X549200Y639239D01*
X549171Y639186D01*
X549134Y639138D01*
X549094Y639047D01*
X549046Y638960D01*
X549031Y638902D01*
X549007Y638846D01*
X548992Y638748D01*
X548967Y638652D01*
X548961Y638552D01*
X548957Y638532D01*
X548959Y638520D01*
X548957Y638492D01*
X548957Y637163D01*
X548974Y637025D01*
X548987Y636887D01*
X548994Y636868D01*
X548997Y636847D01*
X549048Y636718D01*
X549095Y636587D01*
X549106Y636571D01*
X549114Y636552D01*
X549195Y636439D01*
X549273Y636324D01*
X549289Y636311D01*
X549300Y636294D01*
X549408Y636206D01*
X549512Y636114D01*
X549530Y636105D01*
X549545Y636092D01*
X549671Y636032D01*
X549795Y635969D01*
X549815Y635965D01*
X549833Y635956D01*
X549969Y635930D01*
X550105Y635900D01*
X550126Y635900D01*
X550145Y635896D01*
X550284Y635905D01*
X550423Y635909D01*
X550443Y635915D01*
X550463Y635916D01*
X550595Y635959D01*
X550729Y635998D01*
X550746Y636008D01*
X550765Y636014D01*
X550883Y636089D01*
X551003Y636159D01*
X551024Y636178D01*
X551034Y636184D01*
X551048Y636199D01*
X551123Y636266D01*
X557099Y642241D01*
X559257Y644399D01*
X671311Y644399D01*
X671410Y644411D01*
X671509Y644414D01*
X671567Y644431D01*
X671627Y644439D01*
X671719Y644475D01*
X671814Y644503D01*
X671866Y644533D01*
X671923Y644556D01*
X672003Y644614D01*
X672088Y644664D01*
X672163Y644730D01*
X672180Y644742D01*
X672188Y644752D01*
X672209Y644770D01*
X678519Y651080D01*
X678592Y651174D01*
X678670Y651264D01*
X678689Y651300D01*
X678714Y651331D01*
X678761Y651441D01*
X678815Y651547D01*
X678824Y651586D01*
X678840Y651623D01*
X678859Y651741D01*
X678885Y651857D01*
X678883Y651897D01*
X678890Y651937D01*
X678879Y652056D01*
X678875Y652175D01*
X678864Y652214D01*
X678860Y652254D01*
X678820Y652366D01*
X678786Y652481D01*
X678775Y652499D01*
X678775Y663882D01*
X679668Y664775D01*
X691687Y664775D01*
X691786Y664787D01*
X691885Y664790D01*
X691943Y664807D01*
X692003Y664815D01*
X692095Y664851D01*
X692190Y664879D01*
X692242Y664909D01*
X692299Y664932D01*
X692379Y664990D01*
X692464Y665040D01*
X692539Y665106D01*
X692556Y665118D01*
X692564Y665128D01*
X692585Y665146D01*
X733434Y705995D01*
X733494Y706073D01*
X733562Y706145D01*
X733591Y706198D01*
X733628Y706246D01*
X733668Y706337D01*
X733716Y706424D01*
X733731Y706483D01*
X733755Y706538D01*
X733770Y706636D01*
X733795Y706732D01*
X733801Y706832D01*
X733805Y706852D01*
X733803Y706865D01*
X733805Y706893D01*
X733805Y714988D01*
X739162Y720345D01*
X746738Y720345D01*
X752095Y714988D01*
X752095Y707412D01*
X746738Y702055D01*
X738643Y702055D01*
X738544Y702043D01*
X738445Y702040D01*
X738387Y702023D01*
X738327Y702015D01*
X738235Y701979D01*
X738140Y701951D01*
X738088Y701921D01*
X738031Y701898D01*
X737951Y701840D01*
X737866Y701790D01*
X737791Y701724D01*
X737774Y701712D01*
X737766Y701702D01*
X737745Y701684D01*
X693196Y657135D01*
X693136Y657057D01*
X693068Y656985D01*
X693039Y656932D01*
X693002Y656884D01*
X692962Y656793D01*
X692914Y656706D01*
X692899Y656647D01*
X692875Y656592D01*
X692860Y656494D01*
X692835Y656398D01*
X692829Y656298D01*
X692825Y656278D01*
X692827Y656265D01*
X692825Y656237D01*
X692825Y652618D01*
X691932Y651725D01*
X688313Y651725D01*
X688214Y651713D01*
X688115Y651710D01*
X688057Y651693D01*
X687997Y651685D01*
X687905Y651649D01*
X687810Y651621D01*
X687758Y651591D01*
X687701Y651568D01*
X687621Y651510D01*
X687536Y651460D01*
X687461Y651394D01*
X687444Y651382D01*
X687436Y651372D01*
X687415Y651354D01*
X674363Y638301D01*
X562308Y638301D01*
X562210Y638289D01*
X562111Y638286D01*
X562053Y638269D01*
X561993Y638261D01*
X561901Y638225D01*
X561805Y638197D01*
X561753Y638167D01*
X561697Y638144D01*
X561617Y638086D01*
X561531Y638036D01*
X561456Y637970D01*
X561440Y637958D01*
X561432Y637948D01*
X561411Y637930D01*
X560649Y637167D01*
X560564Y637058D01*
X560475Y636951D01*
X560466Y636932D01*
X560454Y636916D01*
X560398Y636788D01*
X560339Y636663D01*
X560335Y636643D01*
X560327Y636624D01*
X560305Y636486D01*
X560279Y636350D01*
X560281Y636330D01*
X560277Y636310D01*
X560290Y636171D01*
X560299Y636033D01*
X560305Y636014D01*
X560307Y635994D01*
X560354Y635863D01*
X560397Y635731D01*
X560408Y635713D01*
X560415Y635694D01*
X560493Y635580D01*
X560567Y635462D01*
X560582Y635448D01*
X560593Y635431D01*
X560697Y635339D01*
X560799Y635244D01*
X560817Y635234D01*
X560832Y635221D01*
X560956Y635158D01*
X561077Y635090D01*
X561097Y635085D01*
X561115Y635076D01*
X561251Y635046D01*
X561385Y635011D01*
X561413Y635009D01*
X561425Y635006D01*
X561446Y635007D01*
X561546Y635001D01*
X563407Y635001D01*
X563514Y634984D01*
X563630Y634958D01*
X563670Y634959D01*
X563710Y634953D01*
X563829Y634964D01*
X563948Y634968D01*
X563986Y634979D01*
X564026Y634982D01*
X564077Y635001D01*
X571176Y635001D01*
X572069Y634108D01*
X572069Y631444D01*
X572084Y631326D01*
X572091Y631207D01*
X572104Y631169D01*
X572109Y631128D01*
X572152Y631018D01*
X572189Y630905D01*
X572211Y630870D01*
X572226Y630833D01*
X572295Y630737D01*
X572359Y630636D01*
X572389Y630608D01*
X572412Y630575D01*
X572504Y630499D01*
X572591Y630418D01*
X572626Y630398D01*
X572657Y630373D01*
X572765Y630322D01*
X572869Y630264D01*
X572909Y630254D01*
X572945Y630237D01*
X573062Y630215D01*
X573177Y630185D01*
X573237Y630181D01*
X573257Y630177D01*
X573278Y630179D01*
X573338Y630175D01*
X682487Y630175D01*
X682586Y630187D01*
X682685Y630190D01*
X682743Y630207D01*
X682803Y630215D01*
X682895Y630251D01*
X682990Y630279D01*
X683042Y630309D01*
X683099Y630332D01*
X683179Y630390D01*
X683264Y630440D01*
X683339Y630506D01*
X683356Y630518D01*
X683364Y630528D01*
X683385Y630546D01*
X733434Y680595D01*
X733494Y680673D01*
X733562Y680745D01*
X733591Y680798D01*
X733628Y680846D01*
X733668Y680937D01*
X733716Y681024D01*
X733731Y681083D01*
X733755Y681138D01*
X733770Y681236D01*
X733795Y681332D01*
X733801Y681432D01*
X733805Y681452D01*
X733803Y681465D01*
X733805Y681493D01*
X733805Y689588D01*
X739162Y694945D01*
X746738Y694945D01*
X752095Y689588D01*
X752095Y682012D01*
X746738Y676655D01*
X738643Y676655D01*
X738544Y676643D01*
X738445Y676640D01*
X738387Y676623D01*
X738327Y676615D01*
X738235Y676579D01*
X738140Y676551D01*
X738088Y676521D01*
X738031Y676498D01*
X737951Y676440D01*
X737866Y676390D01*
X737791Y676324D01*
X737774Y676312D01*
X737766Y676302D01*
X737745Y676284D01*
X685539Y624077D01*
X573338Y624077D01*
X573220Y624062D01*
X573101Y624055D01*
X573063Y624042D01*
X573022Y624037D01*
X572912Y623994D01*
X572799Y623957D01*
X572764Y623935D01*
X572727Y623920D01*
X572631Y623851D01*
X572530Y623787D01*
X572502Y623757D01*
X572469Y623734D01*
X572393Y623642D01*
X572312Y623555D01*
X572292Y623520D01*
X572267Y623489D01*
X572216Y623381D01*
X572158Y623277D01*
X572148Y623237D01*
X572131Y623201D01*
X572109Y623084D01*
X572079Y622969D01*
X572075Y622909D01*
X572071Y622889D01*
X572073Y622868D01*
X572069Y622808D01*
X572069Y620144D01*
X571176Y619251D01*
X564093Y619251D01*
X563987Y619268D01*
X563871Y619294D01*
X563830Y619293D01*
X563791Y619299D01*
X563672Y619288D01*
X563553Y619285D01*
X563514Y619273D01*
X563474Y619270D01*
X563423Y619251D01*
X556093Y619251D01*
X555987Y619268D01*
X555871Y619294D01*
X555830Y619293D01*
X555791Y619299D01*
X555672Y619288D01*
X555553Y619285D01*
X555514Y619273D01*
X555474Y619270D01*
X555423Y619251D01*
X548093Y619251D01*
X547987Y619268D01*
X547871Y619294D01*
X547830Y619293D01*
X547791Y619299D01*
X547672Y619288D01*
X547553Y619285D01*
X547514Y619273D01*
X547474Y619270D01*
X547423Y619251D01*
X540068Y619251D01*
X539950Y619236D01*
X539831Y619229D01*
X539793Y619216D01*
X539752Y619211D01*
X539642Y619168D01*
X539529Y619131D01*
X539494Y619109D01*
X539457Y619094D01*
X539361Y619025D01*
X539260Y618961D01*
X539232Y618931D01*
X539199Y618908D01*
X539123Y618816D01*
X539042Y618729D01*
X539022Y618694D01*
X538997Y618663D01*
X538946Y618555D01*
X538888Y618451D01*
X538878Y618411D01*
X538861Y618375D01*
X538839Y618258D01*
X538809Y618143D01*
X538805Y618083D01*
X538801Y618063D01*
X538803Y618042D01*
X538799Y617982D01*
X538799Y616176D01*
X538814Y616058D01*
X538821Y615939D01*
X538834Y615901D01*
X538839Y615860D01*
X538882Y615750D01*
X538919Y615637D01*
X538941Y615602D01*
X538956Y615565D01*
X539025Y615469D01*
X539089Y615368D01*
X539119Y615340D01*
X539142Y615307D01*
X539234Y615231D01*
X539321Y615150D01*
X539356Y615130D01*
X539387Y615105D01*
X539495Y615054D01*
X539599Y614996D01*
X539639Y614986D01*
X539675Y614969D01*
X539792Y614947D01*
X539907Y614917D01*
X539967Y614913D01*
X539987Y614909D01*
X540008Y614911D01*
X540068Y614907D01*
X540806Y614907D01*
X542756Y614099D01*
X544249Y612606D01*
X545057Y610656D01*
X545057Y608544D01*
X544249Y606594D01*
X542756Y605101D01*
X540806Y604293D01*
X538694Y604293D01*
G37*
%LPD*%
%LPC*%
G36*
X586762Y409955D02*
X586762Y409955D01*
X581405Y415312D01*
X581405Y423407D01*
X581393Y423506D01*
X581390Y423605D01*
X581373Y423663D01*
X581365Y423723D01*
X581329Y423815D01*
X581301Y423910D01*
X581271Y423962D01*
X581248Y424019D01*
X581190Y424099D01*
X581140Y424184D01*
X581074Y424259D01*
X581062Y424276D01*
X581052Y424284D01*
X581034Y424305D01*
X576959Y428380D01*
X574801Y430537D01*
X574801Y438154D01*
X574784Y438292D01*
X574782Y438307D01*
X574779Y438364D01*
X574776Y438371D01*
X574771Y438431D01*
X574764Y438450D01*
X574761Y438470D01*
X574710Y438599D01*
X574663Y438730D01*
X574652Y438747D01*
X574644Y438766D01*
X574563Y438878D01*
X574485Y438993D01*
X574469Y439007D01*
X574458Y439023D01*
X574350Y439112D01*
X574246Y439204D01*
X574228Y439213D01*
X574213Y439226D01*
X574087Y439285D01*
X573963Y439348D01*
X573943Y439353D01*
X573925Y439361D01*
X573789Y439387D01*
X573653Y439418D01*
X573632Y439417D01*
X573613Y439421D01*
X573474Y439413D01*
X573335Y439408D01*
X573315Y439403D01*
X573295Y439401D01*
X573163Y439359D01*
X573029Y439320D01*
X573012Y439310D01*
X572993Y439303D01*
X572875Y439229D01*
X572755Y439158D01*
X572734Y439140D01*
X572724Y439133D01*
X572710Y439118D01*
X572635Y439052D01*
X568938Y435355D01*
X561362Y435355D01*
X556005Y440712D01*
X556005Y448807D01*
X555993Y448906D01*
X555990Y449005D01*
X555973Y449063D01*
X555965Y449123D01*
X555929Y449215D01*
X555901Y449310D01*
X555871Y449362D01*
X555848Y449419D01*
X555790Y449499D01*
X555740Y449584D01*
X555674Y449659D01*
X555662Y449676D01*
X555652Y449684D01*
X555634Y449705D01*
X536701Y468637D01*
X536701Y515718D01*
X536689Y515816D01*
X536686Y515915D01*
X536669Y515974D01*
X536661Y516034D01*
X536625Y516126D01*
X536597Y516221D01*
X536567Y516273D01*
X536544Y516329D01*
X536486Y516409D01*
X536436Y516495D01*
X536370Y516570D01*
X536358Y516587D01*
X536348Y516594D01*
X536330Y516616D01*
X535251Y517694D01*
X534443Y519644D01*
X534443Y521756D01*
X535251Y523706D01*
X536744Y525199D01*
X538694Y526007D01*
X540806Y526007D01*
X542756Y525199D01*
X544249Y523706D01*
X545057Y521756D01*
X545057Y519644D01*
X544249Y517694D01*
X543170Y516616D01*
X543110Y516537D01*
X543042Y516465D01*
X543013Y516412D01*
X542976Y516364D01*
X542936Y516273D01*
X542888Y516187D01*
X542873Y516128D01*
X542849Y516072D01*
X542834Y515975D01*
X542809Y515879D01*
X542803Y515779D01*
X542799Y515758D01*
X542801Y515746D01*
X542799Y515718D01*
X542799Y471689D01*
X542811Y471590D01*
X542814Y471491D01*
X542831Y471433D01*
X542839Y471373D01*
X542875Y471281D01*
X542903Y471186D01*
X542933Y471134D01*
X542956Y471077D01*
X543014Y470997D01*
X543064Y470912D01*
X543130Y470837D01*
X543142Y470820D01*
X543152Y470812D01*
X543170Y470791D01*
X559945Y454016D01*
X560023Y453956D01*
X560095Y453888D01*
X560148Y453859D01*
X560196Y453822D01*
X560287Y453782D01*
X560374Y453734D01*
X560433Y453719D01*
X560488Y453695D01*
X560586Y453680D01*
X560682Y453655D01*
X560782Y453649D01*
X560802Y453645D01*
X560815Y453647D01*
X560843Y453645D01*
X568938Y453645D01*
X572635Y449948D01*
X572744Y449863D01*
X572851Y449774D01*
X572870Y449766D01*
X572886Y449753D01*
X573014Y449698D01*
X573139Y449639D01*
X573159Y449635D01*
X573178Y449627D01*
X573316Y449605D01*
X573452Y449579D01*
X573472Y449580D01*
X573492Y449577D01*
X573631Y449590D01*
X573769Y449599D01*
X573788Y449605D01*
X573808Y449607D01*
X573940Y449654D01*
X574071Y449697D01*
X574089Y449707D01*
X574108Y449714D01*
X574223Y449792D01*
X574340Y449867D01*
X574354Y449882D01*
X574371Y449893D01*
X574463Y449997D01*
X574558Y450098D01*
X574568Y450116D01*
X574581Y450131D01*
X574645Y450255D01*
X574712Y450377D01*
X574717Y450396D01*
X574726Y450415D01*
X574756Y450550D01*
X574791Y450685D01*
X574793Y450713D01*
X574796Y450725D01*
X574795Y450745D01*
X574801Y450846D01*
X574801Y515931D01*
X574789Y516029D01*
X574786Y516128D01*
X574769Y516186D01*
X574761Y516246D01*
X574725Y516339D01*
X574697Y516434D01*
X574667Y516486D01*
X574644Y516542D01*
X574586Y516622D01*
X574536Y516708D01*
X574470Y516783D01*
X574458Y516799D01*
X574448Y516807D01*
X574430Y516828D01*
X558820Y532437D01*
X558819Y532446D01*
X558776Y532556D01*
X558739Y532669D01*
X558717Y532704D01*
X558702Y532741D01*
X558633Y532837D01*
X558569Y532938D01*
X558539Y532966D01*
X558516Y532999D01*
X558424Y533075D01*
X558337Y533156D01*
X558302Y533176D01*
X558271Y533201D01*
X558163Y533252D01*
X558059Y533310D01*
X558019Y533320D01*
X557983Y533337D01*
X557866Y533359D01*
X557751Y533389D01*
X557691Y533393D01*
X557671Y533397D01*
X557650Y533395D01*
X557590Y533399D01*
X556093Y533399D01*
X555986Y533416D01*
X555870Y533442D01*
X555830Y533441D01*
X555790Y533447D01*
X555671Y533436D01*
X555552Y533432D01*
X555514Y533421D01*
X555474Y533418D01*
X555423Y533399D01*
X548093Y533399D01*
X547986Y533416D01*
X547870Y533442D01*
X547830Y533441D01*
X547790Y533447D01*
X547671Y533436D01*
X547552Y533432D01*
X547514Y533421D01*
X547474Y533418D01*
X547423Y533399D01*
X540093Y533399D01*
X539986Y533416D01*
X539870Y533442D01*
X539830Y533441D01*
X539790Y533447D01*
X539671Y533436D01*
X539552Y533432D01*
X539514Y533421D01*
X539474Y533418D01*
X539423Y533399D01*
X532093Y533399D01*
X531986Y533416D01*
X531870Y533442D01*
X531830Y533441D01*
X531790Y533447D01*
X531671Y533436D01*
X531552Y533432D01*
X531514Y533421D01*
X531474Y533418D01*
X531423Y533399D01*
X524002Y533399D01*
X523884Y533384D01*
X523765Y533377D01*
X523727Y533364D01*
X523686Y533359D01*
X523576Y533316D01*
X523463Y533279D01*
X523428Y533257D01*
X523391Y533242D01*
X523295Y533173D01*
X523194Y533109D01*
X523166Y533079D01*
X523133Y533056D01*
X523057Y532964D01*
X522976Y532877D01*
X522956Y532842D01*
X522931Y532811D01*
X522880Y532703D01*
X522822Y532599D01*
X522812Y532559D01*
X522795Y532523D01*
X522773Y532406D01*
X522743Y532291D01*
X522739Y532231D01*
X522735Y532211D01*
X522737Y532190D01*
X522733Y532130D01*
X522733Y511864D01*
X522748Y511746D01*
X522755Y511627D01*
X522768Y511589D01*
X522773Y511548D01*
X522816Y511438D01*
X522853Y511325D01*
X522875Y511290D01*
X522890Y511253D01*
X522959Y511157D01*
X523023Y511056D01*
X523053Y511028D01*
X523076Y510995D01*
X523168Y510919D01*
X523255Y510838D01*
X523290Y510818D01*
X523321Y510793D01*
X523429Y510742D01*
X523533Y510684D01*
X523573Y510674D01*
X523609Y510657D01*
X523726Y510635D01*
X523841Y510605D01*
X523901Y510601D01*
X523921Y510597D01*
X523942Y510599D01*
X524002Y510595D01*
X524437Y510595D01*
X526209Y508823D01*
X526209Y499317D01*
X524437Y497545D01*
X514931Y497545D01*
X513159Y499317D01*
X513159Y508823D01*
X514931Y510595D01*
X515366Y510595D01*
X515484Y510610D01*
X515603Y510617D01*
X515641Y510630D01*
X515682Y510635D01*
X515792Y510678D01*
X515905Y510715D01*
X515940Y510737D01*
X515977Y510752D01*
X516073Y510821D01*
X516174Y510885D01*
X516202Y510915D01*
X516235Y510938D01*
X516311Y511030D01*
X516392Y511117D01*
X516412Y511152D01*
X516437Y511183D01*
X516488Y511291D01*
X516546Y511395D01*
X516556Y511435D01*
X516573Y511471D01*
X516595Y511588D01*
X516625Y511703D01*
X516629Y511763D01*
X516633Y511783D01*
X516631Y511804D01*
X516635Y511864D01*
X516635Y532130D01*
X516620Y532248D01*
X516613Y532367D01*
X516600Y532405D01*
X516595Y532446D01*
X516552Y532556D01*
X516515Y532669D01*
X516493Y532704D01*
X516478Y532741D01*
X516409Y532837D01*
X516345Y532938D01*
X516315Y532966D01*
X516292Y532999D01*
X516200Y533075D01*
X516113Y533156D01*
X516078Y533176D01*
X516047Y533201D01*
X515939Y533252D01*
X515835Y533310D01*
X515795Y533320D01*
X515759Y533337D01*
X515642Y533359D01*
X515527Y533389D01*
X515467Y533393D01*
X515447Y533397D01*
X515426Y533395D01*
X515366Y533399D01*
X508324Y533399D01*
X507431Y534292D01*
X507431Y548256D01*
X508324Y549149D01*
X515407Y549149D01*
X515513Y549132D01*
X515629Y549106D01*
X515670Y549107D01*
X515709Y549101D01*
X515828Y549112D01*
X515947Y549115D01*
X515986Y549127D01*
X516026Y549130D01*
X516077Y549149D01*
X523407Y549149D01*
X523513Y549132D01*
X523629Y549106D01*
X523670Y549107D01*
X523709Y549101D01*
X523828Y549112D01*
X523947Y549115D01*
X523986Y549127D01*
X524026Y549130D01*
X524077Y549149D01*
X531407Y549149D01*
X531513Y549132D01*
X531629Y549106D01*
X531670Y549107D01*
X531709Y549101D01*
X531828Y549112D01*
X531947Y549115D01*
X531986Y549127D01*
X532026Y549130D01*
X532077Y549149D01*
X539407Y549149D01*
X539513Y549132D01*
X539629Y549106D01*
X539670Y549107D01*
X539709Y549101D01*
X539828Y549112D01*
X539947Y549115D01*
X539986Y549127D01*
X540026Y549130D01*
X540077Y549149D01*
X547407Y549149D01*
X547513Y549132D01*
X547629Y549106D01*
X547670Y549107D01*
X547709Y549101D01*
X547828Y549112D01*
X547947Y549115D01*
X547986Y549127D01*
X548026Y549130D01*
X548077Y549149D01*
X555407Y549149D01*
X555513Y549132D01*
X555629Y549106D01*
X555670Y549107D01*
X555709Y549101D01*
X555828Y549112D01*
X555947Y549115D01*
X555986Y549127D01*
X556026Y549130D01*
X556077Y549149D01*
X563407Y549149D01*
X563513Y549132D01*
X563629Y549106D01*
X563670Y549107D01*
X563709Y549101D01*
X563828Y549112D01*
X563947Y549115D01*
X563986Y549127D01*
X564026Y549130D01*
X564077Y549149D01*
X571176Y549149D01*
X572069Y548256D01*
X572069Y541793D01*
X572081Y541694D01*
X572084Y541595D01*
X572101Y541537D01*
X572109Y541477D01*
X572145Y541385D01*
X572173Y541290D01*
X572203Y541238D01*
X572226Y541181D01*
X572284Y541101D01*
X572334Y541016D01*
X572400Y540940D01*
X572412Y540924D01*
X572422Y540916D01*
X572440Y540895D01*
X583738Y529598D01*
X583793Y529555D01*
X583842Y529505D01*
X583918Y529458D01*
X583989Y529403D01*
X584053Y529375D01*
X584113Y529338D01*
X584199Y529312D01*
X584281Y529276D01*
X584350Y529265D01*
X584417Y529245D01*
X584506Y529241D01*
X584595Y529226D01*
X584665Y529233D01*
X584734Y529230D01*
X584822Y529248D01*
X584912Y529256D01*
X584978Y529280D01*
X585046Y529294D01*
X585126Y529333D01*
X585211Y529364D01*
X585269Y529403D01*
X585332Y529434D01*
X585400Y529492D01*
X585474Y529542D01*
X585520Y529595D01*
X585574Y529640D01*
X585625Y529713D01*
X585685Y529781D01*
X585716Y529843D01*
X585757Y529900D01*
X585788Y529984D01*
X585829Y530064D01*
X585845Y530132D01*
X585869Y530197D01*
X585879Y530287D01*
X585899Y530374D01*
X585897Y530444D01*
X585905Y530514D01*
X585892Y530602D01*
X585889Y530692D01*
X585870Y530759D01*
X585860Y530828D01*
X585808Y530981D01*
X585243Y532344D01*
X585243Y534456D01*
X586051Y536406D01*
X587129Y537484D01*
X587190Y537562D01*
X587258Y537635D01*
X587287Y537688D01*
X587324Y537736D01*
X587364Y537826D01*
X587412Y537913D01*
X587427Y537972D01*
X587451Y538027D01*
X587466Y538125D01*
X587491Y538221D01*
X587496Y538305D01*
X587499Y538317D01*
X587498Y538326D01*
X587501Y538342D01*
X587499Y538354D01*
X587501Y538382D01*
X587501Y546537D01*
X587489Y546636D01*
X587486Y546735D01*
X587469Y546793D01*
X587461Y546853D01*
X587425Y546945D01*
X587397Y547040D01*
X587367Y547092D01*
X587344Y547149D01*
X587286Y547229D01*
X587236Y547314D01*
X587170Y547389D01*
X587158Y547406D01*
X587148Y547414D01*
X587130Y547435D01*
X583055Y551510D01*
X582977Y551570D01*
X582905Y551638D01*
X582852Y551667D01*
X582804Y551704D01*
X582713Y551744D01*
X582626Y551792D01*
X582568Y551807D01*
X582512Y551831D01*
X582414Y551846D01*
X582318Y551871D01*
X582218Y551877D01*
X582198Y551881D01*
X582185Y551879D01*
X582157Y551881D01*
X575694Y551881D01*
X574801Y552774D01*
X574801Y559857D01*
X574818Y559963D01*
X574844Y560079D01*
X574843Y560120D01*
X574849Y560159D01*
X574838Y560278D01*
X574835Y560397D01*
X574823Y560436D01*
X574820Y560476D01*
X574801Y560527D01*
X574801Y567857D01*
X574818Y567963D01*
X574844Y568079D01*
X574843Y568120D01*
X574849Y568159D01*
X574838Y568278D01*
X574835Y568397D01*
X574823Y568436D01*
X574820Y568476D01*
X574801Y568527D01*
X574801Y575857D01*
X574818Y575963D01*
X574844Y576079D01*
X574843Y576120D01*
X574849Y576159D01*
X574838Y576278D01*
X574835Y576397D01*
X574823Y576436D01*
X574820Y576476D01*
X574801Y576527D01*
X574801Y582812D01*
X574789Y582910D01*
X574786Y583009D01*
X574769Y583067D01*
X574761Y583127D01*
X574725Y583219D01*
X574697Y583315D01*
X574673Y583356D01*
X574672Y583361D01*
X574665Y583371D01*
X574644Y583423D01*
X574586Y583503D01*
X574536Y583589D01*
X574505Y583624D01*
X574501Y583629D01*
X574493Y583637D01*
X574470Y583664D01*
X574458Y583680D01*
X574448Y583688D01*
X574430Y583709D01*
X574293Y583846D01*
X573958Y584425D01*
X573785Y585072D01*
X573785Y586804D01*
X582549Y586804D01*
X582638Y586815D01*
X582643Y586814D01*
X582703Y586810D01*
X582723Y586806D01*
X582743Y586808D01*
X582803Y586804D01*
X591567Y586804D01*
X591567Y585072D01*
X591438Y584593D01*
X591421Y584468D01*
X591398Y584344D01*
X591400Y584311D01*
X591395Y584277D01*
X591410Y584152D01*
X591417Y584027D01*
X591428Y583995D01*
X591432Y583962D01*
X591477Y583844D01*
X591515Y583725D01*
X591533Y583696D01*
X591546Y583665D01*
X591618Y583562D01*
X591686Y583456D01*
X591710Y583433D01*
X591730Y583405D01*
X591826Y583324D01*
X591917Y583238D01*
X591947Y583222D01*
X591972Y583200D01*
X592086Y583145D01*
X592196Y583084D01*
X592228Y583076D01*
X592259Y583061D01*
X592382Y583036D01*
X592504Y583005D01*
X592552Y583002D01*
X592570Y582998D01*
X592592Y582999D01*
X592664Y582995D01*
X638890Y582995D01*
X639008Y583010D01*
X639127Y583017D01*
X639165Y583030D01*
X639206Y583035D01*
X639316Y583078D01*
X639429Y583115D01*
X639464Y583137D01*
X639501Y583152D01*
X639597Y583221D01*
X639698Y583285D01*
X639726Y583315D01*
X639759Y583338D01*
X639835Y583430D01*
X639916Y583517D01*
X639936Y583552D01*
X639961Y583583D01*
X640012Y583691D01*
X640070Y583795D01*
X640080Y583835D01*
X640097Y583871D01*
X640119Y583988D01*
X640149Y584103D01*
X640153Y584163D01*
X640157Y584183D01*
X640155Y584204D01*
X640159Y584264D01*
X640159Y585896D01*
X641091Y586828D01*
X641168Y586927D01*
X641251Y587022D01*
X641266Y587052D01*
X641286Y587079D01*
X641336Y587194D01*
X641392Y587307D01*
X641399Y587340D01*
X641413Y587371D01*
X641432Y587495D01*
X641458Y587618D01*
X641457Y587651D01*
X641462Y587685D01*
X641451Y587810D01*
X641445Y587936D01*
X641436Y587968D01*
X641433Y588001D01*
X641390Y588120D01*
X641354Y588240D01*
X641336Y588269D01*
X641325Y588301D01*
X641254Y588405D01*
X641189Y588512D01*
X641165Y588536D01*
X641146Y588564D01*
X641052Y588647D01*
X640962Y588735D01*
X640922Y588762D01*
X640908Y588774D01*
X640889Y588784D01*
X640828Y588824D01*
X640124Y589231D01*
X639651Y589704D01*
X639316Y590283D01*
X639143Y590930D01*
X639143Y594265D01*
X645454Y594265D01*
X645572Y594280D01*
X645691Y594287D01*
X645729Y594299D01*
X645769Y594305D01*
X645880Y594348D01*
X645993Y594385D01*
X646027Y594407D01*
X646065Y594422D01*
X646161Y594491D01*
X646262Y594555D01*
X646290Y594585D01*
X646322Y594608D01*
X646398Y594700D01*
X646480Y594787D01*
X646499Y594822D01*
X646525Y594853D01*
X646576Y594961D01*
X646633Y595065D01*
X646643Y595105D01*
X646661Y595141D01*
X646681Y595248D01*
X646685Y595218D01*
X646729Y595108D01*
X646765Y594995D01*
X646787Y594960D01*
X646802Y594923D01*
X646872Y594826D01*
X646935Y594726D01*
X646965Y594698D01*
X646989Y594665D01*
X647080Y594589D01*
X647167Y594508D01*
X647202Y594488D01*
X647234Y594463D01*
X647341Y594412D01*
X647446Y594354D01*
X647485Y594344D01*
X647521Y594327D01*
X647638Y594305D01*
X647754Y594275D01*
X647814Y594271D01*
X647834Y594267D01*
X647854Y594269D01*
X647914Y594265D01*
X654225Y594265D01*
X654225Y590930D01*
X654052Y590283D01*
X653717Y589704D01*
X653244Y589231D01*
X652540Y588824D01*
X652440Y588748D01*
X652335Y588678D01*
X652313Y588652D01*
X652286Y588632D01*
X652208Y588534D01*
X652125Y588439D01*
X652110Y588409D01*
X652089Y588383D01*
X652038Y588268D01*
X651980Y588156D01*
X651973Y588123D01*
X651959Y588092D01*
X651938Y587968D01*
X651911Y587846D01*
X651912Y587812D01*
X651906Y587779D01*
X651917Y587653D01*
X651920Y587528D01*
X651930Y587495D01*
X651933Y587462D01*
X651974Y587343D01*
X652009Y587222D01*
X652026Y587193D01*
X652037Y587161D01*
X652107Y587057D01*
X652170Y586948D01*
X652203Y586912D01*
X652213Y586896D01*
X652229Y586882D01*
X652277Y586828D01*
X653209Y585896D01*
X653209Y573632D01*
X652316Y572739D01*
X651287Y572739D01*
X651150Y572722D01*
X651011Y572709D01*
X650992Y572702D01*
X650972Y572699D01*
X650843Y572648D01*
X650712Y572601D01*
X650695Y572590D01*
X650676Y572582D01*
X650564Y572501D01*
X650449Y572423D01*
X650435Y572407D01*
X650419Y572396D01*
X650330Y572288D01*
X650238Y572184D01*
X650229Y572166D01*
X650216Y572151D01*
X650157Y572025D01*
X650094Y571901D01*
X650089Y571881D01*
X650080Y571863D01*
X650054Y571727D01*
X650024Y571591D01*
X650024Y571570D01*
X650021Y571551D01*
X650029Y571412D01*
X650034Y571273D01*
X650039Y571253D01*
X650040Y571233D01*
X650083Y571101D01*
X650122Y570967D01*
X650132Y570950D01*
X650138Y570931D01*
X650213Y570813D01*
X650283Y570693D01*
X650302Y570672D01*
X650309Y570662D01*
X650323Y570648D01*
X650390Y570573D01*
X650868Y570094D01*
X650946Y570034D01*
X651018Y569966D01*
X651071Y569937D01*
X651119Y569900D01*
X651210Y569860D01*
X651297Y569812D01*
X651355Y569797D01*
X651411Y569773D01*
X651509Y569758D01*
X651605Y569733D01*
X651705Y569727D01*
X651725Y569723D01*
X651737Y569725D01*
X651765Y569723D01*
X670658Y569723D01*
X670776Y569738D01*
X670895Y569745D01*
X670933Y569758D01*
X670974Y569763D01*
X671084Y569806D01*
X671197Y569843D01*
X671232Y569865D01*
X671269Y569880D01*
X671365Y569949D01*
X671466Y570013D01*
X671494Y570043D01*
X671527Y570066D01*
X671603Y570158D01*
X671684Y570245D01*
X671704Y570280D01*
X671729Y570311D01*
X671780Y570419D01*
X671838Y570523D01*
X671848Y570563D01*
X671865Y570599D01*
X671887Y570716D01*
X671917Y570831D01*
X671921Y570891D01*
X671925Y570911D01*
X671923Y570932D01*
X671927Y570992D01*
X671927Y571226D01*
X672820Y572119D01*
X674355Y572119D01*
X674473Y572134D01*
X674592Y572141D01*
X674630Y572154D01*
X674671Y572159D01*
X674781Y572202D01*
X674894Y572239D01*
X674929Y572261D01*
X674966Y572276D01*
X675062Y572345D01*
X675163Y572409D01*
X675191Y572439D01*
X675224Y572462D01*
X675300Y572554D01*
X675381Y572641D01*
X675401Y572676D01*
X675426Y572707D01*
X675477Y572815D01*
X675535Y572919D01*
X675545Y572959D01*
X675562Y572995D01*
X675584Y573112D01*
X675614Y573227D01*
X675618Y573287D01*
X675622Y573307D01*
X675620Y573328D01*
X675624Y573388D01*
X675624Y582756D01*
X675609Y582874D01*
X675602Y582993D01*
X675589Y583031D01*
X675584Y583072D01*
X675541Y583182D01*
X675504Y583295D01*
X675482Y583330D01*
X675467Y583367D01*
X675398Y583463D01*
X675334Y583564D01*
X675304Y583592D01*
X675281Y583625D01*
X675189Y583701D01*
X675102Y583782D01*
X675067Y583802D01*
X675036Y583827D01*
X674928Y583878D01*
X674824Y583936D01*
X674784Y583946D01*
X674748Y583963D01*
X674631Y583985D01*
X674516Y584015D01*
X674456Y584019D01*
X674436Y584023D01*
X674415Y584021D01*
X674355Y584025D01*
X671168Y584025D01*
X670275Y584918D01*
X670275Y596182D01*
X671168Y597075D01*
X683432Y597075D01*
X684364Y596143D01*
X684463Y596066D01*
X684558Y595984D01*
X684588Y595969D01*
X684615Y595948D01*
X684730Y595898D01*
X684843Y595842D01*
X684876Y595835D01*
X684907Y595821D01*
X685031Y595802D01*
X685154Y595776D01*
X685187Y595777D01*
X685221Y595772D01*
X685346Y595783D01*
X685472Y595789D01*
X685504Y595798D01*
X685537Y595801D01*
X685656Y595844D01*
X685776Y595880D01*
X685805Y595898D01*
X685837Y595909D01*
X685941Y595980D01*
X686048Y596045D01*
X686072Y596069D01*
X686100Y596088D01*
X686183Y596182D01*
X686271Y596272D01*
X686298Y596312D01*
X686310Y596326D01*
X686320Y596345D01*
X686360Y596406D01*
X686767Y597110D01*
X687240Y597583D01*
X687819Y597918D01*
X688466Y598091D01*
X691801Y598091D01*
X691801Y591780D01*
X691816Y591662D01*
X691823Y591543D01*
X691835Y591505D01*
X691841Y591465D01*
X691884Y591354D01*
X691921Y591241D01*
X691943Y591207D01*
X691958Y591169D01*
X692027Y591073D01*
X692091Y590972D01*
X692121Y590944D01*
X692144Y590912D01*
X692236Y590836D01*
X692323Y590754D01*
X692358Y590735D01*
X692389Y590709D01*
X692497Y590658D01*
X692601Y590601D01*
X692641Y590591D01*
X692677Y590573D01*
X692784Y590553D01*
X692754Y590549D01*
X692644Y590505D01*
X692531Y590469D01*
X692496Y590447D01*
X692459Y590432D01*
X692362Y590362D01*
X692262Y590299D01*
X692234Y590269D01*
X692201Y590245D01*
X692125Y590154D01*
X692044Y590067D01*
X692024Y590032D01*
X691999Y590000D01*
X691948Y589893D01*
X691890Y589788D01*
X691880Y589749D01*
X691863Y589713D01*
X691841Y589596D01*
X691811Y589480D01*
X691807Y589420D01*
X691803Y589400D01*
X691805Y589380D01*
X691801Y589320D01*
X691801Y583009D01*
X688466Y583009D01*
X687819Y583182D01*
X687240Y583517D01*
X686767Y583990D01*
X686360Y584694D01*
X686284Y584794D01*
X686214Y584898D01*
X686188Y584921D01*
X686168Y584948D01*
X686069Y585026D01*
X685975Y585109D01*
X685945Y585124D01*
X685919Y585145D01*
X685804Y585196D01*
X685692Y585254D01*
X685659Y585261D01*
X685628Y585275D01*
X685504Y585296D01*
X685382Y585323D01*
X685348Y585322D01*
X685315Y585328D01*
X685189Y585317D01*
X685064Y585314D01*
X685031Y585304D01*
X684998Y585301D01*
X684879Y585260D01*
X684758Y585225D01*
X684729Y585208D01*
X684697Y585197D01*
X684593Y585128D01*
X684484Y585064D01*
X684448Y585031D01*
X684432Y585021D01*
X684418Y585005D01*
X684364Y584957D01*
X683432Y584025D01*
X682991Y584025D01*
X682873Y584010D01*
X682754Y584003D01*
X682716Y583990D01*
X682675Y583985D01*
X682565Y583942D01*
X682452Y583905D01*
X682417Y583883D01*
X682380Y583868D01*
X682284Y583799D01*
X682183Y583735D01*
X682155Y583705D01*
X682122Y583682D01*
X682046Y583590D01*
X681965Y583503D01*
X681945Y583468D01*
X681920Y583437D01*
X681869Y583329D01*
X681811Y583225D01*
X681801Y583185D01*
X681784Y583149D01*
X681762Y583032D01*
X681732Y582917D01*
X681728Y582857D01*
X681724Y582837D01*
X681726Y582816D01*
X681722Y582756D01*
X681722Y573388D01*
X681737Y573270D01*
X681744Y573151D01*
X681757Y573113D01*
X681762Y573072D01*
X681805Y572962D01*
X681842Y572849D01*
X681864Y572814D01*
X681879Y572777D01*
X681948Y572681D01*
X682012Y572580D01*
X682042Y572552D01*
X682065Y572519D01*
X682157Y572443D01*
X682244Y572362D01*
X682279Y572342D01*
X682310Y572317D01*
X682418Y572266D01*
X682522Y572208D01*
X682562Y572198D01*
X682598Y572181D01*
X682715Y572159D01*
X682830Y572129D01*
X682890Y572125D01*
X682910Y572121D01*
X682931Y572123D01*
X682991Y572119D01*
X690084Y572119D01*
X690977Y571226D01*
X690977Y551962D01*
X690084Y551069D01*
X681618Y551069D01*
X681500Y551054D01*
X681381Y551047D01*
X681343Y551034D01*
X681302Y551029D01*
X681192Y550986D01*
X681079Y550949D01*
X681044Y550927D01*
X681007Y550912D01*
X680911Y550843D01*
X680810Y550779D01*
X680782Y550749D01*
X680749Y550726D01*
X680673Y550634D01*
X680592Y550547D01*
X680572Y550512D01*
X680547Y550481D01*
X680496Y550373D01*
X680438Y550269D01*
X680428Y550229D01*
X680411Y550193D01*
X680389Y550076D01*
X680359Y549961D01*
X680355Y549901D01*
X680351Y549881D01*
X680353Y549860D01*
X680349Y549800D01*
X680349Y541194D01*
X680364Y541076D01*
X680371Y540957D01*
X680384Y540919D01*
X680389Y540878D01*
X680432Y540768D01*
X680469Y540655D01*
X680491Y540620D01*
X680506Y540583D01*
X680575Y540487D01*
X680639Y540386D01*
X680669Y540358D01*
X680692Y540325D01*
X680784Y540249D01*
X680871Y540168D01*
X680906Y540148D01*
X680937Y540123D01*
X681045Y540072D01*
X681149Y540014D01*
X681189Y540004D01*
X681225Y539987D01*
X681342Y539965D01*
X681457Y539935D01*
X681517Y539931D01*
X681537Y539927D01*
X681558Y539929D01*
X681618Y539925D01*
X683432Y539925D01*
X684364Y538993D01*
X684463Y538916D01*
X684558Y538834D01*
X684588Y538819D01*
X684615Y538798D01*
X684730Y538748D01*
X684843Y538692D01*
X684876Y538685D01*
X684907Y538671D01*
X685031Y538652D01*
X685154Y538626D01*
X685187Y538627D01*
X685221Y538622D01*
X685346Y538633D01*
X685472Y538639D01*
X685504Y538648D01*
X685537Y538651D01*
X685656Y538694D01*
X685776Y538730D01*
X685805Y538748D01*
X685837Y538759D01*
X685941Y538830D01*
X686048Y538895D01*
X686072Y538919D01*
X686100Y538938D01*
X686183Y539032D01*
X686271Y539122D01*
X686298Y539162D01*
X686310Y539176D01*
X686320Y539195D01*
X686360Y539256D01*
X686767Y539960D01*
X687240Y540433D01*
X687819Y540768D01*
X688466Y540941D01*
X691801Y540941D01*
X691801Y534630D01*
X691816Y534512D01*
X691823Y534393D01*
X691835Y534355D01*
X691841Y534315D01*
X691884Y534204D01*
X691921Y534091D01*
X691943Y534057D01*
X691958Y534019D01*
X692027Y533923D01*
X692091Y533822D01*
X692121Y533794D01*
X692144Y533762D01*
X692236Y533686D01*
X692323Y533604D01*
X692358Y533585D01*
X692389Y533559D01*
X692497Y533508D01*
X692601Y533451D01*
X692641Y533441D01*
X692677Y533423D01*
X692784Y533403D01*
X692754Y533399D01*
X692644Y533355D01*
X692531Y533319D01*
X692496Y533297D01*
X692459Y533282D01*
X692362Y533212D01*
X692262Y533149D01*
X692234Y533119D01*
X692201Y533095D01*
X692125Y533004D01*
X692044Y532917D01*
X692024Y532882D01*
X691999Y532850D01*
X691948Y532743D01*
X691890Y532638D01*
X691880Y532599D01*
X691863Y532563D01*
X691841Y532446D01*
X691811Y532330D01*
X691807Y532270D01*
X691803Y532250D01*
X691805Y532230D01*
X691801Y532170D01*
X691801Y525859D01*
X688466Y525859D01*
X687819Y526032D01*
X687240Y526367D01*
X686767Y526840D01*
X686360Y527544D01*
X686284Y527644D01*
X686214Y527748D01*
X686188Y527771D01*
X686168Y527798D01*
X686069Y527876D01*
X685975Y527959D01*
X685945Y527974D01*
X685919Y527995D01*
X685804Y528046D01*
X685692Y528104D01*
X685659Y528111D01*
X685628Y528125D01*
X685504Y528146D01*
X685382Y528173D01*
X685348Y528172D01*
X685315Y528178D01*
X685189Y528167D01*
X685064Y528164D01*
X685031Y528154D01*
X684998Y528151D01*
X684879Y528110D01*
X684758Y528075D01*
X684729Y528058D01*
X684697Y528047D01*
X684593Y527978D01*
X684484Y527914D01*
X684448Y527881D01*
X684432Y527871D01*
X684418Y527855D01*
X684364Y527807D01*
X683432Y526875D01*
X671168Y526875D01*
X670275Y527768D01*
X670275Y539032D01*
X671168Y539925D01*
X672982Y539925D01*
X673100Y539940D01*
X673219Y539947D01*
X673257Y539960D01*
X673298Y539965D01*
X673408Y540008D01*
X673521Y540045D01*
X673556Y540067D01*
X673593Y540082D01*
X673689Y540151D01*
X673790Y540215D01*
X673818Y540245D01*
X673851Y540268D01*
X673927Y540360D01*
X674008Y540447D01*
X674028Y540482D01*
X674053Y540513D01*
X674104Y540621D01*
X674162Y540725D01*
X674172Y540765D01*
X674189Y540801D01*
X674211Y540918D01*
X674241Y541033D01*
X674245Y541093D01*
X674249Y541113D01*
X674247Y541134D01*
X674251Y541194D01*
X674251Y549800D01*
X674236Y549918D01*
X674229Y550037D01*
X674216Y550075D01*
X674211Y550116D01*
X674168Y550226D01*
X674131Y550339D01*
X674109Y550374D01*
X674094Y550411D01*
X674025Y550507D01*
X673961Y550608D01*
X673931Y550636D01*
X673908Y550669D01*
X673816Y550745D01*
X673729Y550826D01*
X673694Y550846D01*
X673663Y550871D01*
X673555Y550922D01*
X673451Y550980D01*
X673411Y550990D01*
X673375Y551007D01*
X673258Y551029D01*
X673143Y551059D01*
X673083Y551063D01*
X673063Y551067D01*
X673042Y551065D01*
X672982Y551069D01*
X672820Y551069D01*
X671927Y551962D01*
X671927Y562356D01*
X671912Y562474D01*
X671905Y562593D01*
X671892Y562631D01*
X671887Y562672D01*
X671844Y562782D01*
X671807Y562895D01*
X671785Y562930D01*
X671770Y562967D01*
X671701Y563063D01*
X671637Y563164D01*
X671607Y563192D01*
X671584Y563225D01*
X671492Y563301D01*
X671405Y563382D01*
X671370Y563402D01*
X671339Y563427D01*
X671231Y563478D01*
X671127Y563536D01*
X671087Y563546D01*
X671051Y563563D01*
X670934Y563585D01*
X670819Y563615D01*
X670759Y563619D01*
X670739Y563623D01*
X670718Y563621D01*
X670658Y563625D01*
X654395Y563625D01*
X654257Y563608D01*
X654119Y563595D01*
X654100Y563588D01*
X654080Y563585D01*
X653950Y563534D01*
X653820Y563487D01*
X653803Y563476D01*
X653784Y563468D01*
X653672Y563387D01*
X653556Y563309D01*
X653543Y563293D01*
X653527Y563282D01*
X653438Y563174D01*
X653346Y563070D01*
X653337Y563052D01*
X653324Y563037D01*
X653265Y562911D01*
X653201Y562787D01*
X653197Y562767D01*
X653188Y562749D01*
X653162Y562612D01*
X653132Y562477D01*
X653132Y562456D01*
X653129Y562437D01*
X653137Y562298D01*
X653141Y562159D01*
X653147Y562139D01*
X653148Y562119D01*
X653191Y561987D01*
X653230Y561853D01*
X653240Y561836D01*
X653246Y561817D01*
X653321Y561699D01*
X653391Y561579D01*
X653410Y561558D01*
X653417Y561548D01*
X653432Y561534D01*
X653498Y561459D01*
X654725Y560232D01*
X654725Y548968D01*
X653832Y548075D01*
X641568Y548075D01*
X640675Y548968D01*
X640675Y551882D01*
X640660Y552000D01*
X640653Y552119D01*
X640640Y552157D01*
X640635Y552198D01*
X640592Y552308D01*
X640555Y552421D01*
X640533Y552456D01*
X640518Y552493D01*
X640449Y552589D01*
X640385Y552690D01*
X640355Y552718D01*
X640332Y552751D01*
X640240Y552827D01*
X640153Y552908D01*
X640118Y552928D01*
X640087Y552953D01*
X639979Y553004D01*
X639875Y553062D01*
X639835Y553072D01*
X639799Y553089D01*
X639682Y553111D01*
X639567Y553141D01*
X639507Y553145D01*
X639487Y553149D01*
X639466Y553147D01*
X639406Y553151D01*
X593101Y553151D01*
X592963Y553134D01*
X592824Y553121D01*
X592805Y553114D01*
X592785Y553111D01*
X592656Y553060D01*
X592525Y553013D01*
X592508Y553002D01*
X592489Y552994D01*
X592377Y552913D01*
X592262Y552835D01*
X592248Y552819D01*
X592232Y552808D01*
X592143Y552700D01*
X592051Y552596D01*
X592042Y552578D01*
X592029Y552563D01*
X591970Y552437D01*
X591907Y552313D01*
X591902Y552293D01*
X591894Y552275D01*
X591868Y552138D01*
X591837Y552003D01*
X591838Y551982D01*
X591834Y551963D01*
X591842Y551824D01*
X591847Y551685D01*
X591852Y551665D01*
X591854Y551645D01*
X591896Y551513D01*
X591935Y551379D01*
X591945Y551362D01*
X591952Y551343D01*
X592026Y551225D01*
X592097Y551105D01*
X592115Y551084D01*
X592122Y551074D01*
X592137Y551060D01*
X592203Y550985D01*
X593599Y549589D01*
X593599Y538382D01*
X593611Y538284D01*
X593614Y538185D01*
X593621Y538161D01*
X593621Y538159D01*
X593631Y538126D01*
X593639Y538066D01*
X593675Y537974D01*
X593703Y537879D01*
X593733Y537827D01*
X593756Y537771D01*
X593814Y537690D01*
X593864Y537605D01*
X593930Y537530D01*
X593942Y537513D01*
X593952Y537505D01*
X593971Y537484D01*
X595049Y536406D01*
X595857Y534456D01*
X595857Y532344D01*
X595049Y530394D01*
X593556Y528901D01*
X591606Y528093D01*
X589494Y528093D01*
X588131Y528658D01*
X588064Y528676D01*
X587999Y528704D01*
X587911Y528718D01*
X587824Y528742D01*
X587754Y528743D01*
X587685Y528754D01*
X587596Y528746D01*
X587506Y528747D01*
X587438Y528731D01*
X587369Y528724D01*
X587284Y528694D01*
X587197Y528673D01*
X587135Y528640D01*
X587069Y528617D01*
X586995Y528566D01*
X586916Y528524D01*
X586864Y528477D01*
X586806Y528438D01*
X586747Y528371D01*
X586680Y528310D01*
X586642Y528252D01*
X586596Y528200D01*
X586555Y528120D01*
X586506Y528045D01*
X586483Y527979D01*
X586451Y527916D01*
X586432Y527829D01*
X586402Y527744D01*
X586397Y527674D01*
X586382Y527606D01*
X586384Y527516D01*
X586377Y527427D01*
X586389Y527358D01*
X586391Y527288D01*
X586416Y527202D01*
X586432Y527113D01*
X586460Y527050D01*
X586480Y526983D01*
X586525Y526905D01*
X586562Y526823D01*
X586606Y526769D01*
X586641Y526709D01*
X586748Y526588D01*
X616841Y496494D01*
X618999Y494337D01*
X618999Y453983D01*
X619002Y453954D01*
X619000Y453925D01*
X619022Y453797D01*
X619039Y453668D01*
X619049Y453641D01*
X619054Y453611D01*
X619108Y453493D01*
X619156Y453372D01*
X619173Y453348D01*
X619185Y453321D01*
X619266Y453220D01*
X619342Y453115D01*
X619365Y453096D01*
X619384Y453073D01*
X619487Y452995D01*
X619587Y452912D01*
X619614Y452900D01*
X619638Y452882D01*
X619782Y452811D01*
X621130Y452253D01*
X623703Y449680D01*
X625095Y446319D01*
X625095Y442681D01*
X623703Y439320D01*
X621130Y436747D01*
X617769Y435355D01*
X614131Y435355D01*
X610770Y436747D01*
X608197Y439320D01*
X606805Y442681D01*
X606805Y446319D01*
X608197Y449680D01*
X610770Y452253D01*
X612118Y452811D01*
X612143Y452825D01*
X612171Y452835D01*
X612281Y452904D01*
X612394Y452968D01*
X612415Y452989D01*
X612440Y453005D01*
X612529Y453100D01*
X612622Y453190D01*
X612638Y453215D01*
X612658Y453236D01*
X612721Y453350D01*
X612789Y453461D01*
X612797Y453489D01*
X612812Y453515D01*
X612844Y453641D01*
X612882Y453765D01*
X612884Y453794D01*
X612891Y453823D01*
X612901Y453983D01*
X612901Y491285D01*
X612889Y491384D01*
X612886Y491483D01*
X612869Y491541D01*
X612861Y491601D01*
X612825Y491693D01*
X612797Y491788D01*
X612767Y491840D01*
X612744Y491897D01*
X612686Y491977D01*
X612636Y492062D01*
X612570Y492137D01*
X612558Y492154D01*
X612548Y492162D01*
X612530Y492183D01*
X571685Y533028D01*
X571607Y533088D01*
X571535Y533156D01*
X571482Y533185D01*
X571434Y533222D01*
X571343Y533262D01*
X571256Y533310D01*
X571198Y533325D01*
X571142Y533349D01*
X571044Y533364D01*
X570948Y533389D01*
X570848Y533395D01*
X570828Y533399D01*
X570815Y533397D01*
X570787Y533399D01*
X569546Y533399D01*
X569408Y533382D01*
X569270Y533369D01*
X569251Y533362D01*
X569230Y533359D01*
X569101Y533308D01*
X568970Y533261D01*
X568954Y533250D01*
X568935Y533242D01*
X568823Y533161D01*
X568707Y533083D01*
X568694Y533067D01*
X568677Y533056D01*
X568589Y532948D01*
X568497Y532844D01*
X568488Y532826D01*
X568475Y532811D01*
X568415Y532685D01*
X568352Y532561D01*
X568348Y532541D01*
X568339Y532523D01*
X568313Y532387D01*
X568283Y532251D01*
X568283Y532230D01*
X568279Y532211D01*
X568288Y532072D01*
X568292Y531933D01*
X568298Y531913D01*
X568299Y531893D01*
X568342Y531761D01*
X568381Y531627D01*
X568391Y531610D01*
X568397Y531591D01*
X568472Y531473D01*
X568542Y531353D01*
X568561Y531332D01*
X568567Y531322D01*
X568582Y531308D01*
X568649Y531233D01*
X578741Y521140D01*
X580899Y518982D01*
X580899Y450846D01*
X580916Y450708D01*
X580929Y450569D01*
X580936Y450550D01*
X580939Y450530D01*
X580990Y450401D01*
X581037Y450270D01*
X581048Y450253D01*
X581056Y450234D01*
X581137Y450122D01*
X581215Y450007D01*
X581231Y449993D01*
X581242Y449977D01*
X581350Y449888D01*
X581454Y449796D01*
X581472Y449787D01*
X581487Y449774D01*
X581613Y449715D01*
X581737Y449652D01*
X581757Y449647D01*
X581775Y449639D01*
X581911Y449613D01*
X582047Y449582D01*
X582068Y449583D01*
X582087Y449579D01*
X582226Y449587D01*
X582365Y449592D01*
X582385Y449597D01*
X582405Y449599D01*
X582537Y449641D01*
X582671Y449680D01*
X582688Y449690D01*
X582707Y449697D01*
X582825Y449771D01*
X582945Y449842D01*
X582966Y449860D01*
X582976Y449867D01*
X582990Y449882D01*
X583065Y449948D01*
X587130Y454012D01*
X587190Y454090D01*
X587258Y454162D01*
X587287Y454215D01*
X587324Y454263D01*
X587364Y454354D01*
X587412Y454441D01*
X587427Y454500D01*
X587451Y454555D01*
X587466Y454653D01*
X587491Y454749D01*
X587497Y454849D01*
X587501Y454869D01*
X587499Y454882D01*
X587501Y454910D01*
X587501Y496668D01*
X587489Y496766D01*
X587486Y496865D01*
X587469Y496924D01*
X587461Y496984D01*
X587425Y497076D01*
X587397Y497171D01*
X587367Y497223D01*
X587344Y497279D01*
X587286Y497360D01*
X587236Y497445D01*
X587170Y497520D01*
X587158Y497537D01*
X587148Y497545D01*
X587129Y497566D01*
X586051Y498644D01*
X585243Y500594D01*
X585243Y502706D01*
X586051Y504656D01*
X587544Y506149D01*
X589494Y506957D01*
X591606Y506957D01*
X593556Y506149D01*
X595049Y504656D01*
X595857Y502706D01*
X595857Y500594D01*
X595049Y498644D01*
X593971Y497566D01*
X593910Y497488D01*
X593842Y497415D01*
X593813Y497362D01*
X593776Y497314D01*
X593736Y497224D01*
X593688Y497137D01*
X593673Y497078D01*
X593649Y497023D01*
X593634Y496925D01*
X593609Y496829D01*
X593603Y496729D01*
X593599Y496708D01*
X593601Y496696D01*
X593599Y496668D01*
X593599Y454910D01*
X593611Y454811D01*
X593614Y454712D01*
X593631Y454654D01*
X593639Y454594D01*
X593675Y454502D01*
X593703Y454407D01*
X593733Y454355D01*
X593756Y454298D01*
X593814Y454218D01*
X593864Y454133D01*
X593930Y454058D01*
X593942Y454041D01*
X593952Y454033D01*
X593970Y454012D01*
X599695Y448288D01*
X599695Y440712D01*
X594338Y435355D01*
X586762Y435355D01*
X583065Y439052D01*
X582977Y439121D01*
X582943Y439153D01*
X582925Y439163D01*
X582849Y439226D01*
X582830Y439234D01*
X582814Y439247D01*
X582686Y439302D01*
X582561Y439361D01*
X582541Y439365D01*
X582522Y439373D01*
X582384Y439395D01*
X582248Y439421D01*
X582228Y439420D01*
X582208Y439423D01*
X582069Y439410D01*
X581931Y439401D01*
X581912Y439395D01*
X581892Y439393D01*
X581760Y439346D01*
X581629Y439303D01*
X581611Y439293D01*
X581592Y439286D01*
X581477Y439208D01*
X581360Y439133D01*
X581346Y439118D01*
X581329Y439107D01*
X581237Y439003D01*
X581142Y438902D01*
X581132Y438884D01*
X581119Y438869D01*
X581055Y438745D01*
X580988Y438623D01*
X580983Y438604D01*
X580974Y438585D01*
X580944Y438450D01*
X580909Y438315D01*
X580907Y438287D01*
X580904Y438275D01*
X580905Y438255D01*
X580902Y438213D01*
X580901Y438207D01*
X580902Y438201D01*
X580899Y438154D01*
X580899Y433589D01*
X580911Y433490D01*
X580914Y433391D01*
X580931Y433333D01*
X580939Y433273D01*
X580975Y433181D01*
X581003Y433086D01*
X581033Y433034D01*
X581056Y432977D01*
X581114Y432897D01*
X581164Y432812D01*
X581230Y432737D01*
X581242Y432720D01*
X581252Y432712D01*
X581270Y432691D01*
X585345Y428616D01*
X585423Y428556D01*
X585495Y428488D01*
X585548Y428459D01*
X585596Y428422D01*
X585687Y428382D01*
X585774Y428334D01*
X585833Y428319D01*
X585888Y428295D01*
X585986Y428280D01*
X586082Y428255D01*
X586182Y428249D01*
X586202Y428245D01*
X586215Y428247D01*
X586243Y428245D01*
X594338Y428245D01*
X599695Y422888D01*
X599695Y415312D01*
X594338Y409955D01*
X586762Y409955D01*
G37*
%LPD*%
%LPC*%
G36*
X557744Y801143D02*
X557744Y801143D01*
X555794Y801951D01*
X554301Y803444D01*
X553493Y805394D01*
X553493Y805982D01*
X553478Y806100D01*
X553471Y806219D01*
X553458Y806257D01*
X553453Y806298D01*
X553410Y806408D01*
X553373Y806521D01*
X553351Y806556D01*
X553336Y806593D01*
X553267Y806689D01*
X553203Y806790D01*
X553173Y806818D01*
X553150Y806851D01*
X553058Y806927D01*
X552971Y807008D01*
X552936Y807028D01*
X552905Y807053D01*
X552797Y807104D01*
X552693Y807162D01*
X552653Y807172D01*
X552617Y807189D01*
X552500Y807211D01*
X552385Y807241D01*
X552325Y807245D01*
X552305Y807249D01*
X552284Y807247D01*
X552224Y807251D01*
X539385Y807251D01*
X539267Y807236D01*
X539148Y807229D01*
X539110Y807216D01*
X539069Y807211D01*
X538959Y807168D01*
X538846Y807131D01*
X538811Y807109D01*
X538774Y807094D01*
X538678Y807025D01*
X538577Y806961D01*
X538549Y806931D01*
X538516Y806908D01*
X538440Y806816D01*
X538359Y806729D01*
X538339Y806694D01*
X538314Y806663D01*
X538263Y806555D01*
X538205Y806451D01*
X538195Y806411D01*
X538178Y806375D01*
X538156Y806258D01*
X538126Y806143D01*
X538122Y806083D01*
X538118Y806063D01*
X538120Y806042D01*
X538116Y805982D01*
X538116Y805069D01*
X528590Y805069D01*
X519064Y805069D01*
X519064Y805874D01*
X519237Y806521D01*
X519572Y807100D01*
X519709Y807237D01*
X519769Y807315D01*
X519837Y807387D01*
X519866Y807440D01*
X519903Y807488D01*
X519943Y807579D01*
X519991Y807666D01*
X520006Y807724D01*
X520030Y807780D01*
X520045Y807878D01*
X520070Y807973D01*
X520076Y808073D01*
X520080Y808094D01*
X520078Y808106D01*
X520080Y808134D01*
X520080Y812677D01*
X520134Y812747D01*
X520213Y812836D01*
X520231Y812872D01*
X520256Y812904D01*
X520303Y813013D01*
X520358Y813119D01*
X520366Y813159D01*
X520382Y813196D01*
X520401Y813313D01*
X520427Y813429D01*
X520426Y813470D01*
X520432Y813510D01*
X520421Y813628D01*
X520418Y813747D01*
X520406Y813786D01*
X520403Y813826D01*
X520362Y813939D01*
X520329Y814053D01*
X520309Y814087D01*
X520295Y814126D01*
X520228Y814224D01*
X520168Y814327D01*
X520128Y814372D01*
X520116Y814389D01*
X520101Y814402D01*
X520080Y814426D01*
X520080Y819177D01*
X520134Y819247D01*
X520213Y819336D01*
X520231Y819372D01*
X520256Y819404D01*
X520303Y819513D01*
X520358Y819619D01*
X520366Y819659D01*
X520382Y819696D01*
X520401Y819813D01*
X520427Y819929D01*
X520426Y819970D01*
X520432Y820010D01*
X520421Y820128D01*
X520418Y820247D01*
X520406Y820286D01*
X520403Y820326D01*
X520362Y820439D01*
X520329Y820553D01*
X520309Y820587D01*
X520295Y820626D01*
X520228Y820724D01*
X520168Y820827D01*
X520128Y820872D01*
X520116Y820889D01*
X520101Y820902D01*
X520080Y820926D01*
X520080Y825672D01*
X520973Y826565D01*
X527017Y826565D01*
X527116Y826577D01*
X527215Y826580D01*
X527273Y826597D01*
X527333Y826605D01*
X527425Y826641D01*
X527520Y826669D01*
X527572Y826699D01*
X527629Y826722D01*
X527709Y826780D01*
X527794Y826830D01*
X527869Y826896D01*
X527886Y826908D01*
X527894Y826918D01*
X527915Y826936D01*
X562947Y861969D01*
X563032Y862078D01*
X563121Y862185D01*
X563129Y862204D01*
X563142Y862220D01*
X563197Y862348D01*
X563256Y862473D01*
X563260Y862493D01*
X563268Y862512D01*
X563290Y862650D01*
X563316Y862786D01*
X563315Y862806D01*
X563318Y862826D01*
X563305Y862965D01*
X563296Y863103D01*
X563290Y863122D01*
X563288Y863142D01*
X563241Y863274D01*
X563198Y863405D01*
X563188Y863423D01*
X563181Y863442D01*
X563103Y863557D01*
X563028Y863674D01*
X563013Y863688D01*
X563002Y863705D01*
X562898Y863797D01*
X562797Y863892D01*
X562779Y863902D01*
X562764Y863915D01*
X562640Y863978D01*
X562518Y864046D01*
X562499Y864051D01*
X562480Y864060D01*
X562345Y864090D01*
X562210Y864125D01*
X562182Y864127D01*
X562170Y864130D01*
X562150Y864129D01*
X562049Y864135D01*
X558014Y864135D01*
X557916Y864123D01*
X557817Y864120D01*
X557759Y864103D01*
X557699Y864095D01*
X557607Y864059D01*
X557511Y864031D01*
X557459Y864001D01*
X557403Y863978D01*
X557323Y863920D01*
X557237Y863870D01*
X557162Y863804D01*
X557146Y863792D01*
X557138Y863782D01*
X557117Y863764D01*
X556980Y863627D01*
X556401Y863292D01*
X555929Y863166D01*
X555907Y863157D01*
X555885Y863153D01*
X555761Y863097D01*
X555634Y863046D01*
X555616Y863032D01*
X555595Y863023D01*
X555488Y862938D01*
X555379Y862856D01*
X555364Y862839D01*
X555347Y862824D01*
X555264Y862715D01*
X555179Y862609D01*
X555169Y862588D01*
X555155Y862570D01*
X555084Y862426D01*
X554903Y861988D01*
X551342Y858427D01*
X546688Y856499D01*
X541652Y856499D01*
X536998Y858427D01*
X533437Y861988D01*
X531509Y866642D01*
X531509Y871678D01*
X533437Y876332D01*
X536998Y879893D01*
X541652Y881821D01*
X546688Y881821D01*
X548591Y881033D01*
X548622Y881024D01*
X548651Y881009D01*
X548776Y880982D01*
X548898Y880949D01*
X548930Y880948D01*
X548962Y880941D01*
X549089Y880946D01*
X549216Y880944D01*
X549247Y880951D01*
X549280Y880952D01*
X549402Y880988D01*
X549525Y881018D01*
X549554Y881033D01*
X549585Y881042D01*
X549615Y881060D01*
X549715Y881110D01*
X550439Y881528D01*
X551086Y881701D01*
X552151Y881701D01*
X552151Y879610D01*
X552159Y879542D01*
X552158Y879473D01*
X552179Y879385D01*
X552190Y879295D01*
X552216Y879230D01*
X552232Y879163D01*
X552274Y879083D01*
X552307Y878999D01*
X552348Y878943D01*
X552380Y878882D01*
X552481Y878756D01*
X552488Y878750D01*
X552494Y878742D01*
X552494Y878741D01*
X552495Y878741D01*
X552610Y878646D01*
X552723Y878549D01*
X552732Y878545D01*
X552740Y878538D01*
X552874Y878475D01*
X553008Y878409D01*
X553018Y878407D01*
X553027Y878403D01*
X553174Y878375D01*
X553320Y878345D01*
X553330Y878345D01*
X553340Y878343D01*
X553489Y878352D01*
X553637Y878359D01*
X553647Y878362D01*
X553657Y878363D01*
X553799Y878409D01*
X553941Y878452D01*
X553950Y878458D01*
X553960Y878461D01*
X554086Y878541D01*
X554213Y878618D01*
X554220Y878626D01*
X554228Y878631D01*
X554330Y878739D01*
X554434Y878846D01*
X554439Y878855D01*
X554446Y878863D01*
X554518Y878993D01*
X554592Y879123D01*
X554595Y879132D01*
X554600Y879141D01*
X554637Y879285D01*
X554676Y879429D01*
X554677Y879439D01*
X554679Y879449D01*
X554689Y879610D01*
X554689Y881701D01*
X555754Y881701D01*
X556401Y881528D01*
X556980Y881193D01*
X557117Y881056D01*
X557195Y880996D01*
X557267Y880928D01*
X557320Y880899D01*
X557368Y880862D01*
X557459Y880822D01*
X557546Y880774D01*
X557604Y880759D01*
X557660Y880735D01*
X557758Y880720D01*
X557853Y880695D01*
X557953Y880689D01*
X557974Y880685D01*
X557986Y880687D01*
X558014Y880685D01*
X562705Y880685D01*
X562739Y880667D01*
X562779Y880659D01*
X562816Y880643D01*
X562933Y880624D01*
X563050Y880598D01*
X563090Y880599D01*
X563130Y880593D01*
X563248Y880604D01*
X563367Y880607D01*
X563406Y880619D01*
X563446Y880622D01*
X563558Y880663D01*
X563634Y880685D01*
X569205Y880685D01*
X569239Y880667D01*
X569278Y880659D01*
X569315Y880643D01*
X569433Y880624D01*
X569549Y880598D01*
X569590Y880599D01*
X569629Y880593D01*
X569748Y880604D01*
X569867Y880607D01*
X569906Y880619D01*
X569946Y880622D01*
X570058Y880663D01*
X570134Y880685D01*
X575705Y880685D01*
X575739Y880667D01*
X575778Y880659D01*
X575815Y880643D01*
X575933Y880624D01*
X576049Y880598D01*
X576090Y880599D01*
X576129Y880593D01*
X576248Y880604D01*
X576367Y880607D01*
X576406Y880619D01*
X576446Y880622D01*
X576558Y880663D01*
X576634Y880685D01*
X582117Y880685D01*
X582128Y880680D01*
X582152Y880663D01*
X582273Y880617D01*
X582393Y880566D01*
X582422Y880561D01*
X582449Y880550D01*
X582579Y880536D01*
X582707Y880516D01*
X582736Y880518D01*
X582765Y880515D01*
X582894Y880533D01*
X583023Y880545D01*
X583051Y880555D01*
X583080Y880560D01*
X583233Y880612D01*
X586152Y881821D01*
X591188Y881821D01*
X595842Y879893D01*
X599403Y876332D01*
X601331Y871678D01*
X601331Y866642D01*
X599403Y861988D01*
X595842Y858427D01*
X591188Y856499D01*
X586152Y856499D01*
X584732Y857087D01*
X584684Y857101D01*
X584639Y857122D01*
X584531Y857142D01*
X584425Y857171D01*
X584375Y857172D01*
X584326Y857181D01*
X584217Y857175D01*
X584107Y857176D01*
X584059Y857165D01*
X584009Y857162D01*
X583905Y857128D01*
X583798Y857102D01*
X583754Y857079D01*
X583707Y857064D01*
X583614Y857005D01*
X583517Y856954D01*
X583480Y856920D01*
X583438Y856894D01*
X583363Y856813D01*
X583281Y856740D01*
X583254Y856698D01*
X583220Y856662D01*
X583167Y856566D01*
X583107Y856474D01*
X583090Y856427D01*
X583066Y856383D01*
X583039Y856277D01*
X583003Y856173D01*
X582999Y856124D01*
X582987Y856075D01*
X582977Y855915D01*
X582977Y851329D01*
X582989Y851231D01*
X582992Y851132D01*
X583009Y851074D01*
X583017Y851013D01*
X583053Y850921D01*
X583081Y850826D01*
X583111Y850774D01*
X583134Y850718D01*
X583192Y850638D01*
X583242Y850552D01*
X583308Y850477D01*
X583320Y850460D01*
X583330Y850453D01*
X583348Y850431D01*
X585301Y848478D01*
X585380Y848418D01*
X585452Y848350D01*
X585505Y848321D01*
X585553Y848284D01*
X585644Y848244D01*
X585730Y848196D01*
X585789Y848181D01*
X585845Y848157D01*
X585943Y848142D01*
X586038Y848117D01*
X586138Y848111D01*
X586159Y848107D01*
X586171Y848109D01*
X586199Y848107D01*
X661873Y848107D01*
X674151Y835829D01*
X674786Y835194D01*
X674864Y835134D01*
X674936Y835066D01*
X674989Y835037D01*
X675037Y834999D01*
X675128Y834960D01*
X675215Y834912D01*
X675273Y834897D01*
X675329Y834873D01*
X675427Y834857D01*
X675522Y834833D01*
X675622Y834826D01*
X675643Y834823D01*
X675655Y834824D01*
X675683Y834823D01*
X680031Y834823D01*
X680924Y833929D01*
X680924Y833806D01*
X680939Y833688D01*
X680946Y833569D01*
X680959Y833530D01*
X680964Y833490D01*
X681008Y833380D01*
X681044Y833266D01*
X681066Y833232D01*
X681081Y833195D01*
X681151Y833098D01*
X681214Y832998D01*
X681244Y832970D01*
X681268Y832937D01*
X681359Y832861D01*
X681446Y832780D01*
X681481Y832760D01*
X681513Y832734D01*
X681620Y832684D01*
X681725Y832626D01*
X681764Y832616D01*
X681800Y832599D01*
X681917Y832577D01*
X682032Y832547D01*
X682093Y832543D01*
X682113Y832539D01*
X682133Y832540D01*
X682193Y832537D01*
X699406Y832537D01*
X699524Y832551D01*
X699643Y832559D01*
X699681Y832571D01*
X699722Y832576D01*
X699832Y832620D01*
X699945Y832657D01*
X699980Y832679D01*
X700017Y832693D01*
X700113Y832763D01*
X700214Y832827D01*
X700242Y832857D01*
X700275Y832880D01*
X700351Y832972D01*
X700432Y833059D01*
X700452Y833094D01*
X700477Y833125D01*
X700528Y833233D01*
X700586Y833337D01*
X700596Y833376D01*
X700613Y833413D01*
X700635Y833530D01*
X700665Y833645D01*
X700669Y833705D01*
X700673Y833725D01*
X700671Y833746D01*
X700675Y833806D01*
X700675Y835432D01*
X701568Y836325D01*
X720832Y836325D01*
X721725Y835432D01*
X721725Y818168D01*
X720832Y817275D01*
X701568Y817275D01*
X700675Y818168D01*
X700675Y825170D01*
X700660Y825288D01*
X700653Y825407D01*
X700640Y825445D01*
X700635Y825485D01*
X700592Y825596D01*
X700555Y825709D01*
X700533Y825743D01*
X700518Y825781D01*
X700449Y825877D01*
X700385Y825978D01*
X700355Y826006D01*
X700332Y826038D01*
X700240Y826114D01*
X700153Y826196D01*
X700118Y826215D01*
X700087Y826241D01*
X699979Y826292D01*
X699875Y826349D01*
X699835Y826360D01*
X699799Y826377D01*
X699682Y826399D01*
X699567Y826429D01*
X699507Y826433D01*
X699487Y826437D01*
X699466Y826435D01*
X699406Y826439D01*
X682193Y826439D01*
X682075Y826424D01*
X681956Y826417D01*
X681918Y826404D01*
X681878Y826399D01*
X681767Y826355D01*
X681654Y826319D01*
X681620Y826297D01*
X681582Y826282D01*
X681486Y826212D01*
X681385Y826149D01*
X681357Y826119D01*
X681325Y826095D01*
X681249Y826004D01*
X681167Y825917D01*
X681148Y825882D01*
X681122Y825850D01*
X681071Y825743D01*
X681014Y825638D01*
X681003Y825599D01*
X680986Y825563D01*
X680964Y825446D01*
X680934Y825331D01*
X680930Y825270D01*
X680926Y825250D01*
X680928Y825230D01*
X680924Y825170D01*
X680924Y825046D01*
X680031Y824153D01*
X666068Y824153D01*
X665174Y825046D01*
X665174Y825170D01*
X665160Y825288D01*
X665152Y825407D01*
X665140Y825445D01*
X665135Y825485D01*
X665091Y825596D01*
X665054Y825709D01*
X665032Y825743D01*
X665018Y825781D01*
X664948Y825877D01*
X664884Y825978D01*
X664854Y826006D01*
X664831Y826038D01*
X664739Y826114D01*
X664652Y826196D01*
X664617Y826215D01*
X664586Y826241D01*
X664478Y826292D01*
X664374Y826349D01*
X664335Y826360D01*
X664298Y826377D01*
X664181Y826399D01*
X664066Y826429D01*
X664006Y826433D01*
X663986Y826437D01*
X663965Y826435D01*
X663905Y826439D01*
X649144Y826439D01*
X649026Y826424D01*
X648907Y826417D01*
X648869Y826404D01*
X648828Y826399D01*
X648718Y826355D01*
X648605Y826319D01*
X648570Y826297D01*
X648533Y826282D01*
X648437Y826212D01*
X648336Y826149D01*
X648308Y826119D01*
X648275Y826095D01*
X648199Y826004D01*
X648118Y825917D01*
X648098Y825882D01*
X648073Y825850D01*
X648022Y825743D01*
X647964Y825638D01*
X647954Y825599D01*
X647937Y825563D01*
X647915Y825446D01*
X647885Y825331D01*
X647881Y825270D01*
X647877Y825250D01*
X647879Y825230D01*
X647875Y825170D01*
X647875Y821518D01*
X646943Y820586D01*
X646866Y820487D01*
X646784Y820392D01*
X646769Y820362D01*
X646748Y820335D01*
X646698Y820220D01*
X646642Y820107D01*
X646635Y820074D01*
X646621Y820043D01*
X646602Y819919D01*
X646576Y819796D01*
X646577Y819763D01*
X646572Y819729D01*
X646583Y819604D01*
X646589Y819478D01*
X646598Y819446D01*
X646601Y819413D01*
X646644Y819294D01*
X646680Y819174D01*
X646698Y819145D01*
X646709Y819113D01*
X646780Y819009D01*
X646845Y818902D01*
X646869Y818878D01*
X646888Y818850D01*
X646982Y818767D01*
X647072Y818679D01*
X647112Y818652D01*
X647126Y818640D01*
X647145Y818630D01*
X647206Y818590D01*
X647910Y818183D01*
X648383Y817710D01*
X648718Y817131D01*
X648891Y816484D01*
X648891Y813149D01*
X642580Y813149D01*
X642462Y813134D01*
X642343Y813127D01*
X642305Y813114D01*
X642265Y813109D01*
X642154Y813066D01*
X642041Y813029D01*
X642007Y813007D01*
X641969Y812992D01*
X641873Y812923D01*
X641772Y812859D01*
X641744Y812829D01*
X641712Y812806D01*
X641636Y812714D01*
X641554Y812627D01*
X641535Y812592D01*
X641509Y812561D01*
X641458Y812453D01*
X641401Y812349D01*
X641391Y812309D01*
X641373Y812273D01*
X641353Y812166D01*
X641349Y812196D01*
X641305Y812306D01*
X641269Y812419D01*
X641247Y812454D01*
X641232Y812491D01*
X641162Y812587D01*
X641099Y812688D01*
X641069Y812716D01*
X641045Y812749D01*
X640954Y812825D01*
X640867Y812906D01*
X640832Y812926D01*
X640800Y812951D01*
X640693Y813002D01*
X640588Y813060D01*
X640549Y813070D01*
X640513Y813087D01*
X640396Y813109D01*
X640280Y813139D01*
X640220Y813143D01*
X640200Y813147D01*
X640180Y813145D01*
X640120Y813149D01*
X633809Y813149D01*
X633809Y816484D01*
X633982Y817131D01*
X634317Y817710D01*
X634790Y818183D01*
X635494Y818590D01*
X635594Y818666D01*
X635698Y818736D01*
X635721Y818762D01*
X635748Y818782D01*
X635826Y818881D01*
X635909Y818975D01*
X635924Y819005D01*
X635945Y819031D01*
X635996Y819146D01*
X636054Y819258D01*
X636061Y819291D01*
X636075Y819322D01*
X636096Y819446D01*
X636123Y819568D01*
X636122Y819602D01*
X636128Y819635D01*
X636117Y819761D01*
X636114Y819886D01*
X636104Y819919D01*
X636101Y819952D01*
X636060Y820071D01*
X636025Y820192D01*
X636008Y820221D01*
X635997Y820253D01*
X635928Y820357D01*
X635864Y820466D01*
X635831Y820502D01*
X635821Y820518D01*
X635805Y820532D01*
X635757Y820586D01*
X634825Y821518D01*
X634825Y833782D01*
X635718Y834675D01*
X646982Y834675D01*
X647878Y833778D01*
X647890Y833688D01*
X647897Y833569D01*
X647910Y833530D01*
X647915Y833490D01*
X647958Y833380D01*
X647995Y833266D01*
X648017Y833232D01*
X648032Y833195D01*
X648101Y833098D01*
X648165Y832998D01*
X648195Y832970D01*
X648218Y832937D01*
X648310Y832861D01*
X648397Y832780D01*
X648432Y832760D01*
X648463Y832734D01*
X648571Y832684D01*
X648675Y832626D01*
X648715Y832616D01*
X648751Y832599D01*
X648868Y832577D01*
X648983Y832547D01*
X649043Y832543D01*
X649063Y832539D01*
X649084Y832540D01*
X649144Y832537D01*
X663905Y832537D01*
X664023Y832551D01*
X664142Y832559D01*
X664181Y832571D01*
X664221Y832576D01*
X664331Y832620D01*
X664445Y832657D01*
X664479Y832679D01*
X664516Y832693D01*
X664613Y832763D01*
X664713Y832827D01*
X664741Y832857D01*
X664774Y832880D01*
X664850Y832972D01*
X664931Y833059D01*
X664951Y833094D01*
X664977Y833125D01*
X665027Y833233D01*
X665085Y833337D01*
X665095Y833376D01*
X665112Y833413D01*
X665134Y833530D01*
X665164Y833645D01*
X665168Y833705D01*
X665172Y833725D01*
X665171Y833746D01*
X665174Y833806D01*
X665174Y834220D01*
X665162Y834318D01*
X665159Y834417D01*
X665142Y834475D01*
X665135Y834535D01*
X665098Y834627D01*
X665071Y834723D01*
X665040Y834775D01*
X665018Y834831D01*
X664959Y834911D01*
X664909Y834997D01*
X664843Y835072D01*
X664831Y835088D01*
X664821Y835096D01*
X664803Y835117D01*
X659299Y840622D01*
X659220Y840682D01*
X659148Y840750D01*
X659095Y840779D01*
X659047Y840816D01*
X658956Y840856D01*
X658870Y840904D01*
X658811Y840919D01*
X658755Y840943D01*
X658657Y840958D01*
X658562Y840983D01*
X658462Y840989D01*
X658441Y840993D01*
X658429Y840991D01*
X658401Y840993D01*
X582727Y840993D01*
X575863Y847857D01*
X575863Y850162D01*
X575846Y850300D01*
X575833Y850438D01*
X575826Y850457D01*
X575823Y850478D01*
X575772Y850607D01*
X575725Y850738D01*
X575714Y850754D01*
X575706Y850773D01*
X575625Y850886D01*
X575547Y851001D01*
X575531Y851014D01*
X575520Y851031D01*
X575412Y851119D01*
X575308Y851211D01*
X575290Y851220D01*
X575275Y851233D01*
X575149Y851293D01*
X575025Y851356D01*
X575005Y851360D01*
X574987Y851369D01*
X574851Y851395D01*
X574715Y851425D01*
X574694Y851425D01*
X574675Y851429D01*
X574536Y851420D01*
X574397Y851416D01*
X574377Y851410D01*
X574357Y851409D01*
X574225Y851366D01*
X574091Y851327D01*
X574074Y851317D01*
X574055Y851311D01*
X573937Y851237D01*
X573817Y851166D01*
X573796Y851147D01*
X573786Y851141D01*
X573772Y851126D01*
X573697Y851059D01*
X538153Y815515D01*
X538067Y815406D01*
X537979Y815299D01*
X537970Y815280D01*
X537958Y815264D01*
X537902Y815136D01*
X537843Y815011D01*
X537839Y814991D01*
X537831Y814972D01*
X537809Y814834D01*
X537783Y814698D01*
X537785Y814678D01*
X537781Y814658D01*
X537794Y814519D01*
X537803Y814381D01*
X537809Y814362D01*
X537811Y814342D01*
X537858Y814210D01*
X537901Y814079D01*
X537912Y814061D01*
X537919Y814042D01*
X537997Y813927D01*
X538071Y813810D01*
X538086Y813796D01*
X538097Y813779D01*
X538201Y813687D01*
X538303Y813592D01*
X538321Y813582D01*
X538336Y813569D01*
X538460Y813505D01*
X538581Y813438D01*
X538601Y813433D01*
X538619Y813424D01*
X538755Y813394D01*
X538889Y813359D01*
X538917Y813357D01*
X538929Y813354D01*
X538950Y813355D01*
X539050Y813349D01*
X556213Y813349D01*
X557433Y812128D01*
X557511Y812068D01*
X557583Y812000D01*
X557636Y811971D01*
X557684Y811934D01*
X557775Y811894D01*
X557862Y811846D01*
X557921Y811831D01*
X557976Y811807D01*
X558074Y811792D01*
X558170Y811767D01*
X558270Y811761D01*
X558290Y811757D01*
X558303Y811759D01*
X558331Y811757D01*
X559856Y811757D01*
X561806Y810949D01*
X563299Y809456D01*
X564107Y807506D01*
X564107Y805394D01*
X563299Y803444D01*
X561806Y801951D01*
X559856Y801143D01*
X557744Y801143D01*
G37*
%LPD*%
%LPC*%
G36*
X582709Y589586D02*
X582709Y589586D01*
X582649Y589590D01*
X582629Y589594D01*
X582609Y589592D01*
X582549Y589596D01*
X573785Y589596D01*
X573785Y591328D01*
X573958Y591975D01*
X574293Y592554D01*
X574430Y592691D01*
X574490Y592769D01*
X574558Y592841D01*
X574587Y592894D01*
X574624Y592942D01*
X574664Y593033D01*
X574712Y593120D01*
X574727Y593178D01*
X574751Y593234D01*
X574766Y593332D01*
X574791Y593427D01*
X574797Y593527D01*
X574801Y593548D01*
X574799Y593560D01*
X574801Y593588D01*
X574801Y599857D01*
X574818Y599963D01*
X574844Y600079D01*
X574843Y600120D01*
X574849Y600159D01*
X574838Y600278D01*
X574835Y600397D01*
X574823Y600436D01*
X574820Y600476D01*
X574801Y600527D01*
X574801Y607857D01*
X574818Y607963D01*
X574844Y608079D01*
X574843Y608120D01*
X574849Y608159D01*
X574838Y608278D01*
X574835Y608397D01*
X574823Y608436D01*
X574820Y608476D01*
X574801Y608527D01*
X574801Y615626D01*
X575694Y616519D01*
X589658Y616519D01*
X590556Y615620D01*
X590634Y615560D01*
X590706Y615492D01*
X590759Y615463D01*
X590807Y615426D01*
X590898Y615386D01*
X590985Y615338D01*
X591043Y615323D01*
X591099Y615299D01*
X591197Y615284D01*
X591293Y615259D01*
X591393Y615253D01*
X591413Y615249D01*
X591425Y615251D01*
X591453Y615249D01*
X623111Y615249D01*
X623210Y615261D01*
X623309Y615264D01*
X623367Y615281D01*
X623427Y615289D01*
X623519Y615325D01*
X623614Y615353D01*
X623666Y615383D01*
X623723Y615406D01*
X623803Y615464D01*
X623888Y615514D01*
X623963Y615580D01*
X623980Y615592D01*
X623988Y615602D01*
X624009Y615620D01*
X627387Y618999D01*
X696711Y618999D01*
X696810Y619011D01*
X696909Y619014D01*
X696967Y619031D01*
X697027Y619039D01*
X697119Y619075D01*
X697214Y619103D01*
X697266Y619133D01*
X697323Y619156D01*
X697403Y619214D01*
X697488Y619264D01*
X697563Y619330D01*
X697580Y619342D01*
X697588Y619352D01*
X697609Y619370D01*
X733434Y655195D01*
X733494Y655273D01*
X733562Y655345D01*
X733591Y655398D01*
X733628Y655446D01*
X733668Y655537D01*
X733716Y655624D01*
X733731Y655683D01*
X733755Y655738D01*
X733770Y655836D01*
X733795Y655932D01*
X733801Y656032D01*
X733805Y656052D01*
X733803Y656065D01*
X733805Y656093D01*
X733805Y664188D01*
X739162Y669545D01*
X746738Y669545D01*
X752095Y664188D01*
X752095Y656612D01*
X746738Y651255D01*
X738643Y651255D01*
X738544Y651243D01*
X738445Y651240D01*
X738387Y651223D01*
X738327Y651215D01*
X738235Y651179D01*
X738140Y651151D01*
X738088Y651121D01*
X738031Y651098D01*
X737951Y651040D01*
X737866Y650990D01*
X737791Y650924D01*
X737774Y650912D01*
X737766Y650902D01*
X737745Y650884D01*
X701677Y614815D01*
X701592Y614706D01*
X701503Y614599D01*
X701495Y614580D01*
X701482Y614564D01*
X701427Y614436D01*
X701368Y614311D01*
X701364Y614291D01*
X701356Y614272D01*
X701334Y614134D01*
X701308Y613998D01*
X701309Y613978D01*
X701306Y613958D01*
X701319Y613819D01*
X701328Y613681D01*
X701334Y613662D01*
X701336Y613642D01*
X701383Y613510D01*
X701426Y613379D01*
X701436Y613361D01*
X701443Y613342D01*
X701521Y613227D01*
X701596Y613110D01*
X701611Y613096D01*
X701622Y613079D01*
X701726Y612987D01*
X701827Y612892D01*
X701845Y612882D01*
X701860Y612869D01*
X701984Y612805D01*
X702106Y612738D01*
X702125Y612733D01*
X702144Y612724D01*
X702279Y612694D01*
X702414Y612659D01*
X702442Y612657D01*
X702454Y612654D01*
X702474Y612655D01*
X702575Y612649D01*
X715761Y612649D01*
X715860Y612661D01*
X715959Y612664D01*
X716017Y612681D01*
X716077Y612689D01*
X716169Y612725D01*
X716264Y612753D01*
X716316Y612783D01*
X716373Y612806D01*
X716453Y612864D01*
X716538Y612914D01*
X716613Y612980D01*
X716630Y612992D01*
X716638Y613002D01*
X716659Y613020D01*
X733434Y629795D01*
X733494Y629873D01*
X733562Y629945D01*
X733591Y629998D01*
X733628Y630046D01*
X733668Y630137D01*
X733716Y630224D01*
X733731Y630283D01*
X733755Y630338D01*
X733770Y630436D01*
X733795Y630532D01*
X733801Y630632D01*
X733805Y630652D01*
X733803Y630665D01*
X733805Y630693D01*
X733805Y638788D01*
X739162Y644145D01*
X746738Y644145D01*
X752095Y638788D01*
X752095Y631212D01*
X746738Y625855D01*
X738643Y625855D01*
X738544Y625843D01*
X738445Y625840D01*
X738387Y625823D01*
X738327Y625815D01*
X738235Y625779D01*
X738140Y625751D01*
X738088Y625721D01*
X738031Y625698D01*
X737951Y625640D01*
X737866Y625590D01*
X737791Y625524D01*
X737774Y625512D01*
X737766Y625502D01*
X737745Y625484D01*
X718813Y606551D01*
X654054Y606551D01*
X653916Y606534D01*
X653778Y606521D01*
X653759Y606514D01*
X653739Y606511D01*
X653609Y606460D01*
X653478Y606413D01*
X653462Y606402D01*
X653443Y606394D01*
X653330Y606313D01*
X653215Y606235D01*
X653202Y606219D01*
X653186Y606208D01*
X653097Y606100D01*
X653005Y605996D01*
X652996Y605978D01*
X652983Y605963D01*
X652923Y605837D01*
X652860Y605713D01*
X652856Y605693D01*
X652847Y605675D01*
X652821Y605538D01*
X652791Y605403D01*
X652791Y605382D01*
X652787Y605363D01*
X652796Y605224D01*
X652800Y605085D01*
X652806Y605065D01*
X652807Y605045D01*
X652850Y604913D01*
X652889Y604779D01*
X652899Y604762D01*
X652905Y604743D01*
X652979Y604625D01*
X653050Y604505D01*
X653069Y604484D01*
X653075Y604474D01*
X653090Y604460D01*
X653157Y604384D01*
X653717Y603824D01*
X654052Y603245D01*
X654225Y602598D01*
X654225Y599263D01*
X647914Y599263D01*
X647796Y599248D01*
X647677Y599241D01*
X647639Y599228D01*
X647599Y599223D01*
X647488Y599180D01*
X647375Y599143D01*
X647341Y599121D01*
X647303Y599106D01*
X647207Y599037D01*
X647106Y598973D01*
X647078Y598943D01*
X647046Y598920D01*
X646970Y598828D01*
X646888Y598741D01*
X646869Y598706D01*
X646843Y598675D01*
X646792Y598567D01*
X646735Y598463D01*
X646725Y598423D01*
X646707Y598387D01*
X646687Y598280D01*
X646683Y598310D01*
X646639Y598420D01*
X646603Y598533D01*
X646581Y598568D01*
X646566Y598605D01*
X646496Y598701D01*
X646433Y598802D01*
X646403Y598830D01*
X646379Y598863D01*
X646288Y598939D01*
X646201Y599020D01*
X646166Y599040D01*
X646134Y599065D01*
X646027Y599116D01*
X645922Y599174D01*
X645883Y599184D01*
X645847Y599201D01*
X645730Y599223D01*
X645614Y599253D01*
X645554Y599257D01*
X645534Y599261D01*
X645514Y599259D01*
X645454Y599263D01*
X639143Y599263D01*
X639143Y602598D01*
X639316Y603245D01*
X639651Y603824D01*
X640211Y604384D01*
X640297Y604494D01*
X640385Y604601D01*
X640394Y604620D01*
X640406Y604636D01*
X640462Y604764D01*
X640521Y604889D01*
X640525Y604909D01*
X640533Y604928D01*
X640555Y605066D01*
X640581Y605202D01*
X640579Y605222D01*
X640583Y605242D01*
X640569Y605381D01*
X640561Y605519D01*
X640555Y605538D01*
X640553Y605558D01*
X640506Y605689D01*
X640463Y605821D01*
X640452Y605839D01*
X640445Y605858D01*
X640367Y605972D01*
X640293Y606090D01*
X640278Y606104D01*
X640267Y606121D01*
X640163Y606213D01*
X640061Y606308D01*
X640043Y606318D01*
X640028Y606331D01*
X639904Y606394D01*
X639783Y606462D01*
X639763Y606467D01*
X639745Y606476D01*
X639609Y606506D01*
X639475Y606541D01*
X639447Y606543D01*
X639435Y606546D01*
X639414Y606545D01*
X639314Y606551D01*
X636789Y606551D01*
X636690Y606539D01*
X636591Y606536D01*
X636533Y606519D01*
X636473Y606511D01*
X636381Y606475D01*
X636286Y606447D01*
X636234Y606417D01*
X636177Y606394D01*
X636097Y606336D01*
X636012Y606286D01*
X635937Y606220D01*
X635920Y606208D01*
X635912Y606198D01*
X635891Y606180D01*
X630863Y601151D01*
X591820Y601151D01*
X591702Y601136D01*
X591583Y601129D01*
X591545Y601116D01*
X591504Y601111D01*
X591394Y601068D01*
X591281Y601031D01*
X591246Y601009D01*
X591209Y600994D01*
X591113Y600925D01*
X591012Y600861D01*
X590984Y600831D01*
X590951Y600808D01*
X590875Y600716D01*
X590794Y600629D01*
X590774Y600594D01*
X590749Y600563D01*
X590698Y600455D01*
X590640Y600351D01*
X590630Y600311D01*
X590613Y600275D01*
X590591Y600158D01*
X590561Y600043D01*
X590557Y599983D01*
X590553Y599963D01*
X590555Y599942D01*
X590551Y599882D01*
X590551Y593588D01*
X590563Y593490D01*
X590566Y593391D01*
X590583Y593333D01*
X590591Y593273D01*
X590627Y593181D01*
X590655Y593085D01*
X590685Y593033D01*
X590708Y592977D01*
X590766Y592897D01*
X590816Y592811D01*
X590882Y592736D01*
X590894Y592720D01*
X590904Y592712D01*
X590922Y592691D01*
X591059Y592554D01*
X591394Y591975D01*
X591567Y591328D01*
X591567Y589596D01*
X582803Y589596D01*
X582714Y589585D01*
X582709Y589586D01*
G37*
%LPD*%
%LPC*%
G36*
X445450Y545845D02*
X445450Y545845D01*
X444557Y546738D01*
X444557Y552002D01*
X445450Y552895D01*
X465714Y552895D01*
X466326Y552283D01*
X466404Y552222D01*
X466476Y552154D01*
X466529Y552125D01*
X466577Y552088D01*
X466668Y552048D01*
X466755Y552000D01*
X466813Y551985D01*
X466869Y551961D01*
X466967Y551946D01*
X467063Y551921D01*
X467163Y551915D01*
X467183Y551911D01*
X467195Y551913D01*
X467223Y551911D01*
X487680Y551911D01*
X487798Y551926D01*
X487917Y551933D01*
X487955Y551946D01*
X487996Y551951D01*
X488106Y551994D01*
X488219Y552031D01*
X488254Y552053D01*
X488291Y552068D01*
X488387Y552137D01*
X488488Y552201D01*
X488516Y552231D01*
X488549Y552254D01*
X488625Y552346D01*
X488706Y552433D01*
X488726Y552468D01*
X488751Y552499D01*
X488802Y552607D01*
X488860Y552711D01*
X488870Y552751D01*
X488887Y552787D01*
X488909Y552904D01*
X488939Y553019D01*
X488943Y553079D01*
X488947Y553099D01*
X488945Y553120D01*
X488949Y553180D01*
X488949Y559857D01*
X488966Y559964D01*
X488992Y560080D01*
X488991Y560120D01*
X488997Y560160D01*
X488986Y560279D01*
X488982Y560398D01*
X488971Y560436D01*
X488968Y560476D01*
X488949Y560527D01*
X488949Y561032D01*
X488937Y561130D01*
X488934Y561229D01*
X488917Y561287D01*
X488909Y561347D01*
X488873Y561439D01*
X488845Y561535D01*
X488815Y561587D01*
X488792Y561643D01*
X488734Y561723D01*
X488684Y561808D01*
X488618Y561884D01*
X488606Y561900D01*
X488596Y561908D01*
X488578Y561929D01*
X480049Y570458D01*
X479971Y570518D01*
X479899Y570586D01*
X479846Y570615D01*
X479798Y570652D01*
X479707Y570692D01*
X479620Y570740D01*
X479562Y570755D01*
X479506Y570779D01*
X479408Y570794D01*
X479313Y570819D01*
X479212Y570825D01*
X479192Y570829D01*
X479180Y570827D01*
X479152Y570829D01*
X467223Y570829D01*
X467125Y570817D01*
X467026Y570814D01*
X466968Y570797D01*
X466908Y570789D01*
X466816Y570753D01*
X466721Y570725D01*
X466668Y570695D01*
X466612Y570672D01*
X466532Y570614D01*
X466447Y570564D01*
X466371Y570498D01*
X466355Y570486D01*
X466347Y570476D01*
X466326Y570457D01*
X465714Y569845D01*
X445450Y569845D01*
X444557Y570738D01*
X444557Y576002D01*
X445450Y576895D01*
X465714Y576895D01*
X466326Y576283D01*
X466404Y576222D01*
X466476Y576154D01*
X466529Y576125D01*
X466577Y576088D01*
X466668Y576048D01*
X466755Y576000D01*
X466813Y575985D01*
X466869Y575961D01*
X466967Y575946D01*
X467063Y575921D01*
X467163Y575915D01*
X467183Y575911D01*
X467195Y575913D01*
X467223Y575911D01*
X481782Y575911D01*
X486783Y570911D01*
X486892Y570825D01*
X486999Y570737D01*
X487018Y570728D01*
X487034Y570716D01*
X487162Y570660D01*
X487287Y570601D01*
X487307Y570597D01*
X487326Y570589D01*
X487464Y570567D01*
X487600Y570541D01*
X487620Y570543D01*
X487640Y570539D01*
X487779Y570553D01*
X487917Y570561D01*
X487936Y570567D01*
X487956Y570569D01*
X488088Y570616D01*
X488219Y570659D01*
X488237Y570670D01*
X488256Y570677D01*
X488371Y570755D01*
X488488Y570829D01*
X488502Y570844D01*
X488519Y570855D01*
X488611Y570960D01*
X488706Y571061D01*
X488716Y571079D01*
X488729Y571094D01*
X488793Y571218D01*
X488860Y571339D01*
X488865Y571359D01*
X488874Y571377D01*
X488904Y571513D01*
X488939Y571647D01*
X488941Y571675D01*
X488944Y571687D01*
X488943Y571708D01*
X488949Y571808D01*
X488949Y574812D01*
X488937Y574910D01*
X488934Y575009D01*
X488917Y575067D01*
X488909Y575127D01*
X488873Y575219D01*
X488845Y575315D01*
X488815Y575367D01*
X488792Y575423D01*
X488734Y575503D01*
X488684Y575589D01*
X488618Y575664D01*
X488606Y575680D01*
X488596Y575688D01*
X488578Y575709D01*
X488441Y575846D01*
X488106Y576425D01*
X487933Y577072D01*
X487933Y578804D01*
X496697Y578804D01*
X496786Y578815D01*
X496791Y578814D01*
X496851Y578810D01*
X496871Y578806D01*
X496891Y578808D01*
X496951Y578804D01*
X505715Y578804D01*
X505715Y577071D01*
X505654Y576847D01*
X505637Y576722D01*
X505614Y576598D01*
X505616Y576565D01*
X505611Y576531D01*
X505626Y576406D01*
X505633Y576281D01*
X505644Y576249D01*
X505648Y576216D01*
X505693Y576098D01*
X505732Y575979D01*
X505750Y575950D01*
X505762Y575919D01*
X505834Y575816D01*
X505902Y575710D01*
X505926Y575687D01*
X505946Y575659D01*
X506042Y575578D01*
X506133Y575492D01*
X506163Y575476D01*
X506189Y575454D01*
X506302Y575399D01*
X506412Y575338D01*
X506444Y575330D01*
X506475Y575315D01*
X506598Y575290D01*
X506720Y575259D01*
X506768Y575256D01*
X506786Y575252D01*
X506808Y575253D01*
X506880Y575249D01*
X508689Y575249D01*
X508788Y575261D01*
X508887Y575264D01*
X508945Y575281D01*
X509005Y575289D01*
X509097Y575325D01*
X509192Y575353D01*
X509244Y575383D01*
X509301Y575406D01*
X509381Y575464D01*
X509466Y575514D01*
X509541Y575580D01*
X509558Y575592D01*
X509566Y575602D01*
X509587Y575620D01*
X512994Y579027D01*
X513054Y579105D01*
X513122Y579177D01*
X513151Y579230D01*
X513188Y579278D01*
X513228Y579369D01*
X513276Y579456D01*
X513291Y579515D01*
X513315Y579570D01*
X513330Y579668D01*
X513355Y579764D01*
X513361Y579864D01*
X513365Y579884D01*
X513363Y579897D01*
X513365Y579925D01*
X513365Y581363D01*
X513353Y581462D01*
X513350Y581561D01*
X513333Y581619D01*
X513325Y581679D01*
X513289Y581771D01*
X513261Y581866D01*
X513231Y581918D01*
X513208Y581975D01*
X513150Y582055D01*
X513100Y582140D01*
X513034Y582215D01*
X513022Y582232D01*
X513012Y582240D01*
X512994Y582261D01*
X510475Y584780D01*
X510397Y584840D01*
X510325Y584908D01*
X510272Y584937D01*
X510224Y584974D01*
X510133Y585014D01*
X510046Y585062D01*
X509987Y585077D01*
X509932Y585101D01*
X509834Y585116D01*
X509738Y585141D01*
X509638Y585147D01*
X509618Y585151D01*
X509605Y585149D01*
X509577Y585151D01*
X506880Y585151D01*
X506755Y585135D01*
X506630Y585126D01*
X506598Y585116D01*
X506565Y585111D01*
X506448Y585065D01*
X506329Y585025D01*
X506301Y585007D01*
X506269Y584994D01*
X506168Y584921D01*
X506062Y584852D01*
X506039Y584827D01*
X506012Y584808D01*
X505932Y584711D01*
X505846Y584618D01*
X505831Y584589D01*
X505809Y584563D01*
X505756Y584449D01*
X505696Y584338D01*
X505688Y584305D01*
X505674Y584275D01*
X505650Y584152D01*
X505620Y584029D01*
X505620Y583996D01*
X505614Y583963D01*
X505622Y583837D01*
X505623Y583711D01*
X505632Y583663D01*
X505633Y583645D01*
X505640Y583625D01*
X505654Y583553D01*
X505715Y583329D01*
X505715Y581596D01*
X496951Y581596D01*
X496862Y581585D01*
X496857Y581586D01*
X496797Y581590D01*
X496777Y581594D01*
X496757Y581592D01*
X496697Y581596D01*
X487933Y581596D01*
X487933Y583328D01*
X488106Y583975D01*
X488441Y584554D01*
X488578Y584691D01*
X488638Y584769D01*
X488706Y584841D01*
X488735Y584894D01*
X488772Y584942D01*
X488812Y585033D01*
X488860Y585120D01*
X488875Y585178D01*
X488899Y585234D01*
X488914Y585332D01*
X488939Y585427D01*
X488945Y585527D01*
X488949Y585548D01*
X488947Y585560D01*
X488949Y585588D01*
X488949Y590812D01*
X488937Y590910D01*
X488934Y591009D01*
X488917Y591067D01*
X488909Y591127D01*
X488873Y591219D01*
X488845Y591315D01*
X488815Y591367D01*
X488792Y591423D01*
X488734Y591503D01*
X488684Y591589D01*
X488618Y591664D01*
X488606Y591680D01*
X488596Y591688D01*
X488578Y591709D01*
X488441Y591846D01*
X488106Y592425D01*
X487933Y593072D01*
X487933Y594804D01*
X496697Y594804D01*
X496786Y594815D01*
X496791Y594814D01*
X496851Y594810D01*
X496871Y594806D01*
X496891Y594808D01*
X496951Y594804D01*
X505715Y594804D01*
X505715Y593071D01*
X505654Y592847D01*
X505637Y592722D01*
X505614Y592598D01*
X505616Y592565D01*
X505611Y592531D01*
X505626Y592406D01*
X505633Y592281D01*
X505644Y592249D01*
X505648Y592216D01*
X505693Y592098D01*
X505732Y591979D01*
X505750Y591950D01*
X505762Y591919D01*
X505834Y591816D01*
X505902Y591710D01*
X505926Y591687D01*
X505946Y591659D01*
X506042Y591578D01*
X506133Y591492D01*
X506163Y591476D01*
X506189Y591454D01*
X506302Y591399D01*
X506412Y591338D01*
X506444Y591330D01*
X506475Y591315D01*
X506598Y591290D01*
X506720Y591259D01*
X506768Y591256D01*
X506786Y591252D01*
X506808Y591253D01*
X506880Y591249D01*
X512629Y591249D01*
X517305Y586572D01*
X517383Y586512D01*
X517455Y586444D01*
X517508Y586415D01*
X517556Y586378D01*
X517647Y586338D01*
X517734Y586290D01*
X517793Y586275D01*
X517848Y586251D01*
X517946Y586236D01*
X518042Y586211D01*
X518142Y586205D01*
X518162Y586201D01*
X518175Y586203D01*
X518203Y586201D01*
X520027Y586201D01*
X522070Y585355D01*
X523633Y583792D01*
X524479Y581749D01*
X524479Y579539D01*
X523633Y577496D01*
X522070Y575933D01*
X520027Y575087D01*
X518203Y575087D01*
X518104Y575075D01*
X518005Y575072D01*
X517947Y575055D01*
X517887Y575047D01*
X517795Y575011D01*
X517700Y574983D01*
X517648Y574953D01*
X517591Y574930D01*
X517511Y574872D01*
X517426Y574822D01*
X517351Y574756D01*
X517334Y574744D01*
X517326Y574734D01*
X517305Y574716D01*
X511741Y569151D01*
X505968Y569151D01*
X505850Y569136D01*
X505731Y569129D01*
X505693Y569116D01*
X505652Y569111D01*
X505542Y569068D01*
X505429Y569031D01*
X505394Y569009D01*
X505357Y568994D01*
X505261Y568925D01*
X505160Y568861D01*
X505132Y568831D01*
X505099Y568808D01*
X505023Y568716D01*
X504942Y568629D01*
X504922Y568594D01*
X504897Y568563D01*
X504846Y568455D01*
X504788Y568351D01*
X504778Y568311D01*
X504761Y568275D01*
X504739Y568158D01*
X504709Y568043D01*
X504705Y567983D01*
X504701Y567963D01*
X504703Y567942D01*
X504699Y567882D01*
X504699Y560543D01*
X504682Y560437D01*
X504656Y560321D01*
X504657Y560280D01*
X504651Y560241D01*
X504662Y560122D01*
X504665Y560003D01*
X504677Y559964D01*
X504680Y559924D01*
X504699Y559873D01*
X504699Y552774D01*
X503806Y551881D01*
X496624Y551881D01*
X496526Y551869D01*
X496427Y551866D01*
X496369Y551849D01*
X496309Y551841D01*
X496217Y551805D01*
X496121Y551777D01*
X496069Y551747D01*
X496013Y551724D01*
X495933Y551666D01*
X495848Y551616D01*
X495772Y551550D01*
X495756Y551538D01*
X495748Y551528D01*
X495727Y551510D01*
X491046Y546829D01*
X467223Y546829D01*
X467125Y546817D01*
X467026Y546814D01*
X466968Y546797D01*
X466908Y546789D01*
X466816Y546753D01*
X466721Y546725D01*
X466668Y546695D01*
X466612Y546672D01*
X466532Y546614D01*
X466447Y546564D01*
X466371Y546498D01*
X466355Y546486D01*
X466347Y546476D01*
X466326Y546457D01*
X465714Y545845D01*
X445450Y545845D01*
G37*
%LPD*%
%LPC*%
G36*
X489278Y758023D02*
X489278Y758023D01*
X488385Y758916D01*
X488385Y771180D01*
X489278Y772073D01*
X497097Y772073D01*
X497196Y772085D01*
X497295Y772088D01*
X497353Y772105D01*
X497413Y772113D01*
X497505Y772149D01*
X497600Y772177D01*
X497652Y772207D01*
X497709Y772230D01*
X497789Y772288D01*
X497874Y772338D01*
X497949Y772404D01*
X497966Y772416D01*
X497974Y772426D01*
X497995Y772444D01*
X499899Y774349D01*
X508459Y774349D01*
X508597Y774366D01*
X508736Y774379D01*
X508755Y774386D01*
X508775Y774389D01*
X508904Y774440D01*
X509035Y774487D01*
X509052Y774498D01*
X509071Y774506D01*
X509183Y774587D01*
X509298Y774665D01*
X509312Y774681D01*
X509328Y774692D01*
X509417Y774800D01*
X509509Y774904D01*
X509518Y774922D01*
X509531Y774937D01*
X509590Y775063D01*
X509653Y775187D01*
X509658Y775207D01*
X509666Y775225D01*
X509692Y775361D01*
X509723Y775497D01*
X509722Y775518D01*
X509726Y775537D01*
X509718Y775676D01*
X509713Y775815D01*
X509708Y775835D01*
X509706Y775855D01*
X509664Y775987D01*
X509625Y776121D01*
X509615Y776138D01*
X509608Y776157D01*
X509534Y776275D01*
X509463Y776395D01*
X509445Y776416D01*
X509438Y776426D01*
X509423Y776440D01*
X509357Y776515D01*
X499011Y786862D01*
X498933Y786922D01*
X498861Y786990D01*
X498808Y787019D01*
X498760Y787056D01*
X498669Y787096D01*
X498582Y787144D01*
X498523Y787159D01*
X498468Y787183D01*
X498370Y787198D01*
X498274Y787223D01*
X498174Y787229D01*
X498154Y787233D01*
X498141Y787231D01*
X498113Y787233D01*
X490294Y787233D01*
X489401Y788126D01*
X489401Y800390D01*
X490294Y801283D01*
X501558Y801283D01*
X502451Y800390D01*
X502451Y792571D01*
X502463Y792472D01*
X502466Y792373D01*
X502483Y792315D01*
X502491Y792255D01*
X502527Y792163D01*
X502555Y792068D01*
X502585Y792016D01*
X502608Y791959D01*
X502666Y791879D01*
X502716Y791794D01*
X502782Y791719D01*
X502794Y791702D01*
X502804Y791694D01*
X502822Y791673D01*
X513275Y781220D01*
X513353Y781160D01*
X513425Y781092D01*
X513478Y781063D01*
X513526Y781026D01*
X513617Y780986D01*
X513704Y780938D01*
X513763Y780923D01*
X513818Y780899D01*
X513916Y780884D01*
X514012Y780859D01*
X514112Y780853D01*
X514132Y780849D01*
X514145Y780851D01*
X514173Y780849D01*
X517795Y780849D01*
X517913Y780864D01*
X518032Y780871D01*
X518070Y780884D01*
X518111Y780889D01*
X518221Y780932D01*
X518334Y780969D01*
X518369Y780991D01*
X518406Y781006D01*
X518502Y781075D01*
X518603Y781139D01*
X518631Y781169D01*
X518664Y781192D01*
X518740Y781284D01*
X518821Y781371D01*
X518841Y781406D01*
X518866Y781437D01*
X518917Y781545D01*
X518975Y781649D01*
X518985Y781689D01*
X519002Y781725D01*
X519024Y781842D01*
X519054Y781957D01*
X519058Y782017D01*
X519062Y782037D01*
X519060Y782058D01*
X519064Y782118D01*
X519064Y783031D01*
X528590Y783031D01*
X538116Y783031D01*
X538116Y782226D01*
X537943Y781579D01*
X537608Y781000D01*
X537471Y780863D01*
X537411Y780785D01*
X537343Y780713D01*
X537314Y780660D01*
X537277Y780612D01*
X537237Y780521D01*
X537189Y780434D01*
X537174Y780376D01*
X537150Y780320D01*
X537135Y780222D01*
X537110Y780127D01*
X537104Y780027D01*
X537100Y780006D01*
X537102Y779994D01*
X537100Y779966D01*
X537100Y775423D01*
X537046Y775353D01*
X536967Y775264D01*
X536949Y775228D01*
X536924Y775196D01*
X536877Y775087D01*
X536822Y774981D01*
X536814Y774941D01*
X536798Y774904D01*
X536779Y774787D01*
X536753Y774671D01*
X536754Y774630D01*
X536748Y774590D01*
X536759Y774471D01*
X536762Y774353D01*
X536774Y774314D01*
X536777Y774274D01*
X536818Y774162D01*
X536851Y774047D01*
X536871Y774012D01*
X536885Y773974D01*
X536952Y773876D01*
X537012Y773773D01*
X537052Y773728D01*
X537064Y773711D01*
X537079Y773698D01*
X537100Y773674D01*
X537100Y768923D01*
X537046Y768853D01*
X536967Y768764D01*
X536949Y768728D01*
X536924Y768696D01*
X536877Y768587D01*
X536822Y768481D01*
X536814Y768441D01*
X536798Y768404D01*
X536779Y768287D01*
X536753Y768171D01*
X536754Y768130D01*
X536748Y768090D01*
X536759Y767971D01*
X536762Y767853D01*
X536774Y767814D01*
X536777Y767774D01*
X536818Y767662D01*
X536851Y767547D01*
X536871Y767512D01*
X536885Y767474D01*
X536952Y767376D01*
X537012Y767273D01*
X537052Y767228D01*
X537064Y767211D01*
X537079Y767198D01*
X537100Y767174D01*
X537100Y762634D01*
X537112Y762536D01*
X537115Y762437D01*
X537132Y762379D01*
X537140Y762319D01*
X537176Y762227D01*
X537204Y762131D01*
X537234Y762079D01*
X537257Y762023D01*
X537315Y761943D01*
X537365Y761857D01*
X537431Y761782D01*
X537443Y761766D01*
X537453Y761758D01*
X537471Y761737D01*
X537608Y761600D01*
X537943Y761021D01*
X538116Y760374D01*
X538116Y759569D01*
X528590Y759569D01*
X519064Y759569D01*
X519064Y760374D01*
X519237Y761021D01*
X519572Y761600D01*
X519709Y761737D01*
X519769Y761815D01*
X519837Y761887D01*
X519866Y761940D01*
X519903Y761988D01*
X519943Y762079D01*
X519991Y762166D01*
X520006Y762224D01*
X520030Y762280D01*
X520045Y762378D01*
X520070Y762473D01*
X520076Y762573D01*
X520080Y762594D01*
X520078Y762606D01*
X520080Y762634D01*
X520080Y766982D01*
X520065Y767100D01*
X520058Y767219D01*
X520045Y767257D01*
X520040Y767298D01*
X519997Y767408D01*
X519960Y767521D01*
X519938Y767556D01*
X519923Y767593D01*
X519854Y767689D01*
X519790Y767790D01*
X519760Y767818D01*
X519737Y767851D01*
X519645Y767927D01*
X519558Y768008D01*
X519523Y768028D01*
X519492Y768053D01*
X519384Y768104D01*
X519280Y768162D01*
X519240Y768172D01*
X519204Y768189D01*
X519087Y768211D01*
X518972Y768241D01*
X518912Y768245D01*
X518892Y768249D01*
X518871Y768247D01*
X518811Y768251D01*
X502951Y768251D01*
X502852Y768239D01*
X502753Y768236D01*
X502695Y768219D01*
X502635Y768211D01*
X502543Y768175D01*
X502448Y768147D01*
X502396Y768117D01*
X502339Y768094D01*
X502259Y768036D01*
X502174Y767986D01*
X502099Y767920D01*
X502082Y767908D01*
X502074Y767898D01*
X502053Y767880D01*
X501806Y767633D01*
X501746Y767555D01*
X501678Y767483D01*
X501649Y767430D01*
X501612Y767382D01*
X501572Y767291D01*
X501524Y767204D01*
X501509Y767145D01*
X501485Y767090D01*
X501470Y766992D01*
X501445Y766896D01*
X501439Y766796D01*
X501435Y766776D01*
X501437Y766763D01*
X501435Y766735D01*
X501435Y758916D01*
X500542Y758023D01*
X489278Y758023D01*
G37*
%LPD*%
%LPC*%
G36*
X601710Y779069D02*
X601710Y779069D01*
X592184Y779069D01*
X592184Y779874D01*
X592357Y780521D01*
X592692Y781100D01*
X592829Y781237D01*
X592889Y781315D01*
X592957Y781387D01*
X592986Y781440D01*
X593023Y781488D01*
X593063Y781579D01*
X593111Y781666D01*
X593126Y781724D01*
X593150Y781780D01*
X593165Y781878D01*
X593190Y781973D01*
X593196Y782073D01*
X593200Y782094D01*
X593198Y782106D01*
X593200Y782134D01*
X593200Y786677D01*
X593254Y786747D01*
X593333Y786836D01*
X593351Y786872D01*
X593376Y786904D01*
X593423Y787013D01*
X593478Y787119D01*
X593486Y787159D01*
X593502Y787196D01*
X593521Y787313D01*
X593547Y787429D01*
X593546Y787470D01*
X593552Y787510D01*
X593541Y787628D01*
X593538Y787747D01*
X593526Y787786D01*
X593523Y787826D01*
X593482Y787939D01*
X593449Y788053D01*
X593429Y788087D01*
X593415Y788126D01*
X593348Y788224D01*
X593288Y788327D01*
X593248Y788372D01*
X593236Y788389D01*
X593221Y788402D01*
X593200Y788426D01*
X593200Y793177D01*
X593254Y793247D01*
X593333Y793336D01*
X593351Y793372D01*
X593376Y793404D01*
X593423Y793513D01*
X593478Y793619D01*
X593486Y793659D01*
X593502Y793696D01*
X593521Y793813D01*
X593547Y793929D01*
X593546Y793970D01*
X593552Y794010D01*
X593541Y794128D01*
X593538Y794247D01*
X593526Y794286D01*
X593523Y794326D01*
X593482Y794439D01*
X593449Y794553D01*
X593429Y794587D01*
X593415Y794626D01*
X593348Y794724D01*
X593288Y794827D01*
X593248Y794872D01*
X593236Y794889D01*
X593221Y794902D01*
X593200Y794926D01*
X593200Y799677D01*
X593254Y799747D01*
X593333Y799836D01*
X593351Y799872D01*
X593376Y799904D01*
X593423Y800013D01*
X593478Y800119D01*
X593486Y800159D01*
X593502Y800196D01*
X593521Y800313D01*
X593547Y800429D01*
X593546Y800470D01*
X593552Y800510D01*
X593541Y800628D01*
X593538Y800747D01*
X593526Y800786D01*
X593523Y800826D01*
X593482Y800938D01*
X593449Y801053D01*
X593429Y801087D01*
X593415Y801126D01*
X593348Y801224D01*
X593288Y801327D01*
X593248Y801372D01*
X593236Y801389D01*
X593221Y801402D01*
X593200Y801426D01*
X593200Y806177D01*
X593254Y806247D01*
X593333Y806336D01*
X593351Y806372D01*
X593376Y806404D01*
X593423Y806513D01*
X593478Y806619D01*
X593486Y806659D01*
X593502Y806696D01*
X593521Y806813D01*
X593547Y806929D01*
X593546Y806970D01*
X593552Y807010D01*
X593541Y807128D01*
X593538Y807247D01*
X593526Y807286D01*
X593523Y807326D01*
X593482Y807439D01*
X593449Y807553D01*
X593429Y807587D01*
X593415Y807626D01*
X593348Y807724D01*
X593288Y807827D01*
X593248Y807872D01*
X593236Y807889D01*
X593221Y807902D01*
X593200Y807926D01*
X593200Y812677D01*
X593254Y812747D01*
X593333Y812836D01*
X593351Y812872D01*
X593376Y812904D01*
X593423Y813013D01*
X593478Y813119D01*
X593486Y813159D01*
X593502Y813196D01*
X593521Y813313D01*
X593547Y813429D01*
X593546Y813470D01*
X593552Y813510D01*
X593541Y813628D01*
X593538Y813747D01*
X593526Y813786D01*
X593523Y813826D01*
X593482Y813939D01*
X593449Y814053D01*
X593429Y814087D01*
X593415Y814126D01*
X593348Y814224D01*
X593288Y814327D01*
X593248Y814372D01*
X593236Y814389D01*
X593221Y814402D01*
X593200Y814426D01*
X593200Y819177D01*
X593254Y819247D01*
X593333Y819336D01*
X593351Y819372D01*
X593376Y819404D01*
X593423Y819513D01*
X593478Y819619D01*
X593486Y819659D01*
X593502Y819696D01*
X593521Y819813D01*
X593547Y819929D01*
X593546Y819970D01*
X593552Y820010D01*
X593541Y820128D01*
X593538Y820247D01*
X593526Y820286D01*
X593523Y820326D01*
X593482Y820439D01*
X593449Y820553D01*
X593429Y820587D01*
X593415Y820626D01*
X593348Y820724D01*
X593288Y820827D01*
X593248Y820872D01*
X593236Y820889D01*
X593221Y820902D01*
X593200Y820926D01*
X593200Y825672D01*
X594093Y826565D01*
X609327Y826565D01*
X610220Y825672D01*
X610220Y820923D01*
X610166Y820853D01*
X610087Y820764D01*
X610069Y820728D01*
X610044Y820696D01*
X609997Y820587D01*
X609942Y820481D01*
X609934Y820441D01*
X609918Y820404D01*
X609899Y820287D01*
X609873Y820171D01*
X609874Y820130D01*
X609868Y820090D01*
X609879Y819971D01*
X609882Y819853D01*
X609894Y819814D01*
X609897Y819774D01*
X609938Y819662D01*
X609971Y819547D01*
X609991Y819512D01*
X610005Y819474D01*
X610072Y819376D01*
X610132Y819273D01*
X610172Y819228D01*
X610184Y819211D01*
X610199Y819198D01*
X610220Y819174D01*
X610220Y814423D01*
X610166Y814353D01*
X610087Y814264D01*
X610069Y814228D01*
X610044Y814196D01*
X609997Y814087D01*
X609942Y813981D01*
X609934Y813941D01*
X609918Y813904D01*
X609899Y813787D01*
X609873Y813671D01*
X609874Y813630D01*
X609868Y813590D01*
X609879Y813471D01*
X609882Y813353D01*
X609894Y813314D01*
X609897Y813274D01*
X609938Y813162D01*
X609971Y813047D01*
X609991Y813012D01*
X610005Y812974D01*
X610072Y812876D01*
X610132Y812773D01*
X610172Y812728D01*
X610184Y812711D01*
X610199Y812698D01*
X610220Y812674D01*
X610220Y807923D01*
X610166Y807853D01*
X610087Y807764D01*
X610069Y807728D01*
X610044Y807696D01*
X609997Y807587D01*
X609942Y807481D01*
X609934Y807441D01*
X609918Y807404D01*
X609899Y807287D01*
X609873Y807171D01*
X609874Y807130D01*
X609868Y807090D01*
X609879Y806971D01*
X609882Y806853D01*
X609894Y806814D01*
X609897Y806774D01*
X609938Y806662D01*
X609971Y806547D01*
X609991Y806512D01*
X610005Y806474D01*
X610072Y806376D01*
X610132Y806273D01*
X610172Y806228D01*
X610184Y806211D01*
X610199Y806198D01*
X610220Y806174D01*
X610220Y801423D01*
X610166Y801353D01*
X610087Y801264D01*
X610069Y801228D01*
X610044Y801196D01*
X609997Y801087D01*
X609942Y800981D01*
X609934Y800941D01*
X609918Y800904D01*
X609899Y800787D01*
X609873Y800671D01*
X609874Y800630D01*
X609868Y800590D01*
X609879Y800471D01*
X609882Y800353D01*
X609894Y800314D01*
X609897Y800274D01*
X609938Y800162D01*
X609971Y800047D01*
X609991Y800012D01*
X610005Y799974D01*
X610072Y799876D01*
X610132Y799773D01*
X610172Y799728D01*
X610184Y799711D01*
X610199Y799698D01*
X610220Y799674D01*
X610220Y794923D01*
X610166Y794853D01*
X610087Y794764D01*
X610069Y794728D01*
X610044Y794696D01*
X609997Y794587D01*
X609942Y794481D01*
X609934Y794441D01*
X609918Y794404D01*
X609899Y794287D01*
X609873Y794171D01*
X609874Y794130D01*
X609868Y794090D01*
X609879Y793971D01*
X609882Y793853D01*
X609894Y793814D01*
X609897Y793774D01*
X609938Y793662D01*
X609971Y793547D01*
X609991Y793512D01*
X610005Y793474D01*
X610072Y793376D01*
X610132Y793273D01*
X610172Y793228D01*
X610184Y793211D01*
X610199Y793198D01*
X610220Y793174D01*
X610220Y788423D01*
X610166Y788353D01*
X610087Y788264D01*
X610069Y788228D01*
X610044Y788196D01*
X609997Y788087D01*
X609942Y787981D01*
X609934Y787941D01*
X609918Y787904D01*
X609899Y787787D01*
X609873Y787671D01*
X609874Y787630D01*
X609868Y787590D01*
X609879Y787471D01*
X609882Y787353D01*
X609894Y787314D01*
X609897Y787274D01*
X609938Y787162D01*
X609971Y787047D01*
X609991Y787012D01*
X610005Y786974D01*
X610072Y786876D01*
X610132Y786773D01*
X610172Y786728D01*
X610184Y786711D01*
X610199Y786698D01*
X610220Y786674D01*
X610220Y782134D01*
X610232Y782036D01*
X610235Y781937D01*
X610252Y781879D01*
X610260Y781819D01*
X610296Y781727D01*
X610324Y781631D01*
X610354Y781579D01*
X610377Y781523D01*
X610435Y781443D01*
X610485Y781357D01*
X610551Y781282D01*
X610563Y781266D01*
X610573Y781258D01*
X610591Y781237D01*
X610728Y781100D01*
X611063Y780521D01*
X611236Y779874D01*
X611236Y779069D01*
X601710Y779069D01*
X601710Y779069D01*
G37*
%LPD*%
%LPC*%
G36*
X564094Y775743D02*
X564094Y775743D01*
X562144Y776551D01*
X560651Y778044D01*
X559843Y779994D01*
X559843Y781519D01*
X559831Y781618D01*
X559828Y781717D01*
X559811Y781775D01*
X559803Y781835D01*
X559767Y781927D01*
X559739Y782022D01*
X559709Y782074D01*
X559686Y782131D01*
X559628Y782211D01*
X559578Y782296D01*
X559512Y782371D01*
X559500Y782388D01*
X559490Y782396D01*
X559472Y782417D01*
X554509Y787380D01*
X554431Y787440D01*
X554359Y787508D01*
X554306Y787537D01*
X554258Y787574D01*
X554167Y787614D01*
X554080Y787662D01*
X554021Y787677D01*
X553966Y787701D01*
X553868Y787716D01*
X553772Y787741D01*
X553672Y787747D01*
X553652Y787751D01*
X553639Y787749D01*
X553611Y787751D01*
X539385Y787751D01*
X539267Y787736D01*
X539148Y787729D01*
X539110Y787716D01*
X539069Y787711D01*
X538959Y787668D01*
X538846Y787631D01*
X538811Y787609D01*
X538774Y787594D01*
X538678Y787525D01*
X538577Y787461D01*
X538549Y787431D01*
X538516Y787408D01*
X538440Y787316D01*
X538359Y787229D01*
X538339Y787194D01*
X538314Y787163D01*
X538263Y787055D01*
X538205Y786951D01*
X538195Y786911D01*
X538178Y786875D01*
X538156Y786758D01*
X538126Y786643D01*
X538122Y786583D01*
X538118Y786563D01*
X538120Y786542D01*
X538116Y786482D01*
X538116Y785569D01*
X528590Y785569D01*
X519064Y785569D01*
X519064Y786374D01*
X519237Y787021D01*
X519572Y787600D01*
X519709Y787737D01*
X519769Y787815D01*
X519837Y787887D01*
X519866Y787940D01*
X519903Y787988D01*
X519943Y788079D01*
X519991Y788166D01*
X520006Y788224D01*
X520030Y788280D01*
X520045Y788378D01*
X520070Y788473D01*
X520076Y788573D01*
X520080Y788594D01*
X520078Y788606D01*
X520080Y788634D01*
X520080Y793177D01*
X520134Y793247D01*
X520213Y793336D01*
X520231Y793372D01*
X520256Y793404D01*
X520303Y793513D01*
X520358Y793619D01*
X520366Y793659D01*
X520382Y793696D01*
X520401Y793813D01*
X520427Y793929D01*
X520426Y793970D01*
X520432Y794010D01*
X520421Y794128D01*
X520418Y794247D01*
X520406Y794286D01*
X520403Y794326D01*
X520362Y794439D01*
X520329Y794553D01*
X520309Y794587D01*
X520295Y794626D01*
X520228Y794724D01*
X520168Y794827D01*
X520128Y794872D01*
X520116Y794889D01*
X520101Y794902D01*
X520080Y794926D01*
X520080Y799466D01*
X520068Y799564D01*
X520065Y799663D01*
X520048Y799721D01*
X520040Y799781D01*
X520004Y799873D01*
X519976Y799969D01*
X519946Y800021D01*
X519923Y800077D01*
X519865Y800157D01*
X519815Y800243D01*
X519749Y800318D01*
X519737Y800334D01*
X519727Y800342D01*
X519709Y800363D01*
X519572Y800500D01*
X519237Y801079D01*
X519064Y801726D01*
X519064Y802531D01*
X528590Y802531D01*
X538116Y802531D01*
X538116Y801726D01*
X537943Y801079D01*
X537608Y800500D01*
X537471Y800363D01*
X537411Y800285D01*
X537343Y800213D01*
X537314Y800160D01*
X537277Y800112D01*
X537237Y800021D01*
X537189Y799934D01*
X537174Y799876D01*
X537150Y799820D01*
X537135Y799722D01*
X537110Y799627D01*
X537104Y799527D01*
X537100Y799506D01*
X537102Y799494D01*
X537100Y799466D01*
X537100Y795118D01*
X537115Y795000D01*
X537122Y794881D01*
X537135Y794843D01*
X537140Y794802D01*
X537183Y794692D01*
X537220Y794579D01*
X537242Y794544D01*
X537257Y794507D01*
X537326Y794411D01*
X537390Y794310D01*
X537420Y794282D01*
X537443Y794249D01*
X537535Y794173D01*
X537622Y794092D01*
X537657Y794072D01*
X537688Y794047D01*
X537796Y793996D01*
X537900Y793938D01*
X537940Y793928D01*
X537976Y793911D01*
X538093Y793889D01*
X538208Y793859D01*
X538268Y793855D01*
X538288Y793851D01*
X538309Y793853D01*
X538369Y793849D01*
X556663Y793849D01*
X563783Y786728D01*
X563861Y786668D01*
X563933Y786600D01*
X563986Y786571D01*
X564034Y786534D01*
X564125Y786494D01*
X564212Y786446D01*
X564271Y786431D01*
X564326Y786407D01*
X564424Y786392D01*
X564520Y786367D01*
X564620Y786361D01*
X564640Y786357D01*
X564653Y786359D01*
X564681Y786357D01*
X566206Y786357D01*
X568156Y785549D01*
X569649Y784056D01*
X570457Y782106D01*
X570457Y779994D01*
X569649Y778044D01*
X568156Y776551D01*
X566206Y775743D01*
X564094Y775743D01*
G37*
%LPD*%
%LPC*%
G36*
X473294Y787233D02*
X473294Y787233D01*
X472401Y788126D01*
X472401Y789940D01*
X472386Y790058D01*
X472379Y790177D01*
X472366Y790215D01*
X472361Y790256D01*
X472318Y790366D01*
X472281Y790479D01*
X472259Y790514D01*
X472244Y790551D01*
X472175Y790647D01*
X472111Y790748D01*
X472081Y790776D01*
X472058Y790809D01*
X471966Y790885D01*
X471879Y790966D01*
X471844Y790986D01*
X471813Y791011D01*
X471705Y791062D01*
X471601Y791120D01*
X471561Y791130D01*
X471525Y791147D01*
X471408Y791169D01*
X471293Y791199D01*
X471233Y791203D01*
X471213Y791207D01*
X471192Y791205D01*
X471132Y791209D01*
X454968Y791209D01*
X454850Y791194D01*
X454731Y791187D01*
X454693Y791174D01*
X454652Y791169D01*
X454542Y791126D01*
X454429Y791089D01*
X454394Y791067D01*
X454357Y791052D01*
X454261Y790983D01*
X454160Y790919D01*
X454132Y790889D01*
X454099Y790866D01*
X454023Y790774D01*
X453942Y790687D01*
X453922Y790652D01*
X453897Y790621D01*
X453846Y790513D01*
X453788Y790409D01*
X453778Y790369D01*
X453761Y790333D01*
X453739Y790216D01*
X453709Y790101D01*
X453705Y790041D01*
X453701Y790021D01*
X453703Y790000D01*
X453699Y789940D01*
X453699Y789505D01*
X451927Y787733D01*
X442421Y787733D01*
X440649Y789505D01*
X440649Y799011D01*
X442421Y800783D01*
X451927Y800783D01*
X453699Y799011D01*
X453699Y798576D01*
X453714Y798458D01*
X453721Y798339D01*
X453734Y798301D01*
X453739Y798260D01*
X453782Y798150D01*
X453819Y798037D01*
X453841Y798002D01*
X453856Y797965D01*
X453925Y797869D01*
X453989Y797768D01*
X454019Y797740D01*
X454042Y797707D01*
X454134Y797631D01*
X454221Y797550D01*
X454256Y797530D01*
X454287Y797505D01*
X454395Y797454D01*
X454499Y797396D01*
X454539Y797386D01*
X454575Y797369D01*
X454692Y797347D01*
X454807Y797317D01*
X454867Y797313D01*
X454887Y797309D01*
X454908Y797311D01*
X454968Y797307D01*
X471132Y797307D01*
X471250Y797322D01*
X471369Y797329D01*
X471407Y797342D01*
X471448Y797347D01*
X471558Y797390D01*
X471671Y797427D01*
X471706Y797449D01*
X471743Y797464D01*
X471839Y797533D01*
X471940Y797597D01*
X471968Y797627D01*
X472001Y797650D01*
X472077Y797742D01*
X472158Y797829D01*
X472178Y797864D01*
X472203Y797895D01*
X472254Y798003D01*
X472312Y798107D01*
X472322Y798147D01*
X472339Y798183D01*
X472361Y798300D01*
X472391Y798415D01*
X472395Y798475D01*
X472399Y798495D01*
X472398Y798509D01*
X472399Y798513D01*
X472398Y798525D01*
X472401Y798576D01*
X472401Y800390D01*
X473294Y801283D01*
X484558Y801283D01*
X485451Y800390D01*
X485451Y788126D01*
X484558Y787233D01*
X473294Y787233D01*
G37*
%LPD*%
%LPC*%
G36*
X472278Y758023D02*
X472278Y758023D01*
X471385Y758916D01*
X471385Y760730D01*
X471370Y760848D01*
X471363Y760967D01*
X471350Y761005D01*
X471345Y761046D01*
X471302Y761156D01*
X471265Y761269D01*
X471243Y761304D01*
X471228Y761341D01*
X471159Y761437D01*
X471095Y761538D01*
X471065Y761566D01*
X471042Y761599D01*
X470950Y761675D01*
X470863Y761756D01*
X470828Y761776D01*
X470797Y761801D01*
X470689Y761852D01*
X470585Y761910D01*
X470545Y761920D01*
X470509Y761937D01*
X470392Y761959D01*
X470277Y761989D01*
X470217Y761993D01*
X470197Y761997D01*
X470176Y761995D01*
X470116Y761999D01*
X454714Y761999D01*
X454596Y761984D01*
X454477Y761977D01*
X454439Y761964D01*
X454398Y761959D01*
X454288Y761916D01*
X454175Y761879D01*
X454140Y761857D01*
X454103Y761842D01*
X454007Y761773D01*
X453906Y761709D01*
X453878Y761679D01*
X453845Y761656D01*
X453769Y761564D01*
X453688Y761477D01*
X453668Y761442D01*
X453643Y761411D01*
X453592Y761303D01*
X453534Y761199D01*
X453524Y761159D01*
X453507Y761123D01*
X453485Y761006D01*
X453455Y760891D01*
X453451Y760831D01*
X453447Y760811D01*
X453449Y760790D01*
X453445Y760730D01*
X453445Y760295D01*
X451673Y758523D01*
X442167Y758523D01*
X440395Y760295D01*
X440395Y769801D01*
X442167Y771573D01*
X451673Y771573D01*
X453445Y769801D01*
X453445Y769366D01*
X453460Y769248D01*
X453467Y769129D01*
X453480Y769091D01*
X453485Y769050D01*
X453528Y768940D01*
X453565Y768827D01*
X453587Y768792D01*
X453602Y768755D01*
X453671Y768659D01*
X453735Y768558D01*
X453765Y768530D01*
X453788Y768497D01*
X453880Y768421D01*
X453967Y768340D01*
X454002Y768320D01*
X454033Y768295D01*
X454141Y768244D01*
X454245Y768186D01*
X454285Y768176D01*
X454321Y768159D01*
X454438Y768137D01*
X454553Y768107D01*
X454613Y768103D01*
X454633Y768099D01*
X454654Y768101D01*
X454714Y768097D01*
X470116Y768097D01*
X470234Y768112D01*
X470353Y768119D01*
X470391Y768132D01*
X470432Y768137D01*
X470542Y768180D01*
X470655Y768217D01*
X470690Y768239D01*
X470727Y768254D01*
X470823Y768323D01*
X470924Y768387D01*
X470952Y768417D01*
X470985Y768440D01*
X471061Y768532D01*
X471142Y768619D01*
X471162Y768654D01*
X471187Y768685D01*
X471238Y768793D01*
X471296Y768897D01*
X471306Y768937D01*
X471323Y768973D01*
X471345Y769090D01*
X471375Y769205D01*
X471379Y769265D01*
X471383Y769285D01*
X471381Y769306D01*
X471382Y769318D01*
X471383Y769320D01*
X471383Y769323D01*
X471385Y769366D01*
X471385Y771180D01*
X472278Y772073D01*
X483542Y772073D01*
X484435Y771180D01*
X484435Y758916D01*
X483542Y758023D01*
X472278Y758023D01*
G37*
%LPD*%
%LPC*%
G36*
X642947Y503895D02*
X642947Y503895D01*
X641175Y505667D01*
X641175Y515173D01*
X642947Y516945D01*
X643382Y516945D01*
X643500Y516960D01*
X643619Y516967D01*
X643657Y516980D01*
X643698Y516985D01*
X643808Y517028D01*
X643921Y517065D01*
X643956Y517087D01*
X643993Y517102D01*
X644089Y517171D01*
X644190Y517235D01*
X644218Y517265D01*
X644251Y517288D01*
X644327Y517380D01*
X644408Y517467D01*
X644428Y517502D01*
X644453Y517533D01*
X644504Y517641D01*
X644562Y517745D01*
X644572Y517785D01*
X644589Y517821D01*
X644611Y517938D01*
X644641Y518053D01*
X644645Y518113D01*
X644649Y518133D01*
X644647Y518154D01*
X644651Y518214D01*
X644651Y529806D01*
X644636Y529924D01*
X644629Y530043D01*
X644616Y530081D01*
X644611Y530122D01*
X644568Y530232D01*
X644531Y530345D01*
X644509Y530380D01*
X644494Y530417D01*
X644425Y530513D01*
X644361Y530614D01*
X644331Y530642D01*
X644308Y530675D01*
X644216Y530751D01*
X644129Y530832D01*
X644094Y530852D01*
X644063Y530877D01*
X643955Y530928D01*
X643851Y530986D01*
X643811Y530996D01*
X643775Y531013D01*
X643658Y531035D01*
X643543Y531065D01*
X643483Y531069D01*
X643463Y531073D01*
X643442Y531071D01*
X643382Y531075D01*
X641568Y531075D01*
X640675Y531968D01*
X640675Y543232D01*
X641568Y544125D01*
X653832Y544125D01*
X654725Y543232D01*
X654725Y531968D01*
X653832Y531075D01*
X652018Y531075D01*
X651900Y531060D01*
X651781Y531053D01*
X651743Y531040D01*
X651702Y531035D01*
X651592Y530992D01*
X651479Y530955D01*
X651444Y530933D01*
X651407Y530918D01*
X651311Y530849D01*
X651210Y530785D01*
X651182Y530755D01*
X651149Y530732D01*
X651073Y530640D01*
X650992Y530553D01*
X650972Y530518D01*
X650947Y530487D01*
X650896Y530379D01*
X650838Y530275D01*
X650828Y530235D01*
X650811Y530199D01*
X650789Y530082D01*
X650759Y529967D01*
X650755Y529907D01*
X650751Y529887D01*
X650753Y529866D01*
X650749Y529806D01*
X650749Y518214D01*
X650764Y518096D01*
X650771Y517977D01*
X650784Y517939D01*
X650789Y517898D01*
X650832Y517788D01*
X650869Y517675D01*
X650891Y517640D01*
X650906Y517603D01*
X650975Y517507D01*
X651039Y517406D01*
X651069Y517378D01*
X651092Y517345D01*
X651184Y517269D01*
X651271Y517188D01*
X651306Y517168D01*
X651337Y517143D01*
X651445Y517092D01*
X651549Y517034D01*
X651589Y517024D01*
X651625Y517007D01*
X651742Y516985D01*
X651857Y516955D01*
X651917Y516951D01*
X651937Y516947D01*
X651958Y516949D01*
X652018Y516945D01*
X652453Y516945D01*
X654225Y515173D01*
X654225Y505667D01*
X652453Y503895D01*
X642947Y503895D01*
G37*
%LPD*%
%LPC*%
G36*
X552668Y681425D02*
X552668Y681425D01*
X551775Y682318D01*
X551775Y693582D01*
X552668Y694475D01*
X554482Y694475D01*
X554600Y694490D01*
X554719Y694497D01*
X554757Y694510D01*
X554798Y694515D01*
X554908Y694558D01*
X555021Y694595D01*
X555056Y694617D01*
X555093Y694632D01*
X555189Y694701D01*
X555290Y694765D01*
X555318Y694795D01*
X555351Y694818D01*
X555427Y694910D01*
X555508Y694997D01*
X555528Y695032D01*
X555553Y695063D01*
X555604Y695171D01*
X555662Y695275D01*
X555672Y695315D01*
X555689Y695351D01*
X555711Y695468D01*
X555741Y695583D01*
X555745Y695643D01*
X555749Y695663D01*
X555747Y695684D01*
X555751Y695744D01*
X555751Y699515D01*
X555739Y699613D01*
X555736Y699712D01*
X555719Y699770D01*
X555711Y699830D01*
X555675Y699922D01*
X555647Y700017D01*
X555617Y700069D01*
X555594Y700126D01*
X555536Y700206D01*
X555486Y700291D01*
X555420Y700367D01*
X555408Y700383D01*
X555398Y700391D01*
X555380Y700412D01*
X554089Y701702D01*
X553243Y703745D01*
X553243Y705955D01*
X554089Y707998D01*
X555652Y709561D01*
X557695Y710407D01*
X559905Y710407D01*
X561948Y709561D01*
X563511Y707998D01*
X564357Y705955D01*
X564357Y703745D01*
X563511Y701702D01*
X562220Y700412D01*
X562160Y700334D01*
X562092Y700262D01*
X562063Y700209D01*
X562026Y700161D01*
X561986Y700070D01*
X561938Y699983D01*
X561923Y699925D01*
X561899Y699869D01*
X561884Y699771D01*
X561859Y699675D01*
X561853Y699575D01*
X561849Y699555D01*
X561851Y699543D01*
X561849Y699515D01*
X561849Y695744D01*
X561864Y695626D01*
X561871Y695507D01*
X561884Y695469D01*
X561889Y695428D01*
X561933Y695317D01*
X561969Y695205D01*
X561991Y695170D01*
X562006Y695133D01*
X562075Y695037D01*
X562139Y694936D01*
X562169Y694908D01*
X562192Y694875D01*
X562284Y694799D01*
X562371Y694718D01*
X562406Y694698D01*
X562437Y694673D01*
X562545Y694622D01*
X562649Y694564D01*
X562689Y694554D01*
X562725Y694537D01*
X562842Y694515D01*
X562957Y694485D01*
X563017Y694481D01*
X563037Y694477D01*
X563058Y694479D01*
X563118Y694475D01*
X564932Y694475D01*
X565825Y693582D01*
X565825Y682318D01*
X564932Y681425D01*
X552668Y681425D01*
G37*
%LPD*%
%LPC*%
G36*
X496857Y597586D02*
X496857Y597586D01*
X496797Y597590D01*
X496777Y597594D01*
X496757Y597592D01*
X496697Y597596D01*
X487933Y597596D01*
X487933Y599328D01*
X488106Y599975D01*
X488441Y600554D01*
X488578Y600691D01*
X488638Y600769D01*
X488706Y600841D01*
X488735Y600894D01*
X488772Y600942D01*
X488812Y601033D01*
X488860Y601120D01*
X488875Y601178D01*
X488899Y601234D01*
X488914Y601332D01*
X488939Y601427D01*
X488945Y601527D01*
X488949Y601548D01*
X488947Y601560D01*
X488949Y601588D01*
X488949Y607857D01*
X488966Y607964D01*
X488992Y608080D01*
X488991Y608120D01*
X488997Y608160D01*
X488986Y608279D01*
X488982Y608398D01*
X488971Y608436D01*
X488968Y608476D01*
X488949Y608527D01*
X488949Y615626D01*
X489842Y616519D01*
X503806Y616519D01*
X504699Y615626D01*
X504699Y608543D01*
X504682Y608437D01*
X504656Y608321D01*
X504657Y608280D01*
X504651Y608241D01*
X504662Y608122D01*
X504665Y608003D01*
X504677Y607964D01*
X504680Y607924D01*
X504699Y607873D01*
X504699Y601588D01*
X504711Y601490D01*
X504714Y601391D01*
X504731Y601333D01*
X504739Y601273D01*
X504775Y601181D01*
X504803Y601085D01*
X504833Y601033D01*
X504856Y600977D01*
X504914Y600897D01*
X504964Y600811D01*
X505030Y600736D01*
X505042Y600720D01*
X505052Y600712D01*
X505070Y600691D01*
X505207Y600554D01*
X505542Y599975D01*
X505715Y599328D01*
X505715Y597596D01*
X496951Y597596D01*
X496862Y597585D01*
X496857Y597586D01*
G37*
%LPD*%
%LPC*%
G36*
X739162Y752855D02*
X739162Y752855D01*
X733805Y758212D01*
X733805Y765788D01*
X739162Y771145D01*
X746738Y771145D01*
X752095Y765788D01*
X752095Y758212D01*
X746738Y752855D01*
X739162Y752855D01*
G37*
%LPD*%
%LPC*%
G36*
X612162Y409955D02*
X612162Y409955D01*
X606805Y415312D01*
X606805Y422888D01*
X612162Y428245D01*
X619738Y428245D01*
X625095Y422888D01*
X625095Y415312D01*
X619738Y409955D01*
X612162Y409955D01*
G37*
%LPD*%
%LPC*%
G36*
X520973Y735535D02*
X520973Y735535D01*
X520080Y736428D01*
X520080Y741177D01*
X520134Y741247D01*
X520213Y741336D01*
X520231Y741372D01*
X520256Y741404D01*
X520303Y741513D01*
X520358Y741619D01*
X520366Y741659D01*
X520382Y741696D01*
X520401Y741813D01*
X520427Y741929D01*
X520426Y741970D01*
X520432Y742010D01*
X520421Y742128D01*
X520418Y742247D01*
X520406Y742286D01*
X520403Y742326D01*
X520362Y742439D01*
X520329Y742553D01*
X520309Y742587D01*
X520295Y742626D01*
X520228Y742724D01*
X520168Y742827D01*
X520128Y742872D01*
X520116Y742889D01*
X520101Y742902D01*
X520080Y742926D01*
X520080Y747466D01*
X520068Y747564D01*
X520065Y747663D01*
X520048Y747721D01*
X520040Y747781D01*
X520004Y747873D01*
X519976Y747969D01*
X519946Y748021D01*
X519923Y748077D01*
X519865Y748157D01*
X519815Y748243D01*
X519749Y748318D01*
X519737Y748334D01*
X519727Y748342D01*
X519709Y748363D01*
X519572Y748500D01*
X519237Y749079D01*
X519064Y749726D01*
X519064Y750531D01*
X528590Y750531D01*
X538116Y750531D01*
X538116Y749726D01*
X537943Y749079D01*
X537608Y748500D01*
X537471Y748363D01*
X537411Y748285D01*
X537343Y748213D01*
X537314Y748160D01*
X537277Y748112D01*
X537237Y748021D01*
X537189Y747934D01*
X537174Y747876D01*
X537150Y747820D01*
X537135Y747722D01*
X537110Y747627D01*
X537104Y747527D01*
X537100Y747506D01*
X537102Y747494D01*
X537100Y747466D01*
X537100Y742923D01*
X537046Y742853D01*
X536967Y742764D01*
X536949Y742728D01*
X536924Y742696D01*
X536877Y742587D01*
X536822Y742481D01*
X536814Y742441D01*
X536798Y742404D01*
X536779Y742287D01*
X536753Y742171D01*
X536754Y742130D01*
X536748Y742090D01*
X536759Y741971D01*
X536762Y741853D01*
X536774Y741814D01*
X536777Y741774D01*
X536818Y741662D01*
X536851Y741547D01*
X536871Y741512D01*
X536885Y741474D01*
X536952Y741376D01*
X537012Y741273D01*
X537052Y741228D01*
X537064Y741211D01*
X537079Y741198D01*
X537100Y741174D01*
X537100Y736428D01*
X536207Y735535D01*
X520973Y735535D01*
G37*
%LPD*%
G36*
X528675Y889659D02*
X528675Y889659D01*
X528675Y889660D01*
X528675Y908660D01*
X528671Y908665D01*
X528670Y908665D01*
X522170Y908665D01*
X522169Y908665D01*
X521522Y908580D01*
X521522Y908579D01*
X521521Y908579D01*
X520918Y908330D01*
X520918Y908329D01*
X520917Y908329D01*
X520399Y907932D01*
X520399Y907931D01*
X520398Y907931D01*
X520001Y907413D01*
X520001Y907412D01*
X520000Y907412D01*
X519751Y906809D01*
X519751Y906808D01*
X519750Y906808D01*
X519746Y906778D01*
X519746Y906773D01*
X519745Y906768D01*
X519744Y906763D01*
X519744Y906758D01*
X519737Y906703D01*
X519736Y906698D01*
X519735Y906694D01*
X519735Y906693D01*
X519735Y906689D01*
X519735Y906688D01*
X519734Y906684D01*
X519727Y906629D01*
X519726Y906624D01*
X519725Y906619D01*
X519725Y906614D01*
X519724Y906609D01*
X519717Y906554D01*
X519716Y906549D01*
X519716Y906544D01*
X519715Y906539D01*
X519714Y906535D01*
X519714Y906534D01*
X519708Y906485D01*
X519707Y906480D01*
X519706Y906475D01*
X519706Y906470D01*
X519705Y906465D01*
X519704Y906460D01*
X519698Y906410D01*
X519697Y906405D01*
X519697Y906400D01*
X519696Y906395D01*
X519695Y906390D01*
X519695Y906385D01*
X519688Y906336D01*
X519687Y906331D01*
X519687Y906326D01*
X519686Y906321D01*
X519686Y906316D01*
X519685Y906316D01*
X519686Y906316D01*
X519685Y906311D01*
X519678Y906261D01*
X519678Y906256D01*
X519677Y906251D01*
X519676Y906246D01*
X519676Y906241D01*
X519675Y906236D01*
X519669Y906187D01*
X519668Y906187D01*
X519668Y906182D01*
X519667Y906177D01*
X519667Y906172D01*
X519666Y906167D01*
X519665Y906161D01*
X519665Y906160D01*
X519665Y892160D01*
X519665Y892159D01*
X519750Y891512D01*
X519751Y891512D01*
X519751Y891511D01*
X520000Y890908D01*
X520001Y890908D01*
X520001Y890907D01*
X520398Y890389D01*
X520399Y890389D01*
X520399Y890388D01*
X520917Y889991D01*
X520918Y889991D01*
X520918Y889990D01*
X521521Y889741D01*
X521522Y889741D01*
X521522Y889740D01*
X522169Y889655D01*
X522170Y889655D01*
X528670Y889655D01*
X528675Y889659D01*
G37*
G36*
X610670Y889655D02*
X610670Y889655D01*
X610671Y889655D01*
X611318Y889740D01*
X611318Y889741D01*
X611319Y889741D01*
X611922Y889990D01*
X611922Y889991D01*
X611923Y889991D01*
X612441Y890388D01*
X612441Y890389D01*
X612442Y890389D01*
X612839Y890907D01*
X612839Y890908D01*
X612840Y890908D01*
X613089Y891511D01*
X613089Y891512D01*
X613090Y891512D01*
X613175Y892159D01*
X613175Y892160D01*
X613175Y906160D01*
X613175Y906161D01*
X613090Y906808D01*
X613089Y906808D01*
X613089Y906809D01*
X612840Y907412D01*
X612839Y907412D01*
X612839Y907413D01*
X612442Y907931D01*
X612441Y907931D01*
X612441Y907932D01*
X611923Y908329D01*
X611922Y908329D01*
X611922Y908330D01*
X611319Y908579D01*
X611318Y908579D01*
X611318Y908580D01*
X610671Y908665D01*
X610670Y908665D01*
X604170Y908665D01*
X604165Y908661D01*
X604165Y908660D01*
X604165Y889660D01*
X604169Y889655D01*
X604170Y889655D01*
X610670Y889655D01*
X610670Y889655D01*
G37*
G36*
X545116Y864012D02*
X545116Y864012D01*
X545117Y864012D01*
X546016Y864326D01*
X546016Y864327D01*
X546017Y864327D01*
X546823Y864833D01*
X546823Y864834D01*
X547496Y865507D01*
X547497Y865508D01*
X548003Y866313D01*
X548003Y866314D01*
X548004Y866314D01*
X548318Y867213D01*
X548318Y867214D01*
X548425Y868159D01*
X548425Y868160D01*
X548425Y870160D01*
X548425Y870161D01*
X548318Y871106D01*
X548318Y871107D01*
X548004Y872006D01*
X548003Y872006D01*
X548003Y872007D01*
X547497Y872813D01*
X547496Y872813D01*
X546823Y873486D01*
X546823Y873487D01*
X546017Y873993D01*
X546016Y873993D01*
X546016Y873994D01*
X545117Y874308D01*
X545116Y874308D01*
X544858Y874337D01*
X544814Y874342D01*
X544770Y874347D01*
X544373Y874392D01*
X544329Y874397D01*
X544285Y874402D01*
X544171Y874415D01*
X544170Y874415D01*
X544169Y874415D01*
X543224Y874308D01*
X543223Y874308D01*
X542324Y873994D01*
X542324Y873993D01*
X542323Y873993D01*
X541518Y873487D01*
X541517Y873486D01*
X540844Y872813D01*
X540843Y872813D01*
X540337Y872007D01*
X540337Y872006D01*
X540336Y872006D01*
X540022Y871107D01*
X540022Y871106D01*
X539915Y870161D01*
X539915Y870160D01*
X539915Y868160D01*
X539915Y868159D01*
X540022Y867214D01*
X540022Y867213D01*
X540336Y866314D01*
X540337Y866314D01*
X540337Y866313D01*
X540843Y865508D01*
X540844Y865507D01*
X541517Y864834D01*
X541518Y864833D01*
X542323Y864327D01*
X542324Y864327D01*
X542324Y864326D01*
X543223Y864012D01*
X543224Y864012D01*
X544169Y863905D01*
X544170Y863906D01*
X544171Y863905D01*
X545116Y864012D01*
G37*
G36*
X589616Y864012D02*
X589616Y864012D01*
X589617Y864012D01*
X590516Y864326D01*
X590516Y864327D01*
X590517Y864327D01*
X591323Y864833D01*
X591323Y864834D01*
X591996Y865507D01*
X591997Y865508D01*
X592503Y866313D01*
X592503Y866314D01*
X592504Y866314D01*
X592818Y867213D01*
X592818Y867214D01*
X592925Y868159D01*
X592925Y868160D01*
X592925Y870160D01*
X592925Y870161D01*
X592818Y871106D01*
X592818Y871107D01*
X592504Y872006D01*
X592503Y872006D01*
X592503Y872007D01*
X591997Y872813D01*
X591996Y872813D01*
X591323Y873486D01*
X591323Y873487D01*
X590517Y873993D01*
X590516Y873993D01*
X590516Y873994D01*
X589617Y874308D01*
X589616Y874308D01*
X589358Y874337D01*
X589314Y874342D01*
X589270Y874347D01*
X588873Y874392D01*
X588829Y874397D01*
X588785Y874402D01*
X588671Y874415D01*
X588670Y874415D01*
X588669Y874415D01*
X587724Y874308D01*
X587723Y874308D01*
X586824Y873994D01*
X586824Y873993D01*
X586823Y873993D01*
X586018Y873487D01*
X586017Y873486D01*
X585344Y872813D01*
X585343Y872813D01*
X584837Y872007D01*
X584837Y872006D01*
X584836Y872006D01*
X584522Y871107D01*
X584522Y871106D01*
X584415Y870161D01*
X584415Y870160D01*
X584415Y868160D01*
X584415Y868159D01*
X584522Y867214D01*
X584522Y867213D01*
X584836Y866314D01*
X584837Y866314D01*
X584837Y866313D01*
X585343Y865508D01*
X585344Y865507D01*
X586017Y864834D01*
X586018Y864833D01*
X586823Y864327D01*
X586824Y864327D01*
X586824Y864326D01*
X587723Y864012D01*
X587724Y864012D01*
X588669Y863905D01*
X588670Y863906D01*
X588671Y863905D01*
X589616Y864012D01*
G37*
%LPC*%
G36*
X713739Y801339D02*
X713739Y801339D01*
X713739Y809341D01*
X720534Y809341D01*
X721181Y809168D01*
X721760Y808833D01*
X722233Y808360D01*
X722568Y807781D01*
X722741Y807134D01*
X722741Y801339D01*
X713739Y801339D01*
G37*
%LPD*%
%LPC*%
G36*
X711991Y564133D02*
X711991Y564133D01*
X711991Y573135D01*
X717786Y573135D01*
X718433Y572962D01*
X719012Y572627D01*
X719485Y572154D01*
X719820Y571575D01*
X719993Y570928D01*
X719993Y564133D01*
X711991Y564133D01*
G37*
%LPD*%
%LPC*%
G36*
X699659Y801339D02*
X699659Y801339D01*
X699659Y807134D01*
X699832Y807781D01*
X700167Y808360D01*
X700640Y808833D01*
X701219Y809168D01*
X701866Y809341D01*
X708661Y809341D01*
X708661Y801339D01*
X699659Y801339D01*
G37*
%LPD*%
%LPC*%
G36*
X711991Y550053D02*
X711991Y550053D01*
X711991Y559055D01*
X719993Y559055D01*
X719993Y552260D01*
X719820Y551613D01*
X719485Y551034D01*
X719012Y550561D01*
X718433Y550226D01*
X717786Y550053D01*
X711991Y550053D01*
G37*
%LPD*%
%LPC*%
G36*
X713739Y788259D02*
X713739Y788259D01*
X713739Y796261D01*
X722741Y796261D01*
X722741Y790466D01*
X722568Y789819D01*
X722233Y789240D01*
X721760Y788767D01*
X721181Y788432D01*
X720534Y788259D01*
X713739Y788259D01*
G37*
%LPD*%
%LPC*%
G36*
X698911Y564133D02*
X698911Y564133D01*
X698911Y570928D01*
X699084Y571575D01*
X699419Y572154D01*
X699892Y572627D01*
X700471Y572962D01*
X701118Y573135D01*
X706913Y573135D01*
X706913Y564133D01*
X698911Y564133D01*
G37*
%LPD*%
%LPC*%
G36*
X701866Y788259D02*
X701866Y788259D01*
X701219Y788432D01*
X700640Y788767D01*
X700167Y789240D01*
X699832Y789819D01*
X699659Y790466D01*
X699659Y796261D01*
X708661Y796261D01*
X708661Y788259D01*
X701866Y788259D01*
G37*
%LPD*%
%LPC*%
G36*
X701118Y550053D02*
X701118Y550053D01*
X700471Y550226D01*
X699892Y550561D01*
X699419Y551034D01*
X699084Y551613D01*
X698911Y552260D01*
X698911Y559055D01*
X706913Y559055D01*
X706913Y550053D01*
X701118Y550053D01*
G37*
%LPD*%
%LPC*%
G36*
X524004Y892740D02*
X524004Y892740D01*
X523370Y892962D01*
X522803Y893318D01*
X522328Y893793D01*
X521972Y894360D01*
X521750Y894994D01*
X521675Y895660D01*
X521675Y902660D01*
X521675Y902663D01*
X521676Y902668D01*
X521676Y902672D01*
X521676Y902673D01*
X521677Y902677D01*
X521677Y902678D01*
X521678Y902682D01*
X521678Y902687D01*
X521681Y902712D01*
X521681Y902717D01*
X521682Y902722D01*
X521683Y902727D01*
X521683Y902732D01*
X521684Y902737D01*
X521684Y902742D01*
X521685Y902747D01*
X521687Y902767D01*
X521688Y902772D01*
X521688Y902777D01*
X521689Y902782D01*
X521689Y902787D01*
X521690Y902792D01*
X521690Y902797D01*
X521691Y902802D01*
X521692Y902807D01*
X521694Y902827D01*
X521694Y902831D01*
X521694Y902832D01*
X521695Y902836D01*
X521695Y902837D01*
X521695Y902841D01*
X521696Y902846D01*
X521697Y902851D01*
X521697Y902856D01*
X521698Y902861D01*
X521698Y902866D01*
X521700Y902886D01*
X521701Y902886D01*
X521701Y902891D01*
X521702Y902896D01*
X521702Y902901D01*
X521703Y902906D01*
X521703Y902911D01*
X521704Y902916D01*
X521704Y902921D01*
X521705Y902926D01*
X521707Y902946D01*
X521708Y902951D01*
X521708Y902956D01*
X521709Y902961D01*
X521709Y902966D01*
X521710Y902971D01*
X521711Y902976D01*
X521711Y902981D01*
X521712Y902986D01*
X521714Y903005D01*
X521714Y903010D01*
X521715Y903010D01*
X521714Y903010D01*
X521715Y903015D01*
X521716Y903020D01*
X521716Y903025D01*
X521717Y903030D01*
X521717Y903035D01*
X521718Y903040D01*
X521721Y903065D01*
X521721Y903070D01*
X521722Y903075D01*
X521722Y903080D01*
X521723Y903085D01*
X521723Y903090D01*
X521724Y903095D01*
X521725Y903100D01*
X521727Y903125D01*
X521728Y903130D01*
X521728Y903135D01*
X521729Y903135D01*
X521728Y903135D01*
X521729Y903140D01*
X521730Y903145D01*
X521730Y903149D01*
X521730Y903150D01*
X521731Y903154D01*
X521731Y903155D01*
X521731Y903159D01*
X521734Y903179D01*
X521734Y903184D01*
X521735Y903189D01*
X521735Y903194D01*
X521736Y903199D01*
X521736Y903204D01*
X521737Y903209D01*
X521737Y903214D01*
X521738Y903219D01*
X521740Y903239D01*
X521741Y903244D01*
X521741Y903249D01*
X521742Y903254D01*
X521742Y903259D01*
X521743Y903259D01*
X521742Y903259D01*
X521743Y903264D01*
X521744Y903269D01*
X521744Y903274D01*
X521745Y903279D01*
X521747Y903299D01*
X521748Y903304D01*
X521748Y903308D01*
X521748Y903309D01*
X521749Y903313D01*
X521749Y903314D01*
X521749Y903318D01*
X521750Y903323D01*
X521750Y903326D01*
X521972Y903960D01*
X522328Y904527D01*
X522803Y905002D01*
X523370Y905358D01*
X524004Y905580D01*
X524670Y905655D01*
X525336Y905580D01*
X525970Y905358D01*
X526537Y905002D01*
X527012Y904527D01*
X527368Y903960D01*
X527590Y903326D01*
X527665Y902660D01*
X527665Y895660D01*
X527663Y895643D01*
X527663Y895638D01*
X527662Y895633D01*
X527661Y895628D01*
X527661Y895623D01*
X527660Y895618D01*
X527660Y895613D01*
X527659Y895608D01*
X527656Y895583D01*
X527656Y895578D01*
X527655Y895573D01*
X527655Y895568D01*
X527654Y895564D01*
X527654Y895563D01*
X527654Y895559D01*
X527654Y895558D01*
X527653Y895554D01*
X527652Y895549D01*
X527650Y895529D01*
X527650Y895524D01*
X527649Y895519D01*
X527649Y895514D01*
X527648Y895509D01*
X527647Y895504D01*
X527647Y895499D01*
X527646Y895494D01*
X527646Y895489D01*
X527644Y895469D01*
X527643Y895469D01*
X527643Y895464D01*
X527642Y895459D01*
X527642Y895454D01*
X527641Y895449D01*
X527641Y895444D01*
X527640Y895439D01*
X527640Y895434D01*
X527639Y895429D01*
X527637Y895409D01*
X527636Y895405D01*
X527636Y895404D01*
X527636Y895400D01*
X527636Y895399D01*
X527635Y895395D01*
X527635Y895390D01*
X527634Y895385D01*
X527633Y895380D01*
X527633Y895375D01*
X527632Y895370D01*
X527630Y895350D01*
X527630Y895345D01*
X527629Y895345D01*
X527630Y895345D01*
X527629Y895340D01*
X527628Y895335D01*
X527628Y895330D01*
X527627Y895325D01*
X527627Y895320D01*
X527626Y895315D01*
X527626Y895310D01*
X527623Y895290D01*
X527623Y895285D01*
X527622Y895280D01*
X527622Y895275D01*
X527621Y895270D01*
X527621Y895265D01*
X527620Y895260D01*
X527619Y895255D01*
X527617Y895231D01*
X527616Y895226D01*
X527616Y895221D01*
X527615Y895221D01*
X527616Y895221D01*
X527615Y895216D01*
X527614Y895211D01*
X527614Y895206D01*
X527613Y895201D01*
X527613Y895196D01*
X527610Y895171D01*
X527609Y895166D01*
X527609Y895161D01*
X527608Y895156D01*
X527608Y895151D01*
X527607Y895146D01*
X527607Y895141D01*
X527606Y895136D01*
X527604Y895116D01*
X527603Y895111D01*
X527603Y895106D01*
X527602Y895101D01*
X527602Y895096D01*
X527601Y895096D01*
X527602Y895096D01*
X527601Y895091D01*
X527600Y895087D01*
X527600Y895086D01*
X527600Y895082D01*
X527600Y895081D01*
X527599Y895077D01*
X527597Y895057D01*
X527596Y895052D01*
X527596Y895047D01*
X527595Y895042D01*
X527595Y895037D01*
X527594Y895032D01*
X527594Y895027D01*
X527593Y895022D01*
X527593Y895017D01*
X527590Y894997D01*
X527590Y894994D01*
X527368Y894360D01*
X527012Y893793D01*
X526537Y893318D01*
X525970Y892962D01*
X525336Y892740D01*
X525165Y892721D01*
X525121Y892716D01*
X524812Y892681D01*
X524768Y892676D01*
X524670Y892665D01*
X524004Y892740D01*
G37*
%LPD*%
%LPC*%
G36*
X608072Y892676D02*
X608072Y892676D01*
X608028Y892681D01*
X607719Y892716D01*
X607675Y892721D01*
X607504Y892740D01*
X606870Y892962D01*
X606303Y893318D01*
X605828Y893793D01*
X605472Y894360D01*
X605250Y894994D01*
X605175Y895660D01*
X605175Y902660D01*
X605250Y903326D01*
X605472Y903960D01*
X605828Y904527D01*
X606303Y905002D01*
X606870Y905358D01*
X607504Y905580D01*
X608170Y905655D01*
X608836Y905580D01*
X609470Y905358D01*
X610037Y905002D01*
X610512Y904527D01*
X610868Y903960D01*
X611090Y903326D01*
X611165Y902660D01*
X611165Y895660D01*
X611090Y894994D01*
X610868Y894360D01*
X610512Y893793D01*
X610037Y893318D01*
X609470Y892962D01*
X608836Y892740D01*
X608170Y892665D01*
X608072Y892676D01*
G37*
%LPD*%
%LPC*%
G36*
X588505Y864934D02*
X588505Y864934D01*
X588285Y864958D01*
X588197Y864968D01*
X588196Y864968D01*
X587976Y864993D01*
X587948Y864996D01*
X587262Y865236D01*
X586647Y865623D01*
X586133Y866137D01*
X585746Y866752D01*
X585506Y867438D01*
X585425Y868160D01*
X585425Y870160D01*
X585506Y870882D01*
X585746Y871568D01*
X586133Y872183D01*
X586647Y872697D01*
X587262Y873084D01*
X587948Y873324D01*
X588670Y873405D01*
X589392Y873324D01*
X590078Y873084D01*
X590693Y872697D01*
X591207Y872183D01*
X591594Y871568D01*
X591834Y870882D01*
X591915Y870160D01*
X591915Y868160D01*
X591834Y867438D01*
X591594Y866752D01*
X591207Y866137D01*
X590693Y865623D01*
X590078Y865236D01*
X589392Y864996D01*
X588670Y864915D01*
X588505Y864934D01*
G37*
%LPD*%
%LPC*%
G36*
X544005Y864934D02*
X544005Y864934D01*
X543785Y864958D01*
X543697Y864968D01*
X543696Y864968D01*
X543476Y864993D01*
X543448Y864996D01*
X542762Y865236D01*
X542147Y865623D01*
X541633Y866137D01*
X541246Y866752D01*
X541006Y867438D01*
X540925Y868160D01*
X540925Y870160D01*
X541006Y870882D01*
X541246Y871568D01*
X541633Y872183D01*
X542147Y872697D01*
X542762Y873084D01*
X543448Y873324D01*
X544170Y873405D01*
X544892Y873324D01*
X545578Y873084D01*
X546193Y872697D01*
X546707Y872183D01*
X547094Y871568D01*
X547334Y870882D01*
X547415Y870160D01*
X547415Y868160D01*
X547334Y867438D01*
X547094Y866752D01*
X546707Y866137D01*
X546193Y865623D01*
X545578Y865236D01*
X544892Y864996D01*
X544170Y864915D01*
X544005Y864934D01*
G37*
%LPD*%
%LPC*%
G36*
X567689Y421639D02*
X567689Y421639D01*
X567689Y429261D01*
X569359Y429261D01*
X575311Y423309D01*
X575311Y421639D01*
X567689Y421639D01*
G37*
%LPD*%
%LPC*%
G36*
X554989Y421639D02*
X554989Y421639D01*
X554989Y423309D01*
X560941Y429261D01*
X562611Y429261D01*
X562611Y421639D01*
X554989Y421639D01*
G37*
%LPD*%
%LPC*%
G36*
X567689Y408939D02*
X567689Y408939D01*
X567689Y416561D01*
X575311Y416561D01*
X575311Y414891D01*
X569359Y408939D01*
X567689Y408939D01*
G37*
%LPD*%
%LPC*%
G36*
X560941Y408939D02*
X560941Y408939D01*
X554989Y414891D01*
X554989Y416561D01*
X562611Y416561D01*
X562611Y408939D01*
X560941Y408939D01*
G37*
%LPD*%
%LPC*%
G36*
X646589Y673425D02*
X646589Y673425D01*
X646589Y678260D01*
X646762Y678907D01*
X647125Y679535D01*
X647183Y679674D01*
X647245Y679815D01*
X647246Y679822D01*
X647246Y679823D01*
X647377Y679860D01*
X647385Y679864D01*
X647389Y679865D01*
X647399Y679870D01*
X647521Y679931D01*
X648149Y680294D01*
X648796Y680467D01*
X651631Y680467D01*
X651631Y673425D01*
X646589Y673425D01*
G37*
%LPD*%
%LPC*%
G36*
X656629Y673425D02*
X656629Y673425D01*
X656629Y680467D01*
X659464Y680467D01*
X660111Y680294D01*
X660690Y679959D01*
X661163Y679486D01*
X661498Y678907D01*
X661671Y678260D01*
X661671Y673425D01*
X656629Y673425D01*
G37*
%LPD*%
%LPC*%
G36*
X656629Y661385D02*
X656629Y661385D01*
X656629Y668427D01*
X661671Y668427D01*
X661671Y663592D01*
X661498Y662945D01*
X661163Y662366D01*
X660690Y661893D01*
X660111Y661558D01*
X659464Y661385D01*
X656629Y661385D01*
G37*
%LPD*%
%LPC*%
G36*
X648796Y661385D02*
X648796Y661385D01*
X648149Y661558D01*
X647570Y661893D01*
X647097Y662366D01*
X646762Y662945D01*
X646589Y663592D01*
X646589Y668427D01*
X651631Y668427D01*
X651631Y661385D01*
X648796Y661385D01*
G37*
%LPD*%
%LPC*%
G36*
X443541Y562639D02*
X443541Y562639D01*
X443541Y563704D01*
X443714Y564351D01*
X444049Y564930D01*
X444522Y565403D01*
X445101Y565738D01*
X445748Y565911D01*
X454313Y565911D01*
X454313Y562639D01*
X443541Y562639D01*
G37*
%LPD*%
%LPC*%
G36*
X456851Y562639D02*
X456851Y562639D01*
X456851Y565911D01*
X465416Y565911D01*
X466063Y565738D01*
X466642Y565403D01*
X467115Y564930D01*
X467450Y564351D01*
X467623Y563704D01*
X467623Y562639D01*
X456851Y562639D01*
G37*
%LPD*%
%LPC*%
G36*
X456851Y556829D02*
X456851Y556829D01*
X456851Y560101D01*
X467623Y560101D01*
X467623Y559036D01*
X467450Y558389D01*
X467115Y557810D01*
X466642Y557337D01*
X466063Y557002D01*
X465416Y556829D01*
X456851Y556829D01*
G37*
%LPD*%
%LPC*%
G36*
X445748Y556829D02*
X445748Y556829D01*
X445101Y557002D01*
X444522Y557337D01*
X444049Y557810D01*
X443714Y558389D01*
X443541Y559036D01*
X443541Y560101D01*
X454313Y560101D01*
X454313Y556829D01*
X445748Y556829D01*
G37*
%LPD*%
%LPC*%
G36*
X529859Y753069D02*
X529859Y753069D01*
X529859Y757031D01*
X538116Y757031D01*
X538116Y756226D01*
X537926Y755518D01*
X537913Y755493D01*
X537901Y755441D01*
X537880Y755391D01*
X537865Y755287D01*
X537840Y755184D01*
X537841Y755130D01*
X537834Y755077D01*
X537845Y754971D01*
X537847Y754866D01*
X537861Y754814D01*
X537867Y754761D01*
X537904Y754661D01*
X537932Y754559D01*
X537932Y754558D01*
X538116Y753874D01*
X538116Y753069D01*
X529859Y753069D01*
G37*
%LPD*%
%LPC*%
G36*
X519064Y753069D02*
X519064Y753069D01*
X519064Y753874D01*
X519254Y754582D01*
X519267Y754606D01*
X519279Y754659D01*
X519300Y754708D01*
X519315Y754813D01*
X519340Y754916D01*
X519339Y754970D01*
X519346Y755023D01*
X519335Y755128D01*
X519333Y755234D01*
X519319Y755286D01*
X519313Y755339D01*
X519277Y755438D01*
X519248Y755540D01*
X519248Y755542D01*
X519064Y756226D01*
X519064Y757031D01*
X527321Y757031D01*
X527321Y753069D01*
X519064Y753069D01*
G37*
%LPD*%
%LPC*%
G36*
X696799Y535899D02*
X696799Y535899D01*
X696799Y540941D01*
X700134Y540941D01*
X700781Y540768D01*
X701360Y540433D01*
X701833Y539960D01*
X702168Y539381D01*
X702341Y538734D01*
X702341Y535899D01*
X696799Y535899D01*
G37*
%LPD*%
%LPC*%
G36*
X696799Y593049D02*
X696799Y593049D01*
X696799Y598091D01*
X700134Y598091D01*
X700781Y597918D01*
X701360Y597583D01*
X701833Y597110D01*
X702168Y596531D01*
X702341Y595884D01*
X702341Y593049D01*
X696799Y593049D01*
G37*
%LPD*%
%LPC*%
G36*
X643849Y802609D02*
X643849Y802609D01*
X643849Y808151D01*
X648891Y808151D01*
X648891Y804816D01*
X648718Y804169D01*
X648383Y803590D01*
X647910Y803117D01*
X647331Y802782D01*
X646684Y802609D01*
X643849Y802609D01*
G37*
%LPD*%
%LPC*%
G36*
X696799Y583009D02*
X696799Y583009D01*
X696799Y588051D01*
X702341Y588051D01*
X702341Y585216D01*
X702168Y584569D01*
X701833Y583990D01*
X701360Y583517D01*
X700781Y583182D01*
X700134Y583009D01*
X696799Y583009D01*
G37*
%LPD*%
%LPC*%
G36*
X696799Y525859D02*
X696799Y525859D01*
X696799Y530901D01*
X702341Y530901D01*
X702341Y528066D01*
X702168Y527419D01*
X701833Y526840D01*
X701360Y526367D01*
X700781Y526032D01*
X700134Y525859D01*
X696799Y525859D01*
G37*
%LPD*%
%LPC*%
G36*
X636016Y802609D02*
X636016Y802609D01*
X635369Y802782D01*
X634790Y803117D01*
X634317Y803590D01*
X633982Y804169D01*
X633809Y804816D01*
X633809Y808151D01*
X638851Y808151D01*
X638851Y802609D01*
X636016Y802609D01*
G37*
%LPD*%
%LPC*%
G36*
X650199Y495379D02*
X650199Y495379D01*
X650199Y500421D01*
X651732Y500421D01*
X652760Y500145D01*
X653681Y499613D01*
X654433Y498861D01*
X654965Y497940D01*
X655241Y496912D01*
X655241Y495379D01*
X650199Y495379D01*
G37*
%LPD*%
%LPC*%
G36*
X522183Y489029D02*
X522183Y489029D01*
X522183Y494071D01*
X523716Y494071D01*
X524744Y493795D01*
X525665Y493263D01*
X526417Y492511D01*
X526949Y491590D01*
X527225Y490562D01*
X527225Y489029D01*
X522183Y489029D01*
G37*
%LPD*%
%LPC*%
G36*
X640159Y495379D02*
X640159Y495379D01*
X640159Y496912D01*
X640435Y497940D01*
X640967Y498861D01*
X641719Y499613D01*
X642640Y500145D01*
X643668Y500421D01*
X645201Y500421D01*
X645201Y495379D01*
X640159Y495379D01*
G37*
%LPD*%
%LPC*%
G36*
X512143Y489029D02*
X512143Y489029D01*
X512143Y490562D01*
X512419Y491590D01*
X512951Y492511D01*
X513703Y493263D01*
X514624Y493795D01*
X515652Y494071D01*
X517185Y494071D01*
X517185Y489029D01*
X512143Y489029D01*
G37*
%LPD*%
%LPC*%
G36*
X650199Y485339D02*
X650199Y485339D01*
X650199Y490381D01*
X655241Y490381D01*
X655241Y488848D01*
X654965Y487820D01*
X654433Y486899D01*
X653681Y486147D01*
X652760Y485615D01*
X651732Y485339D01*
X650199Y485339D01*
G37*
%LPD*%
%LPC*%
G36*
X522183Y478989D02*
X522183Y478989D01*
X522183Y484031D01*
X527225Y484031D01*
X527225Y482498D01*
X526949Y481470D01*
X526417Y480549D01*
X525665Y479797D01*
X524744Y479265D01*
X523716Y478989D01*
X522183Y478989D01*
G37*
%LPD*%
%LPC*%
G36*
X515652Y478989D02*
X515652Y478989D01*
X514624Y479265D01*
X513703Y479797D01*
X512951Y480549D01*
X512419Y481470D01*
X512143Y482498D01*
X512143Y484031D01*
X517185Y484031D01*
X517185Y478989D01*
X515652Y478989D01*
G37*
%LPD*%
%LPC*%
G36*
X643668Y485339D02*
X643668Y485339D01*
X642640Y485615D01*
X641719Y486147D01*
X640967Y486899D01*
X640435Y487820D01*
X640159Y488848D01*
X640159Y490381D01*
X645201Y490381D01*
X645201Y485339D01*
X643668Y485339D01*
G37*
%LPD*%
%LPC*%
G36*
X565149Y419099D02*
X565149Y419099D01*
X565149Y419101D01*
X565151Y419101D01*
X565151Y419099D01*
X565149Y419099D01*
G37*
%LPD*%
%LPC*%
G36*
X709451Y561593D02*
X709451Y561593D01*
X709451Y561595D01*
X709453Y561595D01*
X709453Y561593D01*
X709451Y561593D01*
G37*
%LPD*%
%LPC*%
G36*
X711199Y798799D02*
X711199Y798799D01*
X711199Y798801D01*
X711201Y798801D01*
X711201Y798799D01*
X711199Y798799D01*
G37*
%LPD*%
D10*
X646684Y579764D03*
X646684Y596764D03*
D11*
X677300Y533400D03*
X694300Y533400D03*
X677300Y590550D03*
X694300Y590550D03*
X639708Y745236D03*
X656708Y745236D03*
D10*
X641350Y827650D03*
X641350Y810650D03*
D12*
X644200Y496380D02*
X651200Y496380D01*
X651200Y489380D01*
X644200Y489380D01*
X644200Y496380D01*
X644200Y492230D02*
X651200Y492230D01*
X651200Y495080D02*
X644200Y495080D01*
X644200Y513920D02*
X651200Y513920D01*
X651200Y506920D01*
X644200Y506920D01*
X644200Y513920D01*
X644200Y509770D02*
X651200Y509770D01*
X651200Y512620D02*
X644200Y512620D01*
X443420Y761548D02*
X443420Y768548D01*
X450420Y768548D01*
X450420Y761548D01*
X443420Y761548D01*
X443420Y764398D02*
X450420Y764398D01*
X450420Y767248D02*
X443420Y767248D01*
X425880Y768548D02*
X425880Y761548D01*
X425880Y768548D02*
X432880Y768548D01*
X432880Y761548D01*
X425880Y761548D01*
X425880Y764398D02*
X432880Y764398D01*
X432880Y767248D02*
X425880Y767248D01*
X443674Y790758D02*
X443674Y797758D01*
X450674Y797758D01*
X450674Y790758D01*
X443674Y790758D01*
X443674Y793608D02*
X450674Y793608D01*
X450674Y796458D02*
X443674Y796458D01*
X426134Y797758D02*
X426134Y790758D01*
X426134Y797758D02*
X433134Y797758D01*
X433134Y790758D01*
X426134Y790758D01*
X426134Y793608D02*
X433134Y793608D01*
X433134Y796458D02*
X426134Y796458D01*
X516184Y490030D02*
X523184Y490030D01*
X523184Y483030D01*
X516184Y483030D01*
X516184Y490030D01*
X516184Y485880D02*
X523184Y485880D01*
X523184Y488730D02*
X516184Y488730D01*
X516184Y507570D02*
X523184Y507570D01*
X523184Y500570D01*
X516184Y500570D01*
X516184Y507570D01*
X516184Y503420D02*
X523184Y503420D01*
X523184Y506270D02*
X516184Y506270D01*
D13*
X528590Y738800D03*
X528590Y745300D03*
X528590Y751800D03*
X528590Y758300D03*
X528590Y764800D03*
X528590Y771300D03*
X528590Y777800D03*
X528590Y790800D03*
X528590Y784300D03*
X528590Y797300D03*
X528590Y803800D03*
X528590Y810300D03*
X528590Y816800D03*
X528590Y823300D03*
X601710Y738800D03*
X601710Y745300D03*
X601710Y751800D03*
X601710Y758300D03*
X601710Y764800D03*
X601710Y771300D03*
X601710Y777800D03*
X601710Y784300D03*
X601710Y790800D03*
X601710Y797300D03*
X601710Y803800D03*
X601710Y810300D03*
X601710Y816800D03*
X601710Y823300D03*
D14*
X566420Y872410D03*
X559920Y872410D03*
X553420Y872410D03*
X572920Y872410D03*
X579420Y872410D03*
D15*
X598288Y899160D03*
D16*
X554920Y899160D03*
X577920Y899160D03*
D15*
X534553Y899160D03*
D11*
X558800Y670950D03*
X558800Y687950D03*
X535432Y687950D03*
X535432Y670950D03*
X513588Y688204D03*
X513588Y671204D03*
X647700Y537600D03*
X647700Y554600D03*
D10*
X477910Y765048D03*
X494910Y765048D03*
X478926Y794258D03*
X495926Y794258D03*
D17*
X615950Y444500D03*
D18*
X590550Y444500D03*
X565150Y444500D03*
X615950Y419100D03*
X590550Y419100D03*
X565150Y419100D03*
D19*
X455582Y549370D03*
X455582Y561370D03*
X455582Y573370D03*
D20*
X654130Y670926D03*
X584130Y670926D03*
D21*
X673100Y806450D03*
D22*
X673049Y829488D03*
D23*
X496824Y612200D03*
X496824Y604200D03*
X496824Y596200D03*
X496824Y588200D03*
X496824Y580200D03*
X496824Y572200D03*
X496824Y564200D03*
X496824Y556200D03*
D24*
X511750Y541274D03*
X519750Y541274D03*
X527750Y541274D03*
X535750Y541274D03*
X543750Y541274D03*
X551750Y541274D03*
X559750Y541274D03*
X567750Y541274D03*
D23*
X582676Y556200D03*
X582676Y564200D03*
X582676Y572200D03*
X582676Y580200D03*
X582676Y588200D03*
X582676Y596200D03*
X582676Y604200D03*
X582676Y612200D03*
D24*
X567750Y627126D03*
X559750Y627126D03*
X551750Y627126D03*
X543750Y627126D03*
X535750Y627126D03*
X527750Y627126D03*
X519750Y627126D03*
X511750Y627126D03*
D25*
X681452Y561594D03*
X709452Y561594D03*
D26*
X711200Y826800D03*
X711200Y798800D03*
D18*
X742950Y635000D03*
X742950Y660400D03*
X742950Y685800D03*
X742950Y711200D03*
X742950Y736600D03*
X742950Y762000D03*
D11*
X685800Y675250D03*
X685800Y658250D03*
X685800Y709050D03*
X685800Y726050D03*
D27*
X558800Y670950D02*
X558800Y659638D01*
X535750Y636588D02*
X535750Y627126D01*
X535750Y636588D02*
X558800Y659638D01*
X558800Y670950D02*
X584106Y670950D01*
X584130Y670926D01*
X656708Y743504D01*
X656708Y745236D01*
X539750Y469900D02*
X565150Y444500D01*
X539750Y469900D02*
X539750Y520700D01*
D28*
X539750Y520700D03*
X539750Y609600D03*
D27*
X535750Y613600D01*
X535750Y627126D01*
D29*
X480730Y573370D02*
X455582Y573370D01*
X489900Y564200D02*
X496824Y564200D01*
X489900Y564200D02*
X480730Y573370D01*
X489994Y549370D02*
X455582Y549370D01*
X489994Y549370D02*
X496824Y556200D01*
D27*
X553420Y858220D02*
X553420Y872410D01*
X553420Y858220D02*
X552450Y857250D01*
D30*
X582676Y580200D02*
X646248Y580200D01*
X646684Y579764D01*
D31*
X646430Y566674D03*
D27*
X643956Y564200D02*
X582676Y564200D01*
X643956Y564200D02*
X646430Y566674D01*
X678673Y564373D02*
X681452Y561594D01*
X678673Y564373D02*
X676372Y566674D01*
X646430Y566674D01*
X677300Y557442D02*
X677300Y533400D01*
X677300Y557442D02*
X681452Y561594D01*
X678673Y589177D02*
X677300Y590550D01*
X678673Y589177D02*
X678673Y564373D01*
D31*
X518922Y580644D03*
D27*
X510478Y572200D01*
X496824Y572200D01*
X511366Y588200D02*
X518922Y580644D01*
X511366Y588200D02*
X496824Y588200D01*
X558800Y687950D02*
X558800Y704850D01*
D31*
X558800Y704850D03*
D28*
X565150Y781050D03*
D27*
X555400Y790800D01*
X528590Y790800D01*
X429634Y794258D02*
X429634Y779914D01*
X429768Y779780D01*
D28*
X429768Y779780D03*
D27*
X429380Y779660D02*
X429380Y765048D01*
X429380Y779660D02*
X429634Y779914D01*
D32*
X673100Y781050D02*
X673100Y806450D01*
D33*
X673100Y781050D03*
D32*
X650350Y758300D01*
X601710Y758300D01*
D27*
X685800Y709050D02*
X685800Y692150D01*
D28*
X685800Y692150D03*
D27*
X685800Y675250D01*
X646100Y556200D02*
X582676Y556200D01*
X646100Y556200D02*
X647700Y554600D01*
X590550Y501650D02*
X590550Y444500D01*
D28*
X590550Y501650D03*
X590550Y533400D03*
D27*
X590550Y548326D01*
X582676Y556200D01*
X567750Y541274D02*
X615950Y493074D01*
X615950Y444500D01*
X590550Y419100D02*
X577850Y431800D01*
X561908Y533662D02*
X561908Y539116D01*
X559750Y541274D01*
X561908Y533662D02*
X577850Y517720D01*
X577850Y431800D01*
X519750Y665042D02*
X513588Y671204D01*
X519750Y665042D02*
X519750Y627126D01*
X573700Y738800D02*
X601710Y738800D01*
X535432Y700532D02*
X535432Y687950D01*
X535432Y700532D02*
X573700Y738800D01*
X590184Y764800D02*
X513588Y688204D01*
X590184Y764800D02*
X601710Y764800D01*
X647700Y537600D02*
X647700Y510420D01*
X566420Y861130D02*
X566420Y872410D01*
X566420Y861130D02*
X528590Y823300D01*
X530302Y818512D02*
X536838Y818512D01*
X530302Y818512D02*
X528590Y816800D01*
X572920Y854595D02*
X572920Y872410D01*
X572920Y854595D02*
X536838Y818512D01*
D30*
X601774Y745236D02*
X639708Y745236D01*
X601774Y745236D02*
X601710Y745300D01*
D27*
X528590Y771300D02*
X501162Y771300D01*
X494910Y765048D01*
X512384Y777800D02*
X528590Y777800D01*
X512384Y777800D02*
X495926Y794258D01*
X477910Y765048D02*
X446920Y765048D01*
X447174Y794258D02*
X478926Y794258D01*
X535432Y670950D02*
X527750Y663268D01*
X527750Y627126D01*
X641350Y827650D02*
X643188Y829488D01*
X673049Y829488D01*
X708512Y829488D02*
X711200Y826800D01*
X708512Y829488D02*
X673049Y829488D01*
D32*
X579420Y849330D02*
X579420Y872410D01*
X579420Y849330D02*
X584200Y844550D01*
X660400Y844550D01*
X673049Y831901D01*
X673049Y829488D01*
D27*
X519750Y541274D02*
X519684Y541208D01*
X519684Y504070D01*
X543750Y627126D02*
X545908Y629284D01*
X545908Y640280D01*
X559678Y654050D01*
X696350Y736600D02*
X742950Y736600D01*
X696350Y736600D02*
X685800Y726050D01*
X613800Y654050D01*
X559678Y654050D01*
X553908Y629284D02*
X551750Y627126D01*
X553908Y629284D02*
X553908Y634739D01*
X560520Y641350D01*
X673100Y641350D02*
X742950Y711200D01*
X673100Y641350D02*
X560520Y641350D01*
X567750Y627126D02*
X684276Y627126D01*
X742950Y685800D01*
X624900Y612200D02*
X582676Y612200D01*
X624900Y612200D02*
X628650Y615950D01*
X698500Y615950D01*
X742950Y660400D01*
X629600Y604200D02*
X582676Y604200D01*
X629600Y604200D02*
X635000Y609600D01*
X717550Y609600D01*
X742950Y635000D01*
X554950Y810300D02*
X528590Y810300D01*
X554950Y810300D02*
X558800Y806450D01*
D28*
X558800Y806450D03*
M02*
