G04 EAGLE Gerber RS-274X export*
G75*
%MOMM*%
%FSLAX34Y34*%
%LPD*%
%INBottom Copper*%
%IPPOS*%
%AMOC8*
5,1,8,0,0,1.08239X$1,22.5*%
G01*
%ADD10C,1.524000*%
%ADD11P,1.649562X8X202.500000*%
%ADD12C,0.756400*%
%ADD13C,0.304800*%
%ADD14C,0.806400*%
%ADD15C,0.856400*%

G36*
X794938Y397526D02*
X794938Y397526D01*
X795057Y397533D01*
X795095Y397546D01*
X795136Y397551D01*
X795246Y397594D01*
X795359Y397631D01*
X795394Y397653D01*
X795431Y397668D01*
X795527Y397737D01*
X795628Y397801D01*
X795656Y397831D01*
X795689Y397854D01*
X795765Y397946D01*
X795846Y398033D01*
X795866Y398068D01*
X795891Y398099D01*
X795942Y398207D01*
X796000Y398311D01*
X796010Y398351D01*
X796027Y398387D01*
X796049Y398504D01*
X796079Y398619D01*
X796083Y398679D01*
X796087Y398699D01*
X796085Y398720D01*
X796089Y398780D01*
X796089Y906020D01*
X796074Y906138D01*
X796067Y906257D01*
X796054Y906295D01*
X796049Y906336D01*
X796006Y906446D01*
X795969Y906559D01*
X795947Y906594D01*
X795932Y906631D01*
X795863Y906727D01*
X795799Y906828D01*
X795769Y906856D01*
X795746Y906889D01*
X795654Y906965D01*
X795567Y907046D01*
X795532Y907066D01*
X795501Y907091D01*
X795393Y907142D01*
X795289Y907200D01*
X795249Y907210D01*
X795213Y907227D01*
X795096Y907249D01*
X794981Y907279D01*
X794921Y907283D01*
X794901Y907287D01*
X794880Y907285D01*
X794820Y907289D01*
X620406Y907289D01*
X620357Y907283D01*
X620307Y907285D01*
X620200Y907263D01*
X620091Y907249D01*
X620044Y907231D01*
X619996Y907221D01*
X619897Y907173D01*
X619795Y907132D01*
X619755Y907103D01*
X619710Y907081D01*
X619626Y907010D01*
X619538Y906946D01*
X619506Y906907D01*
X619468Y906875D01*
X619405Y906785D01*
X619335Y906701D01*
X619314Y906656D01*
X619285Y906615D01*
X619246Y906512D01*
X619199Y906413D01*
X619190Y906364D01*
X619172Y906318D01*
X619160Y906208D01*
X619139Y906101D01*
X619143Y906051D01*
X619137Y906002D01*
X619152Y905893D01*
X619159Y905783D01*
X619175Y905736D01*
X619181Y905687D01*
X619234Y905534D01*
X620831Y901678D01*
X620831Y896642D01*
X618903Y891988D01*
X615342Y888427D01*
X610688Y886499D01*
X605652Y886499D01*
X600998Y888427D01*
X597437Y891988D01*
X595509Y896642D01*
X595509Y901678D01*
X597106Y905534D01*
X597120Y905582D01*
X597141Y905627D01*
X597161Y905735D01*
X597190Y905841D01*
X597191Y905891D01*
X597201Y905940D01*
X597194Y906049D01*
X597195Y906159D01*
X597184Y906207D01*
X597181Y906257D01*
X597147Y906361D01*
X597121Y906468D01*
X597098Y906512D01*
X597083Y906559D01*
X597024Y906652D01*
X596973Y906749D01*
X596939Y906786D01*
X596913Y906828D01*
X596833Y906903D01*
X596759Y906985D01*
X596717Y907012D01*
X596681Y907046D01*
X596585Y907099D01*
X596493Y907159D01*
X596446Y907176D01*
X596402Y907200D01*
X596296Y907227D01*
X596192Y907263D01*
X596143Y907267D01*
X596095Y907279D01*
X595934Y907289D01*
X536906Y907289D01*
X536857Y907283D01*
X536807Y907285D01*
X536700Y907263D01*
X536591Y907249D01*
X536544Y907231D01*
X536496Y907221D01*
X536397Y907173D01*
X536295Y907132D01*
X536255Y907103D01*
X536210Y907081D01*
X536126Y907010D01*
X536038Y906946D01*
X536006Y906907D01*
X535968Y906875D01*
X535905Y906785D01*
X535835Y906701D01*
X535814Y906656D01*
X535785Y906615D01*
X535746Y906512D01*
X535699Y906413D01*
X535690Y906364D01*
X535672Y906318D01*
X535660Y906208D01*
X535639Y906101D01*
X535643Y906051D01*
X535637Y906002D01*
X535652Y905893D01*
X535659Y905783D01*
X535675Y905736D01*
X535681Y905687D01*
X535734Y905534D01*
X537331Y901678D01*
X537331Y896642D01*
X535403Y891988D01*
X531842Y888427D01*
X527188Y886499D01*
X522152Y886499D01*
X517498Y888427D01*
X513937Y891988D01*
X512009Y896642D01*
X512009Y901678D01*
X513606Y905534D01*
X513620Y905582D01*
X513641Y905627D01*
X513661Y905735D01*
X513690Y905841D01*
X513691Y905891D01*
X513701Y905940D01*
X513694Y906049D01*
X513695Y906159D01*
X513684Y906207D01*
X513681Y906257D01*
X513647Y906361D01*
X513621Y906468D01*
X513598Y906512D01*
X513583Y906559D01*
X513524Y906652D01*
X513473Y906749D01*
X513439Y906786D01*
X513413Y906828D01*
X513333Y906903D01*
X513259Y906985D01*
X513217Y907012D01*
X513181Y907046D01*
X513085Y907099D01*
X512993Y907159D01*
X512946Y907176D01*
X512902Y907200D01*
X512796Y907227D01*
X512692Y907263D01*
X512643Y907267D01*
X512595Y907279D01*
X512434Y907289D01*
X424180Y907289D01*
X424062Y907274D01*
X423943Y907267D01*
X423905Y907254D01*
X423864Y907249D01*
X423754Y907206D01*
X423641Y907169D01*
X423606Y907147D01*
X423569Y907132D01*
X423473Y907063D01*
X423372Y906999D01*
X423344Y906969D01*
X423311Y906946D01*
X423235Y906854D01*
X423154Y906767D01*
X423134Y906732D01*
X423109Y906701D01*
X423058Y906593D01*
X423000Y906489D01*
X422990Y906449D01*
X422973Y906413D01*
X422951Y906296D01*
X422921Y906181D01*
X422917Y906121D01*
X422913Y906101D01*
X422915Y906080D01*
X422911Y906020D01*
X422911Y398780D01*
X422926Y398662D01*
X422933Y398543D01*
X422946Y398505D01*
X422951Y398464D01*
X422994Y398354D01*
X423031Y398241D01*
X423053Y398206D01*
X423068Y398169D01*
X423137Y398073D01*
X423201Y397972D01*
X423231Y397944D01*
X423254Y397911D01*
X423346Y397835D01*
X423433Y397754D01*
X423468Y397734D01*
X423499Y397709D01*
X423607Y397658D01*
X423711Y397600D01*
X423751Y397590D01*
X423787Y397573D01*
X423904Y397551D01*
X424019Y397521D01*
X424079Y397517D01*
X424099Y397513D01*
X424120Y397515D01*
X424180Y397511D01*
X794820Y397511D01*
X794938Y397526D01*
G37*
%LPC*%
G36*
X739162Y752855D02*
X739162Y752855D01*
X733438Y758580D01*
X733360Y758640D01*
X733288Y758708D01*
X733235Y758737D01*
X733187Y758774D01*
X733096Y758814D01*
X733009Y758862D01*
X732950Y758877D01*
X732895Y758901D01*
X732797Y758916D01*
X732701Y758941D01*
X732601Y758947D01*
X732581Y758951D01*
X732568Y758949D01*
X732540Y758951D01*
X646437Y758951D01*
X615059Y790330D01*
X614981Y790390D01*
X614909Y790458D01*
X614856Y790487D01*
X614808Y790524D01*
X614717Y790564D01*
X614630Y790612D01*
X614571Y790627D01*
X614516Y790651D01*
X614418Y790666D01*
X614322Y790691D01*
X614222Y790697D01*
X614202Y790701D01*
X614189Y790699D01*
X614161Y790701D01*
X570237Y790701D01*
X560167Y800772D01*
X560089Y800832D01*
X560017Y800900D01*
X559964Y800929D01*
X559916Y800966D01*
X559825Y801006D01*
X559738Y801054D01*
X559679Y801069D01*
X559624Y801093D01*
X559526Y801108D01*
X559430Y801133D01*
X559330Y801139D01*
X559310Y801143D01*
X559297Y801141D01*
X559269Y801143D01*
X557744Y801143D01*
X555794Y801951D01*
X554301Y803444D01*
X553493Y805394D01*
X553493Y807506D01*
X554301Y809456D01*
X555794Y810949D01*
X557744Y811757D01*
X559856Y811757D01*
X561806Y810949D01*
X563299Y809456D01*
X564107Y807506D01*
X564107Y805981D01*
X564119Y805882D01*
X564122Y805783D01*
X564139Y805725D01*
X564147Y805665D01*
X564183Y805573D01*
X564211Y805478D01*
X564241Y805426D01*
X564264Y805369D01*
X564322Y805289D01*
X564372Y805204D01*
X564438Y805129D01*
X564450Y805112D01*
X564460Y805104D01*
X564478Y805083D01*
X572391Y797170D01*
X572469Y797110D01*
X572541Y797042D01*
X572594Y797013D01*
X572642Y796976D01*
X572733Y796936D01*
X572820Y796888D01*
X572879Y796873D01*
X572934Y796849D01*
X573032Y796834D01*
X573128Y796809D01*
X573228Y796803D01*
X573248Y796799D01*
X573261Y796801D01*
X573289Y796799D01*
X617213Y796799D01*
X648591Y765420D01*
X648669Y765360D01*
X648741Y765292D01*
X648794Y765263D01*
X648842Y765226D01*
X648933Y765186D01*
X649020Y765138D01*
X649079Y765123D01*
X649134Y765099D01*
X649232Y765084D01*
X649328Y765059D01*
X649428Y765053D01*
X649448Y765049D01*
X649461Y765051D01*
X649489Y765049D01*
X732540Y765049D01*
X732639Y765061D01*
X732738Y765064D01*
X732796Y765081D01*
X732856Y765089D01*
X732948Y765125D01*
X733043Y765153D01*
X733095Y765183D01*
X733152Y765206D01*
X733232Y765264D01*
X733317Y765314D01*
X733392Y765380D01*
X733409Y765392D01*
X733417Y765402D01*
X733438Y765420D01*
X739162Y771145D01*
X746738Y771145D01*
X752095Y765788D01*
X752095Y758212D01*
X746738Y752855D01*
X739162Y752855D01*
G37*
%LPD*%
%LPC*%
G36*
X538694Y515393D02*
X538694Y515393D01*
X536744Y516201D01*
X535251Y517694D01*
X534443Y519644D01*
X534443Y521756D01*
X535251Y523706D01*
X536330Y524784D01*
X536390Y524863D01*
X536458Y524935D01*
X536487Y524988D01*
X536524Y525036D01*
X536564Y525127D01*
X536612Y525213D01*
X536627Y525272D01*
X536651Y525328D01*
X536666Y525425D01*
X536691Y525521D01*
X536697Y525616D01*
X536699Y525624D01*
X536698Y525628D01*
X536701Y525642D01*
X536699Y525654D01*
X536701Y525682D01*
X536701Y604618D01*
X536689Y604716D01*
X536686Y604815D01*
X536669Y604874D01*
X536661Y604934D01*
X536625Y605026D01*
X536597Y605121D01*
X536567Y605173D01*
X536544Y605229D01*
X536486Y605309D01*
X536436Y605395D01*
X536370Y605470D01*
X536358Y605487D01*
X536348Y605494D01*
X536330Y605516D01*
X535251Y606594D01*
X534443Y608544D01*
X534443Y610656D01*
X535251Y612606D01*
X536744Y614099D01*
X538694Y614907D01*
X540806Y614907D01*
X542756Y614099D01*
X544249Y612606D01*
X545057Y610656D01*
X545057Y608544D01*
X544249Y606594D01*
X543170Y605516D01*
X543110Y605437D01*
X543042Y605365D01*
X543013Y605312D01*
X542976Y605264D01*
X542936Y605173D01*
X542888Y605087D01*
X542873Y605028D01*
X542849Y604972D01*
X542834Y604875D01*
X542809Y604779D01*
X542803Y604679D01*
X542799Y604658D01*
X542801Y604646D01*
X542799Y604618D01*
X542799Y525682D01*
X542811Y525584D01*
X542814Y525485D01*
X542831Y525426D01*
X542839Y525366D01*
X542875Y525274D01*
X542903Y525179D01*
X542933Y525127D01*
X542956Y525071D01*
X543014Y524991D01*
X543064Y524905D01*
X543130Y524830D01*
X543142Y524813D01*
X543152Y524806D01*
X543170Y524784D01*
X544249Y523706D01*
X545057Y521756D01*
X545057Y519644D01*
X544249Y517694D01*
X542756Y516201D01*
X540806Y515393D01*
X538694Y515393D01*
G37*
%LPD*%
%LPC*%
G36*
X586152Y856499D02*
X586152Y856499D01*
X581498Y858427D01*
X577937Y861988D01*
X576009Y866642D01*
X576009Y871678D01*
X577937Y876332D01*
X581498Y879893D01*
X586152Y881821D01*
X591188Y881821D01*
X595842Y879893D01*
X599403Y876332D01*
X601331Y871678D01*
X601331Y866642D01*
X599403Y861988D01*
X595842Y858427D01*
X591188Y856499D01*
X586152Y856499D01*
G37*
%LPD*%
%LPC*%
G36*
X541652Y856499D02*
X541652Y856499D01*
X536998Y858427D01*
X533437Y861988D01*
X531509Y866642D01*
X531509Y871678D01*
X533437Y876332D01*
X536998Y879893D01*
X541652Y881821D01*
X546688Y881821D01*
X551342Y879893D01*
X554903Y876332D01*
X556831Y871678D01*
X556831Y866642D01*
X554903Y861988D01*
X551342Y858427D01*
X546688Y856499D01*
X541652Y856499D01*
G37*
%LPD*%
%LPC*%
G36*
X589494Y496343D02*
X589494Y496343D01*
X587544Y497151D01*
X586051Y498644D01*
X585243Y500594D01*
X585243Y502706D01*
X586051Y504656D01*
X587130Y505734D01*
X587190Y505813D01*
X587258Y505885D01*
X587287Y505938D01*
X587324Y505986D01*
X587364Y506077D01*
X587412Y506163D01*
X587427Y506222D01*
X587451Y506278D01*
X587466Y506375D01*
X587491Y506471D01*
X587497Y506571D01*
X587501Y506592D01*
X587499Y506604D01*
X587501Y506632D01*
X587501Y528418D01*
X587489Y528516D01*
X587486Y528615D01*
X587469Y528674D01*
X587461Y528734D01*
X587425Y528826D01*
X587397Y528921D01*
X587367Y528973D01*
X587344Y529029D01*
X587286Y529109D01*
X587236Y529195D01*
X587170Y529270D01*
X587158Y529287D01*
X587148Y529294D01*
X587130Y529316D01*
X586051Y530394D01*
X585243Y532344D01*
X585243Y534456D01*
X586051Y536406D01*
X587544Y537899D01*
X589494Y538707D01*
X591606Y538707D01*
X593556Y537899D01*
X595049Y536406D01*
X595857Y534456D01*
X595857Y532344D01*
X595049Y530394D01*
X593970Y529316D01*
X593910Y529237D01*
X593842Y529165D01*
X593813Y529112D01*
X593776Y529064D01*
X593736Y528973D01*
X593688Y528887D01*
X593673Y528828D01*
X593649Y528772D01*
X593634Y528675D01*
X593609Y528579D01*
X593603Y528479D01*
X593599Y528458D01*
X593601Y528446D01*
X593599Y528418D01*
X593599Y506632D01*
X593611Y506534D01*
X593614Y506435D01*
X593631Y506376D01*
X593639Y506316D01*
X593675Y506224D01*
X593703Y506129D01*
X593733Y506077D01*
X593756Y506021D01*
X593814Y505941D01*
X593864Y505855D01*
X593930Y505780D01*
X593942Y505763D01*
X593952Y505756D01*
X593970Y505734D01*
X595049Y504656D01*
X595857Y502706D01*
X595857Y500594D01*
X595049Y498644D01*
X593556Y497151D01*
X591606Y496343D01*
X589494Y496343D01*
G37*
%LPD*%
%LPC*%
G36*
X739162Y727455D02*
X739162Y727455D01*
X733805Y732812D01*
X733805Y740388D01*
X739162Y745745D01*
X746738Y745745D01*
X752095Y740388D01*
X752095Y732812D01*
X746738Y727455D01*
X739162Y727455D01*
G37*
%LPD*%
%LPC*%
G36*
X739162Y702055D02*
X739162Y702055D01*
X733805Y707412D01*
X733805Y714988D01*
X739162Y720345D01*
X746738Y720345D01*
X752095Y714988D01*
X752095Y707412D01*
X746738Y702055D01*
X739162Y702055D01*
G37*
%LPD*%
%LPC*%
G36*
X739162Y676655D02*
X739162Y676655D01*
X733805Y682012D01*
X733805Y689588D01*
X739162Y694945D01*
X746738Y694945D01*
X752095Y689588D01*
X752095Y682012D01*
X746738Y676655D01*
X739162Y676655D01*
G37*
%LPD*%
%LPC*%
G36*
X739162Y651255D02*
X739162Y651255D01*
X733805Y656612D01*
X733805Y664188D01*
X739162Y669545D01*
X746738Y669545D01*
X752095Y664188D01*
X752095Y656612D01*
X746738Y651255D01*
X739162Y651255D01*
G37*
%LPD*%
%LPC*%
G36*
X739162Y625855D02*
X739162Y625855D01*
X733805Y631212D01*
X733805Y638788D01*
X739162Y644145D01*
X746738Y644145D01*
X752095Y638788D01*
X752095Y631212D01*
X746738Y625855D01*
X739162Y625855D01*
G37*
%LPD*%
%LPC*%
G36*
X586762Y435355D02*
X586762Y435355D01*
X581405Y440712D01*
X581405Y448288D01*
X586762Y453645D01*
X594338Y453645D01*
X599695Y448288D01*
X599695Y440712D01*
X594338Y435355D01*
X586762Y435355D01*
G37*
%LPD*%
%LPC*%
G36*
X561362Y435355D02*
X561362Y435355D01*
X556005Y440712D01*
X556005Y448288D01*
X561362Y453645D01*
X568938Y453645D01*
X574295Y448288D01*
X574295Y440712D01*
X568938Y435355D01*
X561362Y435355D01*
G37*
%LPD*%
%LPC*%
G36*
X586762Y409955D02*
X586762Y409955D01*
X581405Y415312D01*
X581405Y422888D01*
X586762Y428245D01*
X594338Y428245D01*
X599695Y422888D01*
X599695Y415312D01*
X594338Y409955D01*
X586762Y409955D01*
G37*
%LPD*%
%LPC*%
G36*
X561362Y409955D02*
X561362Y409955D01*
X556005Y415312D01*
X556005Y422888D01*
X561362Y428245D01*
X568938Y428245D01*
X574295Y422888D01*
X574295Y415312D01*
X568938Y409955D01*
X561362Y409955D01*
G37*
%LPD*%
%LPC*%
G36*
X614131Y435355D02*
X614131Y435355D01*
X610770Y436747D01*
X608197Y439320D01*
X606805Y442681D01*
X606805Y446319D01*
X608197Y449680D01*
X610770Y452253D01*
X614131Y453645D01*
X617769Y453645D01*
X621130Y452253D01*
X623703Y449680D01*
X625095Y446319D01*
X625095Y442681D01*
X623703Y439320D01*
X621130Y436747D01*
X617769Y435355D01*
X614131Y435355D01*
G37*
%LPD*%
%LPC*%
G36*
X618489Y421639D02*
X618489Y421639D01*
X618489Y429261D01*
X620159Y429261D01*
X626111Y423309D01*
X626111Y421639D01*
X618489Y421639D01*
G37*
%LPD*%
%LPC*%
G36*
X605789Y421639D02*
X605789Y421639D01*
X605789Y423309D01*
X611741Y429261D01*
X613411Y429261D01*
X613411Y421639D01*
X605789Y421639D01*
G37*
%LPD*%
%LPC*%
G36*
X618489Y408939D02*
X618489Y408939D01*
X618489Y416561D01*
X626111Y416561D01*
X626111Y414891D01*
X620159Y408939D01*
X618489Y408939D01*
G37*
%LPD*%
%LPC*%
G36*
X611741Y408939D02*
X611741Y408939D01*
X605789Y414891D01*
X605789Y416561D01*
X613411Y416561D01*
X613411Y408939D01*
X611741Y408939D01*
G37*
%LPD*%
%LPC*%
G36*
X615949Y419099D02*
X615949Y419099D01*
X615949Y419101D01*
X615951Y419101D01*
X615951Y419099D01*
X615949Y419099D01*
G37*
%LPD*%
D10*
X615950Y444500D03*
D11*
X590550Y444500D03*
X565150Y444500D03*
X615950Y419100D03*
X590550Y419100D03*
X565150Y419100D03*
X742950Y635000D03*
X742950Y660400D03*
X742950Y685800D03*
X742950Y711200D03*
X742950Y736600D03*
X742950Y762000D03*
D12*
X539750Y520700D03*
D13*
X539750Y609600D01*
D12*
X539750Y609600D03*
D14*
X646430Y566674D03*
X518922Y580644D03*
X558800Y704850D03*
D12*
X565150Y781050D03*
X429768Y779780D03*
D15*
X673100Y781050D03*
D12*
X685800Y692150D03*
X590550Y501650D03*
D13*
X590550Y533400D01*
D12*
X590550Y533400D03*
X558800Y806450D03*
D13*
X571500Y793750D01*
X615950Y793750D01*
X647700Y762000D01*
X742950Y762000D01*
M02*
