G04 EAGLE Gerber RS-274X export*
G75*
%MOMM*%
%FSLAX34Y34*%
%LPD*%
%IN*%
%IPPOS*%
%AMOC8*
5,1,8,0,0,1.08239X$1,22.5*%
G01*
%ADD10C,0.254000*%


D10*
X412750Y387350D02*
X806250Y387350D01*
X806250Y917450D01*
X412750Y917450D01*
X412750Y387350D01*
X521670Y895660D02*
X521681Y895399D01*
X521716Y895139D01*
X521772Y894884D01*
X521851Y894634D01*
X521951Y894392D01*
X522072Y894160D01*
X522213Y893939D01*
X522372Y893732D01*
X522549Y893539D01*
X522742Y893362D01*
X522949Y893203D01*
X523170Y893062D01*
X523402Y892941D01*
X523644Y892841D01*
X523894Y892762D01*
X524149Y892706D01*
X524409Y892671D01*
X524670Y892660D01*
X524931Y892671D01*
X525191Y892706D01*
X525446Y892762D01*
X525696Y892841D01*
X525938Y892941D01*
X526170Y893062D01*
X526391Y893203D01*
X526598Y893362D01*
X526791Y893539D01*
X526968Y893732D01*
X527127Y893939D01*
X527268Y894160D01*
X527389Y894392D01*
X527489Y894634D01*
X527568Y894884D01*
X527624Y895139D01*
X527659Y895399D01*
X527670Y895660D01*
X527670Y902660D01*
X527659Y902921D01*
X527624Y903181D01*
X527568Y903436D01*
X527489Y903686D01*
X527389Y903928D01*
X527268Y904160D01*
X527127Y904381D01*
X526968Y904588D01*
X526791Y904781D01*
X526598Y904958D01*
X526391Y905117D01*
X526170Y905258D01*
X525938Y905379D01*
X525696Y905479D01*
X525446Y905558D01*
X525191Y905614D01*
X524931Y905649D01*
X524670Y905660D01*
X524409Y905649D01*
X524149Y905614D01*
X523894Y905558D01*
X523644Y905479D01*
X523402Y905379D01*
X523170Y905258D01*
X522949Y905117D01*
X522742Y904958D01*
X522549Y904781D01*
X522372Y904588D01*
X522213Y904381D01*
X522072Y904160D01*
X521951Y903928D01*
X521851Y903686D01*
X521772Y903436D01*
X521716Y903181D01*
X521681Y902921D01*
X521670Y902660D01*
X521670Y895660D01*
X605170Y895660D02*
X605181Y895399D01*
X605216Y895139D01*
X605272Y894884D01*
X605351Y894634D01*
X605451Y894392D01*
X605572Y894160D01*
X605713Y893939D01*
X605872Y893732D01*
X606049Y893539D01*
X606242Y893362D01*
X606449Y893203D01*
X606670Y893062D01*
X606902Y892941D01*
X607144Y892841D01*
X607394Y892762D01*
X607649Y892706D01*
X607909Y892671D01*
X608170Y892660D01*
X608431Y892671D01*
X608691Y892706D01*
X608946Y892762D01*
X609196Y892841D01*
X609438Y892941D01*
X609670Y893062D01*
X609891Y893203D01*
X610098Y893362D01*
X610291Y893539D01*
X610468Y893732D01*
X610627Y893939D01*
X610768Y894160D01*
X610889Y894392D01*
X610989Y894634D01*
X611068Y894884D01*
X611124Y895139D01*
X611159Y895399D01*
X611170Y895660D01*
X611170Y902660D01*
X611159Y902921D01*
X611124Y903181D01*
X611068Y903436D01*
X610989Y903686D01*
X610889Y903928D01*
X610768Y904160D01*
X610627Y904381D01*
X610468Y904588D01*
X610291Y904781D01*
X610098Y904958D01*
X609891Y905117D01*
X609670Y905258D01*
X609438Y905379D01*
X609196Y905479D01*
X608946Y905558D01*
X608691Y905614D01*
X608431Y905649D01*
X608170Y905660D01*
X607909Y905649D01*
X607649Y905614D01*
X607394Y905558D01*
X607144Y905479D01*
X606902Y905379D01*
X606670Y905258D01*
X606449Y905117D01*
X606242Y904958D01*
X606049Y904781D01*
X605872Y904588D01*
X605713Y904381D01*
X605572Y904160D01*
X605451Y903928D01*
X605351Y903686D01*
X605272Y903436D01*
X605216Y903181D01*
X605181Y902921D01*
X605170Y902660D01*
X605170Y895660D01*
X540920Y868160D02*
X540932Y867877D01*
X540969Y867596D01*
X541031Y867319D01*
X541116Y867048D01*
X541225Y866787D01*
X541355Y866535D01*
X541508Y866296D01*
X541680Y866071D01*
X541872Y865862D01*
X542081Y865670D01*
X542306Y865498D01*
X542545Y865345D01*
X542797Y865215D01*
X543058Y865106D01*
X543329Y865021D01*
X543606Y864959D01*
X543887Y864922D01*
X544170Y864910D01*
X544453Y864922D01*
X544734Y864959D01*
X545011Y865021D01*
X545282Y865106D01*
X545544Y865215D01*
X545795Y865345D01*
X546034Y865498D01*
X546259Y865670D01*
X546468Y865862D01*
X546660Y866071D01*
X546832Y866296D01*
X546985Y866535D01*
X547116Y866787D01*
X547224Y867048D01*
X547309Y867319D01*
X547371Y867596D01*
X547408Y867877D01*
X547420Y868160D01*
X547420Y870160D01*
X547408Y870443D01*
X547371Y870724D01*
X547309Y871001D01*
X547224Y871272D01*
X547116Y871534D01*
X546985Y871785D01*
X546832Y872024D01*
X546660Y872249D01*
X546468Y872458D01*
X546259Y872650D01*
X546034Y872822D01*
X545795Y872975D01*
X545544Y873106D01*
X545282Y873214D01*
X545011Y873299D01*
X544734Y873361D01*
X544453Y873398D01*
X544170Y873410D01*
X543887Y873398D01*
X543606Y873361D01*
X543329Y873299D01*
X543058Y873214D01*
X542797Y873106D01*
X542545Y872975D01*
X542306Y872822D01*
X542081Y872650D01*
X541872Y872458D01*
X541680Y872249D01*
X541508Y872024D01*
X541355Y871785D01*
X541225Y871534D01*
X541116Y871272D01*
X541031Y871001D01*
X540969Y870724D01*
X540932Y870443D01*
X540920Y870160D01*
X540920Y868160D01*
X585420Y868160D02*
X585432Y867877D01*
X585469Y867596D01*
X585531Y867319D01*
X585616Y867048D01*
X585725Y866787D01*
X585855Y866535D01*
X586008Y866296D01*
X586180Y866071D01*
X586372Y865862D01*
X586581Y865670D01*
X586806Y865498D01*
X587045Y865345D01*
X587297Y865215D01*
X587558Y865106D01*
X587829Y865021D01*
X588106Y864959D01*
X588387Y864922D01*
X588670Y864910D01*
X588953Y864922D01*
X589234Y864959D01*
X589511Y865021D01*
X589782Y865106D01*
X590044Y865215D01*
X590295Y865345D01*
X590534Y865498D01*
X590759Y865670D01*
X590968Y865862D01*
X591160Y866071D01*
X591332Y866296D01*
X591485Y866535D01*
X591616Y866787D01*
X591724Y867048D01*
X591809Y867319D01*
X591871Y867596D01*
X591908Y867877D01*
X591920Y868160D01*
X591920Y870160D01*
X591908Y870443D01*
X591871Y870724D01*
X591809Y871001D01*
X591724Y871272D01*
X591616Y871534D01*
X591485Y871785D01*
X591332Y872024D01*
X591160Y872249D01*
X590968Y872458D01*
X590759Y872650D01*
X590534Y872822D01*
X590295Y872975D01*
X590044Y873106D01*
X589782Y873214D01*
X589511Y873299D01*
X589234Y873361D01*
X588953Y873398D01*
X588670Y873410D01*
X588387Y873398D01*
X588106Y873361D01*
X587829Y873299D01*
X587558Y873214D01*
X587297Y873106D01*
X587045Y872975D01*
X586806Y872822D01*
X586581Y872650D01*
X586372Y872458D01*
X586180Y872249D01*
X586008Y872024D01*
X585855Y871785D01*
X585725Y871534D01*
X585616Y871272D01*
X585531Y871001D01*
X585469Y870724D01*
X585432Y870443D01*
X585420Y870160D01*
X585420Y868160D01*
X586170Y869357D02*
X586232Y869745D01*
X586353Y870120D01*
X586532Y870470D01*
X586763Y870789D01*
X587041Y871067D01*
X587360Y871298D01*
X587710Y871477D01*
X588085Y871598D01*
X588473Y871660D01*
X588867Y871660D01*
X589255Y871598D01*
X589630Y871477D01*
X589980Y871298D01*
X590299Y871067D01*
X590577Y870789D01*
X590808Y870470D01*
X590987Y870120D01*
X591108Y869745D01*
X591170Y869357D01*
X591170Y868963D01*
X591108Y868575D01*
X590987Y868200D01*
X590808Y867850D01*
X590577Y867531D01*
X590299Y867253D01*
X589980Y867022D01*
X589630Y866843D01*
X589255Y866722D01*
X588867Y866660D01*
X588473Y866660D01*
X588085Y866722D01*
X587710Y866843D01*
X587360Y867022D01*
X587041Y867253D01*
X586763Y867531D01*
X586532Y867850D01*
X586353Y868200D01*
X586232Y868575D01*
X586170Y868963D01*
X586170Y869357D01*
X541670Y869357D02*
X541732Y869745D01*
X541853Y870120D01*
X542032Y870470D01*
X542263Y870789D01*
X542541Y871067D01*
X542860Y871298D01*
X543210Y871477D01*
X543585Y871598D01*
X543973Y871660D01*
X544367Y871660D01*
X544755Y871598D01*
X545130Y871477D01*
X545480Y871298D01*
X545799Y871067D01*
X546077Y870789D01*
X546308Y870470D01*
X546487Y870120D01*
X546608Y869745D01*
X546670Y869357D01*
X546670Y868963D01*
X546608Y868575D01*
X546487Y868200D01*
X546308Y867850D01*
X546077Y867531D01*
X545799Y867253D01*
X545480Y867022D01*
X545130Y866843D01*
X544755Y866722D01*
X544367Y866660D01*
X543973Y866660D01*
X543585Y866722D01*
X543210Y866843D01*
X542860Y867022D01*
X542541Y867253D01*
X542263Y867531D01*
X542032Y867850D01*
X541853Y868200D01*
X541732Y868575D01*
X541670Y868963D01*
X541670Y869357D01*
X605670Y899357D02*
X605732Y899745D01*
X605853Y900120D01*
X606032Y900470D01*
X606263Y900789D01*
X606541Y901067D01*
X606860Y901298D01*
X607210Y901477D01*
X607585Y901598D01*
X607973Y901660D01*
X608367Y901660D01*
X608755Y901598D01*
X609130Y901477D01*
X609480Y901298D01*
X609799Y901067D01*
X610077Y900789D01*
X610308Y900470D01*
X610487Y900120D01*
X610608Y899745D01*
X610670Y899357D01*
X610670Y898963D01*
X610608Y898575D01*
X610487Y898200D01*
X610308Y897850D01*
X610077Y897531D01*
X609799Y897253D01*
X609480Y897022D01*
X609130Y896843D01*
X608755Y896722D01*
X608367Y896660D01*
X607973Y896660D01*
X607585Y896722D01*
X607210Y896843D01*
X606860Y897022D01*
X606541Y897253D01*
X606263Y897531D01*
X606032Y897850D01*
X605853Y898200D01*
X605732Y898575D01*
X605670Y898963D01*
X605670Y899357D01*
X522170Y899357D02*
X522232Y899745D01*
X522353Y900120D01*
X522532Y900470D01*
X522763Y900789D01*
X523041Y901067D01*
X523360Y901298D01*
X523710Y901477D01*
X524085Y901598D01*
X524473Y901660D01*
X524867Y901660D01*
X525255Y901598D01*
X525630Y901477D01*
X525980Y901298D01*
X526299Y901067D01*
X526577Y900789D01*
X526808Y900470D01*
X526987Y900120D01*
X527108Y899745D01*
X527170Y899357D01*
X527170Y898963D01*
X527108Y898575D01*
X526987Y898200D01*
X526808Y897850D01*
X526577Y897531D01*
X526299Y897253D01*
X525980Y897022D01*
X525630Y896843D01*
X525255Y896722D01*
X524867Y896660D01*
X524473Y896660D01*
X524085Y896722D01*
X523710Y896843D01*
X523360Y897022D01*
X523041Y897253D01*
X522763Y897531D01*
X522532Y897850D01*
X522353Y898200D01*
X522232Y898575D01*
X522170Y898963D01*
X522170Y899357D01*
M02*
