G04 EAGLE Gerber RS-274X export*
G75*
%MOMM*%
%FSLAX34Y34*%
%LPD*%
%INSilkscreen Top*%
%IPPOS*%
%AMOC8*
5,1,8,0,0,1.08239X$1,22.5*%
G01*
%ADD10C,0.101600*%
%ADD11C,0.050800*%
%ADD12C,0.203200*%
%ADD13C,0.127000*%
%ADD14C,0.152400*%
%ADD15C,0.254000*%
%ADD16C,0.025400*%
%ADD17C,0.076200*%


D10*
X762508Y756158D02*
X766177Y756158D01*
X766297Y756160D01*
X766417Y756166D01*
X766537Y756176D01*
X766656Y756189D01*
X766775Y756207D01*
X766893Y756228D01*
X767010Y756254D01*
X767127Y756283D01*
X767242Y756316D01*
X767356Y756353D01*
X767469Y756393D01*
X767581Y756437D01*
X767691Y756485D01*
X767800Y756536D01*
X767907Y756591D01*
X768012Y756650D01*
X768114Y756711D01*
X768215Y756776D01*
X768314Y756845D01*
X768411Y756916D01*
X768505Y756991D01*
X768596Y757068D01*
X768685Y757149D01*
X768771Y757233D01*
X768855Y757319D01*
X768936Y757408D01*
X769013Y757499D01*
X769088Y757593D01*
X769159Y757690D01*
X769228Y757789D01*
X769293Y757890D01*
X769354Y757993D01*
X769413Y758097D01*
X769468Y758204D01*
X769519Y758313D01*
X769567Y758423D01*
X769611Y758535D01*
X769651Y758648D01*
X769688Y758762D01*
X769721Y758877D01*
X769750Y758994D01*
X769776Y759111D01*
X769797Y759229D01*
X769815Y759348D01*
X769828Y759467D01*
X769838Y759587D01*
X769844Y759707D01*
X769846Y759827D01*
X769844Y759947D01*
X769838Y760067D01*
X769828Y760187D01*
X769815Y760306D01*
X769797Y760425D01*
X769776Y760543D01*
X769750Y760660D01*
X769721Y760777D01*
X769688Y760892D01*
X769651Y761006D01*
X769611Y761119D01*
X769567Y761231D01*
X769519Y761341D01*
X769468Y761450D01*
X769413Y761557D01*
X769354Y761662D01*
X769293Y761764D01*
X769228Y761865D01*
X769159Y761964D01*
X769088Y762061D01*
X769013Y762155D01*
X768936Y762246D01*
X768855Y762335D01*
X768771Y762421D01*
X768685Y762505D01*
X768596Y762586D01*
X768505Y762663D01*
X768411Y762738D01*
X768314Y762809D01*
X768215Y762878D01*
X768114Y762943D01*
X768012Y763004D01*
X767907Y763063D01*
X767800Y763118D01*
X767691Y763169D01*
X767581Y763217D01*
X767469Y763261D01*
X767356Y763301D01*
X767242Y763338D01*
X767127Y763371D01*
X767010Y763400D01*
X766893Y763426D01*
X766775Y763447D01*
X766656Y763465D01*
X766537Y763478D01*
X766417Y763488D01*
X766297Y763494D01*
X766177Y763496D01*
X766911Y769366D02*
X762508Y769366D01*
X766911Y769366D02*
X767018Y769364D01*
X767125Y769358D01*
X767232Y769348D01*
X767338Y769335D01*
X767444Y769317D01*
X767549Y769296D01*
X767653Y769271D01*
X767757Y769242D01*
X767859Y769209D01*
X767959Y769172D01*
X768059Y769132D01*
X768157Y769088D01*
X768253Y769041D01*
X768347Y768990D01*
X768440Y768936D01*
X768530Y768879D01*
X768619Y768818D01*
X768705Y768754D01*
X768788Y768687D01*
X768870Y768617D01*
X768948Y768544D01*
X769024Y768468D01*
X769097Y768390D01*
X769167Y768308D01*
X769234Y768225D01*
X769298Y768139D01*
X769359Y768050D01*
X769416Y767960D01*
X769470Y767867D01*
X769521Y767773D01*
X769568Y767677D01*
X769612Y767579D01*
X769652Y767479D01*
X769689Y767379D01*
X769722Y767277D01*
X769751Y767173D01*
X769776Y767069D01*
X769797Y766964D01*
X769815Y766858D01*
X769828Y766752D01*
X769838Y766645D01*
X769844Y766538D01*
X769846Y766431D01*
X769844Y766324D01*
X769838Y766217D01*
X769828Y766110D01*
X769815Y766004D01*
X769797Y765898D01*
X769776Y765793D01*
X769751Y765689D01*
X769722Y765585D01*
X769689Y765483D01*
X769652Y765383D01*
X769612Y765283D01*
X769568Y765185D01*
X769521Y765089D01*
X769470Y764995D01*
X769416Y764902D01*
X769359Y764812D01*
X769298Y764723D01*
X769234Y764637D01*
X769167Y764554D01*
X769097Y764472D01*
X769024Y764394D01*
X768948Y764318D01*
X768870Y764245D01*
X768788Y764175D01*
X768705Y764108D01*
X768619Y764044D01*
X768530Y763983D01*
X768440Y763926D01*
X768347Y763872D01*
X768253Y763821D01*
X768157Y763774D01*
X768059Y763730D01*
X767959Y763690D01*
X767859Y763653D01*
X767757Y763620D01*
X767653Y763591D01*
X767549Y763566D01*
X767444Y763545D01*
X767338Y763527D01*
X767232Y763514D01*
X767125Y763504D01*
X767018Y763498D01*
X766911Y763496D01*
X763976Y763496D01*
X774771Y756892D02*
X774771Y756158D01*
X774771Y756892D02*
X775505Y756892D01*
X775505Y756158D01*
X774771Y756158D01*
X780430Y756158D02*
X784099Y756158D01*
X784219Y756160D01*
X784339Y756166D01*
X784459Y756176D01*
X784578Y756189D01*
X784697Y756207D01*
X784815Y756228D01*
X784932Y756254D01*
X785049Y756283D01*
X785164Y756316D01*
X785278Y756353D01*
X785391Y756393D01*
X785503Y756437D01*
X785613Y756485D01*
X785722Y756536D01*
X785829Y756591D01*
X785934Y756650D01*
X786036Y756711D01*
X786137Y756776D01*
X786236Y756845D01*
X786333Y756916D01*
X786427Y756991D01*
X786518Y757068D01*
X786607Y757149D01*
X786693Y757233D01*
X786777Y757319D01*
X786858Y757408D01*
X786935Y757499D01*
X787010Y757593D01*
X787081Y757690D01*
X787150Y757789D01*
X787215Y757890D01*
X787276Y757993D01*
X787335Y758097D01*
X787390Y758204D01*
X787441Y758313D01*
X787489Y758423D01*
X787533Y758535D01*
X787573Y758648D01*
X787610Y758762D01*
X787643Y758877D01*
X787672Y758994D01*
X787698Y759111D01*
X787719Y759229D01*
X787737Y759348D01*
X787750Y759467D01*
X787760Y759587D01*
X787766Y759707D01*
X787768Y759827D01*
X787766Y759947D01*
X787760Y760067D01*
X787750Y760187D01*
X787737Y760306D01*
X787719Y760425D01*
X787698Y760543D01*
X787672Y760660D01*
X787643Y760777D01*
X787610Y760892D01*
X787573Y761006D01*
X787533Y761119D01*
X787489Y761231D01*
X787441Y761341D01*
X787390Y761450D01*
X787335Y761557D01*
X787276Y761662D01*
X787215Y761764D01*
X787150Y761865D01*
X787081Y761964D01*
X787010Y762061D01*
X786935Y762155D01*
X786858Y762246D01*
X786777Y762335D01*
X786693Y762421D01*
X786607Y762505D01*
X786518Y762586D01*
X786427Y762663D01*
X786333Y762738D01*
X786236Y762809D01*
X786137Y762878D01*
X786036Y762943D01*
X785934Y763004D01*
X785829Y763063D01*
X785722Y763118D01*
X785613Y763169D01*
X785503Y763217D01*
X785391Y763261D01*
X785278Y763301D01*
X785164Y763338D01*
X785049Y763371D01*
X784932Y763400D01*
X784815Y763426D01*
X784697Y763447D01*
X784578Y763465D01*
X784459Y763478D01*
X784339Y763488D01*
X784219Y763494D01*
X784099Y763496D01*
X784833Y769366D02*
X780430Y769366D01*
X784833Y769366D02*
X784940Y769364D01*
X785047Y769358D01*
X785154Y769348D01*
X785260Y769335D01*
X785366Y769317D01*
X785471Y769296D01*
X785575Y769271D01*
X785679Y769242D01*
X785781Y769209D01*
X785881Y769172D01*
X785981Y769132D01*
X786079Y769088D01*
X786175Y769041D01*
X786269Y768990D01*
X786362Y768936D01*
X786452Y768879D01*
X786541Y768818D01*
X786627Y768754D01*
X786710Y768687D01*
X786792Y768617D01*
X786870Y768544D01*
X786946Y768468D01*
X787019Y768390D01*
X787089Y768308D01*
X787156Y768225D01*
X787220Y768139D01*
X787281Y768050D01*
X787338Y767960D01*
X787392Y767867D01*
X787443Y767773D01*
X787490Y767677D01*
X787534Y767579D01*
X787574Y767479D01*
X787611Y767379D01*
X787644Y767277D01*
X787673Y767173D01*
X787698Y767069D01*
X787719Y766964D01*
X787737Y766858D01*
X787750Y766752D01*
X787760Y766645D01*
X787766Y766538D01*
X787768Y766431D01*
X787766Y766324D01*
X787760Y766217D01*
X787750Y766110D01*
X787737Y766004D01*
X787719Y765898D01*
X787698Y765793D01*
X787673Y765689D01*
X787644Y765585D01*
X787611Y765483D01*
X787574Y765383D01*
X787534Y765283D01*
X787490Y765185D01*
X787443Y765089D01*
X787392Y764995D01*
X787338Y764902D01*
X787281Y764812D01*
X787220Y764723D01*
X787156Y764637D01*
X787089Y764554D01*
X787019Y764472D01*
X786946Y764394D01*
X786870Y764318D01*
X786792Y764245D01*
X786710Y764175D01*
X786627Y764108D01*
X786541Y764044D01*
X786452Y763983D01*
X786362Y763926D01*
X786269Y763872D01*
X786175Y763821D01*
X786079Y763774D01*
X785981Y763730D01*
X785881Y763690D01*
X785781Y763653D01*
X785679Y763620D01*
X785575Y763591D01*
X785471Y763566D01*
X785366Y763545D01*
X785260Y763527D01*
X785154Y763514D01*
X785047Y763504D01*
X784940Y763498D01*
X784833Y763496D01*
X781898Y763496D01*
X792498Y769366D02*
X796901Y756158D01*
X801303Y769366D01*
X769846Y733693D02*
X769844Y733586D01*
X769838Y733479D01*
X769828Y733372D01*
X769815Y733266D01*
X769797Y733160D01*
X769776Y733055D01*
X769751Y732951D01*
X769722Y732847D01*
X769689Y732745D01*
X769652Y732645D01*
X769612Y732545D01*
X769568Y732447D01*
X769521Y732351D01*
X769470Y732257D01*
X769416Y732164D01*
X769359Y732074D01*
X769298Y731985D01*
X769234Y731899D01*
X769167Y731816D01*
X769097Y731734D01*
X769024Y731656D01*
X768948Y731580D01*
X768870Y731507D01*
X768788Y731437D01*
X768705Y731370D01*
X768619Y731306D01*
X768530Y731245D01*
X768440Y731188D01*
X768347Y731134D01*
X768253Y731083D01*
X768157Y731036D01*
X768059Y730992D01*
X767959Y730952D01*
X767859Y730915D01*
X767757Y730882D01*
X767653Y730853D01*
X767549Y730828D01*
X767444Y730807D01*
X767338Y730789D01*
X767232Y730776D01*
X767125Y730766D01*
X767018Y730760D01*
X766911Y730758D01*
X766758Y730760D01*
X766605Y730766D01*
X766453Y730775D01*
X766300Y730788D01*
X766148Y730805D01*
X765997Y730826D01*
X765845Y730850D01*
X765695Y730878D01*
X765545Y730910D01*
X765397Y730946D01*
X765249Y730985D01*
X765102Y731028D01*
X764956Y731074D01*
X764812Y731124D01*
X764668Y731178D01*
X764526Y731235D01*
X764386Y731295D01*
X764247Y731360D01*
X764110Y731427D01*
X763974Y731498D01*
X763840Y731572D01*
X763708Y731649D01*
X763578Y731730D01*
X763450Y731814D01*
X763324Y731901D01*
X763201Y731991D01*
X763079Y732084D01*
X762960Y732180D01*
X762844Y732279D01*
X762729Y732380D01*
X762618Y732485D01*
X762509Y732592D01*
X762875Y741031D02*
X762877Y741138D01*
X762883Y741245D01*
X762893Y741352D01*
X762906Y741458D01*
X762924Y741564D01*
X762945Y741669D01*
X762970Y741773D01*
X762999Y741877D01*
X763032Y741979D01*
X763069Y742079D01*
X763109Y742179D01*
X763153Y742277D01*
X763200Y742373D01*
X763251Y742467D01*
X763305Y742560D01*
X763362Y742650D01*
X763423Y742739D01*
X763487Y742825D01*
X763554Y742908D01*
X763624Y742990D01*
X763697Y743068D01*
X763773Y743144D01*
X763851Y743217D01*
X763933Y743287D01*
X764016Y743354D01*
X764102Y743418D01*
X764191Y743479D01*
X764281Y743536D01*
X764374Y743590D01*
X764468Y743641D01*
X764564Y743688D01*
X764662Y743732D01*
X764762Y743772D01*
X764862Y743809D01*
X764964Y743842D01*
X765068Y743871D01*
X765172Y743896D01*
X765277Y743917D01*
X765383Y743935D01*
X765489Y743948D01*
X765596Y743958D01*
X765703Y743964D01*
X765810Y743966D01*
X765958Y743964D01*
X766105Y743958D01*
X766252Y743948D01*
X766399Y743934D01*
X766546Y743917D01*
X766691Y743895D01*
X766837Y743869D01*
X766981Y743840D01*
X767125Y743807D01*
X767268Y743769D01*
X767410Y743728D01*
X767550Y743684D01*
X767690Y743635D01*
X767828Y743583D01*
X767964Y743527D01*
X768099Y743467D01*
X768232Y743404D01*
X768364Y743337D01*
X768494Y743267D01*
X768622Y743194D01*
X768747Y743116D01*
X768871Y743036D01*
X768993Y742952D01*
X769112Y742865D01*
X764343Y738463D02*
X764252Y738519D01*
X764163Y738578D01*
X764076Y738640D01*
X763992Y738705D01*
X763909Y738773D01*
X763830Y738844D01*
X763753Y738918D01*
X763679Y738995D01*
X763607Y739074D01*
X763539Y739156D01*
X763473Y739240D01*
X763410Y739327D01*
X763351Y739415D01*
X763295Y739506D01*
X763242Y739599D01*
X763192Y739693D01*
X763146Y739789D01*
X763103Y739887D01*
X763064Y739986D01*
X763028Y740087D01*
X762996Y740189D01*
X762968Y740292D01*
X762944Y740396D01*
X762923Y740500D01*
X762906Y740606D01*
X762892Y740711D01*
X762883Y740818D01*
X762877Y740924D01*
X762875Y741031D01*
X768378Y736261D02*
X768469Y736205D01*
X768558Y736146D01*
X768645Y736084D01*
X768729Y736019D01*
X768812Y735951D01*
X768891Y735880D01*
X768968Y735806D01*
X769042Y735729D01*
X769114Y735650D01*
X769182Y735568D01*
X769248Y735484D01*
X769311Y735397D01*
X769370Y735309D01*
X769426Y735218D01*
X769479Y735125D01*
X769529Y735031D01*
X769575Y734935D01*
X769618Y734837D01*
X769657Y734738D01*
X769693Y734637D01*
X769725Y734535D01*
X769753Y734432D01*
X769777Y734328D01*
X769798Y734224D01*
X769815Y734118D01*
X769829Y734013D01*
X769838Y733906D01*
X769844Y733800D01*
X769846Y733693D01*
X768378Y736261D02*
X764342Y738463D01*
X777783Y730758D02*
X780718Y730758D01*
X777783Y730758D02*
X777676Y730760D01*
X777569Y730766D01*
X777462Y730776D01*
X777356Y730789D01*
X777250Y730807D01*
X777145Y730828D01*
X777041Y730853D01*
X776937Y730882D01*
X776835Y730915D01*
X776735Y730952D01*
X776635Y730992D01*
X776537Y731036D01*
X776441Y731083D01*
X776347Y731134D01*
X776254Y731188D01*
X776164Y731245D01*
X776075Y731306D01*
X775989Y731370D01*
X775906Y731437D01*
X775824Y731507D01*
X775746Y731580D01*
X775670Y731656D01*
X775597Y731734D01*
X775527Y731816D01*
X775460Y731899D01*
X775396Y731985D01*
X775335Y732074D01*
X775278Y732164D01*
X775224Y732257D01*
X775173Y732351D01*
X775126Y732447D01*
X775082Y732545D01*
X775042Y732645D01*
X775005Y732745D01*
X774972Y732847D01*
X774943Y732951D01*
X774918Y733055D01*
X774897Y733160D01*
X774879Y733266D01*
X774866Y733372D01*
X774856Y733479D01*
X774850Y733586D01*
X774848Y733693D01*
X774848Y741031D01*
X774850Y741138D01*
X774856Y741245D01*
X774866Y741352D01*
X774879Y741458D01*
X774897Y741564D01*
X774918Y741669D01*
X774943Y741773D01*
X774972Y741877D01*
X775005Y741979D01*
X775042Y742079D01*
X775082Y742179D01*
X775126Y742277D01*
X775173Y742373D01*
X775224Y742467D01*
X775278Y742560D01*
X775335Y742650D01*
X775396Y742739D01*
X775460Y742825D01*
X775527Y742908D01*
X775597Y742990D01*
X775670Y743068D01*
X775746Y743144D01*
X775824Y743217D01*
X775906Y743287D01*
X775989Y743354D01*
X776075Y743418D01*
X776164Y743479D01*
X776254Y743536D01*
X776347Y743590D01*
X776441Y743641D01*
X776537Y743688D01*
X776635Y743732D01*
X776735Y743772D01*
X776835Y743809D01*
X776937Y743842D01*
X777041Y743871D01*
X777145Y743896D01*
X777250Y743917D01*
X777356Y743935D01*
X777462Y743948D01*
X777569Y743958D01*
X777676Y743964D01*
X777783Y743966D01*
X780718Y743966D01*
X786002Y743966D02*
X786002Y730758D01*
X791872Y730758D01*
X769846Y708293D02*
X769844Y708186D01*
X769838Y708079D01*
X769828Y707972D01*
X769815Y707866D01*
X769797Y707760D01*
X769776Y707655D01*
X769751Y707551D01*
X769722Y707447D01*
X769689Y707345D01*
X769652Y707245D01*
X769612Y707145D01*
X769568Y707047D01*
X769521Y706951D01*
X769470Y706857D01*
X769416Y706764D01*
X769359Y706674D01*
X769298Y706585D01*
X769234Y706499D01*
X769167Y706416D01*
X769097Y706334D01*
X769024Y706256D01*
X768948Y706180D01*
X768870Y706107D01*
X768788Y706037D01*
X768705Y705970D01*
X768619Y705906D01*
X768530Y705845D01*
X768440Y705788D01*
X768347Y705734D01*
X768253Y705683D01*
X768157Y705636D01*
X768059Y705592D01*
X767959Y705552D01*
X767859Y705515D01*
X767757Y705482D01*
X767653Y705453D01*
X767549Y705428D01*
X767444Y705407D01*
X767338Y705389D01*
X767232Y705376D01*
X767125Y705366D01*
X767018Y705360D01*
X766911Y705358D01*
X766758Y705360D01*
X766605Y705366D01*
X766453Y705375D01*
X766300Y705388D01*
X766148Y705405D01*
X765997Y705426D01*
X765845Y705450D01*
X765695Y705478D01*
X765545Y705510D01*
X765397Y705546D01*
X765249Y705585D01*
X765102Y705628D01*
X764956Y705674D01*
X764812Y705724D01*
X764668Y705778D01*
X764526Y705835D01*
X764386Y705895D01*
X764247Y705960D01*
X764110Y706027D01*
X763974Y706098D01*
X763840Y706172D01*
X763708Y706249D01*
X763578Y706330D01*
X763450Y706414D01*
X763324Y706501D01*
X763201Y706591D01*
X763079Y706684D01*
X762960Y706780D01*
X762844Y706879D01*
X762729Y706980D01*
X762618Y707085D01*
X762509Y707192D01*
X762875Y715631D02*
X762877Y715738D01*
X762883Y715845D01*
X762893Y715952D01*
X762906Y716058D01*
X762924Y716164D01*
X762945Y716269D01*
X762970Y716373D01*
X762999Y716477D01*
X763032Y716579D01*
X763069Y716679D01*
X763109Y716779D01*
X763153Y716877D01*
X763200Y716973D01*
X763251Y717067D01*
X763305Y717160D01*
X763362Y717250D01*
X763423Y717339D01*
X763487Y717425D01*
X763554Y717508D01*
X763624Y717590D01*
X763697Y717668D01*
X763773Y717744D01*
X763851Y717817D01*
X763933Y717887D01*
X764016Y717954D01*
X764102Y718018D01*
X764191Y718079D01*
X764281Y718136D01*
X764374Y718190D01*
X764468Y718241D01*
X764564Y718288D01*
X764662Y718332D01*
X764762Y718372D01*
X764862Y718409D01*
X764964Y718442D01*
X765068Y718471D01*
X765172Y718496D01*
X765277Y718517D01*
X765383Y718535D01*
X765489Y718548D01*
X765596Y718558D01*
X765703Y718564D01*
X765810Y718566D01*
X765958Y718564D01*
X766105Y718558D01*
X766252Y718548D01*
X766399Y718534D01*
X766546Y718517D01*
X766691Y718495D01*
X766837Y718469D01*
X766981Y718440D01*
X767125Y718407D01*
X767268Y718369D01*
X767410Y718328D01*
X767550Y718284D01*
X767690Y718235D01*
X767828Y718183D01*
X767964Y718127D01*
X768099Y718067D01*
X768232Y718004D01*
X768364Y717937D01*
X768494Y717867D01*
X768622Y717794D01*
X768747Y717716D01*
X768871Y717636D01*
X768993Y717552D01*
X769112Y717465D01*
X764343Y713063D02*
X764252Y713119D01*
X764163Y713178D01*
X764076Y713240D01*
X763992Y713305D01*
X763909Y713373D01*
X763830Y713444D01*
X763753Y713518D01*
X763679Y713595D01*
X763607Y713674D01*
X763539Y713756D01*
X763473Y713840D01*
X763410Y713927D01*
X763351Y714015D01*
X763295Y714106D01*
X763242Y714199D01*
X763192Y714293D01*
X763146Y714389D01*
X763103Y714487D01*
X763064Y714586D01*
X763028Y714687D01*
X762996Y714789D01*
X762968Y714892D01*
X762944Y714996D01*
X762923Y715100D01*
X762906Y715206D01*
X762892Y715311D01*
X762883Y715418D01*
X762877Y715524D01*
X762875Y715631D01*
X768378Y710861D02*
X768469Y710805D01*
X768558Y710746D01*
X768645Y710684D01*
X768729Y710619D01*
X768812Y710551D01*
X768891Y710480D01*
X768968Y710406D01*
X769042Y710329D01*
X769114Y710250D01*
X769182Y710168D01*
X769248Y710084D01*
X769311Y709997D01*
X769370Y709909D01*
X769426Y709818D01*
X769479Y709725D01*
X769529Y709631D01*
X769575Y709535D01*
X769618Y709437D01*
X769657Y709338D01*
X769693Y709237D01*
X769725Y709135D01*
X769753Y709032D01*
X769777Y708928D01*
X769798Y708824D01*
X769815Y708718D01*
X769829Y708613D01*
X769838Y708506D01*
X769844Y708400D01*
X769846Y708293D01*
X768378Y710861D02*
X764342Y713063D01*
X775310Y718566D02*
X775310Y705358D01*
X775310Y718566D02*
X778978Y718566D01*
X779098Y718564D01*
X779218Y718558D01*
X779338Y718548D01*
X779457Y718535D01*
X779576Y718517D01*
X779694Y718496D01*
X779811Y718470D01*
X779928Y718441D01*
X780043Y718408D01*
X780157Y718371D01*
X780270Y718331D01*
X780382Y718287D01*
X780492Y718239D01*
X780601Y718188D01*
X780708Y718133D01*
X780813Y718074D01*
X780915Y718013D01*
X781016Y717948D01*
X781115Y717879D01*
X781212Y717808D01*
X781306Y717733D01*
X781397Y717656D01*
X781486Y717575D01*
X781572Y717491D01*
X781656Y717405D01*
X781737Y717316D01*
X781814Y717225D01*
X781889Y717131D01*
X781960Y717034D01*
X782029Y716935D01*
X782094Y716834D01*
X782155Y716732D01*
X782214Y716627D01*
X782269Y716520D01*
X782320Y716411D01*
X782368Y716301D01*
X782412Y716189D01*
X782452Y716076D01*
X782489Y715962D01*
X782522Y715847D01*
X782551Y715730D01*
X782577Y715613D01*
X782598Y715495D01*
X782616Y715376D01*
X782629Y715257D01*
X782639Y715137D01*
X782645Y715017D01*
X782647Y714897D01*
X782647Y709027D01*
X782645Y708907D01*
X782639Y708787D01*
X782629Y708667D01*
X782616Y708548D01*
X782598Y708429D01*
X782577Y708311D01*
X782551Y708194D01*
X782522Y708077D01*
X782489Y707962D01*
X782452Y707848D01*
X782412Y707735D01*
X782368Y707623D01*
X782320Y707513D01*
X782269Y707404D01*
X782214Y707297D01*
X782155Y707193D01*
X782094Y707090D01*
X782029Y706989D01*
X781960Y706890D01*
X781889Y706793D01*
X781814Y706699D01*
X781737Y706608D01*
X781656Y706519D01*
X781572Y706433D01*
X781486Y706349D01*
X781397Y706268D01*
X781306Y706191D01*
X781212Y706116D01*
X781115Y706045D01*
X781016Y705976D01*
X780915Y705911D01*
X780813Y705850D01*
X780708Y705791D01*
X780601Y705736D01*
X780492Y705685D01*
X780382Y705637D01*
X780270Y705593D01*
X780157Y705553D01*
X780043Y705516D01*
X779928Y705483D01*
X779811Y705454D01*
X779694Y705428D01*
X779576Y705407D01*
X779457Y705389D01*
X779338Y705376D01*
X779218Y705366D01*
X779098Y705360D01*
X778978Y705358D01*
X775310Y705358D01*
X787804Y705358D02*
X792207Y718566D01*
X796609Y705358D01*
X795509Y708660D02*
X788905Y708660D01*
X762508Y693166D02*
X762508Y679958D01*
X762508Y693166D02*
X766177Y693166D01*
X766297Y693164D01*
X766417Y693158D01*
X766537Y693148D01*
X766656Y693135D01*
X766775Y693117D01*
X766893Y693096D01*
X767010Y693070D01*
X767127Y693041D01*
X767242Y693008D01*
X767356Y692971D01*
X767469Y692931D01*
X767581Y692887D01*
X767691Y692839D01*
X767800Y692788D01*
X767907Y692733D01*
X768012Y692674D01*
X768114Y692613D01*
X768215Y692548D01*
X768314Y692479D01*
X768411Y692408D01*
X768505Y692333D01*
X768596Y692256D01*
X768685Y692175D01*
X768771Y692091D01*
X768855Y692005D01*
X768936Y691916D01*
X769013Y691825D01*
X769088Y691731D01*
X769159Y691634D01*
X769228Y691535D01*
X769293Y691434D01*
X769354Y691332D01*
X769413Y691227D01*
X769468Y691120D01*
X769519Y691011D01*
X769567Y690901D01*
X769611Y690789D01*
X769651Y690676D01*
X769688Y690562D01*
X769721Y690447D01*
X769750Y690330D01*
X769776Y690213D01*
X769797Y690095D01*
X769815Y689976D01*
X769828Y689857D01*
X769838Y689737D01*
X769844Y689617D01*
X769846Y689497D01*
X769844Y689377D01*
X769838Y689257D01*
X769828Y689137D01*
X769815Y689018D01*
X769797Y688899D01*
X769776Y688781D01*
X769750Y688664D01*
X769721Y688547D01*
X769688Y688432D01*
X769651Y688318D01*
X769611Y688205D01*
X769567Y688093D01*
X769519Y687983D01*
X769468Y687874D01*
X769413Y687767D01*
X769354Y687663D01*
X769293Y687560D01*
X769228Y687459D01*
X769159Y687360D01*
X769088Y687263D01*
X769013Y687169D01*
X768936Y687078D01*
X768855Y686989D01*
X768771Y686903D01*
X768685Y686819D01*
X768596Y686738D01*
X768505Y686661D01*
X768411Y686586D01*
X768314Y686515D01*
X768215Y686446D01*
X768114Y686381D01*
X768012Y686320D01*
X767907Y686261D01*
X767800Y686206D01*
X767691Y686155D01*
X767581Y686107D01*
X767469Y686063D01*
X767356Y686023D01*
X767242Y685986D01*
X767127Y685953D01*
X767010Y685924D01*
X766893Y685898D01*
X766775Y685877D01*
X766656Y685859D01*
X766537Y685846D01*
X766417Y685836D01*
X766297Y685830D01*
X766177Y685828D01*
X762508Y685828D01*
X777603Y679958D02*
X780538Y679958D01*
X777603Y679958D02*
X777496Y679960D01*
X777389Y679966D01*
X777282Y679976D01*
X777176Y679989D01*
X777070Y680007D01*
X776965Y680028D01*
X776861Y680053D01*
X776757Y680082D01*
X776655Y680115D01*
X776555Y680152D01*
X776455Y680192D01*
X776357Y680236D01*
X776261Y680283D01*
X776167Y680334D01*
X776074Y680388D01*
X775984Y680445D01*
X775895Y680506D01*
X775809Y680570D01*
X775726Y680637D01*
X775644Y680707D01*
X775566Y680780D01*
X775490Y680856D01*
X775417Y680934D01*
X775347Y681016D01*
X775280Y681099D01*
X775216Y681185D01*
X775155Y681274D01*
X775098Y681364D01*
X775044Y681457D01*
X774993Y681551D01*
X774946Y681647D01*
X774902Y681745D01*
X774862Y681845D01*
X774825Y681945D01*
X774792Y682047D01*
X774763Y682151D01*
X774738Y682255D01*
X774717Y682360D01*
X774699Y682466D01*
X774686Y682572D01*
X774676Y682679D01*
X774670Y682786D01*
X774668Y682893D01*
X774668Y690231D01*
X774670Y690338D01*
X774676Y690445D01*
X774686Y690552D01*
X774699Y690658D01*
X774717Y690764D01*
X774738Y690869D01*
X774763Y690973D01*
X774792Y691077D01*
X774825Y691179D01*
X774862Y691279D01*
X774902Y691379D01*
X774946Y691477D01*
X774993Y691573D01*
X775044Y691667D01*
X775098Y691760D01*
X775155Y691850D01*
X775216Y691939D01*
X775280Y692025D01*
X775347Y692108D01*
X775417Y692190D01*
X775490Y692268D01*
X775566Y692344D01*
X775644Y692417D01*
X775726Y692487D01*
X775809Y692554D01*
X775895Y692618D01*
X775984Y692679D01*
X776074Y692736D01*
X776167Y692790D01*
X776261Y692841D01*
X776357Y692888D01*
X776455Y692932D01*
X776555Y692972D01*
X776655Y693009D01*
X776757Y693042D01*
X776861Y693071D01*
X776965Y693096D01*
X777070Y693117D01*
X777176Y693135D01*
X777282Y693148D01*
X777389Y693158D01*
X777496Y693164D01*
X777603Y693166D01*
X780538Y693166D01*
X789407Y693166D02*
X789520Y693164D01*
X789632Y693158D01*
X789745Y693149D01*
X789857Y693135D01*
X789968Y693118D01*
X790079Y693097D01*
X790189Y693072D01*
X790298Y693044D01*
X790406Y693011D01*
X790513Y692975D01*
X790618Y692936D01*
X790723Y692893D01*
X790825Y692846D01*
X790926Y692796D01*
X791025Y692742D01*
X791123Y692685D01*
X791218Y692625D01*
X791311Y692562D01*
X791402Y692495D01*
X791491Y692425D01*
X791577Y692353D01*
X791661Y692277D01*
X791742Y692199D01*
X791820Y692118D01*
X791896Y692034D01*
X791968Y691948D01*
X792038Y691859D01*
X792105Y691768D01*
X792168Y691675D01*
X792228Y691580D01*
X792285Y691482D01*
X792339Y691383D01*
X792389Y691282D01*
X792436Y691180D01*
X792479Y691075D01*
X792518Y690970D01*
X792554Y690863D01*
X792587Y690755D01*
X792615Y690646D01*
X792640Y690536D01*
X792661Y690425D01*
X792678Y690314D01*
X792692Y690202D01*
X792701Y690089D01*
X792707Y689977D01*
X792709Y689864D01*
X789407Y693166D02*
X789280Y693164D01*
X789153Y693158D01*
X789026Y693149D01*
X788900Y693136D01*
X788774Y693119D01*
X788649Y693098D01*
X788524Y693073D01*
X788401Y693045D01*
X788278Y693013D01*
X788156Y692977D01*
X788035Y692938D01*
X787915Y692895D01*
X787797Y692849D01*
X787680Y692799D01*
X787565Y692745D01*
X787452Y692688D01*
X787340Y692628D01*
X787230Y692565D01*
X787122Y692498D01*
X787016Y692428D01*
X786912Y692355D01*
X786810Y692278D01*
X786711Y692199D01*
X786614Y692117D01*
X786520Y692032D01*
X786428Y691944D01*
X786339Y691854D01*
X786253Y691760D01*
X786169Y691665D01*
X786089Y691567D01*
X786011Y691466D01*
X785936Y691363D01*
X785865Y691258D01*
X785797Y691151D01*
X785732Y691042D01*
X785670Y690931D01*
X785611Y690818D01*
X785556Y690704D01*
X785505Y690588D01*
X785457Y690470D01*
X785412Y690351D01*
X785371Y690231D01*
X791608Y687296D02*
X791690Y687376D01*
X791769Y687459D01*
X791846Y687545D01*
X791920Y687633D01*
X791990Y687724D01*
X792058Y687816D01*
X792123Y687911D01*
X792185Y688008D01*
X792243Y688107D01*
X792299Y688208D01*
X792351Y688310D01*
X792399Y688414D01*
X792444Y688520D01*
X792486Y688627D01*
X792525Y688735D01*
X792559Y688845D01*
X792591Y688955D01*
X792618Y689067D01*
X792642Y689179D01*
X792663Y689292D01*
X792679Y689406D01*
X792692Y689520D01*
X792702Y689634D01*
X792707Y689749D01*
X792709Y689864D01*
X791608Y687296D02*
X785371Y679958D01*
X792709Y679958D01*
X762508Y667766D02*
X762508Y654558D01*
X762508Y667766D02*
X766177Y667766D01*
X766297Y667764D01*
X766417Y667758D01*
X766537Y667748D01*
X766656Y667735D01*
X766775Y667717D01*
X766893Y667696D01*
X767010Y667670D01*
X767127Y667641D01*
X767242Y667608D01*
X767356Y667571D01*
X767469Y667531D01*
X767581Y667487D01*
X767691Y667439D01*
X767800Y667388D01*
X767907Y667333D01*
X768012Y667274D01*
X768114Y667213D01*
X768215Y667148D01*
X768314Y667079D01*
X768411Y667008D01*
X768505Y666933D01*
X768596Y666856D01*
X768685Y666775D01*
X768771Y666691D01*
X768855Y666605D01*
X768936Y666516D01*
X769013Y666425D01*
X769088Y666331D01*
X769159Y666234D01*
X769228Y666135D01*
X769293Y666034D01*
X769354Y665932D01*
X769413Y665827D01*
X769468Y665720D01*
X769519Y665611D01*
X769567Y665501D01*
X769611Y665389D01*
X769651Y665276D01*
X769688Y665162D01*
X769721Y665047D01*
X769750Y664930D01*
X769776Y664813D01*
X769797Y664695D01*
X769815Y664576D01*
X769828Y664457D01*
X769838Y664337D01*
X769844Y664217D01*
X769846Y664097D01*
X769844Y663977D01*
X769838Y663857D01*
X769828Y663737D01*
X769815Y663618D01*
X769797Y663499D01*
X769776Y663381D01*
X769750Y663264D01*
X769721Y663147D01*
X769688Y663032D01*
X769651Y662918D01*
X769611Y662805D01*
X769567Y662693D01*
X769519Y662583D01*
X769468Y662474D01*
X769413Y662367D01*
X769354Y662263D01*
X769293Y662160D01*
X769228Y662059D01*
X769159Y661960D01*
X769088Y661863D01*
X769013Y661769D01*
X768936Y661678D01*
X768855Y661589D01*
X768771Y661503D01*
X768685Y661419D01*
X768596Y661338D01*
X768505Y661261D01*
X768411Y661186D01*
X768314Y661115D01*
X768215Y661046D01*
X768114Y660981D01*
X768012Y660920D01*
X767907Y660861D01*
X767800Y660806D01*
X767691Y660755D01*
X767581Y660707D01*
X767469Y660663D01*
X767356Y660623D01*
X767242Y660586D01*
X767127Y660553D01*
X767010Y660524D01*
X766893Y660498D01*
X766775Y660477D01*
X766656Y660459D01*
X766537Y660446D01*
X766417Y660436D01*
X766297Y660430D01*
X766177Y660428D01*
X762508Y660428D01*
X777603Y654558D02*
X780538Y654558D01*
X777603Y654558D02*
X777496Y654560D01*
X777389Y654566D01*
X777282Y654576D01*
X777176Y654589D01*
X777070Y654607D01*
X776965Y654628D01*
X776861Y654653D01*
X776757Y654682D01*
X776655Y654715D01*
X776555Y654752D01*
X776455Y654792D01*
X776357Y654836D01*
X776261Y654883D01*
X776167Y654934D01*
X776074Y654988D01*
X775984Y655045D01*
X775895Y655106D01*
X775809Y655170D01*
X775726Y655237D01*
X775644Y655307D01*
X775566Y655380D01*
X775490Y655456D01*
X775417Y655534D01*
X775347Y655616D01*
X775280Y655699D01*
X775216Y655785D01*
X775155Y655874D01*
X775098Y655964D01*
X775044Y656057D01*
X774993Y656151D01*
X774946Y656247D01*
X774902Y656345D01*
X774862Y656445D01*
X774825Y656545D01*
X774792Y656647D01*
X774763Y656751D01*
X774738Y656855D01*
X774717Y656960D01*
X774699Y657066D01*
X774686Y657172D01*
X774676Y657279D01*
X774670Y657386D01*
X774668Y657493D01*
X774668Y664831D01*
X774670Y664938D01*
X774676Y665045D01*
X774686Y665152D01*
X774699Y665258D01*
X774717Y665364D01*
X774738Y665469D01*
X774763Y665573D01*
X774792Y665677D01*
X774825Y665779D01*
X774862Y665879D01*
X774902Y665979D01*
X774946Y666077D01*
X774993Y666173D01*
X775044Y666267D01*
X775098Y666360D01*
X775155Y666450D01*
X775216Y666539D01*
X775280Y666625D01*
X775347Y666708D01*
X775417Y666790D01*
X775490Y666868D01*
X775566Y666944D01*
X775644Y667017D01*
X775726Y667087D01*
X775809Y667154D01*
X775895Y667218D01*
X775984Y667279D01*
X776074Y667336D01*
X776167Y667390D01*
X776261Y667441D01*
X776357Y667488D01*
X776455Y667532D01*
X776555Y667572D01*
X776655Y667609D01*
X776757Y667642D01*
X776861Y667671D01*
X776965Y667696D01*
X777070Y667717D01*
X777176Y667735D01*
X777282Y667748D01*
X777389Y667758D01*
X777496Y667764D01*
X777603Y667766D01*
X780538Y667766D01*
X785371Y664831D02*
X789040Y667766D01*
X789040Y654558D01*
X785371Y654558D02*
X792709Y654558D01*
X762508Y642366D02*
X762508Y629158D01*
X762508Y642366D02*
X766177Y642366D01*
X766297Y642364D01*
X766417Y642358D01*
X766537Y642348D01*
X766656Y642335D01*
X766775Y642317D01*
X766893Y642296D01*
X767010Y642270D01*
X767127Y642241D01*
X767242Y642208D01*
X767356Y642171D01*
X767469Y642131D01*
X767581Y642087D01*
X767691Y642039D01*
X767800Y641988D01*
X767907Y641933D01*
X768012Y641874D01*
X768114Y641813D01*
X768215Y641748D01*
X768314Y641679D01*
X768411Y641608D01*
X768505Y641533D01*
X768596Y641456D01*
X768685Y641375D01*
X768771Y641291D01*
X768855Y641205D01*
X768936Y641116D01*
X769013Y641025D01*
X769088Y640931D01*
X769159Y640834D01*
X769228Y640735D01*
X769293Y640634D01*
X769354Y640532D01*
X769413Y640427D01*
X769468Y640320D01*
X769519Y640211D01*
X769567Y640101D01*
X769611Y639989D01*
X769651Y639876D01*
X769688Y639762D01*
X769721Y639647D01*
X769750Y639530D01*
X769776Y639413D01*
X769797Y639295D01*
X769815Y639176D01*
X769828Y639057D01*
X769838Y638937D01*
X769844Y638817D01*
X769846Y638697D01*
X769844Y638577D01*
X769838Y638457D01*
X769828Y638337D01*
X769815Y638218D01*
X769797Y638099D01*
X769776Y637981D01*
X769750Y637864D01*
X769721Y637747D01*
X769688Y637632D01*
X769651Y637518D01*
X769611Y637405D01*
X769567Y637293D01*
X769519Y637183D01*
X769468Y637074D01*
X769413Y636967D01*
X769354Y636863D01*
X769293Y636760D01*
X769228Y636659D01*
X769159Y636560D01*
X769088Y636463D01*
X769013Y636369D01*
X768936Y636278D01*
X768855Y636189D01*
X768771Y636103D01*
X768685Y636019D01*
X768596Y635938D01*
X768505Y635861D01*
X768411Y635786D01*
X768314Y635715D01*
X768215Y635646D01*
X768114Y635581D01*
X768012Y635520D01*
X767907Y635461D01*
X767800Y635406D01*
X767691Y635355D01*
X767581Y635307D01*
X767469Y635263D01*
X767356Y635223D01*
X767242Y635186D01*
X767127Y635153D01*
X767010Y635124D01*
X766893Y635098D01*
X766775Y635077D01*
X766656Y635059D01*
X766537Y635046D01*
X766417Y635036D01*
X766297Y635030D01*
X766177Y635028D01*
X762508Y635028D01*
X777603Y629158D02*
X780538Y629158D01*
X777603Y629158D02*
X777496Y629160D01*
X777389Y629166D01*
X777282Y629176D01*
X777176Y629189D01*
X777070Y629207D01*
X776965Y629228D01*
X776861Y629253D01*
X776757Y629282D01*
X776655Y629315D01*
X776555Y629352D01*
X776455Y629392D01*
X776357Y629436D01*
X776261Y629483D01*
X776167Y629534D01*
X776074Y629588D01*
X775984Y629645D01*
X775895Y629706D01*
X775809Y629770D01*
X775726Y629837D01*
X775644Y629907D01*
X775566Y629980D01*
X775490Y630056D01*
X775417Y630134D01*
X775347Y630216D01*
X775280Y630299D01*
X775216Y630385D01*
X775155Y630474D01*
X775098Y630564D01*
X775044Y630657D01*
X774993Y630751D01*
X774946Y630847D01*
X774902Y630945D01*
X774862Y631045D01*
X774825Y631145D01*
X774792Y631247D01*
X774763Y631351D01*
X774738Y631455D01*
X774717Y631560D01*
X774699Y631666D01*
X774686Y631772D01*
X774676Y631879D01*
X774670Y631986D01*
X774668Y632093D01*
X774668Y639431D01*
X774670Y639538D01*
X774676Y639645D01*
X774686Y639752D01*
X774699Y639858D01*
X774717Y639964D01*
X774738Y640069D01*
X774763Y640173D01*
X774792Y640277D01*
X774825Y640379D01*
X774862Y640479D01*
X774902Y640579D01*
X774946Y640677D01*
X774993Y640773D01*
X775044Y640867D01*
X775098Y640960D01*
X775155Y641050D01*
X775216Y641139D01*
X775280Y641225D01*
X775347Y641308D01*
X775417Y641390D01*
X775490Y641468D01*
X775566Y641544D01*
X775644Y641617D01*
X775726Y641687D01*
X775809Y641754D01*
X775895Y641818D01*
X775984Y641879D01*
X776074Y641936D01*
X776167Y641990D01*
X776261Y642041D01*
X776357Y642088D01*
X776455Y642132D01*
X776555Y642172D01*
X776655Y642209D01*
X776757Y642242D01*
X776861Y642271D01*
X776965Y642296D01*
X777070Y642317D01*
X777176Y642335D01*
X777282Y642348D01*
X777389Y642358D01*
X777496Y642364D01*
X777603Y642366D01*
X780538Y642366D01*
X786473Y640531D02*
X786362Y640297D01*
X786256Y640059D01*
X786156Y639819D01*
X786062Y639577D01*
X785974Y639332D01*
X785892Y639086D01*
X785816Y638838D01*
X785745Y638588D01*
X785681Y638336D01*
X785622Y638083D01*
X785570Y637828D01*
X785524Y637572D01*
X785483Y637316D01*
X785449Y637058D01*
X785422Y636800D01*
X785400Y636541D01*
X785384Y636281D01*
X785375Y636022D01*
X785372Y635762D01*
X786472Y640532D02*
X786507Y640627D01*
X786545Y640722D01*
X786587Y640815D01*
X786633Y640906D01*
X786682Y640996D01*
X786734Y641084D01*
X786789Y641169D01*
X786848Y641253D01*
X786910Y641334D01*
X786974Y641413D01*
X787042Y641489D01*
X787113Y641563D01*
X787186Y641634D01*
X787262Y641702D01*
X787340Y641768D01*
X787421Y641830D01*
X787504Y641890D01*
X787589Y641946D01*
X787676Y641999D01*
X787765Y642048D01*
X787856Y642094D01*
X787949Y642137D01*
X788043Y642176D01*
X788139Y642212D01*
X788236Y642244D01*
X788334Y642273D01*
X788433Y642297D01*
X788533Y642318D01*
X788633Y642335D01*
X788734Y642349D01*
X788836Y642358D01*
X788938Y642364D01*
X789040Y642366D01*
X789142Y642364D01*
X789244Y642358D01*
X789346Y642349D01*
X789447Y642335D01*
X789547Y642318D01*
X789647Y642297D01*
X789746Y642273D01*
X789844Y642244D01*
X789941Y642212D01*
X790037Y642176D01*
X790131Y642137D01*
X790224Y642094D01*
X790315Y642048D01*
X790404Y641999D01*
X790491Y641946D01*
X790576Y641890D01*
X790659Y641830D01*
X790740Y641768D01*
X790818Y641702D01*
X790894Y641634D01*
X790967Y641563D01*
X791038Y641489D01*
X791106Y641413D01*
X791170Y641334D01*
X791232Y641253D01*
X791291Y641169D01*
X791346Y641084D01*
X791398Y640996D01*
X791447Y640906D01*
X791493Y640815D01*
X791535Y640722D01*
X791573Y640627D01*
X791608Y640532D01*
X791608Y640531D02*
X791719Y640296D01*
X791825Y640059D01*
X791925Y639819D01*
X792019Y639577D01*
X792107Y639332D01*
X792189Y639086D01*
X792265Y638838D01*
X792336Y638587D01*
X792400Y638336D01*
X792459Y638083D01*
X792511Y637828D01*
X792557Y637572D01*
X792598Y637316D01*
X792632Y637058D01*
X792659Y636800D01*
X792681Y636541D01*
X792697Y636281D01*
X792706Y636022D01*
X792709Y635762D01*
X785372Y635762D02*
X785375Y635502D01*
X785384Y635243D01*
X785400Y634983D01*
X785422Y634724D01*
X785449Y634466D01*
X785483Y634208D01*
X785524Y633952D01*
X785570Y633696D01*
X785622Y633441D01*
X785681Y633188D01*
X785745Y632937D01*
X785816Y632686D01*
X785892Y632438D01*
X785974Y632192D01*
X786062Y631947D01*
X786156Y631705D01*
X786256Y631465D01*
X786362Y631228D01*
X786473Y630993D01*
X786472Y630992D02*
X786507Y630897D01*
X786545Y630802D01*
X786587Y630709D01*
X786633Y630618D01*
X786682Y630528D01*
X786734Y630440D01*
X786789Y630355D01*
X786848Y630271D01*
X786910Y630190D01*
X786974Y630111D01*
X787042Y630035D01*
X787113Y629961D01*
X787186Y629890D01*
X787262Y629822D01*
X787340Y629756D01*
X787421Y629694D01*
X787504Y629634D01*
X787589Y629578D01*
X787676Y629525D01*
X787765Y629476D01*
X787856Y629430D01*
X787949Y629387D01*
X788043Y629348D01*
X788139Y629312D01*
X788236Y629280D01*
X788334Y629251D01*
X788433Y629227D01*
X788533Y629206D01*
X788633Y629189D01*
X788734Y629175D01*
X788836Y629166D01*
X788938Y629160D01*
X789040Y629158D01*
X791609Y630992D02*
X791720Y631227D01*
X791826Y631465D01*
X791926Y631705D01*
X792020Y631947D01*
X792108Y632191D01*
X792190Y632438D01*
X792266Y632686D01*
X792337Y632936D01*
X792401Y633188D01*
X792460Y633441D01*
X792512Y633696D01*
X792558Y633951D01*
X792599Y634208D01*
X792633Y634466D01*
X792660Y634724D01*
X792682Y634983D01*
X792698Y635242D01*
X792707Y635502D01*
X792710Y635762D01*
X791608Y630992D02*
X791573Y630897D01*
X791535Y630802D01*
X791493Y630709D01*
X791447Y630618D01*
X791398Y630528D01*
X791346Y630440D01*
X791291Y630355D01*
X791232Y630271D01*
X791170Y630190D01*
X791106Y630111D01*
X791038Y630035D01*
X790967Y629961D01*
X790894Y629890D01*
X790818Y629822D01*
X790740Y629756D01*
X790659Y629694D01*
X790576Y629634D01*
X790491Y629578D01*
X790404Y629525D01*
X790315Y629476D01*
X790224Y629430D01*
X790131Y629387D01*
X790037Y629348D01*
X789941Y629312D01*
X789844Y629280D01*
X789746Y629251D01*
X789647Y629227D01*
X789547Y629206D01*
X789447Y629189D01*
X789346Y629175D01*
X789244Y629166D01*
X789142Y629160D01*
X789040Y629158D01*
X786105Y632093D02*
X791975Y639431D01*
D11*
X687917Y424942D02*
X686054Y419354D01*
X689779Y419354D02*
X687917Y424942D01*
X689314Y420751D02*
X686520Y420751D01*
X693037Y419354D02*
X693037Y424942D01*
X691485Y424942D02*
X694590Y424942D01*
X696844Y424942D02*
X696844Y419354D01*
X698707Y421838D02*
X696844Y424942D01*
X698707Y421838D02*
X700569Y424942D01*
X700569Y419354D01*
X703383Y419354D02*
X705867Y419354D01*
X703383Y419354D02*
X703383Y424942D01*
X705867Y424942D01*
X705246Y422458D02*
X703383Y422458D01*
X710300Y422458D02*
X711232Y422458D01*
X711232Y419354D01*
X709369Y419354D01*
X709299Y419356D01*
X709230Y419362D01*
X709161Y419372D01*
X709093Y419385D01*
X709025Y419403D01*
X708959Y419424D01*
X708894Y419449D01*
X708830Y419477D01*
X708768Y419509D01*
X708708Y419544D01*
X708650Y419583D01*
X708595Y419625D01*
X708541Y419670D01*
X708491Y419718D01*
X708443Y419768D01*
X708398Y419822D01*
X708356Y419877D01*
X708317Y419935D01*
X708282Y419995D01*
X708250Y420057D01*
X708222Y420121D01*
X708197Y420186D01*
X708176Y420252D01*
X708158Y420320D01*
X708145Y420388D01*
X708135Y420457D01*
X708129Y420526D01*
X708127Y420596D01*
X708127Y423700D01*
X708129Y423770D01*
X708135Y423839D01*
X708145Y423908D01*
X708158Y423976D01*
X708176Y424044D01*
X708197Y424110D01*
X708222Y424175D01*
X708250Y424239D01*
X708282Y424301D01*
X708317Y424361D01*
X708356Y424419D01*
X708398Y424474D01*
X708443Y424528D01*
X708491Y424578D01*
X708541Y424626D01*
X708595Y424671D01*
X708650Y424713D01*
X708708Y424752D01*
X708768Y424787D01*
X708830Y424819D01*
X708894Y424847D01*
X708959Y424872D01*
X709025Y424893D01*
X709093Y424911D01*
X709161Y424924D01*
X709230Y424934D01*
X709299Y424940D01*
X709369Y424942D01*
X711232Y424942D01*
X715349Y424942D02*
X713486Y419354D01*
X717211Y419354D02*
X715349Y424942D01*
X716746Y420751D02*
X713952Y420751D01*
X719283Y419354D02*
X720835Y419354D01*
X720912Y419356D01*
X720990Y419362D01*
X721066Y419371D01*
X721143Y419385D01*
X721218Y419402D01*
X721292Y419423D01*
X721366Y419448D01*
X721438Y419476D01*
X721508Y419508D01*
X721577Y419543D01*
X721644Y419582D01*
X721709Y419624D01*
X721772Y419669D01*
X721833Y419717D01*
X721891Y419768D01*
X721946Y419822D01*
X721999Y419879D01*
X722048Y419938D01*
X722095Y420000D01*
X722139Y420064D01*
X722179Y420130D01*
X722216Y420198D01*
X722250Y420268D01*
X722280Y420339D01*
X722306Y420412D01*
X722329Y420486D01*
X722348Y420561D01*
X722363Y420636D01*
X722375Y420713D01*
X722383Y420790D01*
X722387Y420867D01*
X722387Y420945D01*
X722383Y421022D01*
X722375Y421099D01*
X722363Y421176D01*
X722348Y421251D01*
X722329Y421326D01*
X722306Y421400D01*
X722280Y421473D01*
X722250Y421544D01*
X722216Y421614D01*
X722179Y421682D01*
X722139Y421748D01*
X722095Y421812D01*
X722048Y421874D01*
X721999Y421933D01*
X721946Y421990D01*
X721891Y422044D01*
X721833Y422095D01*
X721772Y422143D01*
X721709Y422188D01*
X721644Y422230D01*
X721577Y422269D01*
X721508Y422304D01*
X721438Y422336D01*
X721366Y422364D01*
X721292Y422389D01*
X721218Y422410D01*
X721143Y422427D01*
X721066Y422441D01*
X720990Y422450D01*
X720912Y422456D01*
X720835Y422458D01*
X721145Y424942D02*
X719283Y424942D01*
X721145Y424942D02*
X721215Y424940D01*
X721284Y424934D01*
X721353Y424924D01*
X721421Y424911D01*
X721489Y424893D01*
X721555Y424872D01*
X721620Y424847D01*
X721684Y424819D01*
X721746Y424787D01*
X721806Y424752D01*
X721864Y424713D01*
X721919Y424671D01*
X721973Y424626D01*
X722023Y424578D01*
X722071Y424528D01*
X722116Y424474D01*
X722158Y424419D01*
X722197Y424361D01*
X722232Y424301D01*
X722264Y424239D01*
X722292Y424175D01*
X722317Y424110D01*
X722338Y424044D01*
X722356Y423976D01*
X722369Y423908D01*
X722379Y423839D01*
X722385Y423770D01*
X722387Y423700D01*
X722385Y423630D01*
X722379Y423561D01*
X722369Y423492D01*
X722356Y423424D01*
X722338Y423356D01*
X722317Y423290D01*
X722292Y423225D01*
X722264Y423161D01*
X722232Y423099D01*
X722197Y423039D01*
X722158Y422981D01*
X722116Y422926D01*
X722071Y422872D01*
X722023Y422822D01*
X721973Y422774D01*
X721919Y422729D01*
X721864Y422687D01*
X721806Y422648D01*
X721746Y422613D01*
X721684Y422581D01*
X721620Y422553D01*
X721555Y422528D01*
X721489Y422507D01*
X721421Y422489D01*
X721353Y422476D01*
X721284Y422466D01*
X721215Y422460D01*
X721145Y422458D01*
X719904Y422458D01*
X726477Y424942D02*
X726550Y424940D01*
X726623Y424934D01*
X726696Y424925D01*
X726767Y424911D01*
X726839Y424894D01*
X726909Y424874D01*
X726978Y424849D01*
X727045Y424821D01*
X727111Y424790D01*
X727176Y424755D01*
X727238Y424717D01*
X727298Y424675D01*
X727356Y424631D01*
X727412Y424583D01*
X727465Y424533D01*
X727515Y424480D01*
X727563Y424424D01*
X727607Y424366D01*
X727649Y424306D01*
X727687Y424244D01*
X727722Y424179D01*
X727753Y424113D01*
X727781Y424046D01*
X727806Y423977D01*
X727826Y423907D01*
X727843Y423835D01*
X727857Y423764D01*
X727866Y423691D01*
X727872Y423618D01*
X727874Y423545D01*
X726477Y424942D02*
X726393Y424940D01*
X726310Y424934D01*
X726227Y424925D01*
X726145Y424911D01*
X726063Y424894D01*
X725982Y424872D01*
X725902Y424847D01*
X725824Y424819D01*
X725746Y424787D01*
X725671Y424751D01*
X725597Y424712D01*
X725525Y424669D01*
X725455Y424623D01*
X725388Y424574D01*
X725322Y424521D01*
X725260Y424466D01*
X725200Y424408D01*
X725142Y424347D01*
X725088Y424284D01*
X725036Y424218D01*
X724988Y424150D01*
X724943Y424079D01*
X724901Y424007D01*
X724863Y423932D01*
X724828Y423856D01*
X724797Y423779D01*
X724769Y423700D01*
X727407Y422459D02*
X727461Y422512D01*
X727512Y422569D01*
X727560Y422628D01*
X727605Y422689D01*
X727646Y422752D01*
X727685Y422818D01*
X727720Y422885D01*
X727752Y422954D01*
X727780Y423025D01*
X727804Y423096D01*
X727825Y423169D01*
X727842Y423243D01*
X727856Y423318D01*
X727865Y423393D01*
X727871Y423469D01*
X727873Y423545D01*
X727408Y422458D02*
X724769Y419354D01*
X727874Y419354D01*
X730256Y420906D02*
X730258Y420983D01*
X730264Y421061D01*
X730273Y421137D01*
X730287Y421214D01*
X730304Y421289D01*
X730325Y421363D01*
X730350Y421437D01*
X730378Y421509D01*
X730410Y421579D01*
X730445Y421648D01*
X730484Y421715D01*
X730526Y421780D01*
X730571Y421843D01*
X730619Y421904D01*
X730670Y421962D01*
X730724Y422017D01*
X730781Y422070D01*
X730840Y422119D01*
X730902Y422166D01*
X730966Y422210D01*
X731032Y422250D01*
X731100Y422287D01*
X731170Y422321D01*
X731241Y422351D01*
X731314Y422377D01*
X731388Y422400D01*
X731463Y422419D01*
X731538Y422434D01*
X731615Y422446D01*
X731692Y422454D01*
X731769Y422458D01*
X731847Y422458D01*
X731924Y422454D01*
X732001Y422446D01*
X732078Y422434D01*
X732153Y422419D01*
X732228Y422400D01*
X732302Y422377D01*
X732375Y422351D01*
X732446Y422321D01*
X732516Y422287D01*
X732584Y422250D01*
X732650Y422210D01*
X732714Y422166D01*
X732776Y422119D01*
X732835Y422070D01*
X732892Y422017D01*
X732946Y421962D01*
X732997Y421904D01*
X733045Y421843D01*
X733090Y421780D01*
X733132Y421715D01*
X733171Y421648D01*
X733206Y421579D01*
X733238Y421509D01*
X733266Y421437D01*
X733291Y421363D01*
X733312Y421289D01*
X733329Y421214D01*
X733343Y421137D01*
X733352Y421061D01*
X733358Y420983D01*
X733360Y420906D01*
X733358Y420829D01*
X733352Y420751D01*
X733343Y420675D01*
X733329Y420598D01*
X733312Y420523D01*
X733291Y420449D01*
X733266Y420375D01*
X733238Y420303D01*
X733206Y420233D01*
X733171Y420164D01*
X733132Y420097D01*
X733090Y420032D01*
X733045Y419969D01*
X732997Y419908D01*
X732946Y419850D01*
X732892Y419795D01*
X732835Y419742D01*
X732776Y419693D01*
X732714Y419646D01*
X732650Y419602D01*
X732584Y419562D01*
X732516Y419525D01*
X732446Y419491D01*
X732375Y419461D01*
X732302Y419435D01*
X732228Y419412D01*
X732153Y419393D01*
X732078Y419378D01*
X732001Y419366D01*
X731924Y419358D01*
X731847Y419354D01*
X731769Y419354D01*
X731692Y419358D01*
X731615Y419366D01*
X731538Y419378D01*
X731463Y419393D01*
X731388Y419412D01*
X731314Y419435D01*
X731241Y419461D01*
X731170Y419491D01*
X731100Y419525D01*
X731032Y419562D01*
X730966Y419602D01*
X730902Y419646D01*
X730840Y419693D01*
X730781Y419742D01*
X730724Y419795D01*
X730670Y419850D01*
X730619Y419908D01*
X730571Y419969D01*
X730526Y420032D01*
X730484Y420097D01*
X730445Y420164D01*
X730410Y420233D01*
X730378Y420303D01*
X730350Y420375D01*
X730325Y420449D01*
X730304Y420523D01*
X730287Y420598D01*
X730273Y420675D01*
X730264Y420751D01*
X730258Y420829D01*
X730256Y420906D01*
X730566Y423700D02*
X730568Y423770D01*
X730574Y423839D01*
X730584Y423908D01*
X730597Y423976D01*
X730615Y424044D01*
X730636Y424110D01*
X730661Y424175D01*
X730689Y424239D01*
X730721Y424301D01*
X730756Y424361D01*
X730795Y424419D01*
X730837Y424474D01*
X730882Y424528D01*
X730930Y424578D01*
X730980Y424626D01*
X731034Y424671D01*
X731089Y424713D01*
X731147Y424752D01*
X731207Y424787D01*
X731269Y424819D01*
X731333Y424847D01*
X731398Y424872D01*
X731464Y424893D01*
X731532Y424911D01*
X731600Y424924D01*
X731669Y424934D01*
X731738Y424940D01*
X731808Y424942D01*
X731878Y424940D01*
X731947Y424934D01*
X732016Y424924D01*
X732084Y424911D01*
X732152Y424893D01*
X732218Y424872D01*
X732283Y424847D01*
X732347Y424819D01*
X732409Y424787D01*
X732469Y424752D01*
X732527Y424713D01*
X732582Y424671D01*
X732636Y424626D01*
X732686Y424578D01*
X732734Y424528D01*
X732779Y424474D01*
X732821Y424419D01*
X732860Y424361D01*
X732895Y424301D01*
X732927Y424239D01*
X732955Y424175D01*
X732980Y424110D01*
X733001Y424044D01*
X733019Y423976D01*
X733032Y423908D01*
X733042Y423839D01*
X733048Y423770D01*
X733050Y423700D01*
X733048Y423630D01*
X733042Y423561D01*
X733032Y423492D01*
X733019Y423424D01*
X733001Y423356D01*
X732980Y423290D01*
X732955Y423225D01*
X732927Y423161D01*
X732895Y423099D01*
X732860Y423039D01*
X732821Y422981D01*
X732779Y422926D01*
X732734Y422872D01*
X732686Y422822D01*
X732636Y422774D01*
X732582Y422729D01*
X732527Y422687D01*
X732469Y422648D01*
X732409Y422613D01*
X732347Y422581D01*
X732283Y422553D01*
X732218Y422528D01*
X732152Y422507D01*
X732084Y422489D01*
X732016Y422476D01*
X731947Y422466D01*
X731878Y422460D01*
X731808Y422458D01*
X731738Y422460D01*
X731669Y422466D01*
X731600Y422476D01*
X731532Y422489D01*
X731464Y422507D01*
X731398Y422528D01*
X731333Y422553D01*
X731269Y422581D01*
X731207Y422613D01*
X731147Y422648D01*
X731089Y422687D01*
X731034Y422729D01*
X730980Y422774D01*
X730930Y422822D01*
X730882Y422872D01*
X730837Y422926D01*
X730795Y422981D01*
X730756Y423039D01*
X730721Y423099D01*
X730689Y423161D01*
X730661Y423225D01*
X730636Y423290D01*
X730615Y423356D01*
X730597Y423424D01*
X730584Y423492D01*
X730574Y423561D01*
X730568Y423630D01*
X730566Y423700D01*
X736008Y424942D02*
X736008Y419354D01*
X736008Y424942D02*
X737560Y424942D01*
X737637Y424940D01*
X737715Y424934D01*
X737791Y424925D01*
X737868Y424911D01*
X737943Y424894D01*
X738017Y424873D01*
X738091Y424848D01*
X738163Y424820D01*
X738233Y424788D01*
X738302Y424753D01*
X738369Y424714D01*
X738434Y424672D01*
X738497Y424627D01*
X738558Y424579D01*
X738616Y424528D01*
X738671Y424474D01*
X738724Y424417D01*
X738773Y424358D01*
X738820Y424296D01*
X738864Y424232D01*
X738904Y424166D01*
X738941Y424098D01*
X738975Y424028D01*
X739005Y423957D01*
X739031Y423884D01*
X739054Y423810D01*
X739073Y423735D01*
X739088Y423660D01*
X739100Y423583D01*
X739108Y423506D01*
X739112Y423429D01*
X739112Y423351D01*
X739108Y423274D01*
X739100Y423197D01*
X739088Y423120D01*
X739073Y423045D01*
X739054Y422970D01*
X739031Y422896D01*
X739005Y422823D01*
X738975Y422752D01*
X738941Y422682D01*
X738904Y422614D01*
X738864Y422548D01*
X738820Y422484D01*
X738773Y422422D01*
X738724Y422363D01*
X738671Y422306D01*
X738616Y422252D01*
X738558Y422201D01*
X738497Y422153D01*
X738434Y422108D01*
X738369Y422066D01*
X738302Y422027D01*
X738233Y421992D01*
X738163Y421960D01*
X738091Y421932D01*
X738017Y421907D01*
X737943Y421886D01*
X737868Y421869D01*
X737791Y421855D01*
X737715Y421846D01*
X737637Y421840D01*
X737560Y421838D01*
X736008Y421838D01*
X745341Y419354D02*
X745341Y424942D01*
X746893Y424942D02*
X743788Y424942D01*
X749785Y419354D02*
X751337Y419354D01*
X749785Y419354D02*
X749727Y419356D01*
X749668Y419361D01*
X749611Y419370D01*
X749553Y419383D01*
X749497Y419400D01*
X749442Y419419D01*
X749389Y419443D01*
X749336Y419469D01*
X749286Y419499D01*
X749238Y419532D01*
X749192Y419568D01*
X749148Y419606D01*
X749106Y419648D01*
X749068Y419692D01*
X749032Y419738D01*
X748999Y419786D01*
X748969Y419836D01*
X748943Y419889D01*
X748919Y419942D01*
X748900Y419997D01*
X748883Y420053D01*
X748870Y420111D01*
X748861Y420168D01*
X748856Y420227D01*
X748854Y420285D01*
X748854Y421838D01*
X748856Y421908D01*
X748862Y421977D01*
X748872Y422046D01*
X748885Y422114D01*
X748903Y422182D01*
X748924Y422248D01*
X748949Y422313D01*
X748977Y422377D01*
X749009Y422439D01*
X749044Y422499D01*
X749083Y422557D01*
X749125Y422612D01*
X749170Y422666D01*
X749218Y422716D01*
X749268Y422764D01*
X749322Y422809D01*
X749377Y422851D01*
X749435Y422890D01*
X749495Y422925D01*
X749557Y422957D01*
X749621Y422985D01*
X749686Y423010D01*
X749752Y423031D01*
X749820Y423049D01*
X749888Y423062D01*
X749957Y423072D01*
X750026Y423078D01*
X750096Y423080D01*
X750166Y423078D01*
X750235Y423072D01*
X750304Y423062D01*
X750372Y423049D01*
X750440Y423031D01*
X750506Y423010D01*
X750571Y422985D01*
X750635Y422957D01*
X750697Y422925D01*
X750757Y422890D01*
X750815Y422851D01*
X750870Y422809D01*
X750924Y422764D01*
X750974Y422716D01*
X751022Y422666D01*
X751067Y422612D01*
X751109Y422557D01*
X751148Y422499D01*
X751183Y422439D01*
X751215Y422377D01*
X751243Y422313D01*
X751268Y422248D01*
X751289Y422182D01*
X751307Y422114D01*
X751320Y422046D01*
X751330Y421977D01*
X751336Y421908D01*
X751338Y421838D01*
X751337Y421838D02*
X751337Y421217D01*
X748854Y421217D01*
X754074Y421527D02*
X755626Y420906D01*
X754074Y421527D02*
X754023Y421549D01*
X753974Y421575D01*
X753926Y421604D01*
X753881Y421637D01*
X753838Y421673D01*
X753797Y421711D01*
X753760Y421753D01*
X753725Y421796D01*
X753693Y421842D01*
X753665Y421891D01*
X753640Y421941D01*
X753619Y421992D01*
X753601Y422045D01*
X753587Y422099D01*
X753577Y422154D01*
X753571Y422210D01*
X753568Y422265D01*
X753569Y422321D01*
X753575Y422377D01*
X753584Y422432D01*
X753596Y422486D01*
X753613Y422540D01*
X753633Y422592D01*
X753657Y422642D01*
X753684Y422691D01*
X753715Y422738D01*
X753749Y422782D01*
X753785Y422824D01*
X753825Y422864D01*
X753867Y422900D01*
X753912Y422934D01*
X753959Y422964D01*
X754007Y422991D01*
X754058Y423015D01*
X754110Y423035D01*
X754164Y423051D01*
X754218Y423064D01*
X754273Y423073D01*
X754329Y423078D01*
X754385Y423079D01*
X754384Y423080D02*
X754495Y423076D01*
X754606Y423070D01*
X754716Y423059D01*
X754826Y423045D01*
X754936Y423028D01*
X755045Y423008D01*
X755153Y422984D01*
X755260Y422956D01*
X755367Y422925D01*
X755472Y422891D01*
X755577Y422854D01*
X755680Y422813D01*
X755782Y422769D01*
X755627Y420906D02*
X755678Y420884D01*
X755727Y420858D01*
X755775Y420829D01*
X755820Y420796D01*
X755863Y420760D01*
X755904Y420722D01*
X755941Y420680D01*
X755976Y420637D01*
X756008Y420591D01*
X756036Y420542D01*
X756061Y420492D01*
X756082Y420441D01*
X756100Y420388D01*
X756114Y420334D01*
X756124Y420279D01*
X756130Y420223D01*
X756133Y420168D01*
X756132Y420112D01*
X756126Y420056D01*
X756117Y420001D01*
X756105Y419947D01*
X756088Y419893D01*
X756068Y419841D01*
X756044Y419791D01*
X756017Y419742D01*
X755986Y419695D01*
X755952Y419651D01*
X755916Y419609D01*
X755876Y419569D01*
X755834Y419533D01*
X755789Y419499D01*
X755742Y419469D01*
X755694Y419442D01*
X755643Y419418D01*
X755591Y419398D01*
X755537Y419382D01*
X755483Y419369D01*
X755428Y419360D01*
X755372Y419355D01*
X755316Y419354D01*
X755182Y419357D01*
X755048Y419364D01*
X754914Y419375D01*
X754781Y419388D01*
X754648Y419406D01*
X754515Y419426D01*
X754383Y419450D01*
X754252Y419478D01*
X754121Y419508D01*
X753992Y419542D01*
X753863Y419580D01*
X753735Y419620D01*
X753608Y419664D01*
X757897Y423079D02*
X759760Y423079D01*
X758518Y424942D02*
X758518Y420285D01*
X758520Y420227D01*
X758525Y420168D01*
X758534Y420111D01*
X758547Y420053D01*
X758564Y419997D01*
X758583Y419942D01*
X758607Y419889D01*
X758633Y419836D01*
X758663Y419786D01*
X758696Y419738D01*
X758732Y419692D01*
X758770Y419648D01*
X758812Y419606D01*
X758856Y419568D01*
X758902Y419532D01*
X758950Y419499D01*
X759001Y419469D01*
X759053Y419443D01*
X759106Y419419D01*
X759161Y419400D01*
X759217Y419383D01*
X759275Y419370D01*
X759332Y419361D01*
X759391Y419356D01*
X759449Y419354D01*
X759760Y419354D01*
X765085Y422458D02*
X766638Y422458D01*
X766715Y422456D01*
X766793Y422450D01*
X766869Y422441D01*
X766946Y422427D01*
X767021Y422410D01*
X767095Y422389D01*
X767169Y422364D01*
X767241Y422336D01*
X767311Y422304D01*
X767380Y422269D01*
X767447Y422230D01*
X767512Y422188D01*
X767575Y422143D01*
X767636Y422095D01*
X767694Y422044D01*
X767749Y421990D01*
X767802Y421933D01*
X767851Y421874D01*
X767898Y421812D01*
X767942Y421748D01*
X767982Y421682D01*
X768019Y421614D01*
X768053Y421544D01*
X768083Y421473D01*
X768109Y421400D01*
X768132Y421326D01*
X768151Y421251D01*
X768166Y421176D01*
X768178Y421099D01*
X768186Y421022D01*
X768190Y420945D01*
X768190Y420867D01*
X768186Y420790D01*
X768178Y420713D01*
X768166Y420636D01*
X768151Y420561D01*
X768132Y420486D01*
X768109Y420412D01*
X768083Y420339D01*
X768053Y420268D01*
X768019Y420198D01*
X767982Y420130D01*
X767942Y420064D01*
X767898Y420000D01*
X767851Y419938D01*
X767802Y419879D01*
X767749Y419822D01*
X767694Y419768D01*
X767636Y419717D01*
X767575Y419669D01*
X767512Y419624D01*
X767447Y419582D01*
X767380Y419543D01*
X767311Y419508D01*
X767241Y419476D01*
X767169Y419448D01*
X767095Y419423D01*
X767021Y419402D01*
X766946Y419385D01*
X766869Y419371D01*
X766793Y419362D01*
X766715Y419356D01*
X766638Y419354D01*
X765085Y419354D01*
X765085Y424942D01*
X766638Y424942D01*
X766708Y424940D01*
X766777Y424934D01*
X766846Y424924D01*
X766914Y424911D01*
X766982Y424893D01*
X767048Y424872D01*
X767113Y424847D01*
X767177Y424819D01*
X767239Y424787D01*
X767299Y424752D01*
X767357Y424713D01*
X767412Y424671D01*
X767466Y424626D01*
X767516Y424578D01*
X767564Y424528D01*
X767609Y424474D01*
X767651Y424419D01*
X767690Y424361D01*
X767725Y424301D01*
X767757Y424239D01*
X767785Y424175D01*
X767810Y424110D01*
X767831Y424044D01*
X767849Y423976D01*
X767862Y423908D01*
X767872Y423839D01*
X767878Y423770D01*
X767880Y423700D01*
X767878Y423630D01*
X767872Y423561D01*
X767862Y423492D01*
X767849Y423424D01*
X767831Y423356D01*
X767810Y423290D01*
X767785Y423225D01*
X767757Y423161D01*
X767725Y423099D01*
X767690Y423039D01*
X767651Y422981D01*
X767609Y422926D01*
X767564Y422872D01*
X767516Y422822D01*
X767466Y422774D01*
X767412Y422729D01*
X767357Y422687D01*
X767299Y422648D01*
X767239Y422613D01*
X767177Y422581D01*
X767113Y422553D01*
X767048Y422528D01*
X766982Y422507D01*
X766914Y422489D01*
X766846Y422476D01*
X766777Y422466D01*
X766708Y422460D01*
X766638Y422458D01*
X770251Y421838D02*
X770251Y420596D01*
X770250Y421838D02*
X770252Y421908D01*
X770258Y421977D01*
X770268Y422046D01*
X770281Y422114D01*
X770299Y422182D01*
X770320Y422248D01*
X770345Y422313D01*
X770373Y422377D01*
X770405Y422439D01*
X770440Y422499D01*
X770479Y422557D01*
X770521Y422612D01*
X770566Y422666D01*
X770614Y422716D01*
X770664Y422764D01*
X770718Y422809D01*
X770773Y422851D01*
X770831Y422890D01*
X770891Y422925D01*
X770953Y422957D01*
X771017Y422985D01*
X771082Y423010D01*
X771148Y423031D01*
X771216Y423049D01*
X771284Y423062D01*
X771353Y423072D01*
X771422Y423078D01*
X771492Y423080D01*
X771562Y423078D01*
X771631Y423072D01*
X771700Y423062D01*
X771768Y423049D01*
X771836Y423031D01*
X771902Y423010D01*
X771967Y422985D01*
X772031Y422957D01*
X772093Y422925D01*
X772153Y422890D01*
X772211Y422851D01*
X772266Y422809D01*
X772320Y422764D01*
X772370Y422716D01*
X772418Y422666D01*
X772463Y422612D01*
X772505Y422557D01*
X772544Y422499D01*
X772579Y422439D01*
X772611Y422377D01*
X772639Y422313D01*
X772664Y422248D01*
X772685Y422182D01*
X772703Y422114D01*
X772716Y422046D01*
X772726Y421977D01*
X772732Y421908D01*
X772734Y421838D01*
X772734Y420596D01*
X772732Y420526D01*
X772726Y420457D01*
X772716Y420388D01*
X772703Y420320D01*
X772685Y420252D01*
X772664Y420186D01*
X772639Y420121D01*
X772611Y420057D01*
X772579Y419995D01*
X772544Y419935D01*
X772505Y419877D01*
X772463Y419822D01*
X772418Y419768D01*
X772370Y419718D01*
X772320Y419670D01*
X772266Y419625D01*
X772211Y419583D01*
X772153Y419544D01*
X772093Y419509D01*
X772031Y419477D01*
X771967Y419449D01*
X771902Y419424D01*
X771836Y419403D01*
X771768Y419385D01*
X771700Y419372D01*
X771631Y419362D01*
X771562Y419356D01*
X771492Y419354D01*
X771422Y419356D01*
X771353Y419362D01*
X771284Y419372D01*
X771216Y419385D01*
X771148Y419403D01*
X771082Y419424D01*
X771017Y419449D01*
X770953Y419477D01*
X770891Y419509D01*
X770831Y419544D01*
X770773Y419583D01*
X770718Y419625D01*
X770664Y419670D01*
X770614Y419718D01*
X770566Y419768D01*
X770521Y419822D01*
X770479Y419877D01*
X770440Y419935D01*
X770405Y419995D01*
X770373Y420057D01*
X770345Y420121D01*
X770320Y420186D01*
X770299Y420252D01*
X770281Y420320D01*
X770268Y420388D01*
X770258Y420457D01*
X770252Y420526D01*
X770250Y420596D01*
X776063Y421527D02*
X777460Y421527D01*
X776063Y421528D02*
X775999Y421526D01*
X775934Y421520D01*
X775871Y421511D01*
X775808Y421498D01*
X775746Y421481D01*
X775685Y421460D01*
X775625Y421436D01*
X775567Y421408D01*
X775510Y421377D01*
X775456Y421343D01*
X775403Y421305D01*
X775353Y421264D01*
X775306Y421221D01*
X775261Y421175D01*
X775219Y421126D01*
X775180Y421075D01*
X775144Y421021D01*
X775111Y420966D01*
X775082Y420908D01*
X775056Y420850D01*
X775033Y420789D01*
X775014Y420728D01*
X774999Y420665D01*
X774988Y420601D01*
X774980Y420538D01*
X774976Y420473D01*
X774976Y420409D01*
X774980Y420344D01*
X774988Y420281D01*
X774999Y420217D01*
X775014Y420154D01*
X775033Y420093D01*
X775056Y420032D01*
X775082Y419974D01*
X775111Y419916D01*
X775144Y419861D01*
X775180Y419807D01*
X775219Y419756D01*
X775261Y419707D01*
X775306Y419661D01*
X775353Y419618D01*
X775403Y419577D01*
X775456Y419539D01*
X775510Y419505D01*
X775567Y419474D01*
X775625Y419446D01*
X775685Y419422D01*
X775746Y419401D01*
X775808Y419384D01*
X775871Y419371D01*
X775934Y419362D01*
X775999Y419356D01*
X776063Y419354D01*
X777460Y419354D01*
X777460Y422148D01*
X777458Y422206D01*
X777453Y422265D01*
X777444Y422322D01*
X777431Y422380D01*
X777414Y422436D01*
X777395Y422491D01*
X777371Y422544D01*
X777345Y422597D01*
X777315Y422647D01*
X777282Y422695D01*
X777246Y422741D01*
X777208Y422785D01*
X777166Y422827D01*
X777122Y422865D01*
X777076Y422901D01*
X777028Y422934D01*
X776978Y422964D01*
X776925Y422990D01*
X776872Y423014D01*
X776817Y423033D01*
X776761Y423050D01*
X776703Y423063D01*
X776646Y423072D01*
X776587Y423077D01*
X776529Y423079D01*
X775287Y423079D01*
X780159Y423079D02*
X780159Y419354D01*
X780159Y423079D02*
X782021Y423079D01*
X782021Y422458D01*
X786238Y424942D02*
X786238Y419354D01*
X784686Y419354D01*
X784628Y419356D01*
X784569Y419361D01*
X784512Y419370D01*
X784454Y419383D01*
X784398Y419400D01*
X784343Y419419D01*
X784290Y419443D01*
X784237Y419469D01*
X784187Y419499D01*
X784139Y419532D01*
X784093Y419568D01*
X784049Y419606D01*
X784007Y419648D01*
X783969Y419692D01*
X783933Y419738D01*
X783900Y419786D01*
X783870Y419836D01*
X783844Y419889D01*
X783820Y419942D01*
X783801Y419997D01*
X783784Y420053D01*
X783771Y420111D01*
X783762Y420168D01*
X783757Y420227D01*
X783755Y420285D01*
X783755Y422148D01*
X783757Y422206D01*
X783762Y422265D01*
X783771Y422322D01*
X783784Y422380D01*
X783801Y422436D01*
X783820Y422491D01*
X783844Y422544D01*
X783870Y422597D01*
X783900Y422647D01*
X783933Y422695D01*
X783969Y422741D01*
X784007Y422785D01*
X784049Y422827D01*
X784093Y422865D01*
X784139Y422901D01*
X784187Y422934D01*
X784237Y422964D01*
X784290Y422990D01*
X784343Y423014D01*
X784398Y423033D01*
X784454Y423050D01*
X784512Y423063D01*
X784569Y423072D01*
X784628Y423077D01*
X784686Y423079D01*
X786238Y423079D01*
D10*
X639826Y585018D02*
X639826Y587615D01*
X639826Y585018D02*
X639824Y584919D01*
X639818Y584819D01*
X639809Y584720D01*
X639796Y584622D01*
X639779Y584524D01*
X639758Y584426D01*
X639733Y584330D01*
X639705Y584235D01*
X639673Y584141D01*
X639638Y584048D01*
X639599Y583956D01*
X639556Y583866D01*
X639511Y583778D01*
X639461Y583691D01*
X639409Y583607D01*
X639353Y583524D01*
X639295Y583444D01*
X639233Y583366D01*
X639168Y583291D01*
X639100Y583218D01*
X639030Y583148D01*
X638957Y583080D01*
X638882Y583015D01*
X638804Y582953D01*
X638724Y582895D01*
X638641Y582839D01*
X638557Y582787D01*
X638470Y582737D01*
X638382Y582692D01*
X638292Y582649D01*
X638200Y582610D01*
X638107Y582575D01*
X638013Y582543D01*
X637918Y582515D01*
X637822Y582490D01*
X637724Y582469D01*
X637626Y582452D01*
X637528Y582439D01*
X637429Y582430D01*
X637329Y582424D01*
X637230Y582422D01*
X630738Y582422D01*
X630639Y582424D01*
X630539Y582430D01*
X630440Y582439D01*
X630342Y582452D01*
X630244Y582470D01*
X630146Y582490D01*
X630050Y582515D01*
X629954Y582543D01*
X629860Y582575D01*
X629767Y582610D01*
X629676Y582649D01*
X629586Y582692D01*
X629497Y582737D01*
X629411Y582787D01*
X629326Y582839D01*
X629244Y582895D01*
X629164Y582954D01*
X629086Y583015D01*
X629010Y583080D01*
X628937Y583148D01*
X628867Y583218D01*
X628799Y583291D01*
X628734Y583367D01*
X628673Y583445D01*
X628614Y583525D01*
X628558Y583607D01*
X628506Y583692D01*
X628457Y583778D01*
X628411Y583867D01*
X628368Y583957D01*
X628329Y584048D01*
X628294Y584141D01*
X628262Y584235D01*
X628234Y584331D01*
X628209Y584427D01*
X628189Y584525D01*
X628171Y584623D01*
X628158Y584721D01*
X628149Y584820D01*
X628143Y584919D01*
X628141Y585019D01*
X628142Y585018D02*
X628142Y587615D01*
X630738Y591980D02*
X628142Y595226D01*
X639826Y595226D01*
X639826Y598471D02*
X639826Y591980D01*
X682554Y540258D02*
X685151Y540258D01*
X682554Y540258D02*
X682455Y540260D01*
X682355Y540266D01*
X682256Y540275D01*
X682158Y540288D01*
X682060Y540305D01*
X681962Y540326D01*
X681866Y540351D01*
X681771Y540379D01*
X681677Y540411D01*
X681584Y540446D01*
X681492Y540485D01*
X681402Y540528D01*
X681314Y540573D01*
X681227Y540623D01*
X681143Y540675D01*
X681060Y540731D01*
X680980Y540789D01*
X680902Y540851D01*
X680827Y540916D01*
X680754Y540984D01*
X680684Y541054D01*
X680616Y541127D01*
X680551Y541202D01*
X680489Y541280D01*
X680431Y541360D01*
X680375Y541443D01*
X680323Y541527D01*
X680273Y541614D01*
X680228Y541702D01*
X680185Y541792D01*
X680146Y541884D01*
X680111Y541977D01*
X680079Y542071D01*
X680051Y542166D01*
X680026Y542262D01*
X680005Y542360D01*
X679988Y542458D01*
X679975Y542556D01*
X679966Y542655D01*
X679960Y542755D01*
X679958Y542854D01*
X679958Y549346D01*
X679960Y549445D01*
X679966Y549545D01*
X679975Y549644D01*
X679988Y549742D01*
X680005Y549840D01*
X680026Y549938D01*
X680051Y550034D01*
X680079Y550129D01*
X680111Y550223D01*
X680146Y550316D01*
X680185Y550408D01*
X680228Y550498D01*
X680273Y550586D01*
X680323Y550673D01*
X680375Y550757D01*
X680431Y550840D01*
X680489Y550920D01*
X680551Y550998D01*
X680616Y551073D01*
X680684Y551146D01*
X680754Y551216D01*
X680827Y551284D01*
X680902Y551349D01*
X680980Y551411D01*
X681060Y551469D01*
X681143Y551525D01*
X681227Y551577D01*
X681314Y551627D01*
X681402Y551672D01*
X681492Y551715D01*
X681584Y551754D01*
X681676Y551789D01*
X681771Y551821D01*
X681866Y551849D01*
X681962Y551874D01*
X682060Y551895D01*
X682158Y551912D01*
X682256Y551925D01*
X682355Y551934D01*
X682455Y551940D01*
X682554Y551942D01*
X685151Y551942D01*
X693086Y551942D02*
X693193Y551940D01*
X693299Y551934D01*
X693405Y551924D01*
X693511Y551911D01*
X693617Y551893D01*
X693721Y551872D01*
X693825Y551847D01*
X693928Y551818D01*
X694029Y551786D01*
X694129Y551749D01*
X694228Y551709D01*
X694326Y551666D01*
X694422Y551619D01*
X694516Y551568D01*
X694608Y551514D01*
X694698Y551457D01*
X694786Y551397D01*
X694871Y551333D01*
X694954Y551266D01*
X695035Y551196D01*
X695113Y551124D01*
X695189Y551048D01*
X695261Y550970D01*
X695331Y550889D01*
X695398Y550806D01*
X695462Y550721D01*
X695522Y550633D01*
X695579Y550543D01*
X695633Y550451D01*
X695684Y550357D01*
X695731Y550261D01*
X695774Y550163D01*
X695814Y550064D01*
X695851Y549964D01*
X695883Y549863D01*
X695912Y549760D01*
X695937Y549656D01*
X695958Y549552D01*
X695976Y549446D01*
X695989Y549340D01*
X695999Y549234D01*
X696005Y549128D01*
X696007Y549021D01*
X693086Y551942D02*
X692965Y551940D01*
X692844Y551934D01*
X692724Y551924D01*
X692603Y551911D01*
X692484Y551893D01*
X692364Y551872D01*
X692246Y551847D01*
X692129Y551818D01*
X692012Y551785D01*
X691897Y551749D01*
X691783Y551708D01*
X691670Y551665D01*
X691558Y551617D01*
X691449Y551566D01*
X691341Y551511D01*
X691234Y551453D01*
X691130Y551392D01*
X691028Y551327D01*
X690928Y551259D01*
X690830Y551188D01*
X690734Y551114D01*
X690641Y551037D01*
X690551Y550956D01*
X690463Y550873D01*
X690378Y550787D01*
X690295Y550698D01*
X690216Y550607D01*
X690139Y550513D01*
X690066Y550417D01*
X689996Y550319D01*
X689929Y550218D01*
X689865Y550115D01*
X689805Y550010D01*
X689748Y549903D01*
X689694Y549795D01*
X689644Y549685D01*
X689598Y549573D01*
X689555Y549460D01*
X689516Y549345D01*
X695034Y546749D02*
X695113Y546826D01*
X695189Y546907D01*
X695262Y546990D01*
X695332Y547075D01*
X695399Y547163D01*
X695463Y547253D01*
X695523Y547345D01*
X695580Y547440D01*
X695634Y547536D01*
X695685Y547634D01*
X695732Y547734D01*
X695776Y547836D01*
X695816Y547939D01*
X695852Y548043D01*
X695884Y548149D01*
X695913Y548255D01*
X695938Y548363D01*
X695960Y548471D01*
X695977Y548581D01*
X695991Y548690D01*
X696000Y548800D01*
X696006Y548911D01*
X696008Y549021D01*
X695034Y546749D02*
X689516Y540258D01*
X696007Y540258D01*
X685151Y597408D02*
X682554Y597408D01*
X682455Y597410D01*
X682355Y597416D01*
X682256Y597425D01*
X682158Y597438D01*
X682060Y597455D01*
X681962Y597476D01*
X681866Y597501D01*
X681771Y597529D01*
X681677Y597561D01*
X681584Y597596D01*
X681492Y597635D01*
X681402Y597678D01*
X681314Y597723D01*
X681227Y597773D01*
X681143Y597825D01*
X681060Y597881D01*
X680980Y597939D01*
X680902Y598001D01*
X680827Y598066D01*
X680754Y598134D01*
X680684Y598204D01*
X680616Y598277D01*
X680551Y598352D01*
X680489Y598430D01*
X680431Y598510D01*
X680375Y598593D01*
X680323Y598677D01*
X680273Y598764D01*
X680228Y598852D01*
X680185Y598942D01*
X680146Y599034D01*
X680111Y599127D01*
X680079Y599221D01*
X680051Y599316D01*
X680026Y599412D01*
X680005Y599510D01*
X679988Y599608D01*
X679975Y599706D01*
X679966Y599805D01*
X679960Y599905D01*
X679958Y600004D01*
X679958Y606496D01*
X679960Y606595D01*
X679966Y606695D01*
X679975Y606794D01*
X679988Y606892D01*
X680005Y606990D01*
X680026Y607088D01*
X680051Y607184D01*
X680079Y607279D01*
X680111Y607373D01*
X680146Y607466D01*
X680185Y607558D01*
X680228Y607648D01*
X680273Y607736D01*
X680323Y607823D01*
X680375Y607907D01*
X680431Y607990D01*
X680489Y608070D01*
X680551Y608148D01*
X680616Y608223D01*
X680684Y608296D01*
X680754Y608366D01*
X680827Y608434D01*
X680902Y608499D01*
X680980Y608561D01*
X681060Y608619D01*
X681143Y608675D01*
X681227Y608727D01*
X681314Y608777D01*
X681402Y608822D01*
X681492Y608865D01*
X681584Y608904D01*
X681676Y608939D01*
X681771Y608971D01*
X681866Y608999D01*
X681962Y609024D01*
X682060Y609045D01*
X682158Y609062D01*
X682256Y609075D01*
X682355Y609084D01*
X682455Y609090D01*
X682554Y609092D01*
X685151Y609092D01*
X692113Y609092D02*
X689516Y600004D01*
X696007Y600004D01*
X694060Y602601D02*
X694060Y597408D01*
X647559Y752094D02*
X644962Y752094D01*
X644863Y752096D01*
X644763Y752102D01*
X644664Y752111D01*
X644566Y752124D01*
X644468Y752141D01*
X644370Y752162D01*
X644274Y752187D01*
X644179Y752215D01*
X644085Y752247D01*
X643992Y752282D01*
X643900Y752321D01*
X643810Y752364D01*
X643722Y752409D01*
X643635Y752459D01*
X643551Y752511D01*
X643468Y752567D01*
X643388Y752625D01*
X643310Y752687D01*
X643235Y752752D01*
X643162Y752820D01*
X643092Y752890D01*
X643024Y752963D01*
X642959Y753038D01*
X642897Y753116D01*
X642839Y753196D01*
X642783Y753279D01*
X642731Y753363D01*
X642681Y753450D01*
X642636Y753538D01*
X642593Y753628D01*
X642554Y753720D01*
X642519Y753813D01*
X642487Y753907D01*
X642459Y754002D01*
X642434Y754098D01*
X642413Y754196D01*
X642396Y754294D01*
X642383Y754392D01*
X642374Y754491D01*
X642368Y754591D01*
X642366Y754690D01*
X642366Y761182D01*
X642368Y761281D01*
X642374Y761381D01*
X642383Y761480D01*
X642396Y761578D01*
X642413Y761676D01*
X642434Y761774D01*
X642459Y761870D01*
X642487Y761965D01*
X642519Y762059D01*
X642554Y762152D01*
X642593Y762244D01*
X642636Y762334D01*
X642681Y762422D01*
X642731Y762509D01*
X642783Y762593D01*
X642839Y762676D01*
X642897Y762756D01*
X642959Y762834D01*
X643024Y762909D01*
X643092Y762982D01*
X643162Y763052D01*
X643235Y763120D01*
X643310Y763185D01*
X643388Y763247D01*
X643468Y763305D01*
X643551Y763361D01*
X643635Y763413D01*
X643722Y763463D01*
X643810Y763508D01*
X643900Y763551D01*
X643992Y763590D01*
X644084Y763625D01*
X644179Y763657D01*
X644274Y763685D01*
X644370Y763710D01*
X644468Y763731D01*
X644566Y763748D01*
X644664Y763761D01*
X644763Y763770D01*
X644863Y763776D01*
X644962Y763778D01*
X647559Y763778D01*
X651924Y752094D02*
X655819Y752094D01*
X655918Y752096D01*
X656018Y752102D01*
X656117Y752111D01*
X656215Y752124D01*
X656313Y752141D01*
X656411Y752162D01*
X656507Y752187D01*
X656602Y752215D01*
X656696Y752247D01*
X656789Y752282D01*
X656881Y752321D01*
X656971Y752364D01*
X657059Y752409D01*
X657146Y752459D01*
X657230Y752511D01*
X657313Y752567D01*
X657393Y752625D01*
X657471Y752687D01*
X657546Y752752D01*
X657619Y752820D01*
X657689Y752890D01*
X657757Y752963D01*
X657822Y753038D01*
X657884Y753116D01*
X657942Y753196D01*
X657998Y753279D01*
X658050Y753363D01*
X658100Y753450D01*
X658145Y753538D01*
X658188Y753628D01*
X658227Y753720D01*
X658262Y753813D01*
X658294Y753907D01*
X658322Y754002D01*
X658347Y754098D01*
X658368Y754196D01*
X658385Y754294D01*
X658398Y754392D01*
X658407Y754491D01*
X658413Y754591D01*
X658415Y754690D01*
X658415Y755989D01*
X658413Y756088D01*
X658407Y756188D01*
X658398Y756287D01*
X658385Y756385D01*
X658368Y756483D01*
X658347Y756581D01*
X658322Y756677D01*
X658294Y756772D01*
X658262Y756866D01*
X658227Y756959D01*
X658188Y757051D01*
X658145Y757141D01*
X658100Y757229D01*
X658050Y757316D01*
X657998Y757400D01*
X657942Y757483D01*
X657884Y757563D01*
X657822Y757641D01*
X657757Y757716D01*
X657689Y757789D01*
X657619Y757859D01*
X657546Y757927D01*
X657471Y757992D01*
X657393Y758054D01*
X657313Y758112D01*
X657230Y758168D01*
X657146Y758220D01*
X657059Y758270D01*
X656971Y758315D01*
X656881Y758358D01*
X656789Y758397D01*
X656696Y758432D01*
X656602Y758464D01*
X656507Y758492D01*
X656411Y758517D01*
X656313Y758538D01*
X656215Y758555D01*
X656117Y758568D01*
X656018Y758577D01*
X655918Y758583D01*
X655819Y758585D01*
X651924Y758585D01*
X651924Y763778D01*
X658415Y763778D01*
X659892Y811539D02*
X659892Y814136D01*
X659892Y811539D02*
X659890Y811440D01*
X659884Y811340D01*
X659875Y811241D01*
X659862Y811143D01*
X659845Y811045D01*
X659824Y810947D01*
X659799Y810851D01*
X659771Y810756D01*
X659739Y810662D01*
X659704Y810569D01*
X659665Y810477D01*
X659622Y810387D01*
X659577Y810299D01*
X659527Y810212D01*
X659475Y810128D01*
X659419Y810045D01*
X659361Y809965D01*
X659299Y809887D01*
X659234Y809812D01*
X659166Y809739D01*
X659096Y809669D01*
X659023Y809601D01*
X658948Y809536D01*
X658870Y809474D01*
X658790Y809416D01*
X658707Y809360D01*
X658623Y809308D01*
X658536Y809258D01*
X658448Y809213D01*
X658358Y809170D01*
X658266Y809131D01*
X658173Y809096D01*
X658079Y809064D01*
X657984Y809036D01*
X657888Y809011D01*
X657790Y808990D01*
X657692Y808973D01*
X657594Y808960D01*
X657495Y808951D01*
X657395Y808945D01*
X657296Y808943D01*
X650804Y808943D01*
X650804Y808942D02*
X650705Y808944D01*
X650605Y808950D01*
X650506Y808959D01*
X650408Y808972D01*
X650310Y808990D01*
X650212Y809010D01*
X650116Y809035D01*
X650020Y809063D01*
X649926Y809095D01*
X649833Y809130D01*
X649742Y809169D01*
X649652Y809212D01*
X649563Y809257D01*
X649477Y809307D01*
X649392Y809359D01*
X649310Y809415D01*
X649230Y809474D01*
X649152Y809535D01*
X649076Y809600D01*
X649003Y809668D01*
X648933Y809738D01*
X648865Y809811D01*
X648800Y809887D01*
X648739Y809965D01*
X648680Y810045D01*
X648624Y810127D01*
X648572Y810212D01*
X648523Y810298D01*
X648477Y810387D01*
X648434Y810477D01*
X648395Y810568D01*
X648360Y810661D01*
X648328Y810755D01*
X648300Y810851D01*
X648275Y810947D01*
X648255Y811045D01*
X648237Y811143D01*
X648224Y811241D01*
X648215Y811340D01*
X648209Y811439D01*
X648207Y811539D01*
X648208Y811539D02*
X648208Y814136D01*
X648208Y818501D02*
X649506Y818501D01*
X648208Y818501D02*
X648208Y824992D01*
X659892Y821746D01*
D12*
X652463Y485775D02*
X642938Y485775D01*
D13*
X654685Y497475D02*
X659511Y497475D01*
X654685Y497475D02*
X654685Y498815D01*
X654687Y498885D01*
X654692Y498955D01*
X654702Y499025D01*
X654714Y499094D01*
X654731Y499162D01*
X654751Y499229D01*
X654774Y499296D01*
X654801Y499360D01*
X654831Y499424D01*
X654865Y499486D01*
X654901Y499545D01*
X654941Y499603D01*
X654984Y499659D01*
X655029Y499712D01*
X655078Y499763D01*
X655129Y499812D01*
X655182Y499857D01*
X655238Y499900D01*
X655296Y499940D01*
X655356Y499976D01*
X655417Y500010D01*
X655481Y500040D01*
X655545Y500067D01*
X655612Y500090D01*
X655679Y500110D01*
X655747Y500127D01*
X655816Y500139D01*
X655886Y500149D01*
X655956Y500154D01*
X656026Y500156D01*
X658170Y500156D01*
X658240Y500154D01*
X658310Y500149D01*
X658380Y500139D01*
X658449Y500127D01*
X658517Y500110D01*
X658584Y500090D01*
X658651Y500067D01*
X658715Y500040D01*
X658779Y500010D01*
X658841Y499976D01*
X658900Y499940D01*
X658958Y499900D01*
X659014Y499857D01*
X659067Y499812D01*
X659118Y499763D01*
X659167Y499712D01*
X659212Y499659D01*
X659255Y499603D01*
X659295Y499545D01*
X659331Y499485D01*
X659365Y499424D01*
X659395Y499360D01*
X659422Y499296D01*
X659445Y499229D01*
X659465Y499162D01*
X659482Y499094D01*
X659494Y499025D01*
X659504Y498955D01*
X659509Y498885D01*
X659511Y498815D01*
X659511Y497475D01*
X655757Y503144D02*
X654685Y504485D01*
X659511Y504485D01*
X659511Y505825D02*
X659511Y503144D01*
D12*
X454025Y760286D02*
X454025Y769811D01*
D13*
X433975Y772033D02*
X433975Y776859D01*
X435315Y776859D01*
X435385Y776857D01*
X435455Y776852D01*
X435525Y776842D01*
X435594Y776830D01*
X435662Y776813D01*
X435729Y776793D01*
X435796Y776770D01*
X435860Y776743D01*
X435924Y776713D01*
X435986Y776679D01*
X436045Y776643D01*
X436103Y776603D01*
X436159Y776560D01*
X436212Y776515D01*
X436263Y776466D01*
X436312Y776415D01*
X436357Y776362D01*
X436400Y776306D01*
X436440Y776248D01*
X436476Y776189D01*
X436510Y776127D01*
X436540Y776063D01*
X436567Y775999D01*
X436590Y775932D01*
X436610Y775865D01*
X436627Y775797D01*
X436639Y775728D01*
X436649Y775658D01*
X436654Y775588D01*
X436656Y775518D01*
X436656Y773374D01*
X436654Y773304D01*
X436649Y773234D01*
X436639Y773164D01*
X436627Y773095D01*
X436610Y773027D01*
X436590Y772960D01*
X436567Y772893D01*
X436540Y772829D01*
X436510Y772765D01*
X436476Y772703D01*
X436440Y772644D01*
X436400Y772586D01*
X436357Y772530D01*
X436312Y772477D01*
X436263Y772426D01*
X436212Y772377D01*
X436159Y772332D01*
X436103Y772289D01*
X436045Y772249D01*
X435985Y772213D01*
X435924Y772179D01*
X435860Y772149D01*
X435796Y772122D01*
X435729Y772099D01*
X435662Y772079D01*
X435594Y772062D01*
X435525Y772050D01*
X435455Y772040D01*
X435385Y772035D01*
X435315Y772033D01*
X433975Y772033D01*
X441119Y776859D02*
X441187Y776857D01*
X441254Y776851D01*
X441321Y776842D01*
X441388Y776829D01*
X441453Y776812D01*
X441518Y776791D01*
X441581Y776767D01*
X441643Y776739D01*
X441703Y776708D01*
X441761Y776674D01*
X441817Y776636D01*
X441872Y776596D01*
X441923Y776552D01*
X441972Y776505D01*
X442019Y776456D01*
X442063Y776405D01*
X442103Y776350D01*
X442141Y776294D01*
X442175Y776236D01*
X442206Y776176D01*
X442234Y776114D01*
X442258Y776051D01*
X442279Y775986D01*
X442296Y775921D01*
X442309Y775854D01*
X442318Y775787D01*
X442324Y775720D01*
X442326Y775652D01*
X441119Y776859D02*
X441041Y776857D01*
X440963Y776851D01*
X440886Y776841D01*
X440809Y776828D01*
X440733Y776810D01*
X440658Y776789D01*
X440584Y776764D01*
X440512Y776735D01*
X440441Y776703D01*
X440372Y776667D01*
X440304Y776628D01*
X440239Y776585D01*
X440176Y776539D01*
X440115Y776490D01*
X440057Y776438D01*
X440002Y776383D01*
X439949Y776326D01*
X439900Y776266D01*
X439853Y776203D01*
X439810Y776139D01*
X439770Y776072D01*
X439733Y776003D01*
X439700Y775932D01*
X439670Y775860D01*
X439644Y775787D01*
X441923Y774714D02*
X441972Y774763D01*
X442019Y774815D01*
X442062Y774870D01*
X442103Y774927D01*
X442141Y774986D01*
X442175Y775047D01*
X442206Y775110D01*
X442234Y775174D01*
X442258Y775240D01*
X442278Y775306D01*
X442295Y775374D01*
X442308Y775443D01*
X442317Y775512D01*
X442323Y775582D01*
X442325Y775652D01*
X441923Y774714D02*
X439644Y772033D01*
X442325Y772033D01*
D12*
X454279Y789496D02*
X454279Y799021D01*
D13*
X434229Y801243D02*
X434229Y806069D01*
X435569Y806069D01*
X435639Y806067D01*
X435709Y806062D01*
X435779Y806052D01*
X435848Y806040D01*
X435916Y806023D01*
X435983Y806003D01*
X436050Y805980D01*
X436114Y805953D01*
X436178Y805923D01*
X436240Y805889D01*
X436299Y805853D01*
X436357Y805813D01*
X436413Y805770D01*
X436466Y805725D01*
X436517Y805676D01*
X436566Y805625D01*
X436611Y805572D01*
X436654Y805516D01*
X436694Y805458D01*
X436730Y805399D01*
X436764Y805337D01*
X436794Y805273D01*
X436821Y805209D01*
X436844Y805142D01*
X436864Y805075D01*
X436881Y805007D01*
X436893Y804938D01*
X436903Y804868D01*
X436908Y804798D01*
X436910Y804728D01*
X436910Y802584D01*
X436908Y802514D01*
X436903Y802444D01*
X436893Y802374D01*
X436881Y802305D01*
X436864Y802237D01*
X436844Y802170D01*
X436821Y802103D01*
X436794Y802039D01*
X436764Y801975D01*
X436730Y801913D01*
X436694Y801854D01*
X436654Y801796D01*
X436611Y801740D01*
X436566Y801687D01*
X436517Y801636D01*
X436466Y801587D01*
X436413Y801542D01*
X436357Y801499D01*
X436299Y801459D01*
X436239Y801423D01*
X436178Y801389D01*
X436114Y801359D01*
X436050Y801332D01*
X435983Y801309D01*
X435916Y801289D01*
X435848Y801272D01*
X435779Y801260D01*
X435709Y801250D01*
X435639Y801245D01*
X435569Y801243D01*
X434229Y801243D01*
X439898Y801243D02*
X441239Y801243D01*
X441310Y801245D01*
X441382Y801251D01*
X441452Y801260D01*
X441522Y801273D01*
X441592Y801290D01*
X441660Y801311D01*
X441727Y801335D01*
X441793Y801363D01*
X441857Y801394D01*
X441920Y801429D01*
X441980Y801467D01*
X442039Y801508D01*
X442095Y801552D01*
X442149Y801599D01*
X442200Y801648D01*
X442248Y801701D01*
X442294Y801756D01*
X442336Y801813D01*
X442376Y801873D01*
X442412Y801934D01*
X442445Y801998D01*
X442474Y802063D01*
X442500Y802129D01*
X442523Y802197D01*
X442542Y802266D01*
X442557Y802336D01*
X442568Y802406D01*
X442576Y802477D01*
X442580Y802548D01*
X442580Y802620D01*
X442576Y802691D01*
X442568Y802762D01*
X442557Y802832D01*
X442542Y802902D01*
X442523Y802971D01*
X442500Y803039D01*
X442474Y803105D01*
X442445Y803170D01*
X442412Y803234D01*
X442376Y803295D01*
X442336Y803355D01*
X442294Y803412D01*
X442248Y803467D01*
X442200Y803520D01*
X442149Y803569D01*
X442095Y803616D01*
X442039Y803660D01*
X441980Y803701D01*
X441920Y803739D01*
X441857Y803774D01*
X441793Y803805D01*
X441727Y803833D01*
X441660Y803857D01*
X441592Y803878D01*
X441522Y803895D01*
X441452Y803908D01*
X441382Y803917D01*
X441310Y803923D01*
X441239Y803925D01*
X441507Y806069D02*
X439898Y806069D01*
X441507Y806069D02*
X441572Y806067D01*
X441636Y806061D01*
X441700Y806051D01*
X441764Y806038D01*
X441826Y806020D01*
X441887Y805999D01*
X441947Y805975D01*
X442005Y805946D01*
X442062Y805914D01*
X442116Y805879D01*
X442168Y805841D01*
X442218Y805799D01*
X442265Y805755D01*
X442309Y805708D01*
X442351Y805658D01*
X442389Y805606D01*
X442424Y805552D01*
X442456Y805495D01*
X442485Y805437D01*
X442509Y805377D01*
X442530Y805316D01*
X442548Y805254D01*
X442561Y805190D01*
X442571Y805126D01*
X442577Y805062D01*
X442579Y804997D01*
X442577Y804932D01*
X442571Y804868D01*
X442561Y804804D01*
X442548Y804740D01*
X442530Y804678D01*
X442509Y804617D01*
X442485Y804557D01*
X442456Y804499D01*
X442424Y804442D01*
X442389Y804388D01*
X442351Y804336D01*
X442309Y804286D01*
X442265Y804239D01*
X442218Y804195D01*
X442168Y804153D01*
X442116Y804115D01*
X442062Y804080D01*
X442005Y804048D01*
X441947Y804019D01*
X441887Y803995D01*
X441826Y803974D01*
X441764Y803956D01*
X441700Y803943D01*
X441636Y803933D01*
X441572Y803927D01*
X441507Y803925D01*
X441507Y803924D02*
X440434Y803924D01*
D12*
X514922Y479425D02*
X524447Y479425D01*
D13*
X526669Y491125D02*
X531495Y491125D01*
X526669Y491125D02*
X526669Y492465D01*
X526671Y492535D01*
X526676Y492605D01*
X526686Y492675D01*
X526698Y492744D01*
X526715Y492812D01*
X526735Y492879D01*
X526758Y492946D01*
X526785Y493010D01*
X526815Y493074D01*
X526849Y493136D01*
X526885Y493195D01*
X526925Y493253D01*
X526968Y493309D01*
X527013Y493362D01*
X527062Y493413D01*
X527113Y493462D01*
X527166Y493507D01*
X527222Y493550D01*
X527280Y493590D01*
X527340Y493626D01*
X527401Y493660D01*
X527465Y493690D01*
X527529Y493717D01*
X527596Y493740D01*
X527663Y493760D01*
X527731Y493777D01*
X527800Y493789D01*
X527870Y493799D01*
X527940Y493804D01*
X528010Y493806D01*
X530154Y493806D01*
X530224Y493804D01*
X530294Y493799D01*
X530364Y493789D01*
X530433Y493777D01*
X530501Y493760D01*
X530568Y493740D01*
X530635Y493717D01*
X530699Y493690D01*
X530763Y493660D01*
X530825Y493626D01*
X530884Y493590D01*
X530942Y493550D01*
X530998Y493507D01*
X531051Y493462D01*
X531102Y493413D01*
X531151Y493362D01*
X531196Y493309D01*
X531239Y493253D01*
X531279Y493195D01*
X531315Y493135D01*
X531349Y493074D01*
X531379Y493010D01*
X531406Y492946D01*
X531429Y492879D01*
X531449Y492812D01*
X531466Y492744D01*
X531478Y492675D01*
X531488Y492605D01*
X531493Y492535D01*
X531495Y492465D01*
X531495Y491125D01*
X530423Y496794D02*
X526669Y497867D01*
X530423Y496794D02*
X530423Y499475D01*
X529350Y498671D02*
X531495Y498671D01*
D14*
X535900Y729050D02*
X535900Y833050D01*
X594400Y833050D01*
X594400Y729050D01*
X535900Y729050D01*
X582422Y737870D02*
X582424Y737980D01*
X582430Y738090D01*
X582440Y738200D01*
X582454Y738309D01*
X582472Y738417D01*
X582493Y738525D01*
X582519Y738632D01*
X582548Y738738D01*
X582582Y738843D01*
X582619Y738947D01*
X582659Y739049D01*
X582704Y739150D01*
X582752Y739249D01*
X582803Y739346D01*
X582858Y739441D01*
X582917Y739535D01*
X582978Y739626D01*
X583044Y739715D01*
X583112Y739801D01*
X583183Y739885D01*
X583257Y739966D01*
X583334Y740045D01*
X583414Y740120D01*
X583497Y740193D01*
X583582Y740263D01*
X583670Y740329D01*
X583760Y740393D01*
X583852Y740453D01*
X583946Y740510D01*
X584042Y740563D01*
X584140Y740613D01*
X584240Y740659D01*
X584342Y740702D01*
X584445Y740740D01*
X584549Y740776D01*
X584655Y740807D01*
X584761Y740834D01*
X584869Y740858D01*
X584977Y740878D01*
X585086Y740894D01*
X585195Y740906D01*
X585305Y740914D01*
X585415Y740918D01*
X585525Y740918D01*
X585635Y740914D01*
X585745Y740906D01*
X585854Y740894D01*
X585963Y740878D01*
X586071Y740858D01*
X586179Y740834D01*
X586285Y740807D01*
X586391Y740776D01*
X586495Y740740D01*
X586598Y740702D01*
X586700Y740659D01*
X586800Y740613D01*
X586898Y740563D01*
X586994Y740510D01*
X587088Y740453D01*
X587180Y740393D01*
X587270Y740329D01*
X587358Y740263D01*
X587443Y740193D01*
X587526Y740120D01*
X587606Y740045D01*
X587683Y739966D01*
X587757Y739885D01*
X587828Y739801D01*
X587896Y739715D01*
X587962Y739626D01*
X588023Y739535D01*
X588082Y739441D01*
X588137Y739346D01*
X588188Y739249D01*
X588236Y739150D01*
X588281Y739049D01*
X588321Y738947D01*
X588358Y738843D01*
X588392Y738738D01*
X588421Y738632D01*
X588447Y738525D01*
X588468Y738417D01*
X588486Y738309D01*
X588500Y738200D01*
X588510Y738090D01*
X588516Y737980D01*
X588518Y737870D01*
X588516Y737760D01*
X588510Y737650D01*
X588500Y737540D01*
X588486Y737431D01*
X588468Y737323D01*
X588447Y737215D01*
X588421Y737108D01*
X588392Y737002D01*
X588358Y736897D01*
X588321Y736793D01*
X588281Y736691D01*
X588236Y736590D01*
X588188Y736491D01*
X588137Y736394D01*
X588082Y736299D01*
X588023Y736205D01*
X587962Y736114D01*
X587896Y736025D01*
X587828Y735939D01*
X587757Y735855D01*
X587683Y735774D01*
X587606Y735695D01*
X587526Y735620D01*
X587443Y735547D01*
X587358Y735477D01*
X587270Y735411D01*
X587180Y735347D01*
X587088Y735287D01*
X586994Y735230D01*
X586898Y735177D01*
X586800Y735127D01*
X586700Y735081D01*
X586598Y735038D01*
X586495Y735000D01*
X586391Y734964D01*
X586285Y734933D01*
X586179Y734906D01*
X586071Y734882D01*
X585963Y734862D01*
X585854Y734846D01*
X585745Y734834D01*
X585635Y734826D01*
X585525Y734822D01*
X585415Y734822D01*
X585305Y734826D01*
X585195Y734834D01*
X585086Y734846D01*
X584977Y734862D01*
X584869Y734882D01*
X584761Y734906D01*
X584655Y734933D01*
X584549Y734964D01*
X584445Y735000D01*
X584342Y735038D01*
X584240Y735081D01*
X584140Y735127D01*
X584042Y735177D01*
X583946Y735230D01*
X583852Y735287D01*
X583760Y735347D01*
X583670Y735411D01*
X583582Y735477D01*
X583497Y735547D01*
X583414Y735620D01*
X583334Y735695D01*
X583257Y735774D01*
X583183Y735855D01*
X583112Y735939D01*
X583044Y736025D01*
X582978Y736114D01*
X582917Y736205D01*
X582858Y736299D01*
X582803Y736394D01*
X582752Y736491D01*
X582704Y736590D01*
X582659Y736691D01*
X582619Y736793D01*
X582582Y736897D01*
X582548Y737002D01*
X582519Y737108D01*
X582493Y737215D01*
X582472Y737323D01*
X582454Y737431D01*
X582440Y737540D01*
X582430Y737650D01*
X582424Y737760D01*
X582422Y737870D01*
D13*
X568071Y724533D02*
X568071Y713103D01*
X566801Y713103D02*
X569341Y713103D01*
X569341Y724533D02*
X566801Y724533D01*
X576543Y713103D02*
X579083Y713103D01*
X576543Y713103D02*
X576443Y713105D01*
X576344Y713111D01*
X576244Y713121D01*
X576146Y713134D01*
X576047Y713152D01*
X575950Y713173D01*
X575854Y713198D01*
X575758Y713227D01*
X575664Y713260D01*
X575571Y713296D01*
X575480Y713336D01*
X575390Y713380D01*
X575302Y713427D01*
X575216Y713477D01*
X575132Y713531D01*
X575050Y713588D01*
X574971Y713648D01*
X574893Y713712D01*
X574819Y713778D01*
X574747Y713847D01*
X574678Y713919D01*
X574612Y713993D01*
X574548Y714071D01*
X574488Y714150D01*
X574431Y714232D01*
X574377Y714316D01*
X574327Y714402D01*
X574280Y714490D01*
X574236Y714580D01*
X574196Y714671D01*
X574160Y714764D01*
X574127Y714858D01*
X574098Y714954D01*
X574073Y715050D01*
X574052Y715147D01*
X574034Y715246D01*
X574021Y715344D01*
X574011Y715444D01*
X574005Y715543D01*
X574003Y715643D01*
X574003Y721993D01*
X574005Y722093D01*
X574011Y722192D01*
X574021Y722292D01*
X574034Y722390D01*
X574052Y722489D01*
X574073Y722586D01*
X574098Y722682D01*
X574127Y722778D01*
X574160Y722872D01*
X574196Y722965D01*
X574236Y723056D01*
X574280Y723146D01*
X574327Y723234D01*
X574377Y723320D01*
X574431Y723404D01*
X574488Y723486D01*
X574548Y723565D01*
X574612Y723643D01*
X574678Y723717D01*
X574747Y723789D01*
X574819Y723858D01*
X574893Y723924D01*
X574970Y723988D01*
X575050Y724048D01*
X575132Y724105D01*
X575216Y724159D01*
X575302Y724209D01*
X575390Y724256D01*
X575480Y724300D01*
X575571Y724340D01*
X575664Y724376D01*
X575758Y724409D01*
X575854Y724438D01*
X575950Y724463D01*
X576047Y724484D01*
X576146Y724502D01*
X576244Y724515D01*
X576344Y724525D01*
X576443Y724531D01*
X576543Y724533D01*
X579083Y724533D01*
X583566Y721993D02*
X586741Y724533D01*
X586741Y713103D01*
X583566Y713103D02*
X589916Y713103D01*
X613920Y913660D02*
X518920Y913660D01*
D15*
X583920Y861660D03*
D10*
X583550Y856131D02*
X583550Y844441D01*
X583550Y856131D02*
X586797Y856131D01*
X586909Y856129D01*
X587021Y856123D01*
X587133Y856114D01*
X587244Y856100D01*
X587355Y856083D01*
X587465Y856062D01*
X587574Y856037D01*
X587682Y856008D01*
X587790Y855976D01*
X587896Y855939D01*
X588001Y855900D01*
X588104Y855856D01*
X588206Y855809D01*
X588306Y855759D01*
X588404Y855705D01*
X588501Y855648D01*
X588595Y855588D01*
X588687Y855524D01*
X588777Y855457D01*
X588865Y855387D01*
X588950Y855314D01*
X589033Y855239D01*
X589113Y855160D01*
X589190Y855079D01*
X589264Y854995D01*
X589336Y854908D01*
X589404Y854820D01*
X589469Y854729D01*
X589531Y854635D01*
X589590Y854540D01*
X589646Y854442D01*
X589698Y854343D01*
X589746Y854242D01*
X589791Y854140D01*
X589833Y854035D01*
X589871Y853930D01*
X589905Y853823D01*
X589936Y853715D01*
X589963Y853607D01*
X589986Y853497D01*
X590005Y853386D01*
X590020Y853275D01*
X590032Y853164D01*
X590040Y853052D01*
X590044Y852940D01*
X590044Y852828D01*
X590040Y852716D01*
X590032Y852604D01*
X590020Y852493D01*
X590005Y852382D01*
X589986Y852271D01*
X589963Y852161D01*
X589936Y852053D01*
X589905Y851945D01*
X589871Y851838D01*
X589833Y851733D01*
X589791Y851628D01*
X589746Y851526D01*
X589698Y851425D01*
X589646Y851326D01*
X589590Y851228D01*
X589531Y851133D01*
X589469Y851039D01*
X589404Y850948D01*
X589336Y850860D01*
X589264Y850773D01*
X589190Y850689D01*
X589113Y850608D01*
X589033Y850529D01*
X588950Y850454D01*
X588865Y850381D01*
X588777Y850311D01*
X588687Y850244D01*
X588595Y850180D01*
X588501Y850120D01*
X588404Y850063D01*
X588306Y850009D01*
X588206Y849959D01*
X588104Y849912D01*
X588001Y849868D01*
X587896Y849829D01*
X587790Y849792D01*
X587682Y849760D01*
X587574Y849731D01*
X587465Y849706D01*
X587355Y849685D01*
X587244Y849668D01*
X587133Y849654D01*
X587021Y849645D01*
X586909Y849639D01*
X586797Y849637D01*
X583550Y849637D01*
X594435Y853533D02*
X597682Y856131D01*
X597682Y844441D01*
X594435Y844441D02*
X600929Y844441D01*
X551942Y673608D02*
X540258Y673608D01*
X540258Y676854D01*
X540260Y676967D01*
X540266Y677080D01*
X540276Y677193D01*
X540290Y677306D01*
X540307Y677418D01*
X540329Y677529D01*
X540354Y677639D01*
X540384Y677749D01*
X540417Y677857D01*
X540454Y677964D01*
X540494Y678070D01*
X540539Y678174D01*
X540587Y678277D01*
X540638Y678378D01*
X540693Y678477D01*
X540751Y678574D01*
X540813Y678669D01*
X540878Y678762D01*
X540946Y678852D01*
X541017Y678940D01*
X541092Y679026D01*
X541169Y679109D01*
X541249Y679189D01*
X541332Y679266D01*
X541418Y679341D01*
X541506Y679412D01*
X541596Y679480D01*
X541689Y679545D01*
X541784Y679607D01*
X541881Y679665D01*
X541980Y679720D01*
X542081Y679771D01*
X542184Y679819D01*
X542288Y679864D01*
X542394Y679904D01*
X542501Y679941D01*
X542609Y679974D01*
X542719Y680004D01*
X542829Y680029D01*
X542940Y680051D01*
X543052Y680068D01*
X543165Y680082D01*
X543278Y680092D01*
X543391Y680098D01*
X543504Y680100D01*
X543617Y680098D01*
X543730Y680092D01*
X543843Y680082D01*
X543956Y680068D01*
X544068Y680051D01*
X544179Y680029D01*
X544289Y680004D01*
X544399Y679974D01*
X544507Y679941D01*
X544614Y679904D01*
X544720Y679864D01*
X544824Y679819D01*
X544927Y679771D01*
X545028Y679720D01*
X545127Y679665D01*
X545224Y679607D01*
X545319Y679545D01*
X545412Y679480D01*
X545502Y679412D01*
X545590Y679341D01*
X545676Y679266D01*
X545759Y679189D01*
X545839Y679109D01*
X545916Y679026D01*
X545991Y678940D01*
X546062Y678852D01*
X546130Y678762D01*
X546195Y678669D01*
X546257Y678574D01*
X546315Y678477D01*
X546370Y678378D01*
X546421Y678277D01*
X546469Y678174D01*
X546514Y678070D01*
X546554Y677964D01*
X546591Y677857D01*
X546624Y677749D01*
X546654Y677639D01*
X546679Y677529D01*
X546701Y677418D01*
X546718Y677306D01*
X546732Y677193D01*
X546742Y677080D01*
X546748Y676967D01*
X546750Y676854D01*
X546749Y676854D02*
X546749Y673608D01*
X546749Y677503D02*
X551942Y680099D01*
X542854Y684964D02*
X540258Y688210D01*
X551942Y688210D01*
X551942Y691455D02*
X551942Y684964D01*
X553974Y667445D02*
X542290Y667445D01*
X542290Y670690D01*
X542292Y670803D01*
X542298Y670916D01*
X542308Y671029D01*
X542322Y671142D01*
X542339Y671254D01*
X542361Y671365D01*
X542386Y671475D01*
X542416Y671585D01*
X542449Y671693D01*
X542486Y671800D01*
X542526Y671906D01*
X542571Y672010D01*
X542619Y672113D01*
X542670Y672214D01*
X542725Y672313D01*
X542783Y672410D01*
X542845Y672505D01*
X542910Y672598D01*
X542978Y672688D01*
X543049Y672776D01*
X543124Y672862D01*
X543201Y672945D01*
X543281Y673025D01*
X543364Y673102D01*
X543450Y673177D01*
X543538Y673248D01*
X543628Y673316D01*
X543721Y673381D01*
X543816Y673443D01*
X543913Y673501D01*
X544012Y673556D01*
X544113Y673607D01*
X544216Y673655D01*
X544320Y673700D01*
X544426Y673740D01*
X544533Y673777D01*
X544641Y673810D01*
X544751Y673840D01*
X544861Y673865D01*
X544972Y673887D01*
X545084Y673904D01*
X545197Y673918D01*
X545310Y673928D01*
X545423Y673934D01*
X545536Y673936D01*
X545649Y673934D01*
X545762Y673928D01*
X545875Y673918D01*
X545988Y673904D01*
X546100Y673887D01*
X546211Y673865D01*
X546321Y673840D01*
X546431Y673810D01*
X546539Y673777D01*
X546646Y673740D01*
X546752Y673700D01*
X546856Y673655D01*
X546959Y673607D01*
X547060Y673556D01*
X547159Y673501D01*
X547256Y673443D01*
X547351Y673381D01*
X547444Y673316D01*
X547534Y673248D01*
X547622Y673177D01*
X547708Y673102D01*
X547791Y673025D01*
X547871Y672945D01*
X547948Y672862D01*
X548023Y672776D01*
X548094Y672688D01*
X548162Y672598D01*
X548227Y672505D01*
X548289Y672410D01*
X548347Y672313D01*
X548402Y672214D01*
X548453Y672113D01*
X548501Y672010D01*
X548546Y671906D01*
X548586Y671800D01*
X548623Y671693D01*
X548656Y671585D01*
X548686Y671475D01*
X548711Y671365D01*
X548733Y671254D01*
X548750Y671142D01*
X548764Y671029D01*
X548774Y670916D01*
X548780Y670803D01*
X548782Y670690D01*
X548781Y670690D02*
X548781Y667445D01*
X548781Y671339D02*
X553974Y673936D01*
X545211Y685292D02*
X545104Y685290D01*
X544998Y685284D01*
X544892Y685274D01*
X544786Y685261D01*
X544680Y685243D01*
X544576Y685222D01*
X544472Y685197D01*
X544369Y685168D01*
X544268Y685136D01*
X544168Y685099D01*
X544069Y685059D01*
X543971Y685016D01*
X543875Y684969D01*
X543781Y684918D01*
X543689Y684864D01*
X543599Y684807D01*
X543511Y684747D01*
X543426Y684683D01*
X543343Y684616D01*
X543262Y684546D01*
X543184Y684474D01*
X543108Y684398D01*
X543036Y684320D01*
X542966Y684239D01*
X542899Y684156D01*
X542835Y684071D01*
X542775Y683983D01*
X542718Y683893D01*
X542664Y683801D01*
X542613Y683707D01*
X542566Y683611D01*
X542523Y683513D01*
X542483Y683414D01*
X542446Y683314D01*
X542414Y683213D01*
X542385Y683110D01*
X542360Y683006D01*
X542339Y682902D01*
X542321Y682796D01*
X542308Y682690D01*
X542298Y682584D01*
X542292Y682478D01*
X542290Y682371D01*
X542292Y682250D01*
X542298Y682129D01*
X542308Y682009D01*
X542321Y681888D01*
X542339Y681769D01*
X542360Y681649D01*
X542385Y681531D01*
X542414Y681414D01*
X542447Y681297D01*
X542483Y681182D01*
X542524Y681068D01*
X542567Y680955D01*
X542615Y680843D01*
X542666Y680734D01*
X542721Y680626D01*
X542779Y680519D01*
X542840Y680415D01*
X542905Y680313D01*
X542973Y680213D01*
X543044Y680115D01*
X543118Y680019D01*
X543195Y679926D01*
X543276Y679836D01*
X543359Y679748D01*
X543445Y679663D01*
X543534Y679580D01*
X543625Y679501D01*
X543719Y679424D01*
X543815Y679351D01*
X543913Y679281D01*
X544014Y679214D01*
X544117Y679150D01*
X544222Y679090D01*
X544329Y679032D01*
X544437Y678979D01*
X544547Y678929D01*
X544659Y678883D01*
X544772Y678840D01*
X544887Y678801D01*
X547483Y684318D02*
X547405Y684397D01*
X547325Y684473D01*
X547242Y684546D01*
X547156Y684616D01*
X547069Y684683D01*
X546978Y684747D01*
X546886Y684807D01*
X546792Y684865D01*
X546695Y684919D01*
X546597Y684969D01*
X546497Y685016D01*
X546396Y685060D01*
X546293Y685100D01*
X546188Y685136D01*
X546083Y685168D01*
X545976Y685197D01*
X545869Y685222D01*
X545760Y685244D01*
X545651Y685261D01*
X545542Y685275D01*
X545432Y685284D01*
X545321Y685290D01*
X545211Y685292D01*
X547483Y684318D02*
X553974Y678801D01*
X553974Y685292D01*
X532130Y667699D02*
X520446Y667699D01*
X520446Y670944D01*
X520448Y671057D01*
X520454Y671170D01*
X520464Y671283D01*
X520478Y671396D01*
X520495Y671508D01*
X520517Y671619D01*
X520542Y671729D01*
X520572Y671839D01*
X520605Y671947D01*
X520642Y672054D01*
X520682Y672160D01*
X520727Y672264D01*
X520775Y672367D01*
X520826Y672468D01*
X520881Y672567D01*
X520939Y672664D01*
X521001Y672759D01*
X521066Y672852D01*
X521134Y672942D01*
X521205Y673030D01*
X521280Y673116D01*
X521357Y673199D01*
X521437Y673279D01*
X521520Y673356D01*
X521606Y673431D01*
X521694Y673502D01*
X521784Y673570D01*
X521877Y673635D01*
X521972Y673697D01*
X522069Y673755D01*
X522168Y673810D01*
X522269Y673861D01*
X522372Y673909D01*
X522476Y673954D01*
X522582Y673994D01*
X522689Y674031D01*
X522797Y674064D01*
X522907Y674094D01*
X523017Y674119D01*
X523128Y674141D01*
X523240Y674158D01*
X523353Y674172D01*
X523466Y674182D01*
X523579Y674188D01*
X523692Y674190D01*
X523805Y674188D01*
X523918Y674182D01*
X524031Y674172D01*
X524144Y674158D01*
X524256Y674141D01*
X524367Y674119D01*
X524477Y674094D01*
X524587Y674064D01*
X524695Y674031D01*
X524802Y673994D01*
X524908Y673954D01*
X525012Y673909D01*
X525115Y673861D01*
X525216Y673810D01*
X525315Y673755D01*
X525412Y673697D01*
X525507Y673635D01*
X525600Y673570D01*
X525690Y673502D01*
X525778Y673431D01*
X525864Y673356D01*
X525947Y673279D01*
X526027Y673199D01*
X526104Y673116D01*
X526179Y673030D01*
X526250Y672942D01*
X526318Y672852D01*
X526383Y672759D01*
X526445Y672664D01*
X526503Y672567D01*
X526558Y672468D01*
X526609Y672367D01*
X526657Y672264D01*
X526702Y672160D01*
X526742Y672054D01*
X526779Y671947D01*
X526812Y671839D01*
X526842Y671729D01*
X526867Y671619D01*
X526889Y671508D01*
X526906Y671396D01*
X526920Y671283D01*
X526930Y671170D01*
X526936Y671057D01*
X526938Y670944D01*
X526937Y670944D02*
X526937Y667699D01*
X526937Y671593D02*
X532130Y674190D01*
X532130Y679055D02*
X532130Y682300D01*
X532128Y682413D01*
X532122Y682526D01*
X532112Y682639D01*
X532098Y682752D01*
X532081Y682864D01*
X532059Y682975D01*
X532034Y683085D01*
X532004Y683195D01*
X531971Y683303D01*
X531934Y683410D01*
X531894Y683516D01*
X531849Y683620D01*
X531801Y683723D01*
X531750Y683824D01*
X531695Y683923D01*
X531637Y684020D01*
X531575Y684115D01*
X531510Y684208D01*
X531442Y684298D01*
X531371Y684386D01*
X531296Y684472D01*
X531219Y684555D01*
X531139Y684635D01*
X531056Y684712D01*
X530970Y684787D01*
X530882Y684858D01*
X530792Y684926D01*
X530699Y684991D01*
X530604Y685053D01*
X530507Y685111D01*
X530408Y685166D01*
X530307Y685217D01*
X530204Y685265D01*
X530100Y685310D01*
X529994Y685350D01*
X529887Y685387D01*
X529779Y685420D01*
X529669Y685450D01*
X529559Y685475D01*
X529448Y685497D01*
X529336Y685514D01*
X529223Y685528D01*
X529110Y685538D01*
X528997Y685544D01*
X528884Y685546D01*
X528771Y685544D01*
X528658Y685538D01*
X528545Y685528D01*
X528432Y685514D01*
X528320Y685497D01*
X528209Y685475D01*
X528099Y685450D01*
X527989Y685420D01*
X527881Y685387D01*
X527774Y685350D01*
X527668Y685310D01*
X527564Y685265D01*
X527461Y685217D01*
X527360Y685166D01*
X527261Y685111D01*
X527164Y685053D01*
X527069Y684991D01*
X526976Y684926D01*
X526886Y684858D01*
X526798Y684787D01*
X526712Y684712D01*
X526629Y684635D01*
X526549Y684555D01*
X526472Y684472D01*
X526397Y684386D01*
X526326Y684298D01*
X526258Y684208D01*
X526193Y684115D01*
X526131Y684020D01*
X526073Y683923D01*
X526018Y683824D01*
X525967Y683723D01*
X525919Y683620D01*
X525874Y683516D01*
X525834Y683410D01*
X525797Y683303D01*
X525764Y683195D01*
X525734Y683085D01*
X525709Y682975D01*
X525687Y682864D01*
X525670Y682752D01*
X525656Y682639D01*
X525646Y682526D01*
X525640Y682413D01*
X525638Y682300D01*
X520446Y682950D02*
X520446Y679055D01*
X520446Y682950D02*
X520448Y683051D01*
X520454Y683151D01*
X520464Y683251D01*
X520477Y683351D01*
X520495Y683450D01*
X520516Y683549D01*
X520541Y683646D01*
X520570Y683743D01*
X520603Y683838D01*
X520639Y683932D01*
X520679Y684024D01*
X520722Y684115D01*
X520769Y684204D01*
X520819Y684291D01*
X520873Y684377D01*
X520930Y684460D01*
X520990Y684540D01*
X521053Y684619D01*
X521120Y684695D01*
X521189Y684768D01*
X521261Y684838D01*
X521335Y684906D01*
X521412Y684971D01*
X521492Y685032D01*
X521574Y685091D01*
X521658Y685146D01*
X521744Y685198D01*
X521832Y685247D01*
X521922Y685292D01*
X522014Y685334D01*
X522107Y685372D01*
X522202Y685406D01*
X522297Y685437D01*
X522394Y685464D01*
X522492Y685487D01*
X522591Y685507D01*
X522691Y685522D01*
X522791Y685534D01*
X522891Y685542D01*
X522992Y685546D01*
X523092Y685546D01*
X523193Y685542D01*
X523293Y685534D01*
X523393Y685522D01*
X523493Y685507D01*
X523592Y685487D01*
X523690Y685464D01*
X523787Y685437D01*
X523882Y685406D01*
X523977Y685372D01*
X524070Y685334D01*
X524162Y685292D01*
X524252Y685247D01*
X524340Y685198D01*
X524426Y685146D01*
X524510Y685091D01*
X524592Y685032D01*
X524672Y684971D01*
X524749Y684906D01*
X524823Y684838D01*
X524895Y684768D01*
X524964Y684695D01*
X525031Y684619D01*
X525094Y684540D01*
X525154Y684460D01*
X525211Y684377D01*
X525265Y684291D01*
X525315Y684204D01*
X525362Y684115D01*
X525405Y684024D01*
X525445Y683932D01*
X525481Y683838D01*
X525514Y683743D01*
X525543Y683646D01*
X525568Y683549D01*
X525589Y683450D01*
X525607Y683351D01*
X525620Y683251D01*
X525630Y683151D01*
X525636Y683051D01*
X525638Y682950D01*
X525639Y682950D02*
X525639Y680353D01*
X629158Y540258D02*
X640842Y540258D01*
X629158Y540258D02*
X629158Y543504D01*
X629160Y543617D01*
X629166Y543730D01*
X629176Y543843D01*
X629190Y543956D01*
X629207Y544068D01*
X629229Y544179D01*
X629254Y544289D01*
X629284Y544399D01*
X629317Y544507D01*
X629354Y544614D01*
X629394Y544720D01*
X629439Y544824D01*
X629487Y544927D01*
X629538Y545028D01*
X629593Y545127D01*
X629651Y545224D01*
X629713Y545319D01*
X629778Y545412D01*
X629846Y545502D01*
X629917Y545590D01*
X629992Y545676D01*
X630069Y545759D01*
X630149Y545839D01*
X630232Y545916D01*
X630318Y545991D01*
X630406Y546062D01*
X630496Y546130D01*
X630589Y546195D01*
X630684Y546257D01*
X630781Y546315D01*
X630880Y546370D01*
X630981Y546421D01*
X631084Y546469D01*
X631188Y546514D01*
X631294Y546554D01*
X631401Y546591D01*
X631509Y546624D01*
X631619Y546654D01*
X631729Y546679D01*
X631840Y546701D01*
X631952Y546718D01*
X632065Y546732D01*
X632178Y546742D01*
X632291Y546748D01*
X632404Y546750D01*
X632517Y546748D01*
X632630Y546742D01*
X632743Y546732D01*
X632856Y546718D01*
X632968Y546701D01*
X633079Y546679D01*
X633189Y546654D01*
X633299Y546624D01*
X633407Y546591D01*
X633514Y546554D01*
X633620Y546514D01*
X633724Y546469D01*
X633827Y546421D01*
X633928Y546370D01*
X634027Y546315D01*
X634124Y546257D01*
X634219Y546195D01*
X634312Y546130D01*
X634402Y546062D01*
X634490Y545991D01*
X634576Y545916D01*
X634659Y545839D01*
X634739Y545759D01*
X634816Y545676D01*
X634891Y545590D01*
X634962Y545502D01*
X635030Y545412D01*
X635095Y545319D01*
X635157Y545224D01*
X635215Y545127D01*
X635270Y545028D01*
X635321Y544927D01*
X635369Y544824D01*
X635414Y544720D01*
X635454Y544614D01*
X635491Y544507D01*
X635524Y544399D01*
X635554Y544289D01*
X635579Y544179D01*
X635601Y544068D01*
X635618Y543956D01*
X635632Y543843D01*
X635642Y543730D01*
X635648Y543617D01*
X635650Y543504D01*
X635649Y543504D02*
X635649Y540258D01*
X635649Y544153D02*
X640842Y546749D01*
X638246Y551614D02*
X629158Y554211D01*
X638246Y551614D02*
X638246Y558105D01*
X635649Y556158D02*
X640842Y556158D01*
X480568Y771906D02*
X480568Y783590D01*
X483814Y783590D01*
X483927Y783588D01*
X484040Y783582D01*
X484153Y783572D01*
X484266Y783558D01*
X484378Y783541D01*
X484489Y783519D01*
X484599Y783494D01*
X484709Y783464D01*
X484817Y783431D01*
X484924Y783394D01*
X485030Y783354D01*
X485134Y783309D01*
X485237Y783261D01*
X485338Y783210D01*
X485437Y783155D01*
X485534Y783097D01*
X485629Y783035D01*
X485722Y782970D01*
X485812Y782902D01*
X485900Y782831D01*
X485986Y782756D01*
X486069Y782679D01*
X486149Y782599D01*
X486226Y782516D01*
X486301Y782430D01*
X486372Y782342D01*
X486440Y782252D01*
X486505Y782159D01*
X486567Y782064D01*
X486625Y781967D01*
X486680Y781868D01*
X486731Y781767D01*
X486779Y781664D01*
X486824Y781560D01*
X486864Y781454D01*
X486901Y781347D01*
X486934Y781239D01*
X486964Y781129D01*
X486989Y781019D01*
X487011Y780908D01*
X487028Y780796D01*
X487042Y780683D01*
X487052Y780570D01*
X487058Y780457D01*
X487060Y780344D01*
X487058Y780231D01*
X487052Y780118D01*
X487042Y780005D01*
X487028Y779892D01*
X487011Y779780D01*
X486989Y779669D01*
X486964Y779559D01*
X486934Y779449D01*
X486901Y779341D01*
X486864Y779234D01*
X486824Y779128D01*
X486779Y779024D01*
X486731Y778921D01*
X486680Y778820D01*
X486625Y778721D01*
X486567Y778624D01*
X486505Y778529D01*
X486440Y778436D01*
X486372Y778346D01*
X486301Y778258D01*
X486226Y778172D01*
X486149Y778089D01*
X486069Y778009D01*
X485986Y777932D01*
X485900Y777857D01*
X485812Y777786D01*
X485722Y777718D01*
X485629Y777653D01*
X485534Y777591D01*
X485437Y777533D01*
X485338Y777478D01*
X485237Y777427D01*
X485134Y777379D01*
X485030Y777334D01*
X484924Y777294D01*
X484817Y777257D01*
X484709Y777224D01*
X484599Y777194D01*
X484489Y777169D01*
X484378Y777147D01*
X484266Y777130D01*
X484153Y777116D01*
X484040Y777106D01*
X483927Y777100D01*
X483814Y777098D01*
X483814Y777099D02*
X480568Y777099D01*
X484463Y777099D02*
X487059Y771906D01*
X491924Y771906D02*
X495819Y771906D01*
X495918Y771908D01*
X496018Y771914D01*
X496117Y771923D01*
X496215Y771936D01*
X496313Y771953D01*
X496411Y771974D01*
X496507Y771999D01*
X496602Y772027D01*
X496696Y772059D01*
X496789Y772094D01*
X496881Y772133D01*
X496971Y772176D01*
X497059Y772221D01*
X497146Y772271D01*
X497230Y772323D01*
X497313Y772379D01*
X497393Y772437D01*
X497471Y772499D01*
X497546Y772564D01*
X497619Y772632D01*
X497689Y772702D01*
X497757Y772775D01*
X497822Y772850D01*
X497884Y772928D01*
X497942Y773008D01*
X497998Y773091D01*
X498050Y773175D01*
X498100Y773262D01*
X498145Y773350D01*
X498188Y773440D01*
X498227Y773532D01*
X498262Y773625D01*
X498294Y773719D01*
X498322Y773814D01*
X498347Y773910D01*
X498368Y774008D01*
X498385Y774106D01*
X498398Y774204D01*
X498407Y774303D01*
X498413Y774403D01*
X498415Y774502D01*
X498415Y775801D01*
X498413Y775900D01*
X498407Y776000D01*
X498398Y776099D01*
X498385Y776197D01*
X498368Y776295D01*
X498347Y776393D01*
X498322Y776489D01*
X498294Y776584D01*
X498262Y776678D01*
X498227Y776771D01*
X498188Y776863D01*
X498145Y776953D01*
X498100Y777041D01*
X498050Y777128D01*
X497998Y777212D01*
X497942Y777295D01*
X497884Y777375D01*
X497822Y777453D01*
X497757Y777528D01*
X497689Y777601D01*
X497619Y777671D01*
X497546Y777739D01*
X497471Y777804D01*
X497393Y777866D01*
X497313Y777924D01*
X497230Y777980D01*
X497146Y778032D01*
X497059Y778082D01*
X496971Y778127D01*
X496881Y778170D01*
X496789Y778209D01*
X496696Y778244D01*
X496602Y778276D01*
X496507Y778304D01*
X496411Y778329D01*
X496313Y778350D01*
X496215Y778367D01*
X496117Y778380D01*
X496018Y778389D01*
X495918Y778395D01*
X495819Y778397D01*
X491924Y778397D01*
X491924Y783590D01*
X498415Y783590D01*
X481584Y801116D02*
X481584Y812800D01*
X484830Y812800D01*
X484943Y812798D01*
X485056Y812792D01*
X485169Y812782D01*
X485282Y812768D01*
X485394Y812751D01*
X485505Y812729D01*
X485615Y812704D01*
X485725Y812674D01*
X485833Y812641D01*
X485940Y812604D01*
X486046Y812564D01*
X486150Y812519D01*
X486253Y812471D01*
X486354Y812420D01*
X486453Y812365D01*
X486550Y812307D01*
X486645Y812245D01*
X486738Y812180D01*
X486828Y812112D01*
X486916Y812041D01*
X487002Y811966D01*
X487085Y811889D01*
X487165Y811809D01*
X487242Y811726D01*
X487317Y811640D01*
X487388Y811552D01*
X487456Y811462D01*
X487521Y811369D01*
X487583Y811274D01*
X487641Y811177D01*
X487696Y811078D01*
X487747Y810977D01*
X487795Y810874D01*
X487840Y810770D01*
X487880Y810664D01*
X487917Y810557D01*
X487950Y810449D01*
X487980Y810339D01*
X488005Y810229D01*
X488027Y810118D01*
X488044Y810006D01*
X488058Y809893D01*
X488068Y809780D01*
X488074Y809667D01*
X488076Y809554D01*
X488074Y809441D01*
X488068Y809328D01*
X488058Y809215D01*
X488044Y809102D01*
X488027Y808990D01*
X488005Y808879D01*
X487980Y808769D01*
X487950Y808659D01*
X487917Y808551D01*
X487880Y808444D01*
X487840Y808338D01*
X487795Y808234D01*
X487747Y808131D01*
X487696Y808030D01*
X487641Y807931D01*
X487583Y807834D01*
X487521Y807739D01*
X487456Y807646D01*
X487388Y807556D01*
X487317Y807468D01*
X487242Y807382D01*
X487165Y807299D01*
X487085Y807219D01*
X487002Y807142D01*
X486916Y807067D01*
X486828Y806996D01*
X486738Y806928D01*
X486645Y806863D01*
X486550Y806801D01*
X486453Y806743D01*
X486354Y806688D01*
X486253Y806637D01*
X486150Y806589D01*
X486046Y806544D01*
X485940Y806504D01*
X485833Y806467D01*
X485725Y806434D01*
X485615Y806404D01*
X485505Y806379D01*
X485394Y806357D01*
X485282Y806340D01*
X485169Y806326D01*
X485056Y806316D01*
X484943Y806310D01*
X484830Y806308D01*
X484830Y806309D02*
X481584Y806309D01*
X485479Y806309D02*
X488075Y801116D01*
X492940Y807607D02*
X496835Y807607D01*
X496934Y807605D01*
X497034Y807599D01*
X497133Y807590D01*
X497231Y807577D01*
X497329Y807560D01*
X497427Y807539D01*
X497523Y807514D01*
X497618Y807486D01*
X497712Y807454D01*
X497805Y807419D01*
X497897Y807380D01*
X497987Y807337D01*
X498075Y807292D01*
X498162Y807242D01*
X498246Y807190D01*
X498329Y807134D01*
X498409Y807076D01*
X498487Y807014D01*
X498562Y806949D01*
X498635Y806881D01*
X498705Y806811D01*
X498773Y806738D01*
X498838Y806663D01*
X498900Y806585D01*
X498958Y806505D01*
X499014Y806422D01*
X499066Y806338D01*
X499116Y806251D01*
X499161Y806163D01*
X499204Y806073D01*
X499243Y805981D01*
X499278Y805888D01*
X499310Y805794D01*
X499338Y805699D01*
X499363Y805603D01*
X499384Y805505D01*
X499401Y805407D01*
X499414Y805309D01*
X499423Y805210D01*
X499429Y805110D01*
X499431Y805011D01*
X499431Y804362D01*
X499432Y804362D02*
X499430Y804249D01*
X499424Y804136D01*
X499414Y804023D01*
X499400Y803910D01*
X499383Y803798D01*
X499361Y803687D01*
X499336Y803577D01*
X499306Y803467D01*
X499273Y803359D01*
X499236Y803252D01*
X499196Y803146D01*
X499151Y803042D01*
X499103Y802939D01*
X499052Y802838D01*
X498997Y802739D01*
X498939Y802642D01*
X498877Y802547D01*
X498812Y802454D01*
X498744Y802364D01*
X498673Y802276D01*
X498598Y802190D01*
X498521Y802107D01*
X498441Y802027D01*
X498358Y801950D01*
X498272Y801875D01*
X498184Y801804D01*
X498094Y801736D01*
X498001Y801671D01*
X497906Y801609D01*
X497809Y801551D01*
X497710Y801496D01*
X497609Y801445D01*
X497506Y801397D01*
X497402Y801352D01*
X497296Y801312D01*
X497189Y801275D01*
X497081Y801242D01*
X496971Y801212D01*
X496861Y801187D01*
X496750Y801165D01*
X496638Y801148D01*
X496525Y801134D01*
X496412Y801124D01*
X496299Y801118D01*
X496186Y801116D01*
X496073Y801118D01*
X495960Y801124D01*
X495847Y801134D01*
X495734Y801148D01*
X495622Y801165D01*
X495511Y801187D01*
X495401Y801212D01*
X495291Y801242D01*
X495183Y801275D01*
X495076Y801312D01*
X494970Y801352D01*
X494866Y801397D01*
X494763Y801445D01*
X494662Y801496D01*
X494563Y801551D01*
X494466Y801609D01*
X494371Y801671D01*
X494278Y801736D01*
X494188Y801804D01*
X494100Y801875D01*
X494014Y801950D01*
X493931Y802027D01*
X493851Y802107D01*
X493774Y802190D01*
X493699Y802276D01*
X493628Y802364D01*
X493560Y802454D01*
X493495Y802547D01*
X493433Y802642D01*
X493375Y802739D01*
X493320Y802838D01*
X493269Y802939D01*
X493221Y803042D01*
X493176Y803146D01*
X493136Y803252D01*
X493099Y803359D01*
X493066Y803467D01*
X493036Y803577D01*
X493011Y803687D01*
X492989Y803798D01*
X492972Y803910D01*
X492958Y804023D01*
X492948Y804136D01*
X492942Y804249D01*
X492940Y804362D01*
X492940Y807607D01*
X492942Y807750D01*
X492948Y807893D01*
X492958Y808036D01*
X492972Y808178D01*
X492989Y808320D01*
X493011Y808462D01*
X493036Y808603D01*
X493066Y808743D01*
X493099Y808882D01*
X493136Y809020D01*
X493177Y809157D01*
X493221Y809293D01*
X493270Y809428D01*
X493322Y809561D01*
X493377Y809693D01*
X493437Y809823D01*
X493500Y809952D01*
X493566Y810079D01*
X493636Y810203D01*
X493709Y810326D01*
X493786Y810447D01*
X493866Y810566D01*
X493949Y810682D01*
X494035Y810797D01*
X494124Y810908D01*
X494217Y811018D01*
X494312Y811124D01*
X494411Y811228D01*
X494512Y811329D01*
X494616Y811428D01*
X494722Y811523D01*
X494832Y811616D01*
X494943Y811705D01*
X495058Y811791D01*
X495174Y811874D01*
X495293Y811954D01*
X495414Y812031D01*
X495536Y812104D01*
X495661Y812174D01*
X495788Y812240D01*
X495917Y812303D01*
X496047Y812363D01*
X496179Y812418D01*
X496312Y812470D01*
X496447Y812519D01*
X496583Y812563D01*
X496720Y812604D01*
X496858Y812641D01*
X496997Y812674D01*
X497137Y812704D01*
X497278Y812729D01*
X497420Y812751D01*
X497562Y812768D01*
X497704Y812782D01*
X497847Y812792D01*
X497990Y812798D01*
X498133Y812800D01*
D14*
X609600Y406400D02*
X622300Y406400D01*
X609600Y406400D02*
X603250Y412750D01*
X596900Y406400D01*
X584200Y406400D01*
X577850Y412750D01*
X622300Y406400D02*
X628650Y412750D01*
X577850Y412750D02*
X571500Y406400D01*
X558800Y406400D01*
X552450Y412750D01*
X552450Y450850D01*
X603250Y450850D02*
X609600Y457200D01*
X584200Y457200D02*
X577850Y450850D01*
X584200Y457200D02*
X596900Y457200D01*
X603250Y450850D01*
X628650Y450850D02*
X628650Y412750D01*
X628650Y450850D02*
X622300Y457200D01*
X609600Y457200D01*
X558800Y457200D02*
X552450Y450850D01*
X558800Y457200D02*
X571500Y457200D01*
X577850Y450850D01*
D13*
X615315Y470535D02*
X618490Y473075D01*
X618490Y461645D01*
X615315Y461645D02*
X621665Y461645D01*
X546735Y419735D02*
X542925Y419735D01*
X546735Y419735D02*
X546835Y419733D01*
X546934Y419727D01*
X547034Y419717D01*
X547132Y419704D01*
X547231Y419686D01*
X547328Y419665D01*
X547424Y419640D01*
X547520Y419611D01*
X547614Y419578D01*
X547707Y419542D01*
X547798Y419502D01*
X547888Y419458D01*
X547976Y419411D01*
X548062Y419361D01*
X548146Y419307D01*
X548228Y419250D01*
X548307Y419190D01*
X548385Y419126D01*
X548459Y419060D01*
X548531Y418991D01*
X548600Y418919D01*
X548666Y418845D01*
X548730Y418767D01*
X548790Y418688D01*
X548847Y418606D01*
X548901Y418522D01*
X548951Y418436D01*
X548998Y418348D01*
X549042Y418258D01*
X549082Y418167D01*
X549118Y418074D01*
X549151Y417980D01*
X549180Y417884D01*
X549205Y417788D01*
X549226Y417691D01*
X549244Y417592D01*
X549257Y417494D01*
X549267Y417394D01*
X549273Y417295D01*
X549275Y417195D01*
X549275Y416560D01*
X549273Y416449D01*
X549267Y416339D01*
X549258Y416228D01*
X549244Y416118D01*
X549227Y416009D01*
X549206Y415900D01*
X549181Y415792D01*
X549152Y415685D01*
X549120Y415579D01*
X549084Y415474D01*
X549044Y415371D01*
X549001Y415269D01*
X548954Y415168D01*
X548903Y415069D01*
X548850Y414972D01*
X548793Y414878D01*
X548732Y414785D01*
X548669Y414694D01*
X548602Y414605D01*
X548532Y414519D01*
X548459Y414436D01*
X548384Y414354D01*
X548306Y414276D01*
X548224Y414201D01*
X548141Y414128D01*
X548055Y414058D01*
X547966Y413991D01*
X547875Y413928D01*
X547782Y413867D01*
X547688Y413810D01*
X547591Y413757D01*
X547492Y413706D01*
X547391Y413659D01*
X547289Y413616D01*
X547186Y413576D01*
X547081Y413540D01*
X546975Y413508D01*
X546868Y413479D01*
X546760Y413454D01*
X546651Y413433D01*
X546542Y413416D01*
X546432Y413402D01*
X546321Y413393D01*
X546211Y413387D01*
X546100Y413385D01*
X545989Y413387D01*
X545879Y413393D01*
X545768Y413402D01*
X545658Y413416D01*
X545549Y413433D01*
X545440Y413454D01*
X545332Y413479D01*
X545225Y413508D01*
X545119Y413540D01*
X545014Y413576D01*
X544911Y413616D01*
X544809Y413659D01*
X544708Y413706D01*
X544609Y413757D01*
X544513Y413810D01*
X544418Y413867D01*
X544325Y413928D01*
X544234Y413991D01*
X544145Y414058D01*
X544059Y414128D01*
X543976Y414201D01*
X543894Y414276D01*
X543816Y414354D01*
X543741Y414436D01*
X543668Y414519D01*
X543598Y414605D01*
X543531Y414694D01*
X543468Y414785D01*
X543407Y414878D01*
X543350Y414973D01*
X543297Y415069D01*
X543246Y415168D01*
X543199Y415269D01*
X543156Y415371D01*
X543116Y415474D01*
X543080Y415579D01*
X543048Y415685D01*
X543019Y415792D01*
X542994Y415900D01*
X542973Y416009D01*
X542956Y416118D01*
X542942Y416228D01*
X542933Y416339D01*
X542927Y416449D01*
X542925Y416560D01*
X542925Y419735D01*
X542927Y419875D01*
X542933Y420015D01*
X542942Y420155D01*
X542956Y420294D01*
X542973Y420433D01*
X542994Y420571D01*
X543019Y420709D01*
X543048Y420846D01*
X543080Y420982D01*
X543117Y421117D01*
X543157Y421251D01*
X543200Y421384D01*
X543248Y421516D01*
X543298Y421647D01*
X543353Y421776D01*
X543411Y421903D01*
X543472Y422029D01*
X543537Y422153D01*
X543606Y422275D01*
X543677Y422395D01*
X543752Y422513D01*
X543830Y422630D01*
X543912Y422744D01*
X543996Y422855D01*
X544084Y422964D01*
X544174Y423071D01*
X544268Y423176D01*
X544364Y423277D01*
X544463Y423376D01*
X544564Y423472D01*
X544669Y423566D01*
X544776Y423656D01*
X544885Y423744D01*
X544996Y423828D01*
X545110Y423910D01*
X545227Y423988D01*
X545345Y424063D01*
X545465Y424134D01*
X545587Y424203D01*
X545711Y424268D01*
X545837Y424329D01*
X545964Y424387D01*
X546093Y424442D01*
X546224Y424492D01*
X546356Y424540D01*
X546489Y424583D01*
X546623Y424623D01*
X546758Y424660D01*
X546894Y424692D01*
X547031Y424721D01*
X547169Y424746D01*
X547307Y424767D01*
X547446Y424784D01*
X547585Y424798D01*
X547725Y424807D01*
X547865Y424813D01*
X548005Y424815D01*
X602996Y390525D02*
X603096Y390527D01*
X603195Y390533D01*
X603295Y390543D01*
X603393Y390556D01*
X603492Y390574D01*
X603589Y390595D01*
X603685Y390620D01*
X603781Y390649D01*
X603875Y390682D01*
X603968Y390718D01*
X604059Y390758D01*
X604149Y390802D01*
X604237Y390849D01*
X604323Y390899D01*
X604407Y390953D01*
X604489Y391010D01*
X604568Y391070D01*
X604646Y391134D01*
X604720Y391200D01*
X604792Y391269D01*
X604861Y391341D01*
X604927Y391415D01*
X604991Y391493D01*
X605051Y391572D01*
X605108Y391654D01*
X605162Y391738D01*
X605212Y391824D01*
X605259Y391912D01*
X605303Y392002D01*
X605343Y392093D01*
X605379Y392186D01*
X605412Y392280D01*
X605441Y392376D01*
X605466Y392472D01*
X605487Y392569D01*
X605505Y392668D01*
X605518Y392766D01*
X605528Y392866D01*
X605534Y392965D01*
X605536Y393065D01*
X602996Y390525D02*
X602855Y390527D01*
X602714Y390532D01*
X602573Y390542D01*
X602432Y390555D01*
X602292Y390571D01*
X602152Y390592D01*
X602013Y390616D01*
X601874Y390644D01*
X601737Y390675D01*
X601600Y390710D01*
X601464Y390748D01*
X601329Y390790D01*
X601196Y390836D01*
X601063Y390885D01*
X600932Y390938D01*
X600803Y390994D01*
X600674Y391053D01*
X600548Y391116D01*
X600423Y391182D01*
X600300Y391251D01*
X600179Y391324D01*
X600060Y391400D01*
X599942Y391479D01*
X599827Y391560D01*
X599715Y391645D01*
X599604Y391733D01*
X599496Y391824D01*
X599390Y391917D01*
X599287Y392014D01*
X599186Y392113D01*
X599504Y399415D02*
X599506Y399515D01*
X599512Y399614D01*
X599522Y399714D01*
X599535Y399812D01*
X599553Y399911D01*
X599574Y400008D01*
X599599Y400104D01*
X599628Y400200D01*
X599661Y400294D01*
X599697Y400387D01*
X599737Y400478D01*
X599781Y400568D01*
X599828Y400656D01*
X599878Y400742D01*
X599932Y400826D01*
X599989Y400908D01*
X600049Y400987D01*
X600113Y401065D01*
X600179Y401139D01*
X600248Y401211D01*
X600320Y401280D01*
X600394Y401346D01*
X600472Y401410D01*
X600551Y401470D01*
X600633Y401527D01*
X600717Y401581D01*
X600803Y401631D01*
X600891Y401678D01*
X600981Y401722D01*
X601072Y401762D01*
X601165Y401798D01*
X601259Y401831D01*
X601355Y401860D01*
X601451Y401885D01*
X601548Y401906D01*
X601647Y401924D01*
X601745Y401937D01*
X601845Y401947D01*
X601944Y401953D01*
X602044Y401955D01*
X602044Y401956D02*
X602177Y401954D01*
X602310Y401949D01*
X602443Y401939D01*
X602576Y401926D01*
X602708Y401909D01*
X602840Y401889D01*
X602971Y401865D01*
X603101Y401837D01*
X603231Y401806D01*
X603359Y401771D01*
X603487Y401732D01*
X603613Y401690D01*
X603738Y401644D01*
X603862Y401595D01*
X603985Y401543D01*
X604106Y401487D01*
X604225Y401427D01*
X604343Y401365D01*
X604458Y401299D01*
X604572Y401230D01*
X604684Y401157D01*
X604794Y401082D01*
X604902Y401003D01*
X600773Y397192D02*
X600689Y397244D01*
X600606Y397299D01*
X600526Y397358D01*
X600448Y397419D01*
X600373Y397483D01*
X600300Y397551D01*
X600229Y397621D01*
X600162Y397693D01*
X600097Y397768D01*
X600035Y397846D01*
X599976Y397926D01*
X599920Y398008D01*
X599868Y398092D01*
X599819Y398178D01*
X599773Y398266D01*
X599730Y398356D01*
X599691Y398447D01*
X599656Y398540D01*
X599624Y398634D01*
X599596Y398729D01*
X599571Y398825D01*
X599551Y398922D01*
X599533Y399020D01*
X599520Y399118D01*
X599511Y399217D01*
X599505Y399316D01*
X599503Y399415D01*
X604266Y395288D02*
X604350Y395236D01*
X604433Y395181D01*
X604513Y395122D01*
X604591Y395061D01*
X604666Y394997D01*
X604739Y394929D01*
X604810Y394859D01*
X604877Y394787D01*
X604942Y394712D01*
X605004Y394634D01*
X605063Y394554D01*
X605119Y394472D01*
X605171Y394388D01*
X605220Y394302D01*
X605266Y394214D01*
X605309Y394124D01*
X605348Y394033D01*
X605383Y393940D01*
X605415Y393846D01*
X605443Y393751D01*
X605468Y393655D01*
X605488Y393558D01*
X605506Y393460D01*
X605519Y393362D01*
X605528Y393263D01*
X605534Y393164D01*
X605536Y393065D01*
X604266Y395288D02*
X600774Y397193D01*
X609600Y401955D02*
X613410Y390525D01*
X617220Y401955D01*
X621665Y399415D02*
X624840Y401955D01*
X624840Y390525D01*
X621665Y390525D02*
X628015Y390525D01*
D10*
X465582Y547370D02*
X446582Y547370D01*
X446582Y575370D01*
X465582Y575370D01*
X465582Y547370D01*
D16*
X471955Y547239D02*
X471955Y546618D01*
X471953Y546569D01*
X471947Y546521D01*
X471938Y546473D01*
X471925Y546426D01*
X471908Y546380D01*
X471887Y546336D01*
X471863Y546294D01*
X471836Y546253D01*
X471806Y546215D01*
X471773Y546179D01*
X471737Y546146D01*
X471699Y546116D01*
X471658Y546089D01*
X471616Y546065D01*
X471572Y546044D01*
X471526Y546027D01*
X471479Y546014D01*
X471431Y546005D01*
X471383Y545999D01*
X471334Y545997D01*
X469782Y545997D01*
X469733Y545999D01*
X469685Y546005D01*
X469637Y546014D01*
X469590Y546027D01*
X469544Y546044D01*
X469500Y546065D01*
X469458Y546088D01*
X469417Y546116D01*
X469379Y546146D01*
X469343Y546179D01*
X469310Y546215D01*
X469280Y546253D01*
X469253Y546293D01*
X469229Y546336D01*
X469208Y546380D01*
X469191Y546426D01*
X469178Y546473D01*
X469169Y546521D01*
X469163Y546569D01*
X469161Y546618D01*
X469161Y547239D01*
X471334Y549752D02*
X471383Y549750D01*
X471431Y549744D01*
X471479Y549735D01*
X471526Y549722D01*
X471572Y549705D01*
X471616Y549684D01*
X471658Y549660D01*
X471699Y549633D01*
X471737Y549603D01*
X471773Y549570D01*
X471806Y549534D01*
X471836Y549496D01*
X471863Y549455D01*
X471887Y549413D01*
X471908Y549369D01*
X471925Y549323D01*
X471938Y549276D01*
X471947Y549228D01*
X471953Y549180D01*
X471955Y549131D01*
X471953Y549062D01*
X471948Y548993D01*
X471939Y548925D01*
X471926Y548857D01*
X471910Y548790D01*
X471890Y548724D01*
X471867Y548658D01*
X471840Y548595D01*
X471811Y548532D01*
X471777Y548472D01*
X471741Y548413D01*
X471702Y548356D01*
X471660Y548302D01*
X471615Y548249D01*
X471567Y548199D01*
X469782Y548277D02*
X469733Y548279D01*
X469685Y548285D01*
X469637Y548294D01*
X469590Y548307D01*
X469544Y548324D01*
X469500Y548345D01*
X469458Y548369D01*
X469417Y548396D01*
X469379Y548426D01*
X469343Y548459D01*
X469310Y548495D01*
X469280Y548533D01*
X469253Y548574D01*
X469229Y548616D01*
X469208Y548660D01*
X469191Y548706D01*
X469178Y548753D01*
X469169Y548801D01*
X469163Y548849D01*
X469161Y548898D01*
X469163Y548960D01*
X469168Y549023D01*
X469176Y549084D01*
X469188Y549146D01*
X469203Y549206D01*
X469221Y549266D01*
X469242Y549325D01*
X469266Y549382D01*
X469294Y549438D01*
X469324Y549493D01*
X469358Y549546D01*
X469394Y549596D01*
X470326Y548588D02*
X470300Y548548D01*
X470272Y548511D01*
X470242Y548476D01*
X470208Y548443D01*
X470173Y548412D01*
X470135Y548385D01*
X470095Y548360D01*
X470054Y548338D01*
X470011Y548320D01*
X469966Y548305D01*
X469921Y548293D01*
X469875Y548284D01*
X469829Y548279D01*
X469782Y548277D01*
X470790Y549441D02*
X470816Y549481D01*
X470844Y549518D01*
X470874Y549553D01*
X470908Y549586D01*
X470943Y549617D01*
X470981Y549644D01*
X471021Y549669D01*
X471062Y549691D01*
X471105Y549709D01*
X471150Y549724D01*
X471195Y549736D01*
X471241Y549745D01*
X471287Y549750D01*
X471334Y549752D01*
X470791Y549441D02*
X470325Y548588D01*
X469161Y551445D02*
X471955Y551445D01*
X469161Y550669D02*
X469161Y552221D01*
X469161Y553320D02*
X471955Y553320D01*
X471955Y554872D02*
X469161Y553320D01*
X469161Y554872D02*
X471955Y554872D01*
X471955Y556252D02*
X471955Y557494D01*
X471955Y556252D02*
X469161Y556252D01*
X469161Y557494D01*
X470403Y557183D02*
X470403Y556252D01*
X469782Y558532D02*
X469161Y559308D01*
X471955Y559308D01*
X471955Y558532D02*
X471955Y560085D01*
X470403Y561276D02*
X470403Y562207D01*
X470405Y562256D01*
X470411Y562304D01*
X470420Y562352D01*
X470433Y562399D01*
X470450Y562445D01*
X470471Y562489D01*
X470495Y562531D01*
X470522Y562572D01*
X470552Y562610D01*
X470585Y562646D01*
X470621Y562679D01*
X470659Y562709D01*
X470700Y562737D01*
X470742Y562760D01*
X470786Y562781D01*
X470832Y562798D01*
X470879Y562811D01*
X470927Y562820D01*
X470975Y562826D01*
X471024Y562828D01*
X471179Y562828D01*
X471234Y562826D01*
X471289Y562820D01*
X471344Y562810D01*
X471398Y562797D01*
X471450Y562779D01*
X471501Y562758D01*
X471551Y562733D01*
X471599Y562705D01*
X471644Y562673D01*
X471687Y562638D01*
X471728Y562601D01*
X471765Y562560D01*
X471800Y562517D01*
X471832Y562472D01*
X471860Y562424D01*
X471885Y562374D01*
X471906Y562323D01*
X471924Y562271D01*
X471937Y562217D01*
X471947Y562162D01*
X471953Y562107D01*
X471955Y562052D01*
X471953Y561997D01*
X471947Y561942D01*
X471937Y561887D01*
X471924Y561833D01*
X471906Y561781D01*
X471885Y561730D01*
X471860Y561680D01*
X471832Y561632D01*
X471800Y561587D01*
X471765Y561544D01*
X471728Y561503D01*
X471687Y561466D01*
X471644Y561431D01*
X471599Y561399D01*
X471551Y561371D01*
X471501Y561346D01*
X471450Y561325D01*
X471398Y561307D01*
X471344Y561294D01*
X471289Y561284D01*
X471234Y561278D01*
X471179Y561276D01*
X470403Y561276D01*
X470403Y561275D02*
X470333Y561277D01*
X470264Y561283D01*
X470195Y561293D01*
X470127Y561306D01*
X470059Y561324D01*
X469993Y561345D01*
X469928Y561370D01*
X469864Y561398D01*
X469802Y561430D01*
X469742Y561465D01*
X469684Y561504D01*
X469629Y561546D01*
X469575Y561591D01*
X469525Y561639D01*
X469477Y561689D01*
X469432Y561743D01*
X469390Y561798D01*
X469351Y561856D01*
X469316Y561916D01*
X469284Y561978D01*
X469256Y562042D01*
X469231Y562107D01*
X469210Y562173D01*
X469192Y562241D01*
X469179Y562309D01*
X469169Y562378D01*
X469163Y562447D01*
X469161Y562517D01*
X469161Y564138D02*
X471955Y564138D01*
X470713Y565069D02*
X469161Y564138D01*
X470713Y565069D02*
X469161Y566001D01*
X471955Y566001D01*
X470558Y567310D02*
X470463Y567312D01*
X470368Y567318D01*
X470274Y567328D01*
X470180Y567341D01*
X470087Y567359D01*
X469994Y567380D01*
X469902Y567405D01*
X469812Y567434D01*
X469723Y567467D01*
X469635Y567503D01*
X469549Y567543D01*
X469549Y567544D02*
X469507Y567560D01*
X469467Y567579D01*
X469429Y567602D01*
X469392Y567627D01*
X469357Y567655D01*
X469325Y567685D01*
X469295Y567718D01*
X469268Y567753D01*
X469243Y567791D01*
X469222Y567830D01*
X469204Y567870D01*
X469188Y567912D01*
X469176Y567955D01*
X469168Y567998D01*
X469163Y568043D01*
X469161Y568087D01*
X469163Y568131D01*
X469168Y568176D01*
X469176Y568219D01*
X469188Y568262D01*
X469204Y568304D01*
X469222Y568344D01*
X469243Y568383D01*
X469268Y568421D01*
X469295Y568456D01*
X469325Y568489D01*
X469357Y568519D01*
X469392Y568547D01*
X469429Y568572D01*
X469467Y568595D01*
X469507Y568614D01*
X469549Y568630D01*
X469549Y568629D02*
X469635Y568669D01*
X469723Y568705D01*
X469812Y568738D01*
X469903Y568767D01*
X469994Y568792D01*
X470087Y568813D01*
X470180Y568831D01*
X470274Y568844D01*
X470368Y568854D01*
X470463Y568860D01*
X470558Y568862D01*
X470558Y567310D02*
X470653Y567312D01*
X470748Y567318D01*
X470842Y567328D01*
X470936Y567341D01*
X471029Y567359D01*
X471122Y567380D01*
X471214Y567405D01*
X471304Y567434D01*
X471393Y567467D01*
X471481Y567503D01*
X471567Y567543D01*
X471567Y567544D02*
X471609Y567560D01*
X471649Y567579D01*
X471687Y567602D01*
X471724Y567627D01*
X471759Y567655D01*
X471791Y567685D01*
X471821Y567718D01*
X471848Y567753D01*
X471873Y567791D01*
X471894Y567830D01*
X471912Y567870D01*
X471928Y567912D01*
X471940Y567955D01*
X471948Y567998D01*
X471953Y568043D01*
X471955Y568087D01*
X471567Y568629D02*
X471481Y568669D01*
X471393Y568705D01*
X471304Y568738D01*
X471213Y568767D01*
X471122Y568792D01*
X471029Y568813D01*
X470936Y568831D01*
X470842Y568844D01*
X470748Y568854D01*
X470653Y568860D01*
X470558Y568862D01*
X471567Y568630D02*
X471609Y568614D01*
X471649Y568595D01*
X471687Y568572D01*
X471724Y568547D01*
X471759Y568519D01*
X471791Y568489D01*
X471821Y568456D01*
X471848Y568421D01*
X471873Y568383D01*
X471894Y568344D01*
X471912Y568304D01*
X471928Y568262D01*
X471940Y568219D01*
X471948Y568176D01*
X471953Y568131D01*
X471955Y568087D01*
X471334Y567466D02*
X469782Y568708D01*
X469161Y569899D02*
X471955Y570830D01*
X469161Y571761D01*
X469161Y572888D02*
X471955Y572888D01*
X470403Y572888D02*
X470403Y574441D01*
X469161Y574441D02*
X471955Y574441D01*
X471955Y575723D02*
X471955Y576499D01*
X471953Y576554D01*
X471947Y576609D01*
X471937Y576664D01*
X471924Y576718D01*
X471906Y576770D01*
X471885Y576821D01*
X471860Y576871D01*
X471832Y576919D01*
X471800Y576964D01*
X471765Y577007D01*
X471728Y577048D01*
X471687Y577085D01*
X471644Y577120D01*
X471599Y577152D01*
X471551Y577180D01*
X471501Y577205D01*
X471450Y577226D01*
X471398Y577244D01*
X471344Y577257D01*
X471289Y577267D01*
X471234Y577273D01*
X471179Y577275D01*
X471124Y577273D01*
X471069Y577267D01*
X471014Y577257D01*
X470960Y577244D01*
X470908Y577226D01*
X470857Y577205D01*
X470807Y577180D01*
X470759Y577152D01*
X470714Y577120D01*
X470671Y577085D01*
X470630Y577048D01*
X470593Y577007D01*
X470558Y576964D01*
X470526Y576919D01*
X470498Y576871D01*
X470473Y576821D01*
X470452Y576770D01*
X470434Y576718D01*
X470421Y576664D01*
X470411Y576609D01*
X470405Y576554D01*
X470403Y576499D01*
X469161Y576654D02*
X469161Y575723D01*
X469161Y576654D02*
X469163Y576703D01*
X469169Y576751D01*
X469178Y576799D01*
X469191Y576846D01*
X469208Y576892D01*
X469229Y576936D01*
X469253Y576978D01*
X469280Y577019D01*
X469310Y577057D01*
X469343Y577093D01*
X469379Y577126D01*
X469417Y577156D01*
X469458Y577183D01*
X469500Y577207D01*
X469544Y577228D01*
X469590Y577245D01*
X469637Y577258D01*
X469685Y577267D01*
X469733Y577273D01*
X469782Y577275D01*
X469831Y577273D01*
X469879Y577267D01*
X469927Y577258D01*
X469974Y577245D01*
X470020Y577228D01*
X470064Y577207D01*
X470106Y577183D01*
X470147Y577156D01*
X470185Y577126D01*
X470221Y577093D01*
X470254Y577057D01*
X470284Y577019D01*
X470311Y576978D01*
X470335Y576936D01*
X470356Y576892D01*
X470373Y576846D01*
X470386Y576799D01*
X470395Y576751D01*
X470401Y576703D01*
X470403Y576654D01*
X470403Y576034D01*
X471955Y579079D02*
X471955Y579700D01*
X471955Y579079D02*
X471953Y579030D01*
X471947Y578982D01*
X471938Y578934D01*
X471925Y578887D01*
X471908Y578841D01*
X471887Y578797D01*
X471863Y578755D01*
X471836Y578714D01*
X471806Y578676D01*
X471773Y578640D01*
X471737Y578607D01*
X471699Y578577D01*
X471658Y578550D01*
X471616Y578526D01*
X471572Y578505D01*
X471526Y578488D01*
X471479Y578475D01*
X471431Y578466D01*
X471383Y578460D01*
X471334Y578458D01*
X469782Y578458D01*
X469733Y578460D01*
X469685Y578466D01*
X469637Y578475D01*
X469590Y578488D01*
X469544Y578505D01*
X469500Y578526D01*
X469458Y578549D01*
X469417Y578577D01*
X469379Y578607D01*
X469343Y578640D01*
X469310Y578676D01*
X469280Y578714D01*
X469253Y578754D01*
X469229Y578797D01*
X469208Y578841D01*
X469191Y578887D01*
X469178Y578934D01*
X469169Y578982D01*
X469163Y579030D01*
X469161Y579079D01*
X469161Y579700D01*
X469549Y580985D02*
X469635Y580945D01*
X469723Y580909D01*
X469812Y580876D01*
X469902Y580847D01*
X469994Y580822D01*
X470087Y580801D01*
X470180Y580783D01*
X470274Y580770D01*
X470368Y580760D01*
X470463Y580754D01*
X470558Y580752D01*
X469549Y580985D02*
X469507Y581001D01*
X469467Y581020D01*
X469429Y581043D01*
X469392Y581068D01*
X469357Y581096D01*
X469325Y581126D01*
X469295Y581159D01*
X469268Y581194D01*
X469243Y581232D01*
X469222Y581271D01*
X469204Y581311D01*
X469188Y581353D01*
X469176Y581396D01*
X469168Y581439D01*
X469163Y581484D01*
X469161Y581528D01*
X469163Y581572D01*
X469168Y581617D01*
X469176Y581660D01*
X469188Y581703D01*
X469204Y581745D01*
X469222Y581785D01*
X469243Y581824D01*
X469268Y581862D01*
X469295Y581897D01*
X469325Y581930D01*
X469357Y581960D01*
X469392Y581988D01*
X469429Y582013D01*
X469467Y582036D01*
X469507Y582055D01*
X469549Y582071D01*
X469635Y582111D01*
X469723Y582147D01*
X469812Y582180D01*
X469903Y582209D01*
X469994Y582234D01*
X470087Y582255D01*
X470180Y582273D01*
X470274Y582286D01*
X470368Y582296D01*
X470463Y582302D01*
X470558Y582304D01*
X470558Y580752D02*
X470653Y580754D01*
X470748Y580760D01*
X470842Y580770D01*
X470936Y580783D01*
X471029Y580801D01*
X471122Y580822D01*
X471214Y580847D01*
X471304Y580876D01*
X471393Y580909D01*
X471481Y580945D01*
X471567Y580985D01*
X471609Y581001D01*
X471649Y581020D01*
X471687Y581043D01*
X471724Y581068D01*
X471759Y581096D01*
X471791Y581126D01*
X471821Y581159D01*
X471848Y581194D01*
X471873Y581232D01*
X471894Y581271D01*
X471912Y581311D01*
X471928Y581353D01*
X471940Y581396D01*
X471948Y581439D01*
X471953Y581484D01*
X471955Y581528D01*
X471567Y582071D02*
X471481Y582111D01*
X471393Y582147D01*
X471304Y582180D01*
X471213Y582209D01*
X471122Y582234D01*
X471029Y582255D01*
X470936Y582273D01*
X470842Y582286D01*
X470748Y582296D01*
X470653Y582302D01*
X470558Y582304D01*
X471567Y582071D02*
X471609Y582055D01*
X471649Y582036D01*
X471687Y582013D01*
X471724Y581988D01*
X471759Y581960D01*
X471791Y581930D01*
X471821Y581897D01*
X471848Y581862D01*
X471873Y581824D01*
X471894Y581785D01*
X471912Y581745D01*
X471928Y581703D01*
X471940Y581660D01*
X471948Y581617D01*
X471953Y581572D01*
X471955Y581528D01*
X471334Y580907D02*
X469782Y582149D01*
X470558Y583495D02*
X470463Y583497D01*
X470368Y583503D01*
X470274Y583513D01*
X470180Y583526D01*
X470087Y583544D01*
X469994Y583565D01*
X469902Y583590D01*
X469812Y583619D01*
X469723Y583652D01*
X469635Y583688D01*
X469549Y583728D01*
X469549Y583729D02*
X469507Y583745D01*
X469467Y583764D01*
X469429Y583787D01*
X469392Y583812D01*
X469357Y583840D01*
X469325Y583870D01*
X469295Y583903D01*
X469268Y583938D01*
X469243Y583976D01*
X469222Y584015D01*
X469204Y584055D01*
X469188Y584097D01*
X469176Y584140D01*
X469168Y584183D01*
X469163Y584228D01*
X469161Y584272D01*
X469163Y584316D01*
X469168Y584361D01*
X469176Y584404D01*
X469188Y584447D01*
X469204Y584489D01*
X469222Y584529D01*
X469243Y584568D01*
X469268Y584606D01*
X469295Y584641D01*
X469325Y584674D01*
X469357Y584704D01*
X469392Y584732D01*
X469429Y584757D01*
X469467Y584780D01*
X469507Y584799D01*
X469549Y584815D01*
X469549Y584814D02*
X469635Y584854D01*
X469723Y584890D01*
X469812Y584923D01*
X469903Y584952D01*
X469994Y584977D01*
X470087Y584998D01*
X470180Y585016D01*
X470274Y585029D01*
X470368Y585039D01*
X470463Y585045D01*
X470558Y585047D01*
X470558Y583495D02*
X470653Y583497D01*
X470748Y583503D01*
X470842Y583513D01*
X470936Y583526D01*
X471029Y583544D01*
X471122Y583565D01*
X471214Y583590D01*
X471304Y583619D01*
X471393Y583652D01*
X471481Y583688D01*
X471567Y583728D01*
X471567Y583729D02*
X471609Y583745D01*
X471649Y583764D01*
X471687Y583787D01*
X471724Y583812D01*
X471759Y583840D01*
X471791Y583870D01*
X471821Y583903D01*
X471848Y583938D01*
X471873Y583976D01*
X471894Y584015D01*
X471912Y584055D01*
X471928Y584097D01*
X471940Y584140D01*
X471948Y584183D01*
X471953Y584228D01*
X471955Y584272D01*
X471567Y584814D02*
X471481Y584854D01*
X471393Y584890D01*
X471304Y584923D01*
X471213Y584952D01*
X471122Y584977D01*
X471029Y584998D01*
X470936Y585016D01*
X470842Y585029D01*
X470748Y585039D01*
X470653Y585045D01*
X470558Y585047D01*
X471567Y584815D02*
X471609Y584799D01*
X471649Y584780D01*
X471687Y584757D01*
X471724Y584732D01*
X471759Y584704D01*
X471791Y584674D01*
X471821Y584641D01*
X471848Y584606D01*
X471873Y584568D01*
X471894Y584529D01*
X471912Y584489D01*
X471928Y584447D01*
X471940Y584404D01*
X471948Y584361D01*
X471953Y584316D01*
X471955Y584272D01*
X471334Y583651D02*
X469782Y584892D01*
X470558Y586238D02*
X470463Y586240D01*
X470368Y586246D01*
X470274Y586256D01*
X470180Y586269D01*
X470087Y586287D01*
X469994Y586308D01*
X469902Y586333D01*
X469812Y586362D01*
X469723Y586395D01*
X469635Y586431D01*
X469549Y586471D01*
X469549Y586472D02*
X469507Y586488D01*
X469467Y586507D01*
X469429Y586530D01*
X469392Y586555D01*
X469357Y586583D01*
X469325Y586613D01*
X469295Y586646D01*
X469268Y586681D01*
X469243Y586719D01*
X469222Y586758D01*
X469204Y586798D01*
X469188Y586840D01*
X469176Y586883D01*
X469168Y586926D01*
X469163Y586971D01*
X469161Y587015D01*
X469163Y587059D01*
X469168Y587104D01*
X469176Y587147D01*
X469188Y587190D01*
X469204Y587232D01*
X469222Y587272D01*
X469243Y587311D01*
X469268Y587349D01*
X469295Y587384D01*
X469325Y587417D01*
X469357Y587447D01*
X469392Y587475D01*
X469429Y587500D01*
X469467Y587523D01*
X469507Y587542D01*
X469549Y587558D01*
X469635Y587598D01*
X469723Y587634D01*
X469812Y587667D01*
X469903Y587696D01*
X469994Y587721D01*
X470087Y587742D01*
X470180Y587760D01*
X470274Y587773D01*
X470368Y587783D01*
X470463Y587789D01*
X470558Y587791D01*
X470558Y586238D02*
X470653Y586240D01*
X470748Y586246D01*
X470842Y586256D01*
X470936Y586269D01*
X471029Y586287D01*
X471122Y586308D01*
X471214Y586333D01*
X471304Y586362D01*
X471393Y586395D01*
X471481Y586431D01*
X471567Y586471D01*
X471567Y586472D02*
X471609Y586488D01*
X471649Y586507D01*
X471687Y586530D01*
X471724Y586555D01*
X471759Y586583D01*
X471791Y586613D01*
X471821Y586646D01*
X471848Y586681D01*
X471873Y586719D01*
X471894Y586758D01*
X471912Y586798D01*
X471928Y586840D01*
X471940Y586883D01*
X471948Y586926D01*
X471953Y586971D01*
X471955Y587015D01*
X471567Y587557D02*
X471481Y587597D01*
X471393Y587633D01*
X471304Y587666D01*
X471213Y587695D01*
X471122Y587720D01*
X471029Y587741D01*
X470936Y587759D01*
X470842Y587772D01*
X470748Y587782D01*
X470653Y587788D01*
X470558Y587790D01*
X471567Y587558D02*
X471609Y587542D01*
X471649Y587523D01*
X471687Y587500D01*
X471724Y587475D01*
X471759Y587447D01*
X471791Y587417D01*
X471821Y587384D01*
X471848Y587349D01*
X471873Y587311D01*
X471894Y587272D01*
X471912Y587232D01*
X471928Y587190D01*
X471940Y587147D01*
X471948Y587104D01*
X471953Y587059D01*
X471955Y587015D01*
X471334Y586394D02*
X469782Y587636D01*
X469161Y589091D02*
X471955Y589091D01*
X469161Y589091D02*
X469161Y589867D01*
X469163Y589922D01*
X469169Y589977D01*
X469179Y590032D01*
X469192Y590086D01*
X469210Y590138D01*
X469231Y590189D01*
X469256Y590239D01*
X469284Y590287D01*
X469316Y590332D01*
X469351Y590375D01*
X469388Y590416D01*
X469429Y590453D01*
X469472Y590488D01*
X469517Y590520D01*
X469565Y590548D01*
X469615Y590573D01*
X469666Y590594D01*
X469718Y590612D01*
X469772Y590625D01*
X469827Y590635D01*
X469882Y590641D01*
X469937Y590643D01*
X469992Y590641D01*
X470047Y590635D01*
X470102Y590625D01*
X470156Y590612D01*
X470208Y590594D01*
X470259Y590573D01*
X470309Y590548D01*
X470357Y590520D01*
X470402Y590488D01*
X470445Y590453D01*
X470486Y590416D01*
X470523Y590375D01*
X470558Y590332D01*
X470590Y590287D01*
X470618Y590239D01*
X470643Y590189D01*
X470664Y590138D01*
X470682Y590086D01*
X470695Y590032D01*
X470705Y589977D01*
X470711Y589922D01*
X470713Y589867D01*
X470713Y589091D01*
X470713Y590023D02*
X471955Y590644D01*
X470558Y591816D02*
X470463Y591818D01*
X470368Y591824D01*
X470274Y591834D01*
X470180Y591847D01*
X470087Y591865D01*
X469994Y591886D01*
X469902Y591911D01*
X469812Y591940D01*
X469723Y591973D01*
X469635Y592009D01*
X469549Y592049D01*
X469549Y592050D02*
X469507Y592066D01*
X469467Y592085D01*
X469429Y592108D01*
X469392Y592133D01*
X469357Y592161D01*
X469325Y592191D01*
X469295Y592224D01*
X469268Y592259D01*
X469243Y592297D01*
X469222Y592336D01*
X469204Y592376D01*
X469188Y592418D01*
X469176Y592461D01*
X469168Y592504D01*
X469163Y592549D01*
X469161Y592593D01*
X469163Y592637D01*
X469168Y592682D01*
X469176Y592725D01*
X469188Y592768D01*
X469204Y592810D01*
X469222Y592850D01*
X469243Y592889D01*
X469268Y592927D01*
X469295Y592962D01*
X469325Y592995D01*
X469357Y593025D01*
X469392Y593053D01*
X469429Y593078D01*
X469467Y593101D01*
X469507Y593120D01*
X469549Y593136D01*
X469549Y593135D02*
X469635Y593175D01*
X469723Y593211D01*
X469812Y593244D01*
X469903Y593273D01*
X469994Y593298D01*
X470087Y593319D01*
X470180Y593337D01*
X470274Y593350D01*
X470368Y593360D01*
X470463Y593366D01*
X470558Y593368D01*
X470558Y591816D02*
X470653Y591818D01*
X470748Y591824D01*
X470842Y591834D01*
X470936Y591847D01*
X471029Y591865D01*
X471122Y591886D01*
X471214Y591911D01*
X471304Y591940D01*
X471393Y591973D01*
X471481Y592009D01*
X471567Y592049D01*
X471567Y592050D02*
X471609Y592066D01*
X471649Y592085D01*
X471687Y592108D01*
X471724Y592133D01*
X471759Y592161D01*
X471791Y592191D01*
X471821Y592224D01*
X471848Y592259D01*
X471873Y592297D01*
X471894Y592336D01*
X471912Y592376D01*
X471928Y592418D01*
X471940Y592461D01*
X471948Y592504D01*
X471953Y592549D01*
X471955Y592593D01*
X471567Y593135D02*
X471481Y593175D01*
X471393Y593211D01*
X471304Y593244D01*
X471213Y593273D01*
X471122Y593298D01*
X471029Y593319D01*
X470936Y593337D01*
X470842Y593350D01*
X470748Y593360D01*
X470653Y593366D01*
X470558Y593368D01*
X471567Y593136D02*
X471609Y593120D01*
X471649Y593101D01*
X471687Y593078D01*
X471724Y593053D01*
X471759Y593025D01*
X471791Y592995D01*
X471821Y592962D01*
X471848Y592927D01*
X471873Y592889D01*
X471894Y592850D01*
X471912Y592810D01*
X471928Y592768D01*
X471940Y592725D01*
X471948Y592682D01*
X471953Y592637D01*
X471955Y592593D01*
X471334Y591972D02*
X469782Y593214D01*
D17*
X444556Y570322D02*
X442101Y570322D01*
X444556Y570322D02*
X446398Y571754D01*
X444556Y570322D02*
X446398Y568889D01*
X444556Y570322D02*
X443738Y572572D01*
X444556Y570322D02*
X443738Y568071D01*
D13*
X649130Y652926D02*
X649130Y687926D01*
X649130Y652926D02*
X589130Y652926D01*
X589130Y687926D01*
X649130Y687926D01*
D11*
X592757Y664672D02*
X592757Y659084D01*
X592757Y661257D02*
X595862Y664672D01*
X593999Y662499D02*
X595862Y659084D01*
X599658Y659084D02*
X599728Y659086D01*
X599797Y659092D01*
X599866Y659102D01*
X599934Y659115D01*
X600002Y659133D01*
X600068Y659154D01*
X600133Y659179D01*
X600197Y659207D01*
X600259Y659239D01*
X600319Y659274D01*
X600377Y659313D01*
X600432Y659355D01*
X600486Y659400D01*
X600536Y659448D01*
X600584Y659498D01*
X600629Y659552D01*
X600671Y659607D01*
X600710Y659665D01*
X600745Y659725D01*
X600777Y659787D01*
X600805Y659851D01*
X600830Y659916D01*
X600851Y659982D01*
X600869Y660050D01*
X600882Y660118D01*
X600892Y660187D01*
X600898Y660256D01*
X600900Y660326D01*
X599658Y659084D02*
X599559Y659086D01*
X599461Y659091D01*
X599363Y659101D01*
X599265Y659114D01*
X599168Y659130D01*
X599071Y659150D01*
X598976Y659174D01*
X598881Y659202D01*
X598787Y659233D01*
X598695Y659267D01*
X598604Y659305D01*
X598514Y659346D01*
X598426Y659391D01*
X598340Y659439D01*
X598256Y659490D01*
X598174Y659544D01*
X598093Y659602D01*
X598015Y659662D01*
X597940Y659725D01*
X597866Y659791D01*
X597796Y659860D01*
X597950Y663430D02*
X597952Y663500D01*
X597958Y663569D01*
X597968Y663638D01*
X597981Y663706D01*
X597999Y663774D01*
X598020Y663840D01*
X598045Y663905D01*
X598073Y663969D01*
X598105Y664031D01*
X598140Y664091D01*
X598179Y664149D01*
X598221Y664204D01*
X598266Y664258D01*
X598314Y664308D01*
X598364Y664356D01*
X598418Y664401D01*
X598473Y664443D01*
X598531Y664482D01*
X598591Y664517D01*
X598653Y664549D01*
X598717Y664577D01*
X598782Y664602D01*
X598848Y664623D01*
X598916Y664641D01*
X598984Y664654D01*
X599053Y664664D01*
X599122Y664670D01*
X599192Y664672D01*
X599286Y664670D01*
X599379Y664664D01*
X599472Y664655D01*
X599565Y664642D01*
X599657Y664625D01*
X599748Y664605D01*
X599839Y664580D01*
X599928Y664553D01*
X600016Y664521D01*
X600103Y664486D01*
X600189Y664448D01*
X600272Y664406D01*
X600354Y664361D01*
X600435Y664313D01*
X600513Y664261D01*
X600589Y664206D01*
X598572Y662344D02*
X598513Y662380D01*
X598457Y662420D01*
X598403Y662463D01*
X598351Y662508D01*
X598302Y662557D01*
X598256Y662608D01*
X598213Y662661D01*
X598172Y662717D01*
X598135Y662775D01*
X598100Y662835D01*
X598070Y662896D01*
X598042Y662959D01*
X598018Y663024D01*
X597998Y663090D01*
X597981Y663157D01*
X597968Y663224D01*
X597959Y663292D01*
X597953Y663361D01*
X597951Y663430D01*
X600278Y661412D02*
X600337Y661376D01*
X600393Y661336D01*
X600447Y661293D01*
X600499Y661248D01*
X600548Y661199D01*
X600594Y661148D01*
X600637Y661095D01*
X600678Y661039D01*
X600715Y660981D01*
X600750Y660921D01*
X600780Y660860D01*
X600808Y660797D01*
X600832Y660732D01*
X600852Y660666D01*
X600869Y660599D01*
X600882Y660532D01*
X600891Y660464D01*
X600897Y660395D01*
X600899Y660326D01*
X600279Y661412D02*
X598571Y662344D01*
X603318Y664672D02*
X603318Y659084D01*
X603318Y664672D02*
X604870Y664672D01*
X604947Y664670D01*
X605025Y664664D01*
X605101Y664655D01*
X605178Y664641D01*
X605253Y664624D01*
X605327Y664603D01*
X605401Y664578D01*
X605473Y664550D01*
X605543Y664518D01*
X605612Y664483D01*
X605679Y664444D01*
X605744Y664402D01*
X605807Y664357D01*
X605868Y664309D01*
X605926Y664258D01*
X605981Y664204D01*
X606034Y664147D01*
X606083Y664088D01*
X606130Y664026D01*
X606174Y663962D01*
X606214Y663896D01*
X606251Y663828D01*
X606285Y663758D01*
X606315Y663687D01*
X606341Y663614D01*
X606364Y663540D01*
X606383Y663465D01*
X606398Y663390D01*
X606410Y663313D01*
X606418Y663236D01*
X606422Y663159D01*
X606422Y663081D01*
X606418Y663004D01*
X606410Y662927D01*
X606398Y662850D01*
X606383Y662775D01*
X606364Y662700D01*
X606341Y662626D01*
X606315Y662553D01*
X606285Y662482D01*
X606251Y662412D01*
X606214Y662344D01*
X606174Y662278D01*
X606130Y662214D01*
X606083Y662152D01*
X606034Y662093D01*
X605981Y662036D01*
X605926Y661982D01*
X605868Y661931D01*
X605807Y661883D01*
X605744Y661838D01*
X605679Y661796D01*
X605612Y661757D01*
X605543Y661722D01*
X605473Y661690D01*
X605401Y661662D01*
X605327Y661637D01*
X605253Y661616D01*
X605178Y661599D01*
X605101Y661585D01*
X605025Y661576D01*
X604947Y661570D01*
X604870Y661568D01*
X603318Y661568D01*
X605180Y661568D02*
X606422Y659084D01*
X611872Y663275D02*
X611870Y663348D01*
X611864Y663421D01*
X611855Y663494D01*
X611841Y663565D01*
X611824Y663637D01*
X611804Y663707D01*
X611779Y663776D01*
X611751Y663843D01*
X611720Y663909D01*
X611685Y663974D01*
X611647Y664036D01*
X611605Y664096D01*
X611561Y664154D01*
X611513Y664210D01*
X611463Y664263D01*
X611410Y664313D01*
X611354Y664361D01*
X611296Y664405D01*
X611236Y664447D01*
X611174Y664485D01*
X611109Y664520D01*
X611043Y664551D01*
X610976Y664579D01*
X610907Y664604D01*
X610837Y664624D01*
X610765Y664641D01*
X610694Y664655D01*
X610621Y664664D01*
X610548Y664670D01*
X610475Y664672D01*
X610391Y664670D01*
X610308Y664664D01*
X610225Y664655D01*
X610143Y664641D01*
X610061Y664624D01*
X609980Y664602D01*
X609900Y664577D01*
X609822Y664549D01*
X609744Y664517D01*
X609669Y664481D01*
X609595Y664442D01*
X609523Y664399D01*
X609453Y664353D01*
X609386Y664304D01*
X609320Y664251D01*
X609258Y664196D01*
X609198Y664138D01*
X609140Y664077D01*
X609086Y664014D01*
X609034Y663948D01*
X608986Y663880D01*
X608941Y663809D01*
X608899Y663737D01*
X608861Y663662D01*
X608826Y663586D01*
X608795Y663509D01*
X608767Y663430D01*
X611406Y662189D02*
X611460Y662242D01*
X611511Y662299D01*
X611559Y662358D01*
X611604Y662419D01*
X611645Y662482D01*
X611684Y662548D01*
X611719Y662615D01*
X611751Y662684D01*
X611779Y662755D01*
X611803Y662826D01*
X611824Y662899D01*
X611841Y662973D01*
X611855Y663048D01*
X611864Y663123D01*
X611870Y663199D01*
X611872Y663275D01*
X611407Y662188D02*
X608768Y659084D01*
X611872Y659084D01*
X617359Y663275D02*
X617357Y663348D01*
X617351Y663421D01*
X617342Y663494D01*
X617328Y663565D01*
X617311Y663637D01*
X617291Y663707D01*
X617266Y663776D01*
X617238Y663843D01*
X617207Y663909D01*
X617172Y663974D01*
X617134Y664036D01*
X617092Y664096D01*
X617048Y664154D01*
X617000Y664210D01*
X616950Y664263D01*
X616897Y664313D01*
X616841Y664361D01*
X616783Y664405D01*
X616723Y664447D01*
X616661Y664485D01*
X616596Y664520D01*
X616530Y664551D01*
X616463Y664579D01*
X616394Y664604D01*
X616324Y664624D01*
X616252Y664641D01*
X616181Y664655D01*
X616108Y664664D01*
X616035Y664670D01*
X615962Y664672D01*
X615878Y664670D01*
X615795Y664664D01*
X615712Y664655D01*
X615630Y664641D01*
X615548Y664624D01*
X615467Y664602D01*
X615387Y664577D01*
X615309Y664549D01*
X615231Y664517D01*
X615156Y664481D01*
X615082Y664442D01*
X615010Y664399D01*
X614940Y664353D01*
X614873Y664304D01*
X614807Y664251D01*
X614745Y664196D01*
X614685Y664138D01*
X614627Y664077D01*
X614573Y664014D01*
X614521Y663948D01*
X614473Y663880D01*
X614428Y663809D01*
X614386Y663737D01*
X614348Y663662D01*
X614313Y663586D01*
X614282Y663509D01*
X614254Y663430D01*
X616892Y662189D02*
X616946Y662242D01*
X616997Y662299D01*
X617045Y662358D01*
X617090Y662419D01*
X617131Y662482D01*
X617170Y662548D01*
X617205Y662615D01*
X617237Y662684D01*
X617265Y662755D01*
X617289Y662826D01*
X617310Y662899D01*
X617327Y662973D01*
X617341Y663048D01*
X617350Y663123D01*
X617356Y663199D01*
X617358Y663275D01*
X616893Y662188D02*
X614254Y659084D01*
X617359Y659084D01*
X619741Y659084D02*
X621293Y659084D01*
X621370Y659086D01*
X621448Y659092D01*
X621524Y659101D01*
X621601Y659115D01*
X621676Y659132D01*
X621750Y659153D01*
X621824Y659178D01*
X621896Y659206D01*
X621966Y659238D01*
X622035Y659273D01*
X622102Y659312D01*
X622167Y659354D01*
X622230Y659399D01*
X622291Y659447D01*
X622349Y659498D01*
X622404Y659552D01*
X622457Y659609D01*
X622506Y659668D01*
X622553Y659730D01*
X622597Y659794D01*
X622637Y659860D01*
X622674Y659928D01*
X622708Y659998D01*
X622738Y660069D01*
X622764Y660142D01*
X622787Y660216D01*
X622806Y660291D01*
X622821Y660366D01*
X622833Y660443D01*
X622841Y660520D01*
X622845Y660597D01*
X622845Y660675D01*
X622841Y660752D01*
X622833Y660829D01*
X622821Y660906D01*
X622806Y660981D01*
X622787Y661056D01*
X622764Y661130D01*
X622738Y661203D01*
X622708Y661274D01*
X622674Y661344D01*
X622637Y661412D01*
X622597Y661478D01*
X622553Y661542D01*
X622506Y661604D01*
X622457Y661663D01*
X622404Y661720D01*
X622349Y661774D01*
X622291Y661825D01*
X622230Y661873D01*
X622167Y661918D01*
X622102Y661960D01*
X622035Y661999D01*
X621966Y662034D01*
X621896Y662066D01*
X621824Y662094D01*
X621750Y662119D01*
X621676Y662140D01*
X621601Y662157D01*
X621524Y662171D01*
X621448Y662180D01*
X621370Y662186D01*
X621293Y662188D01*
X621603Y664672D02*
X619741Y664672D01*
X621603Y664672D02*
X621673Y664670D01*
X621742Y664664D01*
X621811Y664654D01*
X621879Y664641D01*
X621947Y664623D01*
X622013Y664602D01*
X622078Y664577D01*
X622142Y664549D01*
X622204Y664517D01*
X622264Y664482D01*
X622322Y664443D01*
X622377Y664401D01*
X622431Y664356D01*
X622481Y664308D01*
X622529Y664258D01*
X622574Y664204D01*
X622616Y664149D01*
X622655Y664091D01*
X622690Y664031D01*
X622722Y663969D01*
X622750Y663905D01*
X622775Y663840D01*
X622796Y663774D01*
X622814Y663706D01*
X622827Y663638D01*
X622837Y663569D01*
X622843Y663500D01*
X622845Y663430D01*
X622843Y663360D01*
X622837Y663291D01*
X622827Y663222D01*
X622814Y663154D01*
X622796Y663086D01*
X622775Y663020D01*
X622750Y662955D01*
X622722Y662891D01*
X622690Y662829D01*
X622655Y662769D01*
X622616Y662711D01*
X622574Y662656D01*
X622529Y662602D01*
X622481Y662552D01*
X622431Y662504D01*
X622377Y662459D01*
X622322Y662417D01*
X622264Y662378D01*
X622204Y662343D01*
X622142Y662311D01*
X622078Y662283D01*
X622013Y662258D01*
X621947Y662237D01*
X621879Y662219D01*
X621811Y662206D01*
X621742Y662196D01*
X621673Y662190D01*
X621603Y662188D01*
X620361Y662188D01*
X627583Y662188D02*
X628514Y662188D01*
X628514Y659084D01*
X626652Y659084D01*
X626582Y659086D01*
X626513Y659092D01*
X626444Y659102D01*
X626376Y659115D01*
X626308Y659133D01*
X626242Y659154D01*
X626177Y659179D01*
X626113Y659207D01*
X626051Y659239D01*
X625991Y659274D01*
X625933Y659313D01*
X625878Y659355D01*
X625824Y659400D01*
X625774Y659448D01*
X625726Y659498D01*
X625681Y659552D01*
X625639Y659607D01*
X625600Y659665D01*
X625565Y659725D01*
X625533Y659787D01*
X625505Y659851D01*
X625480Y659916D01*
X625459Y659982D01*
X625441Y660050D01*
X625428Y660118D01*
X625418Y660187D01*
X625412Y660256D01*
X625410Y660326D01*
X625410Y663430D01*
X625412Y663500D01*
X625418Y663569D01*
X625428Y663638D01*
X625441Y663706D01*
X625459Y663774D01*
X625480Y663840D01*
X625505Y663905D01*
X625533Y663969D01*
X625565Y664031D01*
X625600Y664091D01*
X625639Y664149D01*
X625681Y664204D01*
X625726Y664258D01*
X625774Y664308D01*
X625824Y664356D01*
X625878Y664401D01*
X625933Y664443D01*
X625991Y664482D01*
X626051Y664517D01*
X626113Y664549D01*
X626177Y664577D01*
X626242Y664602D01*
X626308Y664623D01*
X626376Y664641D01*
X626444Y664654D01*
X626513Y664664D01*
X626582Y664670D01*
X626652Y664672D01*
X628514Y664672D01*
X631273Y664672D02*
X631273Y659084D01*
X633757Y659084D01*
X636028Y659084D02*
X636028Y664672D01*
X638511Y664672D01*
X638511Y662188D02*
X636028Y662188D01*
X642945Y662188D02*
X643876Y662188D01*
X643876Y659084D01*
X642013Y659084D01*
X641943Y659086D01*
X641874Y659092D01*
X641805Y659102D01*
X641737Y659115D01*
X641669Y659133D01*
X641603Y659154D01*
X641538Y659179D01*
X641474Y659207D01*
X641412Y659239D01*
X641352Y659274D01*
X641294Y659313D01*
X641239Y659355D01*
X641185Y659400D01*
X641135Y659448D01*
X641087Y659498D01*
X641042Y659552D01*
X641000Y659607D01*
X640961Y659665D01*
X640926Y659725D01*
X640894Y659787D01*
X640866Y659851D01*
X640841Y659916D01*
X640820Y659982D01*
X640802Y660050D01*
X640789Y660118D01*
X640779Y660187D01*
X640773Y660256D01*
X640771Y660326D01*
X640772Y660326D02*
X640772Y663430D01*
X640771Y663430D02*
X640773Y663500D01*
X640779Y663569D01*
X640789Y663638D01*
X640802Y663706D01*
X640820Y663774D01*
X640841Y663840D01*
X640866Y663905D01*
X640894Y663969D01*
X640926Y664031D01*
X640961Y664091D01*
X641000Y664149D01*
X641042Y664204D01*
X641087Y664258D01*
X641135Y664308D01*
X641185Y664356D01*
X641239Y664401D01*
X641294Y664443D01*
X641352Y664482D01*
X641412Y664517D01*
X641474Y664549D01*
X641538Y664577D01*
X641603Y664602D01*
X641669Y664623D01*
X641737Y664641D01*
X641805Y664654D01*
X641874Y664664D01*
X641943Y664670D01*
X642013Y664672D01*
X643876Y664672D01*
D13*
X660400Y793750D02*
X660400Y831850D01*
X685800Y831850D01*
X685800Y793750D01*
X660400Y793750D01*
X660400Y781050D02*
X685800Y781050D01*
D12*
X574800Y619250D02*
X574800Y549150D01*
X504700Y549150D01*
X504700Y615700D01*
X508250Y619250D02*
X574800Y619250D01*
X508250Y619250D02*
X504700Y615700D01*
X501650Y621030D02*
X501652Y621108D01*
X501658Y621185D01*
X501668Y621263D01*
X501682Y621339D01*
X501699Y621415D01*
X501721Y621490D01*
X501746Y621563D01*
X501775Y621636D01*
X501808Y621706D01*
X501845Y621775D01*
X501884Y621842D01*
X501927Y621907D01*
X501974Y621969D01*
X502023Y622029D01*
X502076Y622087D01*
X502131Y622141D01*
X502189Y622193D01*
X502250Y622242D01*
X502313Y622288D01*
X502379Y622330D01*
X502446Y622369D01*
X502515Y622404D01*
X502586Y622436D01*
X502659Y622464D01*
X502733Y622489D01*
X502808Y622509D01*
X502884Y622526D01*
X502961Y622539D01*
X503038Y622548D01*
X503116Y622553D01*
X503193Y622554D01*
X503271Y622551D01*
X503349Y622544D01*
X503426Y622533D01*
X503502Y622518D01*
X503578Y622500D01*
X503652Y622477D01*
X503726Y622451D01*
X503797Y622421D01*
X503868Y622387D01*
X503936Y622350D01*
X504002Y622309D01*
X504067Y622265D01*
X504129Y622218D01*
X504188Y622168D01*
X504245Y622114D01*
X504299Y622058D01*
X504350Y622000D01*
X504398Y621938D01*
X504443Y621875D01*
X504484Y621809D01*
X504522Y621741D01*
X504557Y621671D01*
X504588Y621600D01*
X504615Y621527D01*
X504638Y621453D01*
X504658Y621377D01*
X504674Y621301D01*
X504686Y621224D01*
X504694Y621147D01*
X504698Y621069D01*
X504698Y620991D01*
X504694Y620913D01*
X504686Y620836D01*
X504674Y620759D01*
X504658Y620683D01*
X504638Y620607D01*
X504615Y620533D01*
X504588Y620460D01*
X504557Y620389D01*
X504522Y620319D01*
X504484Y620251D01*
X504443Y620185D01*
X504398Y620122D01*
X504350Y620060D01*
X504299Y620002D01*
X504245Y619946D01*
X504188Y619892D01*
X504129Y619842D01*
X504067Y619795D01*
X504002Y619751D01*
X503936Y619710D01*
X503868Y619673D01*
X503797Y619639D01*
X503726Y619609D01*
X503652Y619583D01*
X503578Y619560D01*
X503502Y619542D01*
X503426Y619527D01*
X503349Y619516D01*
X503271Y619509D01*
X503193Y619506D01*
X503116Y619507D01*
X503038Y619512D01*
X502961Y619521D01*
X502884Y619534D01*
X502808Y619551D01*
X502733Y619571D01*
X502659Y619596D01*
X502586Y619624D01*
X502515Y619656D01*
X502446Y619691D01*
X502379Y619730D01*
X502313Y619772D01*
X502250Y619818D01*
X502189Y619867D01*
X502131Y619919D01*
X502076Y619973D01*
X502023Y620031D01*
X501974Y620091D01*
X501927Y620153D01*
X501884Y620218D01*
X501845Y620285D01*
X501808Y620354D01*
X501775Y620424D01*
X501746Y620497D01*
X501721Y620570D01*
X501699Y620645D01*
X501682Y620721D01*
X501668Y620797D01*
X501658Y620875D01*
X501652Y620952D01*
X501650Y621030D01*
D13*
X535575Y643326D02*
X535575Y646811D01*
X535574Y643326D02*
X535576Y643255D01*
X535582Y643183D01*
X535591Y643113D01*
X535604Y643043D01*
X535621Y642973D01*
X535642Y642905D01*
X535666Y642838D01*
X535694Y642772D01*
X535725Y642708D01*
X535760Y642645D01*
X535798Y642585D01*
X535839Y642526D01*
X535883Y642470D01*
X535930Y642416D01*
X535979Y642365D01*
X536032Y642317D01*
X536087Y642271D01*
X536144Y642229D01*
X536204Y642189D01*
X536265Y642153D01*
X536329Y642120D01*
X536394Y642091D01*
X536460Y642065D01*
X536528Y642042D01*
X536597Y642023D01*
X536667Y642008D01*
X536737Y641997D01*
X536808Y641989D01*
X536879Y641985D01*
X536951Y641985D01*
X537022Y641989D01*
X537093Y641997D01*
X537163Y642008D01*
X537233Y642023D01*
X537302Y642042D01*
X537370Y642065D01*
X537436Y642091D01*
X537501Y642120D01*
X537565Y642153D01*
X537626Y642189D01*
X537686Y642229D01*
X537743Y642271D01*
X537798Y642317D01*
X537851Y642365D01*
X537900Y642416D01*
X537947Y642470D01*
X537991Y642526D01*
X538032Y642585D01*
X538070Y642645D01*
X538105Y642708D01*
X538136Y642772D01*
X538164Y642838D01*
X538188Y642905D01*
X538209Y642973D01*
X538226Y643043D01*
X538239Y643113D01*
X538248Y643183D01*
X538254Y643255D01*
X538256Y643326D01*
X538256Y646811D01*
X541244Y645739D02*
X542585Y646811D01*
X542585Y641985D01*
X543925Y641985D02*
X541244Y641985D01*
D10*
X685856Y574802D02*
X688453Y574802D01*
X685856Y574802D02*
X685757Y574804D01*
X685657Y574810D01*
X685558Y574819D01*
X685460Y574832D01*
X685362Y574849D01*
X685264Y574870D01*
X685168Y574895D01*
X685073Y574923D01*
X684979Y574955D01*
X684886Y574990D01*
X684794Y575029D01*
X684704Y575072D01*
X684616Y575117D01*
X684529Y575167D01*
X684445Y575219D01*
X684362Y575275D01*
X684282Y575333D01*
X684204Y575395D01*
X684129Y575460D01*
X684056Y575528D01*
X683986Y575598D01*
X683918Y575671D01*
X683853Y575746D01*
X683791Y575824D01*
X683733Y575904D01*
X683677Y575987D01*
X683625Y576071D01*
X683575Y576158D01*
X683530Y576246D01*
X683487Y576336D01*
X683448Y576428D01*
X683413Y576521D01*
X683381Y576615D01*
X683353Y576710D01*
X683328Y576806D01*
X683307Y576904D01*
X683290Y577002D01*
X683277Y577100D01*
X683268Y577199D01*
X683262Y577299D01*
X683260Y577398D01*
X683260Y583890D01*
X683262Y583989D01*
X683268Y584089D01*
X683277Y584188D01*
X683290Y584286D01*
X683307Y584384D01*
X683328Y584482D01*
X683353Y584578D01*
X683381Y584673D01*
X683413Y584767D01*
X683448Y584860D01*
X683487Y584952D01*
X683530Y585042D01*
X683575Y585130D01*
X683625Y585217D01*
X683677Y585301D01*
X683733Y585384D01*
X683791Y585464D01*
X683853Y585542D01*
X683918Y585617D01*
X683986Y585690D01*
X684056Y585760D01*
X684129Y585828D01*
X684204Y585893D01*
X684282Y585955D01*
X684362Y586013D01*
X684445Y586069D01*
X684529Y586121D01*
X684616Y586171D01*
X684704Y586216D01*
X684794Y586259D01*
X684886Y586298D01*
X684978Y586333D01*
X685073Y586365D01*
X685168Y586393D01*
X685264Y586418D01*
X685362Y586439D01*
X685460Y586456D01*
X685558Y586469D01*
X685657Y586478D01*
X685757Y586484D01*
X685856Y586486D01*
X688453Y586486D01*
X692818Y578048D02*
X692820Y578161D01*
X692826Y578274D01*
X692836Y578387D01*
X692850Y578500D01*
X692867Y578612D01*
X692889Y578723D01*
X692914Y578833D01*
X692944Y578943D01*
X692977Y579051D01*
X693014Y579158D01*
X693054Y579264D01*
X693099Y579368D01*
X693147Y579471D01*
X693198Y579572D01*
X693253Y579671D01*
X693311Y579768D01*
X693373Y579863D01*
X693438Y579956D01*
X693506Y580046D01*
X693577Y580134D01*
X693652Y580220D01*
X693729Y580303D01*
X693809Y580383D01*
X693892Y580460D01*
X693978Y580535D01*
X694066Y580606D01*
X694156Y580674D01*
X694249Y580739D01*
X694344Y580801D01*
X694441Y580859D01*
X694540Y580914D01*
X694641Y580965D01*
X694744Y581013D01*
X694848Y581058D01*
X694954Y581098D01*
X695061Y581135D01*
X695169Y581168D01*
X695279Y581198D01*
X695389Y581223D01*
X695500Y581245D01*
X695612Y581262D01*
X695725Y581276D01*
X695838Y581286D01*
X695951Y581292D01*
X696064Y581294D01*
X696177Y581292D01*
X696290Y581286D01*
X696403Y581276D01*
X696516Y581262D01*
X696628Y581245D01*
X696739Y581223D01*
X696849Y581198D01*
X696959Y581168D01*
X697067Y581135D01*
X697174Y581098D01*
X697280Y581058D01*
X697384Y581013D01*
X697487Y580965D01*
X697588Y580914D01*
X697687Y580859D01*
X697784Y580801D01*
X697879Y580739D01*
X697972Y580674D01*
X698062Y580606D01*
X698150Y580535D01*
X698236Y580460D01*
X698319Y580383D01*
X698399Y580303D01*
X698476Y580220D01*
X698551Y580134D01*
X698622Y580046D01*
X698690Y579956D01*
X698755Y579863D01*
X698817Y579768D01*
X698875Y579671D01*
X698930Y579572D01*
X698981Y579471D01*
X699029Y579368D01*
X699074Y579264D01*
X699114Y579158D01*
X699151Y579051D01*
X699184Y578943D01*
X699214Y578833D01*
X699239Y578723D01*
X699261Y578612D01*
X699278Y578500D01*
X699292Y578387D01*
X699302Y578274D01*
X699308Y578161D01*
X699310Y578048D01*
X699308Y577935D01*
X699302Y577822D01*
X699292Y577709D01*
X699278Y577596D01*
X699261Y577484D01*
X699239Y577373D01*
X699214Y577263D01*
X699184Y577153D01*
X699151Y577045D01*
X699114Y576938D01*
X699074Y576832D01*
X699029Y576728D01*
X698981Y576625D01*
X698930Y576524D01*
X698875Y576425D01*
X698817Y576328D01*
X698755Y576233D01*
X698690Y576140D01*
X698622Y576050D01*
X698551Y575962D01*
X698476Y575876D01*
X698399Y575793D01*
X698319Y575713D01*
X698236Y575636D01*
X698150Y575561D01*
X698062Y575490D01*
X697972Y575422D01*
X697879Y575357D01*
X697784Y575295D01*
X697687Y575237D01*
X697588Y575182D01*
X697487Y575131D01*
X697384Y575083D01*
X697280Y575038D01*
X697174Y574998D01*
X697067Y574961D01*
X696959Y574928D01*
X696849Y574898D01*
X696739Y574873D01*
X696628Y574851D01*
X696516Y574834D01*
X696403Y574820D01*
X696290Y574810D01*
X696177Y574804D01*
X696064Y574802D01*
X695951Y574804D01*
X695838Y574810D01*
X695725Y574820D01*
X695612Y574834D01*
X695500Y574851D01*
X695389Y574873D01*
X695279Y574898D01*
X695169Y574928D01*
X695061Y574961D01*
X694954Y574998D01*
X694848Y575038D01*
X694744Y575083D01*
X694641Y575131D01*
X694540Y575182D01*
X694441Y575237D01*
X694344Y575295D01*
X694249Y575357D01*
X694156Y575422D01*
X694066Y575490D01*
X693978Y575561D01*
X693892Y575636D01*
X693809Y575713D01*
X693729Y575793D01*
X693652Y575876D01*
X693577Y575962D01*
X693506Y576050D01*
X693438Y576140D01*
X693373Y576233D01*
X693311Y576328D01*
X693253Y576425D01*
X693198Y576524D01*
X693147Y576625D01*
X693099Y576728D01*
X693054Y576832D01*
X693014Y576938D01*
X692977Y577045D01*
X692944Y577153D01*
X692914Y577263D01*
X692889Y577373D01*
X692867Y577484D01*
X692850Y577596D01*
X692836Y577709D01*
X692826Y577822D01*
X692820Y577935D01*
X692818Y578048D01*
X693468Y583890D02*
X693470Y583991D01*
X693476Y584091D01*
X693486Y584191D01*
X693499Y584291D01*
X693517Y584390D01*
X693538Y584489D01*
X693563Y584586D01*
X693592Y584683D01*
X693625Y584778D01*
X693661Y584872D01*
X693701Y584964D01*
X693744Y585055D01*
X693791Y585144D01*
X693841Y585231D01*
X693895Y585317D01*
X693952Y585400D01*
X694012Y585480D01*
X694075Y585559D01*
X694142Y585635D01*
X694211Y585708D01*
X694283Y585778D01*
X694357Y585846D01*
X694434Y585911D01*
X694514Y585972D01*
X694596Y586031D01*
X694680Y586086D01*
X694766Y586138D01*
X694854Y586187D01*
X694944Y586232D01*
X695036Y586274D01*
X695129Y586312D01*
X695224Y586346D01*
X695319Y586377D01*
X695416Y586404D01*
X695514Y586427D01*
X695613Y586447D01*
X695713Y586462D01*
X695813Y586474D01*
X695913Y586482D01*
X696014Y586486D01*
X696114Y586486D01*
X696215Y586482D01*
X696315Y586474D01*
X696415Y586462D01*
X696515Y586447D01*
X696614Y586427D01*
X696712Y586404D01*
X696809Y586377D01*
X696904Y586346D01*
X696999Y586312D01*
X697092Y586274D01*
X697184Y586232D01*
X697274Y586187D01*
X697362Y586138D01*
X697448Y586086D01*
X697532Y586031D01*
X697614Y585972D01*
X697694Y585911D01*
X697771Y585846D01*
X697845Y585778D01*
X697917Y585708D01*
X697986Y585635D01*
X698053Y585559D01*
X698116Y585480D01*
X698176Y585400D01*
X698233Y585317D01*
X698287Y585231D01*
X698337Y585144D01*
X698384Y585055D01*
X698427Y584964D01*
X698467Y584872D01*
X698503Y584778D01*
X698536Y584683D01*
X698565Y584586D01*
X698590Y584489D01*
X698611Y584390D01*
X698629Y584291D01*
X698642Y584191D01*
X698652Y584091D01*
X698658Y583991D01*
X698660Y583890D01*
X698658Y583789D01*
X698652Y583689D01*
X698642Y583589D01*
X698629Y583489D01*
X698611Y583390D01*
X698590Y583291D01*
X698565Y583194D01*
X698536Y583097D01*
X698503Y583002D01*
X698467Y582908D01*
X698427Y582816D01*
X698384Y582725D01*
X698337Y582636D01*
X698287Y582549D01*
X698233Y582463D01*
X698176Y582380D01*
X698116Y582300D01*
X698053Y582221D01*
X697986Y582145D01*
X697917Y582072D01*
X697845Y582002D01*
X697771Y581934D01*
X697694Y581869D01*
X697614Y581808D01*
X697532Y581749D01*
X697448Y581694D01*
X697362Y581642D01*
X697274Y581593D01*
X697184Y581548D01*
X697092Y581506D01*
X696999Y581468D01*
X696904Y581434D01*
X696809Y581403D01*
X696712Y581376D01*
X696614Y581353D01*
X696515Y581333D01*
X696415Y581318D01*
X696315Y581306D01*
X696215Y581298D01*
X696114Y581294D01*
X696014Y581294D01*
X695913Y581298D01*
X695813Y581306D01*
X695713Y581318D01*
X695613Y581333D01*
X695514Y581353D01*
X695416Y581376D01*
X695319Y581403D01*
X695224Y581434D01*
X695129Y581468D01*
X695036Y581506D01*
X694944Y581548D01*
X694854Y581593D01*
X694766Y581642D01*
X694680Y581694D01*
X694596Y581749D01*
X694514Y581808D01*
X694434Y581869D01*
X694357Y581934D01*
X694283Y582002D01*
X694211Y582072D01*
X694142Y582145D01*
X694075Y582221D01*
X694012Y582300D01*
X693952Y582380D01*
X693895Y582463D01*
X693841Y582549D01*
X693791Y582636D01*
X693744Y582725D01*
X693701Y582816D01*
X693661Y582908D01*
X693625Y583002D01*
X693592Y583097D01*
X693563Y583194D01*
X693538Y583291D01*
X693517Y583390D01*
X693499Y583489D01*
X693486Y583589D01*
X693476Y583689D01*
X693470Y583789D01*
X693468Y583890D01*
X736092Y811539D02*
X736092Y814136D01*
X736092Y811539D02*
X736090Y811440D01*
X736084Y811340D01*
X736075Y811241D01*
X736062Y811143D01*
X736045Y811045D01*
X736024Y810947D01*
X735999Y810851D01*
X735971Y810756D01*
X735939Y810662D01*
X735904Y810569D01*
X735865Y810477D01*
X735822Y810387D01*
X735777Y810299D01*
X735727Y810212D01*
X735675Y810128D01*
X735619Y810045D01*
X735561Y809965D01*
X735499Y809887D01*
X735434Y809812D01*
X735366Y809739D01*
X735296Y809669D01*
X735223Y809601D01*
X735148Y809536D01*
X735070Y809474D01*
X734990Y809416D01*
X734907Y809360D01*
X734823Y809308D01*
X734736Y809258D01*
X734648Y809213D01*
X734558Y809170D01*
X734466Y809131D01*
X734373Y809096D01*
X734279Y809064D01*
X734184Y809036D01*
X734088Y809011D01*
X733990Y808990D01*
X733892Y808973D01*
X733794Y808960D01*
X733695Y808951D01*
X733595Y808945D01*
X733496Y808943D01*
X727004Y808943D01*
X727004Y808942D02*
X726905Y808944D01*
X726805Y808950D01*
X726706Y808959D01*
X726608Y808972D01*
X726510Y808990D01*
X726412Y809010D01*
X726316Y809035D01*
X726220Y809063D01*
X726126Y809095D01*
X726033Y809130D01*
X725942Y809169D01*
X725852Y809212D01*
X725763Y809257D01*
X725677Y809307D01*
X725592Y809359D01*
X725510Y809415D01*
X725430Y809474D01*
X725352Y809535D01*
X725276Y809600D01*
X725203Y809668D01*
X725133Y809738D01*
X725065Y809811D01*
X725000Y809887D01*
X724939Y809965D01*
X724880Y810045D01*
X724824Y810127D01*
X724772Y810212D01*
X724723Y810298D01*
X724677Y810387D01*
X724634Y810477D01*
X724595Y810568D01*
X724560Y810661D01*
X724528Y810755D01*
X724500Y810851D01*
X724475Y810947D01*
X724455Y811045D01*
X724437Y811143D01*
X724424Y811241D01*
X724415Y811340D01*
X724409Y811439D01*
X724407Y811539D01*
X724408Y811539D02*
X724408Y814136D01*
X736092Y818501D02*
X736092Y821746D01*
X736090Y821859D01*
X736084Y821972D01*
X736074Y822085D01*
X736060Y822198D01*
X736043Y822310D01*
X736021Y822421D01*
X735996Y822531D01*
X735966Y822641D01*
X735933Y822749D01*
X735896Y822856D01*
X735856Y822962D01*
X735811Y823066D01*
X735763Y823169D01*
X735712Y823270D01*
X735657Y823369D01*
X735599Y823466D01*
X735537Y823561D01*
X735472Y823654D01*
X735404Y823744D01*
X735333Y823832D01*
X735258Y823918D01*
X735181Y824001D01*
X735101Y824081D01*
X735018Y824158D01*
X734932Y824233D01*
X734844Y824304D01*
X734754Y824372D01*
X734661Y824437D01*
X734566Y824499D01*
X734469Y824557D01*
X734370Y824612D01*
X734269Y824663D01*
X734166Y824711D01*
X734062Y824756D01*
X733956Y824796D01*
X733849Y824833D01*
X733741Y824866D01*
X733631Y824896D01*
X733521Y824921D01*
X733410Y824943D01*
X733298Y824960D01*
X733185Y824974D01*
X733072Y824984D01*
X732959Y824990D01*
X732846Y824992D01*
X732733Y824990D01*
X732620Y824984D01*
X732507Y824974D01*
X732394Y824960D01*
X732282Y824943D01*
X732171Y824921D01*
X732061Y824896D01*
X731951Y824866D01*
X731843Y824833D01*
X731736Y824796D01*
X731630Y824756D01*
X731526Y824711D01*
X731423Y824663D01*
X731322Y824612D01*
X731223Y824557D01*
X731126Y824499D01*
X731031Y824437D01*
X730938Y824372D01*
X730848Y824304D01*
X730760Y824233D01*
X730674Y824158D01*
X730591Y824081D01*
X730511Y824001D01*
X730434Y823918D01*
X730359Y823832D01*
X730288Y823744D01*
X730220Y823654D01*
X730155Y823561D01*
X730093Y823466D01*
X730035Y823369D01*
X729980Y823270D01*
X729929Y823169D01*
X729881Y823066D01*
X729836Y822962D01*
X729796Y822856D01*
X729759Y822749D01*
X729726Y822641D01*
X729696Y822531D01*
X729671Y822421D01*
X729649Y822310D01*
X729632Y822198D01*
X729618Y822085D01*
X729608Y821972D01*
X729602Y821859D01*
X729600Y821746D01*
X724408Y822396D02*
X724408Y818501D01*
X724408Y822396D02*
X724410Y822497D01*
X724416Y822597D01*
X724426Y822697D01*
X724439Y822797D01*
X724457Y822896D01*
X724478Y822995D01*
X724503Y823092D01*
X724532Y823189D01*
X724565Y823284D01*
X724601Y823378D01*
X724641Y823470D01*
X724684Y823561D01*
X724731Y823650D01*
X724781Y823737D01*
X724835Y823823D01*
X724892Y823906D01*
X724952Y823986D01*
X725015Y824065D01*
X725082Y824141D01*
X725151Y824214D01*
X725223Y824284D01*
X725297Y824352D01*
X725374Y824417D01*
X725454Y824478D01*
X725536Y824537D01*
X725620Y824592D01*
X725706Y824644D01*
X725794Y824693D01*
X725884Y824738D01*
X725976Y824780D01*
X726069Y824818D01*
X726164Y824852D01*
X726259Y824883D01*
X726356Y824910D01*
X726454Y824933D01*
X726553Y824953D01*
X726653Y824968D01*
X726753Y824980D01*
X726853Y824988D01*
X726954Y824992D01*
X727054Y824992D01*
X727155Y824988D01*
X727255Y824980D01*
X727355Y824968D01*
X727455Y824953D01*
X727554Y824933D01*
X727652Y824910D01*
X727749Y824883D01*
X727844Y824852D01*
X727939Y824818D01*
X728032Y824780D01*
X728124Y824738D01*
X728214Y824693D01*
X728302Y824644D01*
X728388Y824592D01*
X728472Y824537D01*
X728554Y824478D01*
X728634Y824417D01*
X728711Y824352D01*
X728785Y824284D01*
X728857Y824214D01*
X728926Y824141D01*
X728993Y824065D01*
X729056Y823986D01*
X729116Y823906D01*
X729173Y823823D01*
X729227Y823737D01*
X729277Y823650D01*
X729324Y823561D01*
X729367Y823470D01*
X729407Y823378D01*
X729443Y823284D01*
X729476Y823189D01*
X729505Y823092D01*
X729530Y822995D01*
X729551Y822896D01*
X729569Y822797D01*
X729582Y822697D01*
X729592Y822597D01*
X729598Y822497D01*
X729600Y822396D01*
X729601Y822396D02*
X729601Y819799D01*
D14*
X730250Y717550D02*
X730250Y704850D01*
X730250Y717550D02*
X736600Y723900D01*
X749300Y723900D01*
X755650Y717550D01*
X736600Y723900D02*
X730250Y730250D01*
X730250Y742950D01*
X736600Y749300D01*
X749300Y749300D01*
X755650Y742950D01*
X755650Y730250D01*
X749300Y723900D01*
X730250Y679450D02*
X736600Y673100D01*
X730250Y679450D02*
X730250Y692150D01*
X736600Y698500D01*
X749300Y698500D01*
X755650Y692150D01*
X755650Y679450D01*
X749300Y673100D01*
X736600Y698500D02*
X730250Y704850D01*
X749300Y698500D02*
X755650Y704850D01*
X755650Y717550D01*
X730250Y641350D02*
X730250Y628650D01*
X730250Y641350D02*
X736600Y647700D01*
X749300Y647700D01*
X755650Y641350D01*
X736600Y647700D02*
X730250Y654050D01*
X730250Y666750D01*
X736600Y673100D01*
X749300Y673100D01*
X755650Y666750D01*
X755650Y654050D01*
X749300Y647700D01*
X749300Y622300D02*
X736600Y622300D01*
X730250Y628650D01*
X749300Y622300D02*
X755650Y628650D01*
X755650Y641350D01*
X730250Y755650D02*
X730250Y768350D01*
X736600Y774700D01*
X749300Y774700D01*
X755650Y768350D01*
X736600Y749300D02*
X730250Y755650D01*
X749300Y749300D02*
X755650Y755650D01*
X755650Y768350D01*
D13*
X721487Y625983D02*
X712597Y625983D01*
X721487Y625983D02*
X721587Y625981D01*
X721686Y625975D01*
X721786Y625965D01*
X721884Y625952D01*
X721983Y625934D01*
X722080Y625913D01*
X722176Y625888D01*
X722272Y625859D01*
X722366Y625826D01*
X722459Y625790D01*
X722550Y625750D01*
X722640Y625706D01*
X722728Y625659D01*
X722814Y625609D01*
X722898Y625555D01*
X722980Y625498D01*
X723059Y625438D01*
X723137Y625374D01*
X723211Y625308D01*
X723283Y625239D01*
X723352Y625167D01*
X723418Y625093D01*
X723482Y625015D01*
X723542Y624936D01*
X723599Y624854D01*
X723653Y624770D01*
X723703Y624684D01*
X723750Y624596D01*
X723794Y624506D01*
X723834Y624415D01*
X723870Y624322D01*
X723903Y624228D01*
X723932Y624132D01*
X723957Y624036D01*
X723978Y623939D01*
X723996Y623840D01*
X724009Y623742D01*
X724019Y623642D01*
X724025Y623543D01*
X724027Y623443D01*
X724027Y622173D01*
X724027Y631963D02*
X712597Y631963D01*
X712597Y635138D01*
X712599Y635249D01*
X712605Y635359D01*
X712614Y635470D01*
X712628Y635580D01*
X712645Y635689D01*
X712666Y635798D01*
X712691Y635906D01*
X712720Y636013D01*
X712752Y636119D01*
X712788Y636224D01*
X712828Y636327D01*
X712871Y636429D01*
X712918Y636530D01*
X712969Y636629D01*
X713022Y636726D01*
X713079Y636820D01*
X713140Y636913D01*
X713203Y637004D01*
X713270Y637093D01*
X713340Y637179D01*
X713413Y637262D01*
X713488Y637344D01*
X713566Y637422D01*
X713648Y637497D01*
X713731Y637570D01*
X713817Y637640D01*
X713906Y637707D01*
X713997Y637770D01*
X714090Y637831D01*
X714185Y637888D01*
X714281Y637941D01*
X714380Y637992D01*
X714481Y638039D01*
X714583Y638082D01*
X714686Y638122D01*
X714791Y638158D01*
X714897Y638190D01*
X715004Y638219D01*
X715112Y638244D01*
X715221Y638265D01*
X715330Y638282D01*
X715440Y638296D01*
X715551Y638305D01*
X715661Y638311D01*
X715772Y638313D01*
X715883Y638311D01*
X715993Y638305D01*
X716104Y638296D01*
X716214Y638282D01*
X716323Y638265D01*
X716432Y638244D01*
X716540Y638219D01*
X716647Y638190D01*
X716753Y638158D01*
X716858Y638122D01*
X716961Y638082D01*
X717063Y638039D01*
X717164Y637992D01*
X717263Y637941D01*
X717360Y637888D01*
X717454Y637831D01*
X717547Y637770D01*
X717638Y637707D01*
X717727Y637640D01*
X717813Y637570D01*
X717896Y637497D01*
X717978Y637422D01*
X718056Y637344D01*
X718131Y637262D01*
X718204Y637179D01*
X718274Y637093D01*
X718341Y637004D01*
X718404Y636913D01*
X718465Y636820D01*
X718522Y636726D01*
X718575Y636629D01*
X718626Y636530D01*
X718673Y636429D01*
X718716Y636327D01*
X718756Y636224D01*
X718792Y636119D01*
X718824Y636013D01*
X718853Y635906D01*
X718878Y635798D01*
X718899Y635689D01*
X718916Y635580D01*
X718930Y635470D01*
X718939Y635359D01*
X718945Y635249D01*
X718947Y635138D01*
X718947Y631963D01*
X715137Y642822D02*
X712597Y645997D01*
X724027Y645997D01*
X724027Y642822D02*
X724027Y649172D01*
D10*
X704342Y654745D02*
X692658Y654745D01*
X692658Y657990D01*
X692660Y658103D01*
X692666Y658216D01*
X692676Y658329D01*
X692690Y658442D01*
X692707Y658554D01*
X692729Y658665D01*
X692754Y658775D01*
X692784Y658885D01*
X692817Y658993D01*
X692854Y659100D01*
X692894Y659206D01*
X692939Y659310D01*
X692987Y659413D01*
X693038Y659514D01*
X693093Y659613D01*
X693151Y659710D01*
X693213Y659805D01*
X693278Y659898D01*
X693346Y659988D01*
X693417Y660076D01*
X693492Y660162D01*
X693569Y660245D01*
X693649Y660325D01*
X693732Y660402D01*
X693818Y660477D01*
X693906Y660548D01*
X693996Y660616D01*
X694089Y660681D01*
X694184Y660743D01*
X694281Y660801D01*
X694380Y660856D01*
X694481Y660907D01*
X694584Y660955D01*
X694688Y661000D01*
X694794Y661040D01*
X694901Y661077D01*
X695009Y661110D01*
X695119Y661140D01*
X695229Y661165D01*
X695340Y661187D01*
X695452Y661204D01*
X695565Y661218D01*
X695678Y661228D01*
X695791Y661234D01*
X695904Y661236D01*
X696017Y661234D01*
X696130Y661228D01*
X696243Y661218D01*
X696356Y661204D01*
X696468Y661187D01*
X696579Y661165D01*
X696689Y661140D01*
X696799Y661110D01*
X696907Y661077D01*
X697014Y661040D01*
X697120Y661000D01*
X697224Y660955D01*
X697327Y660907D01*
X697428Y660856D01*
X697527Y660801D01*
X697624Y660743D01*
X697719Y660681D01*
X697812Y660616D01*
X697902Y660548D01*
X697990Y660477D01*
X698076Y660402D01*
X698159Y660325D01*
X698239Y660245D01*
X698316Y660162D01*
X698391Y660076D01*
X698462Y659988D01*
X698530Y659898D01*
X698595Y659805D01*
X698657Y659710D01*
X698715Y659613D01*
X698770Y659514D01*
X698821Y659413D01*
X698869Y659310D01*
X698914Y659206D01*
X698954Y659100D01*
X698991Y658993D01*
X699024Y658885D01*
X699054Y658775D01*
X699079Y658665D01*
X699101Y658554D01*
X699118Y658442D01*
X699132Y658329D01*
X699142Y658216D01*
X699148Y658103D01*
X699150Y657990D01*
X699149Y657990D02*
X699149Y654745D01*
X699149Y658639D02*
X704342Y661236D01*
X693956Y666101D02*
X692658Y666101D01*
X692658Y672592D01*
X704342Y669346D01*
X678942Y711708D02*
X667258Y711708D01*
X667258Y714954D01*
X667260Y715067D01*
X667266Y715180D01*
X667276Y715293D01*
X667290Y715406D01*
X667307Y715518D01*
X667329Y715629D01*
X667354Y715739D01*
X667384Y715849D01*
X667417Y715957D01*
X667454Y716064D01*
X667494Y716170D01*
X667539Y716274D01*
X667587Y716377D01*
X667638Y716478D01*
X667693Y716577D01*
X667751Y716674D01*
X667813Y716769D01*
X667878Y716862D01*
X667946Y716952D01*
X668017Y717040D01*
X668092Y717126D01*
X668169Y717209D01*
X668249Y717289D01*
X668332Y717366D01*
X668418Y717441D01*
X668506Y717512D01*
X668596Y717580D01*
X668689Y717645D01*
X668784Y717707D01*
X668881Y717765D01*
X668980Y717820D01*
X669081Y717871D01*
X669184Y717919D01*
X669288Y717964D01*
X669394Y718004D01*
X669501Y718041D01*
X669609Y718074D01*
X669719Y718104D01*
X669829Y718129D01*
X669940Y718151D01*
X670052Y718168D01*
X670165Y718182D01*
X670278Y718192D01*
X670391Y718198D01*
X670504Y718200D01*
X670617Y718198D01*
X670730Y718192D01*
X670843Y718182D01*
X670956Y718168D01*
X671068Y718151D01*
X671179Y718129D01*
X671289Y718104D01*
X671399Y718074D01*
X671507Y718041D01*
X671614Y718004D01*
X671720Y717964D01*
X671824Y717919D01*
X671927Y717871D01*
X672028Y717820D01*
X672127Y717765D01*
X672224Y717707D01*
X672319Y717645D01*
X672412Y717580D01*
X672502Y717512D01*
X672590Y717441D01*
X672676Y717366D01*
X672759Y717289D01*
X672839Y717209D01*
X672916Y717126D01*
X672991Y717040D01*
X673062Y716952D01*
X673130Y716862D01*
X673195Y716769D01*
X673257Y716674D01*
X673315Y716577D01*
X673370Y716478D01*
X673421Y716377D01*
X673469Y716274D01*
X673514Y716170D01*
X673554Y716064D01*
X673591Y715957D01*
X673624Y715849D01*
X673654Y715739D01*
X673679Y715629D01*
X673701Y715518D01*
X673718Y715406D01*
X673732Y715293D01*
X673742Y715180D01*
X673748Y715067D01*
X673750Y714954D01*
X673749Y714954D02*
X673749Y711708D01*
X673749Y715603D02*
X678942Y718199D01*
X675696Y723064D02*
X675583Y723066D01*
X675470Y723072D01*
X675357Y723082D01*
X675244Y723096D01*
X675132Y723113D01*
X675021Y723135D01*
X674911Y723160D01*
X674801Y723190D01*
X674693Y723223D01*
X674586Y723260D01*
X674480Y723300D01*
X674376Y723345D01*
X674273Y723393D01*
X674172Y723444D01*
X674073Y723499D01*
X673976Y723557D01*
X673881Y723619D01*
X673788Y723684D01*
X673698Y723752D01*
X673610Y723823D01*
X673524Y723898D01*
X673441Y723975D01*
X673361Y724055D01*
X673284Y724138D01*
X673209Y724224D01*
X673138Y724312D01*
X673070Y724402D01*
X673005Y724495D01*
X672943Y724590D01*
X672885Y724687D01*
X672830Y724786D01*
X672779Y724887D01*
X672731Y724990D01*
X672686Y725094D01*
X672646Y725200D01*
X672609Y725307D01*
X672576Y725415D01*
X672546Y725525D01*
X672521Y725635D01*
X672499Y725746D01*
X672482Y725858D01*
X672468Y725971D01*
X672458Y726084D01*
X672452Y726197D01*
X672450Y726310D01*
X672452Y726423D01*
X672458Y726536D01*
X672468Y726649D01*
X672482Y726762D01*
X672499Y726874D01*
X672521Y726985D01*
X672546Y727095D01*
X672576Y727205D01*
X672609Y727313D01*
X672646Y727420D01*
X672686Y727526D01*
X672731Y727630D01*
X672779Y727733D01*
X672830Y727834D01*
X672885Y727933D01*
X672943Y728030D01*
X673005Y728125D01*
X673070Y728218D01*
X673138Y728308D01*
X673209Y728396D01*
X673284Y728482D01*
X673361Y728565D01*
X673441Y728645D01*
X673524Y728722D01*
X673610Y728797D01*
X673698Y728868D01*
X673788Y728936D01*
X673881Y729001D01*
X673976Y729063D01*
X674073Y729121D01*
X674172Y729176D01*
X674273Y729227D01*
X674376Y729275D01*
X674480Y729320D01*
X674586Y729360D01*
X674693Y729397D01*
X674801Y729430D01*
X674911Y729460D01*
X675021Y729485D01*
X675132Y729507D01*
X675244Y729524D01*
X675357Y729538D01*
X675470Y729548D01*
X675583Y729554D01*
X675696Y729556D01*
X675809Y729554D01*
X675922Y729548D01*
X676035Y729538D01*
X676148Y729524D01*
X676260Y729507D01*
X676371Y729485D01*
X676481Y729460D01*
X676591Y729430D01*
X676699Y729397D01*
X676806Y729360D01*
X676912Y729320D01*
X677016Y729275D01*
X677119Y729227D01*
X677220Y729176D01*
X677319Y729121D01*
X677416Y729063D01*
X677511Y729001D01*
X677604Y728936D01*
X677694Y728868D01*
X677782Y728797D01*
X677868Y728722D01*
X677951Y728645D01*
X678031Y728565D01*
X678108Y728482D01*
X678183Y728396D01*
X678254Y728308D01*
X678322Y728218D01*
X678387Y728125D01*
X678449Y728030D01*
X678507Y727933D01*
X678562Y727834D01*
X678613Y727733D01*
X678661Y727630D01*
X678706Y727526D01*
X678746Y727420D01*
X678783Y727313D01*
X678816Y727205D01*
X678846Y727095D01*
X678871Y726985D01*
X678893Y726874D01*
X678910Y726762D01*
X678924Y726649D01*
X678934Y726536D01*
X678940Y726423D01*
X678942Y726310D01*
X678940Y726197D01*
X678934Y726084D01*
X678924Y725971D01*
X678910Y725858D01*
X678893Y725746D01*
X678871Y725635D01*
X678846Y725525D01*
X678816Y725415D01*
X678783Y725307D01*
X678746Y725200D01*
X678706Y725094D01*
X678661Y724990D01*
X678613Y724887D01*
X678562Y724786D01*
X678507Y724687D01*
X678449Y724590D01*
X678387Y724495D01*
X678322Y724402D01*
X678254Y724312D01*
X678183Y724224D01*
X678108Y724138D01*
X678031Y724055D01*
X677951Y723975D01*
X677868Y723898D01*
X677782Y723823D01*
X677694Y723752D01*
X677604Y723684D01*
X677511Y723619D01*
X677416Y723557D01*
X677319Y723499D01*
X677220Y723444D01*
X677119Y723393D01*
X677016Y723345D01*
X676912Y723300D01*
X676806Y723260D01*
X676699Y723223D01*
X676591Y723190D01*
X676481Y723160D01*
X676371Y723135D01*
X676260Y723113D01*
X676148Y723096D01*
X676035Y723082D01*
X675922Y723072D01*
X675809Y723066D01*
X675696Y723064D01*
X669854Y723714D02*
X669753Y723716D01*
X669653Y723722D01*
X669553Y723732D01*
X669453Y723745D01*
X669354Y723763D01*
X669255Y723784D01*
X669158Y723809D01*
X669061Y723838D01*
X668966Y723871D01*
X668872Y723907D01*
X668780Y723947D01*
X668689Y723990D01*
X668600Y724037D01*
X668513Y724087D01*
X668427Y724141D01*
X668344Y724198D01*
X668264Y724258D01*
X668185Y724321D01*
X668109Y724388D01*
X668036Y724457D01*
X667966Y724529D01*
X667898Y724603D01*
X667833Y724680D01*
X667772Y724760D01*
X667713Y724842D01*
X667658Y724926D01*
X667606Y725012D01*
X667557Y725100D01*
X667512Y725190D01*
X667470Y725282D01*
X667432Y725375D01*
X667398Y725470D01*
X667367Y725565D01*
X667340Y725662D01*
X667317Y725760D01*
X667297Y725859D01*
X667282Y725959D01*
X667270Y726059D01*
X667262Y726159D01*
X667258Y726260D01*
X667258Y726360D01*
X667262Y726461D01*
X667270Y726561D01*
X667282Y726661D01*
X667297Y726761D01*
X667317Y726860D01*
X667340Y726958D01*
X667367Y727055D01*
X667398Y727150D01*
X667432Y727245D01*
X667470Y727338D01*
X667512Y727430D01*
X667557Y727520D01*
X667606Y727608D01*
X667658Y727694D01*
X667713Y727778D01*
X667772Y727860D01*
X667833Y727940D01*
X667898Y728017D01*
X667966Y728091D01*
X668036Y728163D01*
X668109Y728232D01*
X668185Y728299D01*
X668264Y728362D01*
X668344Y728422D01*
X668427Y728479D01*
X668513Y728533D01*
X668600Y728583D01*
X668689Y728630D01*
X668780Y728673D01*
X668872Y728713D01*
X668966Y728749D01*
X669061Y728782D01*
X669158Y728811D01*
X669255Y728836D01*
X669354Y728857D01*
X669453Y728875D01*
X669553Y728888D01*
X669653Y728898D01*
X669753Y728904D01*
X669854Y728906D01*
X669955Y728904D01*
X670055Y728898D01*
X670155Y728888D01*
X670255Y728875D01*
X670354Y728857D01*
X670453Y728836D01*
X670550Y728811D01*
X670647Y728782D01*
X670742Y728749D01*
X670836Y728713D01*
X670928Y728673D01*
X671019Y728630D01*
X671108Y728583D01*
X671195Y728533D01*
X671281Y728479D01*
X671364Y728422D01*
X671444Y728362D01*
X671523Y728299D01*
X671599Y728232D01*
X671672Y728163D01*
X671742Y728091D01*
X671810Y728017D01*
X671875Y727940D01*
X671936Y727860D01*
X671995Y727778D01*
X672050Y727694D01*
X672102Y727608D01*
X672151Y727520D01*
X672196Y727430D01*
X672238Y727338D01*
X672276Y727245D01*
X672310Y727150D01*
X672341Y727055D01*
X672368Y726958D01*
X672391Y726860D01*
X672411Y726761D01*
X672426Y726661D01*
X672438Y726561D01*
X672446Y726461D01*
X672450Y726360D01*
X672450Y726260D01*
X672446Y726159D01*
X672438Y726059D01*
X672426Y725959D01*
X672411Y725859D01*
X672391Y725760D01*
X672368Y725662D01*
X672341Y725565D01*
X672310Y725470D01*
X672276Y725375D01*
X672238Y725282D01*
X672196Y725190D01*
X672151Y725100D01*
X672102Y725012D01*
X672050Y724926D01*
X671995Y724842D01*
X671936Y724760D01*
X671875Y724680D01*
X671810Y724603D01*
X671742Y724529D01*
X671672Y724457D01*
X671599Y724388D01*
X671523Y724321D01*
X671444Y724258D01*
X671364Y724198D01*
X671281Y724141D01*
X671195Y724087D01*
X671108Y724037D01*
X671019Y723990D01*
X670928Y723947D01*
X670836Y723907D01*
X670742Y723871D01*
X670647Y723838D01*
X670550Y723809D01*
X670453Y723784D01*
X670354Y723763D01*
X670255Y723745D01*
X670155Y723732D01*
X670055Y723722D01*
X669955Y723716D01*
X669854Y723714D01*
M02*
