G04 EAGLE Gerber RS-274X export*
G75*
%MOMM*%
%FSLAX34Y34*%
%LPD*%
%INSoldermask Top*%
%IPPOS*%
%AMOC8*
5,1,8,0,0,1.08239X$1,22.5*%
G01*
%ADD10R,1.203200X1.303200*%
%ADD11R,1.303200X1.203200*%
%ADD12C,0.505344*%
%ADD13R,1.600200X0.551200*%
%ADD14C,0.200000*%
%ADD15C,0.300000*%
%ADD16R,0.603200X1.553200*%
%ADD17R,1.378200X2.103200*%
%ADD18R,2.003200X2.103200*%
%ADD19C,0.703200*%
%ADD20C,1.727200*%
%ADD21P,1.869504X8X202.500000*%
%ADD22R,2.103200X0.603200*%
%ADD23R,1.203200X1.603200*%
%ADD24R,2.870200X2.743200*%
%ADD25R,1.473200X0.965200*%
%ADD26R,1.473200X0.762000*%
%ADD27R,0.762000X1.473200*%
%ADD28R,1.803200X2.003200*%
%ADD29R,2.003200X1.803200*%
%ADD30C,0.959600*%
%ADD31C,1.009600*%
%ADD32C,1.059600*%


D10*
X646684Y579764D03*
X646684Y596764D03*
D11*
X677300Y533400D03*
X694300Y533400D03*
X677300Y590550D03*
X694300Y590550D03*
X639708Y745236D03*
X656708Y745236D03*
D10*
X641350Y827650D03*
X641350Y810650D03*
D12*
X644210Y496370D02*
X651190Y496370D01*
X651190Y489390D01*
X644210Y489390D01*
X644210Y496370D01*
X644210Y494190D02*
X651190Y494190D01*
X651190Y513910D02*
X644210Y513910D01*
X651190Y513910D02*
X651190Y506930D01*
X644210Y506930D01*
X644210Y513910D01*
X644210Y511730D02*
X651190Y511730D01*
X443430Y761558D02*
X443430Y768538D01*
X450410Y768538D01*
X450410Y761558D01*
X443430Y761558D01*
X443430Y766358D02*
X450410Y766358D01*
X425890Y768538D02*
X425890Y761558D01*
X425890Y768538D02*
X432870Y768538D01*
X432870Y761558D01*
X425890Y761558D01*
X425890Y766358D02*
X432870Y766358D01*
X443684Y790768D02*
X443684Y797748D01*
X450664Y797748D01*
X450664Y790768D01*
X443684Y790768D01*
X443684Y795568D02*
X450664Y795568D01*
X426144Y797748D02*
X426144Y790768D01*
X426144Y797748D02*
X433124Y797748D01*
X433124Y790768D01*
X426144Y790768D01*
X426144Y795568D02*
X433124Y795568D01*
X516194Y490020D02*
X523174Y490020D01*
X523174Y483040D01*
X516194Y483040D01*
X516194Y490020D01*
X516194Y487840D02*
X523174Y487840D01*
X523174Y507560D02*
X516194Y507560D01*
X523174Y507560D02*
X523174Y500580D01*
X516194Y500580D01*
X516194Y507560D01*
X516194Y505380D02*
X523174Y505380D01*
D13*
X528590Y738800D03*
X528590Y745300D03*
X528590Y751800D03*
X528590Y758300D03*
X528590Y764800D03*
X528590Y771300D03*
X528590Y777800D03*
X528590Y790800D03*
X528590Y784300D03*
X528590Y797300D03*
X528590Y803800D03*
X528590Y810300D03*
X528590Y816800D03*
X528590Y823300D03*
X601710Y738800D03*
X601710Y745300D03*
X601710Y751800D03*
X601710Y758300D03*
X601710Y764800D03*
X601710Y771300D03*
X601710Y777800D03*
X601710Y784300D03*
X601710Y790800D03*
X601710Y797300D03*
X601710Y803800D03*
X601710Y810300D03*
X601710Y816800D03*
X601710Y823300D03*
D14*
X588670Y863910D02*
X588542Y863912D01*
X588413Y863918D01*
X588285Y863927D01*
X588158Y863941D01*
X588031Y863958D01*
X587904Y863980D01*
X587778Y864005D01*
X587653Y864033D01*
X587529Y864066D01*
X587406Y864102D01*
X587284Y864142D01*
X587163Y864186D01*
X587044Y864234D01*
X586926Y864284D01*
X586809Y864339D01*
X586695Y864397D01*
X586582Y864458D01*
X586471Y864523D01*
X586362Y864591D01*
X586256Y864662D01*
X586151Y864737D01*
X586049Y864814D01*
X585949Y864895D01*
X585852Y864979D01*
X585757Y865065D01*
X585665Y865155D01*
X585575Y865247D01*
X585489Y865342D01*
X585405Y865439D01*
X585324Y865539D01*
X585247Y865641D01*
X585172Y865746D01*
X585101Y865852D01*
X585033Y865961D01*
X584968Y866072D01*
X584907Y866185D01*
X584849Y866299D01*
X584794Y866416D01*
X584744Y866534D01*
X584696Y866653D01*
X584652Y866774D01*
X584612Y866896D01*
X584576Y867019D01*
X584543Y867143D01*
X584515Y867268D01*
X584490Y867394D01*
X584468Y867521D01*
X584451Y867648D01*
X584437Y867775D01*
X584428Y867903D01*
X584422Y868032D01*
X584420Y868160D01*
X584420Y870160D01*
X584422Y870288D01*
X584428Y870417D01*
X584437Y870545D01*
X584451Y870672D01*
X584468Y870799D01*
X584490Y870926D01*
X584515Y871052D01*
X584543Y871177D01*
X584576Y871301D01*
X584612Y871424D01*
X584652Y871546D01*
X584696Y871667D01*
X584744Y871786D01*
X584794Y871904D01*
X584849Y872021D01*
X584907Y872135D01*
X584968Y872248D01*
X585033Y872359D01*
X585101Y872468D01*
X585172Y872574D01*
X585247Y872679D01*
X585324Y872781D01*
X585405Y872881D01*
X585489Y872978D01*
X585575Y873073D01*
X585665Y873165D01*
X585757Y873255D01*
X585852Y873341D01*
X585949Y873425D01*
X586049Y873506D01*
X586151Y873583D01*
X586256Y873658D01*
X586362Y873729D01*
X586471Y873797D01*
X586582Y873862D01*
X586695Y873923D01*
X586809Y873981D01*
X586926Y874036D01*
X587044Y874086D01*
X587163Y874134D01*
X587284Y874178D01*
X587406Y874218D01*
X587529Y874254D01*
X587653Y874287D01*
X587778Y874315D01*
X587904Y874340D01*
X588031Y874362D01*
X588158Y874379D01*
X588285Y874393D01*
X588413Y874402D01*
X588542Y874408D01*
X588670Y874410D01*
X588798Y874408D01*
X588927Y874402D01*
X589055Y874393D01*
X589182Y874379D01*
X589309Y874362D01*
X589436Y874340D01*
X589562Y874315D01*
X589687Y874287D01*
X589811Y874254D01*
X589934Y874218D01*
X590056Y874178D01*
X590177Y874134D01*
X590296Y874086D01*
X590414Y874036D01*
X590531Y873981D01*
X590645Y873923D01*
X590758Y873862D01*
X590869Y873797D01*
X590978Y873729D01*
X591084Y873658D01*
X591189Y873583D01*
X591291Y873506D01*
X591391Y873425D01*
X591488Y873341D01*
X591583Y873255D01*
X591675Y873165D01*
X591765Y873073D01*
X591851Y872978D01*
X591935Y872881D01*
X592016Y872781D01*
X592093Y872679D01*
X592168Y872574D01*
X592239Y872468D01*
X592307Y872359D01*
X592372Y872248D01*
X592433Y872135D01*
X592491Y872021D01*
X592546Y871904D01*
X592596Y871786D01*
X592644Y871667D01*
X592688Y871546D01*
X592728Y871424D01*
X592764Y871301D01*
X592797Y871177D01*
X592825Y871052D01*
X592850Y870926D01*
X592872Y870799D01*
X592889Y870672D01*
X592903Y870545D01*
X592912Y870417D01*
X592918Y870288D01*
X592920Y870160D01*
X592920Y868160D01*
X592918Y868032D01*
X592912Y867903D01*
X592903Y867775D01*
X592889Y867648D01*
X592872Y867521D01*
X592850Y867394D01*
X592825Y867268D01*
X592797Y867143D01*
X592764Y867019D01*
X592728Y866896D01*
X592688Y866774D01*
X592644Y866653D01*
X592596Y866534D01*
X592546Y866416D01*
X592491Y866299D01*
X592433Y866185D01*
X592372Y866072D01*
X592307Y865961D01*
X592239Y865852D01*
X592168Y865746D01*
X592093Y865641D01*
X592016Y865539D01*
X591935Y865439D01*
X591851Y865342D01*
X591765Y865247D01*
X591675Y865155D01*
X591583Y865065D01*
X591488Y864979D01*
X591391Y864895D01*
X591291Y864814D01*
X591189Y864737D01*
X591084Y864662D01*
X590978Y864591D01*
X590869Y864523D01*
X590758Y864458D01*
X590645Y864397D01*
X590531Y864339D01*
X590414Y864284D01*
X590296Y864234D01*
X590177Y864186D01*
X590056Y864142D01*
X589934Y864102D01*
X589811Y864066D01*
X589687Y864033D01*
X589562Y864005D01*
X589436Y863980D01*
X589309Y863958D01*
X589182Y863941D01*
X589055Y863927D01*
X588927Y863918D01*
X588798Y863912D01*
X588670Y863910D01*
X544170Y863910D02*
X544042Y863912D01*
X543913Y863918D01*
X543785Y863927D01*
X543658Y863941D01*
X543531Y863958D01*
X543404Y863980D01*
X543278Y864005D01*
X543153Y864033D01*
X543029Y864066D01*
X542906Y864102D01*
X542784Y864142D01*
X542663Y864186D01*
X542544Y864234D01*
X542426Y864284D01*
X542309Y864339D01*
X542195Y864397D01*
X542082Y864458D01*
X541971Y864523D01*
X541862Y864591D01*
X541756Y864662D01*
X541651Y864737D01*
X541549Y864814D01*
X541449Y864895D01*
X541352Y864979D01*
X541257Y865065D01*
X541165Y865155D01*
X541075Y865247D01*
X540989Y865342D01*
X540905Y865439D01*
X540824Y865539D01*
X540747Y865641D01*
X540672Y865746D01*
X540601Y865852D01*
X540533Y865961D01*
X540468Y866072D01*
X540407Y866185D01*
X540349Y866299D01*
X540294Y866416D01*
X540244Y866534D01*
X540196Y866653D01*
X540152Y866774D01*
X540112Y866896D01*
X540076Y867019D01*
X540043Y867143D01*
X540015Y867268D01*
X539990Y867394D01*
X539968Y867521D01*
X539951Y867648D01*
X539937Y867775D01*
X539928Y867903D01*
X539922Y868032D01*
X539920Y868160D01*
X539920Y870160D01*
X539922Y870288D01*
X539928Y870417D01*
X539937Y870545D01*
X539951Y870672D01*
X539968Y870799D01*
X539990Y870926D01*
X540015Y871052D01*
X540043Y871177D01*
X540076Y871301D01*
X540112Y871424D01*
X540152Y871546D01*
X540196Y871667D01*
X540244Y871786D01*
X540294Y871904D01*
X540349Y872021D01*
X540407Y872135D01*
X540468Y872248D01*
X540533Y872359D01*
X540601Y872468D01*
X540672Y872574D01*
X540747Y872679D01*
X540824Y872781D01*
X540905Y872881D01*
X540989Y872978D01*
X541075Y873073D01*
X541165Y873165D01*
X541257Y873255D01*
X541352Y873341D01*
X541449Y873425D01*
X541549Y873506D01*
X541651Y873583D01*
X541756Y873658D01*
X541862Y873729D01*
X541971Y873797D01*
X542082Y873862D01*
X542195Y873923D01*
X542309Y873981D01*
X542426Y874036D01*
X542544Y874086D01*
X542663Y874134D01*
X542784Y874178D01*
X542906Y874218D01*
X543029Y874254D01*
X543153Y874287D01*
X543278Y874315D01*
X543404Y874340D01*
X543531Y874362D01*
X543658Y874379D01*
X543785Y874393D01*
X543913Y874402D01*
X544042Y874408D01*
X544170Y874410D01*
X544298Y874408D01*
X544427Y874402D01*
X544555Y874393D01*
X544682Y874379D01*
X544809Y874362D01*
X544936Y874340D01*
X545062Y874315D01*
X545187Y874287D01*
X545311Y874254D01*
X545434Y874218D01*
X545556Y874178D01*
X545677Y874134D01*
X545796Y874086D01*
X545914Y874036D01*
X546031Y873981D01*
X546145Y873923D01*
X546258Y873862D01*
X546369Y873797D01*
X546478Y873729D01*
X546584Y873658D01*
X546689Y873583D01*
X546791Y873506D01*
X546891Y873425D01*
X546988Y873341D01*
X547083Y873255D01*
X547175Y873165D01*
X547265Y873073D01*
X547351Y872978D01*
X547435Y872881D01*
X547516Y872781D01*
X547593Y872679D01*
X547668Y872574D01*
X547739Y872468D01*
X547807Y872359D01*
X547872Y872248D01*
X547933Y872135D01*
X547991Y872021D01*
X548046Y871904D01*
X548096Y871786D01*
X548144Y871667D01*
X548188Y871546D01*
X548228Y871424D01*
X548264Y871301D01*
X548297Y871177D01*
X548325Y871052D01*
X548350Y870926D01*
X548372Y870799D01*
X548389Y870672D01*
X548403Y870545D01*
X548412Y870417D01*
X548418Y870288D01*
X548420Y870160D01*
X548420Y868160D01*
X548418Y868032D01*
X548412Y867903D01*
X548403Y867775D01*
X548389Y867648D01*
X548372Y867521D01*
X548350Y867394D01*
X548325Y867268D01*
X548297Y867143D01*
X548264Y867019D01*
X548228Y866896D01*
X548188Y866774D01*
X548144Y866653D01*
X548096Y866534D01*
X548046Y866416D01*
X547991Y866299D01*
X547933Y866185D01*
X547872Y866072D01*
X547807Y865961D01*
X547739Y865852D01*
X547668Y865746D01*
X547593Y865641D01*
X547516Y865539D01*
X547435Y865439D01*
X547351Y865342D01*
X547265Y865247D01*
X547175Y865155D01*
X547083Y865065D01*
X546988Y864979D01*
X546891Y864895D01*
X546791Y864814D01*
X546689Y864737D01*
X546584Y864662D01*
X546478Y864591D01*
X546369Y864523D01*
X546258Y864458D01*
X546145Y864397D01*
X546031Y864339D01*
X545914Y864284D01*
X545796Y864234D01*
X545677Y864186D01*
X545556Y864142D01*
X545434Y864102D01*
X545311Y864066D01*
X545187Y864033D01*
X545062Y864005D01*
X544936Y863980D01*
X544809Y863958D01*
X544682Y863941D01*
X544555Y863927D01*
X544427Y863918D01*
X544298Y863912D01*
X544170Y863910D01*
D15*
X603670Y895660D02*
X603672Y895527D01*
X603678Y895393D01*
X603688Y895260D01*
X603702Y895128D01*
X603719Y894996D01*
X603741Y894864D01*
X603766Y894733D01*
X603796Y894603D01*
X603829Y894474D01*
X603866Y894346D01*
X603907Y894219D01*
X603952Y894093D01*
X604000Y893969D01*
X604052Y893846D01*
X604107Y893725D01*
X604167Y893605D01*
X604229Y893487D01*
X604295Y893372D01*
X604365Y893258D01*
X604438Y893146D01*
X604514Y893037D01*
X604593Y892929D01*
X604676Y892825D01*
X604761Y892722D01*
X604850Y892623D01*
X604941Y892526D01*
X605036Y892431D01*
X605133Y892340D01*
X605232Y892251D01*
X605335Y892166D01*
X605439Y892083D01*
X605547Y892004D01*
X605656Y891928D01*
X605768Y891855D01*
X605882Y891785D01*
X605997Y891719D01*
X606115Y891657D01*
X606235Y891597D01*
X606356Y891542D01*
X606479Y891490D01*
X606603Y891442D01*
X606729Y891397D01*
X606856Y891356D01*
X606984Y891319D01*
X607113Y891286D01*
X607243Y891256D01*
X607374Y891231D01*
X607506Y891209D01*
X607638Y891192D01*
X607770Y891178D01*
X607903Y891168D01*
X608037Y891162D01*
X608170Y891160D01*
X603670Y895660D02*
X603670Y902660D01*
X603672Y902793D01*
X603678Y902927D01*
X603688Y903060D01*
X603702Y903192D01*
X603719Y903324D01*
X603741Y903456D01*
X603766Y903587D01*
X603796Y903717D01*
X603829Y903846D01*
X603866Y903974D01*
X603907Y904101D01*
X603952Y904227D01*
X604000Y904351D01*
X604052Y904474D01*
X604107Y904595D01*
X604167Y904715D01*
X604229Y904833D01*
X604295Y904948D01*
X604365Y905062D01*
X604438Y905174D01*
X604514Y905283D01*
X604593Y905391D01*
X604676Y905495D01*
X604761Y905598D01*
X604850Y905697D01*
X604941Y905794D01*
X605036Y905889D01*
X605133Y905980D01*
X605232Y906069D01*
X605335Y906154D01*
X605439Y906237D01*
X605547Y906316D01*
X605656Y906392D01*
X605768Y906465D01*
X605882Y906535D01*
X605997Y906601D01*
X606115Y906663D01*
X606235Y906723D01*
X606356Y906778D01*
X606479Y906830D01*
X606603Y906878D01*
X606729Y906923D01*
X606856Y906964D01*
X606984Y907001D01*
X607113Y907034D01*
X607243Y907064D01*
X607374Y907089D01*
X607506Y907111D01*
X607638Y907128D01*
X607770Y907142D01*
X607903Y907152D01*
X608037Y907158D01*
X608170Y907160D01*
X608303Y907158D01*
X608437Y907152D01*
X608570Y907142D01*
X608702Y907128D01*
X608834Y907111D01*
X608966Y907089D01*
X609097Y907064D01*
X609227Y907034D01*
X609356Y907001D01*
X609484Y906964D01*
X609611Y906923D01*
X609737Y906878D01*
X609861Y906830D01*
X609984Y906778D01*
X610105Y906723D01*
X610225Y906663D01*
X610343Y906601D01*
X610458Y906535D01*
X610572Y906465D01*
X610684Y906392D01*
X610793Y906316D01*
X610901Y906237D01*
X611005Y906154D01*
X611108Y906069D01*
X611207Y905980D01*
X611304Y905889D01*
X611399Y905794D01*
X611490Y905697D01*
X611579Y905598D01*
X611664Y905495D01*
X611747Y905391D01*
X611826Y905283D01*
X611902Y905174D01*
X611975Y905062D01*
X612045Y904948D01*
X612111Y904833D01*
X612173Y904715D01*
X612233Y904595D01*
X612288Y904474D01*
X612340Y904351D01*
X612388Y904227D01*
X612433Y904101D01*
X612474Y903974D01*
X612511Y903846D01*
X612544Y903717D01*
X612574Y903587D01*
X612599Y903456D01*
X612621Y903324D01*
X612638Y903192D01*
X612652Y903060D01*
X612662Y902927D01*
X612668Y902793D01*
X612670Y902660D01*
X612670Y895660D01*
X612668Y895527D01*
X612662Y895393D01*
X612652Y895260D01*
X612638Y895128D01*
X612621Y894996D01*
X612599Y894864D01*
X612574Y894733D01*
X612544Y894603D01*
X612511Y894474D01*
X612474Y894346D01*
X612433Y894219D01*
X612388Y894093D01*
X612340Y893969D01*
X612288Y893846D01*
X612233Y893725D01*
X612173Y893605D01*
X612111Y893487D01*
X612045Y893372D01*
X611975Y893258D01*
X611902Y893146D01*
X611826Y893037D01*
X611747Y892929D01*
X611664Y892825D01*
X611579Y892722D01*
X611490Y892623D01*
X611399Y892526D01*
X611304Y892431D01*
X611207Y892340D01*
X611108Y892251D01*
X611005Y892166D01*
X610901Y892083D01*
X610793Y892004D01*
X610684Y891928D01*
X610572Y891855D01*
X610458Y891785D01*
X610343Y891719D01*
X610225Y891657D01*
X610105Y891597D01*
X609984Y891542D01*
X609861Y891490D01*
X609737Y891442D01*
X609611Y891397D01*
X609484Y891356D01*
X609356Y891319D01*
X609227Y891286D01*
X609097Y891256D01*
X608966Y891231D01*
X608834Y891209D01*
X608702Y891192D01*
X608570Y891178D01*
X608437Y891168D01*
X608303Y891162D01*
X608170Y891160D01*
D14*
X610670Y889660D02*
X603170Y889660D01*
X610670Y889660D02*
X610768Y889662D01*
X610866Y889668D01*
X610964Y889677D01*
X611061Y889691D01*
X611158Y889708D01*
X611254Y889729D01*
X611349Y889754D01*
X611443Y889782D01*
X611535Y889815D01*
X611627Y889850D01*
X611717Y889890D01*
X611805Y889932D01*
X611892Y889979D01*
X611976Y890028D01*
X612059Y890081D01*
X612139Y890137D01*
X612218Y890197D01*
X612294Y890259D01*
X612367Y890324D01*
X612438Y890392D01*
X612506Y890463D01*
X612571Y890536D01*
X612633Y890612D01*
X612693Y890691D01*
X612749Y890771D01*
X612802Y890854D01*
X612851Y890938D01*
X612898Y891025D01*
X612940Y891113D01*
X612980Y891203D01*
X613015Y891295D01*
X613048Y891387D01*
X613076Y891481D01*
X613101Y891576D01*
X613122Y891672D01*
X613139Y891769D01*
X613153Y891866D01*
X613162Y891964D01*
X613168Y892062D01*
X613170Y892160D01*
X613170Y906160D01*
X613168Y906258D01*
X613162Y906356D01*
X613153Y906454D01*
X613139Y906551D01*
X613122Y906648D01*
X613101Y906744D01*
X613076Y906839D01*
X613048Y906933D01*
X613015Y907025D01*
X612980Y907117D01*
X612940Y907207D01*
X612898Y907295D01*
X612851Y907382D01*
X612802Y907466D01*
X612749Y907549D01*
X612693Y907629D01*
X612633Y907708D01*
X612571Y907784D01*
X612506Y907857D01*
X612438Y907928D01*
X612367Y907996D01*
X612294Y908061D01*
X612218Y908123D01*
X612139Y908183D01*
X612059Y908239D01*
X611976Y908292D01*
X611892Y908341D01*
X611805Y908388D01*
X611717Y908430D01*
X611627Y908470D01*
X611535Y908505D01*
X611443Y908538D01*
X611349Y908566D01*
X611254Y908591D01*
X611158Y908612D01*
X611061Y908629D01*
X610964Y908643D01*
X610866Y908652D01*
X610768Y908658D01*
X610670Y908660D01*
X603170Y908660D01*
X603170Y889660D01*
D15*
X529170Y895660D02*
X529168Y895527D01*
X529162Y895393D01*
X529152Y895260D01*
X529138Y895128D01*
X529121Y894996D01*
X529099Y894864D01*
X529074Y894733D01*
X529044Y894603D01*
X529011Y894474D01*
X528974Y894346D01*
X528933Y894219D01*
X528888Y894093D01*
X528840Y893969D01*
X528788Y893846D01*
X528733Y893725D01*
X528673Y893605D01*
X528611Y893487D01*
X528545Y893372D01*
X528475Y893258D01*
X528402Y893146D01*
X528326Y893037D01*
X528247Y892929D01*
X528164Y892825D01*
X528079Y892722D01*
X527990Y892623D01*
X527899Y892526D01*
X527804Y892431D01*
X527707Y892340D01*
X527608Y892251D01*
X527505Y892166D01*
X527401Y892083D01*
X527293Y892004D01*
X527184Y891928D01*
X527072Y891855D01*
X526958Y891785D01*
X526843Y891719D01*
X526725Y891657D01*
X526605Y891597D01*
X526484Y891542D01*
X526361Y891490D01*
X526237Y891442D01*
X526111Y891397D01*
X525984Y891356D01*
X525856Y891319D01*
X525727Y891286D01*
X525597Y891256D01*
X525466Y891231D01*
X525334Y891209D01*
X525202Y891192D01*
X525070Y891178D01*
X524937Y891168D01*
X524803Y891162D01*
X524670Y891160D01*
X529170Y895660D02*
X529170Y902660D01*
X529168Y902793D01*
X529162Y902927D01*
X529152Y903060D01*
X529138Y903192D01*
X529121Y903324D01*
X529099Y903456D01*
X529074Y903587D01*
X529044Y903717D01*
X529011Y903846D01*
X528974Y903974D01*
X528933Y904101D01*
X528888Y904227D01*
X528840Y904351D01*
X528788Y904474D01*
X528733Y904595D01*
X528673Y904715D01*
X528611Y904833D01*
X528545Y904948D01*
X528475Y905062D01*
X528402Y905174D01*
X528326Y905283D01*
X528247Y905391D01*
X528164Y905495D01*
X528079Y905598D01*
X527990Y905697D01*
X527899Y905794D01*
X527804Y905889D01*
X527707Y905980D01*
X527608Y906069D01*
X527505Y906154D01*
X527401Y906237D01*
X527293Y906316D01*
X527184Y906392D01*
X527072Y906465D01*
X526958Y906535D01*
X526843Y906601D01*
X526725Y906663D01*
X526605Y906723D01*
X526484Y906778D01*
X526361Y906830D01*
X526237Y906878D01*
X526111Y906923D01*
X525984Y906964D01*
X525856Y907001D01*
X525727Y907034D01*
X525597Y907064D01*
X525466Y907089D01*
X525334Y907111D01*
X525202Y907128D01*
X525070Y907142D01*
X524937Y907152D01*
X524803Y907158D01*
X524670Y907160D01*
X524537Y907158D01*
X524403Y907152D01*
X524270Y907142D01*
X524138Y907128D01*
X524006Y907111D01*
X523874Y907089D01*
X523743Y907064D01*
X523613Y907034D01*
X523484Y907001D01*
X523356Y906964D01*
X523229Y906923D01*
X523103Y906878D01*
X522979Y906830D01*
X522856Y906778D01*
X522735Y906723D01*
X522615Y906663D01*
X522497Y906601D01*
X522382Y906535D01*
X522268Y906465D01*
X522156Y906392D01*
X522047Y906316D01*
X521939Y906237D01*
X521835Y906154D01*
X521732Y906069D01*
X521633Y905980D01*
X521536Y905889D01*
X521441Y905794D01*
X521350Y905697D01*
X521261Y905598D01*
X521176Y905495D01*
X521093Y905391D01*
X521014Y905283D01*
X520938Y905174D01*
X520865Y905062D01*
X520795Y904948D01*
X520729Y904833D01*
X520667Y904715D01*
X520607Y904595D01*
X520552Y904474D01*
X520500Y904351D01*
X520452Y904227D01*
X520407Y904101D01*
X520366Y903974D01*
X520329Y903846D01*
X520296Y903717D01*
X520266Y903587D01*
X520241Y903456D01*
X520219Y903324D01*
X520202Y903192D01*
X520188Y903060D01*
X520178Y902927D01*
X520172Y902793D01*
X520170Y902660D01*
X520170Y895660D01*
X520172Y895527D01*
X520178Y895393D01*
X520188Y895260D01*
X520202Y895128D01*
X520219Y894996D01*
X520241Y894864D01*
X520266Y894733D01*
X520296Y894603D01*
X520329Y894474D01*
X520366Y894346D01*
X520407Y894219D01*
X520452Y894093D01*
X520500Y893969D01*
X520552Y893846D01*
X520607Y893725D01*
X520667Y893605D01*
X520729Y893487D01*
X520795Y893372D01*
X520865Y893258D01*
X520938Y893146D01*
X521014Y893037D01*
X521093Y892929D01*
X521176Y892825D01*
X521261Y892722D01*
X521350Y892623D01*
X521441Y892526D01*
X521536Y892431D01*
X521633Y892340D01*
X521732Y892251D01*
X521835Y892166D01*
X521939Y892083D01*
X522047Y892004D01*
X522156Y891928D01*
X522268Y891855D01*
X522382Y891785D01*
X522497Y891719D01*
X522615Y891657D01*
X522735Y891597D01*
X522856Y891542D01*
X522979Y891490D01*
X523103Y891442D01*
X523229Y891397D01*
X523356Y891356D01*
X523484Y891319D01*
X523613Y891286D01*
X523743Y891256D01*
X523874Y891231D01*
X524006Y891209D01*
X524138Y891192D01*
X524270Y891178D01*
X524403Y891168D01*
X524537Y891162D01*
X524670Y891160D01*
D14*
X522170Y889660D02*
X529670Y889660D01*
X522170Y889660D02*
X522072Y889662D01*
X521974Y889668D01*
X521876Y889677D01*
X521779Y889691D01*
X521682Y889708D01*
X521586Y889729D01*
X521491Y889754D01*
X521397Y889782D01*
X521305Y889815D01*
X521213Y889850D01*
X521123Y889890D01*
X521035Y889932D01*
X520948Y889979D01*
X520864Y890028D01*
X520781Y890081D01*
X520701Y890137D01*
X520622Y890197D01*
X520546Y890259D01*
X520473Y890324D01*
X520402Y890392D01*
X520334Y890463D01*
X520269Y890536D01*
X520207Y890612D01*
X520147Y890691D01*
X520091Y890771D01*
X520038Y890854D01*
X519989Y890938D01*
X519942Y891025D01*
X519900Y891113D01*
X519860Y891203D01*
X519825Y891295D01*
X519792Y891387D01*
X519764Y891481D01*
X519739Y891576D01*
X519718Y891672D01*
X519701Y891769D01*
X519687Y891866D01*
X519678Y891964D01*
X519672Y892062D01*
X519670Y892160D01*
X519670Y906160D01*
X519672Y906258D01*
X519678Y906356D01*
X519687Y906454D01*
X519701Y906551D01*
X519718Y906648D01*
X519739Y906744D01*
X519764Y906839D01*
X519792Y906933D01*
X519825Y907025D01*
X519860Y907117D01*
X519900Y907207D01*
X519942Y907295D01*
X519989Y907382D01*
X520038Y907466D01*
X520091Y907549D01*
X520147Y907629D01*
X520207Y907708D01*
X520269Y907784D01*
X520334Y907857D01*
X520402Y907928D01*
X520473Y907996D01*
X520546Y908061D01*
X520622Y908123D01*
X520701Y908183D01*
X520781Y908239D01*
X520864Y908292D01*
X520948Y908341D01*
X521035Y908388D01*
X521123Y908430D01*
X521213Y908470D01*
X521305Y908505D01*
X521397Y908538D01*
X521491Y908566D01*
X521586Y908591D01*
X521682Y908612D01*
X521779Y908629D01*
X521876Y908643D01*
X521974Y908652D01*
X522072Y908658D01*
X522170Y908660D01*
X529670Y908660D01*
X529670Y889660D01*
D16*
X566420Y872410D03*
X559920Y872410D03*
X553420Y872410D03*
X572920Y872410D03*
X579420Y872410D03*
D17*
X598288Y899160D03*
D18*
X554920Y899160D03*
X577920Y899160D03*
D17*
X534553Y899160D03*
D19*
X588670Y869160D03*
X544170Y869160D03*
X608170Y899160D03*
X524670Y899160D03*
D11*
X558800Y670950D03*
X558800Y687950D03*
X535432Y687950D03*
X535432Y670950D03*
X513588Y688204D03*
X513588Y671204D03*
X647700Y537600D03*
X647700Y554600D03*
D10*
X477910Y765048D03*
X494910Y765048D03*
X478926Y794258D03*
X495926Y794258D03*
D20*
X615950Y444500D03*
D21*
X590550Y444500D03*
X565150Y444500D03*
X615950Y419100D03*
X590550Y419100D03*
X565150Y419100D03*
D22*
X455582Y549370D03*
X455582Y561370D03*
X455582Y573370D03*
D23*
X654130Y670926D03*
X584130Y670926D03*
D24*
X673100Y806450D03*
D25*
X673049Y829488D03*
D26*
X496824Y612200D03*
X496824Y604200D03*
X496824Y596200D03*
X496824Y588200D03*
X496824Y580200D03*
X496824Y572200D03*
X496824Y564200D03*
X496824Y556200D03*
D27*
X511750Y541274D03*
X519750Y541274D03*
X527750Y541274D03*
X535750Y541274D03*
X543750Y541274D03*
X551750Y541274D03*
X559750Y541274D03*
X567750Y541274D03*
D26*
X582676Y556200D03*
X582676Y564200D03*
X582676Y572200D03*
X582676Y580200D03*
X582676Y588200D03*
X582676Y596200D03*
X582676Y604200D03*
X582676Y612200D03*
D27*
X567750Y627126D03*
X559750Y627126D03*
X551750Y627126D03*
X543750Y627126D03*
X535750Y627126D03*
X527750Y627126D03*
X519750Y627126D03*
X511750Y627126D03*
D28*
X681452Y561594D03*
X709452Y561594D03*
D29*
X711200Y826800D03*
X711200Y798800D03*
D21*
X742950Y635000D03*
X742950Y660400D03*
X742950Y685800D03*
X742950Y711200D03*
X742950Y736600D03*
X742950Y762000D03*
D11*
X685800Y675250D03*
X685800Y658250D03*
X685800Y709050D03*
X685800Y726050D03*
D30*
X539750Y520700D03*
X539750Y609600D03*
D31*
X646430Y566674D03*
X518922Y580644D03*
X558800Y704850D03*
D30*
X565150Y781050D03*
X429768Y779780D03*
D32*
X673100Y781050D03*
D30*
X685800Y692150D03*
X590550Y501650D03*
X590550Y533400D03*
X558800Y806450D03*
M02*
