G04 EAGLE Gerber RS-274X export*
G75*
%MOMM*%
%FSLAX34Y34*%
%LPD*%
%INSilkscreen Top*%
%IPPOS*%
%AMOC8*
5,1,8,0,0,1.08239X$1,22.5*%
G01*
%ADD10C,0.025400*%


D10*
X49123Y60627D02*
X46329Y60627D01*
X46329Y61403D01*
X46331Y61458D01*
X46337Y61513D01*
X46347Y61568D01*
X46360Y61622D01*
X46378Y61674D01*
X46399Y61725D01*
X46424Y61775D01*
X46452Y61823D01*
X46484Y61868D01*
X46519Y61911D01*
X46556Y61952D01*
X46597Y61989D01*
X46640Y62024D01*
X46685Y62056D01*
X46733Y62084D01*
X46783Y62109D01*
X46834Y62130D01*
X46886Y62148D01*
X46940Y62161D01*
X46995Y62171D01*
X47050Y62177D01*
X47105Y62179D01*
X47160Y62177D01*
X47215Y62171D01*
X47270Y62161D01*
X47324Y62148D01*
X47376Y62130D01*
X47427Y62109D01*
X47477Y62084D01*
X47525Y62056D01*
X47570Y62024D01*
X47613Y61989D01*
X47654Y61952D01*
X47691Y61911D01*
X47726Y61868D01*
X47758Y61823D01*
X47786Y61775D01*
X47811Y61725D01*
X47832Y61674D01*
X47850Y61622D01*
X47863Y61568D01*
X47873Y61513D01*
X47879Y61458D01*
X47881Y61403D01*
X47881Y60627D01*
X49123Y63334D02*
X46329Y63334D01*
X49123Y63334D02*
X49123Y64576D01*
X49123Y65748D02*
X46329Y65748D01*
X46329Y66524D01*
X46331Y66579D01*
X46337Y66634D01*
X46347Y66689D01*
X46360Y66743D01*
X46378Y66795D01*
X46399Y66846D01*
X46424Y66896D01*
X46452Y66944D01*
X46484Y66989D01*
X46519Y67032D01*
X46556Y67073D01*
X46597Y67110D01*
X46640Y67145D01*
X46685Y67177D01*
X46733Y67205D01*
X46783Y67230D01*
X46834Y67251D01*
X46886Y67269D01*
X46940Y67282D01*
X46995Y67292D01*
X47050Y67298D01*
X47105Y67300D01*
X47160Y67298D01*
X47215Y67292D01*
X47270Y67282D01*
X47324Y67269D01*
X47376Y67251D01*
X47427Y67230D01*
X47477Y67205D01*
X47525Y67177D01*
X47570Y67145D01*
X47613Y67110D01*
X47654Y67073D01*
X47691Y67032D01*
X47726Y66989D01*
X47758Y66944D01*
X47786Y66896D01*
X47811Y66846D01*
X47832Y66795D01*
X47850Y66743D01*
X47863Y66689D01*
X47873Y66634D01*
X47879Y66579D01*
X47881Y66524D01*
X47881Y65748D01*
X46329Y68203D02*
X49123Y69134D01*
X46329Y70065D01*
X47105Y71264D02*
X48347Y71264D01*
X47105Y71265D02*
X47050Y71267D01*
X46995Y71273D01*
X46940Y71283D01*
X46886Y71296D01*
X46834Y71314D01*
X46783Y71335D01*
X46733Y71360D01*
X46685Y71388D01*
X46640Y71420D01*
X46597Y71455D01*
X46556Y71492D01*
X46519Y71533D01*
X46484Y71576D01*
X46452Y71621D01*
X46424Y71669D01*
X46399Y71719D01*
X46378Y71770D01*
X46360Y71822D01*
X46347Y71876D01*
X46337Y71931D01*
X46331Y71986D01*
X46329Y72041D01*
X46331Y72096D01*
X46337Y72151D01*
X46347Y72206D01*
X46360Y72260D01*
X46378Y72312D01*
X46399Y72363D01*
X46424Y72413D01*
X46452Y72461D01*
X46484Y72506D01*
X46519Y72549D01*
X46556Y72590D01*
X46597Y72627D01*
X46640Y72662D01*
X46685Y72694D01*
X46733Y72722D01*
X46783Y72747D01*
X46834Y72768D01*
X46886Y72786D01*
X46940Y72799D01*
X46995Y72809D01*
X47050Y72815D01*
X47105Y72817D01*
X48347Y72817D01*
X48402Y72815D01*
X48457Y72809D01*
X48512Y72799D01*
X48566Y72786D01*
X48618Y72768D01*
X48669Y72747D01*
X48719Y72722D01*
X48767Y72694D01*
X48812Y72662D01*
X48855Y72627D01*
X48896Y72590D01*
X48933Y72549D01*
X48968Y72506D01*
X49000Y72461D01*
X49028Y72413D01*
X49053Y72363D01*
X49074Y72312D01*
X49092Y72260D01*
X49105Y72206D01*
X49115Y72151D01*
X49121Y72096D01*
X49123Y72041D01*
X49121Y71986D01*
X49115Y71931D01*
X49105Y71876D01*
X49092Y71822D01*
X49074Y71770D01*
X49053Y71719D01*
X49028Y71669D01*
X49000Y71621D01*
X48968Y71576D01*
X48933Y71533D01*
X48896Y71492D01*
X48855Y71455D01*
X48812Y71420D01*
X48767Y71388D01*
X48719Y71360D01*
X48669Y71335D01*
X48618Y71314D01*
X48566Y71296D01*
X48512Y71283D01*
X48457Y71273D01*
X48402Y71267D01*
X48347Y71265D01*
X48502Y72506D02*
X49123Y73127D01*
X47881Y76020D02*
X47881Y76951D01*
X47881Y76020D02*
X47879Y75971D01*
X47873Y75923D01*
X47864Y75875D01*
X47851Y75828D01*
X47834Y75782D01*
X47813Y75738D01*
X47789Y75696D01*
X47762Y75655D01*
X47732Y75617D01*
X47699Y75581D01*
X47663Y75548D01*
X47625Y75518D01*
X47584Y75491D01*
X47542Y75467D01*
X47498Y75446D01*
X47452Y75429D01*
X47405Y75416D01*
X47357Y75407D01*
X47309Y75401D01*
X47260Y75399D01*
X47105Y75399D01*
X47050Y75401D01*
X46995Y75407D01*
X46940Y75417D01*
X46886Y75430D01*
X46834Y75448D01*
X46783Y75469D01*
X46733Y75494D01*
X46685Y75522D01*
X46640Y75554D01*
X46597Y75589D01*
X46556Y75626D01*
X46519Y75667D01*
X46484Y75710D01*
X46452Y75755D01*
X46424Y75803D01*
X46399Y75853D01*
X46378Y75904D01*
X46360Y75956D01*
X46347Y76010D01*
X46337Y76065D01*
X46331Y76120D01*
X46329Y76175D01*
X46331Y76230D01*
X46337Y76285D01*
X46347Y76340D01*
X46360Y76394D01*
X46378Y76446D01*
X46399Y76497D01*
X46424Y76547D01*
X46452Y76595D01*
X46484Y76640D01*
X46519Y76683D01*
X46556Y76724D01*
X46597Y76761D01*
X46640Y76796D01*
X46685Y76828D01*
X46733Y76856D01*
X46783Y76881D01*
X46834Y76902D01*
X46886Y76920D01*
X46940Y76933D01*
X46995Y76943D01*
X47050Y76949D01*
X47105Y76951D01*
X47881Y76951D01*
X47951Y76949D01*
X48020Y76943D01*
X48089Y76933D01*
X48157Y76920D01*
X48225Y76902D01*
X48291Y76881D01*
X48356Y76856D01*
X48420Y76828D01*
X48482Y76796D01*
X48542Y76761D01*
X48600Y76722D01*
X48655Y76680D01*
X48709Y76635D01*
X48759Y76587D01*
X48807Y76537D01*
X48852Y76483D01*
X48894Y76428D01*
X48933Y76370D01*
X48968Y76310D01*
X49000Y76248D01*
X49028Y76184D01*
X49053Y76119D01*
X49074Y76053D01*
X49092Y75985D01*
X49105Y75917D01*
X49115Y75848D01*
X49121Y75779D01*
X49123Y75709D01*
X48502Y78142D02*
X46329Y78763D01*
X48502Y78142D02*
X48502Y79694D01*
X47881Y79228D02*
X49123Y79228D01*
X47726Y80885D02*
X47631Y80887D01*
X47536Y80893D01*
X47442Y80903D01*
X47348Y80916D01*
X47255Y80934D01*
X47162Y80955D01*
X47070Y80980D01*
X46980Y81009D01*
X46891Y81042D01*
X46803Y81078D01*
X46717Y81118D01*
X46675Y81134D01*
X46635Y81153D01*
X46597Y81176D01*
X46560Y81201D01*
X46525Y81229D01*
X46493Y81259D01*
X46463Y81292D01*
X46436Y81327D01*
X46411Y81365D01*
X46390Y81404D01*
X46372Y81444D01*
X46356Y81486D01*
X46344Y81529D01*
X46336Y81572D01*
X46331Y81617D01*
X46329Y81661D01*
X46331Y81705D01*
X46336Y81750D01*
X46344Y81793D01*
X46356Y81836D01*
X46372Y81878D01*
X46390Y81918D01*
X46411Y81957D01*
X46436Y81995D01*
X46463Y82030D01*
X46493Y82063D01*
X46525Y82093D01*
X46560Y82121D01*
X46597Y82146D01*
X46635Y82169D01*
X46675Y82188D01*
X46717Y82204D01*
X46803Y82244D01*
X46891Y82280D01*
X46980Y82313D01*
X47071Y82342D01*
X47162Y82367D01*
X47255Y82388D01*
X47348Y82406D01*
X47442Y82419D01*
X47536Y82429D01*
X47631Y82435D01*
X47726Y82437D01*
X47726Y80885D02*
X47821Y80887D01*
X47916Y80893D01*
X48010Y80903D01*
X48104Y80916D01*
X48197Y80934D01*
X48290Y80955D01*
X48382Y80980D01*
X48472Y81009D01*
X48561Y81042D01*
X48649Y81078D01*
X48735Y81118D01*
X48777Y81134D01*
X48817Y81153D01*
X48855Y81176D01*
X48892Y81201D01*
X48927Y81229D01*
X48959Y81259D01*
X48989Y81292D01*
X49016Y81327D01*
X49041Y81365D01*
X49062Y81404D01*
X49080Y81444D01*
X49096Y81486D01*
X49108Y81529D01*
X49116Y81572D01*
X49121Y81617D01*
X49123Y81661D01*
X48735Y82204D02*
X48649Y82244D01*
X48561Y82280D01*
X48472Y82313D01*
X48381Y82342D01*
X48290Y82367D01*
X48197Y82388D01*
X48104Y82406D01*
X48010Y82419D01*
X47916Y82429D01*
X47821Y82435D01*
X47726Y82437D01*
X48735Y82204D02*
X48777Y82188D01*
X48817Y82169D01*
X48855Y82146D01*
X48892Y82121D01*
X48927Y82093D01*
X48959Y82063D01*
X48989Y82030D01*
X49016Y81995D01*
X49041Y81957D01*
X49062Y81918D01*
X49080Y81878D01*
X49096Y81836D01*
X49108Y81793D01*
X49116Y81750D01*
X49121Y81705D01*
X49123Y81661D01*
X48502Y81040D02*
X46950Y82282D01*
X46329Y84404D02*
X49123Y83473D01*
X49123Y85336D02*
X46329Y84404D01*
X48425Y85103D02*
X48425Y83706D01*
M02*
