G04 EAGLE Gerber RS-274X export*
G75*
%MOMM*%
%FSLAX34Y34*%
%LPD*%
%INBottom Copper*%
%IPPOS*%
%AMOC8*
5,1,8,0,0,1.08239X$1,22.5*%
G01*
%ADD10C,3.516000*%
%ADD11C,2.550000*%
%ADD12C,1.508000*%
%ADD13C,1.524000*%
%ADD14P,1.649562X8X202.500000*%
%ADD15C,0.756400*%
%ADD16C,0.203200*%
%ADD17C,0.806400*%
%ADD18C,0.355600*%
%ADD19C,0.304800*%
%ADD20C,0.856400*%
%ADD21C,0.254000*%

G36*
X406477Y-2535D02*
X406477Y-2535D01*
X406539Y-2537D01*
X406751Y-2515D01*
X406964Y-2499D01*
X407026Y-2486D01*
X407088Y-2479D01*
X407294Y-2426D01*
X407503Y-2380D01*
X407562Y-2358D01*
X407622Y-2343D01*
X407819Y-2260D01*
X408019Y-2185D01*
X408074Y-2154D01*
X408132Y-2130D01*
X408314Y-2021D01*
X408501Y-1917D01*
X408551Y-1879D01*
X408605Y-1846D01*
X408770Y-1711D01*
X408939Y-1582D01*
X408983Y-1537D01*
X409032Y-1497D01*
X409176Y-1339D01*
X409325Y-1187D01*
X409362Y-1137D01*
X409404Y-1090D01*
X409524Y-913D01*
X409649Y-741D01*
X409678Y-685D01*
X409714Y-633D01*
X409807Y-441D01*
X409906Y-253D01*
X409927Y-193D01*
X409954Y-137D01*
X410018Y67D01*
X410089Y268D01*
X410101Y329D01*
X410120Y389D01*
X410154Y600D01*
X410195Y809D01*
X410198Y872D01*
X410208Y934D01*
X410212Y1147D01*
X410222Y1360D01*
X410216Y1423D01*
X410217Y1485D01*
X410190Y1697D01*
X410169Y1909D01*
X410154Y1970D01*
X410146Y2032D01*
X410088Y2238D01*
X410037Y2445D01*
X410014Y2503D01*
X409997Y2564D01*
X409910Y2758D01*
X409830Y2956D01*
X409798Y3010D01*
X409772Y3068D01*
X409581Y3386D01*
X407973Y5793D01*
X406444Y13480D01*
X407973Y21167D01*
X412327Y27683D01*
X418843Y32037D01*
X426530Y33566D01*
X434217Y32037D01*
X440914Y27562D01*
X440968Y27531D01*
X441019Y27494D01*
X441208Y27395D01*
X441393Y27290D01*
X441452Y27267D01*
X441507Y27238D01*
X441708Y27167D01*
X441907Y27089D01*
X441969Y27075D01*
X442028Y27054D01*
X442237Y27013D01*
X442445Y26965D01*
X442508Y26960D01*
X442569Y26948D01*
X442782Y26938D01*
X442995Y26920D01*
X443057Y26924D01*
X443120Y26921D01*
X443333Y26942D01*
X443545Y26955D01*
X443607Y26968D01*
X443669Y26974D01*
X443876Y27025D01*
X444085Y27069D01*
X444144Y27091D01*
X444205Y27106D01*
X444402Y27186D01*
X444603Y27260D01*
X444658Y27290D01*
X444716Y27314D01*
X444900Y27422D01*
X445087Y27524D01*
X445138Y27561D01*
X445192Y27593D01*
X445358Y27727D01*
X445529Y27854D01*
X445573Y27899D01*
X445622Y27938D01*
X445768Y28095D01*
X445918Y28246D01*
X445955Y28296D01*
X445998Y28342D01*
X446120Y28518D01*
X446246Y28689D01*
X446276Y28744D01*
X446312Y28796D01*
X446407Y28987D01*
X446508Y29175D01*
X446529Y29234D01*
X446557Y29290D01*
X446623Y29493D01*
X446696Y29693D01*
X446708Y29755D01*
X446728Y29815D01*
X446764Y30025D01*
X446807Y30234D01*
X446810Y30296D01*
X446821Y30358D01*
X446839Y30730D01*
X446839Y272495D01*
X446835Y272558D01*
X446837Y272621D01*
X446815Y272833D01*
X446799Y273045D01*
X446786Y273107D01*
X446779Y273169D01*
X446726Y273376D01*
X446680Y273584D01*
X446658Y273643D01*
X446643Y273704D01*
X446560Y273901D01*
X446485Y274100D01*
X446454Y274155D01*
X446430Y274213D01*
X446320Y274396D01*
X446217Y274582D01*
X446179Y274632D01*
X446146Y274686D01*
X446012Y274851D01*
X445882Y275021D01*
X445837Y275065D01*
X445797Y275113D01*
X445640Y275257D01*
X445487Y275406D01*
X445436Y275443D01*
X445390Y275485D01*
X445213Y275605D01*
X445041Y275730D01*
X444986Y275760D01*
X444933Y275795D01*
X444741Y275888D01*
X444553Y275987D01*
X444493Y276008D01*
X444437Y276035D01*
X444233Y276099D01*
X444032Y276170D01*
X443971Y276182D01*
X443911Y276201D01*
X443700Y276235D01*
X443491Y276276D01*
X443428Y276280D01*
X443366Y276290D01*
X443153Y276293D01*
X442940Y276303D01*
X442877Y276297D01*
X442815Y276298D01*
X442603Y276271D01*
X442391Y276250D01*
X442330Y276235D01*
X442268Y276227D01*
X442062Y276170D01*
X441855Y276119D01*
X441797Y276095D01*
X441736Y276078D01*
X441542Y275991D01*
X441344Y275911D01*
X441290Y275879D01*
X441232Y275854D01*
X440914Y275662D01*
X436567Y272758D01*
X428880Y271229D01*
X421193Y272758D01*
X414677Y277112D01*
X410323Y283628D01*
X408794Y291315D01*
X410323Y299002D01*
X413973Y304464D01*
X414004Y304518D01*
X414040Y304569D01*
X414140Y304758D01*
X414245Y304943D01*
X414268Y305002D01*
X414297Y305057D01*
X414368Y305258D01*
X414445Y305457D01*
X414459Y305519D01*
X414480Y305578D01*
X414521Y305787D01*
X414569Y305995D01*
X414574Y306058D01*
X414587Y306119D01*
X414597Y306332D01*
X414614Y306545D01*
X414610Y306607D01*
X414613Y306670D01*
X414593Y306883D01*
X414579Y307095D01*
X414567Y307157D01*
X414560Y307219D01*
X414510Y307426D01*
X414465Y307635D01*
X414444Y307694D01*
X414429Y307755D01*
X414349Y307952D01*
X414275Y308153D01*
X414245Y308208D01*
X414221Y308266D01*
X414113Y308450D01*
X414011Y308637D01*
X413973Y308688D01*
X413942Y308742D01*
X413808Y308908D01*
X413680Y309079D01*
X413636Y309123D01*
X413597Y309172D01*
X413440Y309318D01*
X413289Y309468D01*
X413239Y309505D01*
X413193Y309548D01*
X413017Y309670D01*
X412846Y309796D01*
X412791Y309826D01*
X412739Y309862D01*
X412548Y309957D01*
X412360Y310058D01*
X412301Y310079D01*
X412245Y310107D01*
X412042Y310173D01*
X411841Y310246D01*
X411780Y310258D01*
X411720Y310278D01*
X411510Y310314D01*
X411301Y310357D01*
X411239Y310360D01*
X411177Y310371D01*
X410805Y310389D01*
X186661Y310389D01*
X186598Y310385D01*
X186535Y310387D01*
X186323Y310365D01*
X186110Y310349D01*
X186049Y310336D01*
X185987Y310329D01*
X185780Y310276D01*
X185572Y310230D01*
X185513Y310208D01*
X185452Y310193D01*
X185255Y310110D01*
X185056Y310035D01*
X185001Y310004D01*
X184943Y309980D01*
X184760Y309870D01*
X184574Y309767D01*
X184524Y309729D01*
X184470Y309696D01*
X184305Y309561D01*
X184135Y309432D01*
X184091Y309387D01*
X184043Y309347D01*
X183899Y309189D01*
X183750Y309037D01*
X183713Y308987D01*
X183671Y308940D01*
X183551Y308763D01*
X183425Y308591D01*
X183396Y308536D01*
X183361Y308483D01*
X183268Y308291D01*
X183169Y308103D01*
X183148Y308043D01*
X183121Y307987D01*
X183057Y307783D01*
X182986Y307582D01*
X182974Y307521D01*
X182955Y307461D01*
X182920Y307250D01*
X182879Y307041D01*
X182876Y306978D01*
X182866Y306916D01*
X182863Y306703D01*
X182852Y306490D01*
X182858Y306427D01*
X182857Y306365D01*
X182885Y306153D01*
X182905Y305941D01*
X182920Y305880D01*
X182928Y305818D01*
X182986Y305612D01*
X183037Y305405D01*
X183061Y305347D01*
X183078Y305286D01*
X183164Y305092D01*
X183245Y304894D01*
X183277Y304840D01*
X183302Y304782D01*
X183493Y304464D01*
X187467Y298517D01*
X188996Y290830D01*
X187467Y283143D01*
X183113Y276627D01*
X182880Y276471D01*
X182676Y276313D01*
X182471Y276156D01*
X182459Y276143D01*
X182445Y276132D01*
X182266Y275946D01*
X182085Y275761D01*
X182075Y275747D01*
X182063Y275734D01*
X181913Y275523D01*
X181761Y275315D01*
X181753Y275299D01*
X181743Y275285D01*
X181624Y275054D01*
X181504Y274827D01*
X181499Y274810D01*
X181491Y274794D01*
X181407Y274549D01*
X181321Y274306D01*
X181318Y274289D01*
X181312Y274272D01*
X181265Y274018D01*
X181215Y273765D01*
X181214Y273747D01*
X181211Y273730D01*
X181201Y273472D01*
X181188Y273214D01*
X181190Y273196D01*
X181189Y273179D01*
X181216Y272921D01*
X181241Y272665D01*
X181245Y272648D01*
X181247Y272630D01*
X181311Y272378D01*
X181373Y272129D01*
X181379Y272113D01*
X181384Y272096D01*
X181483Y271857D01*
X181580Y271618D01*
X181589Y271603D01*
X181596Y271587D01*
X181729Y271365D01*
X181860Y271142D01*
X181871Y271128D01*
X181880Y271113D01*
X182042Y270915D01*
X182205Y270712D01*
X182218Y270700D01*
X182229Y270686D01*
X182418Y270514D01*
X182609Y270336D01*
X182623Y270326D01*
X182636Y270314D01*
X182849Y270169D01*
X183062Y270022D01*
X183078Y270014D01*
X183093Y270004D01*
X183325Y269892D01*
X183557Y269777D01*
X183573Y269772D01*
X183589Y269764D01*
X183836Y269686D01*
X184081Y269606D01*
X184099Y269603D01*
X184115Y269598D01*
X184370Y269557D01*
X184625Y269513D01*
X184646Y269512D01*
X184660Y269510D01*
X184707Y269509D01*
X184996Y269495D01*
X190305Y269495D01*
X190510Y269510D01*
X190715Y269517D01*
X190784Y269530D01*
X190855Y269535D01*
X191056Y269579D01*
X191258Y269616D01*
X191324Y269638D01*
X191393Y269654D01*
X191586Y269727D01*
X191780Y269792D01*
X191843Y269824D01*
X191909Y269849D01*
X192089Y269949D01*
X192272Y270042D01*
X192330Y270083D01*
X192391Y270117D01*
X192555Y270242D01*
X192723Y270361D01*
X192790Y270421D01*
X192830Y270452D01*
X192879Y270503D01*
X192998Y270610D01*
X201617Y279229D01*
X202644Y279655D01*
X306132Y279655D01*
X306337Y279670D01*
X306542Y279677D01*
X306612Y279690D01*
X306682Y279695D01*
X306883Y279739D01*
X307085Y279776D01*
X307152Y279798D01*
X307221Y279814D01*
X307413Y279887D01*
X307608Y279952D01*
X307671Y279984D01*
X307737Y280009D01*
X307916Y280109D01*
X308100Y280202D01*
X308157Y280243D01*
X308219Y280277D01*
X308382Y280402D01*
X308550Y280521D01*
X308617Y280581D01*
X308657Y280612D01*
X308707Y280663D01*
X308826Y280770D01*
X309414Y281359D01*
X311364Y282167D01*
X313476Y282167D01*
X315426Y281359D01*
X316919Y279866D01*
X317727Y277916D01*
X317727Y275804D01*
X316919Y273854D01*
X315426Y272361D01*
X313476Y271553D01*
X311364Y271553D01*
X309414Y272361D01*
X308826Y272950D01*
X308671Y273083D01*
X308520Y273224D01*
X308461Y273264D01*
X308408Y273310D01*
X308235Y273421D01*
X308066Y273538D01*
X308003Y273569D01*
X307943Y273607D01*
X307756Y273691D01*
X307572Y273783D01*
X307504Y273805D01*
X307440Y273834D01*
X307242Y273890D01*
X307047Y273954D01*
X306978Y273966D01*
X306910Y273985D01*
X306706Y274012D01*
X306503Y274047D01*
X306413Y274052D01*
X306363Y274058D01*
X306292Y274057D01*
X306132Y274065D01*
X205935Y274065D01*
X205730Y274050D01*
X205525Y274043D01*
X205456Y274030D01*
X205385Y274025D01*
X205184Y273981D01*
X204982Y273944D01*
X204916Y273922D01*
X204847Y273906D01*
X204654Y273833D01*
X204460Y273768D01*
X204397Y273736D01*
X204331Y273711D01*
X204151Y273611D01*
X203968Y273518D01*
X203910Y273477D01*
X203849Y273443D01*
X203685Y273318D01*
X203517Y273199D01*
X203450Y273139D01*
X203410Y273108D01*
X203361Y273057D01*
X203242Y272950D01*
X194623Y264331D01*
X193596Y263905D01*
X138368Y263905D01*
X138163Y263890D01*
X137958Y263883D01*
X137888Y263870D01*
X137818Y263865D01*
X137617Y263821D01*
X137415Y263784D01*
X137348Y263762D01*
X137279Y263746D01*
X137087Y263673D01*
X136892Y263608D01*
X136829Y263576D01*
X136763Y263551D01*
X136584Y263451D01*
X136400Y263358D01*
X136343Y263317D01*
X136281Y263283D01*
X136118Y263158D01*
X135950Y263039D01*
X135883Y262979D01*
X135843Y262948D01*
X135793Y262897D01*
X135674Y262790D01*
X135086Y262201D01*
X133136Y261393D01*
X131024Y261393D01*
X129074Y262201D01*
X127581Y263694D01*
X126773Y265644D01*
X126773Y267756D01*
X127581Y269706D01*
X129074Y271199D01*
X131024Y272007D01*
X133136Y272007D01*
X135086Y271199D01*
X135674Y270610D01*
X135829Y270477D01*
X135980Y270336D01*
X136039Y270296D01*
X136092Y270250D01*
X136265Y270139D01*
X136434Y270022D01*
X136497Y269991D01*
X136557Y269953D01*
X136744Y269869D01*
X136928Y269777D01*
X136996Y269755D01*
X137060Y269726D01*
X137258Y269670D01*
X137453Y269606D01*
X137522Y269594D01*
X137590Y269575D01*
X137794Y269548D01*
X137997Y269513D01*
X138087Y269508D01*
X138137Y269502D01*
X138208Y269503D01*
X138368Y269495D01*
X152824Y269495D01*
X153081Y269513D01*
X153339Y269530D01*
X153356Y269533D01*
X153374Y269535D01*
X153627Y269591D01*
X153879Y269644D01*
X153895Y269650D01*
X153913Y269654D01*
X154154Y269745D01*
X154397Y269835D01*
X154412Y269843D01*
X154429Y269849D01*
X154654Y269975D01*
X154881Y270098D01*
X154895Y270109D01*
X154911Y270117D01*
X155117Y270275D01*
X155323Y270429D01*
X155335Y270441D01*
X155349Y270452D01*
X155529Y270636D01*
X155712Y270820D01*
X155722Y270834D01*
X155735Y270847D01*
X155885Y271054D01*
X156040Y271263D01*
X156049Y271279D01*
X156059Y271293D01*
X156179Y271521D01*
X156301Y271749D01*
X156307Y271766D01*
X156316Y271781D01*
X156401Y272023D01*
X156489Y272268D01*
X156493Y272285D01*
X156499Y272302D01*
X156548Y272554D01*
X156601Y272808D01*
X156602Y272826D01*
X156605Y272843D01*
X156618Y273101D01*
X156633Y273359D01*
X156631Y273376D01*
X156632Y273394D01*
X156607Y273651D01*
X156585Y273909D01*
X156581Y273926D01*
X156579Y273943D01*
X156518Y274193D01*
X156458Y274445D01*
X156451Y274462D01*
X156447Y274479D01*
X156350Y274719D01*
X156255Y274958D01*
X156246Y274974D01*
X156240Y274990D01*
X156108Y275214D01*
X155980Y275437D01*
X155969Y275451D01*
X155960Y275466D01*
X155798Y275668D01*
X155639Y275870D01*
X155626Y275882D01*
X155615Y275896D01*
X155424Y276074D01*
X155239Y276250D01*
X155222Y276263D01*
X155211Y276272D01*
X155172Y276299D01*
X154940Y276471D01*
X154707Y276627D01*
X150353Y283143D01*
X148824Y290830D01*
X150353Y298517D01*
X154327Y304464D01*
X154358Y304518D01*
X154395Y304569D01*
X154494Y304758D01*
X154599Y304943D01*
X154622Y305002D01*
X154651Y305057D01*
X154722Y305259D01*
X154799Y305457D01*
X154814Y305519D01*
X154834Y305578D01*
X154875Y305787D01*
X154923Y305995D01*
X154929Y306058D01*
X154941Y306119D01*
X154951Y306332D01*
X154968Y306545D01*
X154964Y306607D01*
X154968Y306670D01*
X154947Y306883D01*
X154934Y307095D01*
X154921Y307157D01*
X154915Y307219D01*
X154864Y307426D01*
X154820Y307635D01*
X154798Y307694D01*
X154783Y307755D01*
X154703Y307952D01*
X154629Y308153D01*
X154599Y308208D01*
X154575Y308266D01*
X154467Y308450D01*
X154365Y308637D01*
X154328Y308688D01*
X154296Y308742D01*
X154162Y308908D01*
X154034Y309079D01*
X153990Y309123D01*
X153951Y309172D01*
X153794Y309318D01*
X153643Y309468D01*
X153593Y309505D01*
X153547Y309548D01*
X153371Y309670D01*
X153200Y309796D01*
X153145Y309826D01*
X153093Y309862D01*
X152902Y309957D01*
X152714Y310058D01*
X152655Y310079D01*
X152599Y310107D01*
X152396Y310173D01*
X152196Y310246D01*
X152134Y310258D01*
X152074Y310278D01*
X151864Y310314D01*
X151655Y310357D01*
X151593Y310360D01*
X151531Y310371D01*
X151159Y310389D01*
X-83820Y310389D01*
X-83892Y310384D01*
X-84069Y310381D01*
X-85561Y310283D01*
X-85747Y310257D01*
X-85934Y310240D01*
X-86048Y310216D01*
X-86107Y310207D01*
X-86170Y310189D01*
X-86298Y310162D01*
X-89180Y309389D01*
X-89215Y309377D01*
X-89251Y309370D01*
X-89475Y309287D01*
X-89701Y309208D01*
X-89734Y309191D01*
X-89768Y309179D01*
X-90099Y309009D01*
X-92683Y307517D01*
X-92713Y307496D01*
X-92746Y307480D01*
X-92942Y307341D01*
X-93139Y307207D01*
X-93166Y307183D01*
X-93196Y307161D01*
X-93472Y306912D01*
X-95582Y304802D01*
X-95605Y304774D01*
X-95633Y304749D01*
X-95786Y304565D01*
X-95942Y304384D01*
X-95962Y304353D01*
X-95986Y304325D01*
X-96187Y304013D01*
X-97679Y301429D01*
X-97695Y301396D01*
X-97715Y301365D01*
X-97815Y301147D01*
X-97919Y300932D01*
X-97930Y300897D01*
X-97946Y300864D01*
X-98059Y300510D01*
X-98832Y297628D01*
X-98867Y297443D01*
X-98911Y297260D01*
X-98924Y297145D01*
X-98936Y297086D01*
X-98938Y297021D01*
X-98953Y296891D01*
X-99051Y295399D01*
X-99051Y295327D01*
X-99059Y295150D01*
X-99059Y288754D01*
X-99042Y288514D01*
X-99029Y288274D01*
X-99022Y288239D01*
X-99019Y288204D01*
X-98967Y287969D01*
X-98920Y287733D01*
X-98908Y287700D01*
X-98900Y287665D01*
X-98815Y287441D01*
X-98734Y287214D01*
X-98717Y287182D01*
X-98705Y287149D01*
X-98588Y286939D01*
X-98475Y286727D01*
X-98454Y286698D01*
X-98437Y286667D01*
X-98290Y286475D01*
X-98148Y286282D01*
X-98123Y286257D01*
X-98102Y286229D01*
X-97930Y286061D01*
X-97761Y285889D01*
X-97732Y285868D01*
X-97707Y285843D01*
X-97513Y285702D01*
X-97320Y285557D01*
X-97289Y285540D01*
X-97261Y285519D01*
X-97049Y285407D01*
X-96837Y285291D01*
X-96804Y285279D01*
X-96773Y285262D01*
X-96546Y285183D01*
X-96320Y285098D01*
X-96286Y285091D01*
X-96252Y285079D01*
X-96016Y285033D01*
X-95781Y284982D01*
X-95745Y284980D01*
X-95711Y284973D01*
X-95470Y284961D01*
X-95230Y284945D01*
X-95195Y284948D01*
X-95160Y284946D01*
X-94920Y284969D01*
X-94680Y284988D01*
X-94646Y284996D01*
X-94611Y284999D01*
X-94378Y285056D01*
X-94142Y285110D01*
X-94101Y285124D01*
X-94075Y285131D01*
X-94014Y285155D01*
X-93792Y285235D01*
X-92151Y285915D01*
X-88545Y285915D01*
X-85213Y284535D01*
X-82663Y281985D01*
X-81283Y278653D01*
X-81283Y275047D01*
X-82663Y271715D01*
X-85213Y269165D01*
X-88545Y267785D01*
X-92151Y267785D01*
X-93792Y268465D01*
X-94021Y268541D01*
X-94248Y268621D01*
X-94282Y268628D01*
X-94316Y268639D01*
X-94553Y268681D01*
X-94789Y268727D01*
X-94824Y268729D01*
X-94859Y268735D01*
X-95100Y268742D01*
X-95340Y268754D01*
X-95375Y268751D01*
X-95411Y268752D01*
X-95650Y268724D01*
X-95889Y268701D01*
X-95923Y268693D01*
X-95959Y268689D01*
X-96192Y268626D01*
X-96425Y268569D01*
X-96457Y268556D01*
X-96492Y268547D01*
X-96714Y268452D01*
X-96936Y268362D01*
X-96966Y268344D01*
X-96999Y268330D01*
X-97204Y268204D01*
X-97412Y268082D01*
X-97439Y268060D01*
X-97469Y268042D01*
X-97653Y267888D01*
X-97842Y267737D01*
X-97866Y267711D01*
X-97893Y267689D01*
X-98053Y267510D01*
X-98218Y267333D01*
X-98238Y267304D01*
X-98262Y267278D01*
X-98395Y267078D01*
X-98532Y266880D01*
X-98548Y266848D01*
X-98567Y266819D01*
X-98670Y266601D01*
X-98777Y266385D01*
X-98788Y266352D01*
X-98803Y266320D01*
X-98873Y266090D01*
X-98948Y265861D01*
X-98954Y265826D01*
X-98964Y265792D01*
X-99000Y265554D01*
X-99041Y265317D01*
X-99043Y265274D01*
X-99047Y265247D01*
X-99048Y265181D01*
X-99059Y264946D01*
X-99059Y178754D01*
X-99042Y178514D01*
X-99029Y178274D01*
X-99022Y178239D01*
X-99019Y178204D01*
X-98967Y177969D01*
X-98920Y177733D01*
X-98908Y177700D01*
X-98900Y177665D01*
X-98815Y177441D01*
X-98734Y177214D01*
X-98717Y177182D01*
X-98705Y177149D01*
X-98588Y176939D01*
X-98475Y176727D01*
X-98454Y176698D01*
X-98437Y176667D01*
X-98290Y176475D01*
X-98148Y176282D01*
X-98123Y176257D01*
X-98102Y176229D01*
X-97930Y176061D01*
X-97761Y175889D01*
X-97732Y175868D01*
X-97707Y175843D01*
X-97513Y175702D01*
X-97320Y175557D01*
X-97289Y175540D01*
X-97261Y175519D01*
X-97048Y175407D01*
X-96837Y175291D01*
X-96804Y175279D01*
X-96773Y175262D01*
X-96546Y175183D01*
X-96320Y175098D01*
X-96286Y175091D01*
X-96252Y175079D01*
X-96016Y175033D01*
X-95781Y174982D01*
X-95745Y174980D01*
X-95711Y174973D01*
X-95470Y174961D01*
X-95230Y174945D01*
X-95195Y174948D01*
X-95160Y174946D01*
X-94920Y174969D01*
X-94680Y174988D01*
X-94646Y174996D01*
X-94611Y174999D01*
X-94378Y175056D01*
X-94142Y175110D01*
X-94101Y175124D01*
X-94075Y175131D01*
X-94014Y175155D01*
X-93792Y175235D01*
X-92151Y175915D01*
X-88545Y175915D01*
X-85213Y174535D01*
X-82663Y171985D01*
X-81283Y168653D01*
X-81283Y165047D01*
X-82663Y161715D01*
X-85213Y159165D01*
X-88545Y157785D01*
X-92151Y157785D01*
X-93792Y158465D01*
X-94021Y158541D01*
X-94248Y158621D01*
X-94282Y158628D01*
X-94316Y158639D01*
X-94553Y158681D01*
X-94789Y158727D01*
X-94824Y158729D01*
X-94859Y158735D01*
X-95100Y158742D01*
X-95340Y158754D01*
X-95375Y158751D01*
X-95411Y158752D01*
X-95650Y158724D01*
X-95889Y158701D01*
X-95923Y158693D01*
X-95959Y158689D01*
X-96192Y158626D01*
X-96425Y158569D01*
X-96457Y158556D01*
X-96492Y158547D01*
X-96714Y158452D01*
X-96936Y158362D01*
X-96966Y158344D01*
X-96999Y158330D01*
X-97204Y158204D01*
X-97412Y158082D01*
X-97439Y158060D01*
X-97469Y158042D01*
X-97654Y157888D01*
X-97842Y157737D01*
X-97866Y157711D01*
X-97893Y157689D01*
X-98053Y157510D01*
X-98218Y157333D01*
X-98238Y157304D01*
X-98262Y157278D01*
X-98395Y157078D01*
X-98532Y156880D01*
X-98548Y156848D01*
X-98567Y156819D01*
X-98670Y156601D01*
X-98777Y156385D01*
X-98788Y156352D01*
X-98803Y156320D01*
X-98873Y156090D01*
X-98948Y155861D01*
X-98954Y155826D01*
X-98964Y155792D01*
X-99000Y155555D01*
X-99041Y155317D01*
X-99043Y155274D01*
X-99047Y155247D01*
X-99048Y155181D01*
X-99059Y154946D01*
X-99059Y139246D01*
X-99056Y139201D01*
X-99058Y139156D01*
X-99036Y138926D01*
X-99019Y138696D01*
X-99010Y138652D01*
X-99005Y138607D01*
X-98950Y138383D01*
X-98900Y138157D01*
X-98884Y138115D01*
X-98874Y138071D01*
X-98787Y137857D01*
X-98705Y137641D01*
X-98683Y137602D01*
X-98666Y137560D01*
X-98549Y137361D01*
X-98437Y137159D01*
X-98409Y137123D01*
X-98386Y137084D01*
X-98242Y136904D01*
X-98102Y136721D01*
X-98070Y136689D01*
X-98041Y136654D01*
X-97871Y136496D01*
X-97707Y136335D01*
X-97671Y136309D01*
X-97638Y136278D01*
X-97447Y136146D01*
X-97261Y136011D01*
X-97221Y135990D01*
X-97184Y135964D01*
X-96976Y135861D01*
X-96773Y135754D01*
X-96730Y135739D01*
X-96690Y135719D01*
X-96470Y135648D01*
X-96252Y135571D01*
X-96208Y135562D01*
X-96165Y135548D01*
X-95937Y135509D01*
X-95711Y135465D01*
X-95666Y135463D01*
X-95621Y135455D01*
X-95250Y135437D01*
X-91208Y135437D01*
X-86554Y133509D01*
X-82993Y129948D01*
X-81065Y125294D01*
X-81065Y120258D01*
X-82993Y115604D01*
X-86554Y112043D01*
X-91208Y110115D01*
X-95250Y110115D01*
X-95295Y110112D01*
X-95340Y110114D01*
X-95570Y110092D01*
X-95800Y110075D01*
X-95844Y110066D01*
X-95889Y110061D01*
X-96113Y110006D01*
X-96339Y109956D01*
X-96381Y109940D01*
X-96425Y109930D01*
X-96639Y109843D01*
X-96855Y109761D01*
X-96894Y109739D01*
X-96936Y109722D01*
X-97135Y109605D01*
X-97337Y109493D01*
X-97373Y109465D01*
X-97412Y109442D01*
X-97592Y109298D01*
X-97775Y109158D01*
X-97807Y109126D01*
X-97842Y109097D01*
X-98000Y108927D01*
X-98161Y108763D01*
X-98187Y108727D01*
X-98218Y108694D01*
X-98350Y108503D01*
X-98485Y108317D01*
X-98506Y108277D01*
X-98532Y108240D01*
X-98635Y108032D01*
X-98742Y107829D01*
X-98757Y107786D01*
X-98777Y107746D01*
X-98849Y107525D01*
X-98925Y107308D01*
X-98934Y107264D01*
X-98948Y107221D01*
X-98987Y106993D01*
X-99031Y106767D01*
X-99033Y106722D01*
X-99041Y106677D01*
X-99059Y106306D01*
X-99059Y55746D01*
X-99056Y55701D01*
X-99058Y55656D01*
X-99036Y55426D01*
X-99019Y55196D01*
X-99010Y55152D01*
X-99005Y55107D01*
X-98950Y54883D01*
X-98900Y54657D01*
X-98884Y54615D01*
X-98874Y54571D01*
X-98787Y54357D01*
X-98705Y54141D01*
X-98683Y54102D01*
X-98666Y54060D01*
X-98549Y53861D01*
X-98437Y53659D01*
X-98409Y53623D01*
X-98386Y53584D01*
X-98242Y53404D01*
X-98102Y53221D01*
X-98070Y53189D01*
X-98041Y53154D01*
X-97871Y52996D01*
X-97707Y52835D01*
X-97671Y52809D01*
X-97638Y52778D01*
X-97447Y52646D01*
X-97261Y52511D01*
X-97221Y52490D01*
X-97184Y52464D01*
X-96976Y52361D01*
X-96773Y52254D01*
X-96730Y52239D01*
X-96690Y52219D01*
X-96470Y52148D01*
X-96252Y52071D01*
X-96208Y52062D01*
X-96165Y52048D01*
X-95937Y52009D01*
X-95711Y51965D01*
X-95666Y51963D01*
X-95621Y51955D01*
X-95250Y51937D01*
X-91208Y51937D01*
X-86554Y50009D01*
X-82993Y46448D01*
X-81065Y41794D01*
X-81065Y36758D01*
X-83049Y31968D01*
X-83131Y31721D01*
X-83214Y31479D01*
X-83217Y31461D01*
X-83223Y31445D01*
X-83268Y31190D01*
X-83315Y30936D01*
X-83316Y30919D01*
X-83319Y30901D01*
X-83327Y30642D01*
X-83337Y30385D01*
X-83335Y30368D01*
X-83336Y30350D01*
X-83306Y30092D01*
X-83279Y29836D01*
X-83275Y29819D01*
X-83273Y29802D01*
X-83207Y29553D01*
X-83142Y29302D01*
X-83135Y29286D01*
X-83131Y29269D01*
X-83030Y29033D01*
X-82930Y28793D01*
X-82921Y28778D01*
X-82914Y28762D01*
X-82780Y28542D01*
X-82646Y28320D01*
X-82635Y28306D01*
X-82626Y28291D01*
X-82461Y28093D01*
X-82297Y27893D01*
X-82284Y27881D01*
X-82273Y27867D01*
X-82081Y27695D01*
X-81890Y27520D01*
X-81875Y27510D01*
X-81862Y27499D01*
X-81648Y27356D01*
X-81433Y27211D01*
X-81417Y27203D01*
X-81403Y27193D01*
X-81169Y27083D01*
X-80937Y26970D01*
X-80920Y26965D01*
X-80904Y26958D01*
X-80657Y26882D01*
X-80411Y26804D01*
X-80393Y26802D01*
X-80376Y26796D01*
X-80120Y26757D01*
X-79866Y26716D01*
X-79849Y26716D01*
X-79831Y26713D01*
X-79572Y26711D01*
X-79314Y26707D01*
X-79297Y26710D01*
X-79279Y26709D01*
X-79023Y26745D01*
X-78767Y26778D01*
X-78751Y26783D01*
X-78733Y26785D01*
X-78483Y26858D01*
X-78236Y26928D01*
X-78220Y26935D01*
X-78203Y26940D01*
X-77968Y27047D01*
X-77732Y27152D01*
X-77714Y27163D01*
X-77701Y27169D01*
X-77662Y27194D01*
X-77413Y27343D01*
X-73427Y30007D01*
X-65740Y31536D01*
X-58053Y30007D01*
X-51537Y25653D01*
X-47183Y19137D01*
X-45654Y11450D01*
X-47183Y3763D01*
X-47435Y3386D01*
X-47466Y3332D01*
X-47503Y3281D01*
X-47602Y3092D01*
X-47707Y2907D01*
X-47730Y2848D01*
X-47759Y2793D01*
X-47830Y2592D01*
X-47908Y2393D01*
X-47922Y2331D01*
X-47943Y2272D01*
X-47984Y2063D01*
X-48032Y1855D01*
X-48037Y1792D01*
X-48049Y1731D01*
X-48059Y1518D01*
X-48077Y1305D01*
X-48073Y1243D01*
X-48076Y1180D01*
X-48055Y968D01*
X-48042Y755D01*
X-48029Y693D01*
X-48023Y631D01*
X-47972Y424D01*
X-47928Y215D01*
X-47906Y156D01*
X-47891Y95D01*
X-47811Y-103D01*
X-47737Y-303D01*
X-47707Y-358D01*
X-47683Y-416D01*
X-47575Y-600D01*
X-47473Y-787D01*
X-47436Y-838D01*
X-47404Y-892D01*
X-47270Y-1058D01*
X-47143Y-1229D01*
X-47098Y-1273D01*
X-47059Y-1322D01*
X-46902Y-1468D01*
X-46752Y-1618D01*
X-46701Y-1655D01*
X-46655Y-1698D01*
X-46479Y-1820D01*
X-46308Y-1946D01*
X-46253Y-1976D01*
X-46201Y-2012D01*
X-46010Y-2107D01*
X-45822Y-2208D01*
X-45763Y-2229D01*
X-45707Y-2257D01*
X-45504Y-2323D01*
X-45304Y-2396D01*
X-45242Y-2408D01*
X-45183Y-2428D01*
X-44972Y-2464D01*
X-44763Y-2507D01*
X-44701Y-2511D01*
X-44639Y-2521D01*
X-44268Y-2539D01*
X406414Y-2539D01*
X406477Y-2535D01*
G37*
%LPC*%
G36*
X325991Y17779D02*
X325991Y17779D01*
X319475Y24295D01*
X319441Y24325D01*
X319411Y24358D01*
X319233Y24505D01*
X319058Y24656D01*
X319020Y24681D01*
X318985Y24709D01*
X318788Y24828D01*
X318593Y24953D01*
X318551Y24972D01*
X318513Y24995D01*
X318301Y25084D01*
X318090Y25180D01*
X318046Y25192D01*
X318005Y25209D01*
X317782Y25267D01*
X317559Y25331D01*
X317514Y25337D01*
X317471Y25348D01*
X317241Y25374D01*
X317012Y25404D01*
X316967Y25404D01*
X316922Y25409D01*
X316692Y25400D01*
X316461Y25398D01*
X316416Y25391D01*
X316371Y25389D01*
X316144Y25348D01*
X315916Y25312D01*
X315873Y25298D01*
X315828Y25290D01*
X315610Y25216D01*
X315389Y25148D01*
X315348Y25128D01*
X315306Y25114D01*
X315100Y25009D01*
X314892Y24909D01*
X314854Y24884D01*
X314814Y24864D01*
X314625Y24730D01*
X314434Y24602D01*
X314400Y24571D01*
X314363Y24545D01*
X314088Y24295D01*
X308588Y18795D01*
X301012Y18795D01*
X294794Y25014D01*
X294759Y25043D01*
X294729Y25077D01*
X294551Y25224D01*
X294376Y25375D01*
X294338Y25399D01*
X294303Y25428D01*
X294106Y25547D01*
X293911Y25671D01*
X293870Y25690D01*
X293831Y25713D01*
X293619Y25803D01*
X293408Y25898D01*
X293365Y25910D01*
X293323Y25928D01*
X293100Y25986D01*
X292878Y26049D01*
X292833Y26055D01*
X292789Y26067D01*
X292560Y26092D01*
X292331Y26123D01*
X292286Y26122D01*
X292241Y26127D01*
X292010Y26119D01*
X291779Y26116D01*
X291735Y26109D01*
X291690Y26107D01*
X291463Y26066D01*
X291234Y26030D01*
X291191Y26016D01*
X291147Y26008D01*
X290928Y25935D01*
X290708Y25866D01*
X290667Y25846D01*
X290624Y25832D01*
X290418Y25727D01*
X290210Y25628D01*
X290173Y25602D01*
X290132Y25582D01*
X289943Y25448D01*
X289752Y25320D01*
X289719Y25290D01*
X289682Y25264D01*
X289406Y25014D01*
X283188Y18795D01*
X275612Y18795D01*
X270255Y24152D01*
X270255Y31728D01*
X276474Y37946D01*
X276503Y37980D01*
X276537Y38011D01*
X276684Y38190D01*
X276835Y38364D01*
X276859Y38402D01*
X276888Y38437D01*
X277007Y38634D01*
X277131Y38829D01*
X277150Y38870D01*
X277173Y38909D01*
X277263Y39121D01*
X277358Y39332D01*
X277370Y39375D01*
X277388Y39417D01*
X277446Y39640D01*
X277509Y39862D01*
X277515Y39907D01*
X277527Y39951D01*
X277552Y40180D01*
X277583Y40409D01*
X277582Y40454D01*
X277587Y40499D01*
X277579Y40730D01*
X277576Y40961D01*
X277569Y41005D01*
X277567Y41050D01*
X277526Y41277D01*
X277490Y41506D01*
X277476Y41549D01*
X277468Y41593D01*
X277395Y41811D01*
X277326Y42032D01*
X277306Y42073D01*
X277292Y42116D01*
X277188Y42321D01*
X277088Y42530D01*
X277062Y42568D01*
X277042Y42608D01*
X276909Y42796D01*
X276780Y42988D01*
X276750Y43021D01*
X276724Y43058D01*
X276474Y43334D01*
X270255Y49552D01*
X270255Y57128D01*
X275612Y62485D01*
X283188Y62485D01*
X289406Y56266D01*
X289440Y56237D01*
X289471Y56203D01*
X289650Y56056D01*
X289824Y55905D01*
X289862Y55881D01*
X289897Y55852D01*
X290094Y55733D01*
X290289Y55609D01*
X290330Y55590D01*
X290369Y55567D01*
X290581Y55477D01*
X290792Y55382D01*
X290835Y55370D01*
X290877Y55352D01*
X291100Y55294D01*
X291322Y55231D01*
X291367Y55225D01*
X291411Y55213D01*
X291640Y55188D01*
X291869Y55157D01*
X291914Y55158D01*
X291959Y55153D01*
X292190Y55161D01*
X292421Y55164D01*
X292465Y55171D01*
X292511Y55173D01*
X292737Y55214D01*
X292966Y55250D01*
X293009Y55264D01*
X293053Y55272D01*
X293271Y55345D01*
X293492Y55414D01*
X293533Y55434D01*
X293576Y55448D01*
X293781Y55552D01*
X293990Y55652D01*
X294028Y55678D01*
X294068Y55698D01*
X294256Y55831D01*
X294448Y55960D01*
X294481Y55990D01*
X294518Y56016D01*
X294794Y56266D01*
X301411Y62883D01*
X301493Y62978D01*
X301582Y63066D01*
X301673Y63186D01*
X301771Y63300D01*
X301839Y63406D01*
X301914Y63506D01*
X301987Y63638D01*
X302068Y63765D01*
X302120Y63880D01*
X302180Y63990D01*
X302233Y64131D01*
X302295Y64269D01*
X302329Y64389D01*
X302373Y64507D01*
X302405Y64654D01*
X302446Y64799D01*
X302463Y64923D01*
X302489Y65046D01*
X302499Y65196D01*
X302519Y65346D01*
X302518Y65471D01*
X302526Y65596D01*
X302514Y65747D01*
X302513Y65897D01*
X302493Y66021D01*
X302483Y66146D01*
X302450Y66293D01*
X302427Y66442D01*
X302389Y66562D01*
X302362Y66684D01*
X302282Y66906D01*
X302263Y66969D01*
X302251Y66994D01*
X302236Y67034D01*
X302033Y67524D01*
X302033Y69636D01*
X302841Y71586D01*
X304334Y73079D01*
X306284Y73887D01*
X308396Y73887D01*
X310434Y73042D01*
X310470Y73011D01*
X310508Y72987D01*
X310543Y72958D01*
X310741Y72838D01*
X310935Y72714D01*
X310977Y72696D01*
X311015Y72672D01*
X311228Y72583D01*
X311439Y72488D01*
X311482Y72475D01*
X311524Y72458D01*
X311747Y72400D01*
X311969Y72336D01*
X312014Y72330D01*
X312057Y72319D01*
X312287Y72294D01*
X312516Y72263D01*
X312561Y72264D01*
X312606Y72259D01*
X312837Y72267D01*
X313067Y72270D01*
X313112Y72277D01*
X313157Y72278D01*
X313384Y72320D01*
X313612Y72356D01*
X313656Y72369D01*
X313700Y72377D01*
X313918Y72451D01*
X314139Y72520D01*
X314180Y72539D01*
X314223Y72554D01*
X314428Y72658D01*
X314637Y72758D01*
X314674Y72783D01*
X314714Y72804D01*
X314903Y72937D01*
X315095Y73066D01*
X315128Y73096D01*
X315165Y73122D01*
X315440Y73372D01*
X341558Y99489D01*
X341692Y99644D01*
X341832Y99795D01*
X341872Y99853D01*
X341918Y99906D01*
X342029Y100080D01*
X342146Y100249D01*
X342177Y100312D01*
X342215Y100371D01*
X342299Y100559D01*
X342391Y100743D01*
X342413Y100810D01*
X342442Y100875D01*
X342498Y101072D01*
X342562Y101268D01*
X342574Y101337D01*
X342593Y101405D01*
X342620Y101609D01*
X342655Y101811D01*
X342660Y101902D01*
X342666Y101952D01*
X342665Y102022D01*
X342673Y102183D01*
X342673Y102656D01*
X343210Y103952D01*
X343286Y104182D01*
X343366Y104408D01*
X343373Y104442D01*
X343384Y104476D01*
X343426Y104713D01*
X343472Y104949D01*
X343474Y104984D01*
X343480Y105019D01*
X343488Y105260D01*
X343499Y105500D01*
X343496Y105535D01*
X343497Y105570D01*
X343469Y105810D01*
X343446Y106049D01*
X343438Y106083D01*
X343434Y106119D01*
X343372Y106352D01*
X343315Y106585D01*
X343301Y106618D01*
X343292Y106652D01*
X343198Y106873D01*
X343107Y107096D01*
X343089Y107126D01*
X343075Y107159D01*
X342949Y107364D01*
X342828Y107572D01*
X342806Y107599D01*
X342787Y107629D01*
X342633Y107814D01*
X342482Y108002D01*
X342456Y108026D01*
X342434Y108053D01*
X342256Y108213D01*
X342079Y108378D01*
X342050Y108398D01*
X342023Y108422D01*
X341824Y108554D01*
X341625Y108692D01*
X341593Y108708D01*
X341564Y108727D01*
X341347Y108830D01*
X341131Y108937D01*
X341097Y108948D01*
X341065Y108963D01*
X340835Y109033D01*
X340606Y109108D01*
X340571Y109114D01*
X340538Y109124D01*
X340300Y109160D01*
X340062Y109201D01*
X340019Y109203D01*
X339992Y109207D01*
X339927Y109208D01*
X339691Y109219D01*
X309375Y109219D01*
X308441Y109606D01*
X304093Y113954D01*
X303998Y114036D01*
X303910Y114125D01*
X303789Y114216D01*
X303675Y114315D01*
X303570Y114382D01*
X303470Y114458D01*
X303337Y114531D01*
X303210Y114612D01*
X303096Y114663D01*
X302986Y114724D01*
X302845Y114776D01*
X302707Y114838D01*
X302587Y114873D01*
X302469Y114916D01*
X302322Y114948D01*
X302177Y114990D01*
X302052Y115006D01*
X301930Y115033D01*
X301780Y115043D01*
X301630Y115063D01*
X301505Y115061D01*
X301380Y115070D01*
X301229Y115058D01*
X301078Y115056D01*
X300955Y115037D01*
X300829Y115027D01*
X300682Y114994D01*
X300534Y114970D01*
X300414Y114933D01*
X300291Y114905D01*
X300070Y114826D01*
X300007Y114806D01*
X299982Y114794D01*
X299941Y114780D01*
X298236Y114073D01*
X295910Y114073D01*
X295865Y114070D01*
X295820Y114072D01*
X295590Y114050D01*
X295360Y114033D01*
X295316Y114024D01*
X295271Y114019D01*
X295047Y113964D01*
X294821Y113914D01*
X294779Y113898D01*
X294735Y113888D01*
X294521Y113801D01*
X294305Y113719D01*
X294266Y113697D01*
X294224Y113680D01*
X294025Y113563D01*
X293823Y113451D01*
X293787Y113423D01*
X293748Y113400D01*
X293568Y113256D01*
X293385Y113116D01*
X293353Y113084D01*
X293318Y113055D01*
X293160Y112885D01*
X292999Y112721D01*
X292973Y112685D01*
X292942Y112652D01*
X292810Y112461D01*
X292675Y112275D01*
X292654Y112235D01*
X292628Y112198D01*
X292525Y111990D01*
X292418Y111787D01*
X292403Y111744D01*
X292383Y111704D01*
X292312Y111484D01*
X292235Y111266D01*
X292226Y111222D01*
X292212Y111179D01*
X292173Y110951D01*
X292129Y110725D01*
X292127Y110680D01*
X292119Y110635D01*
X292101Y110264D01*
X292101Y90362D01*
X292116Y90157D01*
X292123Y89952D01*
X292136Y89882D01*
X292141Y89812D01*
X292185Y89611D01*
X292222Y89409D01*
X292244Y89342D01*
X292260Y89273D01*
X292333Y89081D01*
X292398Y88886D01*
X292430Y88823D01*
X292455Y88757D01*
X292555Y88578D01*
X292648Y88394D01*
X292689Y88337D01*
X292723Y88275D01*
X292848Y88112D01*
X292967Y87944D01*
X293027Y87877D01*
X293058Y87837D01*
X293109Y87787D01*
X293216Y87668D01*
X294059Y86826D01*
X294867Y84876D01*
X294867Y82764D01*
X294059Y80814D01*
X292566Y79321D01*
X290616Y78513D01*
X288504Y78513D01*
X286554Y79321D01*
X285061Y80814D01*
X284253Y82764D01*
X284253Y84876D01*
X285061Y86826D01*
X285904Y87668D01*
X286037Y87823D01*
X286178Y87974D01*
X286218Y88033D01*
X286264Y88086D01*
X286375Y88259D01*
X286492Y88428D01*
X286523Y88491D01*
X286561Y88551D01*
X286645Y88738D01*
X286737Y88922D01*
X286759Y88990D01*
X286788Y89054D01*
X286844Y89252D01*
X286908Y89447D01*
X286920Y89516D01*
X286939Y89584D01*
X286966Y89788D01*
X287001Y89991D01*
X287006Y90081D01*
X287012Y90131D01*
X287011Y90202D01*
X287019Y90362D01*
X287019Y107758D01*
X287008Y107918D01*
X287006Y108079D01*
X286988Y108193D01*
X286979Y108308D01*
X286945Y108465D01*
X286920Y108624D01*
X286885Y108734D01*
X286860Y108847D01*
X286803Y108997D01*
X286756Y109151D01*
X286706Y109255D01*
X286665Y109363D01*
X286587Y109503D01*
X286517Y109648D01*
X286453Y109744D01*
X286397Y109845D01*
X286299Y109973D01*
X286210Y110106D01*
X286132Y110192D01*
X286062Y110283D01*
X285947Y110396D01*
X285839Y110515D01*
X285750Y110588D01*
X285667Y110669D01*
X285538Y110763D01*
X285413Y110865D01*
X285314Y110925D01*
X285221Y110993D01*
X285079Y111068D01*
X284941Y111151D01*
X284835Y111196D01*
X284733Y111250D01*
X284581Y111303D01*
X284433Y111366D01*
X284321Y111395D01*
X284212Y111433D01*
X284055Y111464D01*
X283899Y111504D01*
X283784Y111517D01*
X283671Y111539D01*
X283511Y111547D01*
X283351Y111565D01*
X283235Y111561D01*
X283120Y111566D01*
X282960Y111551D01*
X282799Y111545D01*
X282686Y111524D01*
X282571Y111513D01*
X282415Y111475D01*
X282257Y111446D01*
X282147Y111409D01*
X282035Y111382D01*
X281886Y111321D01*
X281734Y111270D01*
X281631Y111217D01*
X281524Y111174D01*
X281385Y111092D01*
X281242Y111020D01*
X281148Y110953D01*
X281048Y110895D01*
X280923Y110794D01*
X280792Y110701D01*
X280673Y110594D01*
X280618Y110549D01*
X280583Y110512D01*
X280516Y110452D01*
X279866Y109801D01*
X277916Y108993D01*
X275804Y108993D01*
X273854Y109801D01*
X273012Y110644D01*
X272857Y110777D01*
X272706Y110918D01*
X272647Y110958D01*
X272594Y111004D01*
X272421Y111115D01*
X272252Y111232D01*
X272189Y111263D01*
X272129Y111301D01*
X271942Y111385D01*
X271758Y111477D01*
X271690Y111499D01*
X271626Y111528D01*
X271428Y111584D01*
X271233Y111648D01*
X271164Y111660D01*
X271096Y111679D01*
X270892Y111706D01*
X270689Y111741D01*
X270599Y111746D01*
X270549Y111752D01*
X270478Y111751D01*
X270318Y111759D01*
X249634Y111759D01*
X248700Y112146D01*
X225689Y135157D01*
X225534Y135291D01*
X225383Y135432D01*
X225325Y135472D01*
X225272Y135518D01*
X225099Y135628D01*
X224929Y135746D01*
X224866Y135777D01*
X224807Y135815D01*
X224619Y135899D01*
X224435Y135990D01*
X224368Y136012D01*
X224304Y136041D01*
X224106Y136098D01*
X223910Y136161D01*
X223841Y136173D01*
X223773Y136193D01*
X223569Y136220D01*
X223367Y136255D01*
X223276Y136259D01*
X223226Y136266D01*
X223156Y136265D01*
X222995Y136273D01*
X221804Y136273D01*
X219854Y137081D01*
X218361Y138574D01*
X217553Y140524D01*
X217553Y143284D01*
X217550Y143329D01*
X217552Y143374D01*
X217530Y143604D01*
X217513Y143834D01*
X217503Y143878D01*
X217499Y143923D01*
X217444Y144147D01*
X217394Y144373D01*
X217378Y144415D01*
X217367Y144459D01*
X217280Y144673D01*
X217198Y144889D01*
X217177Y144928D01*
X217159Y144970D01*
X217042Y145169D01*
X216930Y145371D01*
X216903Y145407D01*
X216880Y145446D01*
X216736Y145626D01*
X216596Y145809D01*
X216563Y145841D01*
X216535Y145876D01*
X216365Y146034D01*
X216201Y146195D01*
X216165Y146221D01*
X216131Y146252D01*
X215940Y146384D01*
X215755Y146519D01*
X215715Y146540D01*
X215678Y146566D01*
X215470Y146669D01*
X215266Y146776D01*
X215224Y146791D01*
X215183Y146811D01*
X214963Y146882D01*
X214746Y146959D01*
X214702Y146968D01*
X214659Y146982D01*
X214430Y147021D01*
X214205Y147065D01*
X214160Y147067D01*
X214115Y147075D01*
X213744Y147093D01*
X212304Y147093D01*
X210354Y147901D01*
X208861Y149394D01*
X208053Y151344D01*
X208053Y153456D01*
X208861Y155406D01*
X210354Y156899D01*
X212304Y157707D01*
X214416Y157707D01*
X216366Y156899D01*
X217208Y156056D01*
X217363Y155923D01*
X217514Y155782D01*
X217573Y155742D01*
X217626Y155696D01*
X217799Y155585D01*
X217968Y155468D01*
X218031Y155437D01*
X218091Y155399D01*
X218278Y155315D01*
X218462Y155223D01*
X218530Y155201D01*
X218594Y155172D01*
X218792Y155116D01*
X218987Y155052D01*
X219056Y155040D01*
X219124Y155021D01*
X219328Y154994D01*
X219531Y154959D01*
X219621Y154954D01*
X219671Y154948D01*
X219742Y154949D01*
X219902Y154941D01*
X221485Y154941D01*
X222419Y154554D01*
X248857Y128116D01*
X249012Y127983D01*
X249163Y127842D01*
X249221Y127802D01*
X249274Y127756D01*
X249447Y127645D01*
X249616Y127528D01*
X249680Y127497D01*
X249739Y127459D01*
X249926Y127375D01*
X250111Y127283D01*
X250178Y127261D01*
X250242Y127232D01*
X250440Y127176D01*
X250635Y127112D01*
X250705Y127100D01*
X250773Y127081D01*
X250976Y127054D01*
X251179Y127019D01*
X251269Y127014D01*
X251319Y127008D01*
X251390Y127009D01*
X251550Y127001D01*
X270318Y127001D01*
X270523Y127016D01*
X270728Y127023D01*
X270798Y127036D01*
X270868Y127041D01*
X271069Y127085D01*
X271271Y127122D01*
X271338Y127144D01*
X271407Y127160D01*
X271599Y127233D01*
X271794Y127298D01*
X271857Y127330D01*
X271923Y127355D01*
X272102Y127455D01*
X272286Y127548D01*
X272343Y127589D01*
X272405Y127623D01*
X272568Y127748D01*
X272736Y127867D01*
X272803Y127927D01*
X272843Y127958D01*
X272893Y128009D01*
X273012Y128116D01*
X273854Y128959D01*
X275804Y129767D01*
X277916Y129767D01*
X279866Y128959D01*
X280516Y128308D01*
X280638Y128203D01*
X280753Y128091D01*
X280846Y128023D01*
X280934Y127948D01*
X281069Y127861D01*
X281199Y127767D01*
X281301Y127713D01*
X281399Y127651D01*
X281545Y127585D01*
X281687Y127510D01*
X281796Y127472D01*
X281902Y127424D01*
X282056Y127380D01*
X282208Y127327D01*
X282321Y127305D01*
X282432Y127273D01*
X282592Y127252D01*
X282749Y127221D01*
X282864Y127215D01*
X282979Y127200D01*
X283140Y127202D01*
X283300Y127194D01*
X283415Y127205D01*
X283531Y127206D01*
X283689Y127231D01*
X283849Y127247D01*
X283961Y127274D01*
X284076Y127292D01*
X284229Y127340D01*
X284385Y127378D01*
X284492Y127422D01*
X284602Y127456D01*
X284747Y127526D01*
X284896Y127586D01*
X284996Y127645D01*
X285100Y127695D01*
X285233Y127784D01*
X285372Y127865D01*
X285462Y127938D01*
X285558Y128002D01*
X285677Y128110D01*
X285802Y128211D01*
X285881Y128295D01*
X285967Y128373D01*
X286069Y128497D01*
X286178Y128614D01*
X286244Y128709D01*
X286317Y128799D01*
X286400Y128936D01*
X286492Y129068D01*
X286543Y129172D01*
X286603Y129270D01*
X286665Y129418D01*
X286737Y129562D01*
X286773Y129672D01*
X286818Y129779D01*
X286858Y129934D01*
X286908Y130087D01*
X286927Y130201D01*
X286956Y130313D01*
X286974Y130472D01*
X287001Y130631D01*
X287009Y130791D01*
X287017Y130861D01*
X287015Y130912D01*
X287019Y131002D01*
X287019Y135125D01*
X287406Y136059D01*
X290758Y139411D01*
X290891Y139566D01*
X291032Y139717D01*
X291072Y139775D01*
X291118Y139828D01*
X291229Y140001D01*
X291346Y140170D01*
X291377Y140234D01*
X291415Y140293D01*
X291499Y140480D01*
X291591Y140665D01*
X291613Y140732D01*
X291642Y140796D01*
X291698Y140994D01*
X291762Y141189D01*
X291774Y141259D01*
X291793Y141327D01*
X291820Y141530D01*
X291855Y141733D01*
X291860Y141823D01*
X291866Y141873D01*
X291865Y141944D01*
X291873Y142104D01*
X291873Y143296D01*
X292681Y145246D01*
X294174Y146739D01*
X296124Y147547D01*
X298236Y147547D01*
X300186Y146739D01*
X301679Y145246D01*
X302487Y143296D01*
X302487Y141184D01*
X301679Y139234D01*
X301028Y138584D01*
X300999Y138550D01*
X300965Y138519D01*
X300818Y138340D01*
X300668Y138166D01*
X300643Y138128D01*
X300615Y138093D01*
X300495Y137896D01*
X300371Y137701D01*
X300352Y137660D01*
X300329Y137621D01*
X300239Y137408D01*
X300144Y137198D01*
X300132Y137155D01*
X300114Y137113D01*
X300056Y136890D01*
X299993Y136668D01*
X299987Y136623D01*
X299976Y136579D01*
X299950Y136350D01*
X299920Y136121D01*
X299920Y136076D01*
X299915Y136031D01*
X299924Y135800D01*
X299926Y135569D01*
X299933Y135525D01*
X299935Y135479D01*
X299976Y135252D01*
X300012Y135024D01*
X300026Y134981D01*
X300034Y134937D01*
X300108Y134718D01*
X300176Y134498D01*
X300196Y134457D01*
X300210Y134414D01*
X300315Y134209D01*
X300415Y134000D01*
X300440Y133962D01*
X300460Y133922D01*
X300593Y133734D01*
X300722Y133542D01*
X300753Y133509D01*
X300779Y133472D01*
X301028Y133196D01*
X301679Y132546D01*
X302487Y130596D01*
X302487Y129404D01*
X302502Y129199D01*
X302509Y128994D01*
X302522Y128925D01*
X302527Y128854D01*
X302571Y128653D01*
X302608Y128451D01*
X302630Y128384D01*
X302646Y128315D01*
X302719Y128123D01*
X302784Y127928D01*
X302816Y127865D01*
X302841Y127800D01*
X302941Y127620D01*
X303034Y127437D01*
X303075Y127379D01*
X303109Y127317D01*
X303234Y127154D01*
X303353Y126986D01*
X303413Y126919D01*
X303444Y126879D01*
X303495Y126830D01*
X303602Y126711D01*
X309817Y120496D01*
X309972Y120363D01*
X310123Y120222D01*
X310181Y120182D01*
X310234Y120136D01*
X310407Y120025D01*
X310576Y119908D01*
X310640Y119877D01*
X310699Y119839D01*
X310886Y119755D01*
X311071Y119663D01*
X311138Y119641D01*
X311202Y119612D01*
X311400Y119556D01*
X311595Y119492D01*
X311665Y119480D01*
X311733Y119461D01*
X311936Y119434D01*
X312139Y119399D01*
X312229Y119394D01*
X312279Y119388D01*
X312350Y119389D01*
X312510Y119381D01*
X354104Y119381D01*
X354149Y119384D01*
X354194Y119382D01*
X354424Y119404D01*
X354654Y119421D01*
X354698Y119430D01*
X354743Y119435D01*
X354967Y119490D01*
X355193Y119540D01*
X355235Y119556D01*
X355279Y119566D01*
X355493Y119653D01*
X355709Y119735D01*
X355748Y119757D01*
X355790Y119774D01*
X355989Y119891D01*
X356191Y120003D01*
X356227Y120031D01*
X356266Y120054D01*
X356446Y120198D01*
X356629Y120338D01*
X356661Y120370D01*
X356696Y120399D01*
X356854Y120569D01*
X357015Y120733D01*
X357041Y120769D01*
X357072Y120802D01*
X357204Y120993D01*
X357339Y121179D01*
X357360Y121219D01*
X357386Y121256D01*
X357489Y121464D01*
X357596Y121667D01*
X357611Y121710D01*
X357631Y121750D01*
X357702Y121970D01*
X357779Y122188D01*
X357788Y122232D01*
X357802Y122275D01*
X357841Y122503D01*
X357885Y122729D01*
X357887Y122774D01*
X357895Y122819D01*
X357901Y122947D01*
X358721Y124926D01*
X360214Y126419D01*
X362164Y127227D01*
X364276Y127227D01*
X366226Y126419D01*
X367719Y124926D01*
X368527Y122976D01*
X368527Y120864D01*
X367464Y118298D01*
X367399Y118103D01*
X367327Y117910D01*
X367312Y117841D01*
X367290Y117774D01*
X367254Y117572D01*
X367211Y117371D01*
X367206Y117300D01*
X367194Y117231D01*
X367187Y117025D01*
X367174Y116820D01*
X367179Y116750D01*
X367177Y116679D01*
X367201Y116475D01*
X367216Y116270D01*
X367232Y116202D01*
X367240Y116131D01*
X367293Y115933D01*
X367338Y115732D01*
X367369Y115647D01*
X367382Y115598D01*
X367409Y115534D01*
X367464Y115382D01*
X368527Y112816D01*
X368527Y110704D01*
X367719Y108754D01*
X366226Y107261D01*
X364276Y106453D01*
X362164Y106453D01*
X360214Y107261D01*
X359372Y108104D01*
X359217Y108237D01*
X359066Y108378D01*
X359007Y108418D01*
X358954Y108464D01*
X358781Y108575D01*
X358612Y108692D01*
X358549Y108723D01*
X358489Y108761D01*
X358302Y108845D01*
X358118Y108937D01*
X358050Y108959D01*
X357986Y108988D01*
X357789Y109044D01*
X357593Y109108D01*
X357524Y109120D01*
X357456Y109139D01*
X357252Y109166D01*
X357049Y109201D01*
X356959Y109206D01*
X356909Y109212D01*
X356838Y109211D01*
X356678Y109219D01*
X356269Y109219D01*
X356028Y109202D01*
X355788Y109189D01*
X355754Y109182D01*
X355719Y109179D01*
X355483Y109127D01*
X355248Y109080D01*
X355214Y109068D01*
X355180Y109060D01*
X354955Y108975D01*
X354728Y108894D01*
X354697Y108877D01*
X354664Y108865D01*
X354454Y108748D01*
X354241Y108635D01*
X354213Y108614D01*
X354182Y108597D01*
X353990Y108450D01*
X353797Y108308D01*
X353772Y108283D01*
X353744Y108262D01*
X353575Y108090D01*
X353404Y107921D01*
X353383Y107892D01*
X353358Y107867D01*
X353217Y107673D01*
X353071Y107480D01*
X353054Y107449D01*
X353034Y107421D01*
X352922Y107208D01*
X352806Y106997D01*
X352794Y106964D01*
X352777Y106933D01*
X352697Y106705D01*
X352613Y106480D01*
X352606Y106446D01*
X352594Y106412D01*
X352547Y106176D01*
X352497Y105941D01*
X352494Y105905D01*
X352488Y105871D01*
X352476Y105630D01*
X352460Y105390D01*
X352462Y105355D01*
X352461Y105320D01*
X352484Y105080D01*
X352502Y104840D01*
X352510Y104806D01*
X352514Y104771D01*
X352571Y104537D01*
X352624Y104302D01*
X352639Y104261D01*
X352645Y104235D01*
X352670Y104174D01*
X352750Y103952D01*
X353287Y102656D01*
X353287Y100544D01*
X352479Y98594D01*
X350986Y97101D01*
X349036Y96293D01*
X348563Y96293D01*
X348358Y96278D01*
X348152Y96271D01*
X348083Y96258D01*
X348012Y96253D01*
X347811Y96209D01*
X347609Y96172D01*
X347543Y96150D01*
X347474Y96134D01*
X347282Y96061D01*
X347087Y95996D01*
X347024Y95964D01*
X346958Y95939D01*
X346778Y95839D01*
X346595Y95746D01*
X346537Y95705D01*
X346476Y95671D01*
X346312Y95546D01*
X346144Y95427D01*
X346078Y95367D01*
X346037Y95336D01*
X345988Y95285D01*
X345869Y95178D01*
X316687Y65995D01*
X315566Y65531D01*
X314738Y65531D01*
X314577Y65520D01*
X314417Y65518D01*
X314303Y65500D01*
X314187Y65491D01*
X314031Y65457D01*
X313872Y65432D01*
X313762Y65397D01*
X313649Y65372D01*
X313498Y65315D01*
X313345Y65268D01*
X313241Y65218D01*
X313133Y65177D01*
X312992Y65099D01*
X312848Y65029D01*
X312752Y64965D01*
X312651Y64909D01*
X312523Y64811D01*
X312390Y64722D01*
X312304Y64644D01*
X312212Y64574D01*
X312100Y64459D01*
X311981Y64351D01*
X311907Y64262D01*
X311827Y64179D01*
X311733Y64049D01*
X311630Y63925D01*
X311570Y63826D01*
X311502Y63733D01*
X311428Y63591D01*
X311345Y63453D01*
X311300Y63347D01*
X311246Y63245D01*
X311193Y63093D01*
X311130Y62945D01*
X311101Y62833D01*
X311063Y62724D01*
X311032Y62567D01*
X310991Y62411D01*
X310979Y62296D01*
X310956Y62183D01*
X310949Y62023D01*
X310931Y61863D01*
X310935Y61747D01*
X310929Y61632D01*
X310945Y61472D01*
X310951Y61312D01*
X310971Y61198D01*
X310982Y61083D01*
X311021Y60927D01*
X311050Y60769D01*
X311087Y60659D01*
X311114Y60547D01*
X311175Y60398D01*
X311226Y60246D01*
X311278Y60143D01*
X311322Y60036D01*
X311403Y59897D01*
X311476Y59754D01*
X311543Y59660D01*
X311601Y59560D01*
X311702Y59435D01*
X311794Y59304D01*
X311902Y59185D01*
X311946Y59130D01*
X311984Y59095D01*
X312044Y59028D01*
X313946Y57127D01*
X313951Y57063D01*
X313948Y56982D01*
X313970Y56788D01*
X313985Y56593D01*
X314002Y56514D01*
X314011Y56434D01*
X314061Y56246D01*
X314104Y56054D01*
X314132Y55979D01*
X314153Y55901D01*
X314230Y55721D01*
X314299Y55538D01*
X314338Y55468D01*
X314370Y55394D01*
X314472Y55227D01*
X314567Y55056D01*
X314616Y54992D01*
X314658Y54924D01*
X314783Y54774D01*
X314902Y54618D01*
X314960Y54561D01*
X315011Y54500D01*
X315157Y54369D01*
X315297Y54232D01*
X315362Y54185D01*
X315422Y54131D01*
X315585Y54023D01*
X315743Y53908D01*
X315814Y53870D01*
X315881Y53826D01*
X316058Y53742D01*
X316231Y53651D01*
X316307Y53625D01*
X316380Y53590D01*
X316567Y53533D01*
X316752Y53468D01*
X316831Y53453D01*
X316908Y53429D01*
X317101Y53399D01*
X317293Y53362D01*
X317373Y53358D01*
X317453Y53346D01*
X317649Y53344D01*
X317844Y53335D01*
X317924Y53343D01*
X318005Y53342D01*
X318198Y53369D01*
X318393Y53388D01*
X318471Y53407D01*
X318551Y53418D01*
X318739Y53473D01*
X318929Y53520D01*
X319003Y53550D01*
X319081Y53572D01*
X319259Y53653D01*
X319440Y53727D01*
X319510Y53768D01*
X319582Y53801D01*
X319747Y53907D01*
X319916Y54007D01*
X319979Y54057D01*
X320046Y54100D01*
X320193Y54229D01*
X320346Y54352D01*
X320401Y54411D01*
X320461Y54463D01*
X320588Y54612D01*
X320722Y54755D01*
X320768Y54822D01*
X320820Y54883D01*
X320924Y55048D01*
X321036Y55209D01*
X321072Y55281D01*
X321114Y55349D01*
X321273Y55685D01*
X322447Y58520D01*
X325020Y61093D01*
X328381Y62485D01*
X332019Y62485D01*
X335380Y61093D01*
X337953Y58520D01*
X339345Y55159D01*
X339345Y51521D01*
X337953Y48160D01*
X335380Y45588D01*
X334666Y45292D01*
X334451Y45184D01*
X334234Y45080D01*
X334205Y45060D01*
X334173Y45044D01*
X333977Y44907D01*
X333776Y44772D01*
X333750Y44748D01*
X333721Y44728D01*
X333546Y44564D01*
X333367Y44402D01*
X333345Y44374D01*
X333319Y44350D01*
X333170Y44162D01*
X333017Y43976D01*
X332998Y43946D01*
X332976Y43918D01*
X332856Y43710D01*
X332731Y43504D01*
X332717Y43471D01*
X332700Y43441D01*
X332610Y43217D01*
X332516Y42996D01*
X332508Y42962D01*
X332494Y42929D01*
X332438Y42694D01*
X332378Y42462D01*
X332374Y42427D01*
X332366Y42392D01*
X332344Y42153D01*
X332317Y41913D01*
X332319Y41878D01*
X332315Y41843D01*
X332328Y41603D01*
X332337Y41362D01*
X332343Y41327D01*
X332345Y41292D01*
X332393Y41056D01*
X332436Y40819D01*
X332447Y40786D01*
X332454Y40751D01*
X332536Y40524D01*
X332612Y40297D01*
X332628Y40265D01*
X332640Y40232D01*
X332754Y40018D01*
X332862Y39805D01*
X332883Y39776D01*
X332899Y39745D01*
X333042Y39550D01*
X333181Y39354D01*
X333210Y39322D01*
X333226Y39300D01*
X333273Y39253D01*
X333430Y39079D01*
X340361Y32149D01*
X340361Y31749D01*
X330200Y31749D01*
X330155Y31746D01*
X330110Y31748D01*
X329881Y31726D01*
X329650Y31709D01*
X329606Y31700D01*
X329561Y31695D01*
X329338Y31640D01*
X329111Y31590D01*
X329069Y31574D01*
X329025Y31564D01*
X328811Y31477D01*
X328596Y31395D01*
X328556Y31373D01*
X328514Y31356D01*
X328315Y31239D01*
X328113Y31127D01*
X328077Y31099D01*
X328039Y31077D01*
X327858Y30932D01*
X327675Y30792D01*
X327674Y30792D01*
X327643Y30760D01*
X327608Y30731D01*
X327450Y30561D01*
X327289Y30397D01*
X327263Y30361D01*
X327232Y30327D01*
X327100Y30136D01*
X326965Y29951D01*
X326944Y29911D01*
X326918Y29874D01*
X326815Y29666D01*
X326708Y29462D01*
X326693Y29420D01*
X326673Y29379D01*
X326601Y29159D01*
X326525Y28942D01*
X326516Y28898D01*
X326502Y28855D01*
X326463Y28626D01*
X326419Y28401D01*
X326416Y28356D01*
X326409Y28311D01*
X326391Y27940D01*
X326391Y17779D01*
X325991Y17779D01*
G37*
%LPD*%
%LPC*%
G36*
X47204Y32793D02*
X47204Y32793D01*
X45254Y33601D01*
X43761Y35094D01*
X42953Y37044D01*
X42953Y37158D01*
X42938Y37363D01*
X42931Y37569D01*
X42918Y37638D01*
X42913Y37708D01*
X42869Y37910D01*
X42832Y38111D01*
X42810Y38178D01*
X42794Y38247D01*
X42721Y38439D01*
X42656Y38634D01*
X42624Y38697D01*
X42599Y38763D01*
X42499Y38942D01*
X42406Y39126D01*
X42365Y39183D01*
X42331Y39245D01*
X42206Y39409D01*
X42087Y39576D01*
X42027Y39643D01*
X41996Y39683D01*
X41945Y39733D01*
X41838Y39852D01*
X-26735Y108424D01*
X-26735Y108425D01*
X-28200Y109889D01*
X-28703Y111103D01*
X-28703Y206397D01*
X-28200Y207611D01*
X-8416Y227395D01*
X-8415Y227395D01*
X-6951Y228860D01*
X-5737Y229363D01*
X-2245Y229363D01*
X-2084Y229374D01*
X-1924Y229376D01*
X-1810Y229394D01*
X-1694Y229403D01*
X-1538Y229437D01*
X-1379Y229462D01*
X-1269Y229497D01*
X-1156Y229522D01*
X-1005Y229579D01*
X-852Y229626D01*
X-748Y229676D01*
X-640Y229717D01*
X-499Y229795D01*
X-355Y229865D01*
X-259Y229929D01*
X-158Y229985D01*
X-30Y230083D01*
X103Y230172D01*
X189Y230250D01*
X281Y230320D01*
X393Y230435D01*
X512Y230543D01*
X586Y230632D01*
X666Y230715D01*
X761Y230845D01*
X863Y230969D01*
X923Y231068D01*
X991Y231161D01*
X1065Y231303D01*
X1148Y231441D01*
X1193Y231547D01*
X1247Y231649D01*
X1301Y231801D01*
X1363Y231949D01*
X1392Y232061D01*
X1430Y232170D01*
X1461Y232327D01*
X1502Y232483D01*
X1514Y232598D01*
X1537Y232711D01*
X1545Y232871D01*
X1562Y233031D01*
X1558Y233147D01*
X1564Y233262D01*
X1548Y233422D01*
X1543Y233582D01*
X1522Y233696D01*
X1511Y233811D01*
X1472Y233967D01*
X1444Y234125D01*
X1407Y234235D01*
X1379Y234347D01*
X1318Y234496D01*
X1267Y234648D01*
X1215Y234751D01*
X1171Y234858D01*
X1090Y234997D01*
X1017Y235140D01*
X950Y235234D01*
X892Y235334D01*
X791Y235459D01*
X699Y235590D01*
X591Y235709D01*
X547Y235764D01*
X509Y235799D01*
X449Y235866D01*
X-2450Y238764D01*
X-4623Y244011D01*
X-4623Y249689D01*
X-2450Y254936D01*
X1566Y258952D01*
X6813Y261125D01*
X12491Y261125D01*
X17738Y258952D01*
X21754Y254936D01*
X22715Y252615D01*
X22787Y252472D01*
X22850Y252324D01*
X22910Y252226D01*
X22962Y252122D01*
X23054Y251990D01*
X23138Y251854D01*
X23212Y251765D01*
X23278Y251670D01*
X23388Y251553D01*
X23491Y251430D01*
X23577Y251352D01*
X23656Y251268D01*
X23782Y251169D01*
X23902Y251061D01*
X23998Y250997D01*
X24089Y250925D01*
X24227Y250845D01*
X24361Y250756D01*
X24466Y250707D01*
X24566Y250649D01*
X24715Y250589D01*
X24860Y250520D01*
X24970Y250486D01*
X25078Y250443D01*
X25234Y250406D01*
X25388Y250359D01*
X25502Y250342D01*
X25614Y250315D01*
X25774Y250300D01*
X25933Y250276D01*
X26048Y250275D01*
X26164Y250264D01*
X26324Y250273D01*
X26485Y250272D01*
X26599Y250288D01*
X26714Y250294D01*
X26872Y250326D01*
X27031Y250348D01*
X27142Y250380D01*
X27255Y250403D01*
X27407Y250457D01*
X27561Y250502D01*
X27666Y250550D01*
X27775Y250589D01*
X27916Y250665D01*
X28063Y250731D01*
X28160Y250794D01*
X28262Y250848D01*
X28391Y250943D01*
X28526Y251030D01*
X28613Y251107D01*
X28706Y251175D01*
X28820Y251288D01*
X28942Y251393D01*
X29017Y251481D01*
X29099Y251562D01*
X29196Y251690D01*
X29300Y251813D01*
X29362Y251911D01*
X29432Y252003D01*
X29509Y252143D01*
X29595Y252279D01*
X29663Y252425D01*
X29697Y252486D01*
X29715Y252534D01*
X29753Y252615D01*
X30775Y255082D01*
X30840Y255277D01*
X30912Y255470D01*
X30927Y255539D01*
X30949Y255606D01*
X30985Y255808D01*
X31028Y256009D01*
X31033Y256080D01*
X31045Y256149D01*
X31051Y256355D01*
X31065Y256560D01*
X31060Y256630D01*
X31062Y256701D01*
X31038Y256905D01*
X31022Y257110D01*
X31007Y257178D01*
X30999Y257249D01*
X30946Y257447D01*
X30901Y257648D01*
X30870Y257733D01*
X30857Y257782D01*
X30829Y257847D01*
X30775Y257998D01*
X29753Y260465D01*
X29753Y262775D01*
X30637Y264909D01*
X32271Y266543D01*
X34405Y267427D01*
X36715Y267427D01*
X38849Y266543D01*
X40483Y264909D01*
X41367Y262775D01*
X41367Y260465D01*
X40345Y257998D01*
X40280Y257802D01*
X40208Y257610D01*
X40193Y257541D01*
X40171Y257474D01*
X40135Y257272D01*
X40092Y257071D01*
X40087Y257000D01*
X40075Y256931D01*
X40069Y256725D01*
X40055Y256520D01*
X40060Y256450D01*
X40058Y256380D01*
X40082Y256175D01*
X40098Y255970D01*
X40113Y255902D01*
X40121Y255831D01*
X40174Y255633D01*
X40219Y255432D01*
X40250Y255347D01*
X40263Y255298D01*
X40291Y255234D01*
X40345Y255082D01*
X41367Y252615D01*
X41367Y250305D01*
X40345Y247838D01*
X40280Y247642D01*
X40208Y247450D01*
X40193Y247381D01*
X40171Y247314D01*
X40135Y247112D01*
X40092Y246911D01*
X40087Y246840D01*
X40075Y246771D01*
X40069Y246565D01*
X40055Y246360D01*
X40060Y246290D01*
X40058Y246220D01*
X40082Y246015D01*
X40098Y245810D01*
X40113Y245742D01*
X40121Y245671D01*
X40174Y245473D01*
X40219Y245272D01*
X40250Y245187D01*
X40263Y245138D01*
X40291Y245074D01*
X40345Y244922D01*
X41367Y242455D01*
X41367Y240145D01*
X40483Y238011D01*
X38849Y236377D01*
X37840Y235959D01*
X37831Y235955D01*
X37822Y235952D01*
X37585Y235831D01*
X37347Y235712D01*
X37339Y235706D01*
X37330Y235702D01*
X37112Y235547D01*
X36895Y235396D01*
X36888Y235389D01*
X36880Y235383D01*
X36604Y235134D01*
X24731Y223260D01*
X23517Y222757D01*
X-2134Y222757D01*
X-2339Y222742D01*
X-2545Y222735D01*
X-2614Y222722D01*
X-2684Y222717D01*
X-2885Y222673D01*
X-3087Y222636D01*
X-3154Y222614D01*
X-3223Y222598D01*
X-3415Y222525D01*
X-3610Y222460D01*
X-3673Y222428D01*
X-3739Y222403D01*
X-3918Y222303D01*
X-4102Y222210D01*
X-4159Y222169D01*
X-4221Y222135D01*
X-4384Y222010D01*
X-4552Y221891D01*
X-4619Y221831D01*
X-4659Y221800D01*
X-4709Y221749D01*
X-4828Y221642D01*
X-20982Y205488D01*
X-21115Y205333D01*
X-21256Y205182D01*
X-21296Y205124D01*
X-21342Y205070D01*
X-21453Y204897D01*
X-21570Y204728D01*
X-21601Y204665D01*
X-21639Y204605D01*
X-21723Y204418D01*
X-21815Y204234D01*
X-21837Y204167D01*
X-21866Y204102D01*
X-21922Y203905D01*
X-21986Y203709D01*
X-21998Y203640D01*
X-22017Y203572D01*
X-22044Y203368D01*
X-22079Y203165D01*
X-22084Y203075D01*
X-22090Y203025D01*
X-22089Y202955D01*
X-22097Y202794D01*
X-22097Y114706D01*
X-22082Y114501D01*
X-22075Y114295D01*
X-22062Y114226D01*
X-22057Y114156D01*
X-22013Y113954D01*
X-21976Y113753D01*
X-21954Y113686D01*
X-21938Y113617D01*
X-21865Y113425D01*
X-21800Y113230D01*
X-21768Y113167D01*
X-21743Y113101D01*
X-21643Y112922D01*
X-21550Y112738D01*
X-21509Y112681D01*
X-21475Y112619D01*
X-21350Y112455D01*
X-21231Y112288D01*
X-21171Y112221D01*
X-21140Y112181D01*
X-21089Y112131D01*
X-20982Y112012D01*
X46508Y44522D01*
X46664Y44388D01*
X46814Y44248D01*
X46872Y44208D01*
X46926Y44162D01*
X47099Y44051D01*
X47268Y43934D01*
X47331Y43903D01*
X47391Y43865D01*
X47578Y43781D01*
X47762Y43689D01*
X47829Y43667D01*
X47894Y43638D01*
X48091Y43582D01*
X48287Y43518D01*
X48356Y43506D01*
X48424Y43487D01*
X48628Y43460D01*
X48831Y43425D01*
X48921Y43420D01*
X48971Y43414D01*
X49041Y43415D01*
X49202Y43407D01*
X49316Y43407D01*
X51266Y42599D01*
X52759Y41106D01*
X53567Y39156D01*
X53567Y37044D01*
X52759Y35094D01*
X51266Y33601D01*
X49316Y32793D01*
X47204Y32793D01*
G37*
%LPD*%
%LPC*%
G36*
X-66244Y90615D02*
X-66244Y90615D01*
X-70898Y92543D01*
X-74459Y96104D01*
X-76387Y100758D01*
X-76387Y105794D01*
X-74459Y110448D01*
X-70898Y114009D01*
X-66244Y115937D01*
X-61208Y115937D01*
X-56554Y114009D01*
X-52993Y110448D01*
X-51065Y105794D01*
X-51065Y100758D01*
X-52993Y96104D01*
X-56554Y92543D01*
X-61208Y90615D01*
X-66244Y90615D01*
G37*
%LPD*%
%LPC*%
G36*
X-66244Y46115D02*
X-66244Y46115D01*
X-70898Y48043D01*
X-74459Y51604D01*
X-76387Y56258D01*
X-76387Y61294D01*
X-74459Y65948D01*
X-70898Y69509D01*
X-66244Y71437D01*
X-61208Y71437D01*
X-56554Y69509D01*
X-52993Y65948D01*
X-51065Y61294D01*
X-51065Y56258D01*
X-52993Y51604D01*
X-56554Y48043D01*
X-61208Y46115D01*
X-66244Y46115D01*
G37*
%LPD*%
%LPC*%
G36*
X153835Y182403D02*
X153835Y182403D01*
X151792Y183249D01*
X150229Y184812D01*
X149383Y186855D01*
X149383Y189065D01*
X150229Y191108D01*
X151792Y192671D01*
X153835Y193517D01*
X154248Y193517D01*
X154453Y193532D01*
X154659Y193539D01*
X154728Y193552D01*
X154798Y193557D01*
X154999Y193601D01*
X155201Y193638D01*
X155268Y193660D01*
X155337Y193676D01*
X155529Y193749D01*
X155724Y193814D01*
X155787Y193846D01*
X155853Y193871D01*
X156032Y193971D01*
X156216Y194064D01*
X156273Y194105D01*
X156335Y194139D01*
X156498Y194264D01*
X156666Y194383D01*
X156733Y194443D01*
X156773Y194474D01*
X156823Y194525D01*
X156942Y194632D01*
X158142Y195832D01*
X158275Y195987D01*
X158416Y196138D01*
X158456Y196196D01*
X158502Y196250D01*
X158613Y196423D01*
X158730Y196592D01*
X158761Y196655D01*
X158799Y196715D01*
X158883Y196902D01*
X158975Y197086D01*
X158997Y197153D01*
X159026Y197218D01*
X159082Y197415D01*
X159146Y197611D01*
X159158Y197680D01*
X159177Y197748D01*
X159204Y197952D01*
X159239Y198155D01*
X159244Y198245D01*
X159250Y198295D01*
X159249Y198365D01*
X159257Y198526D01*
X159257Y207226D01*
X159242Y207432D01*
X159235Y207637D01*
X159222Y207706D01*
X159217Y207777D01*
X159173Y207978D01*
X159136Y208180D01*
X159114Y208246D01*
X159098Y208315D01*
X159025Y208508D01*
X158960Y208702D01*
X158928Y208765D01*
X158903Y208831D01*
X158803Y209011D01*
X158710Y209194D01*
X158669Y209252D01*
X158635Y209313D01*
X158510Y209477D01*
X158391Y209645D01*
X158331Y209711D01*
X158300Y209752D01*
X158249Y209801D01*
X158142Y209920D01*
X157849Y210212D01*
X157003Y212255D01*
X157003Y214465D01*
X157849Y216508D01*
X159412Y218071D01*
X161455Y218917D01*
X163665Y218917D01*
X165708Y218071D01*
X167271Y216508D01*
X168117Y214465D01*
X168117Y212255D01*
X167271Y210212D01*
X166978Y209920D01*
X166844Y209765D01*
X166704Y209614D01*
X166664Y209556D01*
X166618Y209503D01*
X166507Y209330D01*
X166390Y209160D01*
X166359Y209097D01*
X166321Y209038D01*
X166237Y208850D01*
X166145Y208666D01*
X166123Y208599D01*
X166094Y208535D01*
X166038Y208337D01*
X165974Y208141D01*
X165962Y208072D01*
X165943Y208004D01*
X165916Y207801D01*
X165881Y207598D01*
X165876Y207508D01*
X165870Y207457D01*
X165871Y207387D01*
X165863Y207226D01*
X165863Y194923D01*
X165360Y193709D01*
X161612Y189962D01*
X161479Y189807D01*
X161338Y189656D01*
X161298Y189598D01*
X161252Y189544D01*
X161141Y189371D01*
X161024Y189202D01*
X160993Y189139D01*
X160955Y189079D01*
X160871Y188892D01*
X160779Y188708D01*
X160757Y188641D01*
X160728Y188576D01*
X160672Y188379D01*
X160608Y188183D01*
X160596Y188114D01*
X160577Y188046D01*
X160550Y187842D01*
X160515Y187639D01*
X160510Y187549D01*
X160504Y187499D01*
X160505Y187429D01*
X160497Y187268D01*
X160497Y186855D01*
X159651Y184812D01*
X158088Y183249D01*
X156045Y182403D01*
X153835Y182403D01*
G37*
%LPD*%
%LPC*%
G36*
X161504Y114073D02*
X161504Y114073D01*
X159554Y114881D01*
X158061Y116374D01*
X157253Y118324D01*
X157253Y120436D01*
X158061Y122386D01*
X158904Y123228D01*
X159037Y123383D01*
X159178Y123534D01*
X159218Y123593D01*
X159264Y123646D01*
X159375Y123819D01*
X159492Y123988D01*
X159523Y124051D01*
X159561Y124111D01*
X159645Y124298D01*
X159737Y124482D01*
X159759Y124550D01*
X159788Y124614D01*
X159844Y124812D01*
X159908Y125007D01*
X159920Y125076D01*
X159939Y125144D01*
X159966Y125348D01*
X160001Y125551D01*
X160006Y125641D01*
X160012Y125691D01*
X160011Y125762D01*
X160019Y125922D01*
X160019Y138238D01*
X160004Y138443D01*
X159997Y138648D01*
X159984Y138718D01*
X159979Y138788D01*
X159935Y138989D01*
X159898Y139191D01*
X159876Y139258D01*
X159860Y139327D01*
X159787Y139519D01*
X159722Y139714D01*
X159690Y139777D01*
X159665Y139843D01*
X159565Y140022D01*
X159472Y140206D01*
X159431Y140263D01*
X159397Y140325D01*
X159272Y140488D01*
X159153Y140656D01*
X159093Y140723D01*
X159062Y140763D01*
X159011Y140813D01*
X158904Y140932D01*
X158061Y141774D01*
X157253Y143724D01*
X157253Y145836D01*
X158061Y147786D01*
X159554Y149279D01*
X161504Y150087D01*
X163616Y150087D01*
X165566Y149279D01*
X167059Y147786D01*
X167867Y145836D01*
X167867Y143724D01*
X167059Y141774D01*
X166216Y140932D01*
X166083Y140777D01*
X165942Y140626D01*
X165902Y140567D01*
X165856Y140514D01*
X165745Y140341D01*
X165628Y140172D01*
X165597Y140109D01*
X165559Y140049D01*
X165475Y139862D01*
X165383Y139678D01*
X165361Y139610D01*
X165332Y139546D01*
X165276Y139348D01*
X165212Y139153D01*
X165200Y139084D01*
X165181Y139016D01*
X165154Y138812D01*
X165119Y138609D01*
X165114Y138519D01*
X165108Y138469D01*
X165109Y138398D01*
X165101Y138238D01*
X165101Y125922D01*
X165116Y125717D01*
X165123Y125512D01*
X165136Y125442D01*
X165141Y125372D01*
X165185Y125171D01*
X165222Y124969D01*
X165244Y124902D01*
X165260Y124833D01*
X165333Y124641D01*
X165398Y124446D01*
X165430Y124383D01*
X165455Y124317D01*
X165555Y124138D01*
X165648Y123954D01*
X165689Y123897D01*
X165723Y123835D01*
X165848Y123672D01*
X165967Y123504D01*
X166027Y123437D01*
X166058Y123397D01*
X166109Y123347D01*
X166216Y123228D01*
X167059Y122386D01*
X167867Y120436D01*
X167867Y118324D01*
X167059Y116374D01*
X165566Y114881D01*
X163616Y114073D01*
X161504Y114073D01*
G37*
%LPD*%
%LPC*%
G36*
X316444Y195353D02*
X316444Y195353D01*
X314494Y196161D01*
X313001Y197654D01*
X312730Y198308D01*
X312674Y198420D01*
X312627Y198536D01*
X312550Y198666D01*
X312483Y198801D01*
X312411Y198904D01*
X312348Y199012D01*
X312253Y199129D01*
X312167Y199253D01*
X312081Y199344D01*
X312002Y199442D01*
X311892Y199545D01*
X311789Y199655D01*
X311691Y199733D01*
X311599Y199818D01*
X311475Y199904D01*
X311357Y199998D01*
X311248Y200060D01*
X311145Y200132D01*
X311010Y200199D01*
X310879Y200274D01*
X310763Y200321D01*
X310651Y200377D01*
X310507Y200424D01*
X310367Y200480D01*
X310245Y200509D01*
X310126Y200548D01*
X309977Y200573D01*
X309831Y200608D01*
X309706Y200620D01*
X309582Y200641D01*
X309347Y200653D01*
X309282Y200659D01*
X309254Y200657D01*
X309211Y200659D01*
X306262Y200659D01*
X306057Y200644D01*
X305852Y200637D01*
X305782Y200624D01*
X305712Y200619D01*
X305511Y200575D01*
X305309Y200538D01*
X305242Y200516D01*
X305173Y200500D01*
X304981Y200427D01*
X304786Y200362D01*
X304723Y200330D01*
X304657Y200305D01*
X304478Y200205D01*
X304294Y200112D01*
X304237Y200071D01*
X304175Y200037D01*
X304012Y199912D01*
X303844Y199793D01*
X303777Y199733D01*
X303737Y199702D01*
X303687Y199651D01*
X303568Y199544D01*
X302726Y198701D01*
X300776Y197893D01*
X298664Y197893D01*
X296714Y198701D01*
X295221Y200194D01*
X294413Y202144D01*
X294413Y204256D01*
X295221Y206206D01*
X296714Y207699D01*
X298664Y208507D01*
X300776Y208507D01*
X302726Y207699D01*
X303568Y206856D01*
X303723Y206723D01*
X303874Y206582D01*
X303933Y206542D01*
X303986Y206496D01*
X304159Y206385D01*
X304328Y206268D01*
X304391Y206237D01*
X304451Y206199D01*
X304638Y206115D01*
X304822Y206023D01*
X304890Y206001D01*
X304954Y205972D01*
X305152Y205916D01*
X305347Y205852D01*
X305416Y205840D01*
X305484Y205821D01*
X305688Y205794D01*
X305891Y205759D01*
X305981Y205754D01*
X306031Y205748D01*
X306102Y205749D01*
X306262Y205741D01*
X315141Y205741D01*
X315151Y205741D01*
X315161Y205741D01*
X315425Y205761D01*
X315691Y205781D01*
X315701Y205783D01*
X315711Y205784D01*
X315968Y205842D01*
X316230Y205900D01*
X316239Y205903D01*
X316249Y205905D01*
X316420Y205967D01*
X318556Y205967D01*
X320506Y205159D01*
X321999Y203666D01*
X322807Y201716D01*
X322807Y199604D01*
X321999Y197654D01*
X320506Y196161D01*
X318556Y195353D01*
X316444Y195353D01*
G37*
%LPD*%
%LPC*%
G36*
X13901Y201099D02*
X13901Y201099D01*
X13901Y211542D01*
X14578Y211360D01*
X16430Y210593D01*
X18165Y209591D01*
X19756Y208371D01*
X21173Y206954D01*
X22393Y205363D01*
X23395Y203628D01*
X24162Y201776D01*
X24344Y201099D01*
X13901Y201099D01*
G37*
%LPD*%
%LPC*%
G36*
X13901Y192601D02*
X13901Y192601D01*
X24344Y192601D01*
X24162Y191924D01*
X23395Y190072D01*
X22393Y188337D01*
X21173Y186746D01*
X19756Y185329D01*
X18165Y184109D01*
X16430Y183107D01*
X14578Y182340D01*
X13901Y182158D01*
X13901Y192601D01*
G37*
%LPD*%
%LPC*%
G36*
X-5040Y201099D02*
X-5040Y201099D01*
X-4858Y201776D01*
X-4091Y203628D01*
X-3089Y205363D01*
X-1869Y206954D01*
X-452Y208371D01*
X1139Y209591D01*
X2875Y210593D01*
X4726Y211360D01*
X5403Y211542D01*
X5403Y201099D01*
X-5040Y201099D01*
G37*
%LPD*%
%LPC*%
G36*
X4726Y182340D02*
X4726Y182340D01*
X2875Y183107D01*
X1139Y184109D01*
X-452Y185329D01*
X-1869Y186746D01*
X-3089Y188337D01*
X-4091Y190072D01*
X-4858Y191924D01*
X-5040Y192601D01*
X5403Y192601D01*
X5403Y182158D01*
X4726Y182340D01*
G37*
%LPD*%
%LPC*%
G36*
X334009Y17779D02*
X334009Y17779D01*
X334009Y24131D01*
X340361Y24131D01*
X340361Y23731D01*
X334409Y17779D01*
X334009Y17779D01*
G37*
%LPD*%
D10*
X168910Y290830D03*
X-65740Y11450D03*
X426530Y13480D03*
X428880Y291315D03*
D11*
X9652Y196850D03*
X9652Y246850D03*
D12*
X-90348Y166850D03*
X-90348Y276850D03*
D13*
X330200Y53340D03*
D14*
X304800Y53340D03*
X279400Y53340D03*
X330200Y27940D03*
X304800Y27940D03*
X279400Y27940D03*
D15*
X162560Y144780D03*
D16*
X162560Y119380D01*
D15*
X162560Y119380D03*
D17*
X162560Y213360D03*
D18*
X162560Y195580D01*
X154940Y187960D01*
D17*
X154940Y187960D03*
D15*
X299720Y203200D03*
D16*
X314960Y203200D01*
X317500Y200660D01*
D15*
X317500Y200660D03*
X-10160Y144780D03*
X0Y144780D03*
X10160Y144780D03*
X228600Y58420D03*
X276860Y137160D03*
X320040Y236220D03*
X180340Y149860D03*
X99559Y83321D03*
X66164Y35684D03*
X332740Y127000D03*
X363220Y111760D03*
D16*
X309880Y111760D01*
X302260Y119380D01*
X297180Y119380D01*
D15*
X297180Y119380D03*
X276860Y114300D03*
D16*
X250139Y114300D01*
X222860Y141580D01*
D15*
X222860Y141580D03*
X363220Y121920D03*
D16*
X358140Y116840D01*
X309880Y116840D01*
X297180Y129540D01*
D15*
X297180Y129540D03*
X276860Y124460D03*
D16*
X248920Y124460D01*
X220980Y152400D01*
X213360Y152400D01*
D15*
X213360Y152400D03*
X347980Y101600D03*
D19*
X314960Y68580D01*
X307340Y68580D01*
D15*
X307340Y68580D03*
X289560Y83820D03*
D16*
X289560Y134620D01*
X297180Y142240D01*
D15*
X297180Y142240D03*
X48260Y38100D03*
D18*
X-25400Y111760D01*
X-25400Y205740D01*
X-5080Y226060D01*
X22860Y226060D01*
D20*
X35560Y261620D03*
X35560Y251460D03*
X35560Y241300D03*
D18*
X35560Y238760D01*
X22860Y226060D01*
X35560Y241300D02*
X35560Y251460D01*
X35560Y261620D01*
D15*
X312420Y276860D03*
D21*
X203200Y276860D01*
X193040Y266700D01*
X132080Y266700D01*
D15*
X132080Y266700D03*
M02*
