G04 EAGLE Gerber RS-274X export*
G75*
%MOMM*%
%FSLAX34Y34*%
%LPD*%
%IN*%
%IPPOS*%
%AMOC8*
5,1,8,0,0,1.08239X$1,22.5*%
G01*
%ADD10C,0.254000*%


D10*
X-109220Y12700D02*
X-109123Y10486D01*
X-108834Y8289D01*
X-108355Y6126D01*
X-107688Y4013D01*
X-106840Y1966D01*
X-105817Y0D01*
X-104626Y-1869D01*
X-103278Y-3627D01*
X-101781Y-5261D01*
X-100147Y-6758D01*
X-98389Y-8106D01*
X-96520Y-9297D01*
X-94555Y-10320D01*
X-92507Y-11168D01*
X-90394Y-11835D01*
X-88231Y-12314D01*
X-86034Y-12603D01*
X-83820Y-12700D01*
X431600Y-12700D01*
X433814Y-12603D01*
X436011Y-12314D01*
X438174Y-11835D01*
X440287Y-11168D01*
X442335Y-10320D01*
X444300Y-9297D01*
X446169Y-8106D01*
X447927Y-6758D01*
X449561Y-5261D01*
X451058Y-3627D01*
X452406Y-1869D01*
X453597Y0D01*
X454620Y1965D01*
X455468Y4013D01*
X456135Y6126D01*
X456614Y8289D01*
X456903Y10486D01*
X457000Y12700D01*
X457000Y295150D01*
X456903Y297364D01*
X456614Y299561D01*
X456135Y301724D01*
X455468Y303837D01*
X454620Y305885D01*
X453597Y307850D01*
X452406Y309719D01*
X451058Y311477D01*
X449561Y313111D01*
X447927Y314608D01*
X446169Y315956D01*
X444300Y317147D01*
X442335Y318170D01*
X440287Y319018D01*
X438174Y319685D01*
X436011Y320164D01*
X433814Y320453D01*
X431600Y320550D01*
X-83820Y320550D01*
X-86034Y320453D01*
X-88231Y320164D01*
X-90394Y319685D01*
X-92507Y319018D01*
X-94555Y318170D01*
X-96520Y317147D01*
X-98389Y315956D01*
X-100147Y314608D01*
X-101781Y313111D01*
X-103278Y311477D01*
X-104626Y309719D01*
X-105817Y307850D01*
X-106840Y305885D01*
X-107688Y303837D01*
X-108355Y301724D01*
X-108834Y299561D01*
X-109123Y297364D01*
X-109220Y295150D01*
X-109220Y12700D01*
X-100226Y39276D02*
X-100215Y39015D01*
X-100180Y38755D01*
X-100124Y38500D01*
X-100045Y38250D01*
X-99945Y38008D01*
X-99824Y37776D01*
X-99683Y37555D01*
X-99524Y37348D01*
X-99347Y37155D01*
X-99154Y36978D01*
X-98947Y36819D01*
X-98726Y36678D01*
X-98494Y36557D01*
X-98252Y36457D01*
X-98002Y36378D01*
X-97747Y36322D01*
X-97487Y36287D01*
X-97226Y36276D01*
X-90226Y36276D01*
X-89965Y36287D01*
X-89705Y36322D01*
X-89450Y36378D01*
X-89200Y36457D01*
X-88958Y36557D01*
X-88726Y36678D01*
X-88505Y36819D01*
X-88298Y36978D01*
X-88105Y37155D01*
X-87928Y37348D01*
X-87769Y37555D01*
X-87628Y37776D01*
X-87507Y38008D01*
X-87407Y38250D01*
X-87328Y38500D01*
X-87272Y38755D01*
X-87237Y39015D01*
X-87226Y39276D01*
X-87237Y39537D01*
X-87272Y39797D01*
X-87328Y40052D01*
X-87407Y40302D01*
X-87507Y40544D01*
X-87628Y40776D01*
X-87769Y40997D01*
X-87928Y41204D01*
X-88105Y41397D01*
X-88298Y41574D01*
X-88505Y41733D01*
X-88726Y41874D01*
X-88958Y41995D01*
X-89200Y42095D01*
X-89450Y42174D01*
X-89705Y42230D01*
X-89965Y42265D01*
X-90226Y42276D01*
X-97226Y42276D01*
X-97487Y42265D01*
X-97747Y42230D01*
X-98002Y42174D01*
X-98252Y42095D01*
X-98494Y41995D01*
X-98726Y41874D01*
X-98947Y41733D01*
X-99154Y41574D01*
X-99347Y41397D01*
X-99524Y41204D01*
X-99683Y40997D01*
X-99824Y40776D01*
X-99945Y40544D01*
X-100045Y40302D01*
X-100124Y40052D01*
X-100180Y39797D01*
X-100215Y39537D01*
X-100226Y39276D01*
X-100226Y122776D02*
X-100215Y122515D01*
X-100180Y122255D01*
X-100124Y122000D01*
X-100045Y121750D01*
X-99945Y121508D01*
X-99824Y121276D01*
X-99683Y121055D01*
X-99524Y120848D01*
X-99347Y120655D01*
X-99154Y120478D01*
X-98947Y120319D01*
X-98726Y120178D01*
X-98494Y120057D01*
X-98252Y119957D01*
X-98002Y119878D01*
X-97747Y119822D01*
X-97487Y119787D01*
X-97226Y119776D01*
X-90226Y119776D01*
X-89965Y119787D01*
X-89705Y119822D01*
X-89450Y119878D01*
X-89200Y119957D01*
X-88958Y120057D01*
X-88726Y120178D01*
X-88505Y120319D01*
X-88298Y120478D01*
X-88105Y120655D01*
X-87928Y120848D01*
X-87769Y121055D01*
X-87628Y121276D01*
X-87507Y121508D01*
X-87407Y121750D01*
X-87328Y122000D01*
X-87272Y122255D01*
X-87237Y122515D01*
X-87226Y122776D01*
X-87237Y123037D01*
X-87272Y123297D01*
X-87328Y123552D01*
X-87407Y123802D01*
X-87507Y124044D01*
X-87628Y124276D01*
X-87769Y124497D01*
X-87928Y124704D01*
X-88105Y124897D01*
X-88298Y125074D01*
X-88505Y125233D01*
X-88726Y125374D01*
X-88958Y125495D01*
X-89200Y125595D01*
X-89450Y125674D01*
X-89705Y125730D01*
X-89965Y125765D01*
X-90226Y125776D01*
X-97226Y125776D01*
X-97487Y125765D01*
X-97747Y125730D01*
X-98002Y125674D01*
X-98252Y125595D01*
X-98494Y125495D01*
X-98726Y125374D01*
X-98947Y125233D01*
X-99154Y125074D01*
X-99347Y124897D01*
X-99524Y124704D01*
X-99683Y124497D01*
X-99824Y124276D01*
X-99945Y124044D01*
X-100045Y123802D01*
X-100124Y123552D01*
X-100180Y123297D01*
X-100215Y123037D01*
X-100226Y122776D01*
X-67976Y58776D02*
X-67964Y58493D01*
X-67927Y58212D01*
X-67865Y57935D01*
X-67780Y57664D01*
X-67672Y57403D01*
X-67541Y57151D01*
X-67388Y56912D01*
X-67216Y56687D01*
X-67024Y56478D01*
X-66815Y56286D01*
X-66590Y56114D01*
X-66351Y55961D01*
X-66100Y55831D01*
X-65838Y55722D01*
X-65567Y55637D01*
X-65290Y55575D01*
X-65009Y55538D01*
X-64726Y55526D01*
X-62726Y55526D01*
X-62443Y55538D01*
X-62162Y55575D01*
X-61885Y55637D01*
X-61614Y55722D01*
X-61353Y55831D01*
X-61101Y55961D01*
X-60862Y56114D01*
X-60637Y56286D01*
X-60428Y56478D01*
X-60236Y56687D01*
X-60064Y56912D01*
X-59911Y57151D01*
X-59781Y57403D01*
X-59672Y57664D01*
X-59587Y57935D01*
X-59525Y58212D01*
X-59488Y58493D01*
X-59476Y58776D01*
X-59488Y59059D01*
X-59525Y59340D01*
X-59587Y59617D01*
X-59672Y59888D01*
X-59781Y60150D01*
X-59911Y60401D01*
X-60064Y60640D01*
X-60236Y60865D01*
X-60428Y61074D01*
X-60637Y61266D01*
X-60862Y61438D01*
X-61101Y61591D01*
X-61353Y61722D01*
X-61614Y61830D01*
X-61885Y61915D01*
X-62162Y61977D01*
X-62443Y62014D01*
X-62726Y62026D01*
X-64726Y62026D01*
X-65009Y62014D01*
X-65290Y61977D01*
X-65567Y61915D01*
X-65838Y61830D01*
X-66100Y61722D01*
X-66351Y61591D01*
X-66590Y61438D01*
X-66815Y61266D01*
X-67024Y61074D01*
X-67216Y60865D01*
X-67388Y60640D01*
X-67541Y60401D01*
X-67672Y60150D01*
X-67780Y59888D01*
X-67865Y59617D01*
X-67927Y59340D01*
X-67964Y59059D01*
X-67976Y58776D01*
X-67976Y103276D02*
X-67964Y102993D01*
X-67927Y102712D01*
X-67865Y102435D01*
X-67780Y102164D01*
X-67672Y101903D01*
X-67541Y101651D01*
X-67388Y101412D01*
X-67216Y101187D01*
X-67024Y100978D01*
X-66815Y100786D01*
X-66590Y100614D01*
X-66351Y100461D01*
X-66100Y100331D01*
X-65838Y100222D01*
X-65567Y100137D01*
X-65290Y100075D01*
X-65009Y100038D01*
X-64726Y100026D01*
X-62726Y100026D01*
X-62443Y100038D01*
X-62162Y100075D01*
X-61885Y100137D01*
X-61614Y100222D01*
X-61353Y100331D01*
X-61101Y100461D01*
X-60862Y100614D01*
X-60637Y100786D01*
X-60428Y100978D01*
X-60236Y101187D01*
X-60064Y101412D01*
X-59911Y101651D01*
X-59781Y101903D01*
X-59672Y102164D01*
X-59587Y102435D01*
X-59525Y102712D01*
X-59488Y102993D01*
X-59476Y103276D01*
X-59488Y103559D01*
X-59525Y103840D01*
X-59587Y104117D01*
X-59672Y104388D01*
X-59781Y104650D01*
X-59911Y104901D01*
X-60064Y105140D01*
X-60236Y105365D01*
X-60428Y105574D01*
X-60637Y105766D01*
X-60862Y105938D01*
X-61101Y106091D01*
X-61353Y106222D01*
X-61614Y106330D01*
X-61885Y106415D01*
X-62162Y106477D01*
X-62443Y106514D01*
X-62726Y106526D01*
X-64726Y106526D01*
X-65009Y106514D01*
X-65290Y106477D01*
X-65567Y106415D01*
X-65838Y106330D01*
X-66100Y106222D01*
X-66351Y106091D01*
X-66590Y105938D01*
X-66815Y105766D01*
X-67024Y105574D01*
X-67216Y105365D01*
X-67388Y105140D01*
X-67541Y104901D01*
X-67672Y104650D01*
X-67780Y104388D01*
X-67865Y104117D01*
X-67927Y103840D01*
X-67964Y103559D01*
X-67976Y103276D01*
X-63923Y100776D02*
X-64311Y100838D01*
X-64686Y100959D01*
X-65036Y101138D01*
X-65355Y101369D01*
X-65633Y101647D01*
X-65864Y101966D01*
X-66043Y102316D01*
X-66164Y102691D01*
X-66226Y103079D01*
X-66226Y103473D01*
X-66164Y103861D01*
X-66043Y104236D01*
X-65864Y104586D01*
X-65633Y104905D01*
X-65355Y105183D01*
X-65036Y105414D01*
X-64686Y105593D01*
X-64311Y105714D01*
X-63923Y105776D01*
X-63529Y105776D01*
X-63141Y105714D01*
X-62766Y105593D01*
X-62416Y105414D01*
X-62097Y105183D01*
X-61819Y104905D01*
X-61588Y104586D01*
X-61409Y104236D01*
X-61288Y103861D01*
X-61226Y103473D01*
X-61226Y103079D01*
X-61288Y102691D01*
X-61409Y102316D01*
X-61588Y101966D01*
X-61819Y101647D01*
X-62097Y101369D01*
X-62416Y101138D01*
X-62766Y100959D01*
X-63141Y100838D01*
X-63529Y100776D01*
X-63923Y100776D01*
X-63923Y56276D02*
X-64311Y56338D01*
X-64686Y56459D01*
X-65036Y56638D01*
X-65355Y56869D01*
X-65633Y57147D01*
X-65864Y57466D01*
X-66043Y57816D01*
X-66164Y58191D01*
X-66226Y58579D01*
X-66226Y58973D01*
X-66164Y59361D01*
X-66043Y59736D01*
X-65864Y60086D01*
X-65633Y60405D01*
X-65355Y60683D01*
X-65036Y60914D01*
X-64686Y61093D01*
X-64311Y61214D01*
X-63923Y61276D01*
X-63529Y61276D01*
X-63141Y61214D01*
X-62766Y61093D01*
X-62416Y60914D01*
X-62097Y60683D01*
X-61819Y60405D01*
X-61588Y60086D01*
X-61409Y59736D01*
X-61288Y59361D01*
X-61226Y58973D01*
X-61226Y58579D01*
X-61288Y58191D01*
X-61409Y57816D01*
X-61588Y57466D01*
X-61819Y57147D01*
X-62097Y56869D01*
X-62416Y56638D01*
X-62766Y56459D01*
X-63141Y56338D01*
X-63529Y56276D01*
X-63923Y56276D01*
X-93923Y120276D02*
X-94311Y120338D01*
X-94686Y120459D01*
X-95036Y120638D01*
X-95355Y120869D01*
X-95633Y121147D01*
X-95864Y121466D01*
X-96043Y121816D01*
X-96164Y122191D01*
X-96226Y122579D01*
X-96226Y122973D01*
X-96164Y123361D01*
X-96043Y123736D01*
X-95864Y124086D01*
X-95633Y124405D01*
X-95355Y124683D01*
X-95036Y124914D01*
X-94686Y125093D01*
X-94311Y125214D01*
X-93923Y125276D01*
X-93529Y125276D01*
X-93141Y125214D01*
X-92766Y125093D01*
X-92416Y124914D01*
X-92097Y124683D01*
X-91819Y124405D01*
X-91588Y124086D01*
X-91409Y123736D01*
X-91288Y123361D01*
X-91226Y122973D01*
X-91226Y122579D01*
X-91288Y122191D01*
X-91409Y121816D01*
X-91588Y121466D01*
X-91819Y121147D01*
X-92097Y120869D01*
X-92416Y120638D01*
X-92766Y120459D01*
X-93141Y120338D01*
X-93529Y120276D01*
X-93923Y120276D01*
X-93923Y36776D02*
X-94311Y36838D01*
X-94686Y36959D01*
X-95036Y37138D01*
X-95355Y37369D01*
X-95633Y37647D01*
X-95864Y37966D01*
X-96043Y38316D01*
X-96164Y38691D01*
X-96226Y39079D01*
X-96226Y39473D01*
X-96164Y39861D01*
X-96043Y40236D01*
X-95864Y40586D01*
X-95633Y40905D01*
X-95355Y41183D01*
X-95036Y41414D01*
X-94686Y41593D01*
X-94311Y41714D01*
X-93923Y41776D01*
X-93529Y41776D01*
X-93141Y41714D01*
X-92766Y41593D01*
X-92416Y41414D01*
X-92097Y41183D01*
X-91819Y40905D01*
X-91588Y40586D01*
X-91409Y40236D01*
X-91288Y39861D01*
X-91226Y39473D01*
X-91226Y39079D01*
X-91288Y38691D01*
X-91409Y38316D01*
X-91588Y37966D01*
X-91819Y37647D01*
X-92097Y37369D01*
X-92416Y37138D01*
X-92766Y36959D01*
X-93141Y36838D01*
X-93529Y36776D01*
X-93923Y36776D01*
M02*
