G04 EAGLE Gerber RS-274X export*
G75*
%MOMM*%
%FSLAX34Y34*%
%LPD*%
%INSolderpaste Top*%
%IPPOS*%
%AMOC8*
5,1,8,0,0,1.08239X$1,22.5*%
G01*
%ADD10R,1.000000X1.100000*%
%ADD11R,1.100000X1.000000*%
%ADD12C,0.300000*%
%ADD13R,0.630000X0.830000*%
%ADD14R,1.300000X1.300000*%
%ADD15R,2.700000X1.000000*%
%ADD16R,1.700000X0.600000*%
%ADD17R,1.200000X0.550000*%
%ADD18R,0.300000X0.800000*%
%ADD19R,0.400000X0.800000*%
%ADD20R,1.270000X0.558800*%
%ADD21R,0.558800X1.270000*%
%ADD22R,1.900000X0.400000*%
%ADD23R,1.400000X1.000000*%
%ADD24R,0.348000X1.397000*%
%ADD25C,0.200000*%
%ADD26C,0.100000*%
%ADD27R,1.350000X0.400000*%
%ADD28R,1.900000X1.175000*%
%ADD29R,1.900000X1.800000*%
%ADD30R,2.667000X2.540000*%
%ADD31R,1.270000X0.762000*%


D10*
X113030Y265693D03*
X113030Y282693D03*
X90805Y265693D03*
X90805Y282693D03*
D11*
X183905Y240157D03*
X200905Y240157D03*
X183905Y223012D03*
X200905Y223012D03*
X183905Y205867D03*
X200905Y205867D03*
D10*
X226060Y231258D03*
X226060Y214258D03*
D12*
X70675Y251643D02*
X70675Y258643D01*
X77675Y258643D01*
X77675Y251643D01*
X70675Y251643D01*
X70675Y254493D02*
X77675Y254493D01*
X77675Y257343D02*
X70675Y257343D01*
X53135Y258643D02*
X53135Y251643D01*
X53135Y258643D02*
X60135Y258643D01*
X60135Y251643D01*
X53135Y251643D01*
X53135Y254493D02*
X60135Y254493D01*
X60135Y257343D02*
X53135Y257343D01*
D13*
X115005Y204343D03*
X92005Y204343D03*
D14*
X55880Y238393D03*
X55880Y208393D03*
D10*
X141605Y241418D03*
X141605Y224418D03*
D11*
X56905Y271018D03*
X73905Y271018D03*
D10*
X163830Y224418D03*
X163830Y241418D03*
X248285Y214258D03*
X248285Y231258D03*
D15*
X438620Y81073D03*
X438620Y143073D03*
D16*
X406620Y99573D03*
X406620Y112073D03*
X406620Y124573D03*
D17*
X116506Y223418D03*
X116506Y232918D03*
X116506Y242418D03*
X90504Y242418D03*
X90504Y223418D03*
D18*
X337535Y260033D03*
X332535Y260033D03*
X327535Y260033D03*
X322535Y260033D03*
X317535Y260033D03*
X312535Y260033D03*
X307535Y260033D03*
X302535Y260033D03*
X297535Y260033D03*
X292535Y260033D03*
X287535Y260033D03*
X282535Y260033D03*
X277535Y260033D03*
X272535Y260033D03*
X267535Y260033D03*
X262535Y260033D03*
X257535Y260033D03*
X252535Y260033D03*
X247535Y260033D03*
X242535Y260033D03*
X237535Y260033D03*
X232535Y260033D03*
X227535Y260033D03*
X222535Y260033D03*
D19*
X347535Y285033D03*
X212535Y285033D03*
D15*
X438112Y167941D03*
X438112Y229941D03*
D16*
X406112Y186441D03*
X406112Y198941D03*
X406112Y211441D03*
D20*
X261493Y168589D03*
X261493Y160589D03*
X261493Y152589D03*
X261493Y144589D03*
X261493Y136589D03*
X261493Y128589D03*
X261493Y120589D03*
X261493Y112589D03*
D21*
X276419Y97663D03*
X284419Y97663D03*
X292419Y97663D03*
X300419Y97663D03*
X308419Y97663D03*
X316419Y97663D03*
X324419Y97663D03*
X332419Y97663D03*
D20*
X347345Y112589D03*
X347345Y120589D03*
X347345Y128589D03*
X347345Y136589D03*
X347345Y144589D03*
X347345Y152589D03*
X347345Y160589D03*
X347345Y168589D03*
D21*
X332419Y183515D03*
X324419Y183515D03*
X316419Y183515D03*
X308419Y183515D03*
X300419Y183515D03*
X292419Y183515D03*
X284419Y183515D03*
X276419Y183515D03*
D22*
X232189Y101568D03*
X232189Y113568D03*
X232189Y125568D03*
D11*
X370087Y136398D03*
X387087Y136398D03*
D10*
X170180Y162696D03*
X170180Y179696D03*
X191135Y162696D03*
X191135Y179696D03*
D11*
X353060Y217687D03*
X353060Y234687D03*
D23*
X381269Y300562D03*
X381269Y230562D03*
D11*
X233680Y162696D03*
X233680Y179696D03*
X212852Y162823D03*
X212852Y179823D03*
X357505Y22234D03*
X357505Y39234D03*
X332486Y234560D03*
X332486Y217560D03*
X306832Y234814D03*
X306832Y217814D03*
D24*
X120355Y23765D03*
X113855Y23765D03*
X107355Y23765D03*
X100855Y23765D03*
X94355Y23765D03*
X87855Y23765D03*
X81355Y23765D03*
X68355Y23765D03*
X74855Y23765D03*
X61855Y23765D03*
X55355Y23765D03*
X48855Y23765D03*
X42355Y23765D03*
X35855Y23765D03*
X120355Y96885D03*
X113855Y96885D03*
X107355Y96885D03*
X100855Y96885D03*
X94355Y96885D03*
X87855Y96885D03*
X81355Y96885D03*
X74855Y96885D03*
X68355Y96885D03*
X61855Y96885D03*
X55355Y96885D03*
X48855Y96885D03*
X42355Y96885D03*
X35855Y96885D03*
D11*
X159013Y92202D03*
X176013Y92202D03*
D10*
X175886Y68707D03*
X158886Y68707D03*
X175886Y48260D03*
X158886Y48260D03*
D12*
X204534Y65334D02*
X204534Y72334D01*
X204534Y65334D02*
X197534Y65334D01*
X197534Y72334D01*
X204534Y72334D01*
X204534Y68184D02*
X197534Y68184D01*
X197534Y71034D02*
X204534Y71034D01*
X222074Y72334D02*
X222074Y65334D01*
X215074Y65334D01*
X215074Y72334D01*
X222074Y72334D01*
X222074Y68184D02*
X215074Y68184D01*
X215074Y71034D02*
X222074Y71034D01*
X204407Y51760D02*
X204407Y44760D01*
X197407Y44760D01*
X197407Y51760D01*
X204407Y51760D01*
X204407Y47610D02*
X197407Y47610D01*
X197407Y50460D02*
X204407Y50460D01*
X221947Y51760D02*
X221947Y44760D01*
X214947Y44760D01*
X214947Y51760D01*
X221947Y51760D01*
X221947Y47610D02*
X214947Y47610D01*
X214947Y50460D02*
X221947Y50460D01*
X-85726Y122776D02*
X-85728Y122643D01*
X-85734Y122509D01*
X-85744Y122376D01*
X-85758Y122244D01*
X-85775Y122112D01*
X-85797Y121980D01*
X-85822Y121849D01*
X-85852Y121719D01*
X-85885Y121590D01*
X-85922Y121462D01*
X-85963Y121335D01*
X-86008Y121209D01*
X-86056Y121085D01*
X-86108Y120962D01*
X-86163Y120841D01*
X-86223Y120721D01*
X-86285Y120603D01*
X-86351Y120488D01*
X-86421Y120374D01*
X-86494Y120262D01*
X-86570Y120153D01*
X-86649Y120045D01*
X-86732Y119941D01*
X-86817Y119838D01*
X-86906Y119739D01*
X-86997Y119642D01*
X-87092Y119547D01*
X-87189Y119456D01*
X-87288Y119367D01*
X-87391Y119282D01*
X-87495Y119199D01*
X-87603Y119120D01*
X-87712Y119044D01*
X-87824Y118971D01*
X-87938Y118901D01*
X-88053Y118835D01*
X-88171Y118773D01*
X-88291Y118713D01*
X-88412Y118658D01*
X-88535Y118606D01*
X-88659Y118558D01*
X-88785Y118513D01*
X-88912Y118472D01*
X-89040Y118435D01*
X-89169Y118402D01*
X-89299Y118372D01*
X-89430Y118347D01*
X-89562Y118325D01*
X-89694Y118308D01*
X-89826Y118294D01*
X-89959Y118284D01*
X-90093Y118278D01*
X-90226Y118276D01*
X-97226Y118276D01*
X-97359Y118278D01*
X-97493Y118284D01*
X-97626Y118294D01*
X-97758Y118308D01*
X-97890Y118325D01*
X-98022Y118347D01*
X-98153Y118372D01*
X-98283Y118402D01*
X-98412Y118435D01*
X-98540Y118472D01*
X-98667Y118513D01*
X-98793Y118558D01*
X-98917Y118606D01*
X-99040Y118658D01*
X-99161Y118713D01*
X-99281Y118773D01*
X-99399Y118835D01*
X-99514Y118901D01*
X-99628Y118971D01*
X-99740Y119044D01*
X-99849Y119120D01*
X-99957Y119199D01*
X-100061Y119282D01*
X-100164Y119367D01*
X-100263Y119456D01*
X-100360Y119547D01*
X-100455Y119642D01*
X-100546Y119739D01*
X-100635Y119838D01*
X-100720Y119941D01*
X-100803Y120045D01*
X-100882Y120153D01*
X-100958Y120262D01*
X-101031Y120374D01*
X-101101Y120488D01*
X-101167Y120603D01*
X-101229Y120721D01*
X-101289Y120841D01*
X-101344Y120962D01*
X-101396Y121085D01*
X-101444Y121209D01*
X-101489Y121335D01*
X-101530Y121462D01*
X-101567Y121590D01*
X-101600Y121719D01*
X-101630Y121849D01*
X-101655Y121980D01*
X-101677Y122112D01*
X-101694Y122244D01*
X-101708Y122376D01*
X-101718Y122509D01*
X-101724Y122643D01*
X-101726Y122776D01*
D25*
X-101226Y122776D02*
X-101224Y122902D01*
X-101218Y123027D01*
X-101208Y123152D01*
X-101194Y123277D01*
X-101177Y123402D01*
X-101155Y123526D01*
X-101130Y123649D01*
X-101100Y123771D01*
X-101067Y123892D01*
X-101030Y124012D01*
X-100990Y124131D01*
X-100945Y124248D01*
X-100897Y124365D01*
X-100845Y124479D01*
X-100790Y124592D01*
X-100731Y124703D01*
X-100669Y124812D01*
X-100603Y124919D01*
X-100534Y125024D01*
X-100462Y125127D01*
X-100387Y125228D01*
X-100308Y125326D01*
X-100226Y125421D01*
X-100142Y125514D01*
X-100054Y125604D01*
X-99964Y125692D01*
X-99871Y125776D01*
X-99776Y125858D01*
X-99678Y125937D01*
X-99577Y126012D01*
X-99474Y126084D01*
X-99369Y126153D01*
X-99262Y126219D01*
X-99153Y126281D01*
X-99042Y126340D01*
X-98929Y126395D01*
X-98815Y126447D01*
X-98698Y126495D01*
X-98581Y126540D01*
X-98462Y126580D01*
X-98342Y126617D01*
X-98221Y126650D01*
X-98099Y126680D01*
X-97976Y126705D01*
X-97852Y126727D01*
X-97727Y126744D01*
X-97602Y126758D01*
X-97477Y126768D01*
X-97352Y126774D01*
X-97226Y126776D01*
X-90226Y126776D01*
X-90100Y126774D01*
X-89975Y126768D01*
X-89850Y126758D01*
X-89725Y126744D01*
X-89600Y126727D01*
X-89476Y126705D01*
X-89353Y126680D01*
X-89231Y126650D01*
X-89110Y126617D01*
X-88990Y126580D01*
X-88871Y126540D01*
X-88754Y126495D01*
X-88637Y126447D01*
X-88523Y126395D01*
X-88410Y126340D01*
X-88299Y126281D01*
X-88190Y126219D01*
X-88083Y126153D01*
X-87978Y126084D01*
X-87875Y126012D01*
X-87774Y125937D01*
X-87676Y125858D01*
X-87581Y125776D01*
X-87488Y125692D01*
X-87398Y125604D01*
X-87310Y125514D01*
X-87226Y125421D01*
X-87144Y125326D01*
X-87065Y125228D01*
X-86990Y125127D01*
X-86918Y125024D01*
X-86849Y124919D01*
X-86783Y124812D01*
X-86721Y124703D01*
X-86662Y124592D01*
X-86607Y124479D01*
X-86555Y124365D01*
X-86507Y124248D01*
X-86462Y124131D01*
X-86422Y124012D01*
X-86385Y123892D01*
X-86352Y123771D01*
X-86322Y123649D01*
X-86297Y123526D01*
X-86275Y123402D01*
X-86258Y123277D01*
X-86244Y123152D01*
X-86234Y123027D01*
X-86228Y122902D01*
X-86226Y122776D01*
X-85226Y125276D02*
X-85226Y117776D01*
X-85226Y125276D02*
X-85228Y125352D01*
X-85234Y125428D01*
X-85243Y125503D01*
X-85257Y125578D01*
X-85274Y125652D01*
X-85295Y125725D01*
X-85319Y125797D01*
X-85348Y125868D01*
X-85379Y125937D01*
X-85414Y126004D01*
X-85453Y126069D01*
X-85495Y126133D01*
X-85540Y126194D01*
X-85588Y126253D01*
X-85639Y126309D01*
X-85693Y126363D01*
X-85749Y126414D01*
X-85808Y126462D01*
X-85869Y126507D01*
X-85933Y126549D01*
X-85998Y126588D01*
X-86065Y126623D01*
X-86134Y126654D01*
X-86205Y126683D01*
X-86277Y126707D01*
X-86350Y126728D01*
X-86424Y126745D01*
X-86499Y126759D01*
X-86574Y126768D01*
X-86650Y126774D01*
X-86726Y126776D01*
X-100726Y126776D01*
X-100802Y126774D01*
X-100878Y126768D01*
X-100953Y126759D01*
X-101028Y126745D01*
X-101102Y126728D01*
X-101175Y126707D01*
X-101247Y126683D01*
X-101318Y126654D01*
X-101387Y126623D01*
X-101454Y126588D01*
X-101519Y126549D01*
X-101583Y126507D01*
X-101644Y126462D01*
X-101703Y126414D01*
X-101759Y126363D01*
X-101813Y126309D01*
X-101864Y126253D01*
X-101912Y126194D01*
X-101957Y126133D01*
X-101999Y126069D01*
X-102038Y126004D01*
X-102073Y125937D01*
X-102104Y125868D01*
X-102133Y125797D01*
X-102157Y125725D01*
X-102178Y125652D01*
X-102195Y125578D01*
X-102209Y125503D01*
X-102218Y125428D01*
X-102224Y125352D01*
X-102226Y125276D01*
X-102226Y117776D01*
X-85226Y117776D01*
D26*
X-62726Y99526D02*
X-62606Y99528D01*
X-62486Y99534D01*
X-62366Y99543D01*
X-62246Y99557D01*
X-62128Y99574D01*
X-62009Y99595D01*
X-61892Y99620D01*
X-61775Y99649D01*
X-61659Y99681D01*
X-61544Y99717D01*
X-61431Y99757D01*
X-61319Y99800D01*
X-61208Y99847D01*
X-61099Y99897D01*
X-60991Y99951D01*
X-60886Y100009D01*
X-60782Y100069D01*
X-60680Y100133D01*
X-60581Y100200D01*
X-60483Y100271D01*
X-60388Y100344D01*
X-60295Y100421D01*
X-60205Y100500D01*
X-60117Y100582D01*
X-60032Y100667D01*
X-59950Y100755D01*
X-59871Y100845D01*
X-59794Y100938D01*
X-59721Y101033D01*
X-59650Y101131D01*
X-59583Y101230D01*
X-59519Y101332D01*
X-59459Y101436D01*
X-59401Y101541D01*
X-59347Y101649D01*
X-59297Y101758D01*
X-59250Y101869D01*
X-59207Y101981D01*
X-59167Y102094D01*
X-59131Y102209D01*
X-59099Y102325D01*
X-59070Y102442D01*
X-59045Y102559D01*
X-59024Y102678D01*
X-59007Y102796D01*
X-58993Y102916D01*
X-58984Y103036D01*
X-58978Y103156D01*
X-58976Y103276D01*
X-62726Y99526D02*
X-64726Y99526D01*
X-64846Y99528D01*
X-64966Y99534D01*
X-65086Y99543D01*
X-65206Y99557D01*
X-65324Y99574D01*
X-65443Y99595D01*
X-65560Y99620D01*
X-65677Y99649D01*
X-65793Y99681D01*
X-65908Y99717D01*
X-66021Y99757D01*
X-66133Y99800D01*
X-66244Y99847D01*
X-66353Y99897D01*
X-66461Y99951D01*
X-66566Y100009D01*
X-66670Y100069D01*
X-66772Y100133D01*
X-66871Y100200D01*
X-66969Y100271D01*
X-67064Y100344D01*
X-67157Y100421D01*
X-67247Y100500D01*
X-67335Y100582D01*
X-67420Y100667D01*
X-67502Y100755D01*
X-67581Y100845D01*
X-67658Y100938D01*
X-67731Y101033D01*
X-67802Y101131D01*
X-67869Y101230D01*
X-67933Y101332D01*
X-67993Y101436D01*
X-68051Y101541D01*
X-68105Y101649D01*
X-68155Y101758D01*
X-68202Y101869D01*
X-68245Y101981D01*
X-68285Y102094D01*
X-68321Y102209D01*
X-68353Y102325D01*
X-68382Y102442D01*
X-68407Y102559D01*
X-68428Y102678D01*
X-68445Y102796D01*
X-68459Y102916D01*
X-68468Y103036D01*
X-68474Y103156D01*
X-68476Y103276D01*
X-68474Y103396D01*
X-68468Y103516D01*
X-68459Y103636D01*
X-68445Y103756D01*
X-68428Y103874D01*
X-68407Y103993D01*
X-68382Y104110D01*
X-68353Y104227D01*
X-68321Y104343D01*
X-68285Y104458D01*
X-68245Y104571D01*
X-68202Y104683D01*
X-68155Y104794D01*
X-68105Y104903D01*
X-68051Y105011D01*
X-67993Y105116D01*
X-67933Y105220D01*
X-67869Y105322D01*
X-67802Y105421D01*
X-67731Y105519D01*
X-67658Y105614D01*
X-67581Y105707D01*
X-67502Y105797D01*
X-67420Y105885D01*
X-67335Y105970D01*
X-67247Y106052D01*
X-67157Y106131D01*
X-67064Y106208D01*
X-66969Y106281D01*
X-66871Y106352D01*
X-66772Y106419D01*
X-66670Y106483D01*
X-66566Y106543D01*
X-66461Y106601D01*
X-66353Y106655D01*
X-66244Y106705D01*
X-66133Y106752D01*
X-66021Y106795D01*
X-65908Y106835D01*
X-65793Y106871D01*
X-65677Y106903D01*
X-65560Y106932D01*
X-65443Y106957D01*
X-65324Y106978D01*
X-65206Y106995D01*
X-65086Y107009D01*
X-64966Y107018D01*
X-64846Y107024D01*
X-64726Y107026D01*
X-62726Y107026D01*
X-62606Y107024D01*
X-62486Y107018D01*
X-62366Y107009D01*
X-62246Y106995D01*
X-62128Y106978D01*
X-62009Y106957D01*
X-61892Y106932D01*
X-61775Y106903D01*
X-61659Y106871D01*
X-61544Y106835D01*
X-61431Y106795D01*
X-61319Y106752D01*
X-61208Y106705D01*
X-61099Y106655D01*
X-60991Y106601D01*
X-60886Y106543D01*
X-60782Y106483D01*
X-60680Y106419D01*
X-60581Y106352D01*
X-60483Y106281D01*
X-60388Y106208D01*
X-60295Y106131D01*
X-60205Y106052D01*
X-60117Y105970D01*
X-60032Y105885D01*
X-59950Y105797D01*
X-59871Y105707D01*
X-59794Y105614D01*
X-59721Y105519D01*
X-59650Y105421D01*
X-59583Y105322D01*
X-59519Y105220D01*
X-59459Y105116D01*
X-59401Y105011D01*
X-59347Y104903D01*
X-59297Y104794D01*
X-59250Y104683D01*
X-59207Y104571D01*
X-59167Y104458D01*
X-59131Y104343D01*
X-59099Y104227D01*
X-59070Y104110D01*
X-59045Y103993D01*
X-59024Y103874D01*
X-59007Y103756D01*
X-58993Y103636D01*
X-58984Y103516D01*
X-58978Y103396D01*
X-58976Y103276D01*
X-58976Y58776D02*
X-58978Y58656D01*
X-58984Y58536D01*
X-58993Y58416D01*
X-59007Y58296D01*
X-59024Y58178D01*
X-59045Y58059D01*
X-59070Y57942D01*
X-59099Y57825D01*
X-59131Y57709D01*
X-59167Y57594D01*
X-59207Y57481D01*
X-59250Y57369D01*
X-59297Y57258D01*
X-59347Y57149D01*
X-59401Y57041D01*
X-59459Y56936D01*
X-59519Y56832D01*
X-59583Y56730D01*
X-59650Y56631D01*
X-59721Y56533D01*
X-59794Y56438D01*
X-59871Y56345D01*
X-59950Y56255D01*
X-60032Y56167D01*
X-60117Y56082D01*
X-60205Y56000D01*
X-60295Y55921D01*
X-60388Y55844D01*
X-60483Y55771D01*
X-60581Y55700D01*
X-60680Y55633D01*
X-60782Y55569D01*
X-60886Y55509D01*
X-60991Y55451D01*
X-61099Y55397D01*
X-61208Y55347D01*
X-61319Y55300D01*
X-61431Y55257D01*
X-61544Y55217D01*
X-61659Y55181D01*
X-61775Y55149D01*
X-61892Y55120D01*
X-62009Y55095D01*
X-62128Y55074D01*
X-62246Y55057D01*
X-62366Y55043D01*
X-62486Y55034D01*
X-62606Y55028D01*
X-62726Y55026D01*
X-64726Y55026D01*
X-64846Y55028D01*
X-64966Y55034D01*
X-65086Y55043D01*
X-65206Y55057D01*
X-65324Y55074D01*
X-65443Y55095D01*
X-65560Y55120D01*
X-65677Y55149D01*
X-65793Y55181D01*
X-65908Y55217D01*
X-66021Y55257D01*
X-66133Y55300D01*
X-66244Y55347D01*
X-66353Y55397D01*
X-66461Y55451D01*
X-66566Y55509D01*
X-66670Y55569D01*
X-66772Y55633D01*
X-66871Y55700D01*
X-66969Y55771D01*
X-67064Y55844D01*
X-67157Y55921D01*
X-67247Y56000D01*
X-67335Y56082D01*
X-67420Y56167D01*
X-67502Y56255D01*
X-67581Y56345D01*
X-67658Y56438D01*
X-67731Y56533D01*
X-67802Y56631D01*
X-67869Y56730D01*
X-67933Y56832D01*
X-67993Y56936D01*
X-68051Y57041D01*
X-68105Y57149D01*
X-68155Y57258D01*
X-68202Y57369D01*
X-68245Y57481D01*
X-68285Y57594D01*
X-68321Y57709D01*
X-68353Y57825D01*
X-68382Y57942D01*
X-68407Y58059D01*
X-68428Y58178D01*
X-68445Y58296D01*
X-68459Y58416D01*
X-68468Y58536D01*
X-68474Y58656D01*
X-68476Y58776D01*
X-68474Y58896D01*
X-68468Y59016D01*
X-68459Y59136D01*
X-68445Y59256D01*
X-68428Y59374D01*
X-68407Y59493D01*
X-68382Y59610D01*
X-68353Y59727D01*
X-68321Y59843D01*
X-68285Y59958D01*
X-68245Y60071D01*
X-68202Y60183D01*
X-68155Y60294D01*
X-68105Y60403D01*
X-68051Y60511D01*
X-67993Y60616D01*
X-67933Y60720D01*
X-67869Y60822D01*
X-67802Y60921D01*
X-67731Y61019D01*
X-67658Y61114D01*
X-67581Y61207D01*
X-67502Y61297D01*
X-67420Y61385D01*
X-67335Y61470D01*
X-67247Y61552D01*
X-67157Y61631D01*
X-67064Y61708D01*
X-66969Y61781D01*
X-66871Y61852D01*
X-66772Y61919D01*
X-66670Y61983D01*
X-66566Y62043D01*
X-66461Y62101D01*
X-66353Y62155D01*
X-66244Y62205D01*
X-66133Y62252D01*
X-66021Y62295D01*
X-65908Y62335D01*
X-65793Y62371D01*
X-65677Y62403D01*
X-65560Y62432D01*
X-65443Y62457D01*
X-65324Y62478D01*
X-65206Y62495D01*
X-65086Y62509D01*
X-64966Y62518D01*
X-64846Y62524D01*
X-64726Y62526D01*
X-62726Y62526D01*
X-62606Y62524D01*
X-62486Y62518D01*
X-62366Y62509D01*
X-62246Y62495D01*
X-62128Y62478D01*
X-62009Y62457D01*
X-61892Y62432D01*
X-61775Y62403D01*
X-61659Y62371D01*
X-61544Y62335D01*
X-61431Y62295D01*
X-61319Y62252D01*
X-61208Y62205D01*
X-61099Y62155D01*
X-60991Y62101D01*
X-60886Y62043D01*
X-60782Y61983D01*
X-60680Y61919D01*
X-60581Y61852D01*
X-60483Y61781D01*
X-60388Y61708D01*
X-60295Y61631D01*
X-60205Y61552D01*
X-60117Y61470D01*
X-60032Y61385D01*
X-59950Y61297D01*
X-59871Y61207D01*
X-59794Y61114D01*
X-59721Y61019D01*
X-59650Y60921D01*
X-59583Y60822D01*
X-59519Y60720D01*
X-59459Y60616D01*
X-59401Y60511D01*
X-59347Y60403D01*
X-59297Y60294D01*
X-59250Y60183D01*
X-59207Y60071D01*
X-59167Y59958D01*
X-59131Y59843D01*
X-59099Y59727D01*
X-59070Y59610D01*
X-59045Y59493D01*
X-59024Y59374D01*
X-59007Y59256D01*
X-58993Y59136D01*
X-58984Y59016D01*
X-58978Y58896D01*
X-58976Y58776D01*
D12*
X-85726Y39276D02*
X-85728Y39409D01*
X-85734Y39543D01*
X-85744Y39676D01*
X-85758Y39808D01*
X-85775Y39940D01*
X-85797Y40072D01*
X-85822Y40203D01*
X-85852Y40333D01*
X-85885Y40462D01*
X-85922Y40590D01*
X-85963Y40717D01*
X-86008Y40843D01*
X-86056Y40967D01*
X-86108Y41090D01*
X-86163Y41211D01*
X-86223Y41331D01*
X-86285Y41449D01*
X-86351Y41564D01*
X-86421Y41678D01*
X-86494Y41790D01*
X-86570Y41899D01*
X-86649Y42007D01*
X-86732Y42111D01*
X-86817Y42214D01*
X-86906Y42313D01*
X-86997Y42410D01*
X-87092Y42505D01*
X-87189Y42596D01*
X-87288Y42685D01*
X-87391Y42770D01*
X-87495Y42853D01*
X-87603Y42932D01*
X-87712Y43008D01*
X-87824Y43081D01*
X-87938Y43151D01*
X-88053Y43217D01*
X-88171Y43279D01*
X-88291Y43339D01*
X-88412Y43394D01*
X-88535Y43446D01*
X-88659Y43494D01*
X-88785Y43539D01*
X-88912Y43580D01*
X-89040Y43617D01*
X-89169Y43650D01*
X-89299Y43680D01*
X-89430Y43705D01*
X-89562Y43727D01*
X-89694Y43744D01*
X-89826Y43758D01*
X-89959Y43768D01*
X-90093Y43774D01*
X-90226Y43776D01*
X-97226Y43776D01*
X-97359Y43774D01*
X-97493Y43768D01*
X-97626Y43758D01*
X-97758Y43744D01*
X-97890Y43727D01*
X-98022Y43705D01*
X-98153Y43680D01*
X-98283Y43650D01*
X-98412Y43617D01*
X-98540Y43580D01*
X-98667Y43539D01*
X-98793Y43494D01*
X-98917Y43446D01*
X-99040Y43394D01*
X-99161Y43339D01*
X-99281Y43279D01*
X-99399Y43217D01*
X-99514Y43151D01*
X-99628Y43081D01*
X-99740Y43008D01*
X-99849Y42932D01*
X-99957Y42853D01*
X-100061Y42770D01*
X-100164Y42685D01*
X-100263Y42596D01*
X-100360Y42505D01*
X-100455Y42410D01*
X-100546Y42313D01*
X-100635Y42214D01*
X-100720Y42111D01*
X-100803Y42007D01*
X-100882Y41899D01*
X-100958Y41790D01*
X-101031Y41678D01*
X-101101Y41564D01*
X-101167Y41449D01*
X-101229Y41331D01*
X-101289Y41211D01*
X-101344Y41090D01*
X-101396Y40967D01*
X-101444Y40843D01*
X-101489Y40717D01*
X-101530Y40590D01*
X-101567Y40462D01*
X-101600Y40333D01*
X-101630Y40203D01*
X-101655Y40072D01*
X-101677Y39940D01*
X-101694Y39808D01*
X-101708Y39676D01*
X-101718Y39543D01*
X-101724Y39409D01*
X-101726Y39276D01*
D25*
X-101226Y39276D02*
X-101224Y39150D01*
X-101218Y39025D01*
X-101208Y38900D01*
X-101194Y38775D01*
X-101177Y38650D01*
X-101155Y38526D01*
X-101130Y38403D01*
X-101100Y38281D01*
X-101067Y38160D01*
X-101030Y38040D01*
X-100990Y37921D01*
X-100945Y37804D01*
X-100897Y37687D01*
X-100845Y37573D01*
X-100790Y37460D01*
X-100731Y37349D01*
X-100669Y37240D01*
X-100603Y37133D01*
X-100534Y37028D01*
X-100462Y36925D01*
X-100387Y36824D01*
X-100308Y36726D01*
X-100226Y36631D01*
X-100142Y36538D01*
X-100054Y36448D01*
X-99964Y36360D01*
X-99871Y36276D01*
X-99776Y36194D01*
X-99678Y36115D01*
X-99577Y36040D01*
X-99474Y35968D01*
X-99369Y35899D01*
X-99262Y35833D01*
X-99153Y35771D01*
X-99042Y35712D01*
X-98929Y35657D01*
X-98815Y35605D01*
X-98698Y35557D01*
X-98581Y35512D01*
X-98462Y35472D01*
X-98342Y35435D01*
X-98221Y35402D01*
X-98099Y35372D01*
X-97976Y35347D01*
X-97852Y35325D01*
X-97727Y35308D01*
X-97602Y35294D01*
X-97477Y35284D01*
X-97352Y35278D01*
X-97226Y35276D01*
X-90226Y35276D01*
X-90100Y35278D01*
X-89975Y35284D01*
X-89850Y35294D01*
X-89725Y35308D01*
X-89600Y35325D01*
X-89476Y35347D01*
X-89353Y35372D01*
X-89231Y35402D01*
X-89110Y35435D01*
X-88990Y35472D01*
X-88871Y35512D01*
X-88754Y35557D01*
X-88637Y35605D01*
X-88523Y35657D01*
X-88410Y35712D01*
X-88299Y35771D01*
X-88190Y35833D01*
X-88083Y35899D01*
X-87978Y35968D01*
X-87875Y36040D01*
X-87774Y36115D01*
X-87676Y36194D01*
X-87581Y36276D01*
X-87488Y36360D01*
X-87398Y36448D01*
X-87310Y36538D01*
X-87226Y36631D01*
X-87144Y36726D01*
X-87065Y36824D01*
X-86990Y36925D01*
X-86918Y37028D01*
X-86849Y37133D01*
X-86783Y37240D01*
X-86721Y37349D01*
X-86662Y37460D01*
X-86607Y37573D01*
X-86555Y37687D01*
X-86507Y37804D01*
X-86462Y37921D01*
X-86422Y38040D01*
X-86385Y38160D01*
X-86352Y38281D01*
X-86322Y38403D01*
X-86297Y38526D01*
X-86275Y38650D01*
X-86258Y38775D01*
X-86244Y38900D01*
X-86234Y39025D01*
X-86228Y39150D01*
X-86226Y39276D01*
X-85226Y36776D02*
X-85226Y44276D01*
X-85226Y36776D02*
X-85228Y36700D01*
X-85234Y36624D01*
X-85243Y36549D01*
X-85257Y36474D01*
X-85274Y36400D01*
X-85295Y36327D01*
X-85319Y36255D01*
X-85348Y36184D01*
X-85379Y36115D01*
X-85414Y36048D01*
X-85453Y35983D01*
X-85495Y35919D01*
X-85540Y35858D01*
X-85588Y35799D01*
X-85639Y35743D01*
X-85693Y35689D01*
X-85749Y35638D01*
X-85808Y35590D01*
X-85869Y35545D01*
X-85933Y35503D01*
X-85998Y35464D01*
X-86065Y35429D01*
X-86134Y35398D01*
X-86205Y35369D01*
X-86277Y35345D01*
X-86350Y35324D01*
X-86424Y35307D01*
X-86499Y35293D01*
X-86574Y35284D01*
X-86650Y35278D01*
X-86726Y35276D01*
X-100726Y35276D01*
X-100802Y35278D01*
X-100878Y35284D01*
X-100953Y35293D01*
X-101028Y35307D01*
X-101102Y35324D01*
X-101175Y35345D01*
X-101247Y35369D01*
X-101318Y35398D01*
X-101387Y35429D01*
X-101454Y35464D01*
X-101519Y35503D01*
X-101583Y35545D01*
X-101644Y35590D01*
X-101703Y35638D01*
X-101759Y35689D01*
X-101813Y35743D01*
X-101864Y35799D01*
X-101912Y35858D01*
X-101957Y35919D01*
X-101999Y35983D01*
X-102038Y36048D01*
X-102073Y36115D01*
X-102104Y36184D01*
X-102133Y36255D01*
X-102157Y36327D01*
X-102178Y36400D01*
X-102195Y36474D01*
X-102209Y36549D01*
X-102218Y36624D01*
X-102224Y36700D01*
X-102226Y36776D01*
X-102226Y44276D01*
X-85226Y44276D01*
D27*
X-66976Y81026D03*
X-66976Y74526D03*
X-66976Y68026D03*
X-66976Y87526D03*
X-66976Y94026D03*
D28*
X-93726Y112894D03*
D29*
X-93726Y69526D03*
X-93726Y92526D03*
D28*
X-93726Y49159D03*
D30*
X1397Y120523D03*
D31*
X1448Y97485D03*
D10*
X-30480Y99069D03*
X-30480Y116069D03*
M02*
