G04 EAGLE Gerber RS-274X export*
G75*
%MOMM*%
%FSLAX34Y34*%
%LPD*%
%INSoldermask Top*%
%IPPOS*%
%AMOC8*
5,1,8,0,0,1.08239X$1,22.5*%
G01*
%ADD10R,1.203200X1.303200*%
%ADD11R,1.303200X1.203200*%
%ADD12C,0.505344*%
%ADD13R,0.833200X1.033200*%
%ADD14R,1.503200X1.503200*%
%ADD15C,3.719200*%
%ADD16R,2.903200X1.203200*%
%ADD17R,1.903200X0.803200*%
%ADD18R,1.403200X0.753200*%
%ADD19R,0.503200X1.003200*%
%ADD20R,0.400000X0.800000*%
%ADD21C,2.753200*%
%ADD22C,1.711200*%
%ADD23C,1.727200*%
%ADD24P,1.869504X8X202.500000*%
%ADD25R,1.473200X0.762000*%
%ADD26R,0.762000X1.473200*%
%ADD27R,2.103200X0.603200*%
%ADD28R,1.603200X1.203200*%
%ADD29R,0.551200X1.600200*%
%ADD30C,0.200000*%
%ADD31C,0.300000*%
%ADD32R,1.553200X0.603200*%
%ADD33R,2.103200X1.378200*%
%ADD34R,2.103200X2.003200*%
%ADD35C,0.703200*%
%ADD36R,2.870200X2.743200*%
%ADD37R,1.473200X0.965200*%


D10*
X113030Y265693D03*
X113030Y282693D03*
X90805Y265693D03*
X90805Y282693D03*
D11*
X183905Y240157D03*
X200905Y240157D03*
X183905Y223012D03*
X200905Y223012D03*
X183905Y205867D03*
X200905Y205867D03*
D10*
X226060Y231258D03*
X226060Y214258D03*
D12*
X70685Y251653D02*
X70685Y258633D01*
X77665Y258633D01*
X77665Y251653D01*
X70685Y251653D01*
X70685Y256453D02*
X77665Y256453D01*
X53145Y258633D02*
X53145Y251653D01*
X53145Y258633D02*
X60125Y258633D01*
X60125Y251653D01*
X53145Y251653D01*
X53145Y256453D02*
X60125Y256453D01*
D13*
X115005Y204343D03*
X92005Y204343D03*
D14*
X55880Y238393D03*
X55880Y208393D03*
D10*
X141605Y241418D03*
X141605Y224418D03*
D11*
X56905Y271018D03*
X73905Y271018D03*
D10*
X163830Y224418D03*
X163830Y241418D03*
X248285Y214258D03*
X248285Y231258D03*
D15*
X168910Y290830D03*
X-65740Y11450D03*
X426530Y13480D03*
X428880Y291315D03*
D16*
X438620Y81073D03*
X438620Y143073D03*
D17*
X406620Y99573D03*
X406620Y112073D03*
X406620Y124573D03*
D18*
X116506Y223418D03*
X116506Y232918D03*
X116506Y242418D03*
X90504Y242418D03*
X90504Y223418D03*
D19*
X337535Y260033D03*
X332535Y260033D03*
X327535Y260033D03*
X322535Y260033D03*
X317535Y260033D03*
X312535Y260033D03*
X307535Y260033D03*
X302535Y260033D03*
X297535Y260033D03*
X292535Y260033D03*
X287535Y260033D03*
X282535Y260033D03*
X277535Y260033D03*
X272535Y260033D03*
X267535Y260033D03*
X262535Y260033D03*
X257535Y260033D03*
X252535Y260033D03*
X247535Y260033D03*
X242535Y260033D03*
X237535Y260033D03*
X232535Y260033D03*
X227535Y260033D03*
X222535Y260033D03*
D20*
X347535Y285033D03*
X212535Y285033D03*
D21*
X9652Y196850D03*
X9652Y246850D03*
D22*
X-90348Y166850D03*
X-90348Y276850D03*
D23*
X330200Y53340D03*
D24*
X304800Y53340D03*
X279400Y53340D03*
X330200Y27940D03*
X304800Y27940D03*
X279400Y27940D03*
D16*
X438112Y167941D03*
X438112Y229941D03*
D17*
X406112Y186441D03*
X406112Y198941D03*
X406112Y211441D03*
D25*
X261493Y168589D03*
X261493Y160589D03*
X261493Y152589D03*
X261493Y144589D03*
X261493Y136589D03*
X261493Y128589D03*
X261493Y120589D03*
X261493Y112589D03*
D26*
X276419Y97663D03*
X284419Y97663D03*
X292419Y97663D03*
X300419Y97663D03*
X308419Y97663D03*
X316419Y97663D03*
X324419Y97663D03*
X332419Y97663D03*
D25*
X347345Y112589D03*
X347345Y120589D03*
X347345Y128589D03*
X347345Y136589D03*
X347345Y144589D03*
X347345Y152589D03*
X347345Y160589D03*
X347345Y168589D03*
D26*
X332419Y183515D03*
X324419Y183515D03*
X316419Y183515D03*
X308419Y183515D03*
X300419Y183515D03*
X292419Y183515D03*
X284419Y183515D03*
X276419Y183515D03*
D27*
X232189Y101568D03*
X232189Y113568D03*
X232189Y125568D03*
D11*
X370087Y136398D03*
X387087Y136398D03*
D10*
X170180Y162696D03*
X170180Y179696D03*
X191135Y162696D03*
X191135Y179696D03*
D11*
X353060Y217687D03*
X353060Y234687D03*
D28*
X381269Y300562D03*
X381269Y230562D03*
D11*
X233680Y162696D03*
X233680Y179696D03*
X212852Y162823D03*
X212852Y179823D03*
X357505Y22234D03*
X357505Y39234D03*
X332486Y234560D03*
X332486Y217560D03*
X306832Y234814D03*
X306832Y217814D03*
D29*
X120355Y23765D03*
X113855Y23765D03*
X107355Y23765D03*
X100855Y23765D03*
X94355Y23765D03*
X87855Y23765D03*
X81355Y23765D03*
X68355Y23765D03*
X74855Y23765D03*
X61855Y23765D03*
X55355Y23765D03*
X48855Y23765D03*
X42355Y23765D03*
X35855Y23765D03*
X120355Y96885D03*
X113855Y96885D03*
X107355Y96885D03*
X100855Y96885D03*
X94355Y96885D03*
X87855Y96885D03*
X81355Y96885D03*
X74855Y96885D03*
X68355Y96885D03*
X61855Y96885D03*
X55355Y96885D03*
X48855Y96885D03*
X42355Y96885D03*
X35855Y96885D03*
D11*
X159013Y92202D03*
X176013Y92202D03*
D10*
X175886Y68707D03*
X158886Y68707D03*
X175886Y48260D03*
X158886Y48260D03*
D12*
X204524Y65344D02*
X204524Y72324D01*
X204524Y65344D02*
X197544Y65344D01*
X197544Y72324D01*
X204524Y72324D01*
X204524Y70144D02*
X197544Y70144D01*
X222064Y72324D02*
X222064Y65344D01*
X215084Y65344D01*
X215084Y72324D01*
X222064Y72324D01*
X222064Y70144D02*
X215084Y70144D01*
X204397Y51750D02*
X204397Y44770D01*
X197417Y44770D01*
X197417Y51750D01*
X204397Y51750D01*
X204397Y49570D02*
X197417Y49570D01*
X221937Y51750D02*
X221937Y44770D01*
X214957Y44770D01*
X214957Y51750D01*
X221937Y51750D01*
X221937Y49570D02*
X214957Y49570D01*
D30*
X-58476Y103276D02*
X-58478Y103148D01*
X-58484Y103019D01*
X-58493Y102891D01*
X-58507Y102764D01*
X-58524Y102637D01*
X-58546Y102510D01*
X-58571Y102384D01*
X-58599Y102259D01*
X-58632Y102135D01*
X-58668Y102012D01*
X-58708Y101890D01*
X-58752Y101769D01*
X-58800Y101650D01*
X-58850Y101532D01*
X-58905Y101415D01*
X-58963Y101301D01*
X-59024Y101188D01*
X-59089Y101077D01*
X-59157Y100968D01*
X-59228Y100862D01*
X-59303Y100757D01*
X-59380Y100655D01*
X-59461Y100555D01*
X-59545Y100458D01*
X-59631Y100363D01*
X-59721Y100271D01*
X-59813Y100181D01*
X-59908Y100095D01*
X-60005Y100011D01*
X-60105Y99930D01*
X-60207Y99853D01*
X-60312Y99778D01*
X-60418Y99707D01*
X-60527Y99639D01*
X-60638Y99574D01*
X-60751Y99513D01*
X-60865Y99455D01*
X-60982Y99400D01*
X-61100Y99350D01*
X-61219Y99302D01*
X-61340Y99258D01*
X-61462Y99218D01*
X-61585Y99182D01*
X-61709Y99149D01*
X-61834Y99121D01*
X-61960Y99096D01*
X-62087Y99074D01*
X-62214Y99057D01*
X-62341Y99043D01*
X-62469Y99034D01*
X-62598Y99028D01*
X-62726Y99026D01*
X-64726Y99026D01*
X-64854Y99028D01*
X-64983Y99034D01*
X-65111Y99043D01*
X-65238Y99057D01*
X-65365Y99074D01*
X-65492Y99096D01*
X-65618Y99121D01*
X-65743Y99149D01*
X-65867Y99182D01*
X-65990Y99218D01*
X-66112Y99258D01*
X-66233Y99302D01*
X-66352Y99350D01*
X-66470Y99400D01*
X-66587Y99455D01*
X-66701Y99513D01*
X-66814Y99574D01*
X-66925Y99639D01*
X-67034Y99707D01*
X-67140Y99778D01*
X-67245Y99853D01*
X-67347Y99930D01*
X-67447Y100011D01*
X-67544Y100095D01*
X-67639Y100181D01*
X-67731Y100271D01*
X-67821Y100363D01*
X-67907Y100458D01*
X-67991Y100555D01*
X-68072Y100655D01*
X-68149Y100757D01*
X-68224Y100862D01*
X-68295Y100968D01*
X-68363Y101077D01*
X-68428Y101188D01*
X-68489Y101301D01*
X-68547Y101415D01*
X-68602Y101532D01*
X-68652Y101650D01*
X-68700Y101769D01*
X-68744Y101890D01*
X-68784Y102012D01*
X-68820Y102135D01*
X-68853Y102259D01*
X-68881Y102384D01*
X-68906Y102510D01*
X-68928Y102637D01*
X-68945Y102764D01*
X-68959Y102891D01*
X-68968Y103019D01*
X-68974Y103148D01*
X-68976Y103276D01*
X-68974Y103404D01*
X-68968Y103533D01*
X-68959Y103661D01*
X-68945Y103788D01*
X-68928Y103915D01*
X-68906Y104042D01*
X-68881Y104168D01*
X-68853Y104293D01*
X-68820Y104417D01*
X-68784Y104540D01*
X-68744Y104662D01*
X-68700Y104783D01*
X-68652Y104902D01*
X-68602Y105020D01*
X-68547Y105137D01*
X-68489Y105251D01*
X-68428Y105364D01*
X-68363Y105475D01*
X-68295Y105584D01*
X-68224Y105690D01*
X-68149Y105795D01*
X-68072Y105897D01*
X-67991Y105997D01*
X-67907Y106094D01*
X-67821Y106189D01*
X-67731Y106281D01*
X-67639Y106371D01*
X-67544Y106457D01*
X-67447Y106541D01*
X-67347Y106622D01*
X-67245Y106699D01*
X-67140Y106774D01*
X-67034Y106845D01*
X-66925Y106913D01*
X-66814Y106978D01*
X-66701Y107039D01*
X-66587Y107097D01*
X-66470Y107152D01*
X-66352Y107202D01*
X-66233Y107250D01*
X-66112Y107294D01*
X-65990Y107334D01*
X-65867Y107370D01*
X-65743Y107403D01*
X-65618Y107431D01*
X-65492Y107456D01*
X-65365Y107478D01*
X-65238Y107495D01*
X-65111Y107509D01*
X-64983Y107518D01*
X-64854Y107524D01*
X-64726Y107526D01*
X-62726Y107526D01*
X-62598Y107524D01*
X-62469Y107518D01*
X-62341Y107509D01*
X-62214Y107495D01*
X-62087Y107478D01*
X-61960Y107456D01*
X-61834Y107431D01*
X-61709Y107403D01*
X-61585Y107370D01*
X-61462Y107334D01*
X-61340Y107294D01*
X-61219Y107250D01*
X-61100Y107202D01*
X-60982Y107152D01*
X-60865Y107097D01*
X-60751Y107039D01*
X-60638Y106978D01*
X-60527Y106913D01*
X-60418Y106845D01*
X-60312Y106774D01*
X-60207Y106699D01*
X-60105Y106622D01*
X-60005Y106541D01*
X-59908Y106457D01*
X-59813Y106371D01*
X-59721Y106281D01*
X-59631Y106189D01*
X-59545Y106094D01*
X-59461Y105997D01*
X-59380Y105897D01*
X-59303Y105795D01*
X-59228Y105690D01*
X-59157Y105584D01*
X-59089Y105475D01*
X-59024Y105364D01*
X-58963Y105251D01*
X-58905Y105137D01*
X-58850Y105020D01*
X-58800Y104902D01*
X-58752Y104783D01*
X-58708Y104662D01*
X-58668Y104540D01*
X-58632Y104417D01*
X-58599Y104293D01*
X-58571Y104168D01*
X-58546Y104042D01*
X-58524Y103915D01*
X-58507Y103788D01*
X-58493Y103661D01*
X-58484Y103533D01*
X-58478Y103404D01*
X-58476Y103276D01*
X-58476Y58776D02*
X-58478Y58648D01*
X-58484Y58519D01*
X-58493Y58391D01*
X-58507Y58264D01*
X-58524Y58137D01*
X-58546Y58010D01*
X-58571Y57884D01*
X-58599Y57759D01*
X-58632Y57635D01*
X-58668Y57512D01*
X-58708Y57390D01*
X-58752Y57269D01*
X-58800Y57150D01*
X-58850Y57032D01*
X-58905Y56915D01*
X-58963Y56801D01*
X-59024Y56688D01*
X-59089Y56577D01*
X-59157Y56468D01*
X-59228Y56362D01*
X-59303Y56257D01*
X-59380Y56155D01*
X-59461Y56055D01*
X-59545Y55958D01*
X-59631Y55863D01*
X-59721Y55771D01*
X-59813Y55681D01*
X-59908Y55595D01*
X-60005Y55511D01*
X-60105Y55430D01*
X-60207Y55353D01*
X-60312Y55278D01*
X-60418Y55207D01*
X-60527Y55139D01*
X-60638Y55074D01*
X-60751Y55013D01*
X-60865Y54955D01*
X-60982Y54900D01*
X-61100Y54850D01*
X-61219Y54802D01*
X-61340Y54758D01*
X-61462Y54718D01*
X-61585Y54682D01*
X-61709Y54649D01*
X-61834Y54621D01*
X-61960Y54596D01*
X-62087Y54574D01*
X-62214Y54557D01*
X-62341Y54543D01*
X-62469Y54534D01*
X-62598Y54528D01*
X-62726Y54526D01*
X-64726Y54526D01*
X-64854Y54528D01*
X-64983Y54534D01*
X-65111Y54543D01*
X-65238Y54557D01*
X-65365Y54574D01*
X-65492Y54596D01*
X-65618Y54621D01*
X-65743Y54649D01*
X-65867Y54682D01*
X-65990Y54718D01*
X-66112Y54758D01*
X-66233Y54802D01*
X-66352Y54850D01*
X-66470Y54900D01*
X-66587Y54955D01*
X-66701Y55013D01*
X-66814Y55074D01*
X-66925Y55139D01*
X-67034Y55207D01*
X-67140Y55278D01*
X-67245Y55353D01*
X-67347Y55430D01*
X-67447Y55511D01*
X-67544Y55595D01*
X-67639Y55681D01*
X-67731Y55771D01*
X-67821Y55863D01*
X-67907Y55958D01*
X-67991Y56055D01*
X-68072Y56155D01*
X-68149Y56257D01*
X-68224Y56362D01*
X-68295Y56468D01*
X-68363Y56577D01*
X-68428Y56688D01*
X-68489Y56801D01*
X-68547Y56915D01*
X-68602Y57032D01*
X-68652Y57150D01*
X-68700Y57269D01*
X-68744Y57390D01*
X-68784Y57512D01*
X-68820Y57635D01*
X-68853Y57759D01*
X-68881Y57884D01*
X-68906Y58010D01*
X-68928Y58137D01*
X-68945Y58264D01*
X-68959Y58391D01*
X-68968Y58519D01*
X-68974Y58648D01*
X-68976Y58776D01*
X-68974Y58904D01*
X-68968Y59033D01*
X-68959Y59161D01*
X-68945Y59288D01*
X-68928Y59415D01*
X-68906Y59542D01*
X-68881Y59668D01*
X-68853Y59793D01*
X-68820Y59917D01*
X-68784Y60040D01*
X-68744Y60162D01*
X-68700Y60283D01*
X-68652Y60402D01*
X-68602Y60520D01*
X-68547Y60637D01*
X-68489Y60751D01*
X-68428Y60864D01*
X-68363Y60975D01*
X-68295Y61084D01*
X-68224Y61190D01*
X-68149Y61295D01*
X-68072Y61397D01*
X-67991Y61497D01*
X-67907Y61594D01*
X-67821Y61689D01*
X-67731Y61781D01*
X-67639Y61871D01*
X-67544Y61957D01*
X-67447Y62041D01*
X-67347Y62122D01*
X-67245Y62199D01*
X-67140Y62274D01*
X-67034Y62345D01*
X-66925Y62413D01*
X-66814Y62478D01*
X-66701Y62539D01*
X-66587Y62597D01*
X-66470Y62652D01*
X-66352Y62702D01*
X-66233Y62750D01*
X-66112Y62794D01*
X-65990Y62834D01*
X-65867Y62870D01*
X-65743Y62903D01*
X-65618Y62931D01*
X-65492Y62956D01*
X-65365Y62978D01*
X-65238Y62995D01*
X-65111Y63009D01*
X-64983Y63018D01*
X-64854Y63024D01*
X-64726Y63026D01*
X-62726Y63026D01*
X-62598Y63024D01*
X-62469Y63018D01*
X-62341Y63009D01*
X-62214Y62995D01*
X-62087Y62978D01*
X-61960Y62956D01*
X-61834Y62931D01*
X-61709Y62903D01*
X-61585Y62870D01*
X-61462Y62834D01*
X-61340Y62794D01*
X-61219Y62750D01*
X-61100Y62702D01*
X-60982Y62652D01*
X-60865Y62597D01*
X-60751Y62539D01*
X-60638Y62478D01*
X-60527Y62413D01*
X-60418Y62345D01*
X-60312Y62274D01*
X-60207Y62199D01*
X-60105Y62122D01*
X-60005Y62041D01*
X-59908Y61957D01*
X-59813Y61871D01*
X-59721Y61781D01*
X-59631Y61689D01*
X-59545Y61594D01*
X-59461Y61497D01*
X-59380Y61397D01*
X-59303Y61295D01*
X-59228Y61190D01*
X-59157Y61084D01*
X-59089Y60975D01*
X-59024Y60864D01*
X-58963Y60751D01*
X-58905Y60637D01*
X-58850Y60520D01*
X-58800Y60402D01*
X-58752Y60283D01*
X-58708Y60162D01*
X-58668Y60040D01*
X-58632Y59917D01*
X-58599Y59793D01*
X-58571Y59668D01*
X-58546Y59542D01*
X-58524Y59415D01*
X-58507Y59288D01*
X-58493Y59161D01*
X-58484Y59033D01*
X-58478Y58904D01*
X-58476Y58776D01*
D31*
X-90226Y118276D02*
X-90093Y118278D01*
X-89959Y118284D01*
X-89826Y118294D01*
X-89694Y118308D01*
X-89562Y118325D01*
X-89430Y118347D01*
X-89299Y118372D01*
X-89169Y118402D01*
X-89040Y118435D01*
X-88912Y118472D01*
X-88785Y118513D01*
X-88659Y118558D01*
X-88535Y118606D01*
X-88412Y118658D01*
X-88291Y118713D01*
X-88171Y118773D01*
X-88053Y118835D01*
X-87938Y118901D01*
X-87824Y118971D01*
X-87712Y119044D01*
X-87603Y119120D01*
X-87495Y119199D01*
X-87391Y119282D01*
X-87288Y119367D01*
X-87189Y119456D01*
X-87092Y119547D01*
X-86997Y119642D01*
X-86906Y119739D01*
X-86817Y119838D01*
X-86732Y119941D01*
X-86649Y120045D01*
X-86570Y120153D01*
X-86494Y120262D01*
X-86421Y120374D01*
X-86351Y120488D01*
X-86285Y120603D01*
X-86223Y120721D01*
X-86163Y120841D01*
X-86108Y120962D01*
X-86056Y121085D01*
X-86008Y121209D01*
X-85963Y121335D01*
X-85922Y121462D01*
X-85885Y121590D01*
X-85852Y121719D01*
X-85822Y121849D01*
X-85797Y121980D01*
X-85775Y122112D01*
X-85758Y122244D01*
X-85744Y122376D01*
X-85734Y122509D01*
X-85728Y122643D01*
X-85726Y122776D01*
X-90226Y118276D02*
X-97226Y118276D01*
X-97359Y118278D01*
X-97493Y118284D01*
X-97626Y118294D01*
X-97758Y118308D01*
X-97890Y118325D01*
X-98022Y118347D01*
X-98153Y118372D01*
X-98283Y118402D01*
X-98412Y118435D01*
X-98540Y118472D01*
X-98667Y118513D01*
X-98793Y118558D01*
X-98917Y118606D01*
X-99040Y118658D01*
X-99161Y118713D01*
X-99281Y118773D01*
X-99399Y118835D01*
X-99514Y118901D01*
X-99628Y118971D01*
X-99740Y119044D01*
X-99849Y119120D01*
X-99957Y119199D01*
X-100061Y119282D01*
X-100164Y119367D01*
X-100263Y119456D01*
X-100360Y119547D01*
X-100455Y119642D01*
X-100546Y119739D01*
X-100635Y119838D01*
X-100720Y119941D01*
X-100803Y120045D01*
X-100882Y120153D01*
X-100958Y120262D01*
X-101031Y120374D01*
X-101101Y120488D01*
X-101167Y120603D01*
X-101229Y120721D01*
X-101289Y120841D01*
X-101344Y120962D01*
X-101396Y121085D01*
X-101444Y121209D01*
X-101489Y121335D01*
X-101530Y121462D01*
X-101567Y121590D01*
X-101600Y121719D01*
X-101630Y121849D01*
X-101655Y121980D01*
X-101677Y122112D01*
X-101694Y122244D01*
X-101708Y122376D01*
X-101718Y122509D01*
X-101724Y122643D01*
X-101726Y122776D01*
X-101724Y122909D01*
X-101718Y123043D01*
X-101708Y123176D01*
X-101694Y123308D01*
X-101677Y123440D01*
X-101655Y123572D01*
X-101630Y123703D01*
X-101600Y123833D01*
X-101567Y123962D01*
X-101530Y124090D01*
X-101489Y124217D01*
X-101444Y124343D01*
X-101396Y124467D01*
X-101344Y124590D01*
X-101289Y124711D01*
X-101229Y124831D01*
X-101167Y124949D01*
X-101101Y125064D01*
X-101031Y125178D01*
X-100958Y125290D01*
X-100882Y125399D01*
X-100803Y125507D01*
X-100720Y125611D01*
X-100635Y125714D01*
X-100546Y125813D01*
X-100455Y125910D01*
X-100360Y126005D01*
X-100263Y126096D01*
X-100164Y126185D01*
X-100061Y126270D01*
X-99957Y126353D01*
X-99849Y126432D01*
X-99740Y126508D01*
X-99628Y126581D01*
X-99514Y126651D01*
X-99399Y126717D01*
X-99281Y126779D01*
X-99161Y126839D01*
X-99040Y126894D01*
X-98917Y126946D01*
X-98793Y126994D01*
X-98667Y127039D01*
X-98540Y127080D01*
X-98412Y127117D01*
X-98283Y127150D01*
X-98153Y127180D01*
X-98022Y127205D01*
X-97890Y127227D01*
X-97758Y127244D01*
X-97626Y127258D01*
X-97493Y127268D01*
X-97359Y127274D01*
X-97226Y127276D01*
X-90226Y127276D01*
X-90093Y127274D01*
X-89959Y127268D01*
X-89826Y127258D01*
X-89694Y127244D01*
X-89562Y127227D01*
X-89430Y127205D01*
X-89299Y127180D01*
X-89169Y127150D01*
X-89040Y127117D01*
X-88912Y127080D01*
X-88785Y127039D01*
X-88659Y126994D01*
X-88535Y126946D01*
X-88412Y126894D01*
X-88291Y126839D01*
X-88171Y126779D01*
X-88053Y126717D01*
X-87938Y126651D01*
X-87824Y126581D01*
X-87712Y126508D01*
X-87603Y126432D01*
X-87495Y126353D01*
X-87391Y126270D01*
X-87288Y126185D01*
X-87189Y126096D01*
X-87092Y126005D01*
X-86997Y125910D01*
X-86906Y125813D01*
X-86817Y125714D01*
X-86732Y125611D01*
X-86649Y125507D01*
X-86570Y125399D01*
X-86494Y125290D01*
X-86421Y125178D01*
X-86351Y125064D01*
X-86285Y124949D01*
X-86223Y124831D01*
X-86163Y124711D01*
X-86108Y124590D01*
X-86056Y124467D01*
X-86008Y124343D01*
X-85963Y124217D01*
X-85922Y124090D01*
X-85885Y123962D01*
X-85852Y123833D01*
X-85822Y123703D01*
X-85797Y123572D01*
X-85775Y123440D01*
X-85758Y123308D01*
X-85744Y123176D01*
X-85734Y123043D01*
X-85728Y122909D01*
X-85726Y122776D01*
D30*
X-84226Y125276D02*
X-84226Y117776D01*
X-84226Y125276D02*
X-84228Y125374D01*
X-84234Y125472D01*
X-84243Y125570D01*
X-84257Y125667D01*
X-84274Y125764D01*
X-84295Y125860D01*
X-84320Y125955D01*
X-84348Y126049D01*
X-84381Y126141D01*
X-84416Y126233D01*
X-84456Y126323D01*
X-84498Y126411D01*
X-84545Y126498D01*
X-84594Y126582D01*
X-84647Y126665D01*
X-84703Y126745D01*
X-84763Y126824D01*
X-84825Y126900D01*
X-84890Y126973D01*
X-84958Y127044D01*
X-85029Y127112D01*
X-85102Y127177D01*
X-85178Y127239D01*
X-85257Y127299D01*
X-85337Y127355D01*
X-85420Y127408D01*
X-85504Y127457D01*
X-85591Y127504D01*
X-85679Y127546D01*
X-85769Y127586D01*
X-85861Y127621D01*
X-85953Y127654D01*
X-86047Y127682D01*
X-86142Y127707D01*
X-86238Y127728D01*
X-86335Y127745D01*
X-86432Y127759D01*
X-86530Y127768D01*
X-86628Y127774D01*
X-86726Y127776D01*
X-100726Y127776D01*
X-100824Y127774D01*
X-100922Y127768D01*
X-101020Y127759D01*
X-101117Y127745D01*
X-101214Y127728D01*
X-101310Y127707D01*
X-101405Y127682D01*
X-101499Y127654D01*
X-101591Y127621D01*
X-101683Y127586D01*
X-101773Y127546D01*
X-101861Y127504D01*
X-101948Y127457D01*
X-102032Y127408D01*
X-102115Y127355D01*
X-102195Y127299D01*
X-102274Y127239D01*
X-102350Y127177D01*
X-102423Y127112D01*
X-102494Y127044D01*
X-102562Y126973D01*
X-102627Y126900D01*
X-102689Y126824D01*
X-102749Y126745D01*
X-102805Y126665D01*
X-102858Y126582D01*
X-102907Y126498D01*
X-102954Y126411D01*
X-102996Y126323D01*
X-103036Y126233D01*
X-103071Y126141D01*
X-103104Y126049D01*
X-103132Y125955D01*
X-103157Y125860D01*
X-103178Y125764D01*
X-103195Y125667D01*
X-103209Y125570D01*
X-103218Y125472D01*
X-103224Y125374D01*
X-103226Y125276D01*
X-103226Y117776D01*
X-84226Y117776D01*
D31*
X-90226Y43776D02*
X-90093Y43774D01*
X-89959Y43768D01*
X-89826Y43758D01*
X-89694Y43744D01*
X-89562Y43727D01*
X-89430Y43705D01*
X-89299Y43680D01*
X-89169Y43650D01*
X-89040Y43617D01*
X-88912Y43580D01*
X-88785Y43539D01*
X-88659Y43494D01*
X-88535Y43446D01*
X-88412Y43394D01*
X-88291Y43339D01*
X-88171Y43279D01*
X-88053Y43217D01*
X-87938Y43151D01*
X-87824Y43081D01*
X-87712Y43008D01*
X-87603Y42932D01*
X-87495Y42853D01*
X-87391Y42770D01*
X-87288Y42685D01*
X-87189Y42596D01*
X-87092Y42505D01*
X-86997Y42410D01*
X-86906Y42313D01*
X-86817Y42214D01*
X-86732Y42111D01*
X-86649Y42007D01*
X-86570Y41899D01*
X-86494Y41790D01*
X-86421Y41678D01*
X-86351Y41564D01*
X-86285Y41449D01*
X-86223Y41331D01*
X-86163Y41211D01*
X-86108Y41090D01*
X-86056Y40967D01*
X-86008Y40843D01*
X-85963Y40717D01*
X-85922Y40590D01*
X-85885Y40462D01*
X-85852Y40333D01*
X-85822Y40203D01*
X-85797Y40072D01*
X-85775Y39940D01*
X-85758Y39808D01*
X-85744Y39676D01*
X-85734Y39543D01*
X-85728Y39409D01*
X-85726Y39276D01*
X-90226Y43776D02*
X-97226Y43776D01*
X-97359Y43774D01*
X-97493Y43768D01*
X-97626Y43758D01*
X-97758Y43744D01*
X-97890Y43727D01*
X-98022Y43705D01*
X-98153Y43680D01*
X-98283Y43650D01*
X-98412Y43617D01*
X-98540Y43580D01*
X-98667Y43539D01*
X-98793Y43494D01*
X-98917Y43446D01*
X-99040Y43394D01*
X-99161Y43339D01*
X-99281Y43279D01*
X-99399Y43217D01*
X-99514Y43151D01*
X-99628Y43081D01*
X-99740Y43008D01*
X-99849Y42932D01*
X-99957Y42853D01*
X-100061Y42770D01*
X-100164Y42685D01*
X-100263Y42596D01*
X-100360Y42505D01*
X-100455Y42410D01*
X-100546Y42313D01*
X-100635Y42214D01*
X-100720Y42111D01*
X-100803Y42007D01*
X-100882Y41899D01*
X-100958Y41790D01*
X-101031Y41678D01*
X-101101Y41564D01*
X-101167Y41449D01*
X-101229Y41331D01*
X-101289Y41211D01*
X-101344Y41090D01*
X-101396Y40967D01*
X-101444Y40843D01*
X-101489Y40717D01*
X-101530Y40590D01*
X-101567Y40462D01*
X-101600Y40333D01*
X-101630Y40203D01*
X-101655Y40072D01*
X-101677Y39940D01*
X-101694Y39808D01*
X-101708Y39676D01*
X-101718Y39543D01*
X-101724Y39409D01*
X-101726Y39276D01*
X-101724Y39143D01*
X-101718Y39009D01*
X-101708Y38876D01*
X-101694Y38744D01*
X-101677Y38612D01*
X-101655Y38480D01*
X-101630Y38349D01*
X-101600Y38219D01*
X-101567Y38090D01*
X-101530Y37962D01*
X-101489Y37835D01*
X-101444Y37709D01*
X-101396Y37585D01*
X-101344Y37462D01*
X-101289Y37341D01*
X-101229Y37221D01*
X-101167Y37103D01*
X-101101Y36988D01*
X-101031Y36874D01*
X-100958Y36762D01*
X-100882Y36653D01*
X-100803Y36545D01*
X-100720Y36441D01*
X-100635Y36338D01*
X-100546Y36239D01*
X-100455Y36142D01*
X-100360Y36047D01*
X-100263Y35956D01*
X-100164Y35867D01*
X-100061Y35782D01*
X-99957Y35699D01*
X-99849Y35620D01*
X-99740Y35544D01*
X-99628Y35471D01*
X-99514Y35401D01*
X-99399Y35335D01*
X-99281Y35273D01*
X-99161Y35213D01*
X-99040Y35158D01*
X-98917Y35106D01*
X-98793Y35058D01*
X-98667Y35013D01*
X-98540Y34972D01*
X-98412Y34935D01*
X-98283Y34902D01*
X-98153Y34872D01*
X-98022Y34847D01*
X-97890Y34825D01*
X-97758Y34808D01*
X-97626Y34794D01*
X-97493Y34784D01*
X-97359Y34778D01*
X-97226Y34776D01*
X-90226Y34776D01*
X-90093Y34778D01*
X-89959Y34784D01*
X-89826Y34794D01*
X-89694Y34808D01*
X-89562Y34825D01*
X-89430Y34847D01*
X-89299Y34872D01*
X-89169Y34902D01*
X-89040Y34935D01*
X-88912Y34972D01*
X-88785Y35013D01*
X-88659Y35058D01*
X-88535Y35106D01*
X-88412Y35158D01*
X-88291Y35213D01*
X-88171Y35273D01*
X-88053Y35335D01*
X-87938Y35401D01*
X-87824Y35471D01*
X-87712Y35544D01*
X-87603Y35620D01*
X-87495Y35699D01*
X-87391Y35782D01*
X-87288Y35867D01*
X-87189Y35956D01*
X-87092Y36047D01*
X-86997Y36142D01*
X-86906Y36239D01*
X-86817Y36338D01*
X-86732Y36441D01*
X-86649Y36545D01*
X-86570Y36653D01*
X-86494Y36762D01*
X-86421Y36874D01*
X-86351Y36988D01*
X-86285Y37103D01*
X-86223Y37221D01*
X-86163Y37341D01*
X-86108Y37462D01*
X-86056Y37585D01*
X-86008Y37709D01*
X-85963Y37835D01*
X-85922Y37962D01*
X-85885Y38090D01*
X-85852Y38219D01*
X-85822Y38349D01*
X-85797Y38480D01*
X-85775Y38612D01*
X-85758Y38744D01*
X-85744Y38876D01*
X-85734Y39009D01*
X-85728Y39143D01*
X-85726Y39276D01*
D30*
X-84226Y36776D02*
X-84226Y44276D01*
X-84226Y36776D02*
X-84228Y36678D01*
X-84234Y36580D01*
X-84243Y36482D01*
X-84257Y36385D01*
X-84274Y36288D01*
X-84295Y36192D01*
X-84320Y36097D01*
X-84348Y36003D01*
X-84381Y35911D01*
X-84416Y35819D01*
X-84456Y35729D01*
X-84498Y35641D01*
X-84545Y35554D01*
X-84594Y35470D01*
X-84647Y35387D01*
X-84703Y35307D01*
X-84763Y35228D01*
X-84825Y35152D01*
X-84890Y35079D01*
X-84958Y35008D01*
X-85029Y34940D01*
X-85102Y34875D01*
X-85178Y34813D01*
X-85257Y34753D01*
X-85337Y34697D01*
X-85420Y34644D01*
X-85504Y34595D01*
X-85591Y34548D01*
X-85679Y34506D01*
X-85769Y34466D01*
X-85861Y34431D01*
X-85953Y34398D01*
X-86047Y34370D01*
X-86142Y34345D01*
X-86238Y34324D01*
X-86335Y34307D01*
X-86432Y34293D01*
X-86530Y34284D01*
X-86628Y34278D01*
X-86726Y34276D01*
X-100726Y34276D01*
X-100824Y34278D01*
X-100922Y34284D01*
X-101020Y34293D01*
X-101117Y34307D01*
X-101214Y34324D01*
X-101310Y34345D01*
X-101405Y34370D01*
X-101499Y34398D01*
X-101591Y34431D01*
X-101683Y34466D01*
X-101773Y34506D01*
X-101861Y34548D01*
X-101948Y34595D01*
X-102032Y34644D01*
X-102115Y34697D01*
X-102195Y34753D01*
X-102274Y34813D01*
X-102350Y34875D01*
X-102423Y34940D01*
X-102494Y35008D01*
X-102562Y35079D01*
X-102627Y35152D01*
X-102689Y35228D01*
X-102749Y35307D01*
X-102805Y35387D01*
X-102858Y35470D01*
X-102907Y35554D01*
X-102954Y35641D01*
X-102996Y35729D01*
X-103036Y35819D01*
X-103071Y35911D01*
X-103104Y36003D01*
X-103132Y36097D01*
X-103157Y36192D01*
X-103178Y36288D01*
X-103195Y36385D01*
X-103209Y36482D01*
X-103218Y36580D01*
X-103224Y36678D01*
X-103226Y36776D01*
X-103226Y44276D01*
X-84226Y44276D01*
D32*
X-66976Y81026D03*
X-66976Y74526D03*
X-66976Y68026D03*
X-66976Y87526D03*
X-66976Y94026D03*
D33*
X-93726Y112894D03*
D34*
X-93726Y69526D03*
X-93726Y92526D03*
D33*
X-93726Y49159D03*
D35*
X-63726Y103276D03*
X-63726Y58776D03*
X-93726Y122776D03*
X-93726Y39276D03*
D36*
X1397Y120523D03*
D37*
X1448Y97485D03*
D10*
X-30480Y99069D03*
X-30480Y116069D03*
M02*
