M48
;GenerationSoftware,Autodesk,EAGLE,9.5.0*%
;CreationDate,2020-01-13T22:40:36Z*%
FMAT,2
ICI,OFF
METRIC,TZ,000.000
T5C0.350
T4C0.400
T3C0.450
T2C0.500
T1C1.016
%
G90
M71
T1
X61595Y44450
X59055Y44450
X56515Y44450
X61595Y41910
X59055Y41910
X56515Y41910
X74295Y63500
X74295Y66040
X74295Y68580
X74295Y71120
X74295Y73660
X74295Y76200
T2
X58867Y86916
X54417Y86916
X60817Y89916
X52467Y89916
T3
X67310Y78105
T4
X64643Y56667
X51892Y58064
X55880Y70485
T5
X53975Y52070
X53975Y60960
X56515Y78105
X42977Y77978
X68580Y69215
X59055Y50165
X59055Y53340
X55880Y80645
M30