G04 EAGLE Gerber RS-274X export*
G75*
%MOMM*%
%FSLAX34Y34*%
%LPD*%
%INBottom Copper*%
%IPPOS*%
%AMOC8*
5,1,8,0,0,1.08239X$1,22.5*%
G01*
%ADD10R,1.108000X1.108000*%
%ADD11C,1.108000*%
%ADD12R,1.508000X1.508000*%
%ADD13C,1.508000*%
%ADD14C,0.787400*%
%ADD15C,0.756400*%
%ADD16C,1.006400*%

G36*
X26144Y-709356D02*
X26144Y-709356D01*
X26180Y-709360D01*
X78215Y-705521D01*
X78271Y-705509D01*
X78307Y-705510D01*
X129918Y-697852D01*
X129973Y-697837D01*
X130009Y-697835D01*
X180917Y-686400D01*
X180970Y-686381D01*
X181006Y-686377D01*
X230934Y-671226D01*
X230986Y-671203D01*
X231021Y-671196D01*
X279700Y-652413D01*
X279749Y-652386D01*
X279784Y-652377D01*
X326948Y-630062D01*
X326996Y-630032D01*
X327030Y-630020D01*
X372424Y-604295D01*
X372455Y-604272D01*
X372461Y-604270D01*
X372476Y-604258D01*
X372502Y-604247D01*
X415881Y-575252D01*
X415923Y-575214D01*
X415955Y-575198D01*
X457082Y-543089D01*
X457122Y-543049D01*
X457152Y-543030D01*
X495805Y-507982D01*
X495842Y-507939D01*
X495871Y-507917D01*
X531840Y-470120D01*
X531873Y-470074D01*
X531901Y-470051D01*
X564991Y-429709D01*
X565013Y-429674D01*
X565033Y-429655D01*
X580351Y-408721D01*
X580353Y-408718D01*
X580355Y-408715D01*
X580486Y-408534D01*
X580491Y-408526D01*
X580496Y-408521D01*
X581667Y-406857D01*
X581715Y-406817D01*
X581775Y-406734D01*
X581816Y-406695D01*
X585629Y-401420D01*
X598619Y-389828D01*
X608268Y-384402D01*
X609689Y-383602D01*
X609767Y-383544D01*
X609850Y-383495D01*
X609893Y-383451D01*
X609943Y-383414D01*
X610003Y-383339D01*
X610071Y-383270D01*
X610102Y-383216D01*
X610141Y-383168D01*
X610181Y-383080D01*
X610229Y-382996D01*
X610245Y-382937D01*
X610271Y-382881D01*
X610287Y-382786D01*
X610313Y-382692D01*
X610314Y-382631D01*
X610325Y-382570D01*
X610317Y-382474D01*
X610319Y-382377D01*
X610304Y-382317D01*
X610299Y-382256D01*
X610268Y-382164D01*
X610245Y-382070D01*
X610216Y-382016D01*
X610196Y-381958D01*
X610142Y-381877D01*
X610097Y-381792D01*
X610055Y-381746D01*
X610021Y-381695D01*
X609949Y-381630D01*
X609883Y-381559D01*
X609832Y-381526D01*
X609786Y-381485D01*
X609700Y-381440D01*
X609619Y-381388D01*
X609574Y-381375D01*
X609506Y-381340D01*
X609198Y-381270D01*
X609195Y-381270D01*
X609192Y-381269D01*
X607450Y-381108D01*
X598520Y-376661D01*
X591800Y-369290D01*
X588196Y-359988D01*
X588196Y-350012D01*
X591800Y-340710D01*
X598520Y-333339D01*
X607450Y-328892D01*
X617383Y-327972D01*
X626977Y-330702D01*
X635047Y-336796D01*
X635102Y-336827D01*
X635151Y-336866D01*
X635238Y-336905D01*
X635321Y-336953D01*
X635382Y-336969D01*
X635439Y-336995D01*
X635533Y-337011D01*
X635625Y-337036D01*
X635688Y-337037D01*
X635750Y-337047D01*
X635845Y-337039D01*
X635941Y-337040D01*
X636002Y-337025D01*
X636064Y-337020D01*
X636154Y-336988D01*
X636247Y-336965D01*
X636303Y-336936D01*
X636362Y-336915D01*
X636441Y-336861D01*
X636525Y-336816D01*
X636571Y-336773D01*
X636623Y-336738D01*
X636687Y-336667D01*
X636757Y-336602D01*
X636791Y-336549D01*
X636832Y-336502D01*
X636876Y-336417D01*
X636928Y-336337D01*
X636947Y-336277D01*
X636976Y-336221D01*
X636986Y-336159D01*
X637026Y-336037D01*
X637039Y-335846D01*
X637049Y-335785D01*
X636910Y-323505D01*
X640454Y-306459D01*
X643116Y-300520D01*
X643121Y-300505D01*
X643128Y-300492D01*
X643138Y-300447D01*
X643176Y-300323D01*
X644037Y-298465D01*
X644040Y-298456D01*
X644043Y-298451D01*
X644137Y-298242D01*
X644138Y-298237D01*
X644140Y-298235D01*
X654608Y-274505D01*
X654620Y-274465D01*
X654634Y-274442D01*
X673026Y-225614D01*
X673040Y-225559D01*
X673056Y-225527D01*
X687805Y-175478D01*
X687814Y-175422D01*
X687828Y-175389D01*
X698854Y-124391D01*
X698859Y-124335D01*
X698870Y-124300D01*
X706113Y-72629D01*
X706114Y-72572D01*
X706123Y-72537D01*
X709544Y-20473D01*
X709541Y-20417D01*
X709547Y-20381D01*
X709128Y31794D01*
X709121Y31850D01*
X709124Y31886D01*
X704867Y83888D01*
X704855Y83944D01*
X704856Y83980D01*
X696784Y135528D01*
X696768Y135582D01*
X696766Y135618D01*
X684923Y186433D01*
X684903Y186486D01*
X684898Y186522D01*
X669348Y236327D01*
X669324Y236378D01*
X669317Y236414D01*
X650143Y284940D01*
X650116Y284989D01*
X650106Y285024D01*
X627414Y332007D01*
X627383Y332055D01*
X627371Y332089D01*
X601283Y377275D01*
X601248Y377320D01*
X601234Y377353D01*
X571891Y420497D01*
X571854Y420539D01*
X571837Y420571D01*
X539399Y461439D01*
X539358Y461478D01*
X539339Y461509D01*
X503982Y499879D01*
X503938Y499915D01*
X503917Y499944D01*
X465832Y535608D01*
X465786Y535641D01*
X465763Y535668D01*
X425156Y568433D01*
X425108Y568463D01*
X425083Y568488D01*
X382176Y598177D01*
X382126Y598203D01*
X382098Y598226D01*
X337123Y624676D01*
X337071Y624699D01*
X337042Y624720D01*
X290242Y647789D01*
X290189Y647807D01*
X290158Y647827D01*
X241788Y667389D01*
X241733Y667404D01*
X241701Y667420D01*
X192022Y683371D01*
X191967Y683381D01*
X191934Y683395D01*
X141216Y695647D01*
X141160Y695653D01*
X141126Y695665D01*
X89644Y704151D01*
X89602Y704152D01*
X89576Y704160D01*
X63789Y706959D01*
X63784Y706959D01*
X63782Y706960D01*
X63557Y706983D01*
X63548Y706983D01*
X63541Y706985D01*
X61515Y707167D01*
X61457Y707188D01*
X61355Y707199D01*
X61300Y707215D01*
X54825Y707879D01*
X38291Y713333D01*
X27426Y719771D01*
X27333Y719811D01*
X27245Y719860D01*
X27189Y719873D01*
X27137Y719896D01*
X27037Y719912D01*
X26939Y719936D01*
X26882Y719936D01*
X26825Y719945D01*
X26724Y719935D01*
X26623Y719934D01*
X26568Y719920D01*
X26511Y719914D01*
X26416Y719879D01*
X26318Y719853D01*
X26268Y719825D01*
X26215Y719805D01*
X26132Y719748D01*
X26043Y719698D01*
X26002Y719659D01*
X25955Y719626D01*
X25889Y719550D01*
X25816Y719480D01*
X25786Y719431D01*
X25749Y719387D01*
X25704Y719297D01*
X25651Y719211D01*
X25634Y719156D01*
X25609Y719105D01*
X25588Y719006D01*
X25558Y718909D01*
X25559Y718866D01*
X25544Y718796D01*
X25559Y718481D01*
X25561Y718473D01*
X25561Y718467D01*
X27144Y710000D01*
X25311Y700194D01*
X24697Y699203D01*
X21603Y694206D01*
X21603Y694205D01*
X20830Y692957D01*
X20829Y692956D01*
X20060Y691713D01*
X12099Y685702D01*
X2505Y682972D01*
X-7428Y683892D01*
X-16358Y688339D01*
X-23078Y695710D01*
X-26682Y705012D01*
X-26682Y714988D01*
X-25359Y718402D01*
X-25345Y718459D01*
X-25322Y718513D01*
X-25307Y718611D01*
X-25283Y718708D01*
X-25284Y718767D01*
X-25275Y718825D01*
X-25285Y718924D01*
X-25286Y719024D01*
X-25302Y719080D01*
X-25308Y719138D01*
X-25343Y719232D01*
X-25369Y719328D01*
X-25398Y719379D01*
X-25418Y719434D01*
X-25475Y719516D01*
X-25524Y719603D01*
X-25565Y719645D01*
X-25599Y719693D01*
X-25675Y719758D01*
X-25744Y719829D01*
X-25794Y719860D01*
X-25839Y719898D01*
X-25928Y719941D01*
X-26013Y719994D01*
X-26070Y720011D01*
X-26122Y720036D01*
X-26220Y720056D01*
X-26315Y720085D01*
X-26374Y720087D01*
X-26431Y720099D01*
X-26531Y720094D01*
X-26631Y720098D01*
X-26688Y720086D01*
X-26746Y720083D01*
X-26807Y720060D01*
X-26939Y720032D01*
X-27100Y719951D01*
X-27161Y719928D01*
X-38291Y713333D01*
X-54825Y707879D01*
X-61300Y707215D01*
X-61315Y707211D01*
X-61331Y707211D01*
X-61374Y707197D01*
X-61500Y707168D01*
X-63542Y706985D01*
X-63551Y706983D01*
X-63557Y706983D01*
X-63781Y706960D01*
X-63785Y706959D01*
X-63788Y706959D01*
X-89576Y704160D01*
X-89616Y704150D01*
X-89644Y704151D01*
X-141126Y695665D01*
X-141180Y695649D01*
X-141216Y695647D01*
X-191934Y683395D01*
X-191987Y683375D01*
X-192022Y683371D01*
X-241701Y667420D01*
X-241752Y667396D01*
X-241788Y667389D01*
X-290158Y647827D01*
X-290208Y647799D01*
X-290242Y647789D01*
X-337042Y624720D01*
X-337083Y624693D01*
X-337118Y624679D01*
X-337120Y624678D01*
X-337123Y624676D01*
X-382098Y598226D01*
X-382143Y598191D01*
X-382176Y598177D01*
X-425083Y568488D01*
X-425125Y568451D01*
X-425156Y568433D01*
X-465763Y535668D01*
X-465802Y535628D01*
X-465832Y535608D01*
X-503917Y499944D01*
X-503953Y499900D01*
X-503982Y499879D01*
X-539339Y461509D01*
X-539372Y461462D01*
X-539399Y461439D01*
X-571837Y420571D01*
X-571866Y420522D01*
X-571891Y420497D01*
X-601234Y377353D01*
X-601259Y377302D01*
X-601283Y377275D01*
X-627371Y332089D01*
X-627393Y332036D01*
X-627414Y332007D01*
X-650106Y285024D01*
X-650124Y284970D01*
X-650143Y284940D01*
X-669317Y236414D01*
X-669331Y236359D01*
X-669348Y236327D01*
X-669623Y235444D01*
X-670013Y234195D01*
X-671183Y230447D01*
X-671573Y229198D01*
X-671574Y229198D01*
X-672744Y225450D01*
X-673134Y224201D01*
X-673524Y222952D01*
X-674304Y220453D01*
X-674694Y219204D01*
X-675084Y217955D01*
X-676254Y214207D01*
X-676644Y212958D01*
X-677814Y209210D01*
X-678204Y207961D01*
X-679375Y204213D01*
X-679765Y202964D01*
X-680935Y199216D01*
X-681325Y197967D01*
X-682495Y194219D01*
X-682885Y192970D01*
X-683275Y191721D01*
X-683275Y191720D01*
X-684445Y187973D01*
X-684835Y186724D01*
X-684835Y186723D01*
X-684898Y186522D01*
X-684908Y186466D01*
X-684923Y186433D01*
X-696766Y135618D01*
X-696772Y135562D01*
X-696784Y135528D01*
X-704856Y83980D01*
X-704858Y83923D01*
X-704867Y83888D01*
X-709124Y31886D01*
X-709122Y31829D01*
X-709128Y31794D01*
X-709547Y-20381D01*
X-709540Y-20437D01*
X-709544Y-20473D01*
X-706123Y-72537D01*
X-706112Y-72593D01*
X-706113Y-72629D01*
X-698870Y-124300D01*
X-698855Y-124355D01*
X-698854Y-124391D01*
X-687828Y-175389D01*
X-687809Y-175442D01*
X-687805Y-175478D01*
X-673056Y-225527D01*
X-673033Y-225579D01*
X-673026Y-225614D01*
X-654634Y-274441D01*
X-654615Y-274479D01*
X-654608Y-274505D01*
X-644140Y-298234D01*
X-644138Y-298238D01*
X-644137Y-298241D01*
X-644043Y-298451D01*
X-644038Y-298459D01*
X-644037Y-298465D01*
X-643182Y-300310D01*
X-643172Y-300371D01*
X-643130Y-300465D01*
X-643116Y-300520D01*
X-640454Y-306459D01*
X-636910Y-323505D01*
X-637057Y-336485D01*
X-637055Y-336505D01*
X-637057Y-336525D01*
X-637037Y-336662D01*
X-637021Y-336799D01*
X-637014Y-336817D01*
X-637011Y-336837D01*
X-636957Y-336964D01*
X-636907Y-337093D01*
X-636895Y-337109D01*
X-636888Y-337128D01*
X-636804Y-337237D01*
X-636723Y-337349D01*
X-636708Y-337362D01*
X-636696Y-337378D01*
X-636587Y-337463D01*
X-636481Y-337552D01*
X-636463Y-337560D01*
X-636447Y-337573D01*
X-636321Y-337628D01*
X-636196Y-337687D01*
X-636177Y-337691D01*
X-636158Y-337699D01*
X-636021Y-337720D01*
X-635886Y-337746D01*
X-635866Y-337745D01*
X-635847Y-337748D01*
X-635709Y-337735D01*
X-635571Y-337726D01*
X-635552Y-337720D01*
X-635532Y-337718D01*
X-635403Y-337671D01*
X-635272Y-337628D01*
X-635255Y-337617D01*
X-635236Y-337610D01*
X-635194Y-337578D01*
X-635006Y-337457D01*
X-634931Y-337377D01*
X-634885Y-337341D01*
X-631236Y-333339D01*
X-622306Y-328892D01*
X-612373Y-327972D01*
X-602779Y-330702D01*
X-594818Y-336713D01*
X-589567Y-345194D01*
X-587734Y-355000D01*
X-589567Y-364806D01*
X-589785Y-365158D01*
X-589785Y-365159D01*
X-590559Y-366407D01*
X-590559Y-366408D01*
X-591332Y-367657D01*
X-594426Y-372654D01*
X-594818Y-373287D01*
X-602779Y-379298D01*
X-609565Y-381229D01*
X-609694Y-381284D01*
X-609823Y-381335D01*
X-609838Y-381346D01*
X-609855Y-381353D01*
X-609966Y-381439D01*
X-610079Y-381520D01*
X-610090Y-381535D01*
X-610105Y-381546D01*
X-610190Y-381656D01*
X-610279Y-381763D01*
X-610287Y-381780D01*
X-610299Y-381795D01*
X-610354Y-381923D01*
X-610413Y-382049D01*
X-610416Y-382068D01*
X-610424Y-382085D01*
X-610445Y-382223D01*
X-610471Y-382359D01*
X-610469Y-382378D01*
X-610472Y-382397D01*
X-610458Y-382536D01*
X-610449Y-382674D01*
X-610443Y-382692D01*
X-610441Y-382711D01*
X-610393Y-382842D01*
X-610349Y-382973D01*
X-610339Y-382989D01*
X-610332Y-383007D01*
X-610253Y-383121D01*
X-610177Y-383238D01*
X-610165Y-383248D01*
X-610153Y-383266D01*
X-609914Y-383472D01*
X-609863Y-383497D01*
X-609836Y-383520D01*
X-598619Y-389828D01*
X-585629Y-401420D01*
X-581816Y-406695D01*
X-581805Y-406706D01*
X-581798Y-406719D01*
X-581764Y-406750D01*
X-581675Y-406845D01*
X-580496Y-408520D01*
X-580490Y-408527D01*
X-580487Y-408533D01*
X-580354Y-408717D01*
X-580351Y-408720D01*
X-580350Y-408723D01*
X-565033Y-429655D01*
X-565004Y-429685D01*
X-564991Y-429709D01*
X-531901Y-470051D01*
X-531891Y-470060D01*
X-531884Y-470071D01*
X-531854Y-470098D01*
X-531840Y-470120D01*
X-495871Y-507917D01*
X-495827Y-507953D01*
X-495805Y-507982D01*
X-457152Y-543030D01*
X-457106Y-543062D01*
X-457082Y-543089D01*
X-415955Y-575198D01*
X-415907Y-575227D01*
X-415881Y-575252D01*
X-372502Y-604247D01*
X-372452Y-604272D01*
X-372424Y-604295D01*
X-327030Y-630020D01*
X-326978Y-630041D01*
X-326948Y-630062D01*
X-279784Y-652377D01*
X-279730Y-652394D01*
X-279700Y-652413D01*
X-231021Y-671196D01*
X-230966Y-671210D01*
X-230934Y-671226D01*
X-181006Y-686377D01*
X-180950Y-686386D01*
X-180917Y-686400D01*
X-130009Y-697835D01*
X-129952Y-697841D01*
X-129918Y-697852D01*
X-78307Y-705510D01*
X-78250Y-705512D01*
X-78215Y-705521D01*
X-26180Y-709360D01*
X-26124Y-709357D01*
X-26088Y-709363D01*
X26088Y-709363D01*
X26144Y-709356D01*
G37*
%LPC*%
G36*
X-61915Y-620721D02*
X-61915Y-620721D01*
X-111035Y-613840D01*
X-159454Y-603077D01*
X-206865Y-588502D01*
X-252967Y-570206D01*
X-297471Y-548306D01*
X-340093Y-522938D01*
X-380566Y-494265D01*
X-418632Y-462466D01*
X-454052Y-427744D01*
X-486601Y-390318D01*
X-516073Y-350423D01*
X-542283Y-308313D01*
X-565064Y-264254D01*
X-584273Y-218524D01*
X-599788Y-171413D01*
X-611511Y-123218D01*
X-619367Y-74244D01*
X-623308Y-24800D01*
X-623308Y24800D01*
X-619367Y74244D01*
X-611511Y123218D01*
X-599788Y171413D01*
X-584273Y218525D01*
X-565064Y264254D01*
X-542283Y308313D01*
X-541630Y309363D01*
X-541629Y309363D01*
X-540074Y311862D01*
X-539297Y313111D01*
X-537742Y315609D01*
X-537742Y315610D01*
X-536964Y316859D01*
X-535409Y319357D01*
X-534632Y320606D01*
X-534631Y320606D01*
X-534631Y320607D01*
X-533076Y323105D01*
X-532299Y324354D01*
X-530744Y326853D01*
X-529966Y328102D01*
X-528411Y330600D01*
X-528411Y330601D01*
X-527634Y331850D01*
X-527633Y331850D01*
X-526078Y334348D01*
X-525301Y335597D01*
X-525301Y335598D01*
X-523746Y338096D01*
X-522968Y339345D01*
X-521413Y341844D01*
X-520636Y343093D01*
X-520635Y343093D01*
X-519081Y345591D01*
X-519080Y345591D01*
X-519080Y345592D01*
X-518303Y346841D01*
X-517525Y348090D01*
X-516748Y349339D01*
X-516073Y350423D01*
X-486600Y390318D01*
X-454052Y427744D01*
X-418632Y462466D01*
X-380566Y494265D01*
X-340093Y522938D01*
X-297471Y548306D01*
X-252967Y570206D01*
X-206865Y588502D01*
X-159454Y603077D01*
X-111035Y613840D01*
X-61915Y620721D01*
X-12402Y623678D01*
X37188Y622692D01*
X86543Y617769D01*
X135352Y608940D01*
X183304Y596261D01*
X230098Y579813D01*
X275437Y559699D01*
X319034Y536046D01*
X360614Y509004D01*
X399915Y478744D01*
X436687Y445457D01*
X470699Y409354D01*
X501734Y370663D01*
X529597Y329629D01*
X554112Y286510D01*
X575123Y241580D01*
X592499Y195123D01*
X606128Y147432D01*
X615926Y98809D01*
X621829Y49561D01*
X623801Y0D01*
X621829Y-49561D01*
X615926Y-98809D01*
X606128Y-147432D01*
X592499Y-195123D01*
X575123Y-241580D01*
X554112Y-286510D01*
X529597Y-329629D01*
X501734Y-370663D01*
X470698Y-409354D01*
X436687Y-445458D01*
X399915Y-478744D01*
X360615Y-509004D01*
X319034Y-536046D01*
X275437Y-559699D01*
X230098Y-579813D01*
X183304Y-596261D01*
X135352Y-608940D01*
X86543Y-617769D01*
X37188Y-622692D01*
X-12402Y-623678D01*
X-61915Y-620721D01*
G37*
%LPD*%
%LPC*%
G36*
X-9680Y646796D02*
X-9680Y646796D01*
X-21236Y658353D01*
X-21236Y659616D01*
X-9680Y671172D01*
X-8417Y671172D01*
X3140Y659616D01*
X3140Y658353D01*
X-8417Y646796D01*
X-9680Y646796D01*
G37*
%LPD*%
%LPC*%
G36*
X640502Y-3140D02*
X640502Y-3140D01*
X628946Y8417D01*
X628946Y9680D01*
X640502Y21236D01*
X641765Y21236D01*
X653322Y9680D01*
X653322Y8417D01*
X641765Y-3140D01*
X640502Y-3140D01*
G37*
%LPD*%
%LPC*%
G36*
X6826Y632242D02*
X6826Y632242D01*
X3495Y633622D01*
X945Y636172D01*
X-435Y639503D01*
X-435Y643110D01*
X945Y646441D01*
X3495Y648991D01*
X6826Y650371D01*
X10432Y650371D01*
X13764Y648991D01*
X16314Y646441D01*
X17694Y643110D01*
X17694Y639503D01*
X16314Y636172D01*
X13764Y633622D01*
X10432Y632242D01*
X6826Y632242D01*
G37*
%LPD*%
%LPC*%
G36*
X657008Y-17694D02*
X657008Y-17694D01*
X653677Y-16314D01*
X651127Y-13764D01*
X649747Y-10432D01*
X649747Y-6826D01*
X651127Y-3495D01*
X653677Y-945D01*
X657008Y435D01*
X660614Y435D01*
X663946Y-945D01*
X666496Y-3495D01*
X667876Y-6826D01*
X667876Y-10432D01*
X666496Y-13764D01*
X663946Y-16314D01*
X660614Y-17694D01*
X657008Y-17694D01*
G37*
%LPD*%
%LPC*%
G36*
X-636443Y-23548D02*
X-636443Y-23548D01*
X-645171Y-14820D01*
X-645171Y-13557D01*
X-636443Y-4829D01*
X-635180Y-4829D01*
X-626452Y-13557D01*
X-626452Y-14820D01*
X-635180Y-23548D01*
X-636443Y-23548D01*
G37*
%LPD*%
%LPC*%
G36*
X13557Y-673548D02*
X13557Y-673548D01*
X4829Y-664820D01*
X4829Y-663557D01*
X13557Y-654829D01*
X14820Y-654829D01*
X23548Y-663557D01*
X23548Y-664820D01*
X14820Y-673548D01*
X13557Y-673548D01*
G37*
%LPD*%
%LPC*%
G36*
X-651359Y-7111D02*
X-651359Y-7111D01*
X-653955Y-6036D01*
X-655943Y-4049D01*
X-657018Y-1452D01*
X-657018Y1359D01*
X-655943Y3955D01*
X-653955Y5943D01*
X-651359Y7018D01*
X-648548Y7018D01*
X-645951Y5943D01*
X-643964Y3955D01*
X-642889Y1359D01*
X-642889Y-1452D01*
X-643964Y-4049D01*
X-645951Y-6036D01*
X-648548Y-7111D01*
X-651359Y-7111D01*
G37*
%LPD*%
%LPC*%
G36*
X-1359Y-657111D02*
X-1359Y-657111D01*
X-3955Y-656036D01*
X-5943Y-654049D01*
X-7018Y-651452D01*
X-7018Y-648641D01*
X-5943Y-646045D01*
X-3955Y-644057D01*
X-1359Y-642982D01*
X1452Y-642982D01*
X4049Y-644057D01*
X6036Y-646045D01*
X7111Y-648641D01*
X7111Y-651452D01*
X6036Y-654049D01*
X4049Y-656036D01*
X1452Y-657111D01*
X-1359Y-657111D01*
G37*
%LPD*%
%LPC*%
G36*
X-667735Y19855D02*
X-667735Y19855D01*
X-667322Y20131D01*
X-666082Y20644D01*
X-664766Y20906D01*
X-663425Y20906D01*
X-662109Y20644D01*
X-660869Y20131D01*
X-660456Y19855D01*
X-664095Y16216D01*
X-667735Y19855D01*
G37*
%LPD*%
%LPC*%
G36*
X-670131Y10869D02*
X-670131Y10869D01*
X-670644Y12109D01*
X-670906Y13425D01*
X-670906Y14766D01*
X-670644Y16082D01*
X-670131Y17322D01*
X-669855Y17735D01*
X-666216Y14095D01*
X-669855Y10456D01*
X-670131Y10869D01*
G37*
%LPD*%
%LPC*%
G36*
X-20131Y-639131D02*
X-20131Y-639131D01*
X-20644Y-637891D01*
X-20906Y-636575D01*
X-20906Y-635234D01*
X-20644Y-633918D01*
X-20131Y-632678D01*
X-19855Y-632265D01*
X-16216Y-635905D01*
X-19855Y-639544D01*
X-20131Y-639131D01*
G37*
%LPD*%
%LPC*%
G36*
X-14766Y-642715D02*
X-14766Y-642715D01*
X-16082Y-642454D01*
X-17322Y-641940D01*
X-17735Y-641664D01*
X-14095Y-638025D01*
X-10456Y-641664D01*
X-10869Y-641940D01*
X-12109Y-642454D01*
X-13425Y-642715D01*
X-14766Y-642715D01*
G37*
%LPD*%
%LPC*%
G36*
X-661975Y14095D02*
X-661975Y14095D01*
X-658336Y17735D01*
X-658060Y17322D01*
X-657546Y16082D01*
X-657285Y14766D01*
X-657285Y13425D01*
X-657546Y12109D01*
X-658060Y10869D01*
X-658336Y10456D01*
X-661975Y14095D01*
G37*
%LPD*%
%LPC*%
G36*
X-664766Y7285D02*
X-664766Y7285D01*
X-666082Y7546D01*
X-667322Y8060D01*
X-667735Y8336D01*
X-664095Y11975D01*
X-660456Y8336D01*
X-660869Y8060D01*
X-662109Y7546D01*
X-663425Y7285D01*
X-664766Y7285D01*
G37*
%LPD*%
%LPC*%
G36*
X-17735Y-630145D02*
X-17735Y-630145D01*
X-17322Y-629869D01*
X-16082Y-629356D01*
X-14766Y-629094D01*
X-13425Y-629094D01*
X-12109Y-629356D01*
X-10869Y-629869D01*
X-10456Y-630145D01*
X-14095Y-633784D01*
X-17735Y-630145D01*
G37*
%LPD*%
%LPC*%
G36*
X-11975Y-635905D02*
X-11975Y-635905D01*
X-8336Y-632265D01*
X-8060Y-632678D01*
X-7546Y-633918D01*
X-7285Y-635234D01*
X-7285Y-636575D01*
X-7546Y-637891D01*
X-8060Y-639131D01*
X-8336Y-639544D01*
X-11975Y-635905D01*
G37*
%LPD*%
D10*
G36*
X14189Y-656355D02*
X22023Y-664189D01*
X14189Y-672023D01*
X6355Y-664189D01*
X14189Y-656355D01*
G37*
D11*
X47Y-650047D03*
X-14095Y-635905D03*
D10*
G36*
X-635811Y-6355D02*
X-627977Y-14189D01*
X-635811Y-22023D01*
X-643645Y-14189D01*
X-635811Y-6355D01*
G37*
D11*
X-649953Y-47D03*
X-664095Y14095D03*
D12*
G36*
X641134Y-1615D02*
X630471Y9048D01*
X641134Y19711D01*
X651797Y9048D01*
X641134Y-1615D01*
G37*
D13*
X658811Y-8629D03*
D12*
G36*
X-9048Y648321D02*
X-19711Y658984D01*
X-9048Y669647D01*
X1615Y658984D01*
X-9048Y648321D01*
G37*
D13*
X8629Y641307D03*
D14*
X618152Y-129088D03*
X618152Y-139248D03*
X618152Y-149408D03*
X628312Y-149408D03*
X628312Y-159568D03*
X618152Y-159568D03*
D15*
X659300Y-115880D03*
D16*
X600000Y-200000D03*
M02*
