G04 EAGLE Gerber RS-274X export*
G75*
%MOMM*%
%FSLAX34Y34*%
%LPD*%
%INBottom Copper*%
%IPPOS*%
%AMOC8*
5,1,8,0,0,1.08239X$1,22.5*%
G01*
%ADD10C,0.150000*%
%ADD11R,3.100000X2.400000*%
%ADD12C,0.808000*%
%ADD13C,2.540000*%
%ADD14P,2.749271X8X202.500000*%
%ADD15P,2.749271X8X22.500000*%
%ADD16R,1.000000X1.100000*%
%ADD17R,1.100000X1.000000*%
%ADD18R,0.830000X0.630000*%
%ADD19R,1.470000X1.270000*%
%ADD20C,0.443700*%
%ADD21C,7.000000*%
%ADD22R,1.500000X0.600000*%
%ADD23R,2.400000X5.100000*%
%ADD24R,1.200000X1.200000*%
%ADD25R,1.600000X1.500000*%
%ADD26C,6.451600*%
%ADD27R,0.550000X0.300000*%
%ADD28R,0.200000X0.300000*%
%ADD29C,0.756400*%
%ADD30C,0.304800*%
%ADD31C,5.080000*%
%ADD32C,0.152400*%
%ADD33C,0.203200*%
%ADD34C,0.254000*%

G36*
X248975Y202963D02*
X248975Y202963D01*
X249206Y202973D01*
X249260Y202983D01*
X249314Y202987D01*
X249540Y203035D01*
X249766Y203077D01*
X249818Y203094D01*
X249872Y203106D01*
X250088Y203185D01*
X250306Y203258D01*
X250355Y203283D01*
X250407Y203302D01*
X250610Y203410D01*
X250815Y203513D01*
X250861Y203544D01*
X250909Y203570D01*
X251095Y203706D01*
X251284Y203837D01*
X251325Y203874D01*
X251369Y203907D01*
X251534Y204067D01*
X251703Y204223D01*
X251738Y204266D01*
X251777Y204304D01*
X251918Y204486D01*
X252064Y204664D01*
X252092Y204712D01*
X252126Y204755D01*
X252240Y204955D01*
X252326Y205097D01*
X260350Y205097D01*
X268379Y205097D01*
X268457Y204941D01*
X268488Y204895D01*
X268514Y204847D01*
X268650Y204661D01*
X268781Y204472D01*
X268818Y204431D01*
X268851Y204387D01*
X269011Y204222D01*
X269167Y204053D01*
X269210Y204018D01*
X269248Y203979D01*
X269430Y203838D01*
X269608Y203692D01*
X269655Y203664D01*
X269699Y203630D01*
X269899Y203516D01*
X270096Y203397D01*
X270146Y203375D01*
X270194Y203348D01*
X270408Y203263D01*
X270619Y203172D01*
X270672Y203158D01*
X270723Y203138D01*
X270948Y203083D01*
X271169Y203023D01*
X271213Y203019D01*
X271277Y203004D01*
X271844Y202948D01*
X271910Y202951D01*
X271954Y202947D01*
X395991Y202947D01*
X396261Y202966D01*
X396530Y202983D01*
X396544Y202986D01*
X396559Y202987D01*
X396823Y203043D01*
X397088Y203098D01*
X397102Y203103D01*
X397117Y203106D01*
X397371Y203199D01*
X397624Y203289D01*
X397637Y203296D01*
X397652Y203302D01*
X397891Y203430D01*
X398129Y203554D01*
X398141Y203563D01*
X398154Y203570D01*
X398371Y203729D01*
X398591Y203887D01*
X398602Y203898D01*
X398614Y203907D01*
X398808Y204095D01*
X399002Y204282D01*
X399011Y204294D01*
X399022Y204304D01*
X399188Y204518D01*
X399354Y204730D01*
X399362Y204743D01*
X399371Y204755D01*
X399504Y204989D01*
X399640Y205223D01*
X399646Y205237D01*
X399653Y205250D01*
X399753Y205502D01*
X399854Y205751D01*
X399858Y205765D01*
X399863Y205779D01*
X399927Y206043D01*
X399992Y206304D01*
X399993Y206316D01*
X399997Y206333D01*
X400053Y206900D01*
X400048Y207016D01*
X400053Y207090D01*
X398596Y281420D01*
X398594Y281438D01*
X398595Y281456D01*
X398569Y281723D01*
X398545Y281988D01*
X398541Y282005D01*
X398539Y282023D01*
X398475Y282285D01*
X398415Y282542D01*
X398409Y282559D01*
X398404Y282576D01*
X398305Y282826D01*
X398209Y283074D01*
X398200Y283089D01*
X398193Y283106D01*
X398060Y283338D01*
X397930Y283571D01*
X397919Y283585D01*
X397910Y283600D01*
X397747Y283811D01*
X397585Y284024D01*
X397572Y284036D01*
X397561Y284050D01*
X397371Y284235D01*
X397179Y284424D01*
X397165Y284435D01*
X397152Y284447D01*
X396936Y284605D01*
X396722Y284764D01*
X396707Y284772D01*
X396692Y284783D01*
X396454Y284910D01*
X396222Y285037D01*
X396205Y285043D01*
X396189Y285051D01*
X395937Y285143D01*
X395688Y285236D01*
X395671Y285240D01*
X395654Y285246D01*
X395393Y285302D01*
X395132Y285360D01*
X395114Y285361D01*
X395097Y285365D01*
X394829Y285383D01*
X394564Y285404D01*
X394546Y285403D01*
X394528Y285404D01*
X394262Y285385D01*
X393995Y285368D01*
X393977Y285364D01*
X393960Y285363D01*
X393699Y285307D01*
X393437Y285253D01*
X393420Y285247D01*
X393403Y285243D01*
X393152Y285151D01*
X392900Y285061D01*
X392884Y285053D01*
X392868Y285047D01*
X392634Y284921D01*
X392396Y284796D01*
X392381Y284786D01*
X392366Y284777D01*
X392151Y284620D01*
X391934Y284463D01*
X391921Y284451D01*
X391906Y284440D01*
X391713Y284252D01*
X391522Y284069D01*
X391511Y284055D01*
X391499Y284042D01*
X391335Y283830D01*
X391170Y283621D01*
X391161Y283605D01*
X391151Y283591D01*
X391120Y283534D01*
X390884Y283128D01*
X390824Y282979D01*
X390780Y282895D01*
X389636Y280134D01*
X388024Y277118D01*
X386126Y274277D01*
X386125Y274277D01*
X386124Y274275D01*
X383955Y271633D01*
X381537Y269215D01*
X378895Y267046D01*
X376052Y265146D01*
X373036Y263534D01*
X369878Y262226D01*
X366605Y261233D01*
X366267Y261166D01*
X366267Y290966D01*
X366251Y291195D01*
X366241Y291425D01*
X366231Y291479D01*
X366227Y291534D01*
X366179Y291759D01*
X366137Y291986D01*
X366120Y292038D01*
X366108Y292091D01*
X366029Y292308D01*
X365956Y292526D01*
X365931Y292575D01*
X365912Y292627D01*
X365804Y292830D01*
X365701Y293035D01*
X365669Y293081D01*
X365644Y293129D01*
X365508Y293314D01*
X365377Y293504D01*
X365340Y293545D01*
X365307Y293589D01*
X365147Y293754D01*
X364991Y293923D01*
X364948Y293958D01*
X364910Y293997D01*
X364728Y294138D01*
X364550Y294284D01*
X364502Y294312D01*
X364459Y294346D01*
X364259Y294460D01*
X364062Y294579D01*
X364012Y294601D01*
X363964Y294628D01*
X363749Y294713D01*
X363539Y294804D01*
X363486Y294818D01*
X363435Y294838D01*
X363210Y294893D01*
X362989Y294953D01*
X362945Y294957D01*
X362881Y294972D01*
X362314Y295028D01*
X362248Y295025D01*
X362204Y295029D01*
X358139Y295029D01*
X358139Y295031D01*
X362204Y295031D01*
X362433Y295047D01*
X362664Y295057D01*
X362718Y295067D01*
X362772Y295071D01*
X362998Y295119D01*
X363224Y295161D01*
X363276Y295178D01*
X363330Y295190D01*
X363546Y295269D01*
X363764Y295342D01*
X363813Y295367D01*
X363865Y295386D01*
X364068Y295494D01*
X364273Y295597D01*
X364319Y295629D01*
X364367Y295655D01*
X364553Y295790D01*
X364742Y295921D01*
X364783Y295959D01*
X364827Y295991D01*
X364992Y296151D01*
X365161Y296307D01*
X365196Y296350D01*
X365235Y296388D01*
X365376Y296570D01*
X365522Y296749D01*
X365550Y296796D01*
X365584Y296839D01*
X365698Y297039D01*
X365817Y297236D01*
X365839Y297286D01*
X365866Y297334D01*
X365951Y297549D01*
X366042Y297759D01*
X366056Y297812D01*
X366076Y297864D01*
X366131Y298088D01*
X366191Y298309D01*
X366195Y298354D01*
X366210Y298417D01*
X366266Y298984D01*
X366263Y299050D01*
X366267Y299094D01*
X366267Y328894D01*
X366605Y328827D01*
X369878Y327834D01*
X373036Y326526D01*
X376052Y324914D01*
X378895Y323014D01*
X381537Y320845D01*
X383955Y318427D01*
X386124Y315785D01*
X388024Y312942D01*
X389636Y309926D01*
X390216Y308525D01*
X390260Y308438D01*
X390295Y308347D01*
X390387Y308183D01*
X390470Y308015D01*
X390526Y307935D01*
X390573Y307850D01*
X390687Y307701D01*
X390794Y307546D01*
X390860Y307474D01*
X390919Y307397D01*
X391052Y307265D01*
X391179Y307127D01*
X391255Y307065D01*
X391324Y306996D01*
X391475Y306884D01*
X391620Y306765D01*
X391703Y306715D01*
X391782Y306656D01*
X391946Y306567D01*
X392107Y306469D01*
X392196Y306431D01*
X392282Y306384D01*
X392458Y306318D01*
X392630Y306244D01*
X392724Y306218D01*
X392816Y306184D01*
X392999Y306143D01*
X393180Y306094D01*
X393276Y306082D01*
X393372Y306061D01*
X393559Y306046D01*
X393745Y306023D01*
X393843Y306024D01*
X393940Y306017D01*
X394127Y306029D01*
X394315Y306031D01*
X394411Y306046D01*
X394509Y306053D01*
X394692Y306090D01*
X394878Y306119D01*
X394971Y306148D01*
X395067Y306167D01*
X395243Y306231D01*
X395423Y306285D01*
X395511Y306327D01*
X395603Y306359D01*
X395769Y306447D01*
X395939Y306526D01*
X396021Y306579D01*
X396108Y306624D01*
X396260Y306734D01*
X396417Y306836D01*
X396491Y306900D01*
X396570Y306957D01*
X396705Y307087D01*
X396847Y307211D01*
X396911Y307284D01*
X396981Y307352D01*
X397097Y307500D01*
X397220Y307641D01*
X397273Y307723D01*
X397333Y307800D01*
X397427Y307962D01*
X397529Y308120D01*
X397570Y308208D01*
X397619Y308293D01*
X397690Y308467D01*
X397768Y308637D01*
X397797Y308730D01*
X397833Y308821D01*
X397879Y309003D01*
X397933Y309183D01*
X397948Y309279D01*
X397971Y309374D01*
X397981Y309493D01*
X398019Y309746D01*
X398023Y310038D01*
X398032Y310160D01*
X396903Y367760D01*
X396894Y367863D01*
X396894Y367966D01*
X396868Y368147D01*
X396852Y368327D01*
X396828Y368428D01*
X396814Y368531D01*
X396763Y368705D01*
X396722Y368882D01*
X396685Y368979D01*
X396656Y369078D01*
X396582Y369244D01*
X396516Y369413D01*
X396465Y369504D01*
X396423Y369598D01*
X396326Y369752D01*
X396237Y369910D01*
X396174Y369993D01*
X396119Y370080D01*
X396002Y370219D01*
X395892Y370364D01*
X395818Y370436D01*
X395751Y370515D01*
X395616Y370636D01*
X395486Y370764D01*
X395403Y370826D01*
X395326Y370895D01*
X395175Y370996D01*
X395029Y371104D01*
X394938Y371153D01*
X394852Y371211D01*
X394688Y371289D01*
X394529Y371376D01*
X394432Y371412D01*
X394338Y371457D01*
X394165Y371512D01*
X393995Y371576D01*
X393894Y371598D01*
X393795Y371630D01*
X393616Y371660D01*
X393439Y371699D01*
X393335Y371707D01*
X393233Y371724D01*
X393052Y371729D01*
X392871Y371743D01*
X392767Y371737D01*
X392664Y371740D01*
X392483Y371719D01*
X392302Y371708D01*
X392200Y371687D01*
X392098Y371675D01*
X391922Y371629D01*
X391744Y371593D01*
X391646Y371558D01*
X391546Y371532D01*
X391378Y371462D01*
X391207Y371401D01*
X391116Y371353D01*
X391020Y371313D01*
X390864Y371220D01*
X390703Y371136D01*
X390619Y371075D01*
X390530Y371022D01*
X390388Y370909D01*
X390241Y370803D01*
X390166Y370731D01*
X390085Y370666D01*
X389960Y370534D01*
X389829Y370408D01*
X389766Y370327D01*
X389694Y370252D01*
X389628Y370153D01*
X389477Y369960D01*
X389324Y369696D01*
X389257Y369596D01*
X388024Y367288D01*
X386124Y364445D01*
X383955Y361803D01*
X381537Y359385D01*
X378895Y357216D01*
X376052Y355316D01*
X373036Y353704D01*
X369878Y352396D01*
X366605Y351403D01*
X366267Y351336D01*
X366267Y381136D01*
X366251Y381365D01*
X366241Y381595D01*
X366231Y381649D01*
X366227Y381704D01*
X366179Y381929D01*
X366137Y382156D01*
X366120Y382208D01*
X366108Y382261D01*
X366029Y382478D01*
X365956Y382696D01*
X365931Y382745D01*
X365912Y382797D01*
X365804Y383000D01*
X365701Y383205D01*
X365669Y383251D01*
X365644Y383299D01*
X365508Y383484D01*
X365377Y383674D01*
X365340Y383715D01*
X365307Y383759D01*
X365147Y383924D01*
X364991Y384093D01*
X364948Y384128D01*
X364910Y384167D01*
X364728Y384308D01*
X364550Y384454D01*
X364502Y384482D01*
X364459Y384516D01*
X364259Y384630D01*
X364062Y384749D01*
X364012Y384771D01*
X363964Y384798D01*
X363749Y384883D01*
X363539Y384974D01*
X363486Y384988D01*
X363435Y385008D01*
X363210Y385063D01*
X362989Y385123D01*
X362945Y385127D01*
X362881Y385142D01*
X362314Y385198D01*
X362248Y385195D01*
X362204Y385199D01*
X358139Y385199D01*
X358139Y385201D01*
X362204Y385201D01*
X362433Y385217D01*
X362664Y385227D01*
X362718Y385237D01*
X362772Y385241D01*
X362998Y385289D01*
X363224Y385331D01*
X363276Y385348D01*
X363330Y385360D01*
X363546Y385439D01*
X363764Y385512D01*
X363813Y385537D01*
X363865Y385556D01*
X364068Y385664D01*
X364273Y385767D01*
X364319Y385799D01*
X364367Y385825D01*
X364553Y385960D01*
X364742Y386091D01*
X364783Y386129D01*
X364827Y386161D01*
X364992Y386321D01*
X365161Y386477D01*
X365196Y386520D01*
X365235Y386558D01*
X365376Y386740D01*
X365522Y386919D01*
X365550Y386966D01*
X365584Y387009D01*
X365698Y387209D01*
X365817Y387406D01*
X365839Y387456D01*
X365866Y387504D01*
X365951Y387719D01*
X366042Y387929D01*
X366056Y387982D01*
X366076Y388034D01*
X366131Y388258D01*
X366191Y388479D01*
X366195Y388524D01*
X366210Y388587D01*
X366266Y389154D01*
X366263Y389220D01*
X366267Y389264D01*
X366267Y419064D01*
X366605Y418997D01*
X369878Y418004D01*
X373036Y416696D01*
X376052Y415084D01*
X378895Y413184D01*
X381537Y411015D01*
X383955Y408597D01*
X386124Y405955D01*
X388024Y403112D01*
X388544Y402139D01*
X388641Y401984D01*
X388731Y401824D01*
X388793Y401743D01*
X388847Y401656D01*
X388965Y401517D01*
X389076Y401371D01*
X389149Y401299D01*
X389215Y401221D01*
X389351Y401099D01*
X389482Y400970D01*
X389563Y400910D01*
X389640Y400841D01*
X389792Y400740D01*
X389939Y400631D01*
X390029Y400582D01*
X390113Y400525D01*
X390279Y400446D01*
X390439Y400358D01*
X390535Y400322D01*
X390627Y400278D01*
X390802Y400222D01*
X390973Y400158D01*
X391073Y400136D01*
X391170Y400105D01*
X391350Y400075D01*
X391529Y400035D01*
X391631Y400027D01*
X391732Y400010D01*
X391915Y400005D01*
X392097Y399991D01*
X392199Y399997D01*
X392301Y399995D01*
X392483Y400015D01*
X392666Y400027D01*
X392766Y400047D01*
X392867Y400059D01*
X393045Y400105D01*
X393224Y400142D01*
X393320Y400176D01*
X393419Y400202D01*
X393588Y400272D01*
X393761Y400334D01*
X393851Y400381D01*
X393945Y400420D01*
X394103Y400513D01*
X394265Y400599D01*
X394348Y400658D01*
X394436Y400710D01*
X394579Y400824D01*
X394727Y400932D01*
X394801Y401002D01*
X394881Y401066D01*
X395006Y401199D01*
X395139Y401326D01*
X395202Y401406D01*
X395272Y401481D01*
X395377Y401630D01*
X395491Y401774D01*
X395542Y401863D01*
X395601Y401946D01*
X395684Y402108D01*
X395776Y402267D01*
X395815Y402362D01*
X395862Y402452D01*
X395922Y402625D01*
X395991Y402795D01*
X396015Y402894D01*
X396049Y402990D01*
X396084Y403170D01*
X396129Y403348D01*
X396135Y403426D01*
X396159Y403549D01*
X396190Y404118D01*
X396189Y404127D01*
X396190Y404134D01*
X395168Y456266D01*
X395151Y456455D01*
X395142Y456646D01*
X395125Y456739D01*
X395117Y456833D01*
X395073Y457018D01*
X395038Y457206D01*
X395008Y457296D01*
X394987Y457388D01*
X394918Y457565D01*
X394857Y457746D01*
X394815Y457831D01*
X394780Y457919D01*
X394687Y458085D01*
X394602Y458255D01*
X394548Y458334D01*
X394502Y458416D01*
X394386Y458567D01*
X394278Y458724D01*
X394214Y458794D01*
X394156Y458869D01*
X394021Y459003D01*
X393892Y459143D01*
X393818Y459203D01*
X393751Y459270D01*
X393598Y459383D01*
X393451Y459504D01*
X393370Y459553D01*
X393294Y459610D01*
X393126Y459701D01*
X392964Y459799D01*
X392877Y459837D01*
X392793Y459882D01*
X392615Y459949D01*
X392440Y460024D01*
X392349Y460049D01*
X392260Y460082D01*
X392073Y460123D01*
X391890Y460173D01*
X391817Y460180D01*
X391703Y460205D01*
X391135Y460249D01*
X391118Y460248D01*
X391105Y460249D01*
X291125Y460249D01*
X291010Y460241D01*
X290895Y460243D01*
X290727Y460221D01*
X290557Y460209D01*
X290444Y460185D01*
X290330Y460171D01*
X290166Y460126D01*
X290000Y460090D01*
X289891Y460051D01*
X289780Y460020D01*
X289624Y459953D01*
X289464Y459894D01*
X289363Y459840D01*
X289257Y459794D01*
X289112Y459706D01*
X288962Y459626D01*
X288869Y459558D01*
X288771Y459498D01*
X288639Y459390D01*
X288502Y459289D01*
X288420Y459209D01*
X288331Y459136D01*
X288216Y459010D01*
X288094Y458892D01*
X288023Y458801D01*
X287945Y458716D01*
X287849Y458575D01*
X287745Y458441D01*
X287688Y458341D01*
X287623Y458246D01*
X287547Y458094D01*
X287463Y457946D01*
X287420Y457839D01*
X287369Y457736D01*
X287316Y457575D01*
X287253Y457417D01*
X287226Y457304D01*
X287189Y457195D01*
X287159Y457028D01*
X287119Y456863D01*
X287107Y456748D01*
X287087Y456635D01*
X287080Y456465D01*
X287063Y456296D01*
X287068Y456181D01*
X287064Y456065D01*
X287081Y455896D01*
X287088Y455726D01*
X287109Y455613D01*
X287120Y455498D01*
X287161Y455333D01*
X287192Y455166D01*
X287229Y455057D01*
X287256Y454945D01*
X287319Y454787D01*
X287373Y454626D01*
X287425Y454523D01*
X287468Y454416D01*
X287552Y454269D01*
X287628Y454117D01*
X287694Y454022D01*
X287751Y453922D01*
X287824Y453833D01*
X287952Y453648D01*
X288177Y453404D01*
X288252Y453313D01*
X290249Y451316D01*
X291057Y449366D01*
X291057Y447254D01*
X290249Y445304D01*
X288756Y443811D01*
X286806Y443003D01*
X284694Y443003D01*
X282744Y443811D01*
X281251Y445304D01*
X280443Y447254D01*
X280443Y447981D01*
X280439Y448041D01*
X280441Y448102D01*
X280419Y448325D01*
X280403Y448550D01*
X280391Y448609D01*
X280385Y448669D01*
X280331Y448887D01*
X280284Y449107D01*
X280264Y449163D01*
X280249Y449222D01*
X280166Y449431D01*
X280088Y449642D01*
X280060Y449695D01*
X280038Y449751D01*
X279926Y449946D01*
X279820Y450144D01*
X279784Y450193D01*
X279754Y450246D01*
X279679Y450337D01*
X279483Y450604D01*
X279326Y450765D01*
X279253Y450854D01*
X275366Y454741D01*
X275321Y454781D01*
X275280Y454825D01*
X275106Y454967D01*
X274936Y455115D01*
X274886Y455148D01*
X274839Y455186D01*
X274647Y455303D01*
X274458Y455425D01*
X274403Y455450D01*
X274352Y455481D01*
X274145Y455570D01*
X273941Y455665D01*
X273883Y455682D01*
X273828Y455706D01*
X273611Y455764D01*
X273396Y455830D01*
X273336Y455839D01*
X273278Y455855D01*
X273161Y455866D01*
X272833Y455917D01*
X272608Y455920D01*
X272493Y455931D01*
X265208Y455931D01*
X265036Y455919D01*
X264863Y455917D01*
X264752Y455899D01*
X264640Y455891D01*
X264471Y455855D01*
X264300Y455829D01*
X264193Y455796D01*
X264083Y455772D01*
X263920Y455713D01*
X263755Y455663D01*
X263653Y455615D01*
X263548Y455576D01*
X263395Y455495D01*
X263239Y455422D01*
X263144Y455361D01*
X263045Y455308D01*
X262906Y455206D01*
X262761Y455112D01*
X262676Y455038D01*
X262585Y454971D01*
X262462Y454851D01*
X262331Y454737D01*
X262258Y454652D01*
X262177Y454574D01*
X262071Y454437D01*
X261958Y454307D01*
X261897Y454212D01*
X261828Y454123D01*
X261743Y453973D01*
X261649Y453828D01*
X261602Y453726D01*
X261546Y453628D01*
X261482Y453467D01*
X261410Y453311D01*
X261377Y453203D01*
X261336Y453099D01*
X261295Y452930D01*
X261245Y452765D01*
X261228Y452654D01*
X261202Y452545D01*
X261185Y452373D01*
X261159Y452202D01*
X261157Y452090D01*
X261146Y451978D01*
X261154Y451805D01*
X261152Y451632D01*
X261166Y451521D01*
X261171Y451408D01*
X261203Y451238D01*
X261225Y451067D01*
X261250Y450986D01*
X261275Y450848D01*
X261450Y450326D01*
X261454Y450313D01*
X261847Y449366D01*
X261847Y447254D01*
X261039Y445304D01*
X260017Y444282D01*
X259977Y444236D01*
X259933Y444195D01*
X259791Y444021D01*
X259643Y443852D01*
X259610Y443801D01*
X259572Y443754D01*
X259455Y443562D01*
X259333Y443374D01*
X259308Y443319D01*
X259277Y443267D01*
X259188Y443061D01*
X259093Y442857D01*
X259076Y442799D01*
X259052Y442744D01*
X258994Y442527D01*
X258928Y442311D01*
X258919Y442252D01*
X258903Y442194D01*
X258892Y442076D01*
X258841Y441748D01*
X258838Y441524D01*
X258827Y441409D01*
X258827Y409103D01*
X258831Y409042D01*
X258829Y408982D01*
X258851Y408759D01*
X258867Y408534D01*
X258879Y408475D01*
X258885Y408415D01*
X258939Y408197D01*
X258986Y407977D01*
X259006Y407921D01*
X259021Y407862D01*
X259104Y407653D01*
X259182Y407442D01*
X259210Y407389D01*
X259233Y407333D01*
X259344Y407138D01*
X259450Y406940D01*
X259486Y406891D01*
X259516Y406838D01*
X259591Y406747D01*
X259787Y406480D01*
X259944Y406318D01*
X260017Y406229D01*
X260815Y405432D01*
X260815Y399192D01*
X260819Y399132D01*
X260817Y399072D01*
X260839Y398848D01*
X260855Y398624D01*
X260867Y398565D01*
X260873Y398505D01*
X260927Y398286D01*
X260974Y398067D01*
X260994Y398010D01*
X261009Y397951D01*
X261092Y397743D01*
X261170Y397532D01*
X261198Y397478D01*
X261220Y397422D01*
X261332Y397227D01*
X261438Y397029D01*
X261474Y396980D01*
X261504Y396928D01*
X261579Y396837D01*
X261775Y396569D01*
X261932Y396408D01*
X262005Y396319D01*
X280124Y378200D01*
X281339Y376985D01*
X281687Y376145D01*
X281687Y358678D01*
X281703Y358449D01*
X281713Y358218D01*
X281723Y358164D01*
X281727Y358110D01*
X281775Y357884D01*
X281817Y357658D01*
X281834Y357606D01*
X281846Y357552D01*
X281925Y357336D01*
X281998Y357118D01*
X282023Y357069D01*
X282042Y357017D01*
X282150Y356814D01*
X282253Y356609D01*
X282284Y356563D01*
X282310Y356515D01*
X282446Y356329D01*
X282577Y356140D01*
X282614Y356099D01*
X282647Y356055D01*
X282807Y355890D01*
X282963Y355721D01*
X283006Y355686D01*
X283044Y355647D01*
X283226Y355506D01*
X283404Y355360D01*
X283452Y355332D01*
X283495Y355298D01*
X283695Y355184D01*
X283892Y355065D01*
X283942Y355043D01*
X283990Y355016D01*
X284204Y354931D01*
X284415Y354840D01*
X284468Y354826D01*
X284519Y354806D01*
X284744Y354751D01*
X284951Y354695D01*
X285925Y353722D01*
X285925Y341331D01*
X285800Y341150D01*
X285776Y341101D01*
X285746Y341055D01*
X285649Y340846D01*
X285547Y340640D01*
X285529Y340588D01*
X285506Y340538D01*
X285439Y340318D01*
X285367Y340099D01*
X285357Y340045D01*
X285341Y339993D01*
X285306Y339766D01*
X285264Y339539D01*
X285262Y339484D01*
X285254Y339430D01*
X285250Y339200D01*
X285241Y338969D01*
X285247Y338915D01*
X285246Y338860D01*
X285275Y338632D01*
X285298Y338403D01*
X285311Y338349D01*
X285318Y338295D01*
X285379Y338073D01*
X285433Y337849D01*
X285454Y337798D01*
X285468Y337745D01*
X285559Y337534D01*
X285645Y337320D01*
X285673Y337272D01*
X285694Y337222D01*
X285814Y337026D01*
X285925Y336833D01*
X285925Y324458D01*
X285032Y323565D01*
X278370Y323565D01*
X278310Y323561D01*
X278249Y323563D01*
X278026Y323541D01*
X277802Y323525D01*
X277742Y323513D01*
X277682Y323507D01*
X277464Y323453D01*
X277244Y323406D01*
X277188Y323386D01*
X277129Y323371D01*
X276920Y323288D01*
X276709Y323210D01*
X276656Y323182D01*
X276600Y323160D01*
X276405Y323048D01*
X276207Y322942D01*
X276158Y322906D01*
X276106Y322876D01*
X276015Y322801D01*
X275747Y322605D01*
X275586Y322448D01*
X275497Y322375D01*
X267609Y314487D01*
X267569Y314442D01*
X267525Y314401D01*
X267383Y314227D01*
X267235Y314057D01*
X267202Y314006D01*
X267164Y313960D01*
X267047Y313767D01*
X266925Y313579D01*
X266900Y313524D01*
X266869Y313473D01*
X266780Y313266D01*
X266685Y313062D01*
X266668Y313004D01*
X266644Y312949D01*
X266586Y312732D01*
X266520Y312517D01*
X266511Y312457D01*
X266495Y312399D01*
X266484Y312282D01*
X266433Y311954D01*
X266430Y311729D01*
X266419Y311614D01*
X266419Y308674D01*
X265657Y306835D01*
X265602Y306672D01*
X265538Y306511D01*
X265512Y306401D01*
X265476Y306295D01*
X265445Y306125D01*
X265404Y305957D01*
X265393Y305845D01*
X265373Y305734D01*
X265366Y305562D01*
X265349Y305390D01*
X265354Y305277D01*
X265349Y305165D01*
X265366Y304993D01*
X265374Y304820D01*
X265394Y304710D01*
X265405Y304598D01*
X265446Y304430D01*
X265478Y304260D01*
X265513Y304154D01*
X265540Y304044D01*
X265604Y303884D01*
X265659Y303720D01*
X265709Y303619D01*
X265751Y303515D01*
X265837Y303365D01*
X265914Y303211D01*
X265978Y303118D01*
X266034Y303020D01*
X266140Y302884D01*
X266238Y302742D01*
X266314Y302659D01*
X266383Y302570D01*
X266507Y302450D01*
X266624Y302323D01*
X266711Y302252D01*
X266792Y302173D01*
X266931Y302072D01*
X267065Y301962D01*
X267161Y301904D01*
X267252Y301837D01*
X267405Y301756D01*
X267552Y301667D01*
X267656Y301622D01*
X267755Y301569D01*
X267917Y301510D01*
X268076Y301442D01*
X268185Y301413D01*
X268290Y301374D01*
X268459Y301338D01*
X268626Y301293D01*
X268711Y301285D01*
X268848Y301256D01*
X269398Y301218D01*
X269411Y301217D01*
X270296Y301217D01*
X272246Y300409D01*
X273739Y298916D01*
X274547Y296966D01*
X274547Y294854D01*
X273739Y292904D01*
X272246Y291411D01*
X270296Y290603D01*
X269928Y290603D01*
X269868Y290599D01*
X269807Y290601D01*
X269584Y290579D01*
X269360Y290563D01*
X269300Y290551D01*
X269240Y290545D01*
X269022Y290491D01*
X268802Y290444D01*
X268746Y290424D01*
X268687Y290409D01*
X268478Y290326D01*
X268267Y290248D01*
X268214Y290220D01*
X268158Y290198D01*
X267963Y290086D01*
X267765Y289980D01*
X267716Y289944D01*
X267664Y289914D01*
X267573Y289839D01*
X267305Y289643D01*
X267156Y289498D01*
X267122Y289472D01*
X267106Y289455D01*
X267055Y289413D01*
X266960Y289319D01*
X266899Y289248D01*
X266897Y289246D01*
X266894Y289242D01*
X266846Y289187D01*
X266725Y289062D01*
X266660Y288973D01*
X266587Y288889D01*
X266492Y288743D01*
X266390Y288602D01*
X266337Y288504D01*
X266277Y288410D01*
X266204Y288253D01*
X266122Y288099D01*
X266084Y287994D01*
X266037Y287894D01*
X265987Y287727D01*
X265927Y287563D01*
X265904Y287455D01*
X265872Y287348D01*
X265845Y287176D01*
X265809Y287006D01*
X265802Y286895D01*
X265785Y286785D01*
X265782Y286611D01*
X265770Y286438D01*
X265779Y286353D01*
X265777Y286216D01*
X265848Y285660D01*
X265848Y285653D01*
X265881Y285490D01*
X265881Y283303D01*
X257340Y283303D01*
X257111Y283287D01*
X256881Y283277D01*
X256827Y283267D01*
X256772Y283263D01*
X256547Y283215D01*
X256321Y283173D01*
X256268Y283156D01*
X256215Y283144D01*
X255999Y283065D01*
X255780Y282992D01*
X255731Y282967D01*
X255680Y282949D01*
X255477Y282840D01*
X255271Y282737D01*
X255226Y282706D01*
X255177Y282680D01*
X254991Y282544D01*
X254802Y282413D01*
X254762Y282376D01*
X254717Y282343D01*
X254553Y282183D01*
X254383Y282027D01*
X254348Y281984D01*
X254309Y281946D01*
X254168Y281764D01*
X254022Y281586D01*
X253994Y281539D01*
X253960Y281495D01*
X253846Y281295D01*
X253727Y281099D01*
X253705Y281048D01*
X253678Y281000D01*
X253593Y280786D01*
X253503Y280575D01*
X253488Y280522D01*
X253468Y280471D01*
X253414Y280246D01*
X253354Y280025D01*
X253349Y279981D01*
X253334Y279917D01*
X253279Y279350D01*
X253279Y279342D01*
X253281Y279284D01*
X253277Y279240D01*
X253293Y279010D01*
X253303Y278780D01*
X253313Y278726D01*
X253317Y278671D01*
X253365Y278446D01*
X253407Y278220D01*
X253425Y278168D01*
X253436Y278114D01*
X253515Y277898D01*
X253588Y277680D01*
X253613Y277631D01*
X253632Y277579D01*
X253741Y277376D01*
X253844Y277170D01*
X253875Y277125D01*
X253901Y277077D01*
X254036Y276891D01*
X254167Y276702D01*
X254205Y276661D01*
X254237Y276617D01*
X254397Y276452D01*
X254554Y276283D01*
X254596Y276248D01*
X254635Y276209D01*
X254816Y276068D01*
X254995Y275922D01*
X255042Y275893D01*
X255085Y275860D01*
X255285Y275746D01*
X255482Y275626D01*
X255532Y275605D01*
X255580Y275578D01*
X255795Y275492D01*
X256006Y275402D01*
X256058Y275388D01*
X256110Y275367D01*
X256334Y275313D01*
X256556Y275253D01*
X256600Y275249D01*
X256664Y275233D01*
X257231Y275178D01*
X257296Y275181D01*
X257340Y275177D01*
X265881Y275177D01*
X265881Y272990D01*
X265783Y272499D01*
X265592Y272037D01*
X265313Y271620D01*
X265088Y271395D01*
X264937Y271221D01*
X264781Y271051D01*
X264750Y271006D01*
X264714Y270965D01*
X264589Y270771D01*
X264459Y270582D01*
X264434Y270532D01*
X264404Y270486D01*
X264308Y270278D01*
X264205Y270071D01*
X264188Y270019D01*
X264165Y269970D01*
X264098Y269750D01*
X264025Y269531D01*
X264015Y269477D01*
X263999Y269424D01*
X263964Y269197D01*
X263923Y268970D01*
X263920Y268915D01*
X263912Y268861D01*
X263909Y268631D01*
X263900Y268401D01*
X263905Y268346D01*
X263904Y268291D01*
X263933Y268063D01*
X263956Y267834D01*
X263969Y267781D01*
X263976Y267726D01*
X264037Y267504D01*
X264092Y267281D01*
X264112Y267230D01*
X264127Y267177D01*
X264218Y266965D01*
X264304Y266752D01*
X264331Y266704D01*
X264353Y266654D01*
X264472Y266457D01*
X264587Y266257D01*
X264615Y266223D01*
X264649Y266167D01*
X264865Y265905D01*
X264865Y251888D01*
X264881Y251659D01*
X264891Y251428D01*
X264901Y251374D01*
X264905Y251320D01*
X264953Y251094D01*
X264995Y250868D01*
X265012Y250816D01*
X265024Y250762D01*
X265103Y250546D01*
X265176Y250328D01*
X265201Y250279D01*
X265220Y250227D01*
X265328Y250024D01*
X265431Y249819D01*
X265462Y249773D01*
X265488Y249725D01*
X265624Y249539D01*
X265755Y249350D01*
X265792Y249309D01*
X265825Y249265D01*
X265985Y249100D01*
X266141Y248931D01*
X266184Y248896D01*
X266222Y248857D01*
X266404Y248716D01*
X266582Y248570D01*
X266630Y248542D01*
X266673Y248508D01*
X266873Y248394D01*
X267070Y248275D01*
X267120Y248253D01*
X267168Y248226D01*
X267382Y248141D01*
X267593Y248050D01*
X267646Y248036D01*
X267697Y248016D01*
X267922Y247961D01*
X268143Y247901D01*
X268187Y247897D01*
X268251Y247881D01*
X268818Y247826D01*
X268884Y247829D01*
X268928Y247825D01*
X280062Y247825D01*
X280955Y246932D01*
X280955Y235668D01*
X280062Y234775D01*
X267672Y234775D01*
X267669Y234777D01*
X267490Y234900D01*
X267441Y234924D01*
X267395Y234954D01*
X267318Y234990D01*
X267296Y235003D01*
X267209Y235040D01*
X267186Y235051D01*
X266980Y235153D01*
X266928Y235171D01*
X266878Y235194D01*
X266784Y235222D01*
X266773Y235227D01*
X266727Y235240D01*
X266658Y235261D01*
X266439Y235333D01*
X266385Y235343D01*
X266333Y235359D01*
X266223Y235376D01*
X266221Y235376D01*
X266106Y235394D01*
X265879Y235436D01*
X265824Y235438D01*
X265770Y235446D01*
X265540Y235450D01*
X265309Y235459D01*
X265255Y235453D01*
X265200Y235454D01*
X264972Y235425D01*
X264743Y235402D01*
X264689Y235389D01*
X264635Y235382D01*
X264413Y235321D01*
X264325Y235300D01*
X264297Y235294D01*
X264289Y235291D01*
X264189Y235267D01*
X264138Y235246D01*
X264085Y235232D01*
X263874Y235141D01*
X263834Y235124D01*
X263761Y235098D01*
X263743Y235088D01*
X263660Y235055D01*
X263612Y235027D01*
X263562Y235006D01*
X263368Y234888D01*
X263259Y234829D01*
X263232Y234809D01*
X263173Y234775D01*
X250798Y234775D01*
X249905Y235668D01*
X249905Y246944D01*
X249977Y247026D01*
X250132Y247195D01*
X250163Y247241D01*
X250199Y247282D01*
X250324Y247475D01*
X250455Y247665D01*
X250479Y247714D01*
X250509Y247760D01*
X250606Y247969D01*
X250708Y248175D01*
X250726Y248227D01*
X250749Y248277D01*
X250816Y248497D01*
X250888Y248716D01*
X250898Y248770D01*
X250914Y248822D01*
X250949Y249049D01*
X250991Y249276D01*
X250993Y249331D01*
X251001Y249385D01*
X251005Y249615D01*
X251014Y249846D01*
X251008Y249900D01*
X251009Y249955D01*
X250980Y250184D01*
X250957Y250413D01*
X250944Y250466D01*
X250937Y250520D01*
X250876Y250743D01*
X250822Y250966D01*
X250801Y251017D01*
X250787Y251070D01*
X250695Y251281D01*
X250610Y251495D01*
X250583Y251543D01*
X250561Y251593D01*
X250441Y251790D01*
X250326Y251989D01*
X250298Y252023D01*
X250264Y252079D01*
X249902Y252520D01*
X249854Y252564D01*
X249826Y252598D01*
X248688Y253736D01*
X248514Y253887D01*
X248345Y254042D01*
X248299Y254073D01*
X248258Y254109D01*
X248065Y254234D01*
X247875Y254365D01*
X247826Y254389D01*
X247780Y254419D01*
X247571Y254516D01*
X247365Y254618D01*
X247313Y254636D01*
X247263Y254659D01*
X247043Y254726D01*
X246824Y254798D01*
X246770Y254808D01*
X246718Y254824D01*
X246491Y254859D01*
X246264Y254901D01*
X246209Y254903D01*
X246155Y254911D01*
X245925Y254915D01*
X245694Y254924D01*
X245640Y254918D01*
X245585Y254919D01*
X245356Y254890D01*
X245128Y254867D01*
X245074Y254854D01*
X245020Y254847D01*
X244797Y254786D01*
X244574Y254732D01*
X244523Y254711D01*
X244470Y254697D01*
X244259Y254605D01*
X244045Y254520D01*
X243997Y254493D01*
X243947Y254471D01*
X243750Y254351D01*
X243723Y254335D01*
X233978Y254335D01*
X233543Y254771D01*
X233497Y254811D01*
X233456Y254855D01*
X233282Y254998D01*
X233112Y255145D01*
X233062Y255178D01*
X233015Y255216D01*
X232822Y255333D01*
X232634Y255455D01*
X232579Y255480D01*
X232528Y255511D01*
X232322Y255600D01*
X232117Y255695D01*
X232059Y255712D01*
X232004Y255736D01*
X231788Y255794D01*
X231572Y255860D01*
X231512Y255869D01*
X231454Y255885D01*
X231337Y255896D01*
X231009Y255947D01*
X230784Y255950D01*
X230669Y255961D01*
X225461Y255961D01*
X225400Y255957D01*
X225340Y255959D01*
X225117Y255937D01*
X224892Y255921D01*
X224833Y255909D01*
X224773Y255903D01*
X224555Y255849D01*
X224335Y255802D01*
X224278Y255782D01*
X224220Y255767D01*
X224011Y255684D01*
X223800Y255606D01*
X223747Y255578D01*
X223691Y255556D01*
X223496Y255444D01*
X223298Y255338D01*
X223249Y255302D01*
X223196Y255272D01*
X223105Y255197D01*
X222838Y255001D01*
X222821Y254985D01*
X211538Y254985D01*
X210216Y256308D01*
X210182Y256372D01*
X210079Y256577D01*
X210048Y256623D01*
X210022Y256671D01*
X209886Y256857D01*
X209755Y257046D01*
X209718Y257087D01*
X209685Y257131D01*
X209525Y257296D01*
X209369Y257465D01*
X209326Y257500D01*
X209288Y257539D01*
X209106Y257680D01*
X208928Y257826D01*
X208880Y257854D01*
X208837Y257888D01*
X208637Y258002D01*
X208440Y258121D01*
X208390Y258143D01*
X208342Y258170D01*
X208128Y258255D01*
X207917Y258346D01*
X207864Y258360D01*
X207813Y258380D01*
X207588Y258435D01*
X207367Y258495D01*
X207323Y258499D01*
X207259Y258515D01*
X206692Y258570D01*
X206626Y258567D01*
X206582Y258571D01*
X157925Y258571D01*
X157810Y258563D01*
X157694Y258565D01*
X157526Y258543D01*
X157356Y258531D01*
X157243Y258507D01*
X157129Y258493D01*
X156965Y258448D01*
X156799Y258412D01*
X156691Y258373D01*
X156579Y258342D01*
X156424Y258275D01*
X156264Y258216D01*
X156162Y258162D01*
X156056Y258116D01*
X155911Y258028D01*
X155761Y257948D01*
X155668Y257879D01*
X155570Y257819D01*
X155439Y257712D01*
X155302Y257611D01*
X155219Y257531D01*
X155130Y257458D01*
X155015Y257332D01*
X154893Y257214D01*
X154823Y257122D01*
X154745Y257038D01*
X154649Y256898D01*
X154545Y256763D01*
X154488Y256663D01*
X154422Y256568D01*
X154346Y256416D01*
X154262Y256268D01*
X154220Y256161D01*
X154168Y256058D01*
X154115Y255897D01*
X154052Y255739D01*
X154025Y255626D01*
X153989Y255517D01*
X153958Y255350D01*
X153918Y255185D01*
X153907Y255070D01*
X153886Y254957D01*
X153879Y254787D01*
X153863Y254618D01*
X153868Y254502D01*
X153863Y254387D01*
X153880Y254218D01*
X153887Y254048D01*
X153908Y253935D01*
X153920Y253820D01*
X153960Y253655D01*
X153991Y253488D01*
X154028Y253379D01*
X154056Y253267D01*
X154119Y253109D01*
X154135Y253061D01*
X154135Y250618D01*
X154151Y250389D01*
X154161Y250158D01*
X154171Y250104D01*
X154175Y250050D01*
X154223Y249824D01*
X154265Y249598D01*
X154282Y249546D01*
X154294Y249492D01*
X154373Y249276D01*
X154446Y249058D01*
X154471Y249009D01*
X154490Y248957D01*
X154598Y248754D01*
X154701Y248549D01*
X154732Y248503D01*
X154758Y248455D01*
X154894Y248269D01*
X155025Y248080D01*
X155062Y248039D01*
X155095Y247995D01*
X155255Y247830D01*
X155411Y247661D01*
X155454Y247626D01*
X155492Y247587D01*
X155674Y247446D01*
X155852Y247300D01*
X155900Y247272D01*
X155943Y247238D01*
X156143Y247124D01*
X156340Y247005D01*
X156390Y246983D01*
X156438Y246956D01*
X156652Y246871D01*
X156863Y246780D01*
X156916Y246766D01*
X156967Y246746D01*
X157192Y246691D01*
X157413Y246631D01*
X157457Y246627D01*
X157521Y246611D01*
X158088Y246556D01*
X158154Y246559D01*
X158198Y246555D01*
X169209Y246555D01*
X169390Y246430D01*
X169439Y246406D01*
X169485Y246376D01*
X169694Y246279D01*
X169900Y246177D01*
X169952Y246159D01*
X170002Y246136D01*
X170222Y246069D01*
X170441Y245997D01*
X170495Y245987D01*
X170547Y245971D01*
X170774Y245936D01*
X171001Y245894D01*
X171056Y245892D01*
X171110Y245884D01*
X171340Y245880D01*
X171571Y245871D01*
X171625Y245877D01*
X171680Y245876D01*
X171908Y245905D01*
X172137Y245928D01*
X172191Y245941D01*
X172245Y245948D01*
X172467Y246009D01*
X172691Y246063D01*
X172742Y246084D01*
X172795Y246098D01*
X173006Y246189D01*
X173220Y246275D01*
X173268Y246303D01*
X173318Y246324D01*
X173514Y246444D01*
X173707Y246555D01*
X186082Y246555D01*
X186975Y245662D01*
X186975Y234367D01*
X186918Y234305D01*
X186887Y234259D01*
X186851Y234218D01*
X186726Y234025D01*
X186595Y233835D01*
X186571Y233786D01*
X186541Y233740D01*
X186444Y233531D01*
X186342Y233325D01*
X186324Y233273D01*
X186301Y233223D01*
X186234Y233003D01*
X186162Y232784D01*
X186152Y232730D01*
X186136Y232678D01*
X186101Y232450D01*
X186059Y232224D01*
X186057Y232169D01*
X186049Y232115D01*
X186045Y231885D01*
X186036Y231654D01*
X186042Y231600D01*
X186041Y231545D01*
X186070Y231317D01*
X186093Y231088D01*
X186106Y231034D01*
X186113Y230980D01*
X186174Y230758D01*
X186228Y230534D01*
X186249Y230483D01*
X186263Y230430D01*
X186354Y230219D01*
X186440Y230005D01*
X186467Y229957D01*
X186489Y229907D01*
X186609Y229710D01*
X186724Y229511D01*
X186752Y229477D01*
X186786Y229421D01*
X186975Y229191D01*
X186975Y217888D01*
X186082Y216995D01*
X173691Y216995D01*
X173510Y217120D01*
X173461Y217144D01*
X173415Y217174D01*
X173206Y217271D01*
X173000Y217373D01*
X172948Y217391D01*
X172898Y217414D01*
X172678Y217481D01*
X172459Y217553D01*
X172405Y217563D01*
X172353Y217579D01*
X172125Y217614D01*
X171899Y217656D01*
X171844Y217658D01*
X171790Y217666D01*
X171560Y217670D01*
X171329Y217679D01*
X171275Y217673D01*
X171220Y217674D01*
X170992Y217645D01*
X170762Y217622D01*
X170709Y217609D01*
X170655Y217602D01*
X170432Y217541D01*
X170209Y217486D01*
X170158Y217466D01*
X170105Y217452D01*
X169893Y217360D01*
X169680Y217275D01*
X169632Y217248D01*
X169582Y217226D01*
X169385Y217106D01*
X169193Y216995D01*
X158198Y216995D01*
X157969Y216979D01*
X157738Y216969D01*
X157684Y216959D01*
X157630Y216955D01*
X157404Y216907D01*
X157178Y216865D01*
X157126Y216848D01*
X157072Y216836D01*
X156856Y216757D01*
X156638Y216684D01*
X156589Y216659D01*
X156537Y216640D01*
X156334Y216532D01*
X156129Y216429D01*
X156083Y216398D01*
X156035Y216372D01*
X155849Y216236D01*
X155660Y216105D01*
X155619Y216068D01*
X155575Y216035D01*
X155410Y215875D01*
X155241Y215719D01*
X155206Y215676D01*
X155167Y215638D01*
X155026Y215456D01*
X154880Y215278D01*
X154852Y215230D01*
X154818Y215187D01*
X154704Y214987D01*
X154585Y214790D01*
X154563Y214740D01*
X154536Y214692D01*
X154451Y214478D01*
X154360Y214267D01*
X154346Y214214D01*
X154326Y214163D01*
X154271Y213938D01*
X154211Y213717D01*
X154207Y213673D01*
X154191Y213609D01*
X154136Y213042D01*
X154139Y212976D01*
X154135Y212932D01*
X154135Y207772D01*
X154151Y207543D01*
X154161Y207312D01*
X154171Y207258D01*
X154175Y207204D01*
X154223Y206978D01*
X154265Y206752D01*
X154282Y206700D01*
X154294Y206646D01*
X154373Y206430D01*
X154446Y206212D01*
X154471Y206163D01*
X154490Y206111D01*
X154598Y205908D01*
X154701Y205703D01*
X154732Y205657D01*
X154758Y205609D01*
X154894Y205423D01*
X155025Y205234D01*
X155062Y205193D01*
X155095Y205149D01*
X155255Y204984D01*
X155411Y204815D01*
X155454Y204780D01*
X155492Y204741D01*
X155674Y204600D01*
X155852Y204454D01*
X155900Y204426D01*
X155943Y204392D01*
X156143Y204278D01*
X156340Y204159D01*
X156390Y204137D01*
X156438Y204110D01*
X156652Y204025D01*
X156863Y203934D01*
X156916Y203920D01*
X156967Y203900D01*
X157192Y203845D01*
X157413Y203785D01*
X157457Y203781D01*
X157521Y203765D01*
X158088Y203710D01*
X158154Y203713D01*
X158198Y203709D01*
X174596Y203709D01*
X175689Y203256D01*
X175801Y203219D01*
X175910Y203172D01*
X176071Y203129D01*
X176230Y203075D01*
X176346Y203054D01*
X176460Y203023D01*
X176573Y203012D01*
X176790Y202972D01*
X177128Y202958D01*
X177244Y202947D01*
X248746Y202947D01*
X248975Y202963D01*
G37*
G36*
X78775Y13974D02*
X78775Y13974D01*
X78809Y13972D01*
X78998Y13994D01*
X79189Y14011D01*
X79222Y14020D01*
X79256Y14024D01*
X79439Y14079D01*
X79623Y14129D01*
X79654Y14144D01*
X79687Y14154D01*
X79858Y14241D01*
X80030Y14323D01*
X80058Y14343D01*
X80089Y14358D01*
X80241Y14474D01*
X80396Y14585D01*
X80420Y14610D01*
X80447Y14630D01*
X80576Y14771D01*
X80710Y14907D01*
X80729Y14936D01*
X80753Y14962D01*
X80855Y15123D01*
X80962Y15280D01*
X80976Y15312D01*
X80994Y15341D01*
X81067Y15518D01*
X81144Y15692D01*
X81152Y15726D01*
X81165Y15758D01*
X81205Y15945D01*
X81251Y16130D01*
X81253Y16164D01*
X81260Y16198D01*
X81279Y16510D01*
X81279Y48624D01*
X81267Y48765D01*
X81264Y48907D01*
X81247Y48989D01*
X81239Y49073D01*
X81202Y49210D01*
X81174Y49348D01*
X81143Y49426D01*
X81121Y49507D01*
X81060Y49635D01*
X81008Y49767D01*
X80963Y49838D01*
X80927Y49914D01*
X80845Y50029D01*
X80770Y50149D01*
X80714Y50212D01*
X80665Y50280D01*
X80564Y50379D01*
X80469Y50484D01*
X80403Y50535D01*
X80343Y50594D01*
X80225Y50673D01*
X80114Y50760D01*
X80039Y50799D01*
X79970Y50846D01*
X79840Y50903D01*
X79715Y50969D01*
X79635Y50994D01*
X79558Y51028D01*
X79420Y51062D01*
X79285Y51104D01*
X79202Y51115D01*
X79120Y51135D01*
X78979Y51144D01*
X78839Y51162D01*
X78755Y51158D01*
X78671Y51163D01*
X78530Y51146D01*
X78389Y51139D01*
X78280Y51117D01*
X78224Y51111D01*
X78174Y51096D01*
X78083Y51077D01*
X77345Y50879D01*
X74049Y50879D01*
X74049Y58420D01*
X74049Y65961D01*
X77345Y65961D01*
X78083Y65763D01*
X78222Y65739D01*
X78360Y65705D01*
X78443Y65700D01*
X78526Y65685D01*
X78668Y65686D01*
X78809Y65677D01*
X78893Y65687D01*
X78977Y65687D01*
X79115Y65713D01*
X79256Y65729D01*
X79337Y65754D01*
X79419Y65769D01*
X79552Y65819D01*
X79687Y65860D01*
X79762Y65898D01*
X79841Y65927D01*
X79963Y66000D01*
X80089Y66064D01*
X80155Y66115D01*
X80228Y66158D01*
X80335Y66251D01*
X80447Y66336D01*
X80504Y66398D01*
X80568Y66453D01*
X80657Y66563D01*
X80753Y66667D01*
X80798Y66738D01*
X80850Y66804D01*
X80918Y66928D01*
X80994Y67047D01*
X81026Y67125D01*
X81067Y67198D01*
X81112Y67333D01*
X81165Y67464D01*
X81183Y67546D01*
X81210Y67625D01*
X81230Y67765D01*
X81260Y67904D01*
X81267Y68015D01*
X81275Y68071D01*
X81274Y68122D01*
X81279Y68216D01*
X81279Y194310D01*
X81278Y194323D01*
X81278Y194327D01*
X81276Y194345D01*
X81278Y194379D01*
X81256Y194568D01*
X81239Y194759D01*
X81230Y194792D01*
X81226Y194826D01*
X81171Y195009D01*
X81121Y195193D01*
X81106Y195224D01*
X81096Y195257D01*
X81009Y195428D01*
X80927Y195600D01*
X80907Y195628D01*
X80892Y195659D01*
X80776Y195811D01*
X80665Y195966D01*
X80640Y195990D01*
X80620Y196017D01*
X80480Y196146D01*
X80343Y196280D01*
X80314Y196299D01*
X80288Y196323D01*
X80127Y196425D01*
X79970Y196532D01*
X79938Y196546D01*
X79909Y196564D01*
X79732Y196637D01*
X79558Y196714D01*
X79524Y196722D01*
X79492Y196735D01*
X79305Y196775D01*
X79120Y196821D01*
X79086Y196823D01*
X79052Y196830D01*
X78740Y196849D01*
X15240Y196849D01*
X15206Y196846D01*
X15171Y196848D01*
X14982Y196826D01*
X14792Y196809D01*
X14758Y196800D01*
X14724Y196796D01*
X14541Y196741D01*
X14357Y196691D01*
X14326Y196676D01*
X14293Y196666D01*
X14122Y196579D01*
X13951Y196497D01*
X13922Y196477D01*
X13891Y196462D01*
X13739Y196346D01*
X13584Y196235D01*
X13560Y196210D01*
X13533Y196190D01*
X13404Y196050D01*
X13270Y195913D01*
X13251Y195884D01*
X13228Y195858D01*
X13125Y195697D01*
X13018Y195540D01*
X13004Y195508D01*
X12986Y195479D01*
X12913Y195302D01*
X12836Y195128D01*
X12828Y195094D01*
X12815Y195062D01*
X12775Y194875D01*
X12729Y194690D01*
X12727Y194656D01*
X12720Y194622D01*
X12701Y194310D01*
X12701Y16510D01*
X12704Y16476D01*
X12702Y16441D01*
X12724Y16252D01*
X12741Y16062D01*
X12750Y16028D01*
X12754Y15994D01*
X12809Y15811D01*
X12859Y15627D01*
X12874Y15596D01*
X12884Y15563D01*
X12971Y15392D01*
X13053Y15221D01*
X13073Y15192D01*
X13088Y15161D01*
X13204Y15009D01*
X13315Y14854D01*
X13340Y14830D01*
X13360Y14803D01*
X13501Y14674D01*
X13637Y14540D01*
X13666Y14521D01*
X13692Y14498D01*
X13853Y14395D01*
X14010Y14288D01*
X14042Y14274D01*
X14071Y14256D01*
X14248Y14183D01*
X14422Y14106D01*
X14456Y14098D01*
X14488Y14085D01*
X14675Y14045D01*
X14860Y13999D01*
X14894Y13997D01*
X14928Y13990D01*
X15240Y13971D01*
X78740Y13971D01*
X78775Y13974D01*
G37*
G36*
X294675Y48264D02*
X294675Y48264D01*
X294709Y48262D01*
X294898Y48284D01*
X295089Y48301D01*
X295122Y48310D01*
X295156Y48314D01*
X295339Y48369D01*
X295523Y48419D01*
X295554Y48434D01*
X295587Y48444D01*
X295758Y48531D01*
X295930Y48613D01*
X295958Y48633D01*
X295989Y48648D01*
X296141Y48764D01*
X296296Y48875D01*
X296320Y48900D01*
X296347Y48920D01*
X296476Y49061D01*
X296610Y49197D01*
X296629Y49226D01*
X296653Y49252D01*
X296755Y49413D01*
X296862Y49570D01*
X296876Y49602D01*
X296894Y49631D01*
X296967Y49808D01*
X297044Y49982D01*
X297052Y50016D01*
X297065Y50048D01*
X297105Y50235D01*
X297151Y50420D01*
X297153Y50454D01*
X297160Y50488D01*
X297179Y50800D01*
X297179Y198120D01*
X297178Y198137D01*
X297178Y198146D01*
X297177Y198161D01*
X297178Y198189D01*
X297156Y198378D01*
X297139Y198569D01*
X297130Y198602D01*
X297126Y198636D01*
X297071Y198819D01*
X297021Y199003D01*
X297006Y199034D01*
X296996Y199067D01*
X296909Y199238D01*
X296827Y199410D01*
X296807Y199438D01*
X296792Y199469D01*
X296676Y199621D01*
X296565Y199776D01*
X296540Y199800D01*
X296520Y199827D01*
X296380Y199956D01*
X296243Y200090D01*
X296214Y200109D01*
X296188Y200133D01*
X296027Y200235D01*
X295870Y200342D01*
X295838Y200356D01*
X295809Y200374D01*
X295632Y200447D01*
X295458Y200524D01*
X295424Y200532D01*
X295392Y200545D01*
X295205Y200585D01*
X295020Y200631D01*
X294986Y200633D01*
X294952Y200640D01*
X294640Y200659D01*
X270430Y200659D01*
X270395Y200656D01*
X270361Y200658D01*
X270172Y200636D01*
X269981Y200619D01*
X269948Y200610D01*
X269914Y200606D01*
X269731Y200551D01*
X269547Y200501D01*
X269516Y200486D01*
X269483Y200476D01*
X269312Y200389D01*
X269140Y200307D01*
X269112Y200287D01*
X269081Y200272D01*
X268929Y200156D01*
X268774Y200045D01*
X268750Y200020D01*
X268723Y200000D01*
X268594Y199860D01*
X268460Y199723D01*
X268441Y199694D01*
X268417Y199668D01*
X268315Y199507D01*
X268208Y199350D01*
X268194Y199318D01*
X268176Y199289D01*
X268103Y199112D01*
X268026Y198938D01*
X268018Y198904D01*
X268005Y198872D01*
X267965Y198685D01*
X267919Y198500D01*
X267917Y198466D01*
X267910Y198432D01*
X267891Y198120D01*
X267891Y194699D01*
X260350Y194699D01*
X252809Y194699D01*
X252809Y198120D01*
X252808Y198137D01*
X252808Y198146D01*
X252807Y198161D01*
X252808Y198189D01*
X252786Y198378D01*
X252769Y198569D01*
X252760Y198602D01*
X252756Y198636D01*
X252701Y198819D01*
X252651Y199003D01*
X252636Y199034D01*
X252626Y199067D01*
X252539Y199238D01*
X252457Y199410D01*
X252437Y199438D01*
X252422Y199469D01*
X252306Y199621D01*
X252195Y199776D01*
X252170Y199800D01*
X252150Y199827D01*
X252010Y199956D01*
X251873Y200090D01*
X251844Y200109D01*
X251818Y200133D01*
X251657Y200235D01*
X251500Y200342D01*
X251468Y200356D01*
X251439Y200374D01*
X251262Y200447D01*
X251088Y200524D01*
X251054Y200532D01*
X251022Y200545D01*
X250835Y200585D01*
X250650Y200631D01*
X250616Y200633D01*
X250582Y200640D01*
X250270Y200659D01*
X237520Y200659D01*
X237485Y200656D01*
X237451Y200658D01*
X237262Y200636D01*
X237071Y200619D01*
X237038Y200610D01*
X237004Y200606D01*
X236821Y200551D01*
X236637Y200501D01*
X236606Y200486D01*
X236573Y200476D01*
X236402Y200389D01*
X236230Y200307D01*
X236202Y200287D01*
X236171Y200272D01*
X236019Y200156D01*
X235864Y200045D01*
X235840Y200020D01*
X235813Y200000D01*
X235684Y199860D01*
X235550Y199723D01*
X235531Y199694D01*
X235507Y199668D01*
X235405Y199507D01*
X235298Y199350D01*
X235284Y199318D01*
X235266Y199289D01*
X235193Y199112D01*
X235116Y198938D01*
X235108Y198904D01*
X235095Y198872D01*
X235055Y198685D01*
X235009Y198500D01*
X235007Y198466D01*
X235000Y198432D01*
X234981Y198120D01*
X234981Y196849D01*
X226940Y196849D01*
X226906Y196846D01*
X226871Y196848D01*
X226682Y196826D01*
X226492Y196809D01*
X226458Y196800D01*
X226424Y196796D01*
X226241Y196741D01*
X226057Y196691D01*
X226026Y196676D01*
X225993Y196666D01*
X225822Y196579D01*
X225651Y196498D01*
X225623Y196477D01*
X225592Y196462D01*
X225440Y196346D01*
X225285Y196235D01*
X225284Y196235D01*
X225260Y196210D01*
X225233Y196190D01*
X225233Y196189D01*
X225232Y196189D01*
X225103Y196049D01*
X224970Y195912D01*
X224951Y195884D01*
X224927Y195858D01*
X224825Y195697D01*
X224718Y195539D01*
X224704Y195508D01*
X224685Y195478D01*
X224613Y195302D01*
X224536Y195127D01*
X224528Y195094D01*
X224515Y195062D01*
X224474Y194875D01*
X224429Y194690D01*
X224427Y194656D01*
X224420Y194622D01*
X224401Y194310D01*
X224401Y186769D01*
X221105Y186769D01*
X220459Y186942D01*
X219880Y187277D01*
X219517Y187640D01*
X219490Y187662D01*
X219468Y187688D01*
X219318Y187806D01*
X219172Y187929D01*
X219142Y187946D01*
X219114Y187967D01*
X218946Y188057D01*
X218781Y188152D01*
X218748Y188164D01*
X218718Y188180D01*
X218536Y188239D01*
X218356Y188303D01*
X218322Y188308D01*
X218289Y188319D01*
X218101Y188345D01*
X217912Y188376D01*
X217878Y188376D01*
X217843Y188381D01*
X217653Y188373D01*
X217462Y188370D01*
X217428Y188364D01*
X217393Y188362D01*
X217208Y188321D01*
X217020Y188285D01*
X216988Y188272D01*
X216954Y188265D01*
X216778Y188191D01*
X216600Y188122D01*
X216570Y188104D01*
X216538Y188091D01*
X216378Y187988D01*
X216215Y187888D01*
X216189Y187866D01*
X216160Y187847D01*
X216091Y187785D01*
X203808Y187785D01*
X202790Y188804D01*
X202626Y188941D01*
X202466Y189077D01*
X202455Y189084D01*
X202445Y189093D01*
X202260Y189198D01*
X202078Y189305D01*
X202065Y189309D01*
X202054Y189316D01*
X201854Y189387D01*
X201655Y189460D01*
X201642Y189462D01*
X201629Y189467D01*
X201420Y189501D01*
X201211Y189538D01*
X201198Y189538D01*
X201185Y189540D01*
X200971Y189537D01*
X200761Y189537D01*
X200748Y189534D01*
X200735Y189534D01*
X200526Y189494D01*
X200318Y189456D01*
X200303Y189451D01*
X200293Y189449D01*
X200256Y189434D01*
X200023Y189354D01*
X199176Y189003D01*
X197064Y189003D01*
X195114Y189811D01*
X193621Y191304D01*
X192813Y193254D01*
X192813Y195366D01*
X193552Y197148D01*
X193573Y197217D01*
X193592Y197259D01*
X193593Y197265D01*
X193610Y197302D01*
X193644Y197441D01*
X193686Y197578D01*
X193697Y197660D01*
X193716Y197740D01*
X193725Y197882D01*
X193743Y198025D01*
X193739Y198107D01*
X193744Y198189D01*
X193727Y198331D01*
X193720Y198474D01*
X193702Y198554D01*
X193692Y198636D01*
X193650Y198774D01*
X193618Y198913D01*
X193586Y198988D01*
X193562Y199067D01*
X193497Y199195D01*
X193440Y199326D01*
X193395Y199395D01*
X193357Y199469D01*
X193271Y199583D01*
X193192Y199702D01*
X193135Y199762D01*
X193085Y199827D01*
X192980Y199924D01*
X192881Y200028D01*
X192815Y200077D01*
X192754Y200133D01*
X192633Y200210D01*
X192518Y200294D01*
X192444Y200330D01*
X192374Y200374D01*
X192242Y200429D01*
X192113Y200492D01*
X192034Y200514D01*
X191958Y200545D01*
X191818Y200575D01*
X191680Y200615D01*
X191598Y200623D01*
X191518Y200640D01*
X191272Y200655D01*
X191232Y200659D01*
X191221Y200658D01*
X191206Y200659D01*
X161290Y200659D01*
X161256Y200656D01*
X161221Y200658D01*
X161032Y200636D01*
X160842Y200619D01*
X160808Y200610D01*
X160774Y200606D01*
X160591Y200551D01*
X160407Y200501D01*
X160376Y200486D01*
X160343Y200476D01*
X160172Y200389D01*
X160001Y200307D01*
X159972Y200287D01*
X159941Y200272D01*
X159789Y200156D01*
X159634Y200045D01*
X159610Y200020D01*
X159583Y200000D01*
X159454Y199860D01*
X159320Y199723D01*
X159301Y199694D01*
X159278Y199668D01*
X159175Y199507D01*
X159068Y199350D01*
X159054Y199318D01*
X159036Y199289D01*
X158963Y199112D01*
X158886Y198938D01*
X158878Y198904D01*
X158865Y198872D01*
X158825Y198685D01*
X158779Y198500D01*
X158777Y198466D01*
X158770Y198432D01*
X158751Y198120D01*
X158751Y182446D01*
X158767Y182269D01*
X158776Y182092D01*
X158786Y182046D01*
X158791Y181998D01*
X158838Y181826D01*
X158878Y181653D01*
X158897Y181609D01*
X158909Y181563D01*
X158985Y181403D01*
X159056Y181240D01*
X159082Y181200D01*
X159103Y181157D01*
X159206Y181012D01*
X159304Y180864D01*
X159337Y180830D01*
X159365Y180791D01*
X159492Y180667D01*
X159615Y180538D01*
X159653Y180510D01*
X159687Y180477D01*
X159835Y180377D01*
X159978Y180272D01*
X160021Y180251D01*
X160060Y180225D01*
X160223Y180153D01*
X160382Y180075D01*
X160428Y180062D01*
X160472Y180042D01*
X160645Y180000D01*
X160816Y179952D01*
X160863Y179947D01*
X160910Y179936D01*
X161087Y179925D01*
X161264Y179907D01*
X161311Y179911D01*
X161359Y179908D01*
X161536Y179928D01*
X161713Y179942D01*
X161759Y179954D01*
X161806Y179960D01*
X161977Y180012D01*
X162148Y180056D01*
X162191Y180076D01*
X162237Y180090D01*
X162396Y180171D01*
X162557Y180246D01*
X162596Y180273D01*
X162639Y180295D01*
X162780Y180402D01*
X162926Y180504D01*
X162959Y180538D01*
X162997Y180567D01*
X163118Y180697D01*
X163243Y180823D01*
X163270Y180863D01*
X163303Y180898D01*
X163398Y181048D01*
X163499Y181194D01*
X163525Y181247D01*
X163544Y181278D01*
X163568Y181336D01*
X163636Y181475D01*
X164411Y183346D01*
X165904Y184839D01*
X167854Y185647D01*
X169966Y185647D01*
X171916Y184839D01*
X173409Y183346D01*
X174241Y181337D01*
X174257Y181162D01*
X174266Y181128D01*
X174270Y181094D01*
X174325Y180911D01*
X174375Y180727D01*
X174390Y180696D01*
X174400Y180663D01*
X174487Y180492D01*
X174569Y180321D01*
X174589Y180292D01*
X174604Y180261D01*
X174720Y180109D01*
X174831Y179954D01*
X174856Y179930D01*
X174876Y179903D01*
X175016Y179774D01*
X175153Y179640D01*
X175182Y179621D01*
X175208Y179598D01*
X175283Y179550D01*
X175292Y179501D01*
X175301Y179406D01*
X175335Y179280D01*
X175360Y179153D01*
X175394Y179064D01*
X175419Y178971D01*
X175475Y178854D01*
X175522Y178733D01*
X175572Y178651D01*
X175613Y178565D01*
X175688Y178459D01*
X175756Y178348D01*
X175819Y178276D01*
X175875Y178199D01*
X175968Y178108D01*
X176054Y178010D01*
X176129Y177951D01*
X176197Y177885D01*
X176305Y177812D01*
X176407Y177731D01*
X176491Y177686D01*
X176570Y177632D01*
X176689Y177580D01*
X176804Y177518D01*
X176895Y177489D01*
X176982Y177450D01*
X177108Y177419D01*
X177232Y177379D01*
X177327Y177366D01*
X177420Y177344D01*
X177549Y177336D01*
X177678Y177318D01*
X177774Y177322D01*
X177869Y177316D01*
X177998Y177331D01*
X178128Y177336D01*
X178221Y177357D01*
X178316Y177368D01*
X178441Y177406D01*
X178568Y177434D01*
X178656Y177471D01*
X178747Y177498D01*
X178863Y177557D01*
X178983Y177607D01*
X179063Y177659D01*
X179149Y177703D01*
X179252Y177781D01*
X179361Y177852D01*
X179459Y177938D01*
X179507Y177975D01*
X179538Y178008D01*
X179596Y178059D01*
X180130Y178593D01*
X180709Y178928D01*
X181355Y179101D01*
X184151Y179101D01*
X184151Y171060D01*
X184154Y171026D01*
X184152Y170991D01*
X184174Y170802D01*
X184190Y170612D01*
X184200Y170578D01*
X184204Y170544D01*
X184259Y170361D01*
X184309Y170177D01*
X184324Y170146D01*
X184334Y170113D01*
X184421Y169942D01*
X184502Y169771D01*
X184523Y169743D01*
X184538Y169712D01*
X184653Y169560D01*
X184765Y169405D01*
X184789Y169381D01*
X184810Y169353D01*
X184950Y169224D01*
X185087Y169091D01*
X185116Y169071D01*
X185141Y169048D01*
X185302Y168945D01*
X185460Y168839D01*
X185492Y168825D01*
X185521Y168806D01*
X185698Y168734D01*
X185872Y168656D01*
X185906Y168648D01*
X185938Y168635D01*
X186124Y168595D01*
X186309Y168550D01*
X186344Y168548D01*
X186378Y168540D01*
X186690Y168521D01*
X186725Y168524D01*
X186759Y168522D01*
X186949Y168544D01*
X187139Y168561D01*
X187172Y168570D01*
X187206Y168574D01*
X187389Y168629D01*
X187573Y168680D01*
X187604Y168694D01*
X187637Y168704D01*
X187808Y168791D01*
X187980Y168873D01*
X188008Y168893D01*
X188039Y168909D01*
X188191Y169024D01*
X188346Y169135D01*
X188370Y169160D01*
X188397Y169181D01*
X188527Y169321D01*
X188660Y169458D01*
X188679Y169486D01*
X188703Y169512D01*
X188805Y169673D01*
X188912Y169831D01*
X188926Y169862D01*
X188944Y169892D01*
X189017Y170068D01*
X189094Y170243D01*
X189102Y170276D01*
X189115Y170308D01*
X189156Y170495D01*
X189201Y170680D01*
X189203Y170714D01*
X189210Y170748D01*
X189229Y171060D01*
X189229Y179101D01*
X192025Y179101D01*
X192671Y178928D01*
X193404Y178504D01*
X193542Y178440D01*
X193677Y178368D01*
X193746Y178345D01*
X193812Y178315D01*
X193960Y178276D01*
X194106Y178228D01*
X194177Y178219D01*
X194248Y178200D01*
X194400Y178188D01*
X194552Y178167D01*
X194624Y178170D01*
X194696Y178164D01*
X194849Y178179D01*
X195002Y178185D01*
X195072Y178201D01*
X195145Y178208D01*
X195292Y178250D01*
X195441Y178283D01*
X195508Y178311D01*
X195578Y178331D01*
X195715Y178398D01*
X195857Y178457D01*
X195918Y178496D01*
X195983Y178528D01*
X196106Y178618D01*
X196235Y178701D01*
X196305Y178763D01*
X196346Y178793D01*
X196386Y178834D01*
X196469Y178908D01*
X196632Y179071D01*
X228601Y179071D01*
X228601Y169962D01*
X224438Y165800D01*
X224333Y165673D01*
X224221Y165552D01*
X224189Y165501D01*
X224150Y165454D01*
X224068Y165311D01*
X224051Y165285D01*
X223840Y165074D01*
X223818Y165047D01*
X223792Y165024D01*
X223674Y164875D01*
X223551Y164729D01*
X223534Y164698D01*
X223513Y164671D01*
X223423Y164503D01*
X223328Y164338D01*
X223316Y164305D01*
X223300Y164274D01*
X223241Y164093D01*
X223177Y163913D01*
X223172Y163879D01*
X223161Y163846D01*
X223135Y163657D01*
X223104Y163469D01*
X223104Y163434D01*
X223099Y163400D01*
X223107Y163210D01*
X223110Y163019D01*
X223116Y162985D01*
X223118Y162950D01*
X223159Y162765D01*
X223195Y162577D01*
X223208Y162545D01*
X223215Y162511D01*
X223289Y162335D01*
X223358Y162157D01*
X223376Y162127D01*
X223389Y162095D01*
X223492Y161935D01*
X223592Y161772D01*
X223614Y161746D01*
X223633Y161717D01*
X223840Y161483D01*
X224203Y161120D01*
X224538Y160541D01*
X224711Y159895D01*
X224711Y157306D01*
X224723Y157165D01*
X224726Y157024D01*
X224743Y156941D01*
X224751Y156858D01*
X224788Y156721D01*
X224816Y156582D01*
X224847Y156504D01*
X224869Y156423D01*
X224930Y156295D01*
X224982Y156164D01*
X225026Y156092D01*
X225063Y156017D01*
X225145Y155902D01*
X225220Y155781D01*
X225276Y155719D01*
X225325Y155650D01*
X225426Y155552D01*
X225521Y155447D01*
X225587Y155395D01*
X225647Y155336D01*
X225765Y155257D01*
X225876Y155170D01*
X225951Y155131D01*
X226020Y155084D01*
X226150Y155027D01*
X226275Y154961D01*
X226355Y154936D01*
X226432Y154902D01*
X226570Y154869D01*
X226705Y154826D01*
X226788Y154815D01*
X226870Y154795D01*
X227011Y154787D01*
X227151Y154769D01*
X227235Y154773D01*
X227319Y154768D01*
X227460Y154784D01*
X227601Y154791D01*
X227710Y154813D01*
X227766Y154820D01*
X227816Y154835D01*
X227907Y154853D01*
X228345Y154971D01*
X231141Y154971D01*
X231141Y146930D01*
X231144Y146896D01*
X231142Y146861D01*
X231164Y146672D01*
X231180Y146482D01*
X231190Y146448D01*
X231194Y146414D01*
X231249Y146231D01*
X231299Y146047D01*
X231314Y146016D01*
X231324Y145983D01*
X231411Y145812D01*
X231492Y145641D01*
X231513Y145613D01*
X231528Y145582D01*
X231643Y145430D01*
X231755Y145275D01*
X231761Y145269D01*
X231779Y145250D01*
X231800Y145223D01*
X231801Y145223D01*
X231801Y145222D01*
X231941Y145093D01*
X232078Y144960D01*
X232106Y144941D01*
X232132Y144917D01*
X232293Y144815D01*
X232451Y144708D01*
X232482Y144694D01*
X232512Y144675D01*
X232688Y144603D01*
X232863Y144526D01*
X232896Y144518D01*
X232928Y144505D01*
X233115Y144464D01*
X233300Y144419D01*
X233334Y144417D01*
X233368Y144410D01*
X233680Y144391D01*
X241221Y144391D01*
X241221Y142240D01*
X241224Y142206D01*
X241222Y142171D01*
X241244Y141982D01*
X241261Y141792D01*
X241270Y141758D01*
X241274Y141724D01*
X241329Y141541D01*
X241379Y141357D01*
X241394Y141326D01*
X241404Y141293D01*
X241491Y141122D01*
X241573Y140951D01*
X241593Y140922D01*
X241608Y140891D01*
X241724Y140739D01*
X241835Y140584D01*
X241860Y140560D01*
X241880Y140533D01*
X242020Y140404D01*
X242157Y140270D01*
X242186Y140251D01*
X242212Y140228D01*
X242373Y140125D01*
X242530Y140018D01*
X242562Y140004D01*
X242591Y139986D01*
X242768Y139913D01*
X242942Y139836D01*
X242976Y139828D01*
X243008Y139815D01*
X243195Y139775D01*
X243380Y139729D01*
X243414Y139727D01*
X243448Y139720D01*
X243760Y139701D01*
X275591Y139701D01*
X275591Y120150D01*
X275585Y120146D01*
X275430Y120035D01*
X275406Y120010D01*
X275379Y119990D01*
X275250Y119850D01*
X275116Y119713D01*
X275097Y119684D01*
X275073Y119658D01*
X274971Y119497D01*
X274864Y119340D01*
X274850Y119308D01*
X274832Y119279D01*
X274759Y119102D01*
X274682Y118928D01*
X274674Y118894D01*
X274661Y118862D01*
X274621Y118675D01*
X274575Y118490D01*
X274573Y118456D01*
X274566Y118422D01*
X274547Y118110D01*
X274547Y117054D01*
X273739Y115104D01*
X272246Y113611D01*
X270296Y112803D01*
X268184Y112803D01*
X266234Y113611D01*
X264741Y115104D01*
X263933Y117054D01*
X263933Y118110D01*
X263930Y118145D01*
X263932Y118179D01*
X263910Y118368D01*
X263893Y118559D01*
X263884Y118592D01*
X263880Y118626D01*
X263825Y118809D01*
X263775Y118993D01*
X263760Y119024D01*
X263750Y119057D01*
X263663Y119228D01*
X263581Y119400D01*
X263561Y119428D01*
X263546Y119459D01*
X263430Y119611D01*
X263319Y119766D01*
X263294Y119790D01*
X263274Y119817D01*
X263134Y119946D01*
X262997Y120080D01*
X262968Y120099D01*
X262942Y120123D01*
X262781Y120225D01*
X262624Y120332D01*
X262592Y120346D01*
X262563Y120364D01*
X262386Y120437D01*
X262212Y120514D01*
X262178Y120522D01*
X262146Y120535D01*
X261959Y120575D01*
X261774Y120621D01*
X261740Y120623D01*
X261706Y120630D01*
X261394Y120649D01*
X219468Y120649D01*
X219304Y120635D01*
X219140Y120628D01*
X219080Y120615D01*
X219019Y120609D01*
X218861Y120566D01*
X218700Y120530D01*
X218644Y120507D01*
X218585Y120491D01*
X218437Y120420D01*
X218285Y120357D01*
X218233Y120324D01*
X218178Y120297D01*
X218045Y120202D01*
X217907Y120112D01*
X217849Y120061D01*
X217812Y120035D01*
X217770Y119992D01*
X217672Y119906D01*
X216552Y118785D01*
X214890Y118785D01*
X214855Y118782D01*
X214821Y118784D01*
X214632Y118762D01*
X214441Y118745D01*
X214408Y118736D01*
X214374Y118732D01*
X214191Y118677D01*
X214007Y118627D01*
X213976Y118612D01*
X213943Y118602D01*
X213772Y118515D01*
X213600Y118433D01*
X213572Y118413D01*
X213541Y118398D01*
X213389Y118282D01*
X213234Y118171D01*
X213210Y118146D01*
X213183Y118126D01*
X213054Y117986D01*
X212920Y117849D01*
X212901Y117820D01*
X212877Y117794D01*
X212775Y117633D01*
X212668Y117476D01*
X212654Y117444D01*
X212636Y117415D01*
X212563Y117238D01*
X212486Y117064D01*
X212478Y117030D01*
X212465Y116998D01*
X212425Y116811D01*
X212379Y116626D01*
X212377Y116592D01*
X212370Y116558D01*
X212351Y116246D01*
X212351Y114787D01*
X212361Y114671D01*
X212361Y114554D01*
X212381Y114447D01*
X212391Y114339D01*
X212421Y114226D01*
X212442Y114111D01*
X212493Y113965D01*
X212509Y113904D01*
X212525Y113872D01*
X212544Y113815D01*
X212875Y113017D01*
X212875Y110803D01*
X212544Y110005D01*
X212509Y109893D01*
X212465Y109785D01*
X212442Y109679D01*
X212409Y109575D01*
X212395Y109459D01*
X212388Y109429D01*
X212353Y109377D01*
X212232Y109202D01*
X212226Y109188D01*
X212220Y109179D01*
X212204Y109143D01*
X212095Y108922D01*
X212028Y108758D01*
X210475Y107206D01*
X210453Y107179D01*
X210427Y107156D01*
X210309Y107007D01*
X210186Y106860D01*
X210169Y106830D01*
X210148Y106803D01*
X210057Y106635D01*
X209963Y106469D01*
X209951Y106437D01*
X209935Y106406D01*
X209876Y106225D01*
X209812Y106045D01*
X209806Y106011D01*
X209796Y105978D01*
X209770Y105789D01*
X209739Y105601D01*
X209739Y105566D01*
X209734Y105532D01*
X209742Y105341D01*
X209745Y105150D01*
X209751Y105116D01*
X209753Y105082D01*
X209794Y104896D01*
X209830Y104708D01*
X209843Y104676D01*
X209850Y104642D01*
X209924Y104467D01*
X209993Y104288D01*
X210011Y104259D01*
X210024Y104227D01*
X210127Y104067D01*
X210227Y103904D01*
X210249Y103878D01*
X210268Y103849D01*
X210475Y103614D01*
X212028Y102062D01*
X212095Y101898D01*
X212194Y101710D01*
X212290Y101522D01*
X212298Y101511D01*
X212304Y101499D01*
X212386Y101394D01*
X212391Y101339D01*
X212421Y101226D01*
X212442Y101111D01*
X212493Y100965D01*
X212509Y100904D01*
X212525Y100872D01*
X212544Y100815D01*
X212875Y100017D01*
X212875Y97803D01*
X212544Y97005D01*
X212509Y96893D01*
X212465Y96785D01*
X212442Y96679D01*
X212409Y96575D01*
X212395Y96459D01*
X212370Y96345D01*
X212360Y96191D01*
X212353Y96128D01*
X212354Y96092D01*
X212351Y96033D01*
X212351Y95590D01*
X212354Y95555D01*
X212352Y95521D01*
X212374Y95332D01*
X212391Y95141D01*
X212400Y95108D01*
X212404Y95074D01*
X212459Y94891D01*
X212509Y94707D01*
X212524Y94676D01*
X212534Y94643D01*
X212621Y94472D01*
X212703Y94300D01*
X212723Y94272D01*
X212738Y94241D01*
X212854Y94089D01*
X212965Y93934D01*
X212990Y93910D01*
X213010Y93883D01*
X213150Y93754D01*
X213287Y93620D01*
X213316Y93601D01*
X213342Y93577D01*
X213503Y93475D01*
X213660Y93368D01*
X213692Y93354D01*
X213721Y93336D01*
X213898Y93263D01*
X214072Y93186D01*
X214106Y93178D01*
X214138Y93165D01*
X214325Y93125D01*
X214510Y93079D01*
X214544Y93077D01*
X214578Y93070D01*
X214890Y93051D01*
X215934Y93051D01*
X216570Y92924D01*
X217169Y92676D01*
X217708Y92316D01*
X218166Y91858D01*
X218526Y91319D01*
X218774Y90720D01*
X218901Y90084D01*
X218901Y83199D01*
X215899Y83199D01*
X215899Y89776D01*
X215883Y89966D01*
X215871Y90155D01*
X215863Y90189D01*
X215859Y90224D01*
X215809Y90408D01*
X215764Y90593D01*
X215750Y90625D01*
X215741Y90659D01*
X215660Y90830D01*
X215582Y91005D01*
X215563Y91034D01*
X215548Y91065D01*
X215437Y91220D01*
X215330Y91378D01*
X215306Y91403D01*
X215285Y91432D01*
X215149Y91564D01*
X215016Y91701D01*
X214988Y91721D01*
X214963Y91746D01*
X214805Y91852D01*
X214650Y91963D01*
X214619Y91978D01*
X214590Y91998D01*
X214416Y92075D01*
X214244Y92156D01*
X214210Y92166D01*
X214178Y92180D01*
X213993Y92225D01*
X213810Y92275D01*
X213775Y92278D01*
X213740Y92287D01*
X213551Y92298D01*
X213361Y92315D01*
X213326Y92312D01*
X213291Y92314D01*
X213102Y92292D01*
X212913Y92275D01*
X212879Y92266D01*
X212844Y92262D01*
X212661Y92207D01*
X212478Y92157D01*
X212447Y92142D01*
X212413Y92132D01*
X212243Y92045D01*
X212071Y91964D01*
X212043Y91943D01*
X212012Y91928D01*
X211860Y91812D01*
X211705Y91702D01*
X211675Y91672D01*
X211653Y91656D01*
X211611Y91611D01*
X211481Y91484D01*
X211418Y91401D01*
X211348Y91324D01*
X211347Y91324D01*
X211282Y91222D01*
X211209Y91125D01*
X211162Y91032D01*
X211105Y90944D01*
X211059Y90832D01*
X211004Y90724D01*
X210974Y90624D01*
X210935Y90528D01*
X210909Y90409D01*
X210874Y90293D01*
X210862Y90189D01*
X210840Y90088D01*
X210829Y89906D01*
X210822Y89846D01*
X210823Y89818D01*
X210821Y89776D01*
X210821Y80660D01*
X210824Y80626D01*
X210822Y80591D01*
X210844Y80402D01*
X210860Y80212D01*
X210870Y80178D01*
X210874Y80144D01*
X210929Y79961D01*
X210979Y79777D01*
X210994Y79746D01*
X211004Y79713D01*
X211091Y79542D01*
X211172Y79371D01*
X211193Y79343D01*
X211208Y79312D01*
X211323Y79160D01*
X211435Y79005D01*
X211435Y79004D01*
X211459Y78980D01*
X211480Y78953D01*
X211481Y78953D01*
X211481Y78952D01*
X211621Y78823D01*
X211758Y78690D01*
X211786Y78671D01*
X211812Y78647D01*
X211973Y78545D01*
X212131Y78438D01*
X212162Y78424D01*
X212192Y78405D01*
X212368Y78333D01*
X212543Y78256D01*
X212576Y78248D01*
X212608Y78235D01*
X212795Y78194D01*
X212980Y78149D01*
X213014Y78147D01*
X213048Y78140D01*
X213360Y78121D01*
X218901Y78121D01*
X218901Y71236D01*
X218758Y70519D01*
X218741Y70449D01*
X218698Y70313D01*
X218688Y70231D01*
X218668Y70150D01*
X218659Y70008D01*
X218641Y69866D01*
X218646Y69783D01*
X218641Y69701D01*
X218657Y69559D01*
X218664Y69417D01*
X218683Y69336D01*
X218693Y69254D01*
X218734Y69117D01*
X218766Y68978D01*
X218799Y68902D01*
X218823Y68823D01*
X218888Y68695D01*
X218944Y68564D01*
X218990Y68495D01*
X219027Y68421D01*
X219113Y68308D01*
X219192Y68189D01*
X219249Y68128D01*
X219299Y68063D01*
X219404Y67966D01*
X219503Y67863D01*
X219570Y67814D01*
X219630Y67757D01*
X219751Y67681D01*
X219866Y67596D01*
X219940Y67560D01*
X220010Y67516D01*
X220142Y67461D01*
X220271Y67399D01*
X220350Y67376D01*
X220427Y67345D01*
X220566Y67315D01*
X220704Y67276D01*
X220786Y67267D01*
X220867Y67250D01*
X221112Y67235D01*
X221152Y67231D01*
X221163Y67232D01*
X221179Y67231D01*
X223131Y67231D01*
X223131Y59690D01*
X223134Y59656D01*
X223132Y59621D01*
X223154Y59432D01*
X223170Y59242D01*
X223180Y59208D01*
X223184Y59174D01*
X223239Y58991D01*
X223289Y58807D01*
X223304Y58776D01*
X223314Y58743D01*
X223401Y58572D01*
X223482Y58401D01*
X223503Y58373D01*
X223518Y58342D01*
X223633Y58190D01*
X223745Y58035D01*
X223745Y58034D01*
X223769Y58010D01*
X223790Y57983D01*
X223791Y57983D01*
X223791Y57982D01*
X223931Y57853D01*
X224068Y57720D01*
X224096Y57701D01*
X224122Y57677D01*
X224283Y57575D01*
X224441Y57468D01*
X224472Y57454D01*
X224502Y57435D01*
X224678Y57363D01*
X224853Y57286D01*
X224886Y57278D01*
X224918Y57265D01*
X225105Y57224D01*
X225290Y57179D01*
X225324Y57177D01*
X225358Y57170D01*
X225670Y57151D01*
X233711Y57151D01*
X233711Y54355D01*
X233538Y53709D01*
X233203Y53130D01*
X232669Y52596D01*
X232585Y52496D01*
X232495Y52403D01*
X232441Y52323D01*
X232380Y52250D01*
X232315Y52137D01*
X232242Y52030D01*
X232204Y51942D01*
X232156Y51859D01*
X232113Y51737D01*
X232060Y51618D01*
X232038Y51525D01*
X232006Y51435D01*
X231984Y51307D01*
X231954Y51180D01*
X231948Y51085D01*
X231932Y50991D01*
X231934Y50861D01*
X231926Y50731D01*
X231937Y50636D01*
X231938Y50541D01*
X231963Y50413D01*
X231978Y50284D01*
X232006Y50192D01*
X232024Y50098D01*
X232071Y49977D01*
X232108Y49853D01*
X232152Y49768D01*
X232186Y49678D01*
X232254Y49567D01*
X232313Y49451D01*
X232370Y49375D01*
X232420Y49294D01*
X232506Y49196D01*
X232585Y49093D01*
X232655Y49028D01*
X232718Y48956D01*
X232820Y48876D01*
X232916Y48788D01*
X232996Y48736D01*
X233071Y48677D01*
X233186Y48616D01*
X233296Y48546D01*
X233384Y48509D01*
X233468Y48464D01*
X233592Y48424D01*
X233712Y48375D01*
X233806Y48355D01*
X233896Y48325D01*
X234025Y48307D01*
X234152Y48280D01*
X234282Y48272D01*
X234342Y48264D01*
X234387Y48266D01*
X234464Y48261D01*
X294640Y48261D01*
X294675Y48264D01*
G37*
G36*
X106332Y90173D02*
X106332Y90173D01*
X106355Y90171D01*
X106556Y90193D01*
X106757Y90211D01*
X106780Y90217D01*
X106802Y90219D01*
X106996Y90276D01*
X107192Y90329D01*
X107212Y90339D01*
X107235Y90346D01*
X107416Y90436D01*
X107598Y90523D01*
X107617Y90536D01*
X107638Y90546D01*
X107800Y90667D01*
X107964Y90785D01*
X107980Y90801D01*
X107999Y90815D01*
X108137Y90962D01*
X108278Y91107D01*
X108291Y91127D01*
X108307Y91143D01*
X108417Y91313D01*
X108530Y91480D01*
X108540Y91502D01*
X108552Y91521D01*
X108631Y91707D01*
X108713Y91892D01*
X108718Y91915D01*
X108727Y91936D01*
X108771Y92133D01*
X108819Y92330D01*
X108821Y92353D01*
X108826Y92375D01*
X108834Y92577D01*
X108847Y92779D01*
X108844Y92802D01*
X108845Y92825D01*
X108818Y93025D01*
X108795Y93226D01*
X108788Y93248D01*
X108785Y93271D01*
X108723Y93463D01*
X108665Y93657D01*
X108654Y93678D01*
X108647Y93700D01*
X108508Y93980D01*
X108392Y94179D01*
X108219Y94825D01*
X108219Y98336D01*
X117475Y98336D01*
X117509Y98339D01*
X117544Y98337D01*
X117733Y98359D01*
X117923Y98376D01*
X117957Y98385D01*
X117991Y98389D01*
X118110Y98425D01*
X118180Y98409D01*
X118365Y98364D01*
X118399Y98362D01*
X118433Y98355D01*
X118745Y98336D01*
X128001Y98336D01*
X128001Y94825D01*
X127828Y94179D01*
X127712Y93980D01*
X127703Y93959D01*
X127690Y93940D01*
X127608Y93754D01*
X127523Y93571D01*
X127517Y93549D01*
X127507Y93528D01*
X127459Y93331D01*
X127408Y93136D01*
X127406Y93113D01*
X127401Y93090D01*
X127388Y92889D01*
X127372Y92687D01*
X127374Y92664D01*
X127373Y92641D01*
X127396Y92440D01*
X127416Y92239D01*
X127422Y92217D01*
X127425Y92194D01*
X127484Y91999D01*
X127539Y91806D01*
X127549Y91785D01*
X127555Y91763D01*
X127647Y91582D01*
X127736Y91401D01*
X127749Y91382D01*
X127760Y91361D01*
X127882Y91201D01*
X128001Y91037D01*
X128018Y91021D01*
X128032Y91003D01*
X128181Y90865D01*
X128327Y90726D01*
X128346Y90713D01*
X128363Y90698D01*
X128534Y90589D01*
X128702Y90477D01*
X128723Y90468D01*
X128743Y90456D01*
X128929Y90379D01*
X129115Y90299D01*
X129138Y90293D01*
X129159Y90285D01*
X129357Y90242D01*
X129554Y90196D01*
X129577Y90195D01*
X129599Y90190D01*
X129911Y90171D01*
X144536Y90171D01*
X144559Y90173D01*
X144582Y90171D01*
X144783Y90193D01*
X144985Y90211D01*
X145007Y90217D01*
X145030Y90219D01*
X145224Y90276D01*
X145419Y90329D01*
X145440Y90339D01*
X145462Y90346D01*
X145644Y90436D01*
X145826Y90523D01*
X145844Y90536D01*
X145865Y90546D01*
X146028Y90667D01*
X146192Y90785D01*
X146208Y90801D01*
X146226Y90815D01*
X146365Y90963D01*
X146506Y91107D01*
X146519Y91127D01*
X146535Y91143D01*
X146645Y91313D01*
X146758Y91480D01*
X146767Y91502D01*
X146780Y91521D01*
X146858Y91708D01*
X146940Y91892D01*
X146946Y91915D01*
X146955Y91936D01*
X146999Y92133D01*
X147047Y92330D01*
X147048Y92353D01*
X147053Y92375D01*
X147062Y92577D01*
X147075Y92779D01*
X147072Y92802D01*
X147073Y92825D01*
X147046Y93024D01*
X147022Y93226D01*
X147016Y93249D01*
X147013Y93271D01*
X146951Y93463D01*
X146892Y93657D01*
X146882Y93678D01*
X146875Y93700D01*
X146735Y93980D01*
X146302Y94729D01*
X146129Y95375D01*
X146129Y98671D01*
X153670Y98671D01*
X161211Y98671D01*
X161211Y95375D01*
X161038Y94729D01*
X160605Y93980D01*
X160595Y93959D01*
X160582Y93940D01*
X160500Y93754D01*
X160415Y93571D01*
X160409Y93549D01*
X160400Y93528D01*
X160352Y93331D01*
X160301Y93136D01*
X160299Y93113D01*
X160293Y93090D01*
X160281Y92889D01*
X160265Y92687D01*
X160267Y92664D01*
X160266Y92641D01*
X160289Y92440D01*
X160309Y92239D01*
X160315Y92217D01*
X160318Y92194D01*
X160376Y92000D01*
X160431Y91806D01*
X160441Y91785D01*
X160448Y91763D01*
X160540Y91582D01*
X160628Y91401D01*
X160642Y91382D01*
X160652Y91361D01*
X160774Y91200D01*
X160894Y91037D01*
X160910Y91021D01*
X160924Y91003D01*
X161073Y90866D01*
X161219Y90726D01*
X161238Y90713D01*
X161255Y90698D01*
X161426Y90589D01*
X161595Y90477D01*
X161616Y90468D01*
X161635Y90456D01*
X161823Y90379D01*
X162008Y90299D01*
X162030Y90293D01*
X162052Y90285D01*
X162250Y90242D01*
X162446Y90196D01*
X162469Y90195D01*
X162492Y90190D01*
X162804Y90171D01*
X167640Y90171D01*
X167769Y90182D01*
X167900Y90184D01*
X167993Y90202D01*
X168089Y90211D01*
X168214Y90245D01*
X168342Y90270D01*
X168431Y90304D01*
X168523Y90329D01*
X168640Y90385D01*
X168762Y90432D01*
X168843Y90482D01*
X168930Y90523D01*
X169035Y90598D01*
X169146Y90666D01*
X169218Y90729D01*
X169296Y90785D01*
X169386Y90878D01*
X169484Y90964D01*
X169543Y91039D01*
X169610Y91107D01*
X169683Y91215D01*
X169763Y91317D01*
X169808Y91401D01*
X169862Y91480D01*
X169914Y91599D01*
X169976Y91714D01*
X170005Y91805D01*
X170044Y91892D01*
X170075Y92019D01*
X170115Y92142D01*
X170128Y92237D01*
X170151Y92330D01*
X170159Y92459D01*
X170176Y92588D01*
X170172Y92684D01*
X170178Y92779D01*
X170163Y92908D01*
X170158Y93038D01*
X170137Y93131D01*
X170126Y93226D01*
X170089Y93351D01*
X170060Y93478D01*
X170024Y93566D01*
X169996Y93657D01*
X169937Y93773D01*
X169887Y93893D01*
X169835Y93974D01*
X169792Y94059D01*
X169713Y94162D01*
X169642Y94271D01*
X169556Y94369D01*
X169520Y94417D01*
X169487Y94448D01*
X169436Y94506D01*
X168909Y95032D01*
X168909Y122604D01*
X169016Y122721D01*
X169150Y122857D01*
X169169Y122886D01*
X169193Y122912D01*
X169295Y123073D01*
X169402Y123230D01*
X169416Y123262D01*
X169434Y123291D01*
X169507Y123468D01*
X169584Y123642D01*
X169592Y123676D01*
X169605Y123708D01*
X169645Y123895D01*
X169691Y124080D01*
X169693Y124114D01*
X169700Y124148D01*
X169719Y124460D01*
X169719Y127621D01*
X175260Y127621D01*
X175294Y127624D01*
X175329Y127622D01*
X175518Y127644D01*
X175708Y127660D01*
X175742Y127670D01*
X175776Y127674D01*
X175959Y127729D01*
X176143Y127779D01*
X176174Y127794D01*
X176207Y127804D01*
X176378Y127891D01*
X176549Y127972D01*
X176577Y127993D01*
X176608Y128008D01*
X176760Y128123D01*
X176915Y128235D01*
X176939Y128259D01*
X176967Y128280D01*
X177096Y128420D01*
X177229Y128557D01*
X177249Y128586D01*
X177272Y128611D01*
X177375Y128772D01*
X177481Y128930D01*
X177495Y128962D01*
X177514Y128991D01*
X177586Y129168D01*
X177664Y129342D01*
X177672Y129376D01*
X177685Y129408D01*
X177725Y129594D01*
X177770Y129779D01*
X177772Y129814D01*
X177780Y129848D01*
X177799Y130160D01*
X177796Y130195D01*
X177798Y130229D01*
X177776Y130418D01*
X177759Y130609D01*
X177750Y130642D01*
X177746Y130676D01*
X177691Y130859D01*
X177640Y131043D01*
X177626Y131074D01*
X177616Y131107D01*
X177529Y131278D01*
X177447Y131450D01*
X177427Y131478D01*
X177411Y131509D01*
X177296Y131661D01*
X177185Y131816D01*
X177160Y131840D01*
X177139Y131867D01*
X176999Y131997D01*
X176862Y132130D01*
X176834Y132149D01*
X176808Y132173D01*
X176647Y132275D01*
X176489Y132382D01*
X176458Y132396D01*
X176428Y132414D01*
X176252Y132487D01*
X176077Y132564D01*
X176044Y132572D01*
X176012Y132585D01*
X175825Y132626D01*
X175640Y132671D01*
X175606Y132673D01*
X175572Y132680D01*
X175260Y132699D01*
X169719Y132699D01*
X169719Y139584D01*
X169846Y140220D01*
X170094Y140819D01*
X170454Y141358D01*
X170811Y141714D01*
X170894Y141814D01*
X170985Y141907D01*
X171038Y141987D01*
X171100Y142060D01*
X171164Y142173D01*
X171237Y142280D01*
X171276Y142368D01*
X171323Y142451D01*
X171366Y142573D01*
X171419Y142692D01*
X171442Y142785D01*
X171474Y142875D01*
X171495Y143004D01*
X171526Y143130D01*
X171532Y143225D01*
X171547Y143319D01*
X171545Y143450D01*
X171553Y143579D01*
X171542Y143674D01*
X171541Y143770D01*
X171516Y143897D01*
X171501Y144026D01*
X171474Y144118D01*
X171456Y144212D01*
X171409Y144333D01*
X171371Y144457D01*
X171328Y144542D01*
X171293Y144632D01*
X171226Y144743D01*
X171167Y144859D01*
X171109Y144935D01*
X171059Y145016D01*
X170973Y145114D01*
X170895Y145217D01*
X170824Y145282D01*
X170761Y145354D01*
X170659Y145434D01*
X170564Y145523D01*
X170483Y145574D01*
X170408Y145633D01*
X170294Y145694D01*
X170184Y145764D01*
X170095Y145801D01*
X170011Y145846D01*
X169888Y145886D01*
X169767Y145935D01*
X169674Y145955D01*
X169583Y145985D01*
X169454Y146003D01*
X169327Y146030D01*
X169197Y146038D01*
X169137Y146046D01*
X169092Y146045D01*
X169015Y146049D01*
X154939Y146049D01*
X154939Y194310D01*
X154937Y194332D01*
X154938Y194349D01*
X154937Y194359D01*
X154938Y194379D01*
X154916Y194568D01*
X154899Y194759D01*
X154890Y194792D01*
X154886Y194826D01*
X154831Y195009D01*
X154781Y195193D01*
X154766Y195224D01*
X154756Y195257D01*
X154669Y195428D01*
X154587Y195600D01*
X154567Y195628D01*
X154552Y195659D01*
X154436Y195811D01*
X154325Y195966D01*
X154300Y195990D01*
X154280Y196017D01*
X154140Y196146D01*
X154003Y196280D01*
X153974Y196299D01*
X153948Y196323D01*
X153787Y196425D01*
X153630Y196532D01*
X153598Y196546D01*
X153569Y196564D01*
X153392Y196637D01*
X153218Y196714D01*
X153184Y196722D01*
X153152Y196735D01*
X152965Y196775D01*
X152780Y196821D01*
X152746Y196823D01*
X152712Y196830D01*
X152400Y196849D01*
X91440Y196849D01*
X91406Y196846D01*
X91371Y196848D01*
X91182Y196826D01*
X90992Y196809D01*
X90958Y196800D01*
X90924Y196796D01*
X90741Y196741D01*
X90557Y196691D01*
X90526Y196676D01*
X90493Y196666D01*
X90322Y196579D01*
X90151Y196497D01*
X90122Y196477D01*
X90091Y196462D01*
X89939Y196346D01*
X89784Y196235D01*
X89760Y196210D01*
X89733Y196190D01*
X89604Y196050D01*
X89470Y195913D01*
X89451Y195884D01*
X89428Y195858D01*
X89325Y195697D01*
X89218Y195540D01*
X89204Y195508D01*
X89186Y195479D01*
X89113Y195302D01*
X89036Y195128D01*
X89028Y195094D01*
X89015Y195062D01*
X88975Y194875D01*
X88929Y194690D01*
X88927Y194656D01*
X88920Y194622D01*
X88901Y194310D01*
X88901Y184799D01*
X88903Y184776D01*
X88901Y184753D01*
X88923Y184552D01*
X88941Y184350D01*
X88947Y184328D01*
X88949Y184305D01*
X89006Y184111D01*
X89059Y183916D01*
X89069Y183895D01*
X89076Y183873D01*
X89166Y183691D01*
X89253Y183509D01*
X89266Y183491D01*
X89276Y183470D01*
X89397Y183308D01*
X89515Y183143D01*
X89531Y183127D01*
X89545Y183109D01*
X89692Y182971D01*
X89837Y182829D01*
X89857Y182816D01*
X89873Y182801D01*
X90043Y182690D01*
X90210Y182577D01*
X90232Y182568D01*
X90251Y182555D01*
X90437Y182477D01*
X90622Y182395D01*
X90645Y182390D01*
X90666Y182381D01*
X90864Y182336D01*
X91060Y182288D01*
X91083Y182287D01*
X91105Y182282D01*
X91307Y182273D01*
X91509Y182261D01*
X91532Y182263D01*
X91555Y182262D01*
X91755Y182289D01*
X91956Y182313D01*
X91978Y182319D01*
X92001Y182323D01*
X92193Y182384D01*
X92387Y182443D01*
X92408Y182454D01*
X92430Y182461D01*
X92710Y182600D01*
X93069Y182808D01*
X93715Y182981D01*
X100971Y182981D01*
X100971Y157480D01*
X100974Y157446D01*
X100972Y157411D01*
X100994Y157222D01*
X101011Y157032D01*
X101020Y156998D01*
X101024Y156964D01*
X101079Y156781D01*
X101129Y156597D01*
X101144Y156566D01*
X101154Y156533D01*
X101241Y156362D01*
X101323Y156191D01*
X101343Y156163D01*
X101358Y156132D01*
X101474Y155980D01*
X101585Y155825D01*
X101610Y155800D01*
X101630Y155773D01*
X101771Y155644D01*
X101907Y155510D01*
X101936Y155491D01*
X101962Y155468D01*
X102123Y155365D01*
X102281Y155258D01*
X102312Y155244D01*
X102341Y155226D01*
X102518Y155153D01*
X102692Y155076D01*
X102726Y155068D01*
X102758Y155055D01*
X102945Y155015D01*
X103130Y154970D01*
X103164Y154967D01*
X103198Y154960D01*
X103510Y154941D01*
X106051Y154941D01*
X106051Y154939D01*
X103510Y154939D01*
X103476Y154936D01*
X103441Y154938D01*
X103252Y154916D01*
X103062Y154899D01*
X103028Y154890D01*
X102994Y154886D01*
X102811Y154831D01*
X102627Y154781D01*
X102596Y154766D01*
X102563Y154756D01*
X102392Y154669D01*
X102221Y154587D01*
X102192Y154567D01*
X102162Y154551D01*
X102010Y154436D01*
X101854Y154325D01*
X101830Y154300D01*
X101803Y154279D01*
X101674Y154139D01*
X101540Y154003D01*
X101521Y153974D01*
X101498Y153948D01*
X101395Y153787D01*
X101288Y153629D01*
X101274Y153598D01*
X101256Y153569D01*
X101183Y153392D01*
X101106Y153218D01*
X101098Y153184D01*
X101085Y153152D01*
X101045Y152965D01*
X100999Y152780D01*
X100997Y152746D01*
X100990Y152712D01*
X100971Y152400D01*
X100971Y126899D01*
X93715Y126899D01*
X93069Y127072D01*
X92710Y127280D01*
X92689Y127290D01*
X92670Y127303D01*
X92485Y127385D01*
X92301Y127470D01*
X92279Y127476D01*
X92258Y127485D01*
X92061Y127533D01*
X91866Y127584D01*
X91843Y127586D01*
X91820Y127592D01*
X91619Y127604D01*
X91417Y127620D01*
X91394Y127618D01*
X91371Y127619D01*
X91170Y127596D01*
X90969Y127576D01*
X90947Y127570D01*
X90924Y127567D01*
X90729Y127509D01*
X90536Y127454D01*
X90515Y127444D01*
X90493Y127437D01*
X90313Y127345D01*
X90131Y127257D01*
X90112Y127243D01*
X90091Y127233D01*
X89931Y127111D01*
X89767Y126991D01*
X89751Y126975D01*
X89733Y126961D01*
X89595Y126812D01*
X89456Y126666D01*
X89443Y126647D01*
X89428Y126629D01*
X89319Y126459D01*
X89207Y126290D01*
X89198Y126269D01*
X89186Y126250D01*
X89109Y126063D01*
X89029Y125877D01*
X89023Y125854D01*
X89015Y125833D01*
X88972Y125635D01*
X88926Y125439D01*
X88925Y125416D01*
X88920Y125393D01*
X88901Y125081D01*
X88901Y92710D01*
X88904Y92676D01*
X88902Y92641D01*
X88924Y92452D01*
X88941Y92262D01*
X88950Y92228D01*
X88954Y92194D01*
X89009Y92010D01*
X89059Y91827D01*
X89074Y91796D01*
X89084Y91763D01*
X89171Y91592D01*
X89253Y91421D01*
X89273Y91392D01*
X89288Y91361D01*
X89404Y91209D01*
X89515Y91054D01*
X89540Y91030D01*
X89560Y91003D01*
X89701Y90874D01*
X89837Y90740D01*
X89866Y90721D01*
X89892Y90698D01*
X90053Y90595D01*
X90210Y90488D01*
X90242Y90474D01*
X90271Y90456D01*
X90448Y90383D01*
X90622Y90306D01*
X90656Y90298D01*
X90688Y90285D01*
X90875Y90245D01*
X91060Y90199D01*
X91094Y90197D01*
X91128Y90190D01*
X91440Y90171D01*
X106309Y90171D01*
X106332Y90173D01*
G37*
G36*
X177835Y13974D02*
X177835Y13974D01*
X177869Y13972D01*
X178058Y13994D01*
X178249Y14011D01*
X178282Y14020D01*
X178316Y14024D01*
X178499Y14079D01*
X178683Y14129D01*
X178714Y14144D01*
X178747Y14154D01*
X178918Y14241D01*
X179090Y14323D01*
X179118Y14343D01*
X179149Y14358D01*
X179301Y14474D01*
X179456Y14585D01*
X179480Y14610D01*
X179507Y14630D01*
X179636Y14771D01*
X179770Y14907D01*
X179789Y14936D01*
X179813Y14962D01*
X179915Y15123D01*
X180022Y15280D01*
X180036Y15312D01*
X180054Y15341D01*
X180127Y15518D01*
X180204Y15692D01*
X180212Y15726D01*
X180225Y15758D01*
X180265Y15945D01*
X180311Y16130D01*
X180313Y16164D01*
X180320Y16198D01*
X180339Y16510D01*
X180339Y19130D01*
X180336Y19165D01*
X180338Y19199D01*
X180316Y19388D01*
X180299Y19579D01*
X180290Y19612D01*
X180286Y19646D01*
X180231Y19829D01*
X180181Y20013D01*
X180166Y20044D01*
X180156Y20077D01*
X180069Y20248D01*
X179987Y20420D01*
X179967Y20448D01*
X179952Y20479D01*
X179836Y20631D01*
X179725Y20786D01*
X179700Y20810D01*
X179680Y20837D01*
X179540Y20966D01*
X179403Y21100D01*
X179374Y21119D01*
X179348Y21143D01*
X179187Y21245D01*
X179030Y21352D01*
X178998Y21366D01*
X178969Y21384D01*
X178792Y21457D01*
X178618Y21534D01*
X178584Y21542D01*
X178552Y21555D01*
X178365Y21595D01*
X178180Y21641D01*
X178146Y21643D01*
X178112Y21650D01*
X177800Y21669D01*
X174379Y21669D01*
X174379Y29210D01*
X174379Y36751D01*
X177800Y36751D01*
X177835Y36754D01*
X177869Y36752D01*
X178058Y36774D01*
X178249Y36791D01*
X178282Y36800D01*
X178316Y36804D01*
X178499Y36859D01*
X178683Y36909D01*
X178714Y36924D01*
X178747Y36934D01*
X178918Y37021D01*
X179090Y37103D01*
X179118Y37123D01*
X179149Y37138D01*
X179301Y37254D01*
X179456Y37365D01*
X179480Y37390D01*
X179507Y37410D01*
X179636Y37550D01*
X179770Y37687D01*
X179789Y37716D01*
X179813Y37742D01*
X179915Y37903D01*
X180022Y38060D01*
X180036Y38092D01*
X180054Y38121D01*
X180127Y38298D01*
X180204Y38472D01*
X180212Y38506D01*
X180225Y38538D01*
X180265Y38725D01*
X180311Y38910D01*
X180313Y38944D01*
X180320Y38978D01*
X180339Y39290D01*
X180339Y54610D01*
X180337Y54640D01*
X180338Y54668D01*
X180338Y54672D01*
X180338Y54679D01*
X180316Y54868D01*
X180299Y55059D01*
X180290Y55092D01*
X180286Y55126D01*
X180231Y55309D01*
X180181Y55493D01*
X180166Y55524D01*
X180156Y55557D01*
X180069Y55728D01*
X179987Y55900D01*
X179967Y55928D01*
X179952Y55959D01*
X179836Y56111D01*
X179725Y56266D01*
X179700Y56290D01*
X179680Y56317D01*
X179540Y56446D01*
X179403Y56580D01*
X179374Y56599D01*
X179348Y56623D01*
X179187Y56725D01*
X179030Y56832D01*
X178998Y56846D01*
X178969Y56864D01*
X178792Y56937D01*
X178618Y57014D01*
X178584Y57022D01*
X178552Y57035D01*
X178365Y57075D01*
X178180Y57121D01*
X178146Y57123D01*
X178112Y57130D01*
X177800Y57149D01*
X155992Y57149D01*
X144779Y68362D01*
X144779Y80010D01*
X144777Y80037D01*
X144778Y80060D01*
X144778Y80067D01*
X144778Y80079D01*
X144756Y80268D01*
X144739Y80459D01*
X144730Y80492D01*
X144726Y80526D01*
X144671Y80709D01*
X144621Y80893D01*
X144606Y80924D01*
X144596Y80957D01*
X144509Y81128D01*
X144427Y81300D01*
X144407Y81328D01*
X144392Y81359D01*
X144276Y81511D01*
X144165Y81666D01*
X144140Y81690D01*
X144120Y81717D01*
X143980Y81846D01*
X143843Y81980D01*
X143814Y81999D01*
X143788Y82023D01*
X143627Y82125D01*
X143470Y82232D01*
X143438Y82246D01*
X143409Y82264D01*
X143232Y82337D01*
X143058Y82414D01*
X143024Y82422D01*
X142992Y82435D01*
X142805Y82475D01*
X142620Y82521D01*
X142586Y82523D01*
X142552Y82530D01*
X142240Y82549D01*
X86360Y82549D01*
X86326Y82546D01*
X86291Y82548D01*
X86102Y82526D01*
X85912Y82509D01*
X85878Y82500D01*
X85844Y82496D01*
X85661Y82441D01*
X85477Y82391D01*
X85446Y82376D01*
X85413Y82366D01*
X85242Y82279D01*
X85071Y82197D01*
X85042Y82177D01*
X85011Y82162D01*
X84859Y82046D01*
X84704Y81935D01*
X84680Y81910D01*
X84653Y81890D01*
X84524Y81750D01*
X84390Y81613D01*
X84371Y81584D01*
X84348Y81558D01*
X84245Y81397D01*
X84138Y81240D01*
X84124Y81208D01*
X84106Y81179D01*
X84033Y81002D01*
X83956Y80828D01*
X83948Y80794D01*
X83935Y80762D01*
X83895Y80575D01*
X83849Y80390D01*
X83847Y80356D01*
X83840Y80322D01*
X83821Y80010D01*
X83821Y68500D01*
X83824Y68465D01*
X83822Y68431D01*
X83844Y68242D01*
X83861Y68051D01*
X83870Y68018D01*
X83874Y67984D01*
X83929Y67801D01*
X83979Y67617D01*
X83994Y67586D01*
X84004Y67553D01*
X84091Y67382D01*
X84173Y67210D01*
X84193Y67182D01*
X84208Y67151D01*
X84324Y66999D01*
X84435Y66844D01*
X84460Y66820D01*
X84480Y66793D01*
X84621Y66664D01*
X84757Y66530D01*
X84786Y66511D01*
X84812Y66487D01*
X84973Y66385D01*
X85130Y66278D01*
X85162Y66264D01*
X85191Y66246D01*
X85368Y66173D01*
X85542Y66096D01*
X85576Y66088D01*
X85608Y66075D01*
X85795Y66035D01*
X85971Y65992D01*
X85971Y58420D01*
X85971Y50845D01*
X85912Y50839D01*
X85878Y50830D01*
X85844Y50826D01*
X85661Y50771D01*
X85477Y50721D01*
X85446Y50706D01*
X85413Y50696D01*
X85242Y50609D01*
X85071Y50527D01*
X85042Y50507D01*
X85011Y50492D01*
X84859Y50376D01*
X84704Y50265D01*
X84680Y50240D01*
X84653Y50220D01*
X84524Y50080D01*
X84390Y49943D01*
X84371Y49914D01*
X84348Y49888D01*
X84245Y49727D01*
X84138Y49570D01*
X84124Y49538D01*
X84106Y49509D01*
X84033Y49332D01*
X83956Y49158D01*
X83948Y49124D01*
X83935Y49092D01*
X83895Y48905D01*
X83849Y48720D01*
X83847Y48686D01*
X83840Y48652D01*
X83821Y48340D01*
X83821Y16510D01*
X83824Y16476D01*
X83822Y16441D01*
X83844Y16252D01*
X83861Y16062D01*
X83870Y16028D01*
X83874Y15994D01*
X83929Y15811D01*
X83979Y15627D01*
X83994Y15596D01*
X84004Y15563D01*
X84091Y15392D01*
X84173Y15221D01*
X84193Y15192D01*
X84208Y15161D01*
X84324Y15009D01*
X84435Y14854D01*
X84460Y14830D01*
X84480Y14803D01*
X84621Y14674D01*
X84757Y14540D01*
X84786Y14521D01*
X84812Y14498D01*
X84973Y14395D01*
X85130Y14288D01*
X85162Y14274D01*
X85191Y14256D01*
X85368Y14183D01*
X85542Y14106D01*
X85576Y14098D01*
X85608Y14085D01*
X85795Y14045D01*
X85980Y13999D01*
X86014Y13997D01*
X86048Y13990D01*
X86360Y13971D01*
X177800Y13971D01*
X177835Y13974D01*
G37*
G36*
X281975Y13974D02*
X281975Y13974D01*
X282009Y13972D01*
X282198Y13994D01*
X282389Y14011D01*
X282422Y14020D01*
X282456Y14024D01*
X282639Y14079D01*
X282823Y14129D01*
X282854Y14144D01*
X282887Y14154D01*
X283058Y14241D01*
X283230Y14323D01*
X283258Y14343D01*
X283289Y14358D01*
X283441Y14474D01*
X283596Y14585D01*
X283620Y14610D01*
X283647Y14630D01*
X283776Y14771D01*
X283910Y14907D01*
X283929Y14936D01*
X283953Y14962D01*
X284055Y15123D01*
X284162Y15280D01*
X284176Y15312D01*
X284194Y15341D01*
X284267Y15518D01*
X284344Y15692D01*
X284352Y15726D01*
X284365Y15758D01*
X284405Y15945D01*
X284451Y16130D01*
X284453Y16164D01*
X284460Y16198D01*
X284479Y16510D01*
X284479Y41910D01*
X284476Y41941D01*
X284478Y41972D01*
X284478Y41974D01*
X284478Y41979D01*
X284456Y42168D01*
X284439Y42359D01*
X284430Y42392D01*
X284426Y42426D01*
X284371Y42609D01*
X284321Y42793D01*
X284306Y42824D01*
X284296Y42857D01*
X284209Y43028D01*
X284127Y43200D01*
X284107Y43228D01*
X284092Y43259D01*
X283976Y43411D01*
X283865Y43566D01*
X283840Y43590D01*
X283820Y43617D01*
X283680Y43746D01*
X283543Y43880D01*
X283514Y43899D01*
X283488Y43923D01*
X283327Y44025D01*
X283170Y44132D01*
X283138Y44146D01*
X283109Y44164D01*
X282932Y44237D01*
X282758Y44314D01*
X282724Y44322D01*
X282692Y44335D01*
X282505Y44375D01*
X282320Y44421D01*
X282286Y44423D01*
X282252Y44430D01*
X281940Y44449D01*
X206792Y44449D01*
X195579Y55662D01*
X195579Y66439D01*
X195570Y66545D01*
X195570Y66651D01*
X195550Y66769D01*
X195539Y66888D01*
X195511Y66990D01*
X195493Y67095D01*
X195452Y67207D01*
X195421Y67322D01*
X195375Y67418D01*
X195339Y67518D01*
X195279Y67621D01*
X195227Y67729D01*
X195166Y67815D01*
X195112Y67907D01*
X195035Y67998D01*
X194965Y68095D01*
X194889Y68169D01*
X194820Y68250D01*
X194728Y68326D01*
X194643Y68409D01*
X194555Y68468D01*
X194473Y68536D01*
X194368Y68594D01*
X194270Y68661D01*
X194172Y68704D01*
X194080Y68756D01*
X193967Y68795D01*
X193858Y68843D01*
X193755Y68868D01*
X193654Y68903D01*
X193536Y68922D01*
X193420Y68950D01*
X193314Y68956D01*
X193209Y68973D01*
X193090Y68970D01*
X192971Y68978D01*
X192865Y68965D01*
X192759Y68963D01*
X192642Y68939D01*
X192524Y68926D01*
X192422Y68895D01*
X192318Y68874D01*
X192207Y68830D01*
X192093Y68795D01*
X191998Y68747D01*
X191899Y68708D01*
X191840Y68673D01*
X191170Y68396D01*
X190534Y68269D01*
X190499Y68269D01*
X190499Y80660D01*
X190496Y80694D01*
X190498Y80729D01*
X190476Y80918D01*
X190459Y81108D01*
X190450Y81142D01*
X190446Y81176D01*
X190391Y81359D01*
X190341Y81543D01*
X190326Y81574D01*
X190316Y81607D01*
X190229Y81778D01*
X190148Y81949D01*
X190127Y81977D01*
X190112Y82008D01*
X189996Y82160D01*
X189885Y82315D01*
X189861Y82339D01*
X189840Y82367D01*
X189700Y82496D01*
X189563Y82629D01*
X189534Y82649D01*
X189509Y82672D01*
X189348Y82775D01*
X189190Y82881D01*
X189158Y82895D01*
X189129Y82914D01*
X188952Y82986D01*
X188778Y83064D01*
X188744Y83072D01*
X188712Y83085D01*
X188526Y83125D01*
X188340Y83170D01*
X188306Y83172D01*
X188272Y83180D01*
X187960Y83199D01*
X187925Y83196D01*
X187891Y83198D01*
X187701Y83176D01*
X187511Y83159D01*
X187478Y83150D01*
X187444Y83146D01*
X187261Y83091D01*
X187077Y83040D01*
X187046Y83026D01*
X187013Y83016D01*
X186842Y82929D01*
X186670Y82847D01*
X186642Y82827D01*
X186611Y82811D01*
X186459Y82696D01*
X186304Y82585D01*
X186280Y82560D01*
X186252Y82539D01*
X186123Y82399D01*
X185990Y82262D01*
X185971Y82234D01*
X185947Y82208D01*
X185845Y82047D01*
X185738Y81889D01*
X185724Y81858D01*
X185705Y81828D01*
X185633Y81652D01*
X185556Y81477D01*
X185548Y81444D01*
X185535Y81412D01*
X185494Y81225D01*
X185449Y81040D01*
X185447Y81006D01*
X185440Y80972D01*
X185421Y80660D01*
X185421Y68269D01*
X185420Y68269D01*
X185386Y68266D01*
X185351Y68268D01*
X185162Y68246D01*
X184972Y68229D01*
X184938Y68220D01*
X184904Y68216D01*
X184721Y68161D01*
X184537Y68111D01*
X184506Y68096D01*
X184473Y68086D01*
X184302Y67999D01*
X184131Y67917D01*
X184102Y67897D01*
X184071Y67882D01*
X183919Y67766D01*
X183764Y67655D01*
X183740Y67630D01*
X183713Y67610D01*
X183584Y67470D01*
X183450Y67333D01*
X183431Y67304D01*
X183408Y67278D01*
X183305Y67117D01*
X183198Y66960D01*
X183184Y66928D01*
X183166Y66899D01*
X183093Y66722D01*
X183016Y66548D01*
X183008Y66514D01*
X182995Y66482D01*
X182955Y66295D01*
X182909Y66110D01*
X182907Y66076D01*
X182900Y66042D01*
X182881Y65730D01*
X182881Y39290D01*
X182884Y39255D01*
X182882Y39221D01*
X182904Y39032D01*
X182921Y38841D01*
X182930Y38808D01*
X182934Y38774D01*
X182989Y38591D01*
X183039Y38407D01*
X183054Y38376D01*
X183064Y38343D01*
X183151Y38172D01*
X183233Y38000D01*
X183253Y37972D01*
X183268Y37941D01*
X183384Y37789D01*
X183495Y37634D01*
X183520Y37610D01*
X183540Y37583D01*
X183681Y37454D01*
X183817Y37320D01*
X183846Y37301D01*
X183872Y37277D01*
X184033Y37175D01*
X184190Y37068D01*
X184222Y37054D01*
X184251Y37036D01*
X184428Y36963D01*
X184602Y36886D01*
X184636Y36878D01*
X184668Y36865D01*
X184855Y36825D01*
X185040Y36779D01*
X185074Y36777D01*
X185108Y36770D01*
X185420Y36751D01*
X186301Y36751D01*
X186301Y29210D01*
X186301Y21669D01*
X185420Y21669D01*
X185386Y21666D01*
X185351Y21668D01*
X185162Y21646D01*
X184972Y21629D01*
X184938Y21620D01*
X184904Y21616D01*
X184721Y21561D01*
X184537Y21511D01*
X184506Y21496D01*
X184473Y21486D01*
X184302Y21399D01*
X184131Y21317D01*
X184102Y21297D01*
X184071Y21282D01*
X183919Y21166D01*
X183764Y21055D01*
X183740Y21030D01*
X183713Y21010D01*
X183584Y20870D01*
X183450Y20733D01*
X183431Y20704D01*
X183408Y20678D01*
X183305Y20517D01*
X183198Y20360D01*
X183184Y20328D01*
X183166Y20299D01*
X183093Y20122D01*
X183016Y19948D01*
X183008Y19914D01*
X182995Y19882D01*
X182955Y19695D01*
X182909Y19510D01*
X182907Y19476D01*
X182900Y19442D01*
X182881Y19130D01*
X182881Y16510D01*
X182884Y16476D01*
X182882Y16441D01*
X182904Y16252D01*
X182921Y16062D01*
X182930Y16028D01*
X182934Y15994D01*
X182989Y15811D01*
X183039Y15627D01*
X183054Y15596D01*
X183064Y15563D01*
X183151Y15392D01*
X183233Y15221D01*
X183253Y15192D01*
X183268Y15161D01*
X183384Y15009D01*
X183495Y14854D01*
X183520Y14830D01*
X183540Y14803D01*
X183681Y14674D01*
X183817Y14540D01*
X183846Y14521D01*
X183872Y14498D01*
X184033Y14395D01*
X184190Y14288D01*
X184222Y14274D01*
X184251Y14256D01*
X184428Y14183D01*
X184602Y14106D01*
X184636Y14098D01*
X184668Y14085D01*
X184855Y14045D01*
X185040Y13999D01*
X185074Y13997D01*
X185108Y13990D01*
X185420Y13971D01*
X281940Y13971D01*
X281975Y13974D01*
G37*
G36*
X206811Y264685D02*
X206811Y264685D01*
X207042Y264695D01*
X207096Y264705D01*
X207150Y264709D01*
X207376Y264757D01*
X207602Y264799D01*
X207654Y264816D01*
X207708Y264828D01*
X207924Y264907D01*
X208142Y264980D01*
X208191Y265005D01*
X208243Y265024D01*
X208446Y265132D01*
X208651Y265235D01*
X208697Y265266D01*
X208745Y265292D01*
X208931Y265428D01*
X209120Y265559D01*
X209161Y265596D01*
X209205Y265629D01*
X209370Y265789D01*
X209539Y265945D01*
X209574Y265988D01*
X209613Y266026D01*
X209754Y266208D01*
X209900Y266386D01*
X209928Y266434D01*
X209962Y266477D01*
X210076Y266677D01*
X210195Y266874D01*
X210217Y266924D01*
X210244Y266972D01*
X210329Y267186D01*
X210420Y267397D01*
X210434Y267450D01*
X210454Y267501D01*
X210509Y267726D01*
X210569Y267947D01*
X210573Y267991D01*
X210589Y268055D01*
X210644Y268622D01*
X210641Y268688D01*
X210645Y268732D01*
X210645Y269180D01*
X210654Y269215D01*
X210670Y269383D01*
X210696Y269550D01*
X210697Y269666D01*
X210709Y269782D01*
X210701Y269951D01*
X210703Y270119D01*
X210689Y270235D01*
X210684Y270352D01*
X210653Y270517D01*
X210631Y270685D01*
X210601Y270797D01*
X210579Y270912D01*
X210525Y271071D01*
X210481Y271234D01*
X210435Y271342D01*
X210397Y271452D01*
X210343Y271553D01*
X210255Y271757D01*
X210080Y272044D01*
X210025Y272147D01*
X209918Y272306D01*
X209727Y272769D01*
X209629Y273260D01*
X209629Y274947D01*
X217170Y274947D01*
X217399Y274963D01*
X217629Y274973D01*
X217683Y274983D01*
X217738Y274987D01*
X217963Y275035D01*
X218189Y275077D01*
X218242Y275094D01*
X218295Y275106D01*
X218511Y275185D01*
X218730Y275258D01*
X218779Y275283D01*
X218830Y275301D01*
X219033Y275410D01*
X219239Y275513D01*
X219284Y275544D01*
X219333Y275570D01*
X219518Y275706D01*
X219708Y275837D01*
X219748Y275874D01*
X219793Y275907D01*
X219957Y276067D01*
X220127Y276223D01*
X220162Y276266D01*
X220201Y276304D01*
X220342Y276486D01*
X220488Y276664D01*
X220516Y276711D01*
X220550Y276755D01*
X220664Y276955D01*
X220783Y277151D01*
X220805Y277202D01*
X220832Y277250D01*
X220917Y277464D01*
X221007Y277675D01*
X221022Y277728D01*
X221042Y277779D01*
X221096Y278003D01*
X221156Y278225D01*
X221161Y278269D01*
X221176Y278333D01*
X221231Y278900D01*
X221229Y278966D01*
X221233Y279010D01*
X221217Y279240D01*
X221207Y279470D01*
X221197Y279524D01*
X221193Y279579D01*
X221145Y279804D01*
X221103Y280030D01*
X221085Y280082D01*
X221074Y280136D01*
X220995Y280352D01*
X220922Y280570D01*
X220897Y280619D01*
X220878Y280671D01*
X220769Y280874D01*
X220666Y281080D01*
X220635Y281125D01*
X220609Y281173D01*
X220474Y281359D01*
X220343Y281548D01*
X220305Y281589D01*
X220273Y281633D01*
X220113Y281798D01*
X219956Y281967D01*
X219914Y282002D01*
X219875Y282041D01*
X219694Y282182D01*
X219515Y282328D01*
X219468Y282357D01*
X219425Y282390D01*
X219225Y282504D01*
X219028Y282623D01*
X218978Y282645D01*
X218930Y282672D01*
X218715Y282758D01*
X218504Y282848D01*
X218452Y282862D01*
X218400Y282883D01*
X218176Y282937D01*
X217954Y282997D01*
X217910Y283001D01*
X217846Y283017D01*
X217279Y283072D01*
X217214Y283069D01*
X217170Y283073D01*
X209629Y283073D01*
X209629Y283462D01*
X209613Y283691D01*
X209603Y283922D01*
X209593Y283976D01*
X209589Y284030D01*
X209541Y284256D01*
X209499Y284482D01*
X209482Y284534D01*
X209470Y284588D01*
X209391Y284804D01*
X209318Y285022D01*
X209293Y285071D01*
X209274Y285123D01*
X209166Y285325D01*
X209063Y285531D01*
X209032Y285577D01*
X209006Y285625D01*
X208870Y285811D01*
X208739Y286000D01*
X208702Y286041D01*
X208669Y286085D01*
X208509Y286250D01*
X208353Y286419D01*
X208310Y286454D01*
X208272Y286493D01*
X208090Y286634D01*
X207912Y286780D01*
X207864Y286808D01*
X207821Y286842D01*
X207621Y286956D01*
X207424Y287075D01*
X207374Y287097D01*
X207326Y287124D01*
X207112Y287209D01*
X206901Y287300D01*
X206848Y287314D01*
X206797Y287334D01*
X206572Y287389D01*
X206351Y287449D01*
X206307Y287453D01*
X206243Y287469D01*
X205676Y287524D01*
X205610Y287521D01*
X205566Y287525D01*
X199179Y287525D01*
X199119Y287521D01*
X199059Y287523D01*
X198835Y287501D01*
X198611Y287485D01*
X198552Y287473D01*
X198492Y287467D01*
X198273Y287413D01*
X198054Y287366D01*
X197997Y287345D01*
X197938Y287331D01*
X197730Y287248D01*
X197518Y287170D01*
X197465Y287142D01*
X197409Y287119D01*
X197214Y287008D01*
X197016Y286902D01*
X196967Y286866D01*
X196915Y286836D01*
X196824Y286761D01*
X196556Y286565D01*
X196395Y286408D01*
X196306Y286335D01*
X196046Y286075D01*
X194096Y285267D01*
X191984Y285267D01*
X190034Y286075D01*
X188541Y287568D01*
X187733Y289518D01*
X187733Y291630D01*
X188746Y294074D01*
X188783Y294186D01*
X188830Y294295D01*
X188873Y294456D01*
X188927Y294615D01*
X188948Y294731D01*
X188979Y294845D01*
X188990Y294958D01*
X189030Y295175D01*
X189044Y295513D01*
X189055Y295629D01*
X189055Y307639D01*
X189180Y307820D01*
X189204Y307869D01*
X189234Y307915D01*
X189331Y308124D01*
X189433Y308330D01*
X189451Y308382D01*
X189474Y308432D01*
X189541Y308652D01*
X189613Y308871D01*
X189623Y308925D01*
X189639Y308977D01*
X189674Y309204D01*
X189716Y309431D01*
X189718Y309486D01*
X189726Y309540D01*
X189730Y309770D01*
X189739Y310001D01*
X189733Y310055D01*
X189734Y310110D01*
X189705Y310338D01*
X189682Y310567D01*
X189669Y310621D01*
X189662Y310675D01*
X189601Y310897D01*
X189547Y311121D01*
X189526Y311172D01*
X189512Y311225D01*
X189421Y311436D01*
X189335Y311650D01*
X189307Y311698D01*
X189286Y311748D01*
X189166Y311944D01*
X189055Y312137D01*
X189055Y324512D01*
X190039Y325496D01*
X190250Y325535D01*
X190302Y325552D01*
X190356Y325564D01*
X190572Y325643D01*
X190790Y325716D01*
X190839Y325741D01*
X190891Y325760D01*
X191094Y325868D01*
X191299Y325971D01*
X191345Y326002D01*
X191393Y326028D01*
X191579Y326164D01*
X191768Y326295D01*
X191809Y326332D01*
X191853Y326365D01*
X192018Y326525D01*
X192187Y326681D01*
X192222Y326724D01*
X192261Y326762D01*
X192402Y326944D01*
X192548Y327122D01*
X192576Y327170D01*
X192610Y327213D01*
X192724Y327413D01*
X192843Y327610D01*
X192865Y327660D01*
X192892Y327708D01*
X192977Y327922D01*
X193068Y328133D01*
X193082Y328186D01*
X193102Y328237D01*
X193157Y328462D01*
X193217Y328683D01*
X193221Y328727D01*
X193237Y328791D01*
X193292Y329358D01*
X193289Y329424D01*
X193293Y329468D01*
X193293Y360590D01*
X193289Y360650D01*
X193291Y360710D01*
X193269Y360933D01*
X193253Y361158D01*
X193241Y361217D01*
X193235Y361277D01*
X193181Y361496D01*
X193134Y361715D01*
X193114Y361772D01*
X193099Y361831D01*
X193016Y362039D01*
X192938Y362250D01*
X192910Y362304D01*
X192888Y362360D01*
X192776Y362555D01*
X192670Y362753D01*
X192634Y362802D01*
X192604Y362854D01*
X192529Y362945D01*
X192333Y363213D01*
X192176Y363374D01*
X192103Y363463D01*
X177245Y378321D01*
X177070Y378473D01*
X176901Y378628D01*
X176856Y378659D01*
X176814Y378695D01*
X176621Y378820D01*
X176432Y378951D01*
X176382Y378975D01*
X176336Y379005D01*
X176128Y379102D01*
X175921Y379204D01*
X175869Y379222D01*
X175819Y379245D01*
X175599Y379312D01*
X175381Y379384D01*
X175327Y379394D01*
X175274Y379410D01*
X175047Y379445D01*
X174820Y379487D01*
X174765Y379489D01*
X174711Y379497D01*
X174481Y379500D01*
X174251Y379510D01*
X174196Y379504D01*
X174141Y379505D01*
X173913Y379476D01*
X173684Y379453D01*
X173631Y379440D01*
X173576Y379433D01*
X173354Y379372D01*
X173130Y379317D01*
X173079Y379297D01*
X173027Y379283D01*
X172815Y379191D01*
X172601Y379106D01*
X172554Y379078D01*
X172503Y379057D01*
X172307Y378937D01*
X172107Y378822D01*
X172073Y378794D01*
X172017Y378760D01*
X171577Y378398D01*
X171533Y378350D01*
X171498Y378321D01*
X169678Y376501D01*
X167728Y375693D01*
X166954Y375693D01*
X166725Y375677D01*
X166494Y375667D01*
X166440Y375657D01*
X166386Y375653D01*
X166160Y375605D01*
X165934Y375563D01*
X165882Y375546D01*
X165828Y375534D01*
X165612Y375455D01*
X165394Y375382D01*
X165345Y375357D01*
X165293Y375338D01*
X165090Y375230D01*
X164885Y375127D01*
X164839Y375096D01*
X164791Y375070D01*
X164605Y374934D01*
X164416Y374803D01*
X164375Y374766D01*
X164331Y374733D01*
X164166Y374573D01*
X163997Y374417D01*
X163962Y374374D01*
X163923Y374336D01*
X163782Y374154D01*
X163636Y373976D01*
X163608Y373928D01*
X163574Y373885D01*
X163460Y373685D01*
X163341Y373488D01*
X163319Y373438D01*
X163292Y373390D01*
X163207Y373176D01*
X163116Y372965D01*
X163102Y372912D01*
X163082Y372861D01*
X163027Y372636D01*
X162967Y372415D01*
X162963Y372371D01*
X162947Y372307D01*
X162892Y371740D01*
X162895Y371674D01*
X162891Y371630D01*
X162891Y313195D01*
X162895Y313135D01*
X162893Y313074D01*
X162915Y312851D01*
X162931Y312626D01*
X162943Y312567D01*
X162949Y312507D01*
X163003Y312289D01*
X163050Y312069D01*
X163070Y312013D01*
X163085Y311954D01*
X163168Y311745D01*
X163246Y311534D01*
X163274Y311481D01*
X163296Y311425D01*
X163408Y311230D01*
X163514Y311032D01*
X163550Y310983D01*
X163580Y310931D01*
X163655Y310840D01*
X163851Y310572D01*
X164008Y310411D01*
X164081Y310322D01*
X165145Y309258D01*
X165609Y308137D01*
X165609Y306608D01*
X165625Y306379D01*
X165635Y306148D01*
X165645Y306094D01*
X165649Y306040D01*
X165697Y305814D01*
X165739Y305588D01*
X165756Y305536D01*
X165768Y305482D01*
X165847Y305266D01*
X165920Y305048D01*
X165945Y304999D01*
X165964Y304947D01*
X166072Y304744D01*
X166175Y304539D01*
X166206Y304493D01*
X166232Y304445D01*
X166368Y304259D01*
X166499Y304070D01*
X166536Y304029D01*
X166569Y303985D01*
X166729Y303820D01*
X166885Y303651D01*
X166928Y303616D01*
X166966Y303577D01*
X167148Y303436D01*
X167326Y303290D01*
X167374Y303262D01*
X167417Y303228D01*
X167617Y303114D01*
X167631Y303105D01*
X169085Y301652D01*
X169085Y289261D01*
X168960Y289080D01*
X168936Y289031D01*
X168906Y288985D01*
X168809Y288776D01*
X168707Y288570D01*
X168689Y288518D01*
X168666Y288468D01*
X168599Y288248D01*
X168527Y288029D01*
X168517Y287975D01*
X168501Y287923D01*
X168466Y287695D01*
X168424Y287469D01*
X168422Y287414D01*
X168414Y287360D01*
X168410Y287130D01*
X168401Y286899D01*
X168407Y286845D01*
X168406Y286790D01*
X168435Y286562D01*
X168458Y286332D01*
X168471Y286279D01*
X168478Y286225D01*
X168539Y286002D01*
X168594Y285779D01*
X168614Y285728D01*
X168628Y285675D01*
X168720Y285463D01*
X168805Y285250D01*
X168832Y285202D01*
X168854Y285152D01*
X168974Y284955D01*
X169085Y284763D01*
X169085Y272388D01*
X168301Y271605D01*
X168226Y271518D01*
X168143Y271438D01*
X168039Y271303D01*
X167928Y271175D01*
X167865Y271078D01*
X167795Y270987D01*
X167710Y270840D01*
X167618Y270697D01*
X167569Y270592D01*
X167512Y270492D01*
X167450Y270334D01*
X167378Y270180D01*
X167345Y270070D01*
X167302Y269963D01*
X167262Y269797D01*
X167213Y269635D01*
X167195Y269521D01*
X167168Y269409D01*
X167152Y269239D01*
X167126Y269072D01*
X167124Y268957D01*
X167113Y268842D01*
X167120Y268671D01*
X167118Y268502D01*
X167132Y268388D01*
X167137Y268272D01*
X167168Y268105D01*
X167190Y267937D01*
X167220Y267825D01*
X167241Y267712D01*
X167295Y267551D01*
X167340Y267387D01*
X167386Y267281D01*
X167423Y267172D01*
X167499Y267020D01*
X167566Y266864D01*
X167626Y266766D01*
X167678Y266663D01*
X167774Y266523D01*
X167863Y266378D01*
X167936Y266289D01*
X168002Y266194D01*
X168117Y266069D01*
X168225Y265937D01*
X168310Y265860D01*
X168388Y265775D01*
X168520Y265667D01*
X168645Y265552D01*
X168740Y265487D01*
X168829Y265414D01*
X168974Y265326D01*
X169114Y265230D01*
X169218Y265178D01*
X169316Y265119D01*
X169472Y265052D01*
X169625Y264976D01*
X169734Y264940D01*
X169840Y264894D01*
X170004Y264850D01*
X170165Y264796D01*
X170279Y264775D01*
X170390Y264745D01*
X170505Y264734D01*
X170726Y264694D01*
X171057Y264680D01*
X171175Y264669D01*
X206582Y264669D01*
X206811Y264685D01*
G37*
%LPC*%
G36*
X324276Y393327D02*
X324276Y393327D01*
X324343Y393665D01*
X325336Y396938D01*
X326644Y400096D01*
X328256Y403112D01*
X328752Y403854D01*
X330156Y405955D01*
X332325Y408597D01*
X334743Y411015D01*
X337385Y413184D01*
X340228Y415084D01*
X343244Y416696D01*
X346402Y418004D01*
X349675Y418997D01*
X350013Y419064D01*
X350013Y393327D01*
X324276Y393327D01*
G37*
%LPD*%
%LPC*%
G36*
X324276Y303157D02*
X324276Y303157D01*
X324343Y303495D01*
X325336Y306768D01*
X326644Y309926D01*
X328256Y312942D01*
X330156Y315785D01*
X332325Y318427D01*
X334743Y320845D01*
X337385Y323014D01*
X340228Y324914D01*
X343244Y326526D01*
X346402Y327834D01*
X349675Y328827D01*
X350013Y328894D01*
X350013Y303157D01*
X324276Y303157D01*
G37*
%LPD*%
%LPC*%
G36*
X349675Y351403D02*
X349675Y351403D01*
X346402Y352396D01*
X343244Y353704D01*
X340228Y355316D01*
X337385Y357216D01*
X334743Y359385D01*
X332325Y361803D01*
X330156Y364445D01*
X328256Y367288D01*
X326644Y370304D01*
X325336Y373462D01*
X324343Y376735D01*
X324276Y377073D01*
X350013Y377073D01*
X350013Y351336D01*
X349675Y351403D01*
G37*
%LPD*%
%LPC*%
G36*
X349675Y261233D02*
X349675Y261233D01*
X346402Y262226D01*
X343244Y263534D01*
X340228Y265146D01*
X337385Y267046D01*
X334743Y269215D01*
X332325Y271633D01*
X330156Y274275D01*
X328256Y277118D01*
X326644Y280134D01*
X325336Y283292D01*
X324343Y286565D01*
X324276Y286903D01*
X350013Y286903D01*
X350013Y261166D01*
X349675Y261233D01*
G37*
%LPD*%
G36*
X230730Y262063D02*
X230730Y262063D01*
X230790Y262061D01*
X231013Y262083D01*
X231238Y262099D01*
X231297Y262111D01*
X231357Y262117D01*
X231575Y262171D01*
X231795Y262218D01*
X231852Y262239D01*
X231910Y262253D01*
X232119Y262336D01*
X232330Y262414D01*
X232383Y262442D01*
X232439Y262465D01*
X232634Y262576D01*
X232832Y262682D01*
X232881Y262718D01*
X232934Y262748D01*
X233025Y262823D01*
X233292Y263019D01*
X233454Y263176D01*
X233543Y263249D01*
X233978Y263685D01*
X243755Y263685D01*
X243787Y263664D01*
X243892Y263616D01*
X243992Y263558D01*
X244150Y263496D01*
X244304Y263424D01*
X244414Y263391D01*
X244521Y263348D01*
X244687Y263308D01*
X244849Y263259D01*
X244963Y263241D01*
X245075Y263214D01*
X245244Y263198D01*
X245412Y263172D01*
X245527Y263170D01*
X245642Y263159D01*
X245812Y263166D01*
X245982Y263164D01*
X246096Y263178D01*
X246212Y263183D01*
X246379Y263214D01*
X246547Y263236D01*
X246658Y263266D01*
X246772Y263287D01*
X246933Y263341D01*
X247097Y263386D01*
X247203Y263432D01*
X247312Y263469D01*
X247464Y263545D01*
X247620Y263612D01*
X247718Y263672D01*
X247821Y263724D01*
X247961Y263820D01*
X248106Y263909D01*
X248195Y263982D01*
X248290Y264048D01*
X248415Y264163D01*
X248546Y264271D01*
X248624Y264356D01*
X248709Y264434D01*
X248817Y264566D01*
X248932Y264691D01*
X248997Y264786D01*
X249070Y264875D01*
X249158Y265021D01*
X249254Y265160D01*
X249306Y265264D01*
X249365Y265362D01*
X249410Y265466D01*
X249592Y265648D01*
X249743Y265822D01*
X249899Y265992D01*
X249930Y266037D01*
X249966Y266079D01*
X250091Y266272D01*
X250221Y266461D01*
X250246Y266511D01*
X250276Y266557D01*
X250373Y266766D01*
X250475Y266972D01*
X250492Y267024D01*
X250515Y267074D01*
X250582Y267294D01*
X250655Y267512D01*
X250665Y267566D01*
X250681Y267619D01*
X250716Y267846D01*
X250757Y268073D01*
X250760Y268128D01*
X250768Y268182D01*
X250771Y268412D01*
X250780Y268642D01*
X250775Y268697D01*
X250776Y268752D01*
X250747Y268980D01*
X250724Y269209D01*
X250711Y269262D01*
X250704Y269317D01*
X250643Y269539D01*
X250588Y269763D01*
X250568Y269814D01*
X250553Y269866D01*
X250462Y270077D01*
X250376Y270292D01*
X250349Y270339D01*
X250327Y270390D01*
X250208Y270586D01*
X250093Y270786D01*
X250065Y270820D01*
X250031Y270876D01*
X249669Y271316D01*
X249620Y271360D01*
X249592Y271395D01*
X249367Y271620D01*
X249088Y272037D01*
X248897Y272499D01*
X248740Y273286D01*
X248680Y273508D01*
X248625Y273732D01*
X248605Y273783D01*
X248590Y273836D01*
X248499Y274047D01*
X248414Y274261D01*
X248387Y274309D01*
X248365Y274359D01*
X248245Y274556D01*
X248131Y274756D01*
X248097Y274799D01*
X248068Y274846D01*
X247922Y275024D01*
X247781Y275205D01*
X247742Y275244D01*
X247707Y275286D01*
X247538Y275442D01*
X247372Y275602D01*
X247327Y275635D01*
X247287Y275672D01*
X247098Y275802D01*
X246911Y275938D01*
X246863Y275963D01*
X246818Y275995D01*
X246612Y276097D01*
X246408Y276205D01*
X246357Y276224D01*
X246308Y276249D01*
X246089Y276321D01*
X245873Y276400D01*
X245819Y276411D01*
X245767Y276429D01*
X245541Y276470D01*
X245315Y276518D01*
X245261Y276522D01*
X245207Y276532D01*
X244977Y276541D01*
X244747Y276557D01*
X244703Y276552D01*
X244637Y276555D01*
X244070Y276499D01*
X244007Y276483D01*
X243962Y276479D01*
X243160Y276319D01*
X242823Y276319D01*
X242823Y281968D01*
X242807Y282197D01*
X242797Y282428D01*
X242787Y282482D01*
X242783Y282536D01*
X242735Y282762D01*
X242693Y282988D01*
X242676Y283040D01*
X242664Y283094D01*
X242585Y283310D01*
X242512Y283528D01*
X242487Y283577D01*
X242469Y283629D01*
X242360Y283831D01*
X242257Y284037D01*
X242226Y284083D01*
X242200Y284131D01*
X242064Y284317D01*
X241933Y284506D01*
X241896Y284547D01*
X241863Y284591D01*
X241703Y284756D01*
X241547Y284925D01*
X241504Y284960D01*
X241466Y284999D01*
X241284Y285140D01*
X241106Y285286D01*
X241059Y285314D01*
X241015Y285348D01*
X240815Y285462D01*
X240619Y285581D01*
X240568Y285603D01*
X240520Y285630D01*
X240306Y285715D01*
X240095Y285806D01*
X240042Y285820D01*
X239991Y285840D01*
X239766Y285895D01*
X239545Y285955D01*
X239501Y285959D01*
X239437Y285975D01*
X238870Y286030D01*
X238804Y286027D01*
X238760Y286031D01*
X238530Y286015D01*
X238300Y286005D01*
X238246Y285995D01*
X238191Y285991D01*
X237966Y285943D01*
X237740Y285901D01*
X237688Y285884D01*
X237634Y285872D01*
X237418Y285793D01*
X237200Y285720D01*
X237151Y285695D01*
X237099Y285676D01*
X236896Y285568D01*
X236690Y285465D01*
X236645Y285434D01*
X236597Y285408D01*
X236411Y285272D01*
X236222Y285141D01*
X236181Y285104D01*
X236137Y285071D01*
X235972Y284911D01*
X235803Y284755D01*
X235768Y284712D01*
X235729Y284674D01*
X235588Y284492D01*
X235442Y284314D01*
X235413Y284266D01*
X235380Y284223D01*
X235266Y284023D01*
X235146Y283826D01*
X235125Y283776D01*
X235098Y283728D01*
X235012Y283514D01*
X234922Y283303D01*
X234908Y283250D01*
X234887Y283199D01*
X234833Y282974D01*
X234773Y282753D01*
X234769Y282709D01*
X234753Y282645D01*
X234698Y282078D01*
X234701Y282012D01*
X234697Y281968D01*
X234697Y276319D01*
X234360Y276319D01*
X233869Y276417D01*
X233407Y276608D01*
X232990Y276887D01*
X232636Y277240D01*
X232152Y277965D01*
X232012Y278146D01*
X231877Y278330D01*
X231838Y278371D01*
X231803Y278415D01*
X231639Y278575D01*
X231480Y278739D01*
X231435Y278773D01*
X231395Y278812D01*
X231210Y278947D01*
X231029Y279087D01*
X230980Y279115D01*
X230935Y279148D01*
X230733Y279256D01*
X230534Y279370D01*
X230482Y279390D01*
X230432Y279417D01*
X230217Y279496D01*
X230004Y279580D01*
X229950Y279593D01*
X229897Y279612D01*
X229673Y279660D01*
X229451Y279714D01*
X229395Y279719D01*
X229340Y279731D01*
X229112Y279747D01*
X228884Y279769D01*
X228827Y279767D01*
X228771Y279771D01*
X228543Y279754D01*
X228314Y279745D01*
X228259Y279734D01*
X228203Y279730D01*
X227979Y279682D01*
X227754Y279641D01*
X227701Y279623D01*
X227646Y279611D01*
X227431Y279532D01*
X227214Y279459D01*
X227164Y279434D01*
X227111Y279415D01*
X226909Y279307D01*
X226704Y279204D01*
X226658Y279172D01*
X226609Y279146D01*
X226424Y279010D01*
X226236Y278880D01*
X226194Y278842D01*
X226149Y278809D01*
X225985Y278649D01*
X225817Y278494D01*
X225781Y278450D01*
X225741Y278411D01*
X225601Y278230D01*
X225456Y278053D01*
X225427Y278005D01*
X225392Y277960D01*
X225279Y277761D01*
X225161Y277566D01*
X225138Y277514D01*
X225111Y277465D01*
X225026Y277252D01*
X224936Y277042D01*
X224921Y276988D01*
X224901Y276935D01*
X224847Y276713D01*
X224787Y276492D01*
X224783Y276447D01*
X224767Y276381D01*
X224712Y275814D01*
X224715Y275751D01*
X224711Y275707D01*
X224711Y273260D01*
X224613Y272769D01*
X224422Y272306D01*
X224315Y272147D01*
X224257Y272046D01*
X224191Y271949D01*
X224116Y271799D01*
X224032Y271652D01*
X223989Y271544D01*
X223937Y271439D01*
X223884Y271279D01*
X223822Y271123D01*
X223794Y271009D01*
X223757Y270899D01*
X223727Y270733D01*
X223687Y270569D01*
X223676Y270453D01*
X223655Y270338D01*
X223648Y270169D01*
X223632Y270002D01*
X223637Y269885D01*
X223632Y269769D01*
X223649Y269601D01*
X223656Y269433D01*
X223677Y269318D01*
X223689Y269202D01*
X223695Y269177D01*
X223695Y266122D01*
X223711Y265893D01*
X223721Y265662D01*
X223731Y265608D01*
X223735Y265554D01*
X223783Y265328D01*
X223825Y265102D01*
X223842Y265050D01*
X223854Y264996D01*
X223933Y264780D01*
X224006Y264562D01*
X224031Y264513D01*
X224050Y264461D01*
X224158Y264258D01*
X224261Y264053D01*
X224292Y264007D01*
X224318Y263959D01*
X224454Y263773D01*
X224585Y263584D01*
X224622Y263543D01*
X224655Y263499D01*
X224815Y263334D01*
X224971Y263165D01*
X225014Y263130D01*
X225052Y263091D01*
X225234Y262950D01*
X225412Y262804D01*
X225460Y262776D01*
X225503Y262742D01*
X225703Y262628D01*
X225900Y262509D01*
X225950Y262487D01*
X225998Y262460D01*
X226212Y262375D01*
X226423Y262284D01*
X226476Y262270D01*
X226527Y262250D01*
X226752Y262195D01*
X226973Y262135D01*
X227017Y262131D01*
X227081Y262115D01*
X227648Y262060D01*
X227714Y262063D01*
X227758Y262059D01*
X230669Y262059D01*
X230730Y262063D01*
G37*
%LPC*%
G36*
X64129Y160019D02*
X64129Y160019D01*
X64129Y182981D01*
X71385Y182981D01*
X72031Y182808D01*
X72610Y182473D01*
X73083Y182000D01*
X73418Y181421D01*
X73591Y180775D01*
X73591Y160019D01*
X64129Y160019D01*
G37*
%LPD*%
%LPC*%
G36*
X111129Y160019D02*
X111129Y160019D01*
X111129Y182981D01*
X118385Y182981D01*
X119031Y182808D01*
X119610Y182473D01*
X120083Y182000D01*
X120418Y181421D01*
X120591Y180775D01*
X120591Y160019D01*
X111129Y160019D01*
G37*
%LPD*%
%LPC*%
G36*
X64129Y126899D02*
X64129Y126899D01*
X64129Y149861D01*
X73591Y149861D01*
X73591Y129105D01*
X73418Y128459D01*
X73083Y127880D01*
X72610Y127407D01*
X72031Y127072D01*
X71385Y126899D01*
X64129Y126899D01*
G37*
%LPD*%
%LPC*%
G36*
X111129Y126899D02*
X111129Y126899D01*
X111129Y149861D01*
X120591Y149861D01*
X120591Y129105D01*
X120418Y128459D01*
X120083Y127880D01*
X119610Y127407D01*
X119031Y127072D01*
X118385Y126899D01*
X111129Y126899D01*
G37*
%LPD*%
%LPC*%
G36*
X44509Y160019D02*
X44509Y160019D01*
X44509Y180775D01*
X44682Y181421D01*
X45017Y182000D01*
X45490Y182473D01*
X46069Y182808D01*
X46715Y182981D01*
X53971Y182981D01*
X53971Y160019D01*
X44509Y160019D01*
G37*
%LPD*%
%LPC*%
G36*
X46715Y126899D02*
X46715Y126899D01*
X46069Y127072D01*
X45490Y127407D01*
X45017Y127880D01*
X44682Y128459D01*
X44509Y129105D01*
X44509Y149861D01*
X53971Y149861D01*
X53971Y126899D01*
X46715Y126899D01*
G37*
%LPD*%
%LPC*%
G36*
X294653Y273303D02*
X294653Y273303D01*
X294653Y279281D01*
X298840Y279281D01*
X299331Y279183D01*
X299793Y278992D01*
X300210Y278713D01*
X300563Y278360D01*
X300842Y277943D01*
X301033Y277481D01*
X301131Y276990D01*
X301131Y273303D01*
X294653Y273303D01*
G37*
%LPD*%
%LPC*%
G36*
X294653Y265177D02*
X294653Y265177D01*
X301131Y265177D01*
X301131Y261490D01*
X301033Y260999D01*
X300842Y260537D01*
X300563Y260120D01*
X300210Y259767D01*
X299793Y259488D01*
X299331Y259297D01*
X298840Y259199D01*
X294653Y259199D01*
X294653Y265177D01*
G37*
%LPD*%
%LPC*%
G36*
X280049Y273303D02*
X280049Y273303D01*
X280049Y276990D01*
X280147Y277481D01*
X280338Y277943D01*
X280617Y278360D01*
X280970Y278713D01*
X281387Y278992D01*
X281849Y279183D01*
X282340Y279281D01*
X286527Y279281D01*
X286527Y273303D01*
X280049Y273303D01*
G37*
%LPD*%
%LPC*%
G36*
X282340Y259199D02*
X282340Y259199D01*
X281849Y259297D01*
X281387Y259488D01*
X280970Y259767D01*
X280617Y260120D01*
X280338Y260537D01*
X280147Y260999D01*
X280049Y261490D01*
X280049Y265177D01*
X286527Y265177D01*
X286527Y259199D01*
X282340Y259199D01*
G37*
%LPD*%
%LPC*%
G36*
X121284Y104684D02*
X121284Y104684D01*
X121284Y110401D01*
X125795Y110401D01*
X126441Y110228D01*
X127020Y109893D01*
X127493Y109420D01*
X127828Y108841D01*
X128001Y108195D01*
X128001Y104684D01*
X121284Y104684D01*
G37*
%LPD*%
%LPC*%
G36*
X121284Y61684D02*
X121284Y61684D01*
X121284Y67401D01*
X125795Y67401D01*
X126441Y67228D01*
X127020Y66893D01*
X127493Y66420D01*
X127828Y65841D01*
X128001Y65195D01*
X128001Y61684D01*
X121284Y61684D01*
G37*
%LPD*%
%LPC*%
G36*
X108219Y104684D02*
X108219Y104684D01*
X108219Y108195D01*
X108392Y108841D01*
X108727Y109420D01*
X109200Y109893D01*
X109779Y110228D01*
X110425Y110401D01*
X114936Y110401D01*
X114936Y104684D01*
X108219Y104684D01*
G37*
%LPD*%
%LPC*%
G36*
X108219Y61684D02*
X108219Y61684D01*
X108219Y65195D01*
X108392Y65841D01*
X108727Y66420D01*
X109200Y66893D01*
X109779Y67228D01*
X110425Y67401D01*
X114936Y67401D01*
X114936Y61684D01*
X108219Y61684D01*
G37*
%LPD*%
%LPC*%
G36*
X121284Y49619D02*
X121284Y49619D01*
X121284Y55336D01*
X128001Y55336D01*
X128001Y51825D01*
X127828Y51179D01*
X127493Y50600D01*
X127020Y50127D01*
X126441Y49792D01*
X125795Y49619D01*
X121284Y49619D01*
G37*
%LPD*%
%LPC*%
G36*
X110425Y49619D02*
X110425Y49619D01*
X109779Y49792D01*
X109200Y50127D01*
X108727Y50600D01*
X108392Y51179D01*
X108219Y51825D01*
X108219Y55336D01*
X114936Y55336D01*
X114936Y49619D01*
X110425Y49619D01*
G37*
%LPD*%
%LPC*%
G36*
X236219Y149469D02*
X236219Y149469D01*
X236219Y154971D01*
X239015Y154971D01*
X239661Y154798D01*
X240240Y154463D01*
X240713Y153990D01*
X241048Y153411D01*
X241221Y152765D01*
X241221Y149469D01*
X236219Y149469D01*
G37*
%LPD*%
%LPC*%
G36*
X156209Y103749D02*
X156209Y103749D01*
X156209Y109251D01*
X159005Y109251D01*
X159651Y109078D01*
X160230Y108743D01*
X160703Y108270D01*
X161038Y107691D01*
X161211Y107045D01*
X161211Y103749D01*
X156209Y103749D01*
G37*
%LPD*%
%LPC*%
G36*
X91049Y60959D02*
X91049Y60959D01*
X91049Y65961D01*
X94345Y65961D01*
X94991Y65788D01*
X95570Y65453D01*
X96043Y64980D01*
X96378Y64401D01*
X96551Y63755D01*
X96551Y60959D01*
X91049Y60959D01*
G37*
%LPD*%
%LPC*%
G36*
X191379Y31749D02*
X191379Y31749D01*
X191379Y36751D01*
X194675Y36751D01*
X195321Y36578D01*
X195900Y36243D01*
X196373Y35770D01*
X196708Y35191D01*
X196881Y34545D01*
X196881Y31749D01*
X191379Y31749D01*
G37*
%LPD*%
%LPC*%
G36*
X228209Y62229D02*
X228209Y62229D01*
X228209Y67231D01*
X231505Y67231D01*
X232151Y67058D01*
X232730Y66723D01*
X233203Y66250D01*
X233538Y65671D01*
X233711Y65025D01*
X233711Y62229D01*
X228209Y62229D01*
G37*
%LPD*%
%LPC*%
G36*
X63469Y60959D02*
X63469Y60959D01*
X63469Y63755D01*
X63642Y64401D01*
X63977Y64980D01*
X64450Y65453D01*
X65029Y65788D01*
X65675Y65961D01*
X68971Y65961D01*
X68971Y60959D01*
X63469Y60959D01*
G37*
%LPD*%
%LPC*%
G36*
X163799Y31749D02*
X163799Y31749D01*
X163799Y34545D01*
X163972Y35191D01*
X164307Y35770D01*
X164780Y36243D01*
X165359Y36578D01*
X166005Y36751D01*
X169301Y36751D01*
X169301Y31749D01*
X163799Y31749D01*
G37*
%LPD*%
%LPC*%
G36*
X262889Y184119D02*
X262889Y184119D01*
X262889Y189621D01*
X267891Y189621D01*
X267891Y186325D01*
X267718Y185679D01*
X267383Y185100D01*
X266910Y184627D01*
X266331Y184292D01*
X265685Y184119D01*
X262889Y184119D01*
G37*
%LPD*%
%LPC*%
G36*
X146129Y103749D02*
X146129Y103749D01*
X146129Y107045D01*
X146302Y107691D01*
X146637Y108270D01*
X147110Y108743D01*
X147689Y109078D01*
X148335Y109251D01*
X151131Y109251D01*
X151131Y103749D01*
X146129Y103749D01*
G37*
%LPD*%
%LPC*%
G36*
X191379Y21669D02*
X191379Y21669D01*
X191379Y26671D01*
X196881Y26671D01*
X196881Y23875D01*
X196708Y23229D01*
X196373Y22650D01*
X195900Y22177D01*
X195321Y21842D01*
X194675Y21669D01*
X191379Y21669D01*
G37*
%LPD*%
%LPC*%
G36*
X229479Y186769D02*
X229479Y186769D01*
X229479Y191771D01*
X234981Y191771D01*
X234981Y188975D01*
X234808Y188329D01*
X234473Y187750D01*
X234000Y187277D01*
X233421Y186942D01*
X232775Y186769D01*
X229479Y186769D01*
G37*
%LPD*%
%LPC*%
G36*
X91049Y50879D02*
X91049Y50879D01*
X91049Y55881D01*
X96551Y55881D01*
X96551Y53085D01*
X96378Y52439D01*
X96043Y51860D01*
X95570Y51387D01*
X94991Y51052D01*
X94345Y50879D01*
X91049Y50879D01*
G37*
%LPD*%
%LPC*%
G36*
X255015Y184119D02*
X255015Y184119D01*
X254369Y184292D01*
X253790Y184627D01*
X253317Y185100D01*
X252982Y185679D01*
X252809Y186325D01*
X252809Y189621D01*
X257811Y189621D01*
X257811Y184119D01*
X255015Y184119D01*
G37*
%LPD*%
%LPC*%
G36*
X65675Y50879D02*
X65675Y50879D01*
X65029Y51052D01*
X64450Y51387D01*
X63977Y51860D01*
X63642Y52439D01*
X63469Y53085D01*
X63469Y55881D01*
X68971Y55881D01*
X68971Y50879D01*
X65675Y50879D01*
G37*
%LPD*%
%LPC*%
G36*
X166005Y21669D02*
X166005Y21669D01*
X165359Y21842D01*
X164780Y22177D01*
X164307Y22650D01*
X163972Y23229D01*
X163799Y23875D01*
X163799Y26671D01*
X169301Y26671D01*
X169301Y21669D01*
X166005Y21669D01*
G37*
%LPD*%
%LPC*%
G36*
X264413Y213223D02*
X264413Y213223D01*
X264413Y217201D01*
X265600Y217201D01*
X266091Y217103D01*
X266553Y216912D01*
X266970Y216633D01*
X267323Y216280D01*
X267602Y215863D01*
X267793Y215401D01*
X267891Y214910D01*
X267891Y213223D01*
X264413Y213223D01*
G37*
%LPD*%
%LPC*%
G36*
X252809Y213223D02*
X252809Y213223D01*
X252809Y214910D01*
X252907Y215401D01*
X253098Y215863D01*
X253377Y216280D01*
X253730Y216633D01*
X254147Y216912D01*
X254609Y217103D01*
X255100Y217201D01*
X256287Y217201D01*
X256287Y213223D01*
X252809Y213223D01*
G37*
%LPD*%
%LPC*%
G36*
X59049Y154939D02*
X59049Y154939D01*
X59049Y154941D01*
X59051Y154941D01*
X59051Y154939D01*
X59049Y154939D01*
G37*
%LPD*%
D10*
X173010Y121060D02*
X173010Y139260D01*
X177510Y139260D01*
X177510Y121060D01*
X173010Y121060D01*
X173010Y122485D02*
X177510Y122485D01*
X177510Y123910D02*
X173010Y123910D01*
X173010Y125335D02*
X177510Y125335D01*
X177510Y126760D02*
X173010Y126760D01*
X173010Y128185D02*
X177510Y128185D01*
X177510Y129610D02*
X173010Y129610D01*
X173010Y131035D02*
X177510Y131035D01*
X177510Y132460D02*
X173010Y132460D01*
X173010Y133885D02*
X177510Y133885D01*
X177510Y135310D02*
X173010Y135310D01*
X173010Y136735D02*
X177510Y136735D01*
X177510Y138160D02*
X173010Y138160D01*
X185710Y139260D02*
X185710Y121060D01*
X185710Y139260D02*
X190210Y139260D01*
X190210Y121060D01*
X185710Y121060D01*
X185710Y122485D02*
X190210Y122485D01*
X190210Y123910D02*
X185710Y123910D01*
X185710Y125335D02*
X190210Y125335D01*
X190210Y126760D02*
X185710Y126760D01*
X185710Y128185D02*
X190210Y128185D01*
X190210Y129610D02*
X185710Y129610D01*
X185710Y131035D02*
X190210Y131035D01*
X190210Y132460D02*
X185710Y132460D01*
X185710Y133885D02*
X190210Y133885D01*
X190210Y135310D02*
X185710Y135310D01*
X185710Y136735D02*
X190210Y136735D01*
X190210Y138160D02*
X185710Y138160D01*
X198410Y139260D02*
X198410Y121060D01*
X198410Y139260D02*
X202910Y139260D01*
X202910Y121060D01*
X198410Y121060D01*
X198410Y122485D02*
X202910Y122485D01*
X202910Y123910D02*
X198410Y123910D01*
X198410Y125335D02*
X202910Y125335D01*
X202910Y126760D02*
X198410Y126760D01*
X198410Y128185D02*
X202910Y128185D01*
X202910Y129610D02*
X198410Y129610D01*
X198410Y131035D02*
X202910Y131035D01*
X202910Y132460D02*
X198410Y132460D01*
X198410Y133885D02*
X202910Y133885D01*
X202910Y135310D02*
X198410Y135310D01*
X198410Y136735D02*
X202910Y136735D01*
X202910Y138160D02*
X198410Y138160D01*
X211110Y139260D02*
X211110Y121060D01*
X211110Y139260D02*
X215610Y139260D01*
X215610Y121060D01*
X211110Y121060D01*
X211110Y122485D02*
X215610Y122485D01*
X215610Y123910D02*
X211110Y123910D01*
X211110Y125335D02*
X215610Y125335D01*
X215610Y126760D02*
X211110Y126760D01*
X211110Y128185D02*
X215610Y128185D01*
X215610Y129610D02*
X211110Y129610D01*
X211110Y131035D02*
X215610Y131035D01*
X215610Y132460D02*
X211110Y132460D01*
X211110Y133885D02*
X215610Y133885D01*
X215610Y135310D02*
X211110Y135310D01*
X211110Y136735D02*
X215610Y136735D01*
X215610Y138160D02*
X211110Y138160D01*
X211110Y89760D02*
X211110Y71560D01*
X211110Y89760D02*
X215610Y89760D01*
X215610Y71560D01*
X211110Y71560D01*
X211110Y72985D02*
X215610Y72985D01*
X215610Y74410D02*
X211110Y74410D01*
X211110Y75835D02*
X215610Y75835D01*
X215610Y77260D02*
X211110Y77260D01*
X211110Y78685D02*
X215610Y78685D01*
X215610Y80110D02*
X211110Y80110D01*
X211110Y81535D02*
X215610Y81535D01*
X215610Y82960D02*
X211110Y82960D01*
X211110Y84385D02*
X215610Y84385D01*
X215610Y85810D02*
X211110Y85810D01*
X211110Y87235D02*
X215610Y87235D01*
X215610Y88660D02*
X211110Y88660D01*
X198410Y89760D02*
X198410Y71560D01*
X198410Y89760D02*
X202910Y89760D01*
X202910Y71560D01*
X198410Y71560D01*
X198410Y72985D02*
X202910Y72985D01*
X202910Y74410D02*
X198410Y74410D01*
X198410Y75835D02*
X202910Y75835D01*
X202910Y77260D02*
X198410Y77260D01*
X198410Y78685D02*
X202910Y78685D01*
X202910Y80110D02*
X198410Y80110D01*
X198410Y81535D02*
X202910Y81535D01*
X202910Y82960D02*
X198410Y82960D01*
X198410Y84385D02*
X202910Y84385D01*
X202910Y85810D02*
X198410Y85810D01*
X198410Y87235D02*
X202910Y87235D01*
X202910Y88660D02*
X198410Y88660D01*
X185710Y89760D02*
X185710Y71560D01*
X185710Y89760D02*
X190210Y89760D01*
X190210Y71560D01*
X185710Y71560D01*
X185710Y72985D02*
X190210Y72985D01*
X190210Y74410D02*
X185710Y74410D01*
X185710Y75835D02*
X190210Y75835D01*
X190210Y77260D02*
X185710Y77260D01*
X185710Y78685D02*
X190210Y78685D01*
X190210Y80110D02*
X185710Y80110D01*
X185710Y81535D02*
X190210Y81535D01*
X190210Y82960D02*
X185710Y82960D01*
X185710Y84385D02*
X190210Y84385D01*
X190210Y85810D02*
X185710Y85810D01*
X185710Y87235D02*
X190210Y87235D01*
X190210Y88660D02*
X185710Y88660D01*
X173010Y89760D02*
X173010Y71560D01*
X173010Y89760D02*
X177510Y89760D01*
X177510Y71560D01*
X173010Y71560D01*
X173010Y72985D02*
X177510Y72985D01*
X177510Y74410D02*
X173010Y74410D01*
X173010Y75835D02*
X177510Y75835D01*
X177510Y77260D02*
X173010Y77260D01*
X173010Y78685D02*
X177510Y78685D01*
X177510Y80110D02*
X173010Y80110D01*
X173010Y81535D02*
X177510Y81535D01*
X177510Y82960D02*
X173010Y82960D01*
X173010Y84385D02*
X177510Y84385D01*
X177510Y85810D02*
X173010Y85810D01*
X173010Y87235D02*
X177510Y87235D01*
X177510Y88660D02*
X173010Y88660D01*
D11*
X194310Y105410D03*
D12*
X194310Y98910D03*
X194310Y111910D03*
X181310Y111910D03*
X181310Y98910D03*
X207310Y98910D03*
X207310Y111910D03*
D13*
X611540Y130810D03*
D14*
X536540Y130810D03*
D13*
X1069940Y308610D03*
D15*
X1144940Y308610D03*
D13*
X892140Y308610D03*
D15*
X967140Y308610D03*
D13*
X714340Y308610D03*
D15*
X789340Y308610D03*
D13*
X536540Y308610D03*
D15*
X611540Y308610D03*
D16*
X217170Y262010D03*
X217170Y279010D03*
X153670Y84210D03*
X153670Y101210D03*
D17*
X71510Y58420D03*
X88510Y58420D03*
D16*
X201930Y154060D03*
X201930Y171060D03*
D17*
X188840Y29210D03*
X171840Y29210D03*
X209940Y194310D03*
X226940Y194310D03*
D13*
X433740Y130810D03*
D14*
X358740Y130810D03*
D13*
X789340Y130810D03*
D14*
X714340Y130810D03*
D13*
X967140Y130810D03*
D14*
X892140Y130810D03*
D13*
X1144940Y130810D03*
D14*
X1069940Y130810D03*
D18*
X238760Y259010D03*
X238760Y282010D03*
D19*
X118110Y58510D03*
X118110Y101510D03*
D17*
X73270Y242570D03*
X56270Y242570D03*
D16*
X123190Y400440D03*
X123190Y417440D03*
D17*
X162950Y240030D03*
X179950Y240030D03*
X162950Y223520D03*
X179950Y223520D03*
X73270Y208280D03*
X56270Y208280D03*
X73270Y226060D03*
X56270Y226060D03*
D16*
X162560Y278520D03*
X162560Y295520D03*
X218440Y318380D03*
X218440Y301380D03*
X101600Y347590D03*
X101600Y330590D03*
X195580Y301380D03*
X195580Y318380D03*
X279400Y347590D03*
X279400Y330590D03*
D17*
X273930Y241300D03*
X256930Y241300D03*
D16*
X233680Y146930D03*
X233680Y129930D03*
X168910Y154060D03*
X168910Y171060D03*
X186690Y171060D03*
X186690Y154060D03*
D17*
X225670Y59690D03*
X208670Y59690D03*
D16*
X217170Y154060D03*
X217170Y171060D03*
D20*
X247198Y135692D02*
X251462Y135692D01*
X251462Y125928D01*
X247198Y125928D01*
X247198Y135692D01*
X247198Y130143D02*
X251462Y130143D01*
X251462Y134358D02*
X247198Y134358D01*
X266698Y125928D02*
X270962Y125928D01*
X266698Y125928D02*
X266698Y135692D01*
X270962Y135692D01*
X270962Y125928D01*
X270962Y130143D02*
X266698Y130143D01*
X266698Y134358D02*
X270962Y134358D01*
D21*
X840740Y219710D03*
X1018540Y219710D03*
X485140Y219710D03*
X662940Y219710D03*
D22*
X145110Y248920D03*
X145110Y261620D03*
X145110Y274320D03*
X145110Y236220D03*
X145110Y223520D03*
X145110Y210820D03*
X145110Y287020D03*
X91110Y287020D03*
X91110Y274320D03*
X91110Y261620D03*
X91110Y248920D03*
X91110Y236220D03*
X91110Y223520D03*
X91110Y210820D03*
D23*
X106050Y154940D03*
X59050Y154940D03*
D24*
X257340Y259240D03*
D25*
X290590Y269240D03*
D24*
X257340Y279240D03*
D16*
X260350Y192160D03*
X260350Y209160D03*
D26*
X430140Y385200D03*
X358140Y385200D03*
X430140Y295030D03*
X358140Y295030D03*
D27*
X78740Y410920D03*
D28*
X76990Y404420D03*
X80490Y404420D03*
D27*
X167640Y412190D03*
D28*
X165890Y405690D03*
X169390Y405690D03*
D27*
X256540Y403300D03*
D28*
X254790Y396800D03*
X258290Y396800D03*
D29*
X363876Y80010D03*
D30*
X401976Y41910D01*
X410476Y41910D01*
D29*
X410476Y41910D03*
D30*
X358740Y122910D02*
X358740Y130810D01*
X257340Y279240D02*
X254570Y282010D01*
X238760Y282010D01*
X267340Y269240D02*
X290590Y269240D01*
X267340Y269240D02*
X257340Y279240D01*
X238760Y282010D02*
X220170Y282010D01*
X217170Y279010D01*
D31*
X358140Y295030D02*
X358140Y131410D01*
X358740Y130810D01*
X358140Y295030D02*
X358140Y385200D01*
D29*
X447040Y16510D03*
D30*
X383540Y80010D01*
X383540Y100330D01*
D29*
X383540Y100330D03*
X345440Y80010D03*
X408940Y181610D03*
D30*
X367792Y102362D02*
X345440Y80010D01*
X367792Y102362D02*
X370524Y102362D01*
X408940Y140778D01*
X408940Y181610D01*
D29*
X588276Y41910D03*
D30*
X579120Y41910D01*
X541020Y80010D01*
D29*
X541020Y80010D03*
X624840Y16510D03*
D30*
X561340Y80010D01*
X561340Y105410D01*
D29*
X561340Y105410D03*
X561340Y181610D03*
D30*
X561340Y118110D01*
X523240Y80010D01*
D29*
X523240Y80010D03*
X721360Y78740D03*
D30*
X758190Y41910D01*
X766076Y41910D01*
D29*
X766076Y41910D03*
X802640Y16510D03*
D30*
X740410Y78740D01*
X740410Y99060D01*
D29*
X740410Y99060D03*
X898546Y77470D03*
D30*
X934106Y41910D01*
X943876Y41910D01*
D29*
X943876Y41910D03*
X980440Y16510D03*
D30*
X916940Y80010D01*
X916940Y99060D01*
D29*
X916940Y99060D03*
X878840Y80010D03*
D30*
X916940Y118110D01*
X916940Y181610D01*
D29*
X916940Y181610D03*
X1074420Y76200D03*
D30*
X1108710Y41910D01*
X1121676Y41910D01*
D29*
X1121676Y41910D03*
X1158240Y16510D03*
D30*
X1094740Y80010D01*
X1094740Y92710D01*
D29*
X1094740Y92710D03*
X1056640Y80010D03*
D30*
X1094740Y118110D01*
X1094740Y181610D01*
D29*
X1094740Y181610D03*
X1140460Y359410D03*
D30*
X1131304Y359410D01*
X1093204Y397510D01*
D29*
X1093204Y397510D03*
X1056640Y422910D03*
D30*
X1120140Y359410D01*
X1120140Y346710D01*
D29*
X1120140Y346710D03*
X1158240Y359410D03*
D30*
X1120140Y321310D01*
X1120140Y257810D01*
D29*
X1120140Y257810D03*
X915404Y397510D03*
D30*
X924560Y397510D01*
X962660Y359410D01*
D29*
X962660Y359410D03*
X878840Y422910D03*
D30*
X942340Y359410D01*
X942340Y339090D01*
D29*
X942340Y339090D03*
X942340Y257810D03*
D30*
X942340Y321310D01*
X980440Y359410D01*
D29*
X980440Y359410D03*
X737604Y397510D03*
D30*
X776974Y358140D01*
X782320Y358140D01*
D29*
X782320Y358140D03*
X701040Y422910D03*
D30*
X701040Y415290D02*
X760730Y355600D01*
X701040Y415290D02*
X701040Y422910D01*
X760730Y355600D02*
X760730Y339090D01*
D29*
X760730Y339090D03*
X802640Y359410D03*
D30*
X764540Y321310D01*
X764540Y257810D01*
D29*
X764540Y257810D03*
D30*
X168910Y180340D02*
X168910Y171060D01*
D29*
X168910Y180340D03*
X191770Y44450D03*
D30*
X191770Y32140D01*
X188840Y29210D01*
D29*
X273930Y241300D03*
X609600Y359410D03*
D30*
X597904Y359410D01*
X559804Y397510D01*
D29*
X559804Y397510D03*
X523240Y422910D03*
D30*
X586740Y359410D01*
X586740Y346710D01*
D29*
X586740Y346710D03*
X624840Y359410D03*
D30*
X586740Y321310D01*
X586740Y257810D01*
D29*
X586740Y257810D03*
X701040Y80010D03*
D30*
X739140Y118110D01*
X739140Y181610D01*
D29*
X739140Y181610D03*
D30*
X84760Y242570D02*
X73270Y242570D01*
X84760Y242570D02*
X91110Y236220D01*
X123190Y328620D02*
X123190Y400440D01*
X123190Y328620D02*
X90480Y295910D01*
D29*
X90480Y295910D03*
X116840Y232410D03*
D30*
X138430Y210820D01*
X145110Y210820D01*
X148920Y240030D02*
X162950Y240030D01*
X148920Y240030D02*
X145110Y236220D01*
X145110Y223520D02*
X162950Y223520D01*
X91110Y210820D02*
X88570Y208280D01*
X73270Y208280D01*
X75810Y223520D02*
X91110Y223520D01*
X75810Y223520D02*
X73270Y226060D01*
X158360Y274320D02*
X162560Y278520D01*
X158360Y274320D02*
X145110Y274320D01*
D29*
X78740Y448310D03*
D32*
X78740Y410920D01*
D29*
X71910Y292100D03*
D32*
X73704Y406867D02*
X75043Y408206D01*
X76026Y408206D02*
X78740Y410920D01*
X76026Y408206D02*
X75043Y408206D01*
X73704Y293894D02*
X71910Y292100D01*
X73704Y293894D02*
X73704Y406867D01*
D29*
X167640Y448310D03*
D32*
X167640Y412190D01*
D29*
X203200Y330200D03*
D32*
X170354Y409476D02*
X167640Y412190D01*
X170354Y409476D02*
X171337Y409476D01*
X203200Y366069D02*
X203200Y330200D01*
X203200Y366069D02*
X174272Y394997D01*
X174272Y406541D02*
X171337Y409476D01*
X174272Y406541D02*
X174272Y394997D01*
X256540Y403300D02*
X256540Y448310D01*
D29*
X256540Y448310D03*
X241300Y381000D03*
D32*
X253826Y400586D02*
X256540Y403300D01*
X253826Y400586D02*
X252305Y400586D01*
X241300Y389582D01*
X241300Y381000D01*
D30*
X218440Y318380D02*
X216234Y318380D01*
D29*
X216234Y318380D03*
D30*
X216234Y301380D02*
X218440Y301380D01*
X216234Y301380D02*
X195580Y301380D01*
X95250Y274320D02*
X91110Y274320D01*
X98270Y274320D01*
X104140Y280190D01*
D29*
X104140Y280190D03*
X216234Y301380D03*
D30*
X101600Y330590D02*
X85570Y314560D01*
X85570Y309281D01*
X78740Y302451D02*
X78740Y270510D01*
X78740Y302451D02*
X85570Y309281D01*
X78740Y270510D02*
X87630Y261620D01*
X91110Y261620D01*
D33*
X268830Y130810D02*
X269240Y130400D01*
X269240Y118110D01*
D29*
X269240Y118110D03*
X66040Y41910D03*
D33*
X66040Y52950D01*
X71510Y58420D01*
D34*
X145110Y287020D02*
X144640Y287490D01*
X27940Y194310D02*
X27940Y190500D01*
X27940Y186050D01*
X59050Y154940D01*
D32*
X76990Y393462D02*
X76990Y404420D01*
X76990Y393462D02*
X79772Y390680D01*
D29*
X79772Y390680D03*
X252693Y392393D03*
D32*
X254790Y394490D01*
X254790Y396800D01*
X165890Y405690D02*
X165890Y381782D01*
X166672Y381000D01*
D29*
X166672Y381000D03*
D32*
X145110Y361010D02*
X145110Y287020D01*
X145110Y361010D02*
X152400Y368300D01*
D29*
X152400Y368300D03*
X50800Y381000D03*
D32*
X27940Y358140D01*
X27940Y190500D01*
D30*
X257110Y259010D02*
X257340Y259240D01*
X257110Y259010D02*
X238760Y259010D01*
X220170Y259010D02*
X217170Y262010D01*
X220170Y259010D02*
X238760Y259010D01*
X257340Y259240D02*
X257340Y241710D01*
X256930Y241300D01*
X217170Y262010D02*
X216780Y261620D01*
X145110Y261620D01*
D29*
X104140Y257810D03*
D30*
X97762Y255572D02*
X91110Y248920D01*
X97762Y255572D02*
X99873Y255572D01*
X102111Y257810D02*
X104140Y257810D01*
X102111Y257810D02*
X99873Y255572D01*
D29*
X231140Y295910D03*
D30*
X259369Y305280D02*
X263370Y309281D01*
X231140Y297180D02*
X231140Y295910D01*
X231140Y297180D02*
X239240Y305280D01*
X259369Y305280D01*
X263370Y309281D02*
X263370Y314560D01*
X279400Y330590D01*
D29*
X104140Y416804D03*
D34*
X104140Y397510D01*
D29*
X104140Y397510D03*
X180340Y397510D03*
D34*
X180340Y407924D01*
X189196Y416780D01*
D29*
X189196Y416780D03*
X66040Y397510D03*
D30*
X56270Y348980D02*
X56270Y242570D01*
X56270Y348980D02*
X63538Y356248D01*
X63538Y395008D02*
X66040Y397510D01*
X63538Y395008D02*
X63538Y356248D01*
X180340Y458726D02*
X259924Y458726D01*
X180340Y458726D02*
X135356Y458726D01*
D29*
X285750Y448310D03*
X196850Y448310D03*
D34*
X186434Y458726D01*
X180340Y458726D01*
X123190Y431800D02*
X123190Y417440D01*
D29*
X123190Y431800D03*
D34*
X123190Y446560D02*
X135356Y458726D01*
X123190Y446560D02*
X123190Y431800D01*
X259924Y458726D02*
X275334Y458726D01*
X285750Y448310D01*
D29*
X193040Y290574D03*
X269240Y295910D03*
D30*
X226817Y290574D02*
X193040Y290574D01*
X226817Y290574D02*
X228311Y289080D01*
X262410Y289080D01*
X269240Y295910D01*
D29*
X179950Y240030D03*
X179950Y223520D03*
X233116Y334010D03*
D30*
X218440Y334010D01*
D29*
X218440Y334010D03*
X56270Y208280D03*
D30*
X56270Y226060D02*
X49920Y232410D01*
X40640Y232410D01*
D29*
X40640Y232410D03*
D30*
X162560Y295520D02*
X162560Y307531D01*
X148342Y417248D02*
X148342Y421408D01*
X148342Y417248D02*
X159842Y405748D01*
X159842Y310249D02*
X162560Y307531D01*
X159842Y310249D02*
X159842Y405748D01*
D34*
X148342Y421408D02*
X148342Y442208D01*
X142240Y448310D01*
D29*
X142240Y448310D03*
D33*
X168910Y154060D02*
X186690Y154060D01*
X187960Y152790D01*
X187960Y130160D01*
X213360Y130160D02*
X233450Y130160D01*
X233680Y129930D01*
X248450Y129930D01*
X249330Y130810D01*
X175260Y80660D02*
X157220Y80660D01*
X153670Y84210D01*
X200660Y80660D02*
X200660Y67700D01*
X208670Y59690D01*
X201930Y131430D02*
X201930Y154060D01*
X201930Y131430D02*
X200660Y130160D01*
D34*
X198120Y194310D02*
X209940Y194310D01*
D29*
X198120Y194310D03*
X201930Y154060D03*
D33*
X201930Y171060D02*
X217170Y171060D01*
D30*
X106969Y287020D02*
X91110Y287020D01*
X106969Y287020D02*
X116840Y277149D01*
X116840Y257810D01*
X104140Y245110D01*
X104140Y232410D01*
X135890Y200660D01*
X173990Y200660D02*
X180340Y194310D01*
X173990Y200660D02*
X135890Y200660D01*
D29*
X231140Y105410D03*
X243840Y105410D03*
X256540Y105410D03*
X269240Y105410D03*
X281940Y105410D03*
X281940Y92710D03*
X269240Y92710D03*
X256540Y92710D03*
X243840Y92710D03*
X231140Y92710D03*
X231140Y80010D03*
X243840Y80010D03*
X256540Y80010D03*
X269240Y80010D03*
X281940Y80010D03*
X91440Y41910D03*
X104140Y41910D03*
X116840Y41910D03*
D30*
X224300Y146930D02*
X217170Y154060D01*
X224300Y146930D02*
X233680Y146930D01*
X194310Y105410D02*
X213360Y86360D01*
X213360Y80660D01*
D32*
X101600Y383310D02*
X80490Y404420D01*
X101600Y383310D02*
X101600Y347590D01*
X169390Y389410D02*
X169390Y405690D01*
X195580Y363220D02*
X195580Y318380D01*
X195580Y363220D02*
X169390Y389410D01*
X258290Y396800D02*
X279400Y375690D01*
X279400Y347590D01*
M02*
