G04 EAGLE Gerber RS-274X export*
G75*
%MOMM*%
%FSLAX34Y34*%
%LPD*%
%INTop Copper*%
%IPPOS*%
%AMOC8*
5,1,8,0,0,1.08239X$1,22.5*%
G01*
%ADD10C,0.808000*%
%ADD11C,2.540000*%
%ADD12P,2.749271X8X202.500000*%
%ADD13R,1.100000X1.000000*%
%ADD14P,2.749271X8X22.500000*%
%ADD15C,0.300000*%
%ADD16R,1.000000X1.100000*%
%ADD17R,1.270000X3.175000*%
%ADD18R,0.700000X1.000000*%
%ADD19R,0.900000X1.200000*%
%ADD20C,7.000000*%
%ADD21R,1.000000X2.000000*%
%ADD22C,6.451600*%
%ADD23C,0.304800*%
%ADD24C,0.756400*%
%ADD25C,5.080000*%
%ADD26C,0.254000*%
%ADD27C,0.152400*%
%ADD28C,0.203200*%

G36*
X303588Y14233D02*
X303588Y14233D01*
X303646Y14231D01*
X303728Y14253D01*
X303812Y14265D01*
X303865Y14289D01*
X303921Y14303D01*
X303994Y14346D01*
X304071Y14381D01*
X304116Y14419D01*
X304166Y14449D01*
X304224Y14510D01*
X304288Y14565D01*
X304320Y14613D01*
X304360Y14656D01*
X304399Y14731D01*
X304446Y14801D01*
X304463Y14857D01*
X304490Y14909D01*
X304501Y14977D01*
X304531Y15072D01*
X304534Y15172D01*
X304545Y15240D01*
X304545Y194310D01*
X304537Y194368D01*
X304539Y194426D01*
X304517Y194508D01*
X304505Y194592D01*
X304482Y194645D01*
X304467Y194701D01*
X304424Y194774D01*
X304389Y194851D01*
X304351Y194896D01*
X304322Y194946D01*
X304260Y195004D01*
X304206Y195068D01*
X304157Y195100D01*
X304114Y195140D01*
X304039Y195179D01*
X303969Y195226D01*
X303913Y195243D01*
X303861Y195270D01*
X303793Y195281D01*
X303698Y195311D01*
X303598Y195314D01*
X303530Y195325D01*
X204442Y195325D01*
X204384Y195317D01*
X204326Y195319D01*
X204244Y195297D01*
X204160Y195285D01*
X204107Y195262D01*
X204051Y195247D01*
X203978Y195204D01*
X203901Y195169D01*
X203856Y195131D01*
X203806Y195102D01*
X203748Y195040D01*
X203684Y194986D01*
X203652Y194937D01*
X203612Y194894D01*
X203573Y194819D01*
X203526Y194749D01*
X203509Y194693D01*
X203482Y194641D01*
X203471Y194573D01*
X203441Y194478D01*
X203438Y194378D01*
X203427Y194310D01*
X203427Y193254D01*
X202619Y191304D01*
X201212Y189897D01*
X201160Y189827D01*
X201100Y189764D01*
X201074Y189714D01*
X201041Y189670D01*
X201010Y189588D01*
X200970Y189510D01*
X200962Y189463D01*
X200940Y189404D01*
X200928Y189257D01*
X200915Y189179D01*
X200915Y160382D01*
X200922Y160330D01*
X200921Y160304D01*
X200922Y160301D01*
X200921Y160266D01*
X200943Y160184D01*
X200955Y160100D01*
X200978Y160047D01*
X200993Y159991D01*
X201036Y159918D01*
X201071Y159841D01*
X201109Y159796D01*
X201138Y159746D01*
X201200Y159688D01*
X201254Y159624D01*
X201303Y159592D01*
X201346Y159552D01*
X201421Y159513D01*
X201491Y159466D01*
X201547Y159449D01*
X201599Y159422D01*
X201667Y159411D01*
X201762Y159381D01*
X201862Y159378D01*
X201930Y159367D01*
X202986Y159367D01*
X204936Y158559D01*
X206429Y157066D01*
X207237Y155116D01*
X207237Y153004D01*
X206429Y151054D01*
X204936Y149561D01*
X202986Y148753D01*
X200874Y148753D01*
X198924Y149561D01*
X197431Y151054D01*
X196623Y153004D01*
X196623Y154994D01*
X196611Y155080D01*
X196608Y155168D01*
X196591Y155221D01*
X196583Y155275D01*
X196548Y155355D01*
X196521Y155438D01*
X196493Y155478D01*
X196467Y155535D01*
X196371Y155648D01*
X196326Y155712D01*
X195325Y156712D01*
X195325Y189179D01*
X195313Y189266D01*
X195310Y189353D01*
X195293Y189406D01*
X195285Y189461D01*
X195250Y189541D01*
X195223Y189624D01*
X195195Y189663D01*
X195169Y189720D01*
X195073Y189834D01*
X195028Y189897D01*
X193621Y191304D01*
X192813Y193254D01*
X192813Y194310D01*
X192805Y194368D01*
X192807Y194426D01*
X192785Y194508D01*
X192773Y194592D01*
X192750Y194645D01*
X192735Y194701D01*
X192692Y194774D01*
X192657Y194851D01*
X192619Y194896D01*
X192590Y194946D01*
X192528Y195004D01*
X192474Y195068D01*
X192425Y195100D01*
X192382Y195140D01*
X192307Y195179D01*
X192237Y195226D01*
X192181Y195243D01*
X192129Y195270D01*
X192061Y195281D01*
X191966Y195311D01*
X191866Y195314D01*
X191798Y195325D01*
X172974Y195325D01*
X172916Y195317D01*
X172858Y195319D01*
X172776Y195297D01*
X172692Y195285D01*
X172639Y195262D01*
X172583Y195247D01*
X172510Y195204D01*
X172433Y195169D01*
X172388Y195131D01*
X172338Y195102D01*
X172280Y195040D01*
X172216Y194986D01*
X172184Y194937D01*
X172144Y194894D01*
X172105Y194819D01*
X172058Y194749D01*
X172041Y194693D01*
X172014Y194641D01*
X172003Y194573D01*
X171973Y194478D01*
X171970Y194378D01*
X171959Y194310D01*
X171959Y185217D01*
X171971Y185130D01*
X171974Y185043D01*
X171991Y184990D01*
X171999Y184935D01*
X172034Y184855D01*
X172061Y184772D01*
X172089Y184733D01*
X172115Y184676D01*
X172211Y184562D01*
X172256Y184499D01*
X173409Y183346D01*
X174217Y181396D01*
X174217Y179284D01*
X173409Y177334D01*
X171916Y175841D01*
X169966Y175033D01*
X168335Y175033D01*
X168249Y175021D01*
X168161Y175018D01*
X168109Y175001D01*
X168054Y174993D01*
X167974Y174958D01*
X167891Y174931D01*
X167852Y174903D01*
X167794Y174877D01*
X167681Y174781D01*
X167617Y174736D01*
X145586Y152705D01*
X145534Y152635D01*
X145474Y152571D01*
X145448Y152521D01*
X145415Y152477D01*
X145384Y152396D01*
X145344Y152318D01*
X145336Y152270D01*
X145314Y152212D01*
X145302Y152064D01*
X145289Y151987D01*
X145289Y68993D01*
X145296Y68944D01*
X145295Y68932D01*
X145300Y68915D01*
X145301Y68907D01*
X145304Y68819D01*
X145321Y68767D01*
X145329Y68712D01*
X145364Y68632D01*
X145391Y68549D01*
X145419Y68510D01*
X145445Y68452D01*
X145541Y68339D01*
X145586Y68275D01*
X166065Y47796D01*
X166135Y47744D01*
X166199Y47684D01*
X166249Y47658D01*
X166293Y47625D01*
X166374Y47594D01*
X166452Y47554D01*
X166500Y47546D01*
X166558Y47524D01*
X166706Y47512D01*
X166783Y47499D01*
X186893Y47499D01*
X186980Y47511D01*
X187067Y47514D01*
X187120Y47531D01*
X187175Y47539D01*
X187255Y47574D01*
X187338Y47601D01*
X187377Y47629D01*
X187434Y47655D01*
X187548Y47751D01*
X187611Y47796D01*
X188764Y48949D01*
X190714Y49757D01*
X192826Y49757D01*
X194776Y48949D01*
X196269Y47456D01*
X197077Y45506D01*
X197077Y43394D01*
X196269Y41444D01*
X194776Y39951D01*
X192826Y39143D01*
X190714Y39143D01*
X188764Y39951D01*
X187611Y41104D01*
X187541Y41156D01*
X187478Y41216D01*
X187428Y41242D01*
X187384Y41275D01*
X187302Y41306D01*
X187224Y41346D01*
X187177Y41354D01*
X187118Y41376D01*
X186971Y41388D01*
X186893Y41401D01*
X163837Y41401D01*
X139191Y66047D01*
X139191Y154933D01*
X163306Y179047D01*
X163358Y179117D01*
X163418Y179181D01*
X163444Y179231D01*
X163477Y179275D01*
X163508Y179356D01*
X163548Y179434D01*
X163556Y179482D01*
X163578Y179540D01*
X163590Y179688D01*
X163603Y179765D01*
X163603Y181396D01*
X164411Y183346D01*
X165564Y184499D01*
X165616Y184569D01*
X165676Y184632D01*
X165702Y184682D01*
X165735Y184726D01*
X165766Y184808D01*
X165806Y184886D01*
X165814Y184933D01*
X165836Y184992D01*
X165848Y185139D01*
X165861Y185217D01*
X165861Y194310D01*
X165853Y194368D01*
X165855Y194426D01*
X165833Y194508D01*
X165821Y194592D01*
X165798Y194645D01*
X165783Y194701D01*
X165740Y194774D01*
X165705Y194851D01*
X165667Y194896D01*
X165638Y194946D01*
X165576Y195004D01*
X165522Y195068D01*
X165473Y195100D01*
X165430Y195140D01*
X165355Y195179D01*
X165285Y195226D01*
X165229Y195243D01*
X165177Y195270D01*
X165109Y195281D01*
X165014Y195311D01*
X164914Y195314D01*
X164846Y195325D01*
X13970Y195325D01*
X13912Y195317D01*
X13854Y195319D01*
X13772Y195297D01*
X13689Y195285D01*
X13635Y195262D01*
X13579Y195247D01*
X13506Y195204D01*
X13429Y195169D01*
X13384Y195131D01*
X13334Y195102D01*
X13276Y195040D01*
X13212Y194986D01*
X13180Y194937D01*
X13140Y194894D01*
X13101Y194819D01*
X13055Y194749D01*
X13037Y194693D01*
X13010Y194641D01*
X12999Y194573D01*
X12969Y194478D01*
X12966Y194378D01*
X12955Y194310D01*
X12955Y15240D01*
X12963Y15182D01*
X12961Y15124D01*
X12983Y15042D01*
X12995Y14959D01*
X13019Y14905D01*
X13033Y14849D01*
X13076Y14776D01*
X13111Y14699D01*
X13149Y14654D01*
X13179Y14604D01*
X13240Y14546D01*
X13295Y14482D01*
X13343Y14450D01*
X13386Y14410D01*
X13461Y14371D01*
X13531Y14325D01*
X13587Y14307D01*
X13639Y14280D01*
X13707Y14269D01*
X13802Y14239D01*
X13902Y14236D01*
X13970Y14225D01*
X303530Y14225D01*
X303588Y14233D01*
G37*
G36*
X446791Y228366D02*
X446791Y228366D01*
X447059Y228382D01*
X447075Y228386D01*
X447092Y228387D01*
X447354Y228443D01*
X447617Y228497D01*
X447633Y228502D01*
X447649Y228506D01*
X447902Y228598D01*
X448154Y228688D01*
X448168Y228696D01*
X448184Y228702D01*
X448423Y228829D01*
X448658Y228953D01*
X448672Y228963D01*
X448686Y228970D01*
X448903Y229129D01*
X449121Y229286D01*
X449133Y229297D01*
X449146Y229307D01*
X449339Y229495D01*
X449532Y229680D01*
X449543Y229693D01*
X449554Y229704D01*
X449720Y229918D01*
X449885Y230128D01*
X449893Y230142D01*
X449903Y230155D01*
X450037Y230389D01*
X450171Y230620D01*
X450176Y230633D01*
X450185Y230650D01*
X450396Y231179D01*
X450423Y231290D01*
X450448Y231358D01*
X451104Y233808D01*
X455913Y242137D01*
X462713Y248937D01*
X471042Y253746D01*
X473492Y254402D01*
X473746Y254490D01*
X474000Y254575D01*
X474015Y254582D01*
X474030Y254588D01*
X474269Y254710D01*
X474509Y254830D01*
X474523Y254839D01*
X474538Y254847D01*
X474757Y255001D01*
X474978Y255154D01*
X474990Y255165D01*
X475004Y255175D01*
X475199Y255357D01*
X475397Y255540D01*
X475408Y255553D01*
X475420Y255564D01*
X475587Y255772D01*
X475758Y255981D01*
X475766Y255995D01*
X475777Y256008D01*
X475914Y256239D01*
X476053Y256468D01*
X476060Y256483D01*
X476068Y256498D01*
X476172Y256746D01*
X476278Y256992D01*
X476282Y257008D01*
X476288Y257023D01*
X476357Y257283D01*
X476427Y257542D01*
X476428Y257556D01*
X476433Y257574D01*
X476499Y258140D01*
X476496Y258254D01*
X476503Y258327D01*
X476503Y448310D01*
X476487Y448539D01*
X476477Y448770D01*
X476467Y448824D01*
X476463Y448878D01*
X476415Y449104D01*
X476373Y449330D01*
X476356Y449382D01*
X476344Y449436D01*
X476265Y449652D01*
X476192Y449870D01*
X476167Y449919D01*
X476148Y449971D01*
X476040Y450174D01*
X475937Y450379D01*
X475906Y450425D01*
X475880Y450473D01*
X475744Y450659D01*
X475613Y450848D01*
X475576Y450889D01*
X475543Y450933D01*
X475383Y451098D01*
X475227Y451267D01*
X475184Y451302D01*
X475146Y451341D01*
X474964Y451482D01*
X474786Y451628D01*
X474738Y451656D01*
X474695Y451690D01*
X474495Y451804D01*
X474298Y451923D01*
X474248Y451945D01*
X474200Y451972D01*
X473986Y452057D01*
X473775Y452148D01*
X473722Y452162D01*
X473671Y452182D01*
X473446Y452237D01*
X473225Y452297D01*
X473181Y452301D01*
X473117Y452317D01*
X472550Y452372D01*
X472484Y452369D01*
X472440Y452373D01*
X295120Y452373D01*
X294891Y452357D01*
X294660Y452347D01*
X294606Y452337D01*
X294552Y452333D01*
X294326Y452285D01*
X294100Y452243D01*
X294048Y452226D01*
X293994Y452214D01*
X293778Y452135D01*
X293560Y452062D01*
X293511Y452037D01*
X293459Y452018D01*
X293256Y451910D01*
X293051Y451807D01*
X293005Y451776D01*
X292957Y451750D01*
X292771Y451614D01*
X292582Y451483D01*
X292541Y451446D01*
X292497Y451413D01*
X292332Y451253D01*
X292163Y451097D01*
X292128Y451054D01*
X292089Y451016D01*
X291948Y450834D01*
X291802Y450656D01*
X291774Y450608D01*
X291740Y450565D01*
X291626Y450365D01*
X291507Y450168D01*
X291485Y450118D01*
X291458Y450070D01*
X291373Y449856D01*
X291282Y449645D01*
X291268Y449592D01*
X291248Y449541D01*
X291193Y449316D01*
X291133Y449095D01*
X291129Y449051D01*
X291113Y448987D01*
X291058Y448420D01*
X291061Y448354D01*
X291057Y448310D01*
X291057Y446446D01*
X291058Y446427D01*
X291054Y446336D01*
X291055Y446326D01*
X291055Y446316D01*
X291082Y446043D01*
X291094Y445916D01*
X291097Y445878D01*
X291098Y445870D01*
X291108Y445768D01*
X291110Y445759D01*
X291111Y445749D01*
X291177Y445482D01*
X291241Y445214D01*
X291245Y445205D01*
X291247Y445196D01*
X291350Y444939D01*
X291450Y444684D01*
X291455Y444676D01*
X291459Y444667D01*
X291595Y444429D01*
X291731Y444189D01*
X291737Y444181D01*
X291742Y444172D01*
X291768Y444140D01*
X292079Y443737D01*
X292186Y443633D01*
X292243Y443563D01*
X293065Y442742D01*
X293065Y421478D01*
X292172Y420585D01*
X280224Y420585D01*
X280049Y420643D01*
X279995Y420653D01*
X279943Y420669D01*
X279715Y420704D01*
X279488Y420746D01*
X279434Y420748D01*
X279380Y420756D01*
X279149Y420760D01*
X278919Y420769D01*
X278865Y420763D01*
X278810Y420764D01*
X278581Y420735D01*
X278352Y420712D01*
X278299Y420699D01*
X278245Y420692D01*
X278021Y420631D01*
X277835Y420585D01*
X269602Y420585D01*
X269542Y420581D01*
X269481Y420583D01*
X269258Y420561D01*
X269034Y420545D01*
X268974Y420533D01*
X268914Y420527D01*
X268696Y420473D01*
X268476Y420426D01*
X268420Y420406D01*
X268361Y420391D01*
X268152Y420308D01*
X267941Y420230D01*
X267888Y420202D01*
X267832Y420180D01*
X267637Y420068D01*
X267439Y419962D01*
X267390Y419926D01*
X267338Y419896D01*
X267247Y419821D01*
X266979Y419625D01*
X266818Y419468D01*
X266729Y419395D01*
X253667Y406333D01*
X253627Y406288D01*
X253583Y406247D01*
X253441Y406073D01*
X253293Y405903D01*
X253260Y405852D01*
X253222Y405806D01*
X253105Y405613D01*
X252983Y405425D01*
X252958Y405370D01*
X252927Y405318D01*
X252838Y405112D01*
X252744Y404908D01*
X252726Y404850D01*
X252702Y404795D01*
X252644Y404578D01*
X252578Y404363D01*
X252569Y404303D01*
X252553Y404245D01*
X252542Y404128D01*
X252491Y403800D01*
X252488Y403575D01*
X252477Y403460D01*
X252477Y400942D01*
X252477Y400939D01*
X252477Y400936D01*
X252497Y400660D01*
X252517Y400373D01*
X252517Y400370D01*
X252517Y400368D01*
X252578Y400086D01*
X252636Y399816D01*
X252637Y399814D01*
X252637Y399811D01*
X252732Y399554D01*
X252832Y399281D01*
X252833Y399278D01*
X252834Y399276D01*
X252962Y399038D01*
X253100Y398779D01*
X253102Y398776D01*
X253103Y398774D01*
X253272Y398544D01*
X253437Y398319D01*
X253439Y398317D01*
X253440Y398315D01*
X253641Y398109D01*
X253834Y397910D01*
X253836Y397909D01*
X253838Y397907D01*
X254071Y397727D01*
X254285Y397562D01*
X254287Y397560D01*
X254289Y397559D01*
X254302Y397552D01*
X254780Y397279D01*
X254910Y397228D01*
X254985Y397188D01*
X255699Y396892D01*
X257192Y395399D01*
X258000Y393449D01*
X258000Y391337D01*
X257192Y389387D01*
X255699Y387894D01*
X254985Y387599D01*
X254983Y387597D01*
X254980Y387596D01*
X254728Y387470D01*
X254475Y387344D01*
X254473Y387343D01*
X254471Y387341D01*
X254233Y387177D01*
X254006Y387021D01*
X254004Y387019D01*
X254002Y387017D01*
X253789Y386821D01*
X253587Y386635D01*
X253585Y386633D01*
X253583Y386631D01*
X253396Y386403D01*
X253225Y386195D01*
X253224Y386192D01*
X253222Y386190D01*
X253074Y385946D01*
X252929Y385708D01*
X252928Y385705D01*
X252927Y385703D01*
X252817Y385447D01*
X252704Y385184D01*
X252703Y385182D01*
X252702Y385179D01*
X252631Y384915D01*
X252554Y384635D01*
X252554Y384632D01*
X252553Y384629D01*
X252552Y384617D01*
X252483Y384069D01*
X252485Y383930D01*
X252477Y383845D01*
X252477Y374740D01*
X252481Y374680D01*
X252479Y374620D01*
X252501Y374396D01*
X252517Y374172D01*
X252529Y374113D01*
X252535Y374053D01*
X252589Y373834D01*
X252636Y373615D01*
X252656Y373558D01*
X252671Y373499D01*
X252754Y373291D01*
X252832Y373080D01*
X252860Y373026D01*
X252883Y372970D01*
X252994Y372775D01*
X253100Y372577D01*
X253136Y372528D01*
X253166Y372476D01*
X253241Y372385D01*
X253437Y372117D01*
X253594Y371956D01*
X253667Y371867D01*
X258479Y367055D01*
X258827Y366215D01*
X258827Y327698D01*
X258843Y327468D01*
X258853Y327238D01*
X258863Y327184D01*
X258867Y327130D01*
X258915Y326904D01*
X258957Y326678D01*
X258974Y326626D01*
X258986Y326572D01*
X259065Y326356D01*
X259138Y326138D01*
X259163Y326089D01*
X259182Y326037D01*
X259290Y325834D01*
X259393Y325629D01*
X259424Y325583D01*
X259450Y325535D01*
X259586Y325349D01*
X259717Y325160D01*
X259754Y325119D01*
X259787Y325075D01*
X259947Y324910D01*
X260103Y324741D01*
X260146Y324706D01*
X260184Y324667D01*
X260366Y324526D01*
X260544Y324380D01*
X260592Y324352D01*
X260635Y324318D01*
X260835Y324204D01*
X261032Y324085D01*
X261082Y324063D01*
X261130Y324036D01*
X261344Y323951D01*
X261555Y323860D01*
X261608Y323846D01*
X261659Y323826D01*
X261884Y323771D01*
X262105Y323711D01*
X262149Y323707D01*
X262213Y323691D01*
X262780Y323636D01*
X262844Y323639D01*
X263031Y323577D01*
X263085Y323567D01*
X263137Y323551D01*
X263364Y323516D01*
X263591Y323474D01*
X263646Y323472D01*
X263700Y323464D01*
X263930Y323460D01*
X264161Y323451D01*
X264215Y323457D01*
X264270Y323456D01*
X264499Y323485D01*
X264727Y323508D01*
X264781Y323521D01*
X264835Y323528D01*
X265057Y323589D01*
X265245Y323635D01*
X277856Y323635D01*
X278031Y323577D01*
X278085Y323567D01*
X278137Y323551D01*
X278364Y323516D01*
X278591Y323474D01*
X278646Y323472D01*
X278700Y323464D01*
X278930Y323460D01*
X279161Y323451D01*
X279215Y323457D01*
X279270Y323456D01*
X279499Y323485D01*
X279727Y323508D01*
X279781Y323521D01*
X279835Y323528D01*
X280057Y323589D01*
X280245Y323635D01*
X292172Y323635D01*
X293065Y322742D01*
X293065Y301478D01*
X292172Y300585D01*
X280224Y300585D01*
X280049Y300643D01*
X279995Y300653D01*
X279943Y300669D01*
X279715Y300704D01*
X279488Y300746D01*
X279434Y300748D01*
X279380Y300756D01*
X279149Y300760D01*
X278919Y300769D01*
X278865Y300763D01*
X278810Y300764D01*
X278581Y300735D01*
X278352Y300712D01*
X278299Y300699D01*
X278245Y300692D01*
X278021Y300631D01*
X277799Y300576D01*
X277748Y300556D01*
X277695Y300542D01*
X277483Y300450D01*
X277270Y300365D01*
X277222Y300337D01*
X277172Y300316D01*
X277168Y300314D01*
X277050Y300274D01*
X277001Y300249D01*
X276949Y300230D01*
X276746Y300122D01*
X276541Y300019D01*
X276495Y299988D01*
X276447Y299962D01*
X276261Y299826D01*
X276072Y299695D01*
X276031Y299658D01*
X275987Y299625D01*
X275822Y299465D01*
X275653Y299309D01*
X275618Y299266D01*
X275579Y299228D01*
X275438Y299046D01*
X275292Y298868D01*
X275264Y298820D01*
X275230Y298777D01*
X275116Y298577D01*
X274997Y298380D01*
X274975Y298330D01*
X274948Y298282D01*
X274863Y298068D01*
X274772Y297857D01*
X274758Y297804D01*
X274738Y297753D01*
X274683Y297528D01*
X274623Y297307D01*
X274619Y297263D01*
X274603Y297199D01*
X274548Y296632D01*
X274551Y296566D01*
X274547Y296522D01*
X274547Y294854D01*
X273739Y292904D01*
X272246Y291411D01*
X270296Y290603D01*
X268184Y290603D01*
X266234Y291411D01*
X264741Y292904D01*
X263933Y294854D01*
X263933Y296522D01*
X263917Y296751D01*
X263907Y296982D01*
X263897Y297036D01*
X263893Y297090D01*
X263845Y297316D01*
X263803Y297542D01*
X263786Y297594D01*
X263774Y297648D01*
X263695Y297864D01*
X263622Y298082D01*
X263597Y298131D01*
X263578Y298183D01*
X263470Y298386D01*
X263367Y298591D01*
X263336Y298637D01*
X263310Y298685D01*
X263174Y298871D01*
X263043Y299060D01*
X263006Y299101D01*
X262973Y299145D01*
X262813Y299310D01*
X262657Y299479D01*
X262614Y299514D01*
X262576Y299553D01*
X262394Y299694D01*
X262216Y299840D01*
X262168Y299868D01*
X262125Y299902D01*
X261925Y300016D01*
X261728Y300135D01*
X261678Y300157D01*
X261630Y300184D01*
X261416Y300269D01*
X261205Y300360D01*
X261152Y300374D01*
X261101Y300394D01*
X260876Y300449D01*
X260655Y300509D01*
X260611Y300513D01*
X260547Y300529D01*
X259980Y300584D01*
X259914Y300581D01*
X259870Y300585D01*
X256540Y300585D01*
X256311Y300569D01*
X256080Y300559D01*
X256026Y300549D01*
X255972Y300545D01*
X255746Y300497D01*
X255520Y300455D01*
X255468Y300438D01*
X255414Y300426D01*
X255198Y300347D01*
X254980Y300274D01*
X254931Y300249D01*
X254879Y300230D01*
X254676Y300122D01*
X254471Y300019D01*
X254425Y299988D01*
X254377Y299962D01*
X254191Y299826D01*
X254002Y299695D01*
X253961Y299658D01*
X253917Y299625D01*
X253752Y299465D01*
X253583Y299309D01*
X253548Y299266D01*
X253509Y299228D01*
X253368Y299046D01*
X253222Y298868D01*
X253194Y298820D01*
X253160Y298777D01*
X253046Y298577D01*
X252927Y298380D01*
X252905Y298330D01*
X252878Y298282D01*
X252793Y298068D01*
X252702Y297857D01*
X252688Y297804D01*
X252668Y297753D01*
X252613Y297528D01*
X252553Y297307D01*
X252549Y297263D01*
X252534Y297199D01*
X252478Y296632D01*
X252481Y296566D01*
X252477Y296522D01*
X252477Y232410D01*
X252493Y232181D01*
X252503Y231950D01*
X252513Y231896D01*
X252517Y231842D01*
X252565Y231616D01*
X252607Y231390D01*
X252624Y231338D01*
X252636Y231284D01*
X252715Y231068D01*
X252788Y230850D01*
X252813Y230801D01*
X252832Y230749D01*
X252940Y230546D01*
X253043Y230341D01*
X253074Y230295D01*
X253100Y230247D01*
X253236Y230061D01*
X253367Y229872D01*
X253404Y229831D01*
X253437Y229787D01*
X253597Y229622D01*
X253753Y229453D01*
X253796Y229418D01*
X253834Y229379D01*
X254016Y229238D01*
X254194Y229092D01*
X254242Y229064D01*
X254285Y229030D01*
X254485Y228916D01*
X254682Y228797D01*
X254732Y228775D01*
X254780Y228748D01*
X254994Y228663D01*
X255205Y228572D01*
X255258Y228558D01*
X255309Y228538D01*
X255534Y228483D01*
X255755Y228423D01*
X255799Y228419D01*
X255863Y228404D01*
X256430Y228348D01*
X256496Y228351D01*
X256540Y228347D01*
X446523Y228347D01*
X446791Y228366D01*
G37*
%LPC*%
G36*
X421675Y261233D02*
X421675Y261233D01*
X418402Y262226D01*
X415244Y263534D01*
X412228Y265146D01*
X409385Y267046D01*
X406743Y269215D01*
X404325Y271633D01*
X402156Y274275D01*
X400256Y277118D01*
X398644Y280134D01*
X397444Y283033D01*
X397401Y283119D01*
X397366Y283208D01*
X397274Y283373D01*
X397189Y283542D01*
X397135Y283621D01*
X397088Y283705D01*
X396973Y283856D01*
X396866Y284012D01*
X396801Y284082D01*
X396743Y284159D01*
X396608Y284292D01*
X396480Y284431D01*
X396406Y284492D01*
X396338Y284559D01*
X396186Y284672D01*
X396040Y284792D01*
X395958Y284842D01*
X395881Y284900D01*
X395715Y284990D01*
X395553Y285088D01*
X395465Y285127D01*
X395380Y285172D01*
X395203Y285239D01*
X395030Y285314D01*
X394937Y285339D01*
X394847Y285373D01*
X394662Y285414D01*
X394480Y285463D01*
X394385Y285475D01*
X394291Y285496D01*
X394102Y285511D01*
X393914Y285535D01*
X393818Y285533D01*
X393723Y285541D01*
X393534Y285529D01*
X393345Y285526D01*
X393250Y285511D01*
X393154Y285505D01*
X392968Y285467D01*
X392782Y285438D01*
X392690Y285410D01*
X392596Y285391D01*
X392417Y285327D01*
X392237Y285272D01*
X392150Y285232D01*
X392059Y285199D01*
X391891Y285111D01*
X391720Y285032D01*
X391640Y284979D01*
X391555Y284935D01*
X391401Y284824D01*
X391242Y284721D01*
X391170Y284658D01*
X391092Y284602D01*
X390955Y284471D01*
X390813Y284347D01*
X390750Y284274D01*
X390680Y284208D01*
X390564Y284059D01*
X390440Y283916D01*
X390387Y283836D01*
X390328Y283760D01*
X390233Y283597D01*
X390130Y283438D01*
X390090Y283350D01*
X390042Y283267D01*
X390000Y283155D01*
X389891Y282921D01*
X389808Y282643D01*
X389765Y282529D01*
X389620Y281990D01*
X385173Y274287D01*
X378883Y267997D01*
X371180Y263550D01*
X362588Y261247D01*
X353692Y261247D01*
X345100Y263550D01*
X337397Y267997D01*
X331107Y274287D01*
X326660Y281990D01*
X324357Y290582D01*
X324357Y299478D01*
X326660Y308070D01*
X331107Y315773D01*
X337397Y322063D01*
X345100Y326510D01*
X353692Y328813D01*
X362588Y328813D01*
X371180Y326510D01*
X378883Y322063D01*
X385173Y315773D01*
X389620Y308070D01*
X389765Y307531D01*
X389796Y307440D01*
X389819Y307347D01*
X389889Y307171D01*
X389951Y306992D01*
X389994Y306907D01*
X390030Y306817D01*
X390124Y306653D01*
X390210Y306485D01*
X390265Y306406D01*
X390313Y306323D01*
X390428Y306174D01*
X390537Y306019D01*
X390603Y305948D01*
X390662Y305873D01*
X390798Y305741D01*
X390927Y305603D01*
X391002Y305543D01*
X391071Y305476D01*
X391224Y305364D01*
X391371Y305246D01*
X391454Y305197D01*
X391531Y305140D01*
X391698Y305051D01*
X391861Y304954D01*
X391949Y304917D01*
X392034Y304872D01*
X392212Y304807D01*
X392386Y304734D01*
X392479Y304710D01*
X392569Y304677D01*
X392755Y304637D01*
X392937Y304589D01*
X393033Y304578D01*
X393127Y304558D01*
X393316Y304545D01*
X393503Y304523D01*
X393599Y304526D01*
X393695Y304519D01*
X393884Y304533D01*
X394073Y304537D01*
X394168Y304553D01*
X394263Y304560D01*
X394448Y304600D01*
X394635Y304631D01*
X394727Y304660D01*
X394821Y304680D01*
X394998Y304745D01*
X395178Y304802D01*
X395265Y304843D01*
X395355Y304876D01*
X395522Y304966D01*
X395693Y305047D01*
X395773Y305100D01*
X395857Y305146D01*
X396010Y305257D01*
X396168Y305362D01*
X396239Y305426D01*
X396317Y305483D01*
X396452Y305615D01*
X396594Y305740D01*
X396656Y305814D01*
X396725Y305881D01*
X396840Y306030D01*
X396963Y306175D01*
X397014Y306256D01*
X397073Y306332D01*
X397129Y306438D01*
X397267Y306656D01*
X397386Y306920D01*
X397444Y307027D01*
X398644Y309926D01*
X400256Y312942D01*
X402156Y315785D01*
X404325Y318427D01*
X406743Y320845D01*
X409385Y323014D01*
X412228Y324914D01*
X415244Y326526D01*
X418402Y327834D01*
X421675Y328827D01*
X422013Y328894D01*
X422013Y299094D01*
X422029Y298865D01*
X422039Y298635D01*
X422049Y298581D01*
X422053Y298526D01*
X422101Y298301D01*
X422143Y298074D01*
X422160Y298022D01*
X422172Y297969D01*
X422251Y297752D01*
X422324Y297534D01*
X422349Y297485D01*
X422368Y297433D01*
X422476Y297230D01*
X422579Y297025D01*
X422610Y296979D01*
X422636Y296931D01*
X422772Y296746D01*
X422903Y296556D01*
X422940Y296515D01*
X422973Y296471D01*
X423133Y296306D01*
X423289Y296137D01*
X423332Y296102D01*
X423370Y296063D01*
X423552Y295922D01*
X423730Y295776D01*
X423778Y295748D01*
X423821Y295714D01*
X424021Y295600D01*
X424218Y295481D01*
X424268Y295459D01*
X424316Y295432D01*
X424530Y295347D01*
X424741Y295256D01*
X424794Y295242D01*
X424845Y295222D01*
X425070Y295167D01*
X425291Y295107D01*
X425335Y295103D01*
X425399Y295088D01*
X425966Y295032D01*
X426032Y295035D01*
X426076Y295031D01*
X430141Y295031D01*
X430141Y295029D01*
X426076Y295029D01*
X425847Y295013D01*
X425616Y295003D01*
X425562Y294993D01*
X425508Y294989D01*
X425282Y294941D01*
X425056Y294899D01*
X425004Y294882D01*
X424950Y294870D01*
X424734Y294791D01*
X424516Y294718D01*
X424467Y294693D01*
X424415Y294674D01*
X424212Y294566D01*
X424007Y294463D01*
X423961Y294431D01*
X423913Y294405D01*
X423727Y294270D01*
X423538Y294139D01*
X423497Y294101D01*
X423453Y294069D01*
X423288Y293909D01*
X423119Y293753D01*
X423084Y293710D01*
X423045Y293672D01*
X422904Y293490D01*
X422758Y293311D01*
X422730Y293264D01*
X422696Y293221D01*
X422582Y293021D01*
X422463Y292824D01*
X422441Y292774D01*
X422414Y292726D01*
X422329Y292511D01*
X422238Y292301D01*
X422224Y292248D01*
X422204Y292196D01*
X422149Y291972D01*
X422089Y291751D01*
X422085Y291706D01*
X422070Y291643D01*
X422014Y291076D01*
X422017Y291010D01*
X422013Y290966D01*
X422013Y261166D01*
X421675Y261233D01*
G37*
%LPD*%
%LPC*%
G36*
X421675Y351403D02*
X421675Y351403D01*
X418402Y352396D01*
X415244Y353704D01*
X412228Y355316D01*
X409385Y357216D01*
X406743Y359385D01*
X404325Y361803D01*
X402156Y364445D01*
X400256Y367288D01*
X398644Y370304D01*
X397444Y373203D01*
X397401Y373289D01*
X397366Y373378D01*
X397274Y373543D01*
X397189Y373712D01*
X397135Y373791D01*
X397088Y373875D01*
X396973Y374026D01*
X396866Y374182D01*
X396801Y374252D01*
X396743Y374329D01*
X396608Y374462D01*
X396480Y374601D01*
X396406Y374662D01*
X396338Y374729D01*
X396186Y374842D01*
X396040Y374962D01*
X395958Y375012D01*
X395881Y375070D01*
X395715Y375160D01*
X395553Y375258D01*
X395465Y375297D01*
X395380Y375342D01*
X395203Y375409D01*
X395030Y375484D01*
X394937Y375509D01*
X394847Y375543D01*
X394662Y375584D01*
X394480Y375633D01*
X394385Y375645D01*
X394291Y375666D01*
X394102Y375681D01*
X393914Y375705D01*
X393818Y375703D01*
X393723Y375711D01*
X393534Y375699D01*
X393345Y375696D01*
X393250Y375681D01*
X393154Y375675D01*
X392968Y375637D01*
X392782Y375608D01*
X392690Y375580D01*
X392596Y375561D01*
X392417Y375497D01*
X392237Y375442D01*
X392150Y375402D01*
X392059Y375369D01*
X391891Y375281D01*
X391720Y375202D01*
X391640Y375149D01*
X391555Y375105D01*
X391401Y374994D01*
X391242Y374891D01*
X391170Y374828D01*
X391092Y374772D01*
X390955Y374641D01*
X390813Y374517D01*
X390750Y374444D01*
X390680Y374378D01*
X390564Y374229D01*
X390440Y374086D01*
X390387Y374006D01*
X390328Y373930D01*
X390233Y373767D01*
X390130Y373608D01*
X390090Y373520D01*
X390042Y373437D01*
X390000Y373325D01*
X389891Y373091D01*
X389808Y372813D01*
X389765Y372699D01*
X389620Y372160D01*
X385173Y364457D01*
X378883Y358167D01*
X371180Y353720D01*
X362588Y351417D01*
X353692Y351417D01*
X345100Y353720D01*
X337397Y358167D01*
X331107Y364457D01*
X326660Y372160D01*
X324357Y380752D01*
X324357Y389648D01*
X326660Y398240D01*
X331107Y405943D01*
X337397Y412233D01*
X345100Y416680D01*
X353692Y418983D01*
X362588Y418983D01*
X371180Y416680D01*
X378883Y412233D01*
X385173Y405943D01*
X389620Y398240D01*
X389765Y397701D01*
X389796Y397610D01*
X389819Y397517D01*
X389889Y397341D01*
X389951Y397162D01*
X389994Y397077D01*
X390030Y396987D01*
X390124Y396823D01*
X390210Y396655D01*
X390265Y396576D01*
X390313Y396493D01*
X390428Y396344D01*
X390537Y396189D01*
X390603Y396118D01*
X390662Y396043D01*
X390798Y395911D01*
X390927Y395773D01*
X391002Y395713D01*
X391071Y395646D01*
X391224Y395534D01*
X391371Y395416D01*
X391454Y395367D01*
X391531Y395310D01*
X391698Y395221D01*
X391861Y395124D01*
X391949Y395087D01*
X392034Y395042D01*
X392212Y394977D01*
X392386Y394904D01*
X392479Y394880D01*
X392569Y394847D01*
X392755Y394807D01*
X392937Y394759D01*
X393033Y394748D01*
X393127Y394728D01*
X393316Y394715D01*
X393503Y394693D01*
X393599Y394696D01*
X393695Y394689D01*
X393884Y394703D01*
X394073Y394707D01*
X394168Y394723D01*
X394263Y394730D01*
X394448Y394770D01*
X394635Y394801D01*
X394727Y394830D01*
X394821Y394850D01*
X394998Y394915D01*
X395178Y394972D01*
X395265Y395013D01*
X395355Y395046D01*
X395522Y395136D01*
X395693Y395217D01*
X395773Y395270D01*
X395857Y395316D01*
X396010Y395427D01*
X396168Y395532D01*
X396239Y395596D01*
X396317Y395653D01*
X396452Y395785D01*
X396594Y395910D01*
X396656Y395984D01*
X396725Y396051D01*
X396840Y396200D01*
X396963Y396345D01*
X397014Y396426D01*
X397073Y396502D01*
X397129Y396608D01*
X397267Y396826D01*
X397386Y397090D01*
X397444Y397197D01*
X398644Y400096D01*
X400256Y403112D01*
X401434Y404874D01*
X401434Y404875D01*
X402156Y405955D01*
X404325Y408597D01*
X406743Y411015D01*
X409385Y413184D01*
X412228Y415084D01*
X415244Y416696D01*
X418402Y418004D01*
X421675Y418997D01*
X422013Y419064D01*
X422013Y389264D01*
X422029Y389035D01*
X422039Y388805D01*
X422049Y388751D01*
X422053Y388696D01*
X422101Y388471D01*
X422143Y388244D01*
X422160Y388192D01*
X422172Y388139D01*
X422251Y387922D01*
X422324Y387704D01*
X422349Y387655D01*
X422368Y387603D01*
X422476Y387400D01*
X422579Y387195D01*
X422610Y387149D01*
X422636Y387101D01*
X422772Y386916D01*
X422903Y386726D01*
X422940Y386685D01*
X422973Y386641D01*
X423133Y386476D01*
X423289Y386307D01*
X423332Y386272D01*
X423370Y386233D01*
X423552Y386092D01*
X423730Y385946D01*
X423778Y385918D01*
X423821Y385884D01*
X424021Y385770D01*
X424218Y385651D01*
X424268Y385629D01*
X424316Y385602D01*
X424530Y385517D01*
X424741Y385426D01*
X424794Y385412D01*
X424845Y385392D01*
X425070Y385337D01*
X425291Y385277D01*
X425335Y385273D01*
X425399Y385258D01*
X425966Y385202D01*
X426032Y385205D01*
X426076Y385201D01*
X430141Y385201D01*
X430141Y385199D01*
X426076Y385199D01*
X425847Y385183D01*
X425616Y385173D01*
X425562Y385163D01*
X425508Y385159D01*
X425282Y385111D01*
X425056Y385069D01*
X425004Y385052D01*
X424950Y385040D01*
X424734Y384961D01*
X424516Y384888D01*
X424467Y384863D01*
X424415Y384844D01*
X424212Y384736D01*
X424007Y384633D01*
X423961Y384601D01*
X423913Y384575D01*
X423727Y384440D01*
X423538Y384309D01*
X423497Y384271D01*
X423453Y384239D01*
X423288Y384079D01*
X423119Y383923D01*
X423084Y383880D01*
X423045Y383842D01*
X422904Y383660D01*
X422758Y383481D01*
X422730Y383434D01*
X422696Y383391D01*
X422582Y383191D01*
X422463Y382994D01*
X422441Y382944D01*
X422414Y382896D01*
X422329Y382681D01*
X422238Y382471D01*
X422224Y382418D01*
X422204Y382366D01*
X422149Y382142D01*
X422089Y381921D01*
X422085Y381876D01*
X422070Y381813D01*
X422014Y381246D01*
X422017Y381180D01*
X422013Y381136D01*
X422013Y351336D01*
X421675Y351403D01*
G37*
%LPD*%
%LPC*%
G36*
X77688Y26669D02*
X77688Y26669D01*
X68041Y36316D01*
X68039Y36317D01*
X68038Y36319D01*
X67920Y36407D01*
X67813Y36487D01*
X67812Y36488D01*
X67810Y36489D01*
X67677Y36539D01*
X67548Y36588D01*
X67546Y36589D01*
X67544Y36589D01*
X67401Y36601D01*
X67264Y36612D01*
X67263Y36612D01*
X67261Y36612D01*
X67244Y36608D01*
X67221Y36603D01*
X64984Y36603D01*
X63034Y37411D01*
X61541Y38904D01*
X60733Y40854D01*
X60733Y42966D01*
X61541Y44916D01*
X63034Y46409D01*
X64984Y47217D01*
X67096Y47217D01*
X69046Y46409D01*
X70539Y44916D01*
X71347Y42966D01*
X71347Y40757D01*
X71343Y40741D01*
X71343Y40739D01*
X71342Y40737D01*
X71347Y40598D01*
X71349Y40510D01*
X71349Y40505D01*
X71349Y40504D01*
X71351Y40457D01*
X71351Y40455D01*
X71351Y40453D01*
X71394Y40321D01*
X71410Y40270D01*
X71421Y40230D01*
X71426Y40221D01*
X71437Y40186D01*
X71438Y40184D01*
X71439Y40183D01*
X71448Y40170D01*
X71523Y40058D01*
X71566Y39985D01*
X71581Y39972D01*
X71595Y39950D01*
X71619Y39930D01*
X71634Y39909D01*
X79495Y32048D01*
X79565Y31996D01*
X79629Y31936D01*
X79678Y31910D01*
X79722Y31877D01*
X79804Y31846D01*
X79882Y31806D01*
X79929Y31798D01*
X79988Y31776D01*
X80136Y31764D01*
X80213Y31751D01*
X280467Y31751D01*
X280554Y31763D01*
X280641Y31766D01*
X280694Y31783D01*
X280749Y31791D01*
X280828Y31826D01*
X280912Y31853D01*
X280951Y31881D01*
X281008Y31907D01*
X281121Y32003D01*
X281185Y32048D01*
X291802Y42665D01*
X291854Y42735D01*
X291914Y42799D01*
X291940Y42848D01*
X291973Y42892D01*
X292004Y42974D01*
X292044Y43052D01*
X292052Y43099D01*
X292074Y43158D01*
X292086Y43306D01*
X292099Y43383D01*
X292099Y103937D01*
X292087Y104024D01*
X292084Y104111D01*
X292067Y104164D01*
X292059Y104219D01*
X292024Y104298D01*
X291997Y104382D01*
X291969Y104421D01*
X291943Y104478D01*
X291847Y104591D01*
X291802Y104655D01*
X281185Y115272D01*
X281115Y115324D01*
X281051Y115384D01*
X281002Y115410D01*
X280958Y115443D01*
X280876Y115474D01*
X280798Y115514D01*
X280751Y115522D01*
X280692Y115544D01*
X280544Y115556D01*
X280467Y115569D01*
X274610Y115569D01*
X274608Y115569D01*
X274607Y115569D01*
X274466Y115549D01*
X274328Y115529D01*
X274327Y115529D01*
X274325Y115529D01*
X274196Y115470D01*
X274069Y115413D01*
X274068Y115412D01*
X274066Y115411D01*
X273960Y115321D01*
X273852Y115230D01*
X273851Y115228D01*
X273850Y115227D01*
X273842Y115215D01*
X273827Y115192D01*
X272246Y113611D01*
X270296Y112803D01*
X268184Y112803D01*
X266234Y113611D01*
X264741Y115104D01*
X263933Y117054D01*
X263933Y119166D01*
X264741Y121116D01*
X266234Y122609D01*
X268184Y123417D01*
X270296Y123417D01*
X272246Y122609D01*
X273808Y121047D01*
X273816Y121033D01*
X273818Y121032D01*
X273818Y121030D01*
X273923Y120932D01*
X274023Y120837D01*
X274025Y120837D01*
X274026Y120836D01*
X274153Y120771D01*
X274276Y120707D01*
X274277Y120707D01*
X274279Y120706D01*
X274294Y120704D01*
X274555Y120652D01*
X274585Y120655D01*
X274610Y120651D01*
X282992Y120651D01*
X297181Y106462D01*
X297181Y40858D01*
X282992Y26669D01*
X77688Y26669D01*
G37*
%LPD*%
%LPC*%
G36*
X180203Y93345D02*
X180203Y93345D01*
X178158Y94192D01*
X176592Y95758D01*
X175745Y97803D01*
X175745Y100017D01*
X176592Y102062D01*
X178158Y103628D01*
X180197Y104472D01*
X180222Y104487D01*
X180250Y104496D01*
X180344Y104559D01*
X180441Y104617D01*
X180462Y104638D01*
X180486Y104654D01*
X180559Y104741D01*
X180637Y104823D01*
X180650Y104849D01*
X180669Y104872D01*
X180715Y104975D01*
X180767Y105076D01*
X180772Y105105D01*
X180784Y105132D01*
X180800Y105244D01*
X180822Y105355D01*
X180819Y105384D01*
X180823Y105413D01*
X180807Y105525D01*
X180797Y105638D01*
X180787Y105665D01*
X180783Y105695D01*
X180736Y105798D01*
X180695Y105903D01*
X180678Y105927D01*
X180666Y105954D01*
X180592Y106040D01*
X180524Y106130D01*
X180500Y106148D01*
X180481Y106170D01*
X180415Y106212D01*
X180296Y106300D01*
X180237Y106322D01*
X180197Y106348D01*
X178158Y107192D01*
X176592Y108758D01*
X175745Y110803D01*
X175745Y113017D01*
X176592Y115062D01*
X178158Y116628D01*
X180203Y117475D01*
X182417Y117475D01*
X184462Y116628D01*
X186028Y115062D01*
X186872Y113023D01*
X186887Y112998D01*
X186896Y112970D01*
X186959Y112876D01*
X187017Y112779D01*
X187038Y112758D01*
X187054Y112734D01*
X187141Y112661D01*
X187223Y112583D01*
X187249Y112570D01*
X187272Y112551D01*
X187375Y112505D01*
X187476Y112453D01*
X187505Y112448D01*
X187532Y112436D01*
X187644Y112420D01*
X187755Y112398D01*
X187784Y112401D01*
X187813Y112397D01*
X187925Y112413D01*
X188038Y112423D01*
X188065Y112433D01*
X188095Y112437D01*
X188198Y112484D01*
X188303Y112525D01*
X188327Y112542D01*
X188354Y112554D01*
X188440Y112628D01*
X188530Y112696D01*
X188548Y112720D01*
X188570Y112739D01*
X188612Y112805D01*
X188700Y112924D01*
X188722Y112983D01*
X188748Y113023D01*
X189592Y115062D01*
X191158Y116628D01*
X193203Y117475D01*
X195417Y117475D01*
X197462Y116628D01*
X199028Y115062D01*
X199872Y113023D01*
X199887Y112998D01*
X199896Y112970D01*
X199959Y112876D01*
X200017Y112779D01*
X200038Y112758D01*
X200054Y112734D01*
X200141Y112661D01*
X200223Y112583D01*
X200249Y112570D01*
X200272Y112551D01*
X200375Y112505D01*
X200476Y112453D01*
X200505Y112448D01*
X200532Y112436D01*
X200644Y112420D01*
X200755Y112398D01*
X200784Y112401D01*
X200813Y112397D01*
X200925Y112413D01*
X201038Y112423D01*
X201065Y112433D01*
X201094Y112437D01*
X201198Y112484D01*
X201303Y112525D01*
X201327Y112542D01*
X201354Y112554D01*
X201440Y112628D01*
X201530Y112696D01*
X201548Y112720D01*
X201570Y112739D01*
X201612Y112805D01*
X201700Y112924D01*
X201722Y112983D01*
X201748Y113023D01*
X202592Y115062D01*
X204158Y116628D01*
X206203Y117475D01*
X208417Y117475D01*
X210462Y116628D01*
X212028Y115062D01*
X212875Y113017D01*
X212875Y110803D01*
X212028Y108758D01*
X210462Y107192D01*
X208423Y106348D01*
X208398Y106333D01*
X208370Y106324D01*
X208276Y106261D01*
X208179Y106203D01*
X208158Y106182D01*
X208134Y106166D01*
X208061Y106079D01*
X207983Y105997D01*
X207970Y105971D01*
X207951Y105948D01*
X207905Y105845D01*
X207853Y105744D01*
X207848Y105715D01*
X207836Y105688D01*
X207820Y105576D01*
X207798Y105465D01*
X207801Y105436D01*
X207797Y105407D01*
X207813Y105295D01*
X207823Y105182D01*
X207833Y105155D01*
X207837Y105125D01*
X207884Y105022D01*
X207925Y104917D01*
X207942Y104893D01*
X207954Y104866D01*
X208028Y104780D01*
X208096Y104690D01*
X208120Y104672D01*
X208139Y104650D01*
X208205Y104608D01*
X208324Y104520D01*
X208383Y104498D01*
X208423Y104472D01*
X210462Y103628D01*
X212028Y102062D01*
X212875Y100017D01*
X212875Y97803D01*
X212028Y95758D01*
X210462Y94192D01*
X208417Y93345D01*
X206203Y93345D01*
X204158Y94192D01*
X202592Y95758D01*
X201748Y97797D01*
X201733Y97822D01*
X201724Y97850D01*
X201661Y97944D01*
X201603Y98041D01*
X201582Y98062D01*
X201566Y98086D01*
X201479Y98159D01*
X201397Y98237D01*
X201371Y98250D01*
X201348Y98269D01*
X201245Y98315D01*
X201144Y98367D01*
X201115Y98372D01*
X201088Y98384D01*
X200976Y98400D01*
X200865Y98422D01*
X200836Y98419D01*
X200807Y98423D01*
X200695Y98407D01*
X200582Y98397D01*
X200555Y98387D01*
X200525Y98383D01*
X200422Y98336D01*
X200317Y98295D01*
X200293Y98278D01*
X200266Y98266D01*
X200180Y98192D01*
X200090Y98124D01*
X200072Y98100D01*
X200050Y98081D01*
X200008Y98015D01*
X199920Y97896D01*
X199898Y97837D01*
X199872Y97797D01*
X199028Y95758D01*
X197462Y94192D01*
X195417Y93345D01*
X193203Y93345D01*
X191158Y94192D01*
X189592Y95758D01*
X188748Y97797D01*
X188733Y97822D01*
X188724Y97850D01*
X188661Y97944D01*
X188603Y98041D01*
X188582Y98062D01*
X188566Y98086D01*
X188479Y98159D01*
X188397Y98237D01*
X188371Y98250D01*
X188348Y98269D01*
X188245Y98315D01*
X188144Y98367D01*
X188115Y98372D01*
X188088Y98384D01*
X187976Y98400D01*
X187865Y98422D01*
X187836Y98419D01*
X187807Y98423D01*
X187695Y98407D01*
X187582Y98397D01*
X187555Y98387D01*
X187526Y98383D01*
X187422Y98336D01*
X187317Y98295D01*
X187293Y98278D01*
X187266Y98266D01*
X187180Y98192D01*
X187090Y98124D01*
X187072Y98100D01*
X187050Y98081D01*
X187008Y98015D01*
X186920Y97896D01*
X186898Y97837D01*
X186872Y97797D01*
X186028Y95758D01*
X184462Y94192D01*
X182417Y93345D01*
X180203Y93345D01*
G37*
%LPD*%
%LPC*%
G36*
X438267Y393327D02*
X438267Y393327D01*
X438267Y419064D01*
X438605Y418997D01*
X441878Y418004D01*
X445036Y416696D01*
X448052Y415084D01*
X450895Y413184D01*
X453537Y411015D01*
X455955Y408597D01*
X458124Y405955D01*
X460024Y403112D01*
X461636Y400096D01*
X462944Y396938D01*
X463937Y393665D01*
X464004Y393327D01*
X438267Y393327D01*
G37*
%LPD*%
%LPC*%
G36*
X438267Y303157D02*
X438267Y303157D01*
X438267Y328894D01*
X438605Y328827D01*
X441878Y327834D01*
X445036Y326526D01*
X448052Y324914D01*
X450895Y323014D01*
X453537Y320845D01*
X455955Y318427D01*
X458124Y315785D01*
X460024Y312942D01*
X461636Y309926D01*
X462944Y306768D01*
X463937Y303495D01*
X464004Y303157D01*
X438267Y303157D01*
G37*
%LPD*%
%LPC*%
G36*
X438267Y377073D02*
X438267Y377073D01*
X464004Y377073D01*
X463937Y376735D01*
X462944Y373462D01*
X461636Y370304D01*
X460024Y367288D01*
X458124Y364445D01*
X455955Y361803D01*
X453537Y359385D01*
X450895Y357216D01*
X448052Y355316D01*
X445036Y353704D01*
X441878Y352396D01*
X438605Y351403D01*
X438267Y351336D01*
X438267Y377073D01*
G37*
%LPD*%
%LPC*%
G36*
X438267Y286903D02*
X438267Y286903D01*
X464004Y286903D01*
X463937Y286565D01*
X462944Y283292D01*
X461636Y280134D01*
X460024Y277118D01*
X458807Y275298D01*
X458807Y275297D01*
X458124Y274275D01*
X455955Y271633D01*
X453537Y269215D01*
X450895Y267046D01*
X448052Y265146D01*
X445036Y263534D01*
X441878Y262226D01*
X438605Y261233D01*
X438267Y261166D01*
X438267Y286903D01*
G37*
%LPD*%
D10*
X194310Y98910D03*
X194310Y111910D03*
X181310Y111910D03*
X181310Y98910D03*
X207310Y98910D03*
X207310Y111910D03*
D11*
X611540Y130810D03*
D12*
X536540Y130810D03*
D13*
X1166740Y29210D03*
X1149740Y29210D03*
D11*
X1069940Y308610D03*
D14*
X1144940Y308610D03*
D13*
X1048140Y410210D03*
X1065140Y410210D03*
D11*
X892140Y308610D03*
D14*
X967140Y308610D03*
D13*
X870340Y410210D03*
X887340Y410210D03*
D11*
X714340Y308610D03*
D14*
X789340Y308610D03*
D13*
X692540Y410210D03*
X709540Y410210D03*
D11*
X536540Y308610D03*
D14*
X611540Y308610D03*
D13*
X514740Y410210D03*
X531740Y410210D03*
X633340Y29210D03*
X616340Y29210D03*
D11*
X433740Y130810D03*
D12*
X358740Y130810D03*
D13*
X455540Y29210D03*
X438540Y29210D03*
D11*
X789340Y130810D03*
D12*
X714340Y130810D03*
D13*
X811140Y29210D03*
X794140Y29210D03*
D11*
X967140Y130810D03*
D12*
X892140Y130810D03*
D13*
X988940Y29210D03*
X971940Y29210D03*
D11*
X1144940Y130810D03*
D12*
X1069940Y130810D03*
D15*
X414210Y45410D02*
X414210Y38410D01*
X414210Y45410D02*
X421210Y45410D01*
X421210Y38410D01*
X414210Y38410D01*
X414210Y41260D02*
X421210Y41260D01*
X421210Y44110D02*
X414210Y44110D01*
X396670Y45410D02*
X396670Y38410D01*
X396670Y45410D02*
X403670Y45410D01*
X403670Y38410D01*
X396670Y38410D01*
X396670Y41260D02*
X403670Y41260D01*
X403670Y44110D02*
X396670Y44110D01*
X592010Y45410D02*
X592010Y38410D01*
X592010Y45410D02*
X599010Y45410D01*
X599010Y38410D01*
X592010Y38410D01*
X592010Y41260D02*
X599010Y41260D01*
X599010Y44110D02*
X592010Y44110D01*
X574470Y45410D02*
X574470Y38410D01*
X574470Y45410D02*
X581470Y45410D01*
X581470Y38410D01*
X574470Y38410D01*
X574470Y41260D02*
X581470Y41260D01*
X581470Y44110D02*
X574470Y44110D01*
X769810Y45410D02*
X769810Y38410D01*
X769810Y45410D02*
X776810Y45410D01*
X776810Y38410D01*
X769810Y38410D01*
X769810Y41260D02*
X776810Y41260D01*
X776810Y44110D02*
X769810Y44110D01*
X752270Y45410D02*
X752270Y38410D01*
X752270Y45410D02*
X759270Y45410D01*
X759270Y38410D01*
X752270Y38410D01*
X752270Y41260D02*
X759270Y41260D01*
X759270Y44110D02*
X752270Y44110D01*
X947610Y45410D02*
X947610Y38410D01*
X947610Y45410D02*
X954610Y45410D01*
X954610Y38410D01*
X947610Y38410D01*
X947610Y41260D02*
X954610Y41260D01*
X954610Y44110D02*
X947610Y44110D01*
X930070Y45410D02*
X930070Y38410D01*
X930070Y45410D02*
X937070Y45410D01*
X937070Y38410D01*
X930070Y38410D01*
X930070Y41260D02*
X937070Y41260D01*
X937070Y44110D02*
X930070Y44110D01*
X1125410Y45410D02*
X1125410Y38410D01*
X1125410Y45410D02*
X1132410Y45410D01*
X1132410Y38410D01*
X1125410Y38410D01*
X1125410Y41260D02*
X1132410Y41260D01*
X1132410Y44110D02*
X1125410Y44110D01*
X1107870Y45410D02*
X1107870Y38410D01*
X1107870Y45410D02*
X1114870Y45410D01*
X1114870Y38410D01*
X1107870Y38410D01*
X1107870Y41260D02*
X1114870Y41260D01*
X1114870Y44110D02*
X1107870Y44110D01*
X1089470Y394010D02*
X1089470Y401010D01*
X1089470Y394010D02*
X1082470Y394010D01*
X1082470Y401010D01*
X1089470Y401010D01*
X1089470Y396860D02*
X1082470Y396860D01*
X1082470Y399710D02*
X1089470Y399710D01*
X1107010Y401010D02*
X1107010Y394010D01*
X1100010Y394010D01*
X1100010Y401010D01*
X1107010Y401010D01*
X1107010Y396860D02*
X1100010Y396860D01*
X1100010Y399710D02*
X1107010Y399710D01*
X911670Y401010D02*
X911670Y394010D01*
X904670Y394010D01*
X904670Y401010D01*
X911670Y401010D01*
X911670Y396860D02*
X904670Y396860D01*
X904670Y399710D02*
X911670Y399710D01*
X929210Y401010D02*
X929210Y394010D01*
X922210Y394010D01*
X922210Y401010D01*
X929210Y401010D01*
X929210Y396860D02*
X922210Y396860D01*
X922210Y399710D02*
X929210Y399710D01*
X733870Y401010D02*
X733870Y394010D01*
X726870Y394010D01*
X726870Y401010D01*
X733870Y401010D01*
X733870Y396860D02*
X726870Y396860D01*
X726870Y399710D02*
X733870Y399710D01*
X751410Y401010D02*
X751410Y394010D01*
X744410Y394010D01*
X744410Y401010D01*
X751410Y401010D01*
X751410Y396860D02*
X744410Y396860D01*
X744410Y399710D02*
X751410Y399710D01*
X556070Y401010D02*
X556070Y394010D01*
X549070Y394010D01*
X549070Y401010D01*
X556070Y401010D01*
X556070Y396860D02*
X549070Y396860D01*
X549070Y399710D02*
X556070Y399710D01*
X573610Y401010D02*
X573610Y394010D01*
X566610Y394010D01*
X566610Y401010D01*
X573610Y401010D01*
X573610Y396860D02*
X566610Y396860D01*
X566610Y399710D02*
X573610Y399710D01*
D16*
X378460Y49140D03*
X378460Y32140D03*
D17*
X364490Y181610D03*
X427990Y181610D03*
X542290Y181610D03*
X605790Y181610D03*
D16*
X553720Y54220D03*
X553720Y37220D03*
X774700Y68970D03*
X774700Y85970D03*
D13*
X811140Y80010D03*
X794140Y80010D03*
D16*
X753110Y85970D03*
X753110Y68970D03*
X732790Y68970D03*
X732790Y85970D03*
D17*
X720090Y181610D03*
X783590Y181610D03*
D16*
X732790Y50410D03*
X732790Y33410D03*
X949960Y68970D03*
X949960Y85970D03*
X599440Y71510D03*
X599440Y88510D03*
D13*
X988940Y80010D03*
X971940Y80010D03*
D16*
X930910Y85970D03*
X930910Y68970D03*
X908050Y68970D03*
X908050Y85970D03*
D17*
X897890Y181610D03*
X961390Y181610D03*
D16*
X908050Y50410D03*
X908050Y33410D03*
X1129030Y67700D03*
X1129030Y84700D03*
D13*
X1166740Y80010D03*
X1149740Y80010D03*
D16*
X1107440Y84700D03*
X1107440Y67700D03*
X1085850Y67700D03*
X1085850Y84700D03*
D17*
X1075690Y181610D03*
X1139190Y181610D03*
D13*
X633340Y80010D03*
X616340Y80010D03*
D16*
X1088390Y50410D03*
X1088390Y33410D03*
X1085850Y367910D03*
X1085850Y350910D03*
D13*
X1048140Y359410D03*
X1065140Y359410D03*
D16*
X1107440Y350910D03*
X1107440Y367910D03*
X1129030Y367910D03*
X1129030Y350910D03*
D17*
X1139190Y257810D03*
X1075690Y257810D03*
D16*
X1126490Y389010D03*
X1126490Y406010D03*
X904240Y367910D03*
X904240Y350910D03*
D13*
X870340Y359410D03*
X887340Y359410D03*
D16*
X927100Y350910D03*
X927100Y367910D03*
X577850Y88510D03*
X577850Y71510D03*
X949960Y367910D03*
X949960Y350910D03*
D17*
X961390Y257810D03*
X897890Y257810D03*
D16*
X948690Y389010D03*
X948690Y406010D03*
X732790Y366640D03*
X732790Y349640D03*
D13*
X692540Y359410D03*
X709540Y359410D03*
D16*
X750570Y349640D03*
X750570Y366640D03*
X770890Y366640D03*
X770890Y349640D03*
D17*
X783590Y257810D03*
X720090Y257810D03*
D16*
X777240Y389010D03*
X777240Y406010D03*
X551180Y372990D03*
X551180Y355990D03*
X553720Y71510D03*
X553720Y88510D03*
D13*
X514740Y359410D03*
X531740Y359410D03*
D16*
X574040Y355990D03*
X574040Y372990D03*
X594360Y372990D03*
X594360Y355990D03*
D17*
X605790Y257810D03*
X542290Y257810D03*
D16*
X594360Y389010D03*
X594360Y406010D03*
X415290Y71510D03*
X415290Y88510D03*
D13*
X455540Y80010D03*
X438540Y80010D03*
D16*
X396240Y88510D03*
X396240Y71510D03*
X373380Y71510D03*
X373380Y88510D03*
D18*
X615340Y42610D03*
X624840Y42610D03*
X634340Y42610D03*
X634340Y66610D03*
X615340Y66610D03*
X970940Y42610D03*
X980440Y42610D03*
X989940Y42610D03*
X989940Y66610D03*
X970940Y66610D03*
D19*
X878840Y29910D03*
X869340Y53910D03*
X888340Y53910D03*
X878840Y92010D03*
X888340Y68010D03*
X869340Y68010D03*
D18*
X1148740Y42610D03*
X1158240Y42610D03*
X1167740Y42610D03*
X1167740Y66610D03*
X1148740Y66610D03*
D19*
X1056640Y29910D03*
X1047140Y53910D03*
X1066140Y53910D03*
X1056640Y92010D03*
X1066140Y68010D03*
X1047140Y68010D03*
D18*
X1066140Y396810D03*
X1056640Y396810D03*
X1047140Y396810D03*
X1047140Y372810D03*
X1066140Y372810D03*
D19*
X1158240Y409510D03*
X1167740Y385510D03*
X1148740Y385510D03*
X1158240Y347410D03*
X1148740Y371410D03*
X1167740Y371410D03*
D18*
X888340Y396810D03*
X878840Y396810D03*
X869340Y396810D03*
X869340Y372810D03*
X888340Y372810D03*
D19*
X523240Y29910D03*
X513740Y53910D03*
X532740Y53910D03*
X980440Y409510D03*
X989940Y385510D03*
X970940Y385510D03*
X980440Y347410D03*
X970940Y371410D03*
X989940Y371410D03*
D18*
X710540Y396810D03*
X701040Y396810D03*
X691540Y396810D03*
X691540Y372810D03*
X710540Y372810D03*
D19*
X802640Y409510D03*
X812140Y385510D03*
X793140Y385510D03*
X802640Y347410D03*
X793140Y371410D03*
X812140Y371410D03*
D18*
X532740Y396810D03*
X523240Y396810D03*
X513740Y396810D03*
X513740Y372810D03*
X532740Y372810D03*
D19*
X624840Y409510D03*
X634340Y385510D03*
X615340Y385510D03*
X624840Y347410D03*
X615340Y371410D03*
X634340Y371410D03*
X523240Y92010D03*
X532740Y68010D03*
X513740Y68010D03*
D20*
X840740Y219710D03*
X1018540Y219710D03*
X485140Y219710D03*
X662940Y219710D03*
D21*
X78740Y312110D03*
X93740Y312110D03*
X108740Y312110D03*
X48740Y312110D03*
X63740Y312110D03*
X63740Y432110D03*
X78740Y432110D03*
X93740Y432110D03*
X108740Y432110D03*
X48740Y432110D03*
X256540Y312110D03*
X271540Y312110D03*
X286540Y312110D03*
X226540Y312110D03*
X241540Y312110D03*
X241540Y432110D03*
X256540Y432110D03*
X271540Y432110D03*
X286540Y432110D03*
X226540Y432110D03*
X167640Y312110D03*
X182640Y312110D03*
X197640Y312110D03*
X137640Y312110D03*
X152640Y312110D03*
X152640Y432110D03*
X167640Y432110D03*
X182640Y432110D03*
X197640Y432110D03*
X137640Y432110D03*
D18*
X437540Y42610D03*
X447040Y42610D03*
X456540Y42610D03*
X456540Y66610D03*
X437540Y66610D03*
D19*
X345440Y29910D03*
X335940Y53910D03*
X354940Y53910D03*
X345440Y92010D03*
X354940Y68010D03*
X335940Y68010D03*
D18*
X793140Y42610D03*
X802640Y42610D03*
X812140Y42610D03*
X812140Y66610D03*
X793140Y66610D03*
D19*
X701040Y29910D03*
X691540Y53910D03*
X710540Y53910D03*
X701040Y92010D03*
X710540Y68010D03*
X691540Y68010D03*
D22*
X430140Y385200D03*
X358140Y385200D03*
X430140Y295030D03*
X358140Y295030D03*
D23*
X330178Y62958D02*
X328392Y61173D01*
X330178Y62958D02*
X330888Y62958D01*
X335940Y68010D01*
X339678Y20862D02*
X339818Y20862D01*
X340360Y20320D01*
X339678Y20862D02*
X328392Y32148D01*
X352988Y22788D02*
X352988Y22648D01*
X350661Y20320D02*
X340360Y20320D01*
X350661Y20320D02*
X352988Y22648D01*
X362340Y32140D02*
X378460Y32140D01*
X328392Y32148D02*
X328392Y61173D01*
X362340Y32140D02*
X352988Y22788D01*
X437540Y30210D02*
X437540Y42610D01*
X437540Y30210D02*
X438540Y29210D01*
X381390Y29210D01*
X378460Y32140D01*
X358740Y71810D02*
X358740Y130810D01*
X358740Y71810D02*
X354940Y68010D01*
X349888Y62958D01*
X349178Y62958D01*
X340130Y53910D02*
X335940Y53910D01*
X340130Y53910D02*
X349178Y62958D01*
X335940Y53910D02*
X345440Y44410D01*
X345440Y29910D01*
X354940Y68010D02*
X354940Y71074D01*
X363876Y80010D01*
D24*
X363876Y80010D03*
X410476Y41910D03*
D23*
X417710Y41910D01*
X455540Y80010D02*
X456540Y79010D01*
X456540Y66610D01*
X440588Y50658D01*
X432778Y50658D01*
X424030Y41910D02*
X417710Y41910D01*
X424030Y41910D02*
X432778Y50658D01*
X432640Y71510D02*
X415290Y71510D01*
X432640Y71510D02*
X437540Y66610D01*
X437540Y79010D01*
X438540Y80010D01*
X447040Y42610D02*
X447040Y37710D01*
X455540Y29210D01*
X447040Y20710D01*
X447040Y16510D01*
D24*
X447040Y16510D03*
X383540Y100330D03*
D23*
X383540Y98670D01*
X373380Y88510D01*
X373380Y71510D02*
X396240Y71510D01*
X373380Y71510D02*
X355780Y53910D01*
X354940Y53910D01*
X345440Y80010D02*
X345440Y92010D01*
D24*
X345440Y80010D03*
X408940Y181610D03*
D23*
X364490Y181610D01*
X378460Y49140D02*
X392940Y49140D01*
X400170Y41910D01*
X506192Y61173D02*
X507978Y62958D01*
X508688Y62958D01*
X513740Y68010D01*
X553720Y37220D02*
X536820Y20320D01*
X506192Y27208D02*
X506192Y61173D01*
X506192Y27208D02*
X513080Y20320D01*
X536820Y20320D01*
X553720Y37220D02*
X561730Y29210D01*
X616340Y29210D01*
X615340Y30210D02*
X615340Y42610D01*
X615340Y30210D02*
X616340Y29210D01*
D25*
X536540Y130810D02*
X433740Y130810D01*
D23*
X427990Y136560D02*
X427990Y181610D01*
X427990Y136560D02*
X433740Y130810D01*
X527688Y62958D02*
X532740Y68010D01*
X527688Y62958D02*
X526978Y62958D01*
X517930Y53910D02*
X513740Y53910D01*
X517930Y53910D02*
X526978Y62958D01*
X513740Y53910D02*
X523240Y44410D01*
X523240Y29910D01*
X532740Y68010D02*
X532740Y127010D01*
X536540Y130810D01*
X415290Y88510D02*
X396240Y88510D01*
X415290Y88510D02*
X433740Y106960D01*
X433740Y130810D01*
X419490Y92710D02*
X415290Y88510D01*
X419490Y92710D02*
X459740Y92710D01*
X464088Y50158D02*
X456540Y42610D01*
X464088Y88362D02*
X459740Y92710D01*
X464088Y88362D02*
X464088Y50158D01*
X595510Y41910D02*
X608210Y54610D01*
X624840Y54610D01*
X634340Y64110D01*
X634340Y66610D01*
X634340Y79010D02*
X633340Y80010D01*
X634340Y79010D02*
X634340Y66610D01*
X595510Y41910D02*
X588276Y41910D01*
D24*
X588276Y41910D03*
X541020Y80010D03*
D23*
X532740Y71730D01*
X532740Y68010D01*
X599440Y71510D02*
X607840Y71510D01*
X616340Y80010D01*
X616340Y67610D01*
X615340Y66610D01*
X624840Y42610D02*
X627792Y39658D01*
X627792Y36348D01*
X633340Y30800D02*
X633340Y29210D01*
X633340Y30800D02*
X627792Y36348D01*
X633340Y29210D02*
X633340Y25010D01*
X624840Y16510D01*
D24*
X624840Y16510D03*
X561340Y105410D03*
D23*
X553720Y97790D01*
X553720Y88510D01*
X553720Y71510D02*
X577850Y71510D01*
X553720Y71510D02*
X536120Y53910D01*
X532740Y53910D01*
X542290Y181610D02*
X561340Y181610D01*
D24*
X561340Y181610D03*
X523240Y80010D03*
D23*
X523240Y92010D01*
X553720Y54220D02*
X565660Y54220D01*
X577970Y41910D01*
X683992Y61173D02*
X685778Y62958D01*
X686488Y62958D01*
X691540Y68010D01*
X695278Y20862D02*
X696688Y20862D01*
X697230Y20320D01*
X695278Y20862D02*
X683992Y32148D01*
X708588Y22788D02*
X708588Y22648D01*
X706261Y20320D02*
X697230Y20320D01*
X706261Y20320D02*
X708588Y22648D01*
X719210Y33410D02*
X732790Y33410D01*
X683992Y32148D02*
X683992Y61173D01*
X719210Y33410D02*
X708588Y22788D01*
X736990Y29210D02*
X794140Y29210D01*
X736990Y29210D02*
X732790Y33410D01*
X793140Y30210D02*
X794140Y29210D01*
X793140Y30210D02*
X793140Y42610D01*
D25*
X714340Y130810D02*
X611540Y130810D01*
D23*
X605790Y136560D02*
X605790Y181610D01*
X605790Y136560D02*
X611540Y130810D01*
X710540Y127010D02*
X710540Y68010D01*
X710540Y127010D02*
X714340Y130810D01*
X710540Y68010D02*
X705488Y62958D01*
X704778Y62958D01*
X695730Y53910D02*
X691540Y53910D01*
X695730Y53910D02*
X704778Y62958D01*
X691540Y53910D02*
X701040Y44410D01*
X701040Y29910D01*
X599440Y88510D02*
X577850Y88510D01*
X599440Y88510D02*
X611540Y100610D01*
X611540Y130810D01*
X640103Y88058D02*
X641888Y86273D01*
X599892Y88058D02*
X599440Y88510D01*
X599892Y88058D02*
X640103Y88058D01*
X634340Y53800D02*
X634340Y42610D01*
X641888Y61348D02*
X641888Y86273D01*
X641888Y61348D02*
X634340Y53800D01*
X796188Y50658D02*
X812140Y66610D01*
X796188Y50658D02*
X788378Y50658D01*
X779630Y41910D02*
X773310Y41910D01*
X779630Y41910D02*
X788378Y50658D01*
X812140Y79010D02*
X811140Y80010D01*
X812140Y79010D02*
X812140Y66610D01*
X721270Y78740D02*
X710540Y68010D01*
X721270Y78740D02*
X721360Y78740D01*
D24*
X721360Y78740D03*
X766076Y41910D03*
D23*
X773310Y41910D01*
X793140Y79010D02*
X794140Y80010D01*
X793140Y79010D02*
X793140Y66610D01*
X790780Y68970D01*
X774700Y68970D01*
X802640Y42610D02*
X805592Y39658D01*
X805592Y36348D01*
X811140Y30800D02*
X811140Y29210D01*
X811140Y30800D02*
X805592Y36348D01*
X811140Y29210D02*
X811140Y25010D01*
X802640Y16510D01*
D24*
X802640Y16510D03*
X740410Y99060D03*
D23*
X740410Y93590D01*
X732790Y85970D01*
X732790Y68970D02*
X753110Y68970D01*
X732790Y68970D02*
X717730Y53910D01*
X710540Y53910D01*
X732790Y50410D02*
X747270Y50410D01*
X755770Y41910D01*
X970940Y42610D02*
X970940Y30210D01*
X971940Y29210D01*
X863578Y62958D02*
X861792Y61173D01*
X873078Y20862D02*
X884603Y20862D01*
X864288Y62958D02*
X869340Y68010D01*
X864288Y62958D02*
X863578Y62958D01*
X861792Y61173D02*
X861792Y32148D01*
X873078Y20862D01*
X884603Y20862D02*
X897151Y33410D01*
X908050Y33410D01*
X912250Y29210D01*
X971940Y29210D01*
D25*
X892140Y130810D02*
X789340Y130810D01*
D23*
X783590Y136560D02*
X783590Y181610D01*
X783590Y136560D02*
X789340Y130810D01*
X883288Y62958D02*
X888340Y68010D01*
X883288Y62958D02*
X882578Y62958D01*
X873530Y53910D02*
X869340Y53910D01*
X873530Y53910D02*
X882578Y62958D01*
X869340Y53910D02*
X878840Y44410D01*
X878840Y29910D01*
X888340Y68010D02*
X888340Y127010D01*
X892140Y130810D01*
X774700Y85970D02*
X753110Y85970D01*
X774700Y85970D02*
X789340Y100610D01*
X789340Y130810D01*
X781440Y92710D02*
X774700Y85970D01*
X815340Y90621D02*
X819688Y86273D01*
X819688Y50158D01*
X812140Y42610D01*
X815340Y90621D02*
X779351Y90621D01*
X774700Y85970D01*
X966178Y50658D02*
X973988Y50658D01*
X989940Y66610D01*
X957430Y41910D02*
X951110Y41910D01*
X957430Y41910D02*
X966178Y50658D01*
X989940Y66610D02*
X989940Y79010D01*
X988940Y80010D01*
X897800Y77470D02*
X888340Y68010D01*
X897800Y77470D02*
X898546Y77470D01*
D24*
X898546Y77470D03*
X943876Y41910D03*
D23*
X951110Y41910D01*
X970940Y79010D02*
X971940Y80010D01*
X970940Y79010D02*
X970940Y66610D01*
X968580Y68970D01*
X949960Y68970D01*
X980440Y42610D02*
X983392Y39658D01*
X983392Y36348D01*
X988940Y30800D02*
X988940Y29210D01*
X988940Y30800D02*
X983392Y36348D01*
X988940Y29210D02*
X988940Y25010D01*
X980440Y16510D01*
D24*
X980440Y16510D03*
X916940Y99060D03*
D23*
X908050Y90170D01*
X908050Y85970D01*
X908050Y68970D02*
X930910Y68970D01*
X908050Y68970D02*
X892990Y53910D01*
X888340Y53910D01*
X878840Y80010D02*
X878840Y92010D01*
D24*
X878840Y80010D03*
X916940Y181610D03*
D23*
X897890Y181610D01*
X908050Y50410D02*
X925070Y50410D01*
X933570Y41910D01*
X1050878Y20862D02*
X1062403Y20862D01*
X1039592Y61173D02*
X1041378Y62958D01*
X1042088Y62958D01*
X1047140Y68010D01*
X1074951Y33410D02*
X1088390Y33410D01*
X1074951Y33410D02*
X1062403Y20862D01*
X1050878Y20862D02*
X1039592Y32148D01*
X1039592Y61173D01*
X1148740Y42610D02*
X1148740Y30210D01*
X1149740Y29210D01*
X1092590Y29210D02*
X1088390Y33410D01*
X1092590Y29210D02*
X1149740Y29210D01*
D25*
X1069940Y130810D02*
X967140Y130810D01*
D23*
X961390Y136560D02*
X961390Y181610D01*
X961390Y136560D02*
X967140Y130810D01*
X1061088Y62958D02*
X1066140Y68010D01*
X1061088Y62958D02*
X1060378Y62958D01*
X1051330Y53910D02*
X1047140Y53910D01*
X1051330Y53910D02*
X1060378Y62958D01*
X1047140Y53910D02*
X1056640Y44410D01*
X1056640Y29910D01*
X949960Y85970D02*
X930910Y85970D01*
X949960Y85970D02*
X967140Y103150D01*
X967140Y130810D01*
X995703Y88058D02*
X997488Y86273D01*
X995703Y88058D02*
X965178Y88058D01*
X963090Y85970D02*
X949960Y85970D01*
X963090Y85970D02*
X965178Y88058D01*
X989940Y53800D02*
X989940Y42610D01*
X997488Y61348D02*
X997488Y86273D01*
X997488Y61348D02*
X989940Y53800D01*
X1166740Y80010D02*
X1167740Y79010D01*
X1167740Y66610D01*
X1151788Y50658D01*
X1143978Y50658D01*
X1135230Y41910D02*
X1128910Y41910D01*
X1135230Y41910D02*
X1143978Y50658D01*
X1074330Y76200D02*
X1066140Y68010D01*
X1074330Y76200D02*
X1074420Y76200D01*
D24*
X1074420Y76200D03*
X1121676Y41910D03*
D23*
X1128910Y41910D01*
X1069940Y71810D02*
X1069940Y130810D01*
X1069940Y71810D02*
X1066140Y68010D01*
X1129030Y67700D02*
X1147650Y67700D01*
X1148740Y66610D01*
X1148740Y79010D01*
X1149740Y80010D01*
X1158240Y42610D02*
X1158240Y37710D01*
X1166740Y29210D01*
X1166740Y25010D01*
X1158240Y16510D01*
D24*
X1158240Y16510D03*
X1094740Y92710D03*
D23*
X1086730Y84700D01*
X1085850Y84700D01*
X1071192Y58962D02*
X1066140Y53910D01*
X1071192Y58962D02*
X1071903Y58962D01*
X1080641Y67700D02*
X1085850Y67700D01*
X1080641Y67700D02*
X1071903Y58962D01*
X1085850Y67700D02*
X1107440Y67700D01*
X1056640Y80010D02*
X1056640Y92010D01*
D24*
X1056640Y80010D03*
X1094740Y181610D03*
D23*
X1075690Y181610D01*
X1088390Y50410D02*
X1102870Y50410D01*
X1111370Y41910D01*
X1066140Y409210D02*
X1065140Y410210D01*
X1066140Y409210D02*
X1066140Y396810D01*
X1152478Y418558D02*
X1164003Y418558D01*
X1175288Y378248D02*
X1173503Y376462D01*
X1172792Y376462D01*
X1167740Y371410D01*
X1175288Y407273D02*
X1164003Y418558D01*
X1175288Y407273D02*
X1175288Y378248D01*
X1139930Y406010D02*
X1126490Y406010D01*
X1139930Y406010D02*
X1152478Y418558D01*
X1126490Y406010D02*
X1069340Y406010D01*
X1066140Y409210D01*
D25*
X1144940Y130810D02*
X1170940Y130810D01*
X1171554Y130817D01*
X1172167Y130840D01*
X1172780Y130877D01*
X1173391Y130929D01*
X1174002Y130995D01*
X1174610Y131077D01*
X1175216Y131173D01*
X1175820Y131283D01*
X1176421Y131408D01*
X1177019Y131548D01*
X1177613Y131702D01*
X1178203Y131871D01*
X1178789Y132053D01*
X1179370Y132250D01*
X1179947Y132461D01*
X1180518Y132685D01*
X1181084Y132923D01*
X1181644Y133175D01*
X1182197Y133441D01*
X1182744Y133719D01*
X1183284Y134011D01*
X1183817Y134316D01*
X1184342Y134634D01*
X1184860Y134964D01*
X1185369Y135306D01*
X1185870Y135661D01*
X1186362Y136028D01*
X1186845Y136406D01*
X1187319Y136796D01*
X1187783Y137198D01*
X1188238Y137610D01*
X1188682Y138034D01*
X1189116Y138468D01*
X1189540Y138912D01*
X1189952Y139367D01*
X1190354Y139831D01*
X1190744Y140305D01*
X1191122Y140788D01*
X1191489Y141280D01*
X1191844Y141781D01*
X1192186Y142290D01*
X1192516Y142808D01*
X1192834Y143333D01*
X1193139Y143866D01*
X1193431Y144406D01*
X1193709Y144953D01*
X1193975Y145506D01*
X1194227Y146066D01*
X1194465Y146632D01*
X1194689Y147203D01*
X1194900Y147780D01*
X1195097Y148361D01*
X1195279Y148947D01*
X1195448Y149537D01*
X1195602Y150131D01*
X1195742Y150729D01*
X1195867Y151330D01*
X1195977Y151934D01*
X1196073Y152540D01*
X1196155Y153148D01*
X1196221Y153759D01*
X1196273Y154370D01*
X1196310Y154983D01*
X1196333Y155596D01*
X1196340Y156210D01*
X1196340Y283210D02*
X1196333Y283824D01*
X1196310Y284437D01*
X1196273Y285050D01*
X1196221Y285661D01*
X1196155Y286272D01*
X1196073Y286880D01*
X1195977Y287486D01*
X1195867Y288090D01*
X1195742Y288691D01*
X1195602Y289289D01*
X1195448Y289883D01*
X1195279Y290473D01*
X1195097Y291059D01*
X1194900Y291640D01*
X1194689Y292217D01*
X1194465Y292788D01*
X1194227Y293354D01*
X1193975Y293914D01*
X1193709Y294467D01*
X1193431Y295014D01*
X1193139Y295554D01*
X1192834Y296087D01*
X1192516Y296612D01*
X1192186Y297130D01*
X1191844Y297639D01*
X1191489Y298140D01*
X1191122Y298632D01*
X1190744Y299115D01*
X1190354Y299589D01*
X1189952Y300053D01*
X1189540Y300508D01*
X1189116Y300952D01*
X1188682Y301386D01*
X1188238Y301810D01*
X1187783Y302222D01*
X1187319Y302624D01*
X1186845Y303014D01*
X1186362Y303392D01*
X1185870Y303759D01*
X1185369Y304114D01*
X1184860Y304456D01*
X1184342Y304786D01*
X1183817Y305104D01*
X1183284Y305409D01*
X1182744Y305701D01*
X1182197Y305979D01*
X1181644Y306245D01*
X1181084Y306497D01*
X1180518Y306735D01*
X1179947Y306959D01*
X1179370Y307170D01*
X1178789Y307367D01*
X1178203Y307549D01*
X1177613Y307718D01*
X1177019Y307872D01*
X1176421Y308012D01*
X1175820Y308137D01*
X1175216Y308247D01*
X1174610Y308343D01*
X1174002Y308425D01*
X1173391Y308491D01*
X1172780Y308543D01*
X1172167Y308580D01*
X1171554Y308603D01*
X1170940Y308610D01*
X1144940Y308610D01*
X1196340Y283210D02*
X1196340Y156210D01*
D23*
X1139190Y136560D02*
X1139190Y181610D01*
X1139190Y136560D02*
X1144940Y130810D01*
X1148740Y371410D02*
X1153792Y376462D01*
X1154503Y376462D01*
X1163551Y385510D02*
X1167740Y385510D01*
X1163551Y385510D02*
X1154503Y376462D01*
X1167740Y385510D02*
X1167740Y388010D01*
X1158240Y397510D01*
X1158240Y409510D01*
X1148740Y371410D02*
X1148740Y312410D01*
X1144940Y308610D01*
X1129030Y84700D02*
X1107440Y84700D01*
X1129030Y84700D02*
X1144940Y100610D01*
X1144940Y130810D01*
X1173503Y88058D02*
X1175288Y86273D01*
X1173503Y88058D02*
X1142978Y88058D01*
X1167740Y53800D02*
X1167740Y42610D01*
X1175288Y61348D02*
X1175288Y86273D01*
X1175288Y61348D02*
X1167740Y53800D01*
X1139620Y84700D02*
X1129030Y84700D01*
X1139620Y84700D02*
X1142978Y88058D01*
X1070903Y388762D02*
X1063092Y388762D01*
X1047140Y372810D01*
X1079651Y397510D02*
X1085970Y397510D01*
X1079651Y397510D02*
X1070903Y388762D01*
X1140460Y363130D02*
X1148740Y371410D01*
X1140460Y363130D02*
X1140460Y359410D01*
D24*
X1140460Y359410D03*
X1093204Y397510D03*
D23*
X1085970Y397510D01*
X1080950Y372810D02*
X1085850Y367910D01*
X1080950Y372810D02*
X1066140Y372810D01*
X1066140Y360410D01*
X1065140Y359410D01*
X1056640Y401710D02*
X1048140Y410210D01*
X1056640Y401710D02*
X1056640Y396810D01*
X1048140Y410210D02*
X1048140Y414410D01*
X1056640Y422910D01*
D24*
X1056640Y422910D03*
X1120140Y346710D03*
D23*
X1124340Y350910D01*
X1129030Y350910D01*
X1129030Y367910D02*
X1107440Y367910D01*
X1129030Y367910D02*
X1146630Y385510D01*
X1148740Y385510D01*
X1158240Y359410D02*
X1158240Y347410D01*
D24*
X1158240Y359410D03*
X1120140Y257810D03*
D23*
X1139190Y257810D01*
X1126490Y389010D02*
X1112010Y389010D01*
X1103510Y397510D01*
X888340Y409210D02*
X887340Y410210D01*
X888340Y409210D02*
X888340Y396810D01*
X995703Y376462D02*
X997488Y378248D01*
X986203Y418558D02*
X974678Y418558D01*
X994992Y376462D02*
X989940Y371410D01*
X994992Y376462D02*
X995703Y376462D01*
X997488Y378248D02*
X997488Y407273D01*
X986203Y418558D01*
X962130Y406010D02*
X948690Y406010D01*
X962130Y406010D02*
X974678Y418558D01*
X944490Y410210D02*
X887340Y410210D01*
X944490Y410210D02*
X948690Y406010D01*
D25*
X967140Y308610D02*
X1069940Y308610D01*
D23*
X1075690Y302860D02*
X1075690Y257810D01*
X1075690Y302860D02*
X1069940Y308610D01*
X975992Y376462D02*
X970940Y371410D01*
X975992Y376462D02*
X976703Y376462D01*
X985751Y385510D02*
X989940Y385510D01*
X985751Y385510D02*
X976703Y376462D01*
X989940Y385510D02*
X989940Y388010D01*
X980440Y397510D01*
X980440Y410210D01*
X970940Y371410D02*
X970940Y312410D01*
X967140Y308610D01*
X1039592Y353148D02*
X1039592Y365673D01*
X1040592Y366673D01*
X1041830Y350910D02*
X1085850Y350910D01*
X1041830Y350910D02*
X1039592Y353148D01*
X1040592Y390262D02*
X1047140Y396810D01*
X1040592Y390262D02*
X1040592Y366673D01*
X1069940Y335000D02*
X1085850Y350910D01*
X1069940Y335000D02*
X1069940Y308610D01*
X1085850Y350910D02*
X1107440Y350910D01*
X870340Y359410D02*
X869340Y360410D01*
X869340Y372810D01*
X885292Y388762D01*
X893103Y388762D01*
X901851Y397510D02*
X908170Y397510D01*
X901851Y397510D02*
X893103Y388762D01*
X908170Y397510D02*
X915404Y397510D01*
D24*
X915404Y397510D03*
X962660Y359410D03*
D23*
X970940Y367690D01*
X970940Y371410D01*
X888340Y372810D02*
X888340Y360410D01*
X887340Y359410D01*
X893240Y367910D02*
X888340Y372810D01*
X893240Y367910D02*
X904240Y367910D01*
X878840Y396810D02*
X875888Y399762D01*
X875888Y403073D01*
X870340Y408621D02*
X870340Y410210D01*
X870340Y408621D02*
X875888Y403073D01*
X870340Y410210D02*
X878840Y418710D01*
X878840Y422910D01*
D24*
X878840Y422910D03*
X942340Y339090D03*
D23*
X942340Y343290D01*
X949960Y350910D01*
X949960Y367910D02*
X927100Y367910D01*
X965888Y380458D02*
X970940Y385510D01*
X965888Y380458D02*
X965178Y380458D01*
X952630Y367910D02*
X949960Y367910D01*
X952630Y367910D02*
X965178Y380458D01*
X961390Y257810D02*
X942340Y257810D01*
D24*
X942340Y257810D03*
X980440Y359410D03*
D23*
X980440Y347410D01*
X948690Y389010D02*
X934210Y389010D01*
X925710Y397510D01*
X710540Y409210D02*
X709540Y410210D01*
X710540Y409210D02*
X710540Y396810D01*
X709540Y410210D02*
X773040Y410210D01*
X777240Y406010D01*
X796878Y418558D02*
X808403Y418558D01*
X819688Y378248D02*
X817903Y376462D01*
X817192Y376462D01*
X812140Y371410D01*
X784330Y406010D02*
X777240Y406010D01*
X784330Y406010D02*
X796878Y418558D01*
X808403Y418558D02*
X819688Y407273D01*
X819688Y378248D01*
D25*
X789340Y308610D02*
X892140Y308610D01*
D23*
X897890Y302860D02*
X897890Y257810D01*
X897890Y302860D02*
X892140Y308610D01*
X812140Y385510D02*
X802640Y395010D01*
X802640Y409510D01*
X812140Y385510D02*
X807088Y380458D01*
X806378Y380458D01*
X797330Y371410D02*
X793140Y371410D01*
X797330Y371410D02*
X806378Y380458D01*
X793140Y371410D02*
X789340Y367610D01*
X789340Y308610D01*
X904240Y350910D02*
X927100Y350910D01*
X904240Y350910D02*
X892140Y338810D01*
X892140Y308610D01*
X861792Y389262D02*
X869340Y396810D01*
X861792Y353148D02*
X864030Y350910D01*
X904240Y350910D01*
X861792Y353148D02*
X861792Y389262D01*
X691540Y372810D02*
X691540Y360410D01*
X692540Y359410D01*
X691540Y372810D02*
X707492Y388762D01*
X715303Y388762D01*
X724051Y397510D02*
X730370Y397510D01*
X724051Y397510D02*
X715303Y388762D01*
X730370Y397510D02*
X737604Y397510D01*
D24*
X737604Y397510D03*
X782320Y358140D03*
D23*
X793140Y368960D01*
X793140Y371410D01*
X709540Y371810D02*
X709540Y359410D01*
X709540Y371810D02*
X710540Y372810D01*
X716710Y366640D01*
X732790Y366640D01*
X701040Y401710D02*
X692540Y410210D01*
X701040Y401710D02*
X701040Y396810D01*
X692540Y410210D02*
X701040Y418710D01*
X701040Y422910D01*
D24*
X701040Y422910D03*
X760730Y339090D03*
D23*
X770890Y349250D01*
X770890Y349640D01*
X770890Y366640D02*
X750570Y366640D01*
X788088Y380458D02*
X793140Y385510D01*
X788088Y380458D02*
X782298Y380458D01*
X770890Y369051D01*
X770890Y366640D01*
X802640Y359410D02*
X802640Y347410D01*
D24*
X802640Y359410D03*
X764540Y257810D03*
D23*
X783590Y257810D01*
X777240Y389010D02*
X756410Y389010D01*
X747910Y397510D01*
X542290Y302860D02*
X542290Y257810D01*
X542290Y302860D02*
X536540Y308610D01*
X551180Y355990D02*
X574040Y355990D01*
X507978Y351362D02*
X506192Y353148D01*
X507978Y351362D02*
X538503Y351362D01*
X513740Y385621D02*
X513740Y396810D01*
X513740Y385621D02*
X506192Y378073D01*
X506192Y353148D01*
X538503Y351362D02*
X543131Y355990D01*
X551180Y355990D01*
X536540Y341350D01*
X536540Y308610D01*
D24*
X168910Y180340D03*
D23*
X142240Y153670D01*
X142240Y67310D01*
X165100Y44450D01*
X191770Y44450D01*
D24*
X191770Y44450D03*
X273930Y241300D03*
D23*
X168910Y212480D02*
X168910Y180340D01*
X197730Y241300D02*
X273930Y241300D01*
X197730Y241300D02*
X168910Y212480D01*
D25*
X495300Y308610D02*
X536540Y308610D01*
X495300Y308610D02*
X443720Y308610D01*
X430140Y295030D01*
X430140Y385200D01*
X430140Y373770D01*
X495300Y308610D01*
D23*
X532740Y409210D02*
X531740Y410210D01*
X532740Y409210D02*
X532740Y396810D01*
X531740Y410210D02*
X590160Y410210D01*
X594360Y406010D01*
X619078Y418558D02*
X630603Y418558D01*
X641888Y378248D02*
X640103Y376462D01*
X639392Y376462D01*
X634340Y371410D01*
X606530Y406010D02*
X594360Y406010D01*
X606530Y406010D02*
X619078Y418558D01*
X630603Y418558D02*
X641888Y407273D01*
X641888Y378248D01*
D25*
X611540Y308610D02*
X714340Y308610D01*
D23*
X720090Y302860D02*
X720090Y257810D01*
X720090Y302860D02*
X714340Y308610D01*
X620392Y376462D02*
X615340Y371410D01*
X620392Y376462D02*
X621103Y376462D01*
X630151Y385510D02*
X634340Y385510D01*
X630151Y385510D02*
X621103Y376462D01*
X634340Y385510D02*
X624840Y395010D01*
X624840Y409510D01*
X615340Y371410D02*
X615340Y312410D01*
X611540Y308610D01*
X732790Y349640D02*
X750570Y349640D01*
X691540Y396810D02*
X683992Y389262D01*
X683992Y353148D02*
X687500Y349640D01*
X732790Y349640D01*
X683992Y353148D02*
X683992Y389262D01*
X514740Y359410D02*
X513740Y360410D01*
X513740Y372810D01*
X539870Y384810D02*
X552570Y397510D01*
X539870Y384810D02*
X523240Y384810D01*
X513740Y375310D01*
X513740Y372810D01*
X615340Y371410D02*
X615340Y365150D01*
X609600Y359410D01*
D24*
X609600Y359410D03*
X559804Y397510D03*
D23*
X552570Y397510D01*
X532740Y372810D02*
X532740Y360410D01*
X531740Y359410D01*
X551000Y372810D02*
X551180Y372990D01*
X551000Y372810D02*
X532740Y372810D01*
X523240Y401710D02*
X514740Y410210D01*
X523240Y401710D02*
X523240Y396810D01*
X514740Y410210D02*
X523240Y418710D01*
X523240Y422910D01*
D24*
X523240Y422910D03*
X586740Y346710D03*
D23*
X586740Y348370D01*
X594360Y355990D01*
X594360Y372990D02*
X574040Y372990D01*
X610288Y380458D02*
X615340Y385510D01*
X610288Y380458D02*
X609578Y380458D01*
X602110Y372990D02*
X594360Y372990D01*
X602110Y372990D02*
X609578Y380458D01*
X624840Y359410D02*
X624840Y347410D01*
D24*
X624840Y359410D03*
X586740Y257810D03*
D23*
X605790Y257810D01*
X578610Y389010D02*
X570110Y397510D01*
X578610Y389010D02*
X594360Y389010D01*
X701040Y92010D02*
X701040Y80010D01*
D24*
X701040Y80010D03*
X739140Y181610D03*
D23*
X720090Y181610D01*
D24*
X90480Y295910D03*
X116840Y232410D03*
D23*
X92738Y293652D02*
X90480Y295910D01*
X92738Y293652D02*
X92738Y253087D01*
X110367Y235458D01*
X113792Y235458D01*
X116840Y232410D01*
D26*
X78740Y432110D02*
X78740Y448310D01*
D24*
X78740Y448310D03*
X71910Y292100D03*
D27*
X78740Y298930D01*
X78740Y312110D01*
D26*
X167640Y432110D02*
X167640Y448310D01*
D24*
X167640Y448310D03*
X203200Y330200D03*
D27*
X175354Y323057D02*
X175354Y319824D01*
X167640Y312110D01*
X182497Y330200D02*
X203200Y330200D01*
X182497Y330200D02*
X175354Y323057D01*
D24*
X256540Y448310D03*
D27*
X256540Y432110D01*
X256540Y365760D02*
X256540Y312110D01*
X256540Y365760D02*
X241300Y381000D01*
D24*
X241300Y381000D03*
X216234Y318380D03*
D23*
X203910Y318380D01*
X197640Y312110D01*
D24*
X104140Y280190D03*
D23*
X107160Y283210D01*
X198064Y283210D02*
X216234Y301380D01*
D24*
X216234Y301380D03*
D23*
X198064Y283210D02*
X107160Y283210D01*
D24*
X269240Y118110D03*
D28*
X281940Y118110D01*
X294640Y105410D01*
X294640Y41910D01*
X281940Y29210D01*
X78740Y29210D01*
X66040Y41910D01*
D24*
X66040Y41910D03*
X79772Y390680D03*
D27*
X88900Y390680D01*
X152400Y390680D01*
X250980Y390680D01*
X252693Y392393D01*
D24*
X252693Y392393D03*
X166672Y381000D03*
D27*
X162080Y381000D01*
X152400Y390680D01*
D24*
X152400Y368300D03*
D27*
X152400Y371320D01*
X162080Y381000D01*
X79772Y390680D02*
X60480Y390680D01*
X50800Y381000D01*
D24*
X50800Y381000D03*
X104140Y257810D03*
X231140Y295910D03*
D23*
X218440Y283210D02*
X215399Y283210D01*
X218440Y283210D02*
X231140Y295910D01*
X215399Y283210D02*
X208569Y276380D01*
X122710Y276380D02*
X104140Y257810D01*
X122710Y276380D02*
X208569Y276380D01*
D26*
X93740Y427204D02*
X93740Y432110D01*
X93740Y427204D02*
X104140Y416804D01*
D24*
X104140Y416804D03*
X104140Y397510D03*
D26*
X180340Y397510D01*
D24*
X180340Y397510D03*
X189196Y416780D03*
D26*
X182640Y423336D01*
X182640Y432110D01*
X264334Y424904D02*
X271540Y432110D01*
X264334Y424904D02*
X264334Y420953D01*
X240891Y397510D01*
X180340Y397510D01*
D24*
X66040Y397510D03*
D23*
X104140Y397510D01*
D26*
X286540Y432110D02*
X286540Y447520D01*
X285750Y448310D01*
D24*
X285750Y448310D03*
D26*
X197640Y447520D02*
X197640Y432110D01*
X197640Y447520D02*
X196850Y448310D01*
D24*
X196850Y448310D03*
X123190Y431800D03*
D26*
X109050Y431800D01*
X108740Y432110D01*
D23*
X93740Y308610D02*
X93740Y306310D01*
X93740Y308610D02*
X93740Y312110D01*
X167640Y288140D02*
X172570Y288140D01*
X167640Y288140D02*
X111910Y288140D01*
X93740Y306310D01*
X187704Y295910D02*
X190372Y293242D01*
D24*
X193040Y290574D03*
X269240Y295910D03*
D23*
X193040Y290574D02*
X190372Y293242D01*
X269240Y295910D02*
X269240Y309810D01*
X271540Y312110D01*
D24*
X179950Y240030D03*
D23*
X112261Y240030D01*
X97310Y254981D01*
X97310Y305040D02*
X93740Y308610D01*
X97310Y305040D02*
X97310Y254981D01*
D26*
X182640Y300974D02*
X190372Y293242D01*
X182640Y300974D02*
X182640Y312110D01*
X190372Y293242D02*
X185270Y288140D01*
X167640Y288140D01*
D24*
X179950Y223520D03*
D23*
X100330Y223520D01*
X63740Y260110D02*
X63740Y312110D01*
X63740Y260110D02*
X100330Y223520D01*
X70692Y323373D02*
X72478Y325158D01*
X129592Y300848D02*
X131378Y299062D01*
X143903Y299062D01*
X145688Y300848D01*
X70692Y319062D02*
X63740Y312110D01*
X70692Y319062D02*
X70692Y323373D01*
X129592Y310569D02*
X129592Y300848D01*
X145688Y300848D02*
X145688Y305158D01*
X152640Y312110D01*
X115003Y325158D02*
X72478Y325158D01*
X115003Y325158D02*
X129592Y310569D01*
X241540Y312110D02*
X241540Y325586D01*
X233116Y334010D01*
D24*
X233116Y334010D03*
X218440Y334010D03*
D23*
X159592Y330993D02*
X159592Y319062D01*
X152640Y312110D01*
X210820Y341630D02*
X218440Y334010D01*
X210820Y341630D02*
X170230Y341630D01*
X159592Y330993D01*
D26*
X48740Y342110D02*
X48740Y312110D01*
X48740Y342110D02*
X53340Y346710D01*
X129540Y346710D01*
X218440Y346710D01*
X226540Y338610D01*
X226540Y312110D01*
X137640Y312110D02*
X137640Y338610D01*
X129540Y346710D01*
D24*
X56270Y208280D03*
D23*
X48740Y215810D01*
X48740Y312110D01*
D26*
X70946Y424904D02*
X63740Y432110D01*
X70946Y424904D02*
X70946Y420953D01*
X80849Y411049D01*
X82959Y408940D01*
X140970Y408940D01*
X152640Y420610D01*
X152640Y432110D01*
X140970Y408940D02*
X229870Y408940D01*
X243840Y422910D01*
X243840Y429810D01*
X241540Y432110D01*
D24*
X40640Y232410D03*
D23*
X56788Y420848D02*
X56788Y425158D01*
X63740Y432110D01*
X40640Y404700D02*
X40640Y232410D01*
X40640Y404700D02*
X56788Y420848D01*
X199924Y458726D02*
X226540Y432110D01*
X66040Y458726D02*
X48740Y441426D01*
X48740Y432110D01*
X104140Y458726D02*
X199924Y458726D01*
X104140Y458726D02*
X66040Y458726D01*
X137640Y435610D02*
X137640Y432110D01*
X137640Y435610D02*
X137640Y437926D01*
D24*
X142240Y448310D03*
D26*
X142240Y440210D01*
X137640Y435610D01*
X137640Y432110D02*
X111024Y458726D01*
X104140Y458726D01*
D24*
X198120Y194310D03*
D26*
X198120Y157870D01*
X201930Y154060D01*
D24*
X201930Y154060D03*
X231140Y105410D03*
X243840Y105410D03*
X256540Y105410D03*
X269240Y105410D03*
X281940Y105410D03*
X281940Y92710D03*
X269240Y92710D03*
X256540Y92710D03*
X243840Y92710D03*
X231140Y92710D03*
X231140Y80010D03*
X243840Y80010D03*
X256540Y80010D03*
X269240Y80010D03*
X281940Y80010D03*
X91440Y41910D03*
X104140Y41910D03*
X116840Y41910D03*
M02*
