G04 EAGLE Gerber RS-274X export*
G75*
%MOMM*%
%FSLAX34Y34*%
%LPD*%
%INSoldermask Bottom*%
%IPPOS*%
%AMOC8*
5,1,8,0,0,1.08239X$1,22.5*%
G01*
%ADD10R,4.900000X2.950000*%
%ADD11C,0.353406*%
%ADD12C,1.011200*%
%ADD13C,2.743200*%
%ADD14P,2.969212X8X202.500000*%
%ADD15P,2.969212X8X22.500000*%
%ADD16R,1.203200X1.303200*%
%ADD17R,1.303200X1.203200*%
%ADD18R,1.033200X0.833200*%
%ADD19R,1.673200X1.473200*%
%ADD20C,0.643919*%
%ADD21C,7.203200*%
%ADD22R,1.703200X0.803200*%
%ADD23R,2.603200X5.303200*%
%ADD24R,1.403200X1.403200*%
%ADD25R,1.803200X1.703200*%
%ADD26C,6.654800*%
%ADD27R,0.753200X0.503200*%
%ADD28R,0.403200X0.503200*%
%ADD29C,0.959600*%

G36*
X251482Y123663D02*
X251482Y123663D01*
X251484Y123661D01*
X251828Y123688D01*
X251832Y123692D01*
X251836Y123689D01*
X252172Y123770D01*
X252175Y123775D01*
X252179Y123773D01*
X252498Y123905D01*
X252501Y123910D01*
X252505Y123908D01*
X252799Y124088D01*
X252801Y124093D01*
X252805Y124093D01*
X253068Y124317D01*
X253069Y124322D01*
X253074Y124322D01*
X253298Y124585D01*
X253298Y124591D01*
X253302Y124591D01*
X253482Y124885D01*
X253481Y124891D01*
X253486Y124892D01*
X253618Y125211D01*
X253616Y125217D01*
X253620Y125218D01*
X253701Y125554D01*
X253697Y125562D01*
X253702Y125566D01*
X253729Y135710D01*
X253727Y135712D01*
X253729Y135714D01*
X253702Y136058D01*
X253698Y136062D01*
X253701Y136066D01*
X253620Y136402D01*
X253615Y136405D01*
X253618Y136409D01*
X253486Y136728D01*
X253480Y136731D01*
X253482Y136735D01*
X253302Y137029D01*
X253297Y137031D01*
X253298Y137035D01*
X253074Y137298D01*
X253068Y137299D01*
X253068Y137304D01*
X252805Y137528D01*
X252799Y137528D01*
X252799Y137532D01*
X252505Y137712D01*
X252499Y137711D01*
X252498Y137716D01*
X252179Y137848D01*
X252173Y137846D01*
X252172Y137850D01*
X251836Y137931D01*
X251830Y137929D01*
X251828Y137932D01*
X251484Y137959D01*
X251481Y137958D01*
X251480Y137959D01*
X247180Y137959D01*
X247178Y137957D01*
X247176Y137959D01*
X246832Y137932D01*
X246828Y137928D01*
X246824Y137931D01*
X246488Y137850D01*
X246485Y137845D01*
X246481Y137848D01*
X246162Y137716D01*
X246159Y137710D01*
X246155Y137712D01*
X245861Y137532D01*
X245859Y137527D01*
X245855Y137528D01*
X245592Y137304D01*
X245591Y137298D01*
X245587Y137298D01*
X245363Y137035D01*
X245362Y137029D01*
X245358Y137029D01*
X245178Y136735D01*
X245179Y136729D01*
X245175Y136728D01*
X245043Y136409D01*
X245044Y136403D01*
X245040Y136402D01*
X244959Y136066D01*
X244963Y136058D01*
X244958Y136054D01*
X244931Y125910D01*
X244933Y125908D01*
X244931Y125906D01*
X244958Y125562D01*
X244962Y125558D01*
X244959Y125554D01*
X245040Y125218D01*
X245045Y125215D01*
X245043Y125211D01*
X245175Y124892D01*
X245180Y124889D01*
X245178Y124885D01*
X245358Y124591D01*
X245363Y124589D01*
X245363Y124585D01*
X245587Y124322D01*
X245592Y124321D01*
X245592Y124317D01*
X245855Y124093D01*
X245861Y124092D01*
X245861Y124088D01*
X246155Y123908D01*
X246161Y123909D01*
X246162Y123905D01*
X246481Y123773D01*
X246487Y123774D01*
X246488Y123770D01*
X246824Y123689D01*
X246830Y123691D01*
X246832Y123688D01*
X247176Y123661D01*
X247179Y123663D01*
X247180Y123661D01*
X251480Y123661D01*
X251482Y123663D01*
G37*
G36*
X270982Y123663D02*
X270982Y123663D01*
X270984Y123661D01*
X271328Y123688D01*
X271332Y123692D01*
X271336Y123689D01*
X271672Y123770D01*
X271675Y123775D01*
X271679Y123773D01*
X271998Y123905D01*
X272001Y123910D01*
X272005Y123908D01*
X272299Y124088D01*
X272301Y124093D01*
X272305Y124093D01*
X272568Y124317D01*
X272569Y124322D01*
X272574Y124322D01*
X272798Y124585D01*
X272798Y124591D01*
X272802Y124591D01*
X272982Y124885D01*
X272981Y124891D01*
X272986Y124892D01*
X273118Y125211D01*
X273116Y125217D01*
X273120Y125218D01*
X273201Y125554D01*
X273197Y125562D01*
X273202Y125566D01*
X273229Y135710D01*
X273227Y135712D01*
X273229Y135714D01*
X273202Y136058D01*
X273198Y136062D01*
X273201Y136066D01*
X273120Y136402D01*
X273115Y136405D01*
X273118Y136409D01*
X272986Y136728D01*
X272980Y136731D01*
X272982Y136735D01*
X272802Y137029D01*
X272797Y137031D01*
X272798Y137035D01*
X272574Y137298D01*
X272568Y137299D01*
X272568Y137304D01*
X272305Y137528D01*
X272299Y137528D01*
X272299Y137532D01*
X272005Y137712D01*
X271999Y137711D01*
X271998Y137716D01*
X271679Y137848D01*
X271673Y137846D01*
X271672Y137850D01*
X271336Y137931D01*
X271330Y137929D01*
X271328Y137932D01*
X270984Y137959D01*
X270981Y137958D01*
X270980Y137959D01*
X266680Y137959D01*
X266678Y137957D01*
X266676Y137959D01*
X266332Y137932D01*
X266328Y137928D01*
X266324Y137931D01*
X265988Y137850D01*
X265985Y137845D01*
X265981Y137848D01*
X265662Y137716D01*
X265659Y137710D01*
X265655Y137712D01*
X265361Y137532D01*
X265359Y137527D01*
X265355Y137528D01*
X265092Y137304D01*
X265091Y137298D01*
X265087Y137298D01*
X264863Y137035D01*
X264862Y137029D01*
X264858Y137029D01*
X264678Y136735D01*
X264679Y136729D01*
X264675Y136728D01*
X264543Y136409D01*
X264544Y136403D01*
X264540Y136402D01*
X264459Y136066D01*
X264463Y136058D01*
X264458Y136054D01*
X264431Y125910D01*
X264433Y125908D01*
X264431Y125906D01*
X264458Y125562D01*
X264462Y125558D01*
X264459Y125554D01*
X264540Y125218D01*
X264545Y125215D01*
X264543Y125211D01*
X264675Y124892D01*
X264680Y124889D01*
X264678Y124885D01*
X264858Y124591D01*
X264863Y124589D01*
X264863Y124585D01*
X265087Y124322D01*
X265092Y124321D01*
X265092Y124317D01*
X265355Y124093D01*
X265361Y124092D01*
X265361Y124088D01*
X265655Y123908D01*
X265661Y123909D01*
X265662Y123905D01*
X265981Y123773D01*
X265987Y123774D01*
X265988Y123770D01*
X266324Y123689D01*
X266330Y123691D01*
X266332Y123688D01*
X266676Y123661D01*
X266679Y123663D01*
X266680Y123661D01*
X270980Y123661D01*
X270982Y123663D01*
G37*
D10*
X194310Y105410D03*
D11*
X173011Y121061D02*
X173011Y139259D01*
X177509Y139259D01*
X177509Y121061D01*
X173011Y121061D01*
X173011Y124418D02*
X177509Y124418D01*
X177509Y127775D02*
X173011Y127775D01*
X173011Y131132D02*
X177509Y131132D01*
X177509Y134489D02*
X173011Y134489D01*
X173011Y137846D02*
X177509Y137846D01*
X185711Y139259D02*
X185711Y121061D01*
X185711Y139259D02*
X190209Y139259D01*
X190209Y121061D01*
X185711Y121061D01*
X185711Y124418D02*
X190209Y124418D01*
X190209Y127775D02*
X185711Y127775D01*
X185711Y131132D02*
X190209Y131132D01*
X190209Y134489D02*
X185711Y134489D01*
X185711Y137846D02*
X190209Y137846D01*
X198411Y139259D02*
X198411Y121061D01*
X198411Y139259D02*
X202909Y139259D01*
X202909Y121061D01*
X198411Y121061D01*
X198411Y124418D02*
X202909Y124418D01*
X202909Y127775D02*
X198411Y127775D01*
X198411Y131132D02*
X202909Y131132D01*
X202909Y134489D02*
X198411Y134489D01*
X198411Y137846D02*
X202909Y137846D01*
X211111Y139259D02*
X211111Y121061D01*
X211111Y139259D02*
X215609Y139259D01*
X215609Y121061D01*
X211111Y121061D01*
X211111Y124418D02*
X215609Y124418D01*
X215609Y127775D02*
X211111Y127775D01*
X211111Y131132D02*
X215609Y131132D01*
X215609Y134489D02*
X211111Y134489D01*
X211111Y137846D02*
X215609Y137846D01*
X211111Y89759D02*
X211111Y71561D01*
X211111Y89759D02*
X215609Y89759D01*
X215609Y71561D01*
X211111Y71561D01*
X211111Y74918D02*
X215609Y74918D01*
X215609Y78275D02*
X211111Y78275D01*
X211111Y81632D02*
X215609Y81632D01*
X215609Y84989D02*
X211111Y84989D01*
X211111Y88346D02*
X215609Y88346D01*
X198411Y89759D02*
X198411Y71561D01*
X198411Y89759D02*
X202909Y89759D01*
X202909Y71561D01*
X198411Y71561D01*
X198411Y74918D02*
X202909Y74918D01*
X202909Y78275D02*
X198411Y78275D01*
X198411Y81632D02*
X202909Y81632D01*
X202909Y84989D02*
X198411Y84989D01*
X198411Y88346D02*
X202909Y88346D01*
X185711Y89759D02*
X185711Y71561D01*
X185711Y89759D02*
X190209Y89759D01*
X190209Y71561D01*
X185711Y71561D01*
X185711Y74918D02*
X190209Y74918D01*
X190209Y78275D02*
X185711Y78275D01*
X185711Y81632D02*
X190209Y81632D01*
X190209Y84989D02*
X185711Y84989D01*
X185711Y88346D02*
X190209Y88346D01*
X173011Y89759D02*
X173011Y71561D01*
X173011Y89759D02*
X177509Y89759D01*
X177509Y71561D01*
X173011Y71561D01*
X173011Y74918D02*
X177509Y74918D01*
X177509Y78275D02*
X173011Y78275D01*
X173011Y81632D02*
X177509Y81632D01*
X177509Y84989D02*
X173011Y84989D01*
X173011Y88346D02*
X177509Y88346D01*
D12*
X194310Y98910D03*
X194310Y111910D03*
X181310Y111910D03*
X181310Y98910D03*
X207310Y98910D03*
X207310Y111910D03*
D13*
X611540Y130810D03*
D14*
X536540Y130810D03*
D13*
X1069940Y308610D03*
D15*
X1144940Y308610D03*
D13*
X892140Y308610D03*
D15*
X967140Y308610D03*
D13*
X714340Y308610D03*
D15*
X789340Y308610D03*
D13*
X536540Y308610D03*
D15*
X611540Y308610D03*
D16*
X217170Y262010D03*
X217170Y279010D03*
X153670Y84210D03*
X153670Y101210D03*
D17*
X71510Y58420D03*
X88510Y58420D03*
D16*
X201930Y154060D03*
X201930Y171060D03*
D17*
X188840Y29210D03*
X171840Y29210D03*
X209940Y194310D03*
X226940Y194310D03*
D13*
X433740Y130810D03*
D14*
X358740Y130810D03*
D13*
X789340Y130810D03*
D14*
X714340Y130810D03*
D13*
X967140Y130810D03*
D14*
X892140Y130810D03*
D13*
X1144940Y130810D03*
D14*
X1069940Y130810D03*
D18*
X238760Y259010D03*
X238760Y282010D03*
D19*
X118110Y58510D03*
X118110Y101510D03*
D17*
X73270Y242570D03*
X56270Y242570D03*
D16*
X123190Y400440D03*
X123190Y417440D03*
D17*
X162950Y240030D03*
X179950Y240030D03*
X162950Y223520D03*
X179950Y223520D03*
X73270Y208280D03*
X56270Y208280D03*
X73270Y226060D03*
X56270Y226060D03*
D16*
X162560Y278520D03*
X162560Y295520D03*
X218440Y318380D03*
X218440Y301380D03*
X101600Y347590D03*
X101600Y330590D03*
X195580Y301380D03*
X195580Y318380D03*
X279400Y347590D03*
X279400Y330590D03*
D17*
X273930Y241300D03*
X256930Y241300D03*
D16*
X233680Y146930D03*
X233680Y129930D03*
X168910Y154060D03*
X168910Y171060D03*
X186690Y171060D03*
X186690Y154060D03*
D17*
X225670Y59690D03*
X208670Y59690D03*
D16*
X217170Y154060D03*
X217170Y171060D03*
D20*
X247183Y135707D02*
X251477Y135707D01*
X251477Y125913D01*
X247183Y125913D01*
X247183Y135707D01*
X247183Y132030D02*
X251477Y132030D01*
X266683Y125913D02*
X270977Y125913D01*
X266683Y125913D02*
X266683Y135707D01*
X270977Y135707D01*
X270977Y125913D01*
X270977Y132030D02*
X266683Y132030D01*
D21*
X840740Y219710D03*
X1018540Y219710D03*
X485140Y219710D03*
X662940Y219710D03*
D22*
X145110Y248920D03*
X145110Y261620D03*
X145110Y274320D03*
X145110Y236220D03*
X145110Y223520D03*
X145110Y210820D03*
X145110Y287020D03*
X91110Y287020D03*
X91110Y274320D03*
X91110Y261620D03*
X91110Y248920D03*
X91110Y236220D03*
X91110Y223520D03*
X91110Y210820D03*
D23*
X106050Y154940D03*
X59050Y154940D03*
D24*
X257340Y259240D03*
D25*
X290590Y269240D03*
D24*
X257340Y279240D03*
D16*
X260350Y192160D03*
X260350Y209160D03*
D26*
X430140Y385200D03*
X358140Y385200D03*
X430140Y295030D03*
X358140Y295030D03*
D27*
X78740Y410920D03*
D28*
X76990Y404420D03*
X80490Y404420D03*
D27*
X167640Y412190D03*
D28*
X165890Y405690D03*
X169390Y405690D03*
D27*
X256540Y403300D03*
D28*
X254790Y396800D03*
X258290Y396800D03*
D29*
X363876Y80010D03*
X410476Y41910D03*
X447040Y16510D03*
X383540Y100330D03*
X345440Y80010D03*
X408940Y181610D03*
X588276Y41910D03*
X541020Y80010D03*
X624840Y16510D03*
X561340Y105410D03*
X561340Y181610D03*
X523240Y80010D03*
X721360Y78740D03*
X766076Y41910D03*
X802640Y16510D03*
X740410Y99060D03*
X898546Y77470D03*
X943876Y41910D03*
X980440Y16510D03*
X916940Y99060D03*
X878840Y80010D03*
X916940Y181610D03*
X1074420Y76200D03*
X1121676Y41910D03*
X1158240Y16510D03*
X1094740Y92710D03*
X1056640Y80010D03*
X1094740Y181610D03*
X1140460Y359410D03*
X1093204Y397510D03*
X1056640Y422910D03*
X1120140Y346710D03*
X1158240Y359410D03*
X1120140Y257810D03*
X915404Y397510D03*
X962660Y359410D03*
X878840Y422910D03*
X942340Y339090D03*
X942340Y257810D03*
X980440Y359410D03*
X737604Y397510D03*
X782320Y358140D03*
X701040Y422910D03*
X760730Y339090D03*
X802640Y359410D03*
X764540Y257810D03*
X168910Y180340D03*
X191770Y44450D03*
X273930Y241300D03*
X609600Y359410D03*
X559804Y397510D03*
X523240Y422910D03*
X586740Y346710D03*
X624840Y359410D03*
X586740Y257810D03*
X701040Y80010D03*
X739140Y181610D03*
X90480Y295910D03*
X116840Y232410D03*
X78740Y448310D03*
X71910Y292100D03*
X167640Y448310D03*
X203200Y330200D03*
X256540Y448310D03*
X241300Y381000D03*
X216234Y318380D03*
X104140Y280190D03*
X216234Y301380D03*
X269240Y118110D03*
X66040Y41910D03*
X79772Y390680D03*
X252693Y392393D03*
X166672Y381000D03*
X152400Y368300D03*
X50800Y381000D03*
X104140Y257810D03*
X231140Y295910D03*
X104140Y416804D03*
X104140Y397510D03*
X180340Y397510D03*
X189196Y416780D03*
X66040Y397510D03*
X285750Y448310D03*
X196850Y448310D03*
X123190Y431800D03*
X193040Y290574D03*
X269240Y295910D03*
X179950Y240030D03*
X179950Y223520D03*
X233116Y334010D03*
X218440Y334010D03*
X56270Y208280D03*
X40640Y232410D03*
X142240Y448310D03*
X198120Y194310D03*
X201930Y154060D03*
X231140Y105410D03*
X243840Y105410D03*
X256540Y105410D03*
X269240Y105410D03*
X281940Y105410D03*
X281940Y92710D03*
X269240Y92710D03*
X256540Y92710D03*
X243840Y92710D03*
X231140Y92710D03*
X231140Y80010D03*
X243840Y80010D03*
X256540Y80010D03*
X269240Y80010D03*
X281940Y80010D03*
X91440Y41910D03*
X104140Y41910D03*
X116840Y41910D03*
M02*
