G04 EAGLE Gerber RS-274X export*
G75*
%MOMM*%
%FSLAX34Y34*%
%LPD*%
%INSolderpaste Bottom*%
%IPPOS*%
%AMOC8*
5,1,8,0,0,1.08239X$1,22.5*%
G01*
%ADD10R,1.160000X0.810000*%
%ADD11C,0.150000*%
%ADD12R,1.000000X1.100000*%
%ADD13R,1.100000X1.000000*%
%ADD14R,0.830000X0.630000*%
%ADD15R,1.470000X1.270000*%
%ADD16C,0.443700*%
%ADD17R,1.500000X0.600000*%
%ADD18R,2.400000X5.100000*%
%ADD19R,1.200000X1.200000*%
%ADD20R,1.600000X1.500000*%
%ADD21R,0.550000X0.300000*%
%ADD22R,0.200000X0.300000*%

G36*
X251482Y123663D02*
X251482Y123663D01*
X251484Y123661D01*
X251828Y123688D01*
X251832Y123692D01*
X251836Y123689D01*
X252172Y123770D01*
X252175Y123775D01*
X252179Y123773D01*
X252498Y123905D01*
X252501Y123910D01*
X252505Y123908D01*
X252799Y124088D01*
X252801Y124093D01*
X252805Y124093D01*
X253068Y124317D01*
X253069Y124322D01*
X253074Y124322D01*
X253298Y124585D01*
X253298Y124591D01*
X253302Y124591D01*
X253482Y124885D01*
X253481Y124891D01*
X253486Y124892D01*
X253618Y125211D01*
X253616Y125217D01*
X253620Y125218D01*
X253701Y125554D01*
X253697Y125562D01*
X253702Y125566D01*
X253729Y135710D01*
X253727Y135712D01*
X253729Y135714D01*
X253702Y136058D01*
X253698Y136062D01*
X253701Y136066D01*
X253620Y136402D01*
X253615Y136405D01*
X253618Y136409D01*
X253486Y136728D01*
X253480Y136731D01*
X253482Y136735D01*
X253302Y137029D01*
X253297Y137031D01*
X253298Y137035D01*
X253074Y137298D01*
X253068Y137299D01*
X253068Y137304D01*
X252805Y137528D01*
X252799Y137528D01*
X252799Y137532D01*
X252505Y137712D01*
X252499Y137711D01*
X252498Y137716D01*
X252179Y137848D01*
X252173Y137846D01*
X252172Y137850D01*
X251836Y137931D01*
X251830Y137929D01*
X251828Y137932D01*
X251484Y137959D01*
X251481Y137958D01*
X251480Y137959D01*
X247180Y137959D01*
X247178Y137957D01*
X247176Y137959D01*
X246832Y137932D01*
X246828Y137928D01*
X246824Y137931D01*
X246488Y137850D01*
X246485Y137845D01*
X246481Y137848D01*
X246162Y137716D01*
X246159Y137710D01*
X246155Y137712D01*
X245861Y137532D01*
X245859Y137527D01*
X245855Y137528D01*
X245592Y137304D01*
X245591Y137298D01*
X245587Y137298D01*
X245363Y137035D01*
X245362Y137029D01*
X245358Y137029D01*
X245178Y136735D01*
X245179Y136729D01*
X245175Y136728D01*
X245043Y136409D01*
X245044Y136403D01*
X245040Y136402D01*
X244959Y136066D01*
X244963Y136058D01*
X244958Y136054D01*
X244931Y125910D01*
X244933Y125908D01*
X244931Y125906D01*
X244958Y125562D01*
X244962Y125558D01*
X244959Y125554D01*
X245040Y125218D01*
X245045Y125215D01*
X245043Y125211D01*
X245175Y124892D01*
X245180Y124889D01*
X245178Y124885D01*
X245358Y124591D01*
X245363Y124589D01*
X245363Y124585D01*
X245587Y124322D01*
X245592Y124321D01*
X245592Y124317D01*
X245855Y124093D01*
X245861Y124092D01*
X245861Y124088D01*
X246155Y123908D01*
X246161Y123909D01*
X246162Y123905D01*
X246481Y123773D01*
X246487Y123774D01*
X246488Y123770D01*
X246824Y123689D01*
X246830Y123691D01*
X246832Y123688D01*
X247176Y123661D01*
X247179Y123663D01*
X247180Y123661D01*
X251480Y123661D01*
X251482Y123663D01*
G37*
G36*
X270982Y123663D02*
X270982Y123663D01*
X270984Y123661D01*
X271328Y123688D01*
X271332Y123692D01*
X271336Y123689D01*
X271672Y123770D01*
X271675Y123775D01*
X271679Y123773D01*
X271998Y123905D01*
X272001Y123910D01*
X272005Y123908D01*
X272299Y124088D01*
X272301Y124093D01*
X272305Y124093D01*
X272568Y124317D01*
X272569Y124322D01*
X272574Y124322D01*
X272798Y124585D01*
X272798Y124591D01*
X272802Y124591D01*
X272982Y124885D01*
X272981Y124891D01*
X272986Y124892D01*
X273118Y125211D01*
X273116Y125217D01*
X273120Y125218D01*
X273201Y125554D01*
X273197Y125562D01*
X273202Y125566D01*
X273229Y135710D01*
X273227Y135712D01*
X273229Y135714D01*
X273202Y136058D01*
X273198Y136062D01*
X273201Y136066D01*
X273120Y136402D01*
X273115Y136405D01*
X273118Y136409D01*
X272986Y136728D01*
X272980Y136731D01*
X272982Y136735D01*
X272802Y137029D01*
X272797Y137031D01*
X272798Y137035D01*
X272574Y137298D01*
X272568Y137299D01*
X272568Y137304D01*
X272305Y137528D01*
X272299Y137528D01*
X272299Y137532D01*
X272005Y137712D01*
X271999Y137711D01*
X271998Y137716D01*
X271679Y137848D01*
X271673Y137846D01*
X271672Y137850D01*
X271336Y137931D01*
X271330Y137929D01*
X271328Y137932D01*
X270984Y137959D01*
X270981Y137958D01*
X270980Y137959D01*
X266680Y137959D01*
X266678Y137957D01*
X266676Y137959D01*
X266332Y137932D01*
X266328Y137928D01*
X266324Y137931D01*
X265988Y137850D01*
X265985Y137845D01*
X265981Y137848D01*
X265662Y137716D01*
X265659Y137710D01*
X265655Y137712D01*
X265361Y137532D01*
X265359Y137527D01*
X265355Y137528D01*
X265092Y137304D01*
X265091Y137298D01*
X265087Y137298D01*
X264863Y137035D01*
X264862Y137029D01*
X264858Y137029D01*
X264678Y136735D01*
X264679Y136729D01*
X264675Y136728D01*
X264543Y136409D01*
X264544Y136403D01*
X264540Y136402D01*
X264459Y136066D01*
X264463Y136058D01*
X264458Y136054D01*
X264431Y125910D01*
X264433Y125908D01*
X264431Y125906D01*
X264458Y125562D01*
X264462Y125558D01*
X264459Y125554D01*
X264540Y125218D01*
X264545Y125215D01*
X264543Y125211D01*
X264675Y124892D01*
X264680Y124889D01*
X264678Y124885D01*
X264858Y124591D01*
X264863Y124589D01*
X264863Y124585D01*
X265087Y124322D01*
X265092Y124321D01*
X265092Y124317D01*
X265355Y124093D01*
X265361Y124092D01*
X265361Y124088D01*
X265655Y123908D01*
X265661Y123909D01*
X265662Y123905D01*
X265981Y123773D01*
X265987Y123774D01*
X265988Y123770D01*
X266324Y123689D01*
X266330Y123691D01*
X266332Y123688D01*
X266676Y123661D01*
X266679Y123663D01*
X266680Y123661D01*
X270980Y123661D01*
X270982Y123663D01*
G37*
D10*
X187210Y110760D03*
X187210Y100060D03*
X201410Y110760D03*
X201410Y100060D03*
D11*
X173010Y121060D02*
X173010Y139260D01*
X177510Y139260D01*
X177510Y121060D01*
X173010Y121060D01*
X173010Y122485D02*
X177510Y122485D01*
X177510Y123910D02*
X173010Y123910D01*
X173010Y125335D02*
X177510Y125335D01*
X177510Y126760D02*
X173010Y126760D01*
X173010Y128185D02*
X177510Y128185D01*
X177510Y129610D02*
X173010Y129610D01*
X173010Y131035D02*
X177510Y131035D01*
X177510Y132460D02*
X173010Y132460D01*
X173010Y133885D02*
X177510Y133885D01*
X177510Y135310D02*
X173010Y135310D01*
X173010Y136735D02*
X177510Y136735D01*
X177510Y138160D02*
X173010Y138160D01*
X185710Y139260D02*
X185710Y121060D01*
X185710Y139260D02*
X190210Y139260D01*
X190210Y121060D01*
X185710Y121060D01*
X185710Y122485D02*
X190210Y122485D01*
X190210Y123910D02*
X185710Y123910D01*
X185710Y125335D02*
X190210Y125335D01*
X190210Y126760D02*
X185710Y126760D01*
X185710Y128185D02*
X190210Y128185D01*
X190210Y129610D02*
X185710Y129610D01*
X185710Y131035D02*
X190210Y131035D01*
X190210Y132460D02*
X185710Y132460D01*
X185710Y133885D02*
X190210Y133885D01*
X190210Y135310D02*
X185710Y135310D01*
X185710Y136735D02*
X190210Y136735D01*
X190210Y138160D02*
X185710Y138160D01*
X198410Y139260D02*
X198410Y121060D01*
X198410Y139260D02*
X202910Y139260D01*
X202910Y121060D01*
X198410Y121060D01*
X198410Y122485D02*
X202910Y122485D01*
X202910Y123910D02*
X198410Y123910D01*
X198410Y125335D02*
X202910Y125335D01*
X202910Y126760D02*
X198410Y126760D01*
X198410Y128185D02*
X202910Y128185D01*
X202910Y129610D02*
X198410Y129610D01*
X198410Y131035D02*
X202910Y131035D01*
X202910Y132460D02*
X198410Y132460D01*
X198410Y133885D02*
X202910Y133885D01*
X202910Y135310D02*
X198410Y135310D01*
X198410Y136735D02*
X202910Y136735D01*
X202910Y138160D02*
X198410Y138160D01*
X211110Y139260D02*
X211110Y121060D01*
X211110Y139260D02*
X215610Y139260D01*
X215610Y121060D01*
X211110Y121060D01*
X211110Y122485D02*
X215610Y122485D01*
X215610Y123910D02*
X211110Y123910D01*
X211110Y125335D02*
X215610Y125335D01*
X215610Y126760D02*
X211110Y126760D01*
X211110Y128185D02*
X215610Y128185D01*
X215610Y129610D02*
X211110Y129610D01*
X211110Y131035D02*
X215610Y131035D01*
X215610Y132460D02*
X211110Y132460D01*
X211110Y133885D02*
X215610Y133885D01*
X215610Y135310D02*
X211110Y135310D01*
X211110Y136735D02*
X215610Y136735D01*
X215610Y138160D02*
X211110Y138160D01*
X211110Y89760D02*
X211110Y71560D01*
X211110Y89760D02*
X215610Y89760D01*
X215610Y71560D01*
X211110Y71560D01*
X211110Y72985D02*
X215610Y72985D01*
X215610Y74410D02*
X211110Y74410D01*
X211110Y75835D02*
X215610Y75835D01*
X215610Y77260D02*
X211110Y77260D01*
X211110Y78685D02*
X215610Y78685D01*
X215610Y80110D02*
X211110Y80110D01*
X211110Y81535D02*
X215610Y81535D01*
X215610Y82960D02*
X211110Y82960D01*
X211110Y84385D02*
X215610Y84385D01*
X215610Y85810D02*
X211110Y85810D01*
X211110Y87235D02*
X215610Y87235D01*
X215610Y88660D02*
X211110Y88660D01*
X198410Y89760D02*
X198410Y71560D01*
X198410Y89760D02*
X202910Y89760D01*
X202910Y71560D01*
X198410Y71560D01*
X198410Y72985D02*
X202910Y72985D01*
X202910Y74410D02*
X198410Y74410D01*
X198410Y75835D02*
X202910Y75835D01*
X202910Y77260D02*
X198410Y77260D01*
X198410Y78685D02*
X202910Y78685D01*
X202910Y80110D02*
X198410Y80110D01*
X198410Y81535D02*
X202910Y81535D01*
X202910Y82960D02*
X198410Y82960D01*
X198410Y84385D02*
X202910Y84385D01*
X202910Y85810D02*
X198410Y85810D01*
X198410Y87235D02*
X202910Y87235D01*
X202910Y88660D02*
X198410Y88660D01*
X185710Y89760D02*
X185710Y71560D01*
X185710Y89760D02*
X190210Y89760D01*
X190210Y71560D01*
X185710Y71560D01*
X185710Y72985D02*
X190210Y72985D01*
X190210Y74410D02*
X185710Y74410D01*
X185710Y75835D02*
X190210Y75835D01*
X190210Y77260D02*
X185710Y77260D01*
X185710Y78685D02*
X190210Y78685D01*
X190210Y80110D02*
X185710Y80110D01*
X185710Y81535D02*
X190210Y81535D01*
X190210Y82960D02*
X185710Y82960D01*
X185710Y84385D02*
X190210Y84385D01*
X190210Y85810D02*
X185710Y85810D01*
X185710Y87235D02*
X190210Y87235D01*
X190210Y88660D02*
X185710Y88660D01*
X173010Y89760D02*
X173010Y71560D01*
X173010Y89760D02*
X177510Y89760D01*
X177510Y71560D01*
X173010Y71560D01*
X173010Y72985D02*
X177510Y72985D01*
X177510Y74410D02*
X173010Y74410D01*
X173010Y75835D02*
X177510Y75835D01*
X177510Y77260D02*
X173010Y77260D01*
X173010Y78685D02*
X177510Y78685D01*
X177510Y80110D02*
X173010Y80110D01*
X173010Y81535D02*
X177510Y81535D01*
X177510Y82960D02*
X173010Y82960D01*
X173010Y84385D02*
X177510Y84385D01*
X177510Y85810D02*
X173010Y85810D01*
X173010Y87235D02*
X177510Y87235D01*
X177510Y88660D02*
X173010Y88660D01*
D12*
X217170Y262010D03*
X217170Y279010D03*
X153670Y84210D03*
X153670Y101210D03*
D13*
X71510Y58420D03*
X88510Y58420D03*
D12*
X201930Y154060D03*
X201930Y171060D03*
D13*
X188840Y29210D03*
X171840Y29210D03*
X209940Y194310D03*
X226940Y194310D03*
D14*
X238760Y259010D03*
X238760Y282010D03*
D15*
X118110Y58510D03*
X118110Y101510D03*
D13*
X73270Y242570D03*
X56270Y242570D03*
D12*
X123190Y400440D03*
X123190Y417440D03*
D13*
X162950Y240030D03*
X179950Y240030D03*
X162950Y223520D03*
X179950Y223520D03*
X73270Y208280D03*
X56270Y208280D03*
X73270Y226060D03*
X56270Y226060D03*
D12*
X162560Y278520D03*
X162560Y295520D03*
X218440Y318380D03*
X218440Y301380D03*
X101600Y347590D03*
X101600Y330590D03*
X195580Y301380D03*
X195580Y318380D03*
X279400Y347590D03*
X279400Y330590D03*
D13*
X273930Y241300D03*
X256930Y241300D03*
D12*
X233680Y146930D03*
X233680Y129930D03*
X168910Y154060D03*
X168910Y171060D03*
X186690Y171060D03*
X186690Y154060D03*
D13*
X225670Y59690D03*
X208670Y59690D03*
D12*
X217170Y154060D03*
X217170Y171060D03*
D16*
X247198Y135692D02*
X251462Y135692D01*
X251462Y125928D01*
X247198Y125928D01*
X247198Y135692D01*
X247198Y130143D02*
X251462Y130143D01*
X251462Y134358D02*
X247198Y134358D01*
X266698Y125928D02*
X270962Y125928D01*
X266698Y125928D02*
X266698Y135692D01*
X270962Y135692D01*
X270962Y125928D01*
X270962Y130143D02*
X266698Y130143D01*
X266698Y134358D02*
X270962Y134358D01*
D17*
X145110Y248920D03*
X145110Y261620D03*
X145110Y274320D03*
X145110Y236220D03*
X145110Y223520D03*
X145110Y210820D03*
X145110Y287020D03*
X91110Y287020D03*
X91110Y274320D03*
X91110Y261620D03*
X91110Y248920D03*
X91110Y236220D03*
X91110Y223520D03*
X91110Y210820D03*
D18*
X106050Y154940D03*
X59050Y154940D03*
D19*
X257340Y259240D03*
D20*
X290590Y269240D03*
D19*
X257340Y279240D03*
D12*
X260350Y192160D03*
X260350Y209160D03*
D21*
X78740Y410920D03*
D22*
X76990Y404420D03*
X80490Y404420D03*
D21*
X167640Y412190D03*
D22*
X165890Y405690D03*
X169390Y405690D03*
D21*
X256540Y403300D03*
D22*
X254790Y396800D03*
X258290Y396800D03*
M02*
