M48
;GenerationSoftware,Autodesk,EAGLE,9.5.0*%
;CreationDate,2020-01-21T02:00:02Z*%
FMAT,2
ICI,OFF
METRIC,TZ,000.000
T8C0.350
T7C0.400
T6C0.450
T5C0.500
T4C1.000
T3C1.016
T2C1.700
T1C2.500
%
G90
M71
T1
X16891Y29083
X-6574Y1145
X42653Y1348
X42888Y29131
T2
X965Y19685
X965Y24685
T3
X27940Y2794
X33020Y5334
X30480Y5334
X27940Y5334
X33020Y2794
X30480Y2794
T4
X-9035Y16685
X-9035Y27685
T5
X-6373Y10328
X-6373Y5878
X-9373Y12278
X-9373Y3928
T6
X3556Y26162
X3556Y25146
X3556Y24130
T7
X15494Y18796
X16256Y21336
T8
X21336Y15240
X34798Y10160
X30734Y6858
X-1016Y14478
X29718Y14224
X4826Y3810
X16256Y14478
X16256Y11938
X29972Y20320
X31242Y27686
X13208Y26670
X31750Y20066
X0Y14478
X1016Y14478
X22860Y5842
X27686Y13716
X32004Y23622
X18034Y14986
X9956Y8332
X6616Y3568
X33274Y12700
X36322Y11176
X28956Y8382
X29718Y11938
X27686Y11430
X22286Y14158
X36322Y12192
X29718Y12954
X27686Y12446
M30