G04 EAGLE Gerber RS-274X export*
G75*
%MOMM*%
%FSLAX34Y34*%
%LPD*%
%INSolderpaste Top*%
%IPPOS*%
%AMOC8*
5,1,8,0,0,1.08239X$1,22.5*%
G01*
%ADD10R,1.100000X1.000000*%
%ADD11C,0.300000*%
%ADD12R,1.000000X1.100000*%
%ADD13R,1.270000X3.175000*%
%ADD14R,0.700000X1.000000*%
%ADD15R,0.900000X1.200000*%
%ADD16R,1.000000X2.000000*%


D10*
X1166740Y29210D03*
X1149740Y29210D03*
X1048140Y410210D03*
X1065140Y410210D03*
X870340Y410210D03*
X887340Y410210D03*
X692540Y410210D03*
X709540Y410210D03*
X514740Y410210D03*
X531740Y410210D03*
X633340Y29210D03*
X616340Y29210D03*
X455540Y29210D03*
X438540Y29210D03*
X811140Y29210D03*
X794140Y29210D03*
X988940Y29210D03*
X971940Y29210D03*
D11*
X414210Y38410D02*
X414210Y45410D01*
X421210Y45410D01*
X421210Y38410D01*
X414210Y38410D01*
X414210Y41260D02*
X421210Y41260D01*
X421210Y44110D02*
X414210Y44110D01*
X396670Y45410D02*
X396670Y38410D01*
X396670Y45410D02*
X403670Y45410D01*
X403670Y38410D01*
X396670Y38410D01*
X396670Y41260D02*
X403670Y41260D01*
X403670Y44110D02*
X396670Y44110D01*
X592010Y45410D02*
X592010Y38410D01*
X592010Y45410D02*
X599010Y45410D01*
X599010Y38410D01*
X592010Y38410D01*
X592010Y41260D02*
X599010Y41260D01*
X599010Y44110D02*
X592010Y44110D01*
X574470Y45410D02*
X574470Y38410D01*
X574470Y45410D02*
X581470Y45410D01*
X581470Y38410D01*
X574470Y38410D01*
X574470Y41260D02*
X581470Y41260D01*
X581470Y44110D02*
X574470Y44110D01*
X769810Y45410D02*
X769810Y38410D01*
X769810Y45410D02*
X776810Y45410D01*
X776810Y38410D01*
X769810Y38410D01*
X769810Y41260D02*
X776810Y41260D01*
X776810Y44110D02*
X769810Y44110D01*
X752270Y45410D02*
X752270Y38410D01*
X752270Y45410D02*
X759270Y45410D01*
X759270Y38410D01*
X752270Y38410D01*
X752270Y41260D02*
X759270Y41260D01*
X759270Y44110D02*
X752270Y44110D01*
X947610Y45410D02*
X947610Y38410D01*
X947610Y45410D02*
X954610Y45410D01*
X954610Y38410D01*
X947610Y38410D01*
X947610Y41260D02*
X954610Y41260D01*
X954610Y44110D02*
X947610Y44110D01*
X930070Y45410D02*
X930070Y38410D01*
X930070Y45410D02*
X937070Y45410D01*
X937070Y38410D01*
X930070Y38410D01*
X930070Y41260D02*
X937070Y41260D01*
X937070Y44110D02*
X930070Y44110D01*
X1125410Y45410D02*
X1125410Y38410D01*
X1125410Y45410D02*
X1132410Y45410D01*
X1132410Y38410D01*
X1125410Y38410D01*
X1125410Y41260D02*
X1132410Y41260D01*
X1132410Y44110D02*
X1125410Y44110D01*
X1107870Y45410D02*
X1107870Y38410D01*
X1107870Y45410D02*
X1114870Y45410D01*
X1114870Y38410D01*
X1107870Y38410D01*
X1107870Y41260D02*
X1114870Y41260D01*
X1114870Y44110D02*
X1107870Y44110D01*
X1089470Y394010D02*
X1089470Y401010D01*
X1089470Y394010D02*
X1082470Y394010D01*
X1082470Y401010D01*
X1089470Y401010D01*
X1089470Y396860D02*
X1082470Y396860D01*
X1082470Y399710D02*
X1089470Y399710D01*
X1107010Y401010D02*
X1107010Y394010D01*
X1100010Y394010D01*
X1100010Y401010D01*
X1107010Y401010D01*
X1107010Y396860D02*
X1100010Y396860D01*
X1100010Y399710D02*
X1107010Y399710D01*
X911670Y401010D02*
X911670Y394010D01*
X904670Y394010D01*
X904670Y401010D01*
X911670Y401010D01*
X911670Y396860D02*
X904670Y396860D01*
X904670Y399710D02*
X911670Y399710D01*
X929210Y401010D02*
X929210Y394010D01*
X922210Y394010D01*
X922210Y401010D01*
X929210Y401010D01*
X929210Y396860D02*
X922210Y396860D01*
X922210Y399710D02*
X929210Y399710D01*
X733870Y401010D02*
X733870Y394010D01*
X726870Y394010D01*
X726870Y401010D01*
X733870Y401010D01*
X733870Y396860D02*
X726870Y396860D01*
X726870Y399710D02*
X733870Y399710D01*
X751410Y401010D02*
X751410Y394010D01*
X744410Y394010D01*
X744410Y401010D01*
X751410Y401010D01*
X751410Y396860D02*
X744410Y396860D01*
X744410Y399710D02*
X751410Y399710D01*
X556070Y401010D02*
X556070Y394010D01*
X549070Y394010D01*
X549070Y401010D01*
X556070Y401010D01*
X556070Y396860D02*
X549070Y396860D01*
X549070Y399710D02*
X556070Y399710D01*
X573610Y401010D02*
X573610Y394010D01*
X566610Y394010D01*
X566610Y401010D01*
X573610Y401010D01*
X573610Y396860D02*
X566610Y396860D01*
X566610Y399710D02*
X573610Y399710D01*
D12*
X378460Y49140D03*
X378460Y32140D03*
D13*
X364490Y181610D03*
X427990Y181610D03*
X542290Y181610D03*
X605790Y181610D03*
D12*
X553720Y54220D03*
X553720Y37220D03*
X774700Y68970D03*
X774700Y85970D03*
D10*
X811140Y80010D03*
X794140Y80010D03*
D12*
X753110Y85970D03*
X753110Y68970D03*
X732790Y68970D03*
X732790Y85970D03*
D13*
X720090Y181610D03*
X783590Y181610D03*
D12*
X732790Y50410D03*
X732790Y33410D03*
X949960Y68970D03*
X949960Y85970D03*
X599440Y71510D03*
X599440Y88510D03*
D10*
X988940Y80010D03*
X971940Y80010D03*
D12*
X930910Y85970D03*
X930910Y68970D03*
X908050Y68970D03*
X908050Y85970D03*
D13*
X897890Y181610D03*
X961390Y181610D03*
D12*
X908050Y50410D03*
X908050Y33410D03*
X1129030Y67700D03*
X1129030Y84700D03*
D10*
X1166740Y80010D03*
X1149740Y80010D03*
D12*
X1107440Y84700D03*
X1107440Y67700D03*
X1085850Y67700D03*
X1085850Y84700D03*
D13*
X1075690Y181610D03*
X1139190Y181610D03*
D10*
X633340Y80010D03*
X616340Y80010D03*
D12*
X1088390Y50410D03*
X1088390Y33410D03*
X1085850Y367910D03*
X1085850Y350910D03*
D10*
X1048140Y359410D03*
X1065140Y359410D03*
D12*
X1107440Y350910D03*
X1107440Y367910D03*
X1129030Y367910D03*
X1129030Y350910D03*
D13*
X1139190Y257810D03*
X1075690Y257810D03*
D12*
X1126490Y389010D03*
X1126490Y406010D03*
X904240Y367910D03*
X904240Y350910D03*
D10*
X870340Y359410D03*
X887340Y359410D03*
D12*
X927100Y350910D03*
X927100Y367910D03*
X577850Y88510D03*
X577850Y71510D03*
X949960Y367910D03*
X949960Y350910D03*
D13*
X961390Y257810D03*
X897890Y257810D03*
D12*
X948690Y389010D03*
X948690Y406010D03*
X732790Y366640D03*
X732790Y349640D03*
D10*
X692540Y359410D03*
X709540Y359410D03*
D12*
X750570Y349640D03*
X750570Y366640D03*
X770890Y366640D03*
X770890Y349640D03*
D13*
X783590Y257810D03*
X720090Y257810D03*
D12*
X777240Y389010D03*
X777240Y406010D03*
X551180Y372990D03*
X551180Y355990D03*
X553720Y71510D03*
X553720Y88510D03*
D10*
X514740Y359410D03*
X531740Y359410D03*
D12*
X574040Y355990D03*
X574040Y372990D03*
X594360Y372990D03*
X594360Y355990D03*
D13*
X605790Y257810D03*
X542290Y257810D03*
D12*
X594360Y389010D03*
X594360Y406010D03*
X415290Y71510D03*
X415290Y88510D03*
D10*
X455540Y80010D03*
X438540Y80010D03*
D12*
X396240Y88510D03*
X396240Y71510D03*
X373380Y71510D03*
X373380Y88510D03*
D14*
X615340Y42610D03*
X624840Y42610D03*
X634340Y42610D03*
X634340Y66610D03*
X615340Y66610D03*
X970940Y42610D03*
X980440Y42610D03*
X989940Y42610D03*
X989940Y66610D03*
X970940Y66610D03*
D15*
X878840Y29910D03*
X869340Y53910D03*
X888340Y53910D03*
X878840Y92010D03*
X888340Y68010D03*
X869340Y68010D03*
D14*
X1148740Y42610D03*
X1158240Y42610D03*
X1167740Y42610D03*
X1167740Y66610D03*
X1148740Y66610D03*
D15*
X1056640Y29910D03*
X1047140Y53910D03*
X1066140Y53910D03*
X1056640Y92010D03*
X1066140Y68010D03*
X1047140Y68010D03*
D14*
X1066140Y396810D03*
X1056640Y396810D03*
X1047140Y396810D03*
X1047140Y372810D03*
X1066140Y372810D03*
D15*
X1158240Y409510D03*
X1167740Y385510D03*
X1148740Y385510D03*
X1158240Y347410D03*
X1148740Y371410D03*
X1167740Y371410D03*
D14*
X888340Y396810D03*
X878840Y396810D03*
X869340Y396810D03*
X869340Y372810D03*
X888340Y372810D03*
D15*
X523240Y29910D03*
X513740Y53910D03*
X532740Y53910D03*
X980440Y409510D03*
X989940Y385510D03*
X970940Y385510D03*
X980440Y347410D03*
X970940Y371410D03*
X989940Y371410D03*
D14*
X710540Y396810D03*
X701040Y396810D03*
X691540Y396810D03*
X691540Y372810D03*
X710540Y372810D03*
D15*
X802640Y409510D03*
X812140Y385510D03*
X793140Y385510D03*
X802640Y347410D03*
X793140Y371410D03*
X812140Y371410D03*
D14*
X532740Y396810D03*
X523240Y396810D03*
X513740Y396810D03*
X513740Y372810D03*
X532740Y372810D03*
D15*
X624840Y409510D03*
X634340Y385510D03*
X615340Y385510D03*
X624840Y347410D03*
X615340Y371410D03*
X634340Y371410D03*
X523240Y92010D03*
X532740Y68010D03*
X513740Y68010D03*
D16*
X78740Y312110D03*
X93740Y312110D03*
X108740Y312110D03*
X48740Y312110D03*
X63740Y312110D03*
X63740Y432110D03*
X78740Y432110D03*
X93740Y432110D03*
X108740Y432110D03*
X48740Y432110D03*
X256540Y312110D03*
X271540Y312110D03*
X286540Y312110D03*
X226540Y312110D03*
X241540Y312110D03*
X241540Y432110D03*
X256540Y432110D03*
X271540Y432110D03*
X286540Y432110D03*
X226540Y432110D03*
X167640Y312110D03*
X182640Y312110D03*
X197640Y312110D03*
X137640Y312110D03*
X152640Y312110D03*
X152640Y432110D03*
X167640Y432110D03*
X182640Y432110D03*
X197640Y432110D03*
X137640Y432110D03*
D14*
X437540Y42610D03*
X447040Y42610D03*
X456540Y42610D03*
X456540Y66610D03*
X437540Y66610D03*
D15*
X345440Y29910D03*
X335940Y53910D03*
X354940Y53910D03*
X345440Y92010D03*
X354940Y68010D03*
X335940Y68010D03*
D14*
X793140Y42610D03*
X802640Y42610D03*
X812140Y42610D03*
X812140Y66610D03*
X793140Y66610D03*
D15*
X701040Y29910D03*
X691540Y53910D03*
X710540Y53910D03*
X701040Y92010D03*
X710540Y68010D03*
X691540Y68010D03*
M02*
