G04 EAGLE Gerber RS-274X export*
G75*
%MOMM*%
%FSLAX34Y34*%
%LPD*%
%INSoldermask Top*%
%IPPOS*%
%AMOC8*
5,1,8,0,0,1.08239X$1,22.5*%
G01*
%ADD10C,5.080000*%
%ADD11C,1.011200*%
%ADD12C,2.743200*%
%ADD13P,2.969212X8X202.500000*%
%ADD14R,1.303200X1.203200*%
%ADD15P,2.969212X8X22.500000*%
%ADD16C,0.505344*%
%ADD17R,1.203200X1.303200*%
%ADD18R,1.473200X3.378200*%
%ADD19R,0.903200X1.203200*%
%ADD20R,1.103200X1.403200*%
%ADD21C,7.203200*%
%ADD22R,1.203200X2.203200*%
%ADD23C,6.654800*%
%ADD24C,0.959600*%


D10*
X612140Y308610D02*
X713740Y308610D01*
X789940Y308610D02*
X891540Y308610D01*
X967740Y308610D02*
X1069340Y308610D01*
X1069340Y130810D02*
X967740Y130810D01*
X891540Y130810D02*
X789940Y130810D01*
X713740Y130810D02*
X612140Y130810D01*
X535940Y130810D02*
X434340Y130810D01*
X1145540Y130810D02*
X1170940Y130810D01*
X1171554Y130817D01*
X1172167Y130840D01*
X1172780Y130877D01*
X1173391Y130929D01*
X1174002Y130995D01*
X1174610Y131077D01*
X1175216Y131173D01*
X1175820Y131283D01*
X1176421Y131408D01*
X1177019Y131548D01*
X1177613Y131702D01*
X1178203Y131871D01*
X1178789Y132053D01*
X1179370Y132250D01*
X1179947Y132461D01*
X1180518Y132685D01*
X1181084Y132923D01*
X1181644Y133175D01*
X1182197Y133441D01*
X1182744Y133719D01*
X1183284Y134011D01*
X1183817Y134316D01*
X1184342Y134634D01*
X1184860Y134964D01*
X1185369Y135306D01*
X1185870Y135661D01*
X1186362Y136028D01*
X1186845Y136406D01*
X1187319Y136796D01*
X1187783Y137198D01*
X1188238Y137610D01*
X1188682Y138034D01*
X1189116Y138468D01*
X1189540Y138912D01*
X1189952Y139367D01*
X1190354Y139831D01*
X1190744Y140305D01*
X1191122Y140788D01*
X1191489Y141280D01*
X1191844Y141781D01*
X1192186Y142290D01*
X1192516Y142808D01*
X1192834Y143333D01*
X1193139Y143866D01*
X1193431Y144406D01*
X1193709Y144953D01*
X1193975Y145506D01*
X1194227Y146066D01*
X1194465Y146632D01*
X1194689Y147203D01*
X1194900Y147780D01*
X1195097Y148361D01*
X1195279Y148947D01*
X1195448Y149537D01*
X1195602Y150131D01*
X1195742Y150729D01*
X1195867Y151330D01*
X1195977Y151934D01*
X1196073Y152540D01*
X1196155Y153148D01*
X1196221Y153759D01*
X1196273Y154370D01*
X1196310Y154983D01*
X1196333Y155596D01*
X1196340Y156210D01*
X1196340Y283210D01*
X1196333Y283824D01*
X1196310Y284437D01*
X1196273Y285050D01*
X1196221Y285661D01*
X1196155Y286272D01*
X1196073Y286880D01*
X1195977Y287486D01*
X1195867Y288090D01*
X1195742Y288691D01*
X1195602Y289289D01*
X1195448Y289883D01*
X1195279Y290473D01*
X1195097Y291059D01*
X1194900Y291640D01*
X1194689Y292217D01*
X1194465Y292788D01*
X1194227Y293354D01*
X1193975Y293914D01*
X1193709Y294467D01*
X1193431Y295014D01*
X1193139Y295554D01*
X1192834Y296087D01*
X1192516Y296612D01*
X1192186Y297130D01*
X1191844Y297639D01*
X1191489Y298140D01*
X1191122Y298632D01*
X1190744Y299115D01*
X1190354Y299589D01*
X1189952Y300053D01*
X1189540Y300508D01*
X1189116Y300952D01*
X1188682Y301386D01*
X1188238Y301810D01*
X1187783Y302222D01*
X1187319Y302624D01*
X1186845Y303014D01*
X1186362Y303392D01*
X1185870Y303759D01*
X1185369Y304114D01*
X1184860Y304456D01*
X1184342Y304786D01*
X1183817Y305104D01*
X1183284Y305409D01*
X1182744Y305701D01*
X1182197Y305979D01*
X1181644Y306245D01*
X1181084Y306497D01*
X1180518Y306735D01*
X1179947Y306959D01*
X1179370Y307170D01*
X1178789Y307367D01*
X1178203Y307549D01*
X1177613Y307718D01*
X1177019Y307872D01*
X1176421Y308012D01*
X1175820Y308137D01*
X1175216Y308247D01*
X1174610Y308343D01*
X1174002Y308425D01*
X1173391Y308491D01*
X1172780Y308543D01*
X1172167Y308580D01*
X1171554Y308603D01*
X1170940Y308610D01*
X1145540Y308610D01*
X358140Y384810D02*
X358140Y130810D01*
X431800Y292100D02*
X448310Y308610D01*
X495300Y308610D01*
X537210Y308610D01*
X495300Y308610D02*
X430530Y373380D01*
X430530Y392430D02*
X431800Y393700D01*
X430530Y392430D02*
X430530Y292100D01*
D11*
X194310Y98910D03*
X194310Y111910D03*
X181310Y111910D03*
X181310Y98910D03*
X207310Y98910D03*
X207310Y111910D03*
D12*
X611540Y130810D03*
D13*
X536540Y130810D03*
D14*
X1166740Y29210D03*
X1149740Y29210D03*
D12*
X1069940Y308610D03*
D15*
X1144940Y308610D03*
D14*
X1048140Y410210D03*
X1065140Y410210D03*
D12*
X892140Y308610D03*
D15*
X967140Y308610D03*
D14*
X870340Y410210D03*
X887340Y410210D03*
D12*
X714340Y308610D03*
D15*
X789340Y308610D03*
D14*
X692540Y410210D03*
X709540Y410210D03*
D12*
X536540Y308610D03*
D15*
X611540Y308610D03*
D14*
X514740Y410210D03*
X531740Y410210D03*
X633340Y29210D03*
X616340Y29210D03*
D12*
X433740Y130810D03*
D13*
X358740Y130810D03*
D14*
X455540Y29210D03*
X438540Y29210D03*
D12*
X789340Y130810D03*
D13*
X714340Y130810D03*
D14*
X811140Y29210D03*
X794140Y29210D03*
D12*
X967140Y130810D03*
D13*
X892140Y130810D03*
D14*
X988940Y29210D03*
X971940Y29210D03*
D12*
X1144940Y130810D03*
D13*
X1069940Y130810D03*
D16*
X414220Y45400D02*
X414220Y38420D01*
X414220Y45400D02*
X421200Y45400D01*
X421200Y38420D01*
X414220Y38420D01*
X414220Y43220D02*
X421200Y43220D01*
X396680Y45400D02*
X396680Y38420D01*
X396680Y45400D02*
X403660Y45400D01*
X403660Y38420D01*
X396680Y38420D01*
X396680Y43220D02*
X403660Y43220D01*
X592020Y45400D02*
X592020Y38420D01*
X592020Y45400D02*
X599000Y45400D01*
X599000Y38420D01*
X592020Y38420D01*
X592020Y43220D02*
X599000Y43220D01*
X574480Y45400D02*
X574480Y38420D01*
X574480Y45400D02*
X581460Y45400D01*
X581460Y38420D01*
X574480Y38420D01*
X574480Y43220D02*
X581460Y43220D01*
X769820Y45400D02*
X769820Y38420D01*
X769820Y45400D02*
X776800Y45400D01*
X776800Y38420D01*
X769820Y38420D01*
X769820Y43220D02*
X776800Y43220D01*
X752280Y45400D02*
X752280Y38420D01*
X752280Y45400D02*
X759260Y45400D01*
X759260Y38420D01*
X752280Y38420D01*
X752280Y43220D02*
X759260Y43220D01*
X947620Y45400D02*
X947620Y38420D01*
X947620Y45400D02*
X954600Y45400D01*
X954600Y38420D01*
X947620Y38420D01*
X947620Y43220D02*
X954600Y43220D01*
X930080Y45400D02*
X930080Y38420D01*
X930080Y45400D02*
X937060Y45400D01*
X937060Y38420D01*
X930080Y38420D01*
X930080Y43220D02*
X937060Y43220D01*
X1125420Y45400D02*
X1125420Y38420D01*
X1125420Y45400D02*
X1132400Y45400D01*
X1132400Y38420D01*
X1125420Y38420D01*
X1125420Y43220D02*
X1132400Y43220D01*
X1107880Y45400D02*
X1107880Y38420D01*
X1107880Y45400D02*
X1114860Y45400D01*
X1114860Y38420D01*
X1107880Y38420D01*
X1107880Y43220D02*
X1114860Y43220D01*
X1089460Y394020D02*
X1089460Y401000D01*
X1089460Y394020D02*
X1082480Y394020D01*
X1082480Y401000D01*
X1089460Y401000D01*
X1089460Y398820D02*
X1082480Y398820D01*
X1107000Y401000D02*
X1107000Y394020D01*
X1100020Y394020D01*
X1100020Y401000D01*
X1107000Y401000D01*
X1107000Y398820D02*
X1100020Y398820D01*
X911660Y401000D02*
X911660Y394020D01*
X904680Y394020D01*
X904680Y401000D01*
X911660Y401000D01*
X911660Y398820D02*
X904680Y398820D01*
X929200Y401000D02*
X929200Y394020D01*
X922220Y394020D01*
X922220Y401000D01*
X929200Y401000D01*
X929200Y398820D02*
X922220Y398820D01*
X733860Y401000D02*
X733860Y394020D01*
X726880Y394020D01*
X726880Y401000D01*
X733860Y401000D01*
X733860Y398820D02*
X726880Y398820D01*
X751400Y401000D02*
X751400Y394020D01*
X744420Y394020D01*
X744420Y401000D01*
X751400Y401000D01*
X751400Y398820D02*
X744420Y398820D01*
X556060Y401000D02*
X556060Y394020D01*
X549080Y394020D01*
X549080Y401000D01*
X556060Y401000D01*
X556060Y398820D02*
X549080Y398820D01*
X573600Y401000D02*
X573600Y394020D01*
X566620Y394020D01*
X566620Y401000D01*
X573600Y401000D01*
X573600Y398820D02*
X566620Y398820D01*
D17*
X378460Y49140D03*
X378460Y32140D03*
D18*
X364490Y181610D03*
X427990Y181610D03*
X542290Y181610D03*
X605790Y181610D03*
D17*
X553720Y54220D03*
X553720Y37220D03*
X774700Y68970D03*
X774700Y85970D03*
D14*
X811140Y80010D03*
X794140Y80010D03*
D17*
X753110Y85970D03*
X753110Y68970D03*
X732790Y68970D03*
X732790Y85970D03*
D18*
X720090Y181610D03*
X783590Y181610D03*
D17*
X732790Y50410D03*
X732790Y33410D03*
X949960Y68970D03*
X949960Y85970D03*
X599440Y71510D03*
X599440Y88510D03*
D14*
X988940Y80010D03*
X971940Y80010D03*
D17*
X930910Y85970D03*
X930910Y68970D03*
X908050Y68970D03*
X908050Y85970D03*
D18*
X897890Y181610D03*
X961390Y181610D03*
D17*
X908050Y50410D03*
X908050Y33410D03*
X1129030Y67700D03*
X1129030Y84700D03*
D14*
X1166740Y80010D03*
X1149740Y80010D03*
D17*
X1107440Y84700D03*
X1107440Y67700D03*
X1085850Y67700D03*
X1085850Y84700D03*
D18*
X1075690Y181610D03*
X1139190Y181610D03*
D14*
X633340Y80010D03*
X616340Y80010D03*
D17*
X1088390Y50410D03*
X1088390Y33410D03*
X1085850Y367910D03*
X1085850Y350910D03*
D14*
X1048140Y359410D03*
X1065140Y359410D03*
D17*
X1107440Y350910D03*
X1107440Y367910D03*
X1129030Y367910D03*
X1129030Y350910D03*
D18*
X1139190Y257810D03*
X1075690Y257810D03*
D17*
X1126490Y389010D03*
X1126490Y406010D03*
X904240Y367910D03*
X904240Y350910D03*
D14*
X870340Y359410D03*
X887340Y359410D03*
D17*
X927100Y350910D03*
X927100Y367910D03*
X577850Y88510D03*
X577850Y71510D03*
X949960Y367910D03*
X949960Y350910D03*
D18*
X961390Y257810D03*
X897890Y257810D03*
D17*
X948690Y389010D03*
X948690Y406010D03*
X732790Y366640D03*
X732790Y349640D03*
D14*
X692540Y359410D03*
X709540Y359410D03*
D17*
X750570Y349640D03*
X750570Y366640D03*
X770890Y366640D03*
X770890Y349640D03*
D18*
X783590Y257810D03*
X720090Y257810D03*
D17*
X777240Y389010D03*
X777240Y406010D03*
X551180Y372990D03*
X551180Y355990D03*
X553720Y71510D03*
X553720Y88510D03*
D14*
X514740Y359410D03*
X531740Y359410D03*
D17*
X574040Y355990D03*
X574040Y372990D03*
X594360Y372990D03*
X594360Y355990D03*
D18*
X605790Y257810D03*
X542290Y257810D03*
D17*
X594360Y389010D03*
X594360Y406010D03*
X415290Y71510D03*
X415290Y88510D03*
D14*
X455540Y80010D03*
X438540Y80010D03*
D17*
X396240Y88510D03*
X396240Y71510D03*
X373380Y71510D03*
X373380Y88510D03*
D19*
X615340Y42610D03*
X624840Y42610D03*
X634340Y42610D03*
X634340Y66610D03*
X615340Y66610D03*
X970940Y42610D03*
X980440Y42610D03*
X989940Y42610D03*
X989940Y66610D03*
X970940Y66610D03*
D20*
X878840Y29910D03*
X869340Y53910D03*
X888340Y53910D03*
X878840Y92010D03*
X888340Y68010D03*
X869340Y68010D03*
D19*
X1148740Y42610D03*
X1158240Y42610D03*
X1167740Y42610D03*
X1167740Y66610D03*
X1148740Y66610D03*
D20*
X1056640Y29910D03*
X1047140Y53910D03*
X1066140Y53910D03*
X1056640Y92010D03*
X1066140Y68010D03*
X1047140Y68010D03*
D19*
X1066140Y396810D03*
X1056640Y396810D03*
X1047140Y396810D03*
X1047140Y372810D03*
X1066140Y372810D03*
D20*
X1158240Y409510D03*
X1167740Y385510D03*
X1148740Y385510D03*
X1158240Y347410D03*
X1148740Y371410D03*
X1167740Y371410D03*
D19*
X888340Y396810D03*
X878840Y396810D03*
X869340Y396810D03*
X869340Y372810D03*
X888340Y372810D03*
D20*
X523240Y29910D03*
X513740Y53910D03*
X532740Y53910D03*
X980440Y409510D03*
X989940Y385510D03*
X970940Y385510D03*
X980440Y347410D03*
X970940Y371410D03*
X989940Y371410D03*
D19*
X710540Y396810D03*
X701040Y396810D03*
X691540Y396810D03*
X691540Y372810D03*
X710540Y372810D03*
D20*
X802640Y409510D03*
X812140Y385510D03*
X793140Y385510D03*
X802640Y347410D03*
X793140Y371410D03*
X812140Y371410D03*
D19*
X532740Y396810D03*
X523240Y396810D03*
X513740Y396810D03*
X513740Y372810D03*
X532740Y372810D03*
D20*
X624840Y409510D03*
X634340Y385510D03*
X615340Y385510D03*
X624840Y347410D03*
X615340Y371410D03*
X634340Y371410D03*
X523240Y92010D03*
X532740Y68010D03*
X513740Y68010D03*
D21*
X840740Y219710D03*
X1018540Y219710D03*
X485140Y219710D03*
X662940Y219710D03*
D22*
X78740Y312110D03*
X93740Y312110D03*
X108740Y312110D03*
X48740Y312110D03*
X63740Y312110D03*
X63740Y432110D03*
X78740Y432110D03*
X93740Y432110D03*
X108740Y432110D03*
X48740Y432110D03*
X256540Y312110D03*
X271540Y312110D03*
X286540Y312110D03*
X226540Y312110D03*
X241540Y312110D03*
X241540Y432110D03*
X256540Y432110D03*
X271540Y432110D03*
X286540Y432110D03*
X226540Y432110D03*
X167640Y312110D03*
X182640Y312110D03*
X197640Y312110D03*
X137640Y312110D03*
X152640Y312110D03*
X152640Y432110D03*
X167640Y432110D03*
X182640Y432110D03*
X197640Y432110D03*
X137640Y432110D03*
D19*
X437540Y42610D03*
X447040Y42610D03*
X456540Y42610D03*
X456540Y66610D03*
X437540Y66610D03*
D20*
X345440Y29910D03*
X335940Y53910D03*
X354940Y53910D03*
X345440Y92010D03*
X354940Y68010D03*
X335940Y68010D03*
D19*
X793140Y42610D03*
X802640Y42610D03*
X812140Y42610D03*
X812140Y66610D03*
X793140Y66610D03*
D20*
X701040Y29910D03*
X691540Y53910D03*
X710540Y53910D03*
X701040Y92010D03*
X710540Y68010D03*
X691540Y68010D03*
D23*
X430140Y385200D03*
X358140Y385200D03*
X430140Y295030D03*
X358140Y295030D03*
D24*
X363876Y80010D03*
X410476Y41910D03*
X447040Y16510D03*
X383540Y100330D03*
X345440Y80010D03*
X408940Y181610D03*
X588276Y41910D03*
X541020Y80010D03*
X624840Y16510D03*
X561340Y105410D03*
X561340Y181610D03*
X523240Y80010D03*
X721360Y78740D03*
X766076Y41910D03*
X802640Y16510D03*
X740410Y99060D03*
X898546Y77470D03*
X943876Y41910D03*
X980440Y16510D03*
X916940Y99060D03*
X878840Y80010D03*
X916940Y181610D03*
X1074420Y76200D03*
X1121676Y41910D03*
X1158240Y16510D03*
X1094740Y92710D03*
X1056640Y80010D03*
X1094740Y181610D03*
X1140460Y359410D03*
X1093204Y397510D03*
X1056640Y422910D03*
X1120140Y346710D03*
X1158240Y359410D03*
X1120140Y257810D03*
X915404Y397510D03*
X962660Y359410D03*
X878840Y422910D03*
X942340Y339090D03*
X942340Y257810D03*
X980440Y359410D03*
X737604Y397510D03*
X782320Y358140D03*
X701040Y422910D03*
X760730Y339090D03*
X802640Y359410D03*
X764540Y257810D03*
X168910Y180340D03*
X191770Y44450D03*
X273930Y241300D03*
X609600Y359410D03*
X559804Y397510D03*
X523240Y422910D03*
X586740Y346710D03*
X624840Y359410D03*
X586740Y257810D03*
X701040Y80010D03*
X739140Y181610D03*
X90480Y295910D03*
X116840Y232410D03*
X78740Y448310D03*
X71910Y292100D03*
X167640Y448310D03*
X203200Y330200D03*
X256540Y448310D03*
X241300Y381000D03*
X216234Y318380D03*
X104140Y280190D03*
X216234Y301380D03*
X269240Y118110D03*
X66040Y41910D03*
X79772Y390680D03*
X252693Y392393D03*
X166672Y381000D03*
X152400Y368300D03*
X50800Y381000D03*
X104140Y257810D03*
X231140Y295910D03*
X104140Y416804D03*
X104140Y397510D03*
X180340Y397510D03*
X189196Y416780D03*
X66040Y397510D03*
X285750Y448310D03*
X196850Y448310D03*
X123190Y431800D03*
X193040Y290574D03*
X269240Y295910D03*
X179950Y240030D03*
X179950Y223520D03*
X233116Y334010D03*
X218440Y334010D03*
X56270Y208280D03*
X40640Y232410D03*
X142240Y448310D03*
X198120Y194310D03*
X201930Y154060D03*
X231140Y105410D03*
X243840Y105410D03*
X256540Y105410D03*
X269240Y105410D03*
X281940Y105410D03*
X281940Y92710D03*
X269240Y92710D03*
X256540Y92710D03*
X243840Y92710D03*
X231140Y92710D03*
X231140Y80010D03*
X243840Y80010D03*
X256540Y80010D03*
X269240Y80010D03*
X281940Y80010D03*
X91440Y41910D03*
X104140Y41910D03*
X116840Y41910D03*
M02*
